%TF.GenerationSoftware,KiCad,Pcbnew,8.0.1*%
%TF.CreationDate,2024-10-27T16:15:39-04:00*%
%TF.ProjectId,audio amplifier,61756469-6f20-4616-9d70-6c6966696572,rev?*%
%TF.SameCoordinates,Original*%
%TF.FileFunction,Copper,L2,Bot*%
%TF.FilePolarity,Positive*%
%FSLAX46Y46*%
G04 Gerber Fmt 4.6, Leading zero omitted, Abs format (unit mm)*
G04 Created by KiCad (PCBNEW 8.0.1) date 2024-10-27 16:15:39*
%MOMM*%
%LPD*%
G01*
G04 APERTURE LIST*
%TA.AperFunction,ComponentPad*%
%ADD10R,1.600000X1.600000*%
%TD*%
%TA.AperFunction,ComponentPad*%
%ADD11C,1.600000*%
%TD*%
%TA.AperFunction,ComponentPad*%
%ADD12O,1.600000X1.600000*%
%TD*%
%TA.AperFunction,ComponentPad*%
%ADD13R,1.700000X1.700000*%
%TD*%
%TA.AperFunction,ComponentPad*%
%ADD14O,1.700000X1.700000*%
%TD*%
%TA.AperFunction,ComponentPad*%
%ADD15O,4.000000X4.000000*%
%TD*%
%TA.AperFunction,ComponentPad*%
%ADD16R,1.800000X1.800000*%
%TD*%
%TA.AperFunction,ComponentPad*%
%ADD17C,1.800000*%
%TD*%
%TA.AperFunction,ComponentPad*%
%ADD18C,1.400000*%
%TD*%
%TA.AperFunction,ComponentPad*%
%ADD19O,1.400000X1.400000*%
%TD*%
%TA.AperFunction,ComponentPad*%
%ADD20R,2.000000X2.000000*%
%TD*%
%TA.AperFunction,ComponentPad*%
%ADD21C,2.000000*%
%TD*%
%TA.AperFunction,ViaPad*%
%ADD22C,0.600000*%
%TD*%
%TA.AperFunction,Conductor*%
%ADD23C,0.200000*%
%TD*%
G04 APERTURE END LIST*
D10*
%TO.P,C6,1*%
%TO.N,+9V*%
X131500000Y-78500000D03*
D11*
%TO.P,C6,2*%
%TO.N,GND*%
X136500000Y-78500000D03*
%TD*%
D10*
%TO.P,U1,1,GAIN*%
%TO.N,Net-(RV1-Pad2)*%
X114880000Y-82500000D03*
D12*
%TO.P,U1,2,-*%
%TO.N,GND*%
X114880000Y-85040000D03*
%TO.P,U1,3,+*%
%TO.N,Net-(U1-+)*%
X114880000Y-87580000D03*
%TO.P,U1,4,GND*%
%TO.N,GND*%
X114880000Y-90120000D03*
%TO.P,U1,5*%
%TO.N,Net-(C2-Pad1)*%
X122500000Y-90120000D03*
%TO.P,U1,6,V+*%
%TO.N,+9V*%
X122500000Y-87580000D03*
%TO.P,U1,7,BYPASS*%
%TO.N,Net-(U1-BYPASS)*%
X122500000Y-85040000D03*
%TO.P,U1,8,GAIN*%
%TO.N,Net-(C1-Pad2)*%
X122500000Y-82500000D03*
%TD*%
D11*
%TO.P,R1,1*%
%TO.N,Net-(C3-Pad2)*%
X101500000Y-79000000D03*
D12*
%TO.P,R1,2*%
%TO.N,GND*%
X109120000Y-79000000D03*
%TD*%
D13*
%TO.P,J3,1,Pin_1*%
%TO.N,+9V*%
X132650000Y-89730000D03*
D14*
%TO.P,J3,2,Pin_2*%
%TO.N,GND*%
X132650000Y-92270000D03*
%TD*%
D11*
%TO.P,C3,1*%
%TO.N,Net-(C2-Pad1)*%
X95750000Y-82500000D03*
%TO.P,C3,2*%
%TO.N,Net-(C3-Pad2)*%
X98250000Y-82500000D03*
%TD*%
D15*
%TO.P,RV1,*%
%TO.N,*%
X96750000Y-67725000D03*
X106250000Y-67725000D03*
D16*
%TO.P,RV1,1,1*%
%TO.N,unconnected-(RV1-Pad1)*%
X99000000Y-75225000D03*
D17*
%TO.P,RV1,2,2*%
%TO.N,Net-(RV1-Pad2)*%
X101500000Y-75225000D03*
%TO.P,RV1,3,3*%
%TO.N,Net-(C1-Pad1)*%
X104000000Y-75225000D03*
%TD*%
D18*
%TO.P,R2,1*%
%TO.N,Net-(U1-BYPASS)*%
X122460000Y-77000000D03*
D19*
%TO.P,R2,2*%
%TO.N,Net-(C4-Pad1)*%
X127540000Y-77000000D03*
%TD*%
D20*
%TO.P,C4,1*%
%TO.N,Net-(C4-Pad1)*%
X129000000Y-68000000D03*
D21*
%TO.P,C4,2*%
%TO.N,GND*%
X134000000Y-68000000D03*
%TD*%
D10*
%TO.P,C2,1*%
%TO.N,Net-(C2-Pad1)*%
X126500000Y-100000000D03*
D11*
%TO.P,C2,2*%
%TO.N,Net-(J1-Pin_1)*%
X121500000Y-100000000D03*
%TD*%
%TO.P,C7,1*%
%TO.N,+9V*%
X134500000Y-98500000D03*
%TO.P,C7,2*%
%TO.N,GND*%
X132000000Y-98500000D03*
%TD*%
D20*
%TO.P,C1,1*%
%TO.N,Net-(C1-Pad1)*%
X122000000Y-68000000D03*
D21*
%TO.P,C1,2*%
%TO.N,Net-(C1-Pad2)*%
X117000000Y-68000000D03*
%TD*%
D13*
%TO.P,J2,1,Pin_1*%
%TO.N,GND*%
X107460000Y-88850000D03*
D14*
%TO.P,J2,2,Pin_2*%
%TO.N,unconnected-(J2-Pin_2-Pad2)*%
X104920000Y-88850000D03*
%TO.P,J2,3,Pin_3*%
%TO.N,Net-(J2-Pin_3)*%
X102380000Y-88850000D03*
%TD*%
D15*
%TO.P,RV2,*%
%TO.N,*%
X107250000Y-101775000D03*
X97750000Y-101775000D03*
D16*
%TO.P,RV2,1,1*%
%TO.N,Net-(J2-Pin_3)*%
X105000000Y-94275000D03*
D17*
%TO.P,RV2,2,2*%
%TO.N,Net-(U1-+)*%
X102500000Y-94275000D03*
%TO.P,RV2,3,3*%
%TO.N,GND*%
X100000000Y-94275000D03*
%TD*%
D13*
%TO.P,J1,1,Pin_1*%
%TO.N,Net-(J1-Pin_1)*%
X115500000Y-101000000D03*
D14*
%TO.P,J1,2,Pin_2*%
%TO.N,GND*%
X115500000Y-103540000D03*
%TD*%
D22*
%TO.N,GND*%
X96500000Y-90500000D03*
X113000000Y-95500000D03*
X112500000Y-74500000D03*
X137500000Y-64000000D03*
X136000000Y-106000000D03*
%TO.N,Net-(U1-+)*%
X103500000Y-92000000D03*
%TD*%
D23*
%TO.N,Net-(U1-+)*%
X103500000Y-92000000D02*
X110460000Y-92000000D01*
X110460000Y-92000000D02*
X114880000Y-87580000D01*
%TD*%
%TA.AperFunction,Conductor*%
%TO.N,GND*%
G36*
X139942539Y-61020185D02*
G01*
X139988294Y-61072989D01*
X139999500Y-61124500D01*
X139999500Y-108868819D01*
X139979815Y-108935858D01*
X139927011Y-108981613D01*
X139874181Y-108992812D01*
X94123181Y-108506100D01*
X94056355Y-108485703D01*
X94011164Y-108432416D01*
X94000500Y-108382107D01*
X94000500Y-101775005D01*
X95244556Y-101775005D01*
X95264310Y-102089004D01*
X95264311Y-102089011D01*
X95323270Y-102398083D01*
X95420497Y-102697316D01*
X95420499Y-102697321D01*
X95554461Y-102982003D01*
X95554464Y-102982009D01*
X95723051Y-103247661D01*
X95723054Y-103247665D01*
X95923606Y-103490090D01*
X95923608Y-103490092D01*
X96152968Y-103705476D01*
X96152978Y-103705484D01*
X96407504Y-103890408D01*
X96407509Y-103890410D01*
X96407516Y-103890416D01*
X96683234Y-104041994D01*
X96683239Y-104041996D01*
X96683241Y-104041997D01*
X96683242Y-104041998D01*
X96975771Y-104157818D01*
X96975774Y-104157819D01*
X97208521Y-104217578D01*
X97280527Y-104236066D01*
X97346010Y-104244338D01*
X97592670Y-104275499D01*
X97592679Y-104275499D01*
X97592682Y-104275500D01*
X97592684Y-104275500D01*
X97907316Y-104275500D01*
X97907318Y-104275500D01*
X97907321Y-104275499D01*
X97907329Y-104275499D01*
X98093593Y-104251968D01*
X98219473Y-104236066D01*
X98524225Y-104157819D01*
X98524228Y-104157818D01*
X98816757Y-104041998D01*
X98816758Y-104041997D01*
X98816756Y-104041997D01*
X98816766Y-104041994D01*
X99092484Y-103890416D01*
X99347030Y-103705478D01*
X99576390Y-103490094D01*
X99776947Y-103247663D01*
X99945537Y-102982007D01*
X100079503Y-102697315D01*
X100176731Y-102398079D01*
X100235688Y-102089015D01*
X100235689Y-102089004D01*
X100255444Y-101775005D01*
X104744556Y-101775005D01*
X104764310Y-102089004D01*
X104764311Y-102089011D01*
X104823270Y-102398083D01*
X104920497Y-102697316D01*
X104920499Y-102697321D01*
X105054461Y-102982003D01*
X105054464Y-102982009D01*
X105223051Y-103247661D01*
X105223054Y-103247665D01*
X105423606Y-103490090D01*
X105423608Y-103490092D01*
X105652968Y-103705476D01*
X105652978Y-103705484D01*
X105907504Y-103890408D01*
X105907509Y-103890410D01*
X105907516Y-103890416D01*
X106183234Y-104041994D01*
X106183239Y-104041996D01*
X106183241Y-104041997D01*
X106183242Y-104041998D01*
X106475771Y-104157818D01*
X106475774Y-104157819D01*
X106708521Y-104217578D01*
X106780527Y-104236066D01*
X106846010Y-104244338D01*
X107092670Y-104275499D01*
X107092679Y-104275499D01*
X107092682Y-104275500D01*
X107092684Y-104275500D01*
X107407316Y-104275500D01*
X107407318Y-104275500D01*
X107407321Y-104275499D01*
X107407329Y-104275499D01*
X107593593Y-104251968D01*
X107719473Y-104236066D01*
X108024225Y-104157819D01*
X108024228Y-104157818D01*
X108316757Y-104041998D01*
X108316758Y-104041997D01*
X108316756Y-104041997D01*
X108316766Y-104041994D01*
X108592484Y-103890416D01*
X108847030Y-103705478D01*
X109076390Y-103490094D01*
X109276947Y-103247663D01*
X109445537Y-102982007D01*
X109579503Y-102697315D01*
X109676731Y-102398079D01*
X109735688Y-102089015D01*
X109735689Y-102089004D01*
X109747714Y-101897870D01*
X114149500Y-101897870D01*
X114149501Y-101897876D01*
X114155908Y-101957483D01*
X114206202Y-102092328D01*
X114206206Y-102092335D01*
X114292452Y-102207544D01*
X114292455Y-102207547D01*
X114407664Y-102293793D01*
X114407671Y-102293797D01*
X114407674Y-102293798D01*
X114539598Y-102343002D01*
X114595531Y-102384873D01*
X114619949Y-102450337D01*
X114605098Y-102518610D01*
X114583947Y-102546865D01*
X114461886Y-102668926D01*
X114326400Y-102862420D01*
X114326399Y-102862422D01*
X114226570Y-103076507D01*
X114226567Y-103076513D01*
X114169364Y-103289999D01*
X114169364Y-103290000D01*
X115066988Y-103290000D01*
X115034075Y-103347007D01*
X115000000Y-103474174D01*
X115000000Y-103605826D01*
X115034075Y-103732993D01*
X115066988Y-103790000D01*
X114169364Y-103790000D01*
X114226567Y-104003486D01*
X114226570Y-104003492D01*
X114326399Y-104217578D01*
X114461894Y-104411082D01*
X114628917Y-104578105D01*
X114822421Y-104713600D01*
X115036507Y-104813429D01*
X115036516Y-104813433D01*
X115250000Y-104870634D01*
X115250000Y-103973012D01*
X115307007Y-104005925D01*
X115434174Y-104040000D01*
X115565826Y-104040000D01*
X115692993Y-104005925D01*
X115750000Y-103973012D01*
X115750000Y-104870633D01*
X115963483Y-104813433D01*
X115963492Y-104813429D01*
X116177578Y-104713600D01*
X116371082Y-104578105D01*
X116538105Y-104411082D01*
X116673600Y-104217578D01*
X116773429Y-104003492D01*
X116773432Y-104003486D01*
X116830636Y-103790000D01*
X115933012Y-103790000D01*
X115965925Y-103732993D01*
X116000000Y-103605826D01*
X116000000Y-103474174D01*
X115965925Y-103347007D01*
X115933012Y-103290000D01*
X116830636Y-103290000D01*
X116830635Y-103289999D01*
X116773432Y-103076513D01*
X116773429Y-103076507D01*
X116673600Y-102862422D01*
X116673599Y-102862420D01*
X116538113Y-102668926D01*
X116538108Y-102668920D01*
X116416053Y-102546865D01*
X116382568Y-102485542D01*
X116387552Y-102415850D01*
X116429424Y-102359917D01*
X116460400Y-102343002D01*
X116592331Y-102293796D01*
X116707546Y-102207546D01*
X116793796Y-102092331D01*
X116844091Y-101957483D01*
X116850500Y-101897873D01*
X116850499Y-100102128D01*
X116844091Y-100042517D01*
X116828233Y-100000001D01*
X120194532Y-100000001D01*
X120214364Y-100226686D01*
X120214366Y-100226697D01*
X120273258Y-100446488D01*
X120273261Y-100446497D01*
X120369431Y-100652732D01*
X120369432Y-100652734D01*
X120499954Y-100839141D01*
X120660858Y-101000045D01*
X120660861Y-101000047D01*
X120847266Y-101130568D01*
X121053504Y-101226739D01*
X121273308Y-101285635D01*
X121435230Y-101299801D01*
X121499998Y-101305468D01*
X121500000Y-101305468D01*
X121500002Y-101305468D01*
X121556807Y-101300498D01*
X121726692Y-101285635D01*
X121946496Y-101226739D01*
X122152734Y-101130568D01*
X122339139Y-101000047D01*
X122491316Y-100847870D01*
X125199500Y-100847870D01*
X125199501Y-100847876D01*
X125205908Y-100907483D01*
X125256202Y-101042328D01*
X125256206Y-101042335D01*
X125342452Y-101157544D01*
X125342455Y-101157547D01*
X125457664Y-101243793D01*
X125457671Y-101243797D01*
X125592517Y-101294091D01*
X125592516Y-101294091D01*
X125599444Y-101294835D01*
X125652127Y-101300500D01*
X127347872Y-101300499D01*
X127407483Y-101294091D01*
X127542331Y-101243796D01*
X127657546Y-101157546D01*
X127743796Y-101042331D01*
X127794091Y-100907483D01*
X127800500Y-100847873D01*
X127800499Y-99152128D01*
X127794091Y-99092517D01*
X127791528Y-99085646D01*
X127743797Y-98957671D01*
X127743793Y-98957664D01*
X127657547Y-98842455D01*
X127657544Y-98842452D01*
X127542335Y-98756206D01*
X127542328Y-98756202D01*
X127407482Y-98705908D01*
X127407483Y-98705908D01*
X127347883Y-98699501D01*
X127347881Y-98699500D01*
X127347873Y-98699500D01*
X127347864Y-98699500D01*
X125652129Y-98699500D01*
X125652123Y-98699501D01*
X125592516Y-98705908D01*
X125457671Y-98756202D01*
X125457664Y-98756206D01*
X125342455Y-98842452D01*
X125342452Y-98842455D01*
X125256206Y-98957664D01*
X125256202Y-98957671D01*
X125205908Y-99092517D01*
X125201124Y-99137022D01*
X125199501Y-99152123D01*
X125199500Y-99152135D01*
X125199500Y-100847870D01*
X122491316Y-100847870D01*
X122500047Y-100839139D01*
X122630568Y-100652734D01*
X122726739Y-100446496D01*
X122785635Y-100226692D01*
X122805468Y-100000000D01*
X122785635Y-99773308D01*
X122726739Y-99553504D01*
X122630568Y-99347266D01*
X122500047Y-99160861D01*
X122500045Y-99160858D01*
X122339141Y-98999954D01*
X122152734Y-98869432D01*
X122152732Y-98869431D01*
X121946497Y-98773261D01*
X121946488Y-98773258D01*
X121726697Y-98714366D01*
X121726693Y-98714365D01*
X121726692Y-98714365D01*
X121726691Y-98714364D01*
X121726686Y-98714364D01*
X121500002Y-98694532D01*
X121499998Y-98694532D01*
X121273313Y-98714364D01*
X121273302Y-98714366D01*
X121053511Y-98773258D01*
X121053502Y-98773261D01*
X120847267Y-98869431D01*
X120847265Y-98869432D01*
X120660858Y-98999954D01*
X120499954Y-99160858D01*
X120369432Y-99347265D01*
X120369431Y-99347267D01*
X120273261Y-99553502D01*
X120273258Y-99553511D01*
X120214366Y-99773302D01*
X120214364Y-99773313D01*
X120194532Y-99999998D01*
X120194532Y-100000001D01*
X116828233Y-100000001D01*
X116828233Y-100000000D01*
X116793797Y-99907671D01*
X116793793Y-99907664D01*
X116707547Y-99792455D01*
X116707544Y-99792452D01*
X116592335Y-99706206D01*
X116592328Y-99706202D01*
X116457482Y-99655908D01*
X116457483Y-99655908D01*
X116397883Y-99649501D01*
X116397881Y-99649500D01*
X116397873Y-99649500D01*
X116397864Y-99649500D01*
X114602129Y-99649500D01*
X114602123Y-99649501D01*
X114542516Y-99655908D01*
X114407671Y-99706202D01*
X114407664Y-99706206D01*
X114292455Y-99792452D01*
X114292452Y-99792455D01*
X114206206Y-99907664D01*
X114206202Y-99907671D01*
X114155908Y-100042517D01*
X114149501Y-100102116D01*
X114149501Y-100102123D01*
X114149500Y-100102135D01*
X114149500Y-101897870D01*
X109747714Y-101897870D01*
X109755444Y-101775005D01*
X109755444Y-101774994D01*
X109735689Y-101460995D01*
X109735688Y-101460988D01*
X109735688Y-101460985D01*
X109676731Y-101151921D01*
X109579503Y-100852685D01*
X109577243Y-100847883D01*
X109445538Y-100567996D01*
X109445537Y-100567993D01*
X109410414Y-100512648D01*
X109276948Y-100302338D01*
X109276945Y-100302334D01*
X109076393Y-100059909D01*
X109076391Y-100059907D01*
X108914275Y-99907669D01*
X108847030Y-99844522D01*
X108847027Y-99844520D01*
X108847021Y-99844515D01*
X108592495Y-99659591D01*
X108592488Y-99659586D01*
X108592484Y-99659584D01*
X108316766Y-99508006D01*
X108316763Y-99508004D01*
X108316758Y-99508002D01*
X108316757Y-99508001D01*
X108024228Y-99392181D01*
X108024225Y-99392180D01*
X107719476Y-99313934D01*
X107719463Y-99313932D01*
X107407329Y-99274500D01*
X107407318Y-99274500D01*
X107092682Y-99274500D01*
X107092670Y-99274500D01*
X106780536Y-99313932D01*
X106780523Y-99313934D01*
X106475774Y-99392180D01*
X106475771Y-99392181D01*
X106183242Y-99508001D01*
X106183241Y-99508002D01*
X105907516Y-99659584D01*
X105907504Y-99659591D01*
X105652978Y-99844515D01*
X105652968Y-99844523D01*
X105423608Y-100059907D01*
X105423606Y-100059909D01*
X105223054Y-100302334D01*
X105223051Y-100302338D01*
X105054464Y-100567990D01*
X105054461Y-100567996D01*
X104920499Y-100852678D01*
X104920497Y-100852683D01*
X104823270Y-101151916D01*
X104764311Y-101460988D01*
X104764310Y-101460995D01*
X104744556Y-101774994D01*
X104744556Y-101775005D01*
X100255444Y-101775005D01*
X100255444Y-101774994D01*
X100235689Y-101460995D01*
X100235688Y-101460988D01*
X100235688Y-101460985D01*
X100176731Y-101151921D01*
X100079503Y-100852685D01*
X100077243Y-100847883D01*
X99945538Y-100567996D01*
X99945537Y-100567993D01*
X99910414Y-100512648D01*
X99776948Y-100302338D01*
X99776945Y-100302334D01*
X99576393Y-100059909D01*
X99576391Y-100059907D01*
X99414275Y-99907669D01*
X99347030Y-99844522D01*
X99347027Y-99844520D01*
X99347021Y-99844515D01*
X99092495Y-99659591D01*
X99092488Y-99659586D01*
X99092484Y-99659584D01*
X98816766Y-99508006D01*
X98816763Y-99508004D01*
X98816758Y-99508002D01*
X98816757Y-99508001D01*
X98524228Y-99392181D01*
X98524225Y-99392180D01*
X98219476Y-99313934D01*
X98219463Y-99313932D01*
X97907329Y-99274500D01*
X97907318Y-99274500D01*
X97592682Y-99274500D01*
X97592670Y-99274500D01*
X97280536Y-99313932D01*
X97280523Y-99313934D01*
X96975774Y-99392180D01*
X96975771Y-99392181D01*
X96683242Y-99508001D01*
X96683241Y-99508002D01*
X96407516Y-99659584D01*
X96407504Y-99659591D01*
X96152978Y-99844515D01*
X96152968Y-99844523D01*
X95923608Y-100059907D01*
X95923606Y-100059909D01*
X95723054Y-100302334D01*
X95723051Y-100302338D01*
X95554464Y-100567990D01*
X95554461Y-100567996D01*
X95420499Y-100852678D01*
X95420497Y-100852683D01*
X95323270Y-101151916D01*
X95264311Y-101460988D01*
X95264310Y-101460995D01*
X95244556Y-101774994D01*
X95244556Y-101775005D01*
X94000500Y-101775005D01*
X94000500Y-98500002D01*
X130695034Y-98500002D01*
X130714858Y-98726599D01*
X130714860Y-98726610D01*
X130773730Y-98946317D01*
X130773735Y-98946331D01*
X130869863Y-99152478D01*
X130920974Y-99225472D01*
X131600000Y-98546446D01*
X131600000Y-98552661D01*
X131627259Y-98654394D01*
X131679920Y-98745606D01*
X131754394Y-98820080D01*
X131845606Y-98872741D01*
X131947339Y-98900000D01*
X131953553Y-98900000D01*
X131274526Y-99579025D01*
X131347513Y-99630132D01*
X131347521Y-99630136D01*
X131553668Y-99726264D01*
X131553682Y-99726269D01*
X131773389Y-99785139D01*
X131773400Y-99785141D01*
X131999998Y-99804966D01*
X132000002Y-99804966D01*
X132226599Y-99785141D01*
X132226610Y-99785139D01*
X132446317Y-99726269D01*
X132446331Y-99726264D01*
X132652478Y-99630136D01*
X132725471Y-99579024D01*
X132046447Y-98900000D01*
X132052661Y-98900000D01*
X132154394Y-98872741D01*
X132245606Y-98820080D01*
X132320080Y-98745606D01*
X132372741Y-98654394D01*
X132400000Y-98552661D01*
X132400000Y-98546447D01*
X133079024Y-99225471D01*
X133130134Y-99152481D01*
X133137340Y-99137028D01*
X133183511Y-99084587D01*
X133250704Y-99065433D01*
X133317585Y-99085646D01*
X133362105Y-99137022D01*
X133369430Y-99152730D01*
X133369432Y-99152734D01*
X133499954Y-99339141D01*
X133660858Y-99500045D01*
X133672222Y-99508002D01*
X133847266Y-99630568D01*
X134053504Y-99726739D01*
X134273308Y-99785635D01*
X134435230Y-99799801D01*
X134499998Y-99805468D01*
X134500000Y-99805468D01*
X134500002Y-99805468D01*
X134556673Y-99800509D01*
X134726692Y-99785635D01*
X134946496Y-99726739D01*
X135152734Y-99630568D01*
X135339139Y-99500047D01*
X135500047Y-99339139D01*
X135630568Y-99152734D01*
X135726739Y-98946496D01*
X135785635Y-98726692D01*
X135805468Y-98500000D01*
X135785635Y-98273308D01*
X135726739Y-98053504D01*
X135630568Y-97847266D01*
X135500047Y-97660861D01*
X135500045Y-97660858D01*
X135339141Y-97499954D01*
X135152734Y-97369432D01*
X135152732Y-97369431D01*
X134946497Y-97273261D01*
X134946488Y-97273258D01*
X134726697Y-97214366D01*
X134726693Y-97214365D01*
X134726692Y-97214365D01*
X134726691Y-97214364D01*
X134726686Y-97214364D01*
X134500002Y-97194532D01*
X134499998Y-97194532D01*
X134273313Y-97214364D01*
X134273302Y-97214366D01*
X134053511Y-97273258D01*
X134053502Y-97273261D01*
X133847267Y-97369431D01*
X133847265Y-97369432D01*
X133660858Y-97499954D01*
X133499954Y-97660858D01*
X133369432Y-97847265D01*
X133369429Y-97847270D01*
X133362104Y-97862979D01*
X133315929Y-97915417D01*
X133248735Y-97934566D01*
X133181855Y-97914347D01*
X133137341Y-97862973D01*
X133130133Y-97847515D01*
X133130132Y-97847513D01*
X133079025Y-97774526D01*
X132400000Y-98453551D01*
X132400000Y-98447339D01*
X132372741Y-98345606D01*
X132320080Y-98254394D01*
X132245606Y-98179920D01*
X132154394Y-98127259D01*
X132052661Y-98100000D01*
X132046448Y-98100000D01*
X132725472Y-97420974D01*
X132652478Y-97369863D01*
X132446331Y-97273735D01*
X132446317Y-97273730D01*
X132226610Y-97214860D01*
X132226599Y-97214858D01*
X132000002Y-97195034D01*
X131999998Y-97195034D01*
X131773400Y-97214858D01*
X131773389Y-97214860D01*
X131553682Y-97273730D01*
X131553673Y-97273734D01*
X131347516Y-97369866D01*
X131347512Y-97369868D01*
X131274526Y-97420973D01*
X131274526Y-97420974D01*
X131953553Y-98100000D01*
X131947339Y-98100000D01*
X131845606Y-98127259D01*
X131754394Y-98179920D01*
X131679920Y-98254394D01*
X131627259Y-98345606D01*
X131600000Y-98447339D01*
X131600000Y-98453552D01*
X130920974Y-97774526D01*
X130920973Y-97774526D01*
X130869868Y-97847512D01*
X130869866Y-97847516D01*
X130773734Y-98053673D01*
X130773730Y-98053682D01*
X130714860Y-98273389D01*
X130714858Y-98273400D01*
X130695034Y-98499997D01*
X130695034Y-98500002D01*
X94000500Y-98500002D01*
X94000500Y-94275005D01*
X98595202Y-94275005D01*
X98614361Y-94506218D01*
X98671317Y-94731135D01*
X98764515Y-94943606D01*
X98848812Y-95072633D01*
X99517037Y-94404408D01*
X99534075Y-94467993D01*
X99599901Y-94582007D01*
X99692993Y-94675099D01*
X99807007Y-94740925D01*
X99870590Y-94757962D01*
X99201201Y-95427351D01*
X99231649Y-95451050D01*
X99435697Y-95561476D01*
X99435706Y-95561479D01*
X99655139Y-95636811D01*
X99883993Y-95675000D01*
X100116007Y-95675000D01*
X100344860Y-95636811D01*
X100564293Y-95561479D01*
X100564301Y-95561476D01*
X100768355Y-95451047D01*
X100798797Y-95427351D01*
X100798798Y-95427350D01*
X100129410Y-94757962D01*
X100192993Y-94740925D01*
X100307007Y-94675099D01*
X100400099Y-94582007D01*
X100465925Y-94467993D01*
X100482962Y-94404409D01*
X101151186Y-95072633D01*
X101155967Y-95072137D01*
X101199036Y-95035380D01*
X101268268Y-95025956D01*
X101331604Y-95055457D01*
X101353509Y-95080737D01*
X101391016Y-95138147D01*
X101391019Y-95138151D01*
X101391021Y-95138153D01*
X101548216Y-95308913D01*
X101548219Y-95308915D01*
X101548222Y-95308918D01*
X101731365Y-95451464D01*
X101731371Y-95451468D01*
X101731374Y-95451470D01*
X101881185Y-95532544D01*
X101934652Y-95561479D01*
X101935497Y-95561936D01*
X102049487Y-95601068D01*
X102155015Y-95637297D01*
X102155017Y-95637297D01*
X102155019Y-95637298D01*
X102383951Y-95675500D01*
X102383952Y-95675500D01*
X102616048Y-95675500D01*
X102616049Y-95675500D01*
X102844981Y-95637298D01*
X103064503Y-95561936D01*
X103268626Y-95451470D01*
X103445563Y-95313754D01*
X103510556Y-95288112D01*
X103579096Y-95301678D01*
X103629421Y-95350147D01*
X103637907Y-95368275D01*
X103656202Y-95417328D01*
X103656206Y-95417335D01*
X103742452Y-95532544D01*
X103742455Y-95532547D01*
X103857664Y-95618793D01*
X103857671Y-95618797D01*
X103992517Y-95669091D01*
X103992516Y-95669091D01*
X103999444Y-95669835D01*
X104052127Y-95675500D01*
X105947872Y-95675499D01*
X106007483Y-95669091D01*
X106142331Y-95618796D01*
X106257546Y-95532546D01*
X106343796Y-95417331D01*
X106394091Y-95282483D01*
X106400500Y-95222873D01*
X106400499Y-93327128D01*
X106394091Y-93267517D01*
X106392061Y-93262075D01*
X106343797Y-93132671D01*
X106343793Y-93132664D01*
X106257547Y-93017455D01*
X106257544Y-93017452D01*
X106142335Y-92931206D01*
X106142328Y-92931202D01*
X106007482Y-92880908D01*
X106007483Y-92880908D01*
X105947883Y-92874501D01*
X105947881Y-92874500D01*
X105947873Y-92874500D01*
X105947864Y-92874500D01*
X104052112Y-92874500D01*
X104049362Y-92874648D01*
X103981368Y-92858569D01*
X103932860Y-92808282D01*
X103919240Y-92739753D01*
X103944832Y-92674739D01*
X103976769Y-92645833D01*
X104002262Y-92629816D01*
X104002266Y-92629812D01*
X104005097Y-92627555D01*
X104007273Y-92626666D01*
X104008159Y-92626110D01*
X104008256Y-92626265D01*
X104069783Y-92601145D01*
X104082412Y-92600500D01*
X110373331Y-92600500D01*
X110373347Y-92600501D01*
X110380943Y-92600501D01*
X110539054Y-92600501D01*
X110539057Y-92600501D01*
X110691785Y-92559577D01*
X110741904Y-92530639D01*
X110828716Y-92480520D01*
X110940520Y-92368716D01*
X110940520Y-92368714D01*
X110950728Y-92358507D01*
X110950730Y-92358504D01*
X113430860Y-89878373D01*
X113492179Y-89844891D01*
X113561871Y-89849875D01*
X113589090Y-89870000D01*
X114564314Y-89870000D01*
X114559920Y-89874394D01*
X114507259Y-89965606D01*
X114480000Y-90067339D01*
X114480000Y-90172661D01*
X114507259Y-90274394D01*
X114559920Y-90365606D01*
X114564314Y-90370000D01*
X113601128Y-90370000D01*
X113653730Y-90566317D01*
X113653734Y-90566326D01*
X113749865Y-90772482D01*
X113880342Y-90958820D01*
X114041179Y-91119657D01*
X114227517Y-91250134D01*
X114433673Y-91346265D01*
X114433682Y-91346269D01*
X114629999Y-91398872D01*
X114630000Y-91398871D01*
X114630000Y-90435686D01*
X114634394Y-90440080D01*
X114725606Y-90492741D01*
X114827339Y-90520000D01*
X114932661Y-90520000D01*
X115034394Y-90492741D01*
X115125606Y-90440080D01*
X115130000Y-90435686D01*
X115130000Y-91398872D01*
X115326317Y-91346269D01*
X115326326Y-91346265D01*
X115532482Y-91250134D01*
X115718820Y-91119657D01*
X115879657Y-90958820D01*
X116010134Y-90772482D01*
X116106265Y-90566326D01*
X116106269Y-90566317D01*
X116158872Y-90370000D01*
X115195686Y-90370000D01*
X115200080Y-90365606D01*
X115252741Y-90274394D01*
X115280000Y-90172661D01*
X115280000Y-90120001D01*
X121194532Y-90120001D01*
X121214364Y-90346686D01*
X121214366Y-90346697D01*
X121273258Y-90566488D01*
X121273261Y-90566497D01*
X121369431Y-90772732D01*
X121369432Y-90772734D01*
X121499954Y-90959141D01*
X121660858Y-91120045D01*
X121660861Y-91120047D01*
X121847266Y-91250568D01*
X122053504Y-91346739D01*
X122273308Y-91405635D01*
X122435230Y-91419801D01*
X122499998Y-91425468D01*
X122500000Y-91425468D01*
X122500002Y-91425468D01*
X122556673Y-91420509D01*
X122726692Y-91405635D01*
X122946496Y-91346739D01*
X123152734Y-91250568D01*
X123339139Y-91120047D01*
X123500047Y-90959139D01*
X123630568Y-90772734D01*
X123698120Y-90627870D01*
X131299500Y-90627870D01*
X131299501Y-90627876D01*
X131305908Y-90687483D01*
X131356202Y-90822328D01*
X131356206Y-90822335D01*
X131442452Y-90937544D01*
X131442455Y-90937547D01*
X131557664Y-91023793D01*
X131557671Y-91023797D01*
X131557674Y-91023798D01*
X131689598Y-91073002D01*
X131745531Y-91114873D01*
X131769949Y-91180337D01*
X131755098Y-91248610D01*
X131733947Y-91276865D01*
X131611886Y-91398926D01*
X131476400Y-91592420D01*
X131476399Y-91592422D01*
X131376570Y-91806507D01*
X131376567Y-91806513D01*
X131319364Y-92019999D01*
X131319364Y-92020000D01*
X132216988Y-92020000D01*
X132184075Y-92077007D01*
X132150000Y-92204174D01*
X132150000Y-92335826D01*
X132184075Y-92462993D01*
X132216988Y-92520000D01*
X131319364Y-92520000D01*
X131376567Y-92733486D01*
X131376570Y-92733492D01*
X131476399Y-92947578D01*
X131611894Y-93141082D01*
X131778917Y-93308105D01*
X131972421Y-93443600D01*
X132186507Y-93543429D01*
X132186516Y-93543433D01*
X132400000Y-93600634D01*
X132400000Y-92703012D01*
X132457007Y-92735925D01*
X132584174Y-92770000D01*
X132715826Y-92770000D01*
X132842993Y-92735925D01*
X132900000Y-92703012D01*
X132900000Y-93600633D01*
X133113483Y-93543433D01*
X133113492Y-93543429D01*
X133327578Y-93443600D01*
X133521082Y-93308105D01*
X133688105Y-93141082D01*
X133823600Y-92947578D01*
X133923429Y-92733492D01*
X133923432Y-92733486D01*
X133980636Y-92520000D01*
X133083012Y-92520000D01*
X133115925Y-92462993D01*
X133150000Y-92335826D01*
X133150000Y-92204174D01*
X133115925Y-92077007D01*
X133083012Y-92020000D01*
X133980636Y-92020000D01*
X133980635Y-92019999D01*
X133923432Y-91806513D01*
X133923429Y-91806507D01*
X133823600Y-91592422D01*
X133823599Y-91592420D01*
X133688113Y-91398926D01*
X133688108Y-91398920D01*
X133566053Y-91276865D01*
X133532568Y-91215542D01*
X133537552Y-91145850D01*
X133579424Y-91089917D01*
X133610400Y-91073002D01*
X133742331Y-91023796D01*
X133857546Y-90937546D01*
X133943796Y-90822331D01*
X133994091Y-90687483D01*
X134000500Y-90627873D01*
X134000499Y-88832128D01*
X133994091Y-88772517D01*
X133970986Y-88710570D01*
X133943797Y-88637671D01*
X133943793Y-88637664D01*
X133857547Y-88522455D01*
X133857544Y-88522452D01*
X133742335Y-88436206D01*
X133742328Y-88436202D01*
X133607482Y-88385908D01*
X133607483Y-88385908D01*
X133547883Y-88379501D01*
X133547881Y-88379500D01*
X133547873Y-88379500D01*
X133547864Y-88379500D01*
X131752129Y-88379500D01*
X131752123Y-88379501D01*
X131692516Y-88385908D01*
X131557671Y-88436202D01*
X131557664Y-88436206D01*
X131442455Y-88522452D01*
X131442452Y-88522455D01*
X131356206Y-88637664D01*
X131356202Y-88637671D01*
X131305908Y-88772517D01*
X131300662Y-88821318D01*
X131299501Y-88832123D01*
X131299500Y-88832135D01*
X131299500Y-90627870D01*
X123698120Y-90627870D01*
X123726739Y-90566496D01*
X123785635Y-90346692D01*
X123805468Y-90120000D01*
X123785635Y-89893308D01*
X123726739Y-89673504D01*
X123630568Y-89467266D01*
X123500047Y-89280861D01*
X123500045Y-89280858D01*
X123339141Y-89119954D01*
X123152734Y-88989432D01*
X123152728Y-88989429D01*
X123094725Y-88962382D01*
X123042285Y-88916210D01*
X123023133Y-88849017D01*
X123043348Y-88782135D01*
X123094725Y-88737618D01*
X123152734Y-88710568D01*
X123339139Y-88580047D01*
X123500047Y-88419139D01*
X123630568Y-88232734D01*
X123726739Y-88026496D01*
X123785635Y-87806692D01*
X123805468Y-87580000D01*
X123785635Y-87353308D01*
X123726739Y-87133504D01*
X123630568Y-86927266D01*
X123500047Y-86740861D01*
X123500045Y-86740858D01*
X123339141Y-86579954D01*
X123152734Y-86449432D01*
X123152728Y-86449429D01*
X123094725Y-86422382D01*
X123042285Y-86376210D01*
X123023133Y-86309017D01*
X123043348Y-86242135D01*
X123094725Y-86197618D01*
X123095319Y-86197341D01*
X123152734Y-86170568D01*
X123339139Y-86040047D01*
X123500047Y-85879139D01*
X123630568Y-85692734D01*
X123726739Y-85486496D01*
X123785635Y-85266692D01*
X123805468Y-85040000D01*
X123785635Y-84813308D01*
X123726739Y-84593504D01*
X123630568Y-84387266D01*
X123500047Y-84200861D01*
X123500045Y-84200858D01*
X123339141Y-84039954D01*
X123152734Y-83909432D01*
X123152728Y-83909429D01*
X123094725Y-83882382D01*
X123042285Y-83836210D01*
X123023133Y-83769017D01*
X123043348Y-83702135D01*
X123094725Y-83657618D01*
X123152734Y-83630568D01*
X123339139Y-83500047D01*
X123500047Y-83339139D01*
X123630568Y-83152734D01*
X123726739Y-82946496D01*
X123785635Y-82726692D01*
X123805468Y-82500000D01*
X123785635Y-82273308D01*
X123726739Y-82053504D01*
X123630568Y-81847266D01*
X123500047Y-81660861D01*
X123500045Y-81660858D01*
X123339141Y-81499954D01*
X123152734Y-81369432D01*
X123152732Y-81369431D01*
X122946497Y-81273261D01*
X122946488Y-81273258D01*
X122726697Y-81214366D01*
X122726693Y-81214365D01*
X122726692Y-81214365D01*
X122726691Y-81214364D01*
X122726686Y-81214364D01*
X122500002Y-81194532D01*
X122499998Y-81194532D01*
X122273313Y-81214364D01*
X122273302Y-81214366D01*
X122053511Y-81273258D01*
X122053502Y-81273261D01*
X121847267Y-81369431D01*
X121847265Y-81369432D01*
X121660858Y-81499954D01*
X121499954Y-81660858D01*
X121369432Y-81847265D01*
X121369431Y-81847267D01*
X121273261Y-82053502D01*
X121273258Y-82053511D01*
X121214366Y-82273302D01*
X121214364Y-82273313D01*
X121194532Y-82499998D01*
X121194532Y-82500001D01*
X121214364Y-82726686D01*
X121214366Y-82726697D01*
X121273258Y-82946488D01*
X121273261Y-82946497D01*
X121369431Y-83152732D01*
X121369432Y-83152734D01*
X121499954Y-83339141D01*
X121660858Y-83500045D01*
X121660861Y-83500047D01*
X121847266Y-83630568D01*
X121905275Y-83657618D01*
X121957714Y-83703791D01*
X121976866Y-83770984D01*
X121956650Y-83837865D01*
X121905275Y-83882382D01*
X121847267Y-83909431D01*
X121847265Y-83909432D01*
X121660858Y-84039954D01*
X121499954Y-84200858D01*
X121369432Y-84387265D01*
X121369431Y-84387267D01*
X121273261Y-84593502D01*
X121273258Y-84593511D01*
X121214366Y-84813302D01*
X121214364Y-84813313D01*
X121194532Y-85039998D01*
X121194532Y-85040001D01*
X121214364Y-85266686D01*
X121214366Y-85266697D01*
X121273258Y-85486488D01*
X121273261Y-85486497D01*
X121369431Y-85692732D01*
X121369432Y-85692734D01*
X121499954Y-85879141D01*
X121660858Y-86040045D01*
X121660861Y-86040047D01*
X121847266Y-86170568D01*
X121904681Y-86197341D01*
X121905275Y-86197618D01*
X121957714Y-86243791D01*
X121976866Y-86310984D01*
X121956650Y-86377865D01*
X121905275Y-86422382D01*
X121847267Y-86449431D01*
X121847265Y-86449432D01*
X121660858Y-86579954D01*
X121499954Y-86740858D01*
X121369432Y-86927265D01*
X121369431Y-86927267D01*
X121273261Y-87133502D01*
X121273258Y-87133511D01*
X121214366Y-87353302D01*
X121214364Y-87353313D01*
X121194532Y-87579998D01*
X121194532Y-87580001D01*
X121214364Y-87806686D01*
X121214366Y-87806697D01*
X121273258Y-88026488D01*
X121273261Y-88026497D01*
X121369431Y-88232732D01*
X121369432Y-88232734D01*
X121499954Y-88419141D01*
X121660858Y-88580045D01*
X121660861Y-88580047D01*
X121847266Y-88710568D01*
X121905275Y-88737618D01*
X121957714Y-88783791D01*
X121976866Y-88850984D01*
X121956650Y-88917865D01*
X121905275Y-88962382D01*
X121847267Y-88989431D01*
X121847265Y-88989432D01*
X121660858Y-89119954D01*
X121499954Y-89280858D01*
X121369432Y-89467265D01*
X121369431Y-89467267D01*
X121273261Y-89673502D01*
X121273258Y-89673511D01*
X121214366Y-89893302D01*
X121214364Y-89893313D01*
X121194532Y-90119998D01*
X121194532Y-90120001D01*
X115280000Y-90120001D01*
X115280000Y-90067339D01*
X115252741Y-89965606D01*
X115200080Y-89874394D01*
X115195686Y-89870000D01*
X116158872Y-89870000D01*
X116158872Y-89869999D01*
X116106269Y-89673682D01*
X116106265Y-89673673D01*
X116010134Y-89467517D01*
X115879657Y-89281179D01*
X115718820Y-89120342D01*
X115532482Y-88989865D01*
X115474133Y-88962657D01*
X115421694Y-88916484D01*
X115402542Y-88849291D01*
X115422758Y-88782410D01*
X115474129Y-88737895D01*
X115532734Y-88710568D01*
X115719139Y-88580047D01*
X115880047Y-88419139D01*
X116010568Y-88232734D01*
X116106739Y-88026496D01*
X116165635Y-87806692D01*
X116185468Y-87580000D01*
X116165635Y-87353308D01*
X116106739Y-87133504D01*
X116010568Y-86927266D01*
X115880047Y-86740861D01*
X115880045Y-86740858D01*
X115719141Y-86579954D01*
X115532734Y-86449432D01*
X115532732Y-86449431D01*
X115474725Y-86422382D01*
X115474132Y-86422105D01*
X115421694Y-86375934D01*
X115402542Y-86308740D01*
X115422758Y-86241859D01*
X115474134Y-86197341D01*
X115532484Y-86170132D01*
X115718820Y-86039657D01*
X115879657Y-85878820D01*
X116010134Y-85692482D01*
X116106265Y-85486326D01*
X116106269Y-85486317D01*
X116158872Y-85290000D01*
X115195686Y-85290000D01*
X115200080Y-85285606D01*
X115252741Y-85194394D01*
X115280000Y-85092661D01*
X115280000Y-84987339D01*
X115252741Y-84885606D01*
X115200080Y-84794394D01*
X115195686Y-84790000D01*
X116158872Y-84790000D01*
X116158872Y-84789999D01*
X116106269Y-84593682D01*
X116106265Y-84593673D01*
X116010134Y-84387517D01*
X115879657Y-84201179D01*
X115718820Y-84040342D01*
X115693779Y-84022808D01*
X115650154Y-83968230D01*
X115642962Y-83898732D01*
X115674484Y-83836377D01*
X115734714Y-83800964D01*
X115751650Y-83797943D01*
X115787483Y-83794091D01*
X115922328Y-83743797D01*
X115922327Y-83743797D01*
X115922331Y-83743796D01*
X116037546Y-83657546D01*
X116123796Y-83542331D01*
X116174091Y-83407483D01*
X116180500Y-83347873D01*
X116180499Y-81652128D01*
X116174091Y-81592517D01*
X116139567Y-81499954D01*
X116123797Y-81457671D01*
X116123793Y-81457664D01*
X116037547Y-81342455D01*
X116037544Y-81342452D01*
X115922335Y-81256206D01*
X115922328Y-81256202D01*
X115787482Y-81205908D01*
X115787483Y-81205908D01*
X115727883Y-81199501D01*
X115727881Y-81199500D01*
X115727873Y-81199500D01*
X115727864Y-81199500D01*
X114032129Y-81199500D01*
X114032123Y-81199501D01*
X113972516Y-81205908D01*
X113837671Y-81256202D01*
X113837664Y-81256206D01*
X113722455Y-81342452D01*
X113722452Y-81342455D01*
X113636206Y-81457664D01*
X113636202Y-81457671D01*
X113585908Y-81592517D01*
X113579501Y-81652116D01*
X113579501Y-81652123D01*
X113579500Y-81652135D01*
X113579500Y-83347870D01*
X113579501Y-83347876D01*
X113585908Y-83407483D01*
X113636202Y-83542328D01*
X113636206Y-83542335D01*
X113722452Y-83657544D01*
X113722455Y-83657547D01*
X113837664Y-83743793D01*
X113837671Y-83743797D01*
X113972513Y-83794090D01*
X113972514Y-83794090D01*
X113972517Y-83794091D01*
X114008353Y-83797944D01*
X114072901Y-83824679D01*
X114112751Y-83882070D01*
X114115246Y-83951896D01*
X114079595Y-84011985D01*
X114066223Y-84022805D01*
X114041182Y-84040339D01*
X113880342Y-84201179D01*
X113749865Y-84387517D01*
X113653734Y-84593673D01*
X113653730Y-84593682D01*
X113601127Y-84789999D01*
X113601128Y-84790000D01*
X114564314Y-84790000D01*
X114559920Y-84794394D01*
X114507259Y-84885606D01*
X114480000Y-84987339D01*
X114480000Y-85092661D01*
X114507259Y-85194394D01*
X114559920Y-85285606D01*
X114564314Y-85290000D01*
X113601128Y-85290000D01*
X113653730Y-85486317D01*
X113653734Y-85486326D01*
X113749865Y-85692482D01*
X113880342Y-85878820D01*
X114041179Y-86039657D01*
X114227518Y-86170134D01*
X114227520Y-86170135D01*
X114285865Y-86197342D01*
X114338305Y-86243514D01*
X114357457Y-86310707D01*
X114337242Y-86377589D01*
X114285867Y-86422105D01*
X114227268Y-86449431D01*
X114227264Y-86449433D01*
X114040858Y-86579954D01*
X113879954Y-86740858D01*
X113749432Y-86927265D01*
X113749431Y-86927267D01*
X113653261Y-87133502D01*
X113653258Y-87133511D01*
X113594366Y-87353302D01*
X113594364Y-87353313D01*
X113574532Y-87579998D01*
X113574532Y-87580001D01*
X113594364Y-87806686D01*
X113594366Y-87806697D01*
X113620152Y-87902931D01*
X113618489Y-87972781D01*
X113588058Y-88022705D01*
X110247584Y-91363181D01*
X110186261Y-91396666D01*
X110159903Y-91399500D01*
X104082412Y-91399500D01*
X104015373Y-91379815D01*
X104005097Y-91372445D01*
X104002263Y-91370185D01*
X104002262Y-91370184D01*
X103945496Y-91334515D01*
X103849523Y-91274211D01*
X103679254Y-91214631D01*
X103679249Y-91214630D01*
X103500004Y-91194435D01*
X103499996Y-91194435D01*
X103320750Y-91214630D01*
X103320745Y-91214631D01*
X103150476Y-91274211D01*
X102997737Y-91370184D01*
X102870184Y-91497737D01*
X102774211Y-91650476D01*
X102714631Y-91820745D01*
X102714630Y-91820750D01*
X102694435Y-91999996D01*
X102694435Y-92000003D01*
X102714630Y-92179249D01*
X102714631Y-92179254D01*
X102774211Y-92349523D01*
X102870184Y-92502262D01*
X102997738Y-92629816D01*
X103150478Y-92725789D01*
X103190385Y-92739753D01*
X103320745Y-92785368D01*
X103320750Y-92785369D01*
X103499996Y-92805565D01*
X103500000Y-92805565D01*
X103500004Y-92805565D01*
X103664925Y-92786983D01*
X103733746Y-92799037D01*
X103785126Y-92846387D01*
X103802750Y-92913997D01*
X103781023Y-92980403D01*
X103753122Y-93009467D01*
X103742455Y-93017452D01*
X103742452Y-93017455D01*
X103656206Y-93132664D01*
X103656202Y-93132671D01*
X103637907Y-93181724D01*
X103596035Y-93237658D01*
X103530571Y-93262075D01*
X103462298Y-93247223D01*
X103445563Y-93236245D01*
X103323297Y-93141082D01*
X103268626Y-93098530D01*
X103118811Y-93017454D01*
X103064504Y-92988064D01*
X103064495Y-92988061D01*
X102844984Y-92912702D01*
X102654450Y-92880908D01*
X102616049Y-92874500D01*
X102383951Y-92874500D01*
X102345550Y-92880908D01*
X102155015Y-92912702D01*
X101935504Y-92988061D01*
X101935495Y-92988064D01*
X101731371Y-93098531D01*
X101731365Y-93098535D01*
X101548222Y-93241081D01*
X101548219Y-93241084D01*
X101548216Y-93241086D01*
X101548216Y-93241087D01*
X101523886Y-93267517D01*
X101391018Y-93411850D01*
X101353510Y-93469262D01*
X101300363Y-93514618D01*
X101231132Y-93524042D01*
X101167796Y-93494540D01*
X101153084Y-93477562D01*
X101151186Y-93477365D01*
X100482962Y-94145589D01*
X100465925Y-94082007D01*
X100400099Y-93967993D01*
X100307007Y-93874901D01*
X100192993Y-93809075D01*
X100129409Y-93792037D01*
X100798797Y-93122647D01*
X100798797Y-93122645D01*
X100768360Y-93098955D01*
X100768354Y-93098951D01*
X100564302Y-92988523D01*
X100564293Y-92988520D01*
X100344860Y-92913188D01*
X100116007Y-92875000D01*
X99883993Y-92875000D01*
X99655139Y-92913188D01*
X99435706Y-92988520D01*
X99435697Y-92988523D01*
X99231650Y-93098949D01*
X99201200Y-93122647D01*
X99870591Y-93792037D01*
X99807007Y-93809075D01*
X99692993Y-93874901D01*
X99599901Y-93967993D01*
X99534075Y-94082007D01*
X99517037Y-94145591D01*
X98848811Y-93477365D01*
X98764516Y-93606390D01*
X98671317Y-93818864D01*
X98614361Y-94043781D01*
X98595202Y-94274994D01*
X98595202Y-94275005D01*
X94000500Y-94275005D01*
X94000500Y-88850000D01*
X101024341Y-88850000D01*
X101044936Y-89085403D01*
X101044938Y-89085413D01*
X101106094Y-89313655D01*
X101106096Y-89313659D01*
X101106097Y-89313663D01*
X101177724Y-89467267D01*
X101205965Y-89527830D01*
X101205967Y-89527834D01*
X101307966Y-89673502D01*
X101341505Y-89721401D01*
X101508599Y-89888495D01*
X101515473Y-89893308D01*
X101702165Y-90024032D01*
X101702167Y-90024033D01*
X101702170Y-90024035D01*
X101916337Y-90123903D01*
X102144592Y-90185063D01*
X102315319Y-90200000D01*
X102379999Y-90205659D01*
X102380000Y-90205659D01*
X102380001Y-90205659D01*
X102444681Y-90200000D01*
X102615408Y-90185063D01*
X102843663Y-90123903D01*
X103057830Y-90024035D01*
X103251401Y-89888495D01*
X103418495Y-89721401D01*
X103548425Y-89535842D01*
X103603002Y-89492217D01*
X103672500Y-89485023D01*
X103734855Y-89516546D01*
X103751575Y-89535842D01*
X103881500Y-89721395D01*
X103881505Y-89721401D01*
X104048599Y-89888495D01*
X104055473Y-89893308D01*
X104242165Y-90024032D01*
X104242167Y-90024033D01*
X104242170Y-90024035D01*
X104456337Y-90123903D01*
X104684592Y-90185063D01*
X104855319Y-90200000D01*
X104919999Y-90205659D01*
X104920000Y-90205659D01*
X104920001Y-90205659D01*
X104984681Y-90200000D01*
X105155408Y-90185063D01*
X105383663Y-90123903D01*
X105597830Y-90024035D01*
X105791401Y-89888495D01*
X105913717Y-89766178D01*
X105975036Y-89732696D01*
X106044728Y-89737680D01*
X106100662Y-89779551D01*
X106117577Y-89810528D01*
X106166646Y-89942088D01*
X106166649Y-89942093D01*
X106252809Y-90057187D01*
X106252812Y-90057190D01*
X106367906Y-90143350D01*
X106367913Y-90143354D01*
X106502620Y-90193596D01*
X106502627Y-90193598D01*
X106562155Y-90199999D01*
X106562172Y-90200000D01*
X107210000Y-90200000D01*
X107210000Y-89283012D01*
X107267007Y-89315925D01*
X107394174Y-89350000D01*
X107525826Y-89350000D01*
X107652993Y-89315925D01*
X107710000Y-89283012D01*
X107710000Y-90200000D01*
X108357828Y-90200000D01*
X108357844Y-90199999D01*
X108417372Y-90193598D01*
X108417379Y-90193596D01*
X108552086Y-90143354D01*
X108552093Y-90143350D01*
X108667187Y-90057190D01*
X108667190Y-90057187D01*
X108753350Y-89942093D01*
X108753354Y-89942086D01*
X108803596Y-89807379D01*
X108803598Y-89807372D01*
X108809999Y-89747844D01*
X108810000Y-89747827D01*
X108810000Y-89100000D01*
X107893012Y-89100000D01*
X107925925Y-89042993D01*
X107960000Y-88915826D01*
X107960000Y-88784174D01*
X107925925Y-88657007D01*
X107893012Y-88600000D01*
X108810000Y-88600000D01*
X108810000Y-87952172D01*
X108809999Y-87952155D01*
X108803598Y-87892627D01*
X108803596Y-87892620D01*
X108753354Y-87757913D01*
X108753350Y-87757906D01*
X108667190Y-87642812D01*
X108667187Y-87642809D01*
X108552093Y-87556649D01*
X108552086Y-87556645D01*
X108417379Y-87506403D01*
X108417372Y-87506401D01*
X108357844Y-87500000D01*
X107710000Y-87500000D01*
X107710000Y-88416988D01*
X107652993Y-88384075D01*
X107525826Y-88350000D01*
X107394174Y-88350000D01*
X107267007Y-88384075D01*
X107210000Y-88416988D01*
X107210000Y-87500000D01*
X106562155Y-87500000D01*
X106502627Y-87506401D01*
X106502620Y-87506403D01*
X106367913Y-87556645D01*
X106367906Y-87556649D01*
X106252812Y-87642809D01*
X106252809Y-87642812D01*
X106166649Y-87757906D01*
X106166645Y-87757913D01*
X106117578Y-87889470D01*
X106075707Y-87945404D01*
X106010242Y-87969821D01*
X105941969Y-87954969D01*
X105913715Y-87933819D01*
X105869366Y-87889470D01*
X105791401Y-87811505D01*
X105791397Y-87811502D01*
X105791396Y-87811501D01*
X105597834Y-87675967D01*
X105597830Y-87675965D01*
X105526727Y-87642809D01*
X105383663Y-87576097D01*
X105383659Y-87576096D01*
X105383655Y-87576094D01*
X105155413Y-87514938D01*
X105155403Y-87514936D01*
X104920001Y-87494341D01*
X104919999Y-87494341D01*
X104684596Y-87514936D01*
X104684586Y-87514938D01*
X104456344Y-87576094D01*
X104456335Y-87576098D01*
X104242171Y-87675964D01*
X104242169Y-87675965D01*
X104048597Y-87811505D01*
X103881505Y-87978597D01*
X103751575Y-88164158D01*
X103696998Y-88207783D01*
X103627500Y-88214977D01*
X103565145Y-88183454D01*
X103548425Y-88164158D01*
X103418494Y-87978597D01*
X103251402Y-87811506D01*
X103251395Y-87811501D01*
X103057834Y-87675967D01*
X103057830Y-87675965D01*
X102986727Y-87642809D01*
X102843663Y-87576097D01*
X102843659Y-87576096D01*
X102843655Y-87576094D01*
X102615413Y-87514938D01*
X102615403Y-87514936D01*
X102380001Y-87494341D01*
X102379999Y-87494341D01*
X102144596Y-87514936D01*
X102144586Y-87514938D01*
X101916344Y-87576094D01*
X101916335Y-87576098D01*
X101702171Y-87675964D01*
X101702169Y-87675965D01*
X101508597Y-87811505D01*
X101341505Y-87978597D01*
X101205965Y-88172169D01*
X101205964Y-88172171D01*
X101106098Y-88386335D01*
X101106094Y-88386344D01*
X101044938Y-88614586D01*
X101044936Y-88614596D01*
X101024341Y-88849999D01*
X101024341Y-88850000D01*
X94000500Y-88850000D01*
X94000500Y-82500001D01*
X94444532Y-82500001D01*
X94464364Y-82726686D01*
X94464366Y-82726697D01*
X94523258Y-82946488D01*
X94523261Y-82946497D01*
X94619431Y-83152732D01*
X94619432Y-83152734D01*
X94749954Y-83339141D01*
X94910858Y-83500045D01*
X94910861Y-83500047D01*
X95097266Y-83630568D01*
X95303504Y-83726739D01*
X95523308Y-83785635D01*
X95685230Y-83799801D01*
X95749998Y-83805468D01*
X95750000Y-83805468D01*
X95750002Y-83805468D01*
X95806796Y-83800499D01*
X95976692Y-83785635D01*
X96196496Y-83726739D01*
X96402734Y-83630568D01*
X96589139Y-83500047D01*
X96750047Y-83339139D01*
X96880568Y-83152734D01*
X96887618Y-83137614D01*
X96933789Y-83085176D01*
X97000982Y-83066023D01*
X97067864Y-83086238D01*
X97112381Y-83137614D01*
X97119432Y-83152733D01*
X97119432Y-83152734D01*
X97249954Y-83339141D01*
X97410858Y-83500045D01*
X97410861Y-83500047D01*
X97597266Y-83630568D01*
X97803504Y-83726739D01*
X98023308Y-83785635D01*
X98185230Y-83799801D01*
X98249998Y-83805468D01*
X98250000Y-83805468D01*
X98250002Y-83805468D01*
X98306796Y-83800499D01*
X98476692Y-83785635D01*
X98696496Y-83726739D01*
X98902734Y-83630568D01*
X99089139Y-83500047D01*
X99250047Y-83339139D01*
X99380568Y-83152734D01*
X99476739Y-82946496D01*
X99535635Y-82726692D01*
X99555468Y-82500000D01*
X99535635Y-82273308D01*
X99476739Y-82053504D01*
X99380568Y-81847266D01*
X99250047Y-81660861D01*
X99250045Y-81660858D01*
X99089141Y-81499954D01*
X98902734Y-81369432D01*
X98902732Y-81369431D01*
X98696497Y-81273261D01*
X98696488Y-81273258D01*
X98476697Y-81214366D01*
X98476693Y-81214365D01*
X98476692Y-81214365D01*
X98476691Y-81214364D01*
X98476686Y-81214364D01*
X98250002Y-81194532D01*
X98249998Y-81194532D01*
X98023313Y-81214364D01*
X98023302Y-81214366D01*
X97803511Y-81273258D01*
X97803502Y-81273261D01*
X97597267Y-81369431D01*
X97597265Y-81369432D01*
X97410858Y-81499954D01*
X97249954Y-81660858D01*
X97119433Y-81847264D01*
X97119432Y-81847266D01*
X97112380Y-81862387D01*
X97066209Y-81914825D01*
X96999015Y-81933976D01*
X96932134Y-81913760D01*
X96887619Y-81862387D01*
X96880568Y-81847266D01*
X96750047Y-81660861D01*
X96750045Y-81660858D01*
X96589141Y-81499954D01*
X96402734Y-81369432D01*
X96402732Y-81369431D01*
X96196497Y-81273261D01*
X96196488Y-81273258D01*
X95976697Y-81214366D01*
X95976693Y-81214365D01*
X95976692Y-81214365D01*
X95976691Y-81214364D01*
X95976686Y-81214364D01*
X95750002Y-81194532D01*
X95749998Y-81194532D01*
X95523313Y-81214364D01*
X95523302Y-81214366D01*
X95303511Y-81273258D01*
X95303502Y-81273261D01*
X95097267Y-81369431D01*
X95097265Y-81369432D01*
X94910858Y-81499954D01*
X94749954Y-81660858D01*
X94619432Y-81847265D01*
X94619431Y-81847267D01*
X94523261Y-82053502D01*
X94523258Y-82053511D01*
X94464366Y-82273302D01*
X94464364Y-82273313D01*
X94444532Y-82499998D01*
X94444532Y-82500001D01*
X94000500Y-82500001D01*
X94000500Y-79000001D01*
X100194532Y-79000001D01*
X100214364Y-79226686D01*
X100214366Y-79226697D01*
X100273258Y-79446488D01*
X100273261Y-79446497D01*
X100369431Y-79652732D01*
X100369432Y-79652734D01*
X100499954Y-79839141D01*
X100660858Y-80000045D01*
X100660861Y-80000047D01*
X100847266Y-80130568D01*
X101053504Y-80226739D01*
X101273308Y-80285635D01*
X101435230Y-80299801D01*
X101499998Y-80305468D01*
X101500000Y-80305468D01*
X101500002Y-80305468D01*
X101556673Y-80300509D01*
X101726692Y-80285635D01*
X101946496Y-80226739D01*
X102152734Y-80130568D01*
X102339139Y-80000047D01*
X102500047Y-79839139D01*
X102630568Y-79652734D01*
X102726739Y-79446496D01*
X102785635Y-79226692D01*
X102805468Y-79000000D01*
X102785635Y-78773308D01*
X102779389Y-78749999D01*
X107841127Y-78749999D01*
X107841128Y-78750000D01*
X108804314Y-78750000D01*
X108799920Y-78754394D01*
X108747259Y-78845606D01*
X108720000Y-78947339D01*
X108720000Y-79052661D01*
X108747259Y-79154394D01*
X108799920Y-79245606D01*
X108804314Y-79250000D01*
X107841128Y-79250000D01*
X107893730Y-79446317D01*
X107893734Y-79446326D01*
X107989865Y-79652482D01*
X108120342Y-79838820D01*
X108281179Y-79999657D01*
X108467517Y-80130134D01*
X108673673Y-80226265D01*
X108673682Y-80226269D01*
X108869999Y-80278872D01*
X108870000Y-80278871D01*
X108870000Y-79315686D01*
X108874394Y-79320080D01*
X108965606Y-79372741D01*
X109067339Y-79400000D01*
X109172661Y-79400000D01*
X109274394Y-79372741D01*
X109365606Y-79320080D01*
X109370000Y-79315686D01*
X109370000Y-80278872D01*
X109566317Y-80226269D01*
X109566326Y-80226265D01*
X109772482Y-80130134D01*
X109958820Y-79999657D01*
X110119657Y-79838820D01*
X110250134Y-79652482D01*
X110346265Y-79446326D01*
X110346269Y-79446317D01*
X110372648Y-79347870D01*
X130199500Y-79347870D01*
X130199501Y-79347876D01*
X130205908Y-79407483D01*
X130256202Y-79542328D01*
X130256206Y-79542335D01*
X130342452Y-79657544D01*
X130342455Y-79657547D01*
X130457664Y-79743793D01*
X130457671Y-79743797D01*
X130592517Y-79794091D01*
X130592516Y-79794091D01*
X130599444Y-79794835D01*
X130652127Y-79800500D01*
X132347872Y-79800499D01*
X132407483Y-79794091D01*
X132542331Y-79743796D01*
X132657546Y-79657546D01*
X132743796Y-79542331D01*
X132794091Y-79407483D01*
X132800500Y-79347873D01*
X132800500Y-78500002D01*
X135195034Y-78500002D01*
X135214858Y-78726599D01*
X135214860Y-78726610D01*
X135273730Y-78946317D01*
X135273735Y-78946331D01*
X135369863Y-79152478D01*
X135420974Y-79225472D01*
X136100000Y-78546446D01*
X136100000Y-78552661D01*
X136127259Y-78654394D01*
X136179920Y-78745606D01*
X136254394Y-78820080D01*
X136345606Y-78872741D01*
X136447339Y-78900000D01*
X136453553Y-78900000D01*
X135774526Y-79579025D01*
X135847513Y-79630132D01*
X135847521Y-79630136D01*
X136053668Y-79726264D01*
X136053682Y-79726269D01*
X136273389Y-79785139D01*
X136273400Y-79785141D01*
X136499998Y-79804966D01*
X136500002Y-79804966D01*
X136726599Y-79785141D01*
X136726610Y-79785139D01*
X136946317Y-79726269D01*
X136946331Y-79726264D01*
X137152478Y-79630136D01*
X137225471Y-79579024D01*
X136546447Y-78900000D01*
X136552661Y-78900000D01*
X136654394Y-78872741D01*
X136745606Y-78820080D01*
X136820080Y-78745606D01*
X136872741Y-78654394D01*
X136900000Y-78552661D01*
X136900000Y-78546447D01*
X137579024Y-79225471D01*
X137630136Y-79152478D01*
X137726264Y-78946331D01*
X137726269Y-78946317D01*
X137785139Y-78726610D01*
X137785141Y-78726599D01*
X137804966Y-78500002D01*
X137804966Y-78499997D01*
X137785141Y-78273400D01*
X137785139Y-78273389D01*
X137726269Y-78053682D01*
X137726264Y-78053668D01*
X137630136Y-77847521D01*
X137630132Y-77847513D01*
X137579025Y-77774526D01*
X136900000Y-78453551D01*
X136900000Y-78447339D01*
X136872741Y-78345606D01*
X136820080Y-78254394D01*
X136745606Y-78179920D01*
X136654394Y-78127259D01*
X136552661Y-78100000D01*
X136546448Y-78100000D01*
X137225472Y-77420974D01*
X137152478Y-77369863D01*
X136946331Y-77273735D01*
X136946317Y-77273730D01*
X136726610Y-77214860D01*
X136726599Y-77214858D01*
X136500002Y-77195034D01*
X136499998Y-77195034D01*
X136273400Y-77214858D01*
X136273389Y-77214860D01*
X136053682Y-77273730D01*
X136053673Y-77273734D01*
X135847516Y-77369866D01*
X135847512Y-77369868D01*
X135774526Y-77420973D01*
X135774526Y-77420974D01*
X136453553Y-78100000D01*
X136447339Y-78100000D01*
X136345606Y-78127259D01*
X136254394Y-78179920D01*
X136179920Y-78254394D01*
X136127259Y-78345606D01*
X136100000Y-78447339D01*
X136100000Y-78453552D01*
X135420974Y-77774526D01*
X135420973Y-77774526D01*
X135369868Y-77847512D01*
X135369866Y-77847516D01*
X135273734Y-78053673D01*
X135273730Y-78053682D01*
X135214860Y-78273389D01*
X135214858Y-78273400D01*
X135195034Y-78499997D01*
X135195034Y-78500002D01*
X132800500Y-78500002D01*
X132800499Y-77652128D01*
X132794091Y-77592517D01*
X132743796Y-77457669D01*
X132743795Y-77457668D01*
X132743793Y-77457664D01*
X132657547Y-77342455D01*
X132657544Y-77342452D01*
X132542335Y-77256206D01*
X132542328Y-77256202D01*
X132407482Y-77205908D01*
X132407483Y-77205908D01*
X132347883Y-77199501D01*
X132347881Y-77199500D01*
X132347873Y-77199500D01*
X132347864Y-77199500D01*
X130652129Y-77199500D01*
X130652123Y-77199501D01*
X130592516Y-77205908D01*
X130457671Y-77256202D01*
X130457664Y-77256206D01*
X130342455Y-77342452D01*
X130342452Y-77342455D01*
X130256206Y-77457664D01*
X130256202Y-77457671D01*
X130205908Y-77592517D01*
X130199501Y-77652116D01*
X130199501Y-77652123D01*
X130199500Y-77652135D01*
X130199500Y-79347870D01*
X110372648Y-79347870D01*
X110398872Y-79250000D01*
X109435686Y-79250000D01*
X109440080Y-79245606D01*
X109492741Y-79154394D01*
X109520000Y-79052661D01*
X109520000Y-78947339D01*
X109492741Y-78845606D01*
X109440080Y-78754394D01*
X109435686Y-78750000D01*
X110398872Y-78750000D01*
X110398872Y-78749999D01*
X110346269Y-78553682D01*
X110346265Y-78553673D01*
X110250134Y-78347517D01*
X110119657Y-78161179D01*
X109958820Y-78000342D01*
X109772482Y-77869865D01*
X109566328Y-77773734D01*
X109370000Y-77721127D01*
X109370000Y-78684314D01*
X109365606Y-78679920D01*
X109274394Y-78627259D01*
X109172661Y-78600000D01*
X109067339Y-78600000D01*
X108965606Y-78627259D01*
X108874394Y-78679920D01*
X108870000Y-78684314D01*
X108870000Y-77721127D01*
X108673671Y-77773734D01*
X108467517Y-77869865D01*
X108281179Y-78000342D01*
X108120342Y-78161179D01*
X107989865Y-78347517D01*
X107893734Y-78553673D01*
X107893730Y-78553682D01*
X107841127Y-78749999D01*
X102779389Y-78749999D01*
X102726739Y-78553504D01*
X102630568Y-78347266D01*
X102500047Y-78160861D01*
X102500045Y-78160858D01*
X102339141Y-77999954D01*
X102152734Y-77869432D01*
X102152732Y-77869431D01*
X101946497Y-77773261D01*
X101946488Y-77773258D01*
X101726697Y-77714366D01*
X101726693Y-77714365D01*
X101726692Y-77714365D01*
X101726691Y-77714364D01*
X101726686Y-77714364D01*
X101500002Y-77694532D01*
X101499998Y-77694532D01*
X101273313Y-77714364D01*
X101273302Y-77714366D01*
X101053511Y-77773258D01*
X101053502Y-77773261D01*
X100847267Y-77869431D01*
X100847265Y-77869432D01*
X100660858Y-77999954D01*
X100499954Y-78160858D01*
X100369432Y-78347265D01*
X100369431Y-78347267D01*
X100273261Y-78553502D01*
X100273258Y-78553511D01*
X100214366Y-78773302D01*
X100214364Y-78773313D01*
X100194532Y-78999998D01*
X100194532Y-79000001D01*
X94000500Y-79000001D01*
X94000500Y-77000000D01*
X121254357Y-77000000D01*
X121274884Y-77221535D01*
X121274885Y-77221537D01*
X121335769Y-77435523D01*
X121335775Y-77435538D01*
X121434938Y-77634683D01*
X121434943Y-77634691D01*
X121569020Y-77812238D01*
X121733437Y-77962123D01*
X121733439Y-77962125D01*
X121922595Y-78079245D01*
X121922596Y-78079245D01*
X121922599Y-78079247D01*
X122130060Y-78159618D01*
X122348757Y-78200500D01*
X122348759Y-78200500D01*
X122571241Y-78200500D01*
X122571243Y-78200500D01*
X122789940Y-78159618D01*
X122997401Y-78079247D01*
X123186562Y-77962124D01*
X123350981Y-77812236D01*
X123485058Y-77634689D01*
X123584229Y-77435528D01*
X123645115Y-77221536D01*
X123665643Y-77000000D01*
X126334357Y-77000000D01*
X126354884Y-77221535D01*
X126354885Y-77221537D01*
X126415769Y-77435523D01*
X126415775Y-77435538D01*
X126514938Y-77634683D01*
X126514943Y-77634691D01*
X126649020Y-77812238D01*
X126813437Y-77962123D01*
X126813439Y-77962125D01*
X127002595Y-78079245D01*
X127002596Y-78079245D01*
X127002599Y-78079247D01*
X127210060Y-78159618D01*
X127428757Y-78200500D01*
X127428759Y-78200500D01*
X127651241Y-78200500D01*
X127651243Y-78200500D01*
X127869940Y-78159618D01*
X128077401Y-78079247D01*
X128266562Y-77962124D01*
X128430981Y-77812236D01*
X128565058Y-77634689D01*
X128664229Y-77435528D01*
X128725115Y-77221536D01*
X128745643Y-77000000D01*
X128725115Y-76778464D01*
X128664229Y-76564472D01*
X128664224Y-76564461D01*
X128565061Y-76365316D01*
X128565056Y-76365308D01*
X128430979Y-76187761D01*
X128266562Y-76037876D01*
X128266560Y-76037874D01*
X128077404Y-75920754D01*
X128077398Y-75920752D01*
X127869940Y-75840382D01*
X127651243Y-75799500D01*
X127428757Y-75799500D01*
X127210060Y-75840382D01*
X127154880Y-75861759D01*
X127002601Y-75920752D01*
X127002595Y-75920754D01*
X126813439Y-76037874D01*
X126813437Y-76037876D01*
X126649020Y-76187761D01*
X126514943Y-76365308D01*
X126514938Y-76365316D01*
X126415775Y-76564461D01*
X126415769Y-76564476D01*
X126354885Y-76778462D01*
X126354884Y-76778464D01*
X126334357Y-76999999D01*
X126334357Y-77000000D01*
X123665643Y-77000000D01*
X123645115Y-76778464D01*
X123584229Y-76564472D01*
X123584224Y-76564461D01*
X123485061Y-76365316D01*
X123485056Y-76365308D01*
X123350979Y-76187761D01*
X123186562Y-76037876D01*
X123186560Y-76037874D01*
X122997404Y-75920754D01*
X122997398Y-75920752D01*
X122789940Y-75840382D01*
X122571243Y-75799500D01*
X122348757Y-75799500D01*
X122130060Y-75840382D01*
X122074880Y-75861759D01*
X121922601Y-75920752D01*
X121922595Y-75920754D01*
X121733439Y-76037874D01*
X121733437Y-76037876D01*
X121569020Y-76187761D01*
X121434943Y-76365308D01*
X121434938Y-76365316D01*
X121335775Y-76564461D01*
X121335769Y-76564476D01*
X121274885Y-76778462D01*
X121274884Y-76778464D01*
X121254357Y-76999999D01*
X121254357Y-77000000D01*
X94000500Y-77000000D01*
X94000500Y-76172870D01*
X97599500Y-76172870D01*
X97599501Y-76172876D01*
X97605908Y-76232483D01*
X97656202Y-76367328D01*
X97656206Y-76367335D01*
X97742452Y-76482544D01*
X97742455Y-76482547D01*
X97857664Y-76568793D01*
X97857671Y-76568797D01*
X97992517Y-76619091D01*
X97992516Y-76619091D01*
X97999444Y-76619835D01*
X98052127Y-76625500D01*
X99947872Y-76625499D01*
X100007483Y-76619091D01*
X100142331Y-76568796D01*
X100257546Y-76482546D01*
X100343796Y-76367331D01*
X100362092Y-76318274D01*
X100403961Y-76262342D01*
X100469425Y-76237924D01*
X100537699Y-76252775D01*
X100554436Y-76263755D01*
X100731365Y-76401464D01*
X100731371Y-76401468D01*
X100731374Y-76401470D01*
X100935497Y-76511936D01*
X101049487Y-76551068D01*
X101155015Y-76587297D01*
X101155017Y-76587297D01*
X101155019Y-76587298D01*
X101383951Y-76625500D01*
X101383952Y-76625500D01*
X101616048Y-76625500D01*
X101616049Y-76625500D01*
X101844981Y-76587298D01*
X102064503Y-76511936D01*
X102268626Y-76401470D01*
X102451784Y-76258913D01*
X102608979Y-76088153D01*
X102646191Y-76031196D01*
X102699337Y-75985839D01*
X102768569Y-75976415D01*
X102831904Y-76005917D01*
X102853809Y-76031196D01*
X102891016Y-76088147D01*
X102891019Y-76088151D01*
X102891021Y-76088153D01*
X103048216Y-76258913D01*
X103048219Y-76258915D01*
X103048222Y-76258918D01*
X103231365Y-76401464D01*
X103231371Y-76401468D01*
X103231374Y-76401470D01*
X103435497Y-76511936D01*
X103549487Y-76551068D01*
X103655015Y-76587297D01*
X103655017Y-76587297D01*
X103655019Y-76587298D01*
X103883951Y-76625500D01*
X103883952Y-76625500D01*
X104116048Y-76625500D01*
X104116049Y-76625500D01*
X104344981Y-76587298D01*
X104564503Y-76511936D01*
X104768626Y-76401470D01*
X104951784Y-76258913D01*
X105108979Y-76088153D01*
X105235924Y-75893849D01*
X105329157Y-75681300D01*
X105386134Y-75456305D01*
X105405300Y-75225000D01*
X105405300Y-75224993D01*
X105386135Y-74993702D01*
X105386133Y-74993691D01*
X105329157Y-74768699D01*
X105235924Y-74556151D01*
X105108983Y-74361852D01*
X105108980Y-74361849D01*
X105108979Y-74361847D01*
X104951784Y-74191087D01*
X104951779Y-74191083D01*
X104951777Y-74191081D01*
X104768634Y-74048535D01*
X104768628Y-74048531D01*
X104564504Y-73938064D01*
X104564495Y-73938061D01*
X104344984Y-73862702D01*
X104154450Y-73830908D01*
X104116049Y-73824500D01*
X103883951Y-73824500D01*
X103845550Y-73830908D01*
X103655015Y-73862702D01*
X103435504Y-73938061D01*
X103435495Y-73938064D01*
X103231371Y-74048531D01*
X103231365Y-74048535D01*
X103048222Y-74191081D01*
X103048219Y-74191084D01*
X103048216Y-74191086D01*
X103048216Y-74191087D01*
X102900500Y-74351551D01*
X102891015Y-74361854D01*
X102853808Y-74418804D01*
X102800662Y-74464161D01*
X102731430Y-74473584D01*
X102668095Y-74444082D01*
X102646192Y-74418804D01*
X102608984Y-74361854D01*
X102608982Y-74361852D01*
X102608979Y-74361847D01*
X102451784Y-74191087D01*
X102451779Y-74191083D01*
X102451777Y-74191081D01*
X102268634Y-74048535D01*
X102268628Y-74048531D01*
X102064504Y-73938064D01*
X102064495Y-73938061D01*
X101844984Y-73862702D01*
X101654450Y-73830908D01*
X101616049Y-73824500D01*
X101383951Y-73824500D01*
X101345550Y-73830908D01*
X101155015Y-73862702D01*
X100935504Y-73938061D01*
X100935495Y-73938064D01*
X100731372Y-74048531D01*
X100554436Y-74186245D01*
X100489442Y-74211887D01*
X100420902Y-74198320D01*
X100370577Y-74149852D01*
X100362092Y-74131723D01*
X100343798Y-74082673D01*
X100343793Y-74082664D01*
X100257547Y-73967455D01*
X100257544Y-73967452D01*
X100142335Y-73881206D01*
X100142328Y-73881202D01*
X100007482Y-73830908D01*
X100007483Y-73830908D01*
X99947883Y-73824501D01*
X99947881Y-73824500D01*
X99947873Y-73824500D01*
X99947864Y-73824500D01*
X98052129Y-73824500D01*
X98052123Y-73824501D01*
X97992516Y-73830908D01*
X97857671Y-73881202D01*
X97857664Y-73881206D01*
X97742455Y-73967452D01*
X97742452Y-73967455D01*
X97656206Y-74082664D01*
X97656202Y-74082671D01*
X97605908Y-74217517D01*
X97599501Y-74277116D01*
X97599500Y-74277135D01*
X97599500Y-76172870D01*
X94000500Y-76172870D01*
X94000500Y-67791586D01*
X94018955Y-67728737D01*
X94225538Y-67728737D01*
X94243477Y-67756651D01*
X94248255Y-67783800D01*
X94264310Y-68039004D01*
X94264311Y-68039011D01*
X94323270Y-68348083D01*
X94420497Y-68647316D01*
X94420499Y-68647321D01*
X94554461Y-68932003D01*
X94554464Y-68932009D01*
X94723051Y-69197661D01*
X94723054Y-69197665D01*
X94923606Y-69440090D01*
X94923608Y-69440092D01*
X95152968Y-69655476D01*
X95152978Y-69655484D01*
X95407504Y-69840408D01*
X95407509Y-69840410D01*
X95407516Y-69840416D01*
X95683234Y-69991994D01*
X95683239Y-69991996D01*
X95683241Y-69991997D01*
X95683242Y-69991998D01*
X95975771Y-70107818D01*
X95975774Y-70107819D01*
X96280523Y-70186065D01*
X96280527Y-70186066D01*
X96346010Y-70194338D01*
X96592670Y-70225499D01*
X96592679Y-70225499D01*
X96592682Y-70225500D01*
X96592684Y-70225500D01*
X96907316Y-70225500D01*
X96907318Y-70225500D01*
X96907321Y-70225499D01*
X96907329Y-70225499D01*
X97093593Y-70201968D01*
X97219473Y-70186066D01*
X97524225Y-70107819D01*
X97524228Y-70107818D01*
X97816757Y-69991998D01*
X97816758Y-69991997D01*
X97816756Y-69991997D01*
X97816766Y-69991994D01*
X98092484Y-69840416D01*
X98347030Y-69655478D01*
X98576390Y-69440094D01*
X98776947Y-69197663D01*
X98945537Y-68932007D01*
X99079503Y-68647315D01*
X99176731Y-68348079D01*
X99235688Y-68039015D01*
X99235689Y-68039004D01*
X99255444Y-67725005D01*
X103744556Y-67725005D01*
X103764310Y-68039004D01*
X103764311Y-68039011D01*
X103823270Y-68348083D01*
X103920497Y-68647316D01*
X103920499Y-68647321D01*
X104054461Y-68932003D01*
X104054464Y-68932009D01*
X104223051Y-69197661D01*
X104223054Y-69197665D01*
X104423606Y-69440090D01*
X104423608Y-69440092D01*
X104652968Y-69655476D01*
X104652978Y-69655484D01*
X104907504Y-69840408D01*
X104907509Y-69840410D01*
X104907516Y-69840416D01*
X105183234Y-69991994D01*
X105183239Y-69991996D01*
X105183241Y-69991997D01*
X105183242Y-69991998D01*
X105475771Y-70107818D01*
X105475774Y-70107819D01*
X105780523Y-70186065D01*
X105780527Y-70186066D01*
X105846010Y-70194338D01*
X106092670Y-70225499D01*
X106092679Y-70225499D01*
X106092682Y-70225500D01*
X106092684Y-70225500D01*
X106407316Y-70225500D01*
X106407318Y-70225500D01*
X106407321Y-70225499D01*
X106407329Y-70225499D01*
X106593593Y-70201968D01*
X106719473Y-70186066D01*
X107024225Y-70107819D01*
X107024228Y-70107818D01*
X107316757Y-69991998D01*
X107316758Y-69991997D01*
X107316756Y-69991997D01*
X107316766Y-69991994D01*
X107592484Y-69840416D01*
X107847030Y-69655478D01*
X108076390Y-69440094D01*
X108276947Y-69197663D01*
X108445537Y-68932007D01*
X108579503Y-68647315D01*
X108676731Y-68348079D01*
X108735688Y-68039015D01*
X108735689Y-68039004D01*
X108738143Y-68000005D01*
X115494357Y-68000005D01*
X115514890Y-68247812D01*
X115514892Y-68247824D01*
X115575936Y-68488881D01*
X115675826Y-68716606D01*
X115811833Y-68924782D01*
X115818484Y-68932007D01*
X115980256Y-69107738D01*
X116176491Y-69260474D01*
X116176493Y-69260475D01*
X116394332Y-69378364D01*
X116395190Y-69378828D01*
X116573640Y-69440090D01*
X116628964Y-69459083D01*
X116630386Y-69459571D01*
X116875665Y-69500500D01*
X117124335Y-69500500D01*
X117369614Y-69459571D01*
X117604810Y-69378828D01*
X117823509Y-69260474D01*
X118019744Y-69107738D01*
X118074856Y-69047870D01*
X120499500Y-69047870D01*
X120499501Y-69047876D01*
X120505908Y-69107483D01*
X120556202Y-69242328D01*
X120556206Y-69242335D01*
X120642452Y-69357544D01*
X120642455Y-69357547D01*
X120757664Y-69443793D01*
X120757671Y-69443797D01*
X120892517Y-69494091D01*
X120892516Y-69494091D01*
X120899444Y-69494835D01*
X120952127Y-69500500D01*
X123047872Y-69500499D01*
X123107483Y-69494091D01*
X123242331Y-69443796D01*
X123357546Y-69357546D01*
X123443796Y-69242331D01*
X123494091Y-69107483D01*
X123500500Y-69047873D01*
X123500500Y-69047870D01*
X127499500Y-69047870D01*
X127499501Y-69047876D01*
X127505908Y-69107483D01*
X127556202Y-69242328D01*
X127556206Y-69242335D01*
X127642452Y-69357544D01*
X127642455Y-69357547D01*
X127757664Y-69443793D01*
X127757671Y-69443797D01*
X127892517Y-69494091D01*
X127892516Y-69494091D01*
X127899444Y-69494835D01*
X127952127Y-69500500D01*
X130047872Y-69500499D01*
X130107483Y-69494091D01*
X130242331Y-69443796D01*
X130357546Y-69357546D01*
X130443796Y-69242331D01*
X130494091Y-69107483D01*
X130500500Y-69047873D01*
X130500500Y-68000005D01*
X132494859Y-68000005D01*
X132515385Y-68247729D01*
X132515387Y-68247738D01*
X132576412Y-68488717D01*
X132676266Y-68716364D01*
X132776564Y-68869882D01*
X133517037Y-68129409D01*
X133534075Y-68192993D01*
X133599901Y-68307007D01*
X133692993Y-68400099D01*
X133807007Y-68465925D01*
X133870590Y-68482962D01*
X133129942Y-69223609D01*
X133176768Y-69260055D01*
X133176770Y-69260056D01*
X133395385Y-69378364D01*
X133395396Y-69378369D01*
X133630506Y-69459083D01*
X133875707Y-69500000D01*
X134124293Y-69500000D01*
X134369493Y-69459083D01*
X134604603Y-69378369D01*
X134604614Y-69378364D01*
X134823228Y-69260057D01*
X134823231Y-69260055D01*
X134870056Y-69223609D01*
X134129409Y-68482962D01*
X134192993Y-68465925D01*
X134307007Y-68400099D01*
X134400099Y-68307007D01*
X134465925Y-68192993D01*
X134482962Y-68129410D01*
X135223434Y-68869882D01*
X135323731Y-68716369D01*
X135423587Y-68488717D01*
X135484612Y-68247738D01*
X135484614Y-68247729D01*
X135505141Y-68000005D01*
X135505141Y-67999994D01*
X135484614Y-67752270D01*
X135484612Y-67752261D01*
X135423587Y-67511282D01*
X135323731Y-67283630D01*
X135223434Y-67130116D01*
X134482962Y-67870589D01*
X134465925Y-67807007D01*
X134400099Y-67692993D01*
X134307007Y-67599901D01*
X134192993Y-67534075D01*
X134129410Y-67517037D01*
X134870057Y-66776390D01*
X134870056Y-66776389D01*
X134823229Y-66739943D01*
X134604614Y-66621635D01*
X134604603Y-66621630D01*
X134369493Y-66540916D01*
X134124293Y-66500000D01*
X133875707Y-66500000D01*
X133630506Y-66540916D01*
X133395396Y-66621630D01*
X133395390Y-66621632D01*
X133176761Y-66739949D01*
X133129942Y-66776388D01*
X133129942Y-66776390D01*
X133870590Y-67517037D01*
X133807007Y-67534075D01*
X133692993Y-67599901D01*
X133599901Y-67692993D01*
X133534075Y-67807007D01*
X133517037Y-67870589D01*
X132776564Y-67130116D01*
X132676267Y-67283632D01*
X132576412Y-67511282D01*
X132515387Y-67752261D01*
X132515385Y-67752270D01*
X132494859Y-67999994D01*
X132494859Y-68000005D01*
X130500500Y-68000005D01*
X130500499Y-66952128D01*
X130494091Y-66892517D01*
X130460583Y-66802678D01*
X130443797Y-66757671D01*
X130443793Y-66757664D01*
X130357547Y-66642455D01*
X130357544Y-66642452D01*
X130242335Y-66556206D01*
X130242328Y-66556202D01*
X130107482Y-66505908D01*
X130107483Y-66505908D01*
X130047883Y-66499501D01*
X130047881Y-66499500D01*
X130047873Y-66499500D01*
X130047864Y-66499500D01*
X127952129Y-66499500D01*
X127952123Y-66499501D01*
X127892516Y-66505908D01*
X127757671Y-66556202D01*
X127757664Y-66556206D01*
X127642455Y-66642452D01*
X127642452Y-66642455D01*
X127556206Y-66757664D01*
X127556202Y-66757671D01*
X127505908Y-66892517D01*
X127499501Y-66952116D01*
X127499501Y-66952123D01*
X127499500Y-66952135D01*
X127499500Y-69047870D01*
X123500500Y-69047870D01*
X123500499Y-66952128D01*
X123494091Y-66892517D01*
X123460583Y-66802678D01*
X123443797Y-66757671D01*
X123443793Y-66757664D01*
X123357547Y-66642455D01*
X123357544Y-66642452D01*
X123242335Y-66556206D01*
X123242328Y-66556202D01*
X123107482Y-66505908D01*
X123107483Y-66505908D01*
X123047883Y-66499501D01*
X123047881Y-66499500D01*
X123047873Y-66499500D01*
X123047864Y-66499500D01*
X120952129Y-66499500D01*
X120952123Y-66499501D01*
X120892516Y-66505908D01*
X120757671Y-66556202D01*
X120757664Y-66556206D01*
X120642455Y-66642452D01*
X120642452Y-66642455D01*
X120556206Y-66757664D01*
X120556202Y-66757671D01*
X120505908Y-66892517D01*
X120499501Y-66952116D01*
X120499501Y-66952123D01*
X120499500Y-66952135D01*
X120499500Y-69047870D01*
X118074856Y-69047870D01*
X118188164Y-68924785D01*
X118324173Y-68716607D01*
X118424063Y-68488881D01*
X118485108Y-68247821D01*
X118500189Y-68065826D01*
X118505643Y-68000005D01*
X118505643Y-67999994D01*
X118485109Y-67752187D01*
X118485107Y-67752175D01*
X118424063Y-67511118D01*
X118324173Y-67283393D01*
X118188166Y-67075217D01*
X118166557Y-67051744D01*
X118019744Y-66892262D01*
X117823509Y-66739526D01*
X117823507Y-66739525D01*
X117823506Y-66739524D01*
X117604811Y-66621172D01*
X117604802Y-66621169D01*
X117369616Y-66540429D01*
X117124335Y-66499500D01*
X116875665Y-66499500D01*
X116630383Y-66540429D01*
X116395197Y-66621169D01*
X116395188Y-66621172D01*
X116176493Y-66739524D01*
X115980257Y-66892261D01*
X115811833Y-67075217D01*
X115675826Y-67283393D01*
X115575936Y-67511118D01*
X115514892Y-67752175D01*
X115514890Y-67752187D01*
X115494357Y-67999994D01*
X115494357Y-68000005D01*
X108738143Y-68000005D01*
X108755444Y-67725005D01*
X108755444Y-67724994D01*
X108735689Y-67410995D01*
X108735688Y-67410988D01*
X108735688Y-67410985D01*
X108676731Y-67101921D01*
X108579503Y-66802685D01*
X108445537Y-66517993D01*
X108276947Y-66252337D01*
X108276945Y-66252334D01*
X108076393Y-66009909D01*
X108076391Y-66009907D01*
X107847031Y-65794523D01*
X107847021Y-65794515D01*
X107592495Y-65609591D01*
X107592488Y-65609586D01*
X107592484Y-65609584D01*
X107316766Y-65458006D01*
X107316763Y-65458004D01*
X107316758Y-65458002D01*
X107316757Y-65458001D01*
X107024228Y-65342181D01*
X107024225Y-65342180D01*
X106719476Y-65263934D01*
X106719463Y-65263932D01*
X106407329Y-65224500D01*
X106407318Y-65224500D01*
X106092682Y-65224500D01*
X106092670Y-65224500D01*
X105780536Y-65263932D01*
X105780523Y-65263934D01*
X105475774Y-65342180D01*
X105475771Y-65342181D01*
X105183242Y-65458001D01*
X105183241Y-65458002D01*
X104907516Y-65609584D01*
X104907504Y-65609591D01*
X104652978Y-65794515D01*
X104652968Y-65794523D01*
X104423608Y-66009907D01*
X104423606Y-66009909D01*
X104223054Y-66252334D01*
X104223051Y-66252338D01*
X104054464Y-66517990D01*
X104054461Y-66517996D01*
X103920499Y-66802678D01*
X103920497Y-66802683D01*
X103823270Y-67101916D01*
X103764311Y-67410988D01*
X103764310Y-67410995D01*
X103744556Y-67724994D01*
X103744556Y-67725005D01*
X99255444Y-67725005D01*
X99255444Y-67724994D01*
X99235689Y-67410995D01*
X99235688Y-67410988D01*
X99235688Y-67410985D01*
X99176731Y-67101921D01*
X99079503Y-66802685D01*
X98945537Y-66517993D01*
X98776947Y-66252337D01*
X98776945Y-66252334D01*
X98576393Y-66009909D01*
X98576391Y-66009907D01*
X98347031Y-65794523D01*
X98347021Y-65794515D01*
X98092495Y-65609591D01*
X98092488Y-65609586D01*
X98092484Y-65609584D01*
X97816766Y-65458006D01*
X97816763Y-65458004D01*
X97816758Y-65458002D01*
X97816757Y-65458001D01*
X97524228Y-65342181D01*
X97524225Y-65342180D01*
X97219476Y-65263934D01*
X97219463Y-65263932D01*
X96907329Y-65224500D01*
X96907318Y-65224500D01*
X96592682Y-65224500D01*
X96592670Y-65224500D01*
X96280536Y-65263932D01*
X96280523Y-65263934D01*
X95975774Y-65342180D01*
X95975771Y-65342181D01*
X95683242Y-65458001D01*
X95683241Y-65458002D01*
X95407516Y-65609584D01*
X95407504Y-65609591D01*
X95152978Y-65794515D01*
X95152968Y-65794523D01*
X94923608Y-66009907D01*
X94923606Y-66009909D01*
X94723054Y-66252334D01*
X94723051Y-66252338D01*
X94554464Y-66517990D01*
X94554461Y-66517996D01*
X94420499Y-66802678D01*
X94420497Y-66802683D01*
X94323270Y-67101916D01*
X94264311Y-67410988D01*
X94264310Y-67410995D01*
X94248255Y-67666199D01*
X94225538Y-67728737D01*
X94018955Y-67728737D01*
X94020185Y-67724547D01*
X94023533Y-67721645D01*
X94003564Y-67685808D01*
X94000500Y-67658413D01*
X94000500Y-61124500D01*
X94020185Y-61057461D01*
X94072989Y-61011706D01*
X94124500Y-61000500D01*
X139875500Y-61000500D01*
X139942539Y-61020185D01*
G37*
%TD.AperFunction*%
%TD*%
M02*
