M48
; DRILL file {KiCad 8.0.1} date 2024-10-27T16:15:45-0400
; FORMAT={-:-/ absolute / metric / decimal}
; #@! TF.CreationDate,2024-10-27T16:15:45-04:00
; #@! TF.GenerationSoftware,Kicad,Pcbnew,8.0.1
; #@! TF.FileFunction,Plated,1,2,PTH
FMAT,2
METRIC
; #@! TA.AperFunction,Plated,PTH,ViaDrill
T1C0.300
; #@! TA.AperFunction,Plated,PTH,ComponentDrill
T2C0.700
; #@! TA.AperFunction,Plated,PTH,ComponentDrill
T3C0.800
; #@! TA.AperFunction,Plated,PTH,ComponentDrill
T4C1.000
; #@! TA.AperFunction,Plated,PTH,ComponentDrill
T5C2.000
%
G90
G05
T1
X96.5Y-90.5
X103.5Y-92.0
X112.5Y-74.5
X113.0Y-95.5
X136.0Y-106.0
X137.5Y-64.0
T2
X122.46Y-77.0
X127.54Y-77.0
T3
X95.75Y-82.5
X98.25Y-82.5
X101.5Y-79.0
X109.12Y-79.0
X114.88Y-82.5
X114.88Y-85.04
X114.88Y-87.58
X114.88Y-90.12
X121.5Y-100.0
X122.5Y-82.5
X122.5Y-85.04
X122.5Y-87.58
X122.5Y-90.12
X126.5Y-100.0
X131.5Y-78.5
X132.0Y-98.5
X134.5Y-98.5
X136.5Y-78.5
T4
X99.0Y-75.225
X100.0Y-94.275
X101.5Y-75.225
X102.38Y-88.85
X102.5Y-94.275
X104.0Y-75.225
X104.92Y-88.85
X105.0Y-94.275
X107.46Y-88.85
X115.5Y-101.0
X115.5Y-103.54
X117.0Y-68.0
X122.0Y-68.0
X129.0Y-68.0
X132.65Y-89.73
X132.65Y-92.27
X134.0Y-68.0
T5
X96.75Y-67.725
X97.75Y-101.775
X106.25Y-67.725
X107.25Y-101.775
M30
