%TF.GenerationSoftware,KiCad,Pcbnew,8.0.1*%
%TF.CreationDate,2024-10-27T16:15:39-04:00*%
%TF.ProjectId,audio amplifier,61756469-6f20-4616-9d70-6c6966696572,rev?*%
%TF.SameCoordinates,Original*%
%TF.FileFunction,Legend,Top*%
%TF.FilePolarity,Positive*%
%FSLAX46Y46*%
G04 Gerber Fmt 4.6, Leading zero omitted, Abs format (unit mm)*
G04 Created by KiCad (PCBNEW 8.0.1) date 2024-10-27 16:15:39*
%MOMM*%
%LPD*%
G01*
G04 APERTURE LIST*
%ADD10C,0.150000*%
%ADD11C,0.120000*%
%ADD12R,1.600000X1.600000*%
%ADD13C,1.600000*%
%ADD14O,1.600000X1.600000*%
%ADD15R,1.700000X1.700000*%
%ADD16O,1.700000X1.700000*%
%ADD17O,4.000000X4.000000*%
%ADD18R,1.800000X1.800000*%
%ADD19C,1.800000*%
%ADD20C,1.400000*%
%ADD21O,1.400000X1.400000*%
%ADD22R,2.000000X2.000000*%
%ADD23C,2.000000*%
G04 APERTURE END LIST*
D10*
X138333333Y-75859580D02*
X138285714Y-75907200D01*
X138285714Y-75907200D02*
X138142857Y-75954819D01*
X138142857Y-75954819D02*
X138047619Y-75954819D01*
X138047619Y-75954819D02*
X137904762Y-75907200D01*
X137904762Y-75907200D02*
X137809524Y-75811961D01*
X137809524Y-75811961D02*
X137761905Y-75716723D01*
X137761905Y-75716723D02*
X137714286Y-75526247D01*
X137714286Y-75526247D02*
X137714286Y-75383390D01*
X137714286Y-75383390D02*
X137761905Y-75192914D01*
X137761905Y-75192914D02*
X137809524Y-75097676D01*
X137809524Y-75097676D02*
X137904762Y-75002438D01*
X137904762Y-75002438D02*
X138047619Y-74954819D01*
X138047619Y-74954819D02*
X138142857Y-74954819D01*
X138142857Y-74954819D02*
X138285714Y-75002438D01*
X138285714Y-75002438D02*
X138333333Y-75050057D01*
X139190476Y-74954819D02*
X139000000Y-74954819D01*
X139000000Y-74954819D02*
X138904762Y-75002438D01*
X138904762Y-75002438D02*
X138857143Y-75050057D01*
X138857143Y-75050057D02*
X138761905Y-75192914D01*
X138761905Y-75192914D02*
X138714286Y-75383390D01*
X138714286Y-75383390D02*
X138714286Y-75764342D01*
X138714286Y-75764342D02*
X138761905Y-75859580D01*
X138761905Y-75859580D02*
X138809524Y-75907200D01*
X138809524Y-75907200D02*
X138904762Y-75954819D01*
X138904762Y-75954819D02*
X139095238Y-75954819D01*
X139095238Y-75954819D02*
X139190476Y-75907200D01*
X139190476Y-75907200D02*
X139238095Y-75859580D01*
X139238095Y-75859580D02*
X139285714Y-75764342D01*
X139285714Y-75764342D02*
X139285714Y-75526247D01*
X139285714Y-75526247D02*
X139238095Y-75431009D01*
X139238095Y-75431009D02*
X139190476Y-75383390D01*
X139190476Y-75383390D02*
X139095238Y-75335771D01*
X139095238Y-75335771D02*
X138904762Y-75335771D01*
X138904762Y-75335771D02*
X138809524Y-75383390D01*
X138809524Y-75383390D02*
X138761905Y-75431009D01*
X138761905Y-75431009D02*
X138714286Y-75526247D01*
X117928095Y-79624819D02*
X117928095Y-80434342D01*
X117928095Y-80434342D02*
X117975714Y-80529580D01*
X117975714Y-80529580D02*
X118023333Y-80577200D01*
X118023333Y-80577200D02*
X118118571Y-80624819D01*
X118118571Y-80624819D02*
X118309047Y-80624819D01*
X118309047Y-80624819D02*
X118404285Y-80577200D01*
X118404285Y-80577200D02*
X118451904Y-80529580D01*
X118451904Y-80529580D02*
X118499523Y-80434342D01*
X118499523Y-80434342D02*
X118499523Y-79624819D01*
X119499523Y-80624819D02*
X118928095Y-80624819D01*
X119213809Y-80624819D02*
X119213809Y-79624819D01*
X119213809Y-79624819D02*
X119118571Y-79767676D01*
X119118571Y-79767676D02*
X119023333Y-79862914D01*
X119023333Y-79862914D02*
X118928095Y-79910533D01*
X105143333Y-77084819D02*
X104810000Y-76608628D01*
X104571905Y-77084819D02*
X104571905Y-76084819D01*
X104571905Y-76084819D02*
X104952857Y-76084819D01*
X104952857Y-76084819D02*
X105048095Y-76132438D01*
X105048095Y-76132438D02*
X105095714Y-76180057D01*
X105095714Y-76180057D02*
X105143333Y-76275295D01*
X105143333Y-76275295D02*
X105143333Y-76418152D01*
X105143333Y-76418152D02*
X105095714Y-76513390D01*
X105095714Y-76513390D02*
X105048095Y-76561009D01*
X105048095Y-76561009D02*
X104952857Y-76608628D01*
X104952857Y-76608628D02*
X104571905Y-76608628D01*
X106095714Y-77084819D02*
X105524286Y-77084819D01*
X105810000Y-77084819D02*
X105810000Y-76084819D01*
X105810000Y-76084819D02*
X105714762Y-76227676D01*
X105714762Y-76227676D02*
X105619524Y-76322914D01*
X105619524Y-76322914D02*
X105524286Y-76370533D01*
X132316666Y-86414819D02*
X132316666Y-87129104D01*
X132316666Y-87129104D02*
X132269047Y-87271961D01*
X132269047Y-87271961D02*
X132173809Y-87367200D01*
X132173809Y-87367200D02*
X132030952Y-87414819D01*
X132030952Y-87414819D02*
X131935714Y-87414819D01*
X132697619Y-86414819D02*
X133316666Y-86414819D01*
X133316666Y-86414819D02*
X132983333Y-86795771D01*
X132983333Y-86795771D02*
X133126190Y-86795771D01*
X133126190Y-86795771D02*
X133221428Y-86843390D01*
X133221428Y-86843390D02*
X133269047Y-86891009D01*
X133269047Y-86891009D02*
X133316666Y-86986247D01*
X133316666Y-86986247D02*
X133316666Y-87224342D01*
X133316666Y-87224342D02*
X133269047Y-87319580D01*
X133269047Y-87319580D02*
X133221428Y-87367200D01*
X133221428Y-87367200D02*
X133126190Y-87414819D01*
X133126190Y-87414819D02*
X132840476Y-87414819D01*
X132840476Y-87414819D02*
X132745238Y-87367200D01*
X132745238Y-87367200D02*
X132697619Y-87319580D01*
X96833333Y-80359580D02*
X96785714Y-80407200D01*
X96785714Y-80407200D02*
X96642857Y-80454819D01*
X96642857Y-80454819D02*
X96547619Y-80454819D01*
X96547619Y-80454819D02*
X96404762Y-80407200D01*
X96404762Y-80407200D02*
X96309524Y-80311961D01*
X96309524Y-80311961D02*
X96261905Y-80216723D01*
X96261905Y-80216723D02*
X96214286Y-80026247D01*
X96214286Y-80026247D02*
X96214286Y-79883390D01*
X96214286Y-79883390D02*
X96261905Y-79692914D01*
X96261905Y-79692914D02*
X96309524Y-79597676D01*
X96309524Y-79597676D02*
X96404762Y-79502438D01*
X96404762Y-79502438D02*
X96547619Y-79454819D01*
X96547619Y-79454819D02*
X96642857Y-79454819D01*
X96642857Y-79454819D02*
X96785714Y-79502438D01*
X96785714Y-79502438D02*
X96833333Y-79550057D01*
X97166667Y-79454819D02*
X97785714Y-79454819D01*
X97785714Y-79454819D02*
X97452381Y-79835771D01*
X97452381Y-79835771D02*
X97595238Y-79835771D01*
X97595238Y-79835771D02*
X97690476Y-79883390D01*
X97690476Y-79883390D02*
X97738095Y-79931009D01*
X97738095Y-79931009D02*
X97785714Y-80026247D01*
X97785714Y-80026247D02*
X97785714Y-80264342D01*
X97785714Y-80264342D02*
X97738095Y-80359580D01*
X97738095Y-80359580D02*
X97690476Y-80407200D01*
X97690476Y-80407200D02*
X97595238Y-80454819D01*
X97595238Y-80454819D02*
X97309524Y-80454819D01*
X97309524Y-80454819D02*
X97214286Y-80407200D01*
X97214286Y-80407200D02*
X97166667Y-80359580D01*
X100904761Y-62179819D02*
X100571428Y-61703628D01*
X100333333Y-62179819D02*
X100333333Y-61179819D01*
X100333333Y-61179819D02*
X100714285Y-61179819D01*
X100714285Y-61179819D02*
X100809523Y-61227438D01*
X100809523Y-61227438D02*
X100857142Y-61275057D01*
X100857142Y-61275057D02*
X100904761Y-61370295D01*
X100904761Y-61370295D02*
X100904761Y-61513152D01*
X100904761Y-61513152D02*
X100857142Y-61608390D01*
X100857142Y-61608390D02*
X100809523Y-61656009D01*
X100809523Y-61656009D02*
X100714285Y-61703628D01*
X100714285Y-61703628D02*
X100333333Y-61703628D01*
X101190476Y-61179819D02*
X101523809Y-62179819D01*
X101523809Y-62179819D02*
X101857142Y-61179819D01*
X102714285Y-62179819D02*
X102142857Y-62179819D01*
X102428571Y-62179819D02*
X102428571Y-61179819D01*
X102428571Y-61179819D02*
X102333333Y-61322676D01*
X102333333Y-61322676D02*
X102238095Y-61417914D01*
X102238095Y-61417914D02*
X102142857Y-61465533D01*
X124833333Y-75534819D02*
X124500000Y-75058628D01*
X124261905Y-75534819D02*
X124261905Y-74534819D01*
X124261905Y-74534819D02*
X124642857Y-74534819D01*
X124642857Y-74534819D02*
X124738095Y-74582438D01*
X124738095Y-74582438D02*
X124785714Y-74630057D01*
X124785714Y-74630057D02*
X124833333Y-74725295D01*
X124833333Y-74725295D02*
X124833333Y-74868152D01*
X124833333Y-74868152D02*
X124785714Y-74963390D01*
X124785714Y-74963390D02*
X124738095Y-75011009D01*
X124738095Y-75011009D02*
X124642857Y-75058628D01*
X124642857Y-75058628D02*
X124261905Y-75058628D01*
X125214286Y-74630057D02*
X125261905Y-74582438D01*
X125261905Y-74582438D02*
X125357143Y-74534819D01*
X125357143Y-74534819D02*
X125595238Y-74534819D01*
X125595238Y-74534819D02*
X125690476Y-74582438D01*
X125690476Y-74582438D02*
X125738095Y-74630057D01*
X125738095Y-74630057D02*
X125785714Y-74725295D01*
X125785714Y-74725295D02*
X125785714Y-74820533D01*
X125785714Y-74820533D02*
X125738095Y-74963390D01*
X125738095Y-74963390D02*
X125166667Y-75534819D01*
X125166667Y-75534819D02*
X125785714Y-75534819D01*
X131333333Y-62109580D02*
X131285714Y-62157200D01*
X131285714Y-62157200D02*
X131142857Y-62204819D01*
X131142857Y-62204819D02*
X131047619Y-62204819D01*
X131047619Y-62204819D02*
X130904762Y-62157200D01*
X130904762Y-62157200D02*
X130809524Y-62061961D01*
X130809524Y-62061961D02*
X130761905Y-61966723D01*
X130761905Y-61966723D02*
X130714286Y-61776247D01*
X130714286Y-61776247D02*
X130714286Y-61633390D01*
X130714286Y-61633390D02*
X130761905Y-61442914D01*
X130761905Y-61442914D02*
X130809524Y-61347676D01*
X130809524Y-61347676D02*
X130904762Y-61252438D01*
X130904762Y-61252438D02*
X131047619Y-61204819D01*
X131047619Y-61204819D02*
X131142857Y-61204819D01*
X131142857Y-61204819D02*
X131285714Y-61252438D01*
X131285714Y-61252438D02*
X131333333Y-61300057D01*
X132190476Y-61538152D02*
X132190476Y-62204819D01*
X131952381Y-61157200D02*
X131714286Y-61871485D01*
X131714286Y-61871485D02*
X132333333Y-61871485D01*
X123833333Y-105609580D02*
X123785714Y-105657200D01*
X123785714Y-105657200D02*
X123642857Y-105704819D01*
X123642857Y-105704819D02*
X123547619Y-105704819D01*
X123547619Y-105704819D02*
X123404762Y-105657200D01*
X123404762Y-105657200D02*
X123309524Y-105561961D01*
X123309524Y-105561961D02*
X123261905Y-105466723D01*
X123261905Y-105466723D02*
X123214286Y-105276247D01*
X123214286Y-105276247D02*
X123214286Y-105133390D01*
X123214286Y-105133390D02*
X123261905Y-104942914D01*
X123261905Y-104942914D02*
X123309524Y-104847676D01*
X123309524Y-104847676D02*
X123404762Y-104752438D01*
X123404762Y-104752438D02*
X123547619Y-104704819D01*
X123547619Y-104704819D02*
X123642857Y-104704819D01*
X123642857Y-104704819D02*
X123785714Y-104752438D01*
X123785714Y-104752438D02*
X123833333Y-104800057D01*
X124214286Y-104800057D02*
X124261905Y-104752438D01*
X124261905Y-104752438D02*
X124357143Y-104704819D01*
X124357143Y-104704819D02*
X124595238Y-104704819D01*
X124595238Y-104704819D02*
X124690476Y-104752438D01*
X124690476Y-104752438D02*
X124738095Y-104800057D01*
X124738095Y-104800057D02*
X124785714Y-104895295D01*
X124785714Y-104895295D02*
X124785714Y-104990533D01*
X124785714Y-104990533D02*
X124738095Y-105133390D01*
X124738095Y-105133390D02*
X124166667Y-105704819D01*
X124166667Y-105704819D02*
X124785714Y-105704819D01*
X133083333Y-101359580D02*
X133035714Y-101407200D01*
X133035714Y-101407200D02*
X132892857Y-101454819D01*
X132892857Y-101454819D02*
X132797619Y-101454819D01*
X132797619Y-101454819D02*
X132654762Y-101407200D01*
X132654762Y-101407200D02*
X132559524Y-101311961D01*
X132559524Y-101311961D02*
X132511905Y-101216723D01*
X132511905Y-101216723D02*
X132464286Y-101026247D01*
X132464286Y-101026247D02*
X132464286Y-100883390D01*
X132464286Y-100883390D02*
X132511905Y-100692914D01*
X132511905Y-100692914D02*
X132559524Y-100597676D01*
X132559524Y-100597676D02*
X132654762Y-100502438D01*
X132654762Y-100502438D02*
X132797619Y-100454819D01*
X132797619Y-100454819D02*
X132892857Y-100454819D01*
X132892857Y-100454819D02*
X133035714Y-100502438D01*
X133035714Y-100502438D02*
X133083333Y-100550057D01*
X133416667Y-100454819D02*
X134083333Y-100454819D01*
X134083333Y-100454819D02*
X133654762Y-101454819D01*
X119333333Y-74609580D02*
X119285714Y-74657200D01*
X119285714Y-74657200D02*
X119142857Y-74704819D01*
X119142857Y-74704819D02*
X119047619Y-74704819D01*
X119047619Y-74704819D02*
X118904762Y-74657200D01*
X118904762Y-74657200D02*
X118809524Y-74561961D01*
X118809524Y-74561961D02*
X118761905Y-74466723D01*
X118761905Y-74466723D02*
X118714286Y-74276247D01*
X118714286Y-74276247D02*
X118714286Y-74133390D01*
X118714286Y-74133390D02*
X118761905Y-73942914D01*
X118761905Y-73942914D02*
X118809524Y-73847676D01*
X118809524Y-73847676D02*
X118904762Y-73752438D01*
X118904762Y-73752438D02*
X119047619Y-73704819D01*
X119047619Y-73704819D02*
X119142857Y-73704819D01*
X119142857Y-73704819D02*
X119285714Y-73752438D01*
X119285714Y-73752438D02*
X119333333Y-73800057D01*
X120285714Y-74704819D02*
X119714286Y-74704819D01*
X120000000Y-74704819D02*
X120000000Y-73704819D01*
X120000000Y-73704819D02*
X119904762Y-73847676D01*
X119904762Y-73847676D02*
X119809524Y-73942914D01*
X119809524Y-73942914D02*
X119714286Y-73990533D01*
X109684819Y-89183333D02*
X110399104Y-89183333D01*
X110399104Y-89183333D02*
X110541961Y-89230952D01*
X110541961Y-89230952D02*
X110637200Y-89326190D01*
X110637200Y-89326190D02*
X110684819Y-89469047D01*
X110684819Y-89469047D02*
X110684819Y-89564285D01*
X109780057Y-88754761D02*
X109732438Y-88707142D01*
X109732438Y-88707142D02*
X109684819Y-88611904D01*
X109684819Y-88611904D02*
X109684819Y-88373809D01*
X109684819Y-88373809D02*
X109732438Y-88278571D01*
X109732438Y-88278571D02*
X109780057Y-88230952D01*
X109780057Y-88230952D02*
X109875295Y-88183333D01*
X109875295Y-88183333D02*
X109970533Y-88183333D01*
X109970533Y-88183333D02*
X110113390Y-88230952D01*
X110113390Y-88230952D02*
X110684819Y-88802380D01*
X110684819Y-88802380D02*
X110684819Y-88183333D01*
X101904761Y-108229819D02*
X101571428Y-107753628D01*
X101333333Y-108229819D02*
X101333333Y-107229819D01*
X101333333Y-107229819D02*
X101714285Y-107229819D01*
X101714285Y-107229819D02*
X101809523Y-107277438D01*
X101809523Y-107277438D02*
X101857142Y-107325057D01*
X101857142Y-107325057D02*
X101904761Y-107420295D01*
X101904761Y-107420295D02*
X101904761Y-107563152D01*
X101904761Y-107563152D02*
X101857142Y-107658390D01*
X101857142Y-107658390D02*
X101809523Y-107706009D01*
X101809523Y-107706009D02*
X101714285Y-107753628D01*
X101714285Y-107753628D02*
X101333333Y-107753628D01*
X102190476Y-107229819D02*
X102523809Y-108229819D01*
X102523809Y-108229819D02*
X102857142Y-107229819D01*
X103142857Y-107325057D02*
X103190476Y-107277438D01*
X103190476Y-107277438D02*
X103285714Y-107229819D01*
X103285714Y-107229819D02*
X103523809Y-107229819D01*
X103523809Y-107229819D02*
X103619047Y-107277438D01*
X103619047Y-107277438D02*
X103666666Y-107325057D01*
X103666666Y-107325057D02*
X103714285Y-107420295D01*
X103714285Y-107420295D02*
X103714285Y-107515533D01*
X103714285Y-107515533D02*
X103666666Y-107658390D01*
X103666666Y-107658390D02*
X103095238Y-108229819D01*
X103095238Y-108229819D02*
X103714285Y-108229819D01*
X115166666Y-97684819D02*
X115166666Y-98399104D01*
X115166666Y-98399104D02*
X115119047Y-98541961D01*
X115119047Y-98541961D02*
X115023809Y-98637200D01*
X115023809Y-98637200D02*
X114880952Y-98684819D01*
X114880952Y-98684819D02*
X114785714Y-98684819D01*
X116166666Y-98684819D02*
X115595238Y-98684819D01*
X115880952Y-98684819D02*
X115880952Y-97684819D01*
X115880952Y-97684819D02*
X115785714Y-97827676D01*
X115785714Y-97827676D02*
X115690476Y-97922914D01*
X115690476Y-97922914D02*
X115595238Y-97970533D01*
D11*
%TO.C,C6*%
X129590302Y-76185000D02*
X130390302Y-76185000D01*
X129990302Y-75785000D02*
X129990302Y-76585000D01*
X134000000Y-74420000D02*
X134000000Y-82580000D01*
X134040000Y-74420000D02*
X134040000Y-82580000D01*
X134080000Y-74420000D02*
X134080000Y-82580000D01*
X134120000Y-74421000D02*
X134120000Y-82579000D01*
X134160000Y-74423000D02*
X134160000Y-82577000D01*
X134200000Y-74424000D02*
X134200000Y-82576000D01*
X134240000Y-74426000D02*
X134240000Y-82574000D01*
X134280000Y-74429000D02*
X134280000Y-82571000D01*
X134320000Y-74432000D02*
X134320000Y-82568000D01*
X134360000Y-74435000D02*
X134360000Y-82565000D01*
X134400000Y-74439000D02*
X134400000Y-82561000D01*
X134440000Y-74443000D02*
X134440000Y-82557000D01*
X134480000Y-74448000D02*
X134480000Y-82552000D01*
X134520000Y-74452000D02*
X134520000Y-82548000D01*
X134560000Y-74458000D02*
X134560000Y-82542000D01*
X134600000Y-74463000D02*
X134600000Y-82537000D01*
X134640000Y-74470000D02*
X134640000Y-82530000D01*
X134680000Y-74476000D02*
X134680000Y-82524000D01*
X134721000Y-74483000D02*
X134721000Y-82517000D01*
X134761000Y-74490000D02*
X134761000Y-82510000D01*
X134801000Y-74498000D02*
X134801000Y-82502000D01*
X134841000Y-74506000D02*
X134841000Y-82494000D01*
X134881000Y-74515000D02*
X134881000Y-82485000D01*
X134921000Y-74524000D02*
X134921000Y-82476000D01*
X134961000Y-74533000D02*
X134961000Y-82467000D01*
X135001000Y-74543000D02*
X135001000Y-82457000D01*
X135041000Y-74553000D02*
X135041000Y-82447000D01*
X135081000Y-74564000D02*
X135081000Y-82436000D01*
X135121000Y-74575000D02*
X135121000Y-82425000D01*
X135161000Y-74586000D02*
X135161000Y-82414000D01*
X135201000Y-74598000D02*
X135201000Y-82402000D01*
X135241000Y-74611000D02*
X135241000Y-82389000D01*
X135281000Y-74623000D02*
X135281000Y-82377000D01*
X135321000Y-74637000D02*
X135321000Y-82363000D01*
X135361000Y-74650000D02*
X135361000Y-82350000D01*
X135401000Y-74665000D02*
X135401000Y-82335000D01*
X135441000Y-74679000D02*
X135441000Y-82321000D01*
X135481000Y-74695000D02*
X135481000Y-77460000D01*
X135481000Y-79540000D02*
X135481000Y-82305000D01*
X135521000Y-74710000D02*
X135521000Y-77460000D01*
X135521000Y-79540000D02*
X135521000Y-82290000D01*
X135561000Y-74726000D02*
X135561000Y-77460000D01*
X135561000Y-79540000D02*
X135561000Y-82274000D01*
X135601000Y-74743000D02*
X135601000Y-77460000D01*
X135601000Y-79540000D02*
X135601000Y-82257000D01*
X135641000Y-74760000D02*
X135641000Y-77460000D01*
X135641000Y-79540000D02*
X135641000Y-82240000D01*
X135681000Y-74778000D02*
X135681000Y-77460000D01*
X135681000Y-79540000D02*
X135681000Y-82222000D01*
X135721000Y-74796000D02*
X135721000Y-77460000D01*
X135721000Y-79540000D02*
X135721000Y-82204000D01*
X135761000Y-74814000D02*
X135761000Y-77460000D01*
X135761000Y-79540000D02*
X135761000Y-82186000D01*
X135801000Y-74834000D02*
X135801000Y-77460000D01*
X135801000Y-79540000D02*
X135801000Y-82166000D01*
X135841000Y-74853000D02*
X135841000Y-77460000D01*
X135841000Y-79540000D02*
X135841000Y-82147000D01*
X135881000Y-74873000D02*
X135881000Y-77460000D01*
X135881000Y-79540000D02*
X135881000Y-82127000D01*
X135921000Y-74894000D02*
X135921000Y-77460000D01*
X135921000Y-79540000D02*
X135921000Y-82106000D01*
X135961000Y-74916000D02*
X135961000Y-77460000D01*
X135961000Y-79540000D02*
X135961000Y-82084000D01*
X136001000Y-74938000D02*
X136001000Y-77460000D01*
X136001000Y-79540000D02*
X136001000Y-82062000D01*
X136041000Y-74960000D02*
X136041000Y-77460000D01*
X136041000Y-79540000D02*
X136041000Y-82040000D01*
X136081000Y-74983000D02*
X136081000Y-77460000D01*
X136081000Y-79540000D02*
X136081000Y-82017000D01*
X136121000Y-75007000D02*
X136121000Y-77460000D01*
X136121000Y-79540000D02*
X136121000Y-81993000D01*
X136161000Y-75031000D02*
X136161000Y-77460000D01*
X136161000Y-79540000D02*
X136161000Y-81969000D01*
X136201000Y-75056000D02*
X136201000Y-77460000D01*
X136201000Y-79540000D02*
X136201000Y-81944000D01*
X136241000Y-75082000D02*
X136241000Y-77460000D01*
X136241000Y-79540000D02*
X136241000Y-81918000D01*
X136281000Y-75108000D02*
X136281000Y-77460000D01*
X136281000Y-79540000D02*
X136281000Y-81892000D01*
X136321000Y-75135000D02*
X136321000Y-77460000D01*
X136321000Y-79540000D02*
X136321000Y-81865000D01*
X136361000Y-75162000D02*
X136361000Y-77460000D01*
X136361000Y-79540000D02*
X136361000Y-81838000D01*
X136401000Y-75191000D02*
X136401000Y-77460000D01*
X136401000Y-79540000D02*
X136401000Y-81809000D01*
X136441000Y-75220000D02*
X136441000Y-77460000D01*
X136441000Y-79540000D02*
X136441000Y-81780000D01*
X136481000Y-75250000D02*
X136481000Y-77460000D01*
X136481000Y-79540000D02*
X136481000Y-81750000D01*
X136521000Y-75280000D02*
X136521000Y-77460000D01*
X136521000Y-79540000D02*
X136521000Y-81720000D01*
X136561000Y-75311000D02*
X136561000Y-77460000D01*
X136561000Y-79540000D02*
X136561000Y-81689000D01*
X136601000Y-75344000D02*
X136601000Y-77460000D01*
X136601000Y-79540000D02*
X136601000Y-81656000D01*
X136641000Y-75376000D02*
X136641000Y-77460000D01*
X136641000Y-79540000D02*
X136641000Y-81624000D01*
X136681000Y-75410000D02*
X136681000Y-77460000D01*
X136681000Y-79540000D02*
X136681000Y-81590000D01*
X136721000Y-75445000D02*
X136721000Y-77460000D01*
X136721000Y-79540000D02*
X136721000Y-81555000D01*
X136761000Y-75481000D02*
X136761000Y-77460000D01*
X136761000Y-79540000D02*
X136761000Y-81519000D01*
X136801000Y-75517000D02*
X136801000Y-77460000D01*
X136801000Y-79540000D02*
X136801000Y-81483000D01*
X136841000Y-75555000D02*
X136841000Y-77460000D01*
X136841000Y-79540000D02*
X136841000Y-81445000D01*
X136881000Y-75593000D02*
X136881000Y-77460000D01*
X136881000Y-79540000D02*
X136881000Y-81407000D01*
X136921000Y-75633000D02*
X136921000Y-77460000D01*
X136921000Y-79540000D02*
X136921000Y-81367000D01*
X136961000Y-75674000D02*
X136961000Y-77460000D01*
X136961000Y-79540000D02*
X136961000Y-81326000D01*
X137001000Y-75716000D02*
X137001000Y-77460000D01*
X137001000Y-79540000D02*
X137001000Y-81284000D01*
X137041000Y-75759000D02*
X137041000Y-77460000D01*
X137041000Y-79540000D02*
X137041000Y-81241000D01*
X137081000Y-75803000D02*
X137081000Y-77460000D01*
X137081000Y-79540000D02*
X137081000Y-81197000D01*
X137121000Y-75849000D02*
X137121000Y-77460000D01*
X137121000Y-79540000D02*
X137121000Y-81151000D01*
X137161000Y-75896000D02*
X137161000Y-77460000D01*
X137161000Y-79540000D02*
X137161000Y-81104000D01*
X137201000Y-75944000D02*
X137201000Y-77460000D01*
X137201000Y-79540000D02*
X137201000Y-81056000D01*
X137241000Y-75995000D02*
X137241000Y-77460000D01*
X137241000Y-79540000D02*
X137241000Y-81005000D01*
X137281000Y-76046000D02*
X137281000Y-77460000D01*
X137281000Y-79540000D02*
X137281000Y-80954000D01*
X137321000Y-76100000D02*
X137321000Y-77460000D01*
X137321000Y-79540000D02*
X137321000Y-80900000D01*
X137361000Y-76155000D02*
X137361000Y-77460000D01*
X137361000Y-79540000D02*
X137361000Y-80845000D01*
X137401000Y-76213000D02*
X137401000Y-77460000D01*
X137401000Y-79540000D02*
X137401000Y-80787000D01*
X137441000Y-76272000D02*
X137441000Y-77460000D01*
X137441000Y-79540000D02*
X137441000Y-80728000D01*
X137481000Y-76334000D02*
X137481000Y-77460000D01*
X137481000Y-79540000D02*
X137481000Y-80666000D01*
X137521000Y-76398000D02*
X137521000Y-77460000D01*
X137521000Y-79540000D02*
X137521000Y-80602000D01*
X137561000Y-76466000D02*
X137561000Y-80534000D01*
X137601000Y-76536000D02*
X137601000Y-80464000D01*
X137641000Y-76610000D02*
X137641000Y-80390000D01*
X137681000Y-76687000D02*
X137681000Y-80313000D01*
X137721000Y-76769000D02*
X137721000Y-80231000D01*
X137761000Y-76855000D02*
X137761000Y-80145000D01*
X137801000Y-76948000D02*
X137801000Y-80052000D01*
X137841000Y-77047000D02*
X137841000Y-79953000D01*
X137881000Y-77154000D02*
X137881000Y-79846000D01*
X137921000Y-77271000D02*
X137921000Y-79729000D01*
X137961000Y-77402000D02*
X137961000Y-79598000D01*
X138001000Y-77552000D02*
X138001000Y-79448000D01*
X138041000Y-77732000D02*
X138041000Y-79268000D01*
X138081000Y-77967000D02*
X138081000Y-79033000D01*
X138120000Y-78500000D02*
G75*
G02*
X129880000Y-78500000I-4120000J0D01*
G01*
X129880000Y-78500000D02*
G75*
G02*
X138120000Y-78500000I4120000J0D01*
G01*
%TO.C,U1*%
X116040000Y-81170000D02*
X116040000Y-91450000D01*
X116040000Y-91450000D02*
X121340000Y-91450000D01*
X117690000Y-81170000D02*
X116040000Y-81170000D01*
X121340000Y-81170000D02*
X119690000Y-81170000D01*
X121340000Y-91450000D02*
X121340000Y-81170000D01*
X119690000Y-81170000D02*
G75*
G02*
X117690000Y-81170000I-1000000J0D01*
G01*
%TO.C,R1*%
X102040000Y-77630000D02*
X108580000Y-77630000D01*
X102040000Y-77960000D02*
X102040000Y-77630000D01*
X102040000Y-80040000D02*
X102040000Y-80370000D01*
X102040000Y-80370000D02*
X108580000Y-80370000D01*
X108580000Y-77630000D02*
X108580000Y-77960000D01*
X108580000Y-80370000D02*
X108580000Y-80040000D01*
%TO.C,J3*%
X131320000Y-91000000D02*
X131320000Y-93600000D01*
X131320000Y-91000000D02*
X133980000Y-91000000D01*
X131320000Y-93600000D02*
X133980000Y-93600000D01*
X132650000Y-88400000D02*
X133980000Y-88400000D01*
X133980000Y-88400000D02*
X133980000Y-89730000D01*
X133980000Y-91000000D02*
X133980000Y-93600000D01*
%TO.C,C3*%
X94880000Y-81130000D02*
X94880000Y-81835000D01*
X94880000Y-81130000D02*
X99120000Y-81130000D01*
X94880000Y-83165000D02*
X94880000Y-83870000D01*
X94880000Y-83870000D02*
X99120000Y-83870000D01*
X99120000Y-81130000D02*
X99120000Y-81835000D01*
X99120000Y-83165000D02*
X99120000Y-83870000D01*
%TO.C,RV1*%
X96030000Y-62755000D02*
X96030000Y-65475000D01*
X96030000Y-69975000D02*
X96030000Y-74345000D01*
X97850000Y-74345000D02*
X96030000Y-74345000D01*
X106970000Y-62755000D02*
X96030000Y-62755000D01*
X106970000Y-62755000D02*
X106970000Y-65475000D01*
X106970000Y-69975000D02*
X106970000Y-74345000D01*
X106970000Y-74345000D02*
X105150000Y-74345000D01*
%TO.C,R2*%
X123080000Y-76080000D02*
X126920000Y-76080000D01*
X123080000Y-77920000D02*
X126920000Y-77920000D01*
%TO.C,C4*%
X126020354Y-65125000D02*
X127020354Y-65125000D01*
X126520354Y-64625000D02*
X126520354Y-65625000D01*
X131500000Y-62920000D02*
X131500000Y-73080000D01*
X131540000Y-62920000D02*
X131540000Y-73080000D01*
X131580000Y-62920000D02*
X131580000Y-73080000D01*
X131620000Y-62921000D02*
X131620000Y-73079000D01*
X131660000Y-62922000D02*
X131660000Y-73078000D01*
X131700000Y-62923000D02*
X131700000Y-73077000D01*
X131740000Y-62925000D02*
X131740000Y-73075000D01*
X131780000Y-62927000D02*
X131780000Y-73073000D01*
X131820000Y-62930000D02*
X131820000Y-73070000D01*
X131860000Y-62932000D02*
X131860000Y-73068000D01*
X131900000Y-62935000D02*
X131900000Y-73065000D01*
X131940000Y-62938000D02*
X131940000Y-73062000D01*
X131980000Y-62942000D02*
X131980000Y-73058000D01*
X132020000Y-62946000D02*
X132020000Y-73054000D01*
X132060000Y-62950000D02*
X132060000Y-73050000D01*
X132100000Y-62955000D02*
X132100000Y-73045000D01*
X132140000Y-62960000D02*
X132140000Y-73040000D01*
X132180000Y-62965000D02*
X132180000Y-73035000D01*
X132221000Y-62970000D02*
X132221000Y-73030000D01*
X132261000Y-62976000D02*
X132261000Y-73024000D01*
X132301000Y-62982000D02*
X132301000Y-73018000D01*
X132341000Y-62989000D02*
X132341000Y-73011000D01*
X132381000Y-62996000D02*
X132381000Y-73004000D01*
X132421000Y-63003000D02*
X132421000Y-72997000D01*
X132461000Y-63010000D02*
X132461000Y-72990000D01*
X132501000Y-63018000D02*
X132501000Y-72982000D01*
X132541000Y-63026000D02*
X132541000Y-72974000D01*
X132581000Y-63035000D02*
X132581000Y-72965000D01*
X132621000Y-63044000D02*
X132621000Y-72956000D01*
X132661000Y-63053000D02*
X132661000Y-72947000D01*
X132701000Y-63062000D02*
X132701000Y-72938000D01*
X132741000Y-63072000D02*
X132741000Y-72928000D01*
X132781000Y-63082000D02*
X132781000Y-66759000D01*
X132781000Y-69241000D02*
X132781000Y-72918000D01*
X132821000Y-63093000D02*
X132821000Y-66759000D01*
X132821000Y-69241000D02*
X132821000Y-72907000D01*
X132861000Y-63103000D02*
X132861000Y-66759000D01*
X132861000Y-69241000D02*
X132861000Y-72897000D01*
X132901000Y-63115000D02*
X132901000Y-66759000D01*
X132901000Y-69241000D02*
X132901000Y-72885000D01*
X132941000Y-63126000D02*
X132941000Y-66759000D01*
X132941000Y-69241000D02*
X132941000Y-72874000D01*
X132981000Y-63138000D02*
X132981000Y-66759000D01*
X132981000Y-69241000D02*
X132981000Y-72862000D01*
X133021000Y-63150000D02*
X133021000Y-66759000D01*
X133021000Y-69241000D02*
X133021000Y-72850000D01*
X133061000Y-63163000D02*
X133061000Y-66759000D01*
X133061000Y-69241000D02*
X133061000Y-72837000D01*
X133101000Y-63176000D02*
X133101000Y-66759000D01*
X133101000Y-69241000D02*
X133101000Y-72824000D01*
X133141000Y-63189000D02*
X133141000Y-66759000D01*
X133141000Y-69241000D02*
X133141000Y-72811000D01*
X133181000Y-63203000D02*
X133181000Y-66759000D01*
X133181000Y-69241000D02*
X133181000Y-72797000D01*
X133221000Y-63217000D02*
X133221000Y-66759000D01*
X133221000Y-69241000D02*
X133221000Y-72783000D01*
X133261000Y-63232000D02*
X133261000Y-66759000D01*
X133261000Y-69241000D02*
X133261000Y-72768000D01*
X133301000Y-63246000D02*
X133301000Y-66759000D01*
X133301000Y-69241000D02*
X133301000Y-72754000D01*
X133341000Y-63262000D02*
X133341000Y-66759000D01*
X133341000Y-69241000D02*
X133341000Y-72738000D01*
X133381000Y-63277000D02*
X133381000Y-66759000D01*
X133381000Y-69241000D02*
X133381000Y-72723000D01*
X133421000Y-63293000D02*
X133421000Y-66759000D01*
X133421000Y-69241000D02*
X133421000Y-72707000D01*
X133461000Y-63310000D02*
X133461000Y-66759000D01*
X133461000Y-69241000D02*
X133461000Y-72690000D01*
X133501000Y-63326000D02*
X133501000Y-66759000D01*
X133501000Y-69241000D02*
X133501000Y-72674000D01*
X133541000Y-63343000D02*
X133541000Y-66759000D01*
X133541000Y-69241000D02*
X133541000Y-72657000D01*
X133581000Y-63361000D02*
X133581000Y-66759000D01*
X133581000Y-69241000D02*
X133581000Y-72639000D01*
X133621000Y-63379000D02*
X133621000Y-66759000D01*
X133621000Y-69241000D02*
X133621000Y-72621000D01*
X133661000Y-63397000D02*
X133661000Y-66759000D01*
X133661000Y-69241000D02*
X133661000Y-72603000D01*
X133701000Y-63416000D02*
X133701000Y-66759000D01*
X133701000Y-69241000D02*
X133701000Y-72584000D01*
X133741000Y-63436000D02*
X133741000Y-66759000D01*
X133741000Y-69241000D02*
X133741000Y-72564000D01*
X133781000Y-63455000D02*
X133781000Y-66759000D01*
X133781000Y-69241000D02*
X133781000Y-72545000D01*
X133821000Y-63475000D02*
X133821000Y-66759000D01*
X133821000Y-69241000D02*
X133821000Y-72525000D01*
X133861000Y-63496000D02*
X133861000Y-66759000D01*
X133861000Y-69241000D02*
X133861000Y-72504000D01*
X133901000Y-63517000D02*
X133901000Y-66759000D01*
X133901000Y-69241000D02*
X133901000Y-72483000D01*
X133941000Y-63538000D02*
X133941000Y-66759000D01*
X133941000Y-69241000D02*
X133941000Y-72462000D01*
X133981000Y-63560000D02*
X133981000Y-66759000D01*
X133981000Y-69241000D02*
X133981000Y-72440000D01*
X134021000Y-63583000D02*
X134021000Y-66759000D01*
X134021000Y-69241000D02*
X134021000Y-72417000D01*
X134061000Y-63605000D02*
X134061000Y-66759000D01*
X134061000Y-69241000D02*
X134061000Y-72395000D01*
X134101000Y-63629000D02*
X134101000Y-66759000D01*
X134101000Y-69241000D02*
X134101000Y-72371000D01*
X134141000Y-63653000D02*
X134141000Y-66759000D01*
X134141000Y-69241000D02*
X134141000Y-72347000D01*
X134181000Y-63677000D02*
X134181000Y-66759000D01*
X134181000Y-69241000D02*
X134181000Y-72323000D01*
X134221000Y-63702000D02*
X134221000Y-66759000D01*
X134221000Y-69241000D02*
X134221000Y-72298000D01*
X134261000Y-63727000D02*
X134261000Y-66759000D01*
X134261000Y-69241000D02*
X134261000Y-72273000D01*
X134301000Y-63753000D02*
X134301000Y-66759000D01*
X134301000Y-69241000D02*
X134301000Y-72247000D01*
X134341000Y-63779000D02*
X134341000Y-66759000D01*
X134341000Y-69241000D02*
X134341000Y-72221000D01*
X134381000Y-63806000D02*
X134381000Y-66759000D01*
X134381000Y-69241000D02*
X134381000Y-72194000D01*
X134421000Y-63834000D02*
X134421000Y-66759000D01*
X134421000Y-69241000D02*
X134421000Y-72166000D01*
X134461000Y-63862000D02*
X134461000Y-66759000D01*
X134461000Y-69241000D02*
X134461000Y-72138000D01*
X134501000Y-63890000D02*
X134501000Y-66759000D01*
X134501000Y-69241000D02*
X134501000Y-72110000D01*
X134541000Y-63920000D02*
X134541000Y-66759000D01*
X134541000Y-69241000D02*
X134541000Y-72080000D01*
X134581000Y-63950000D02*
X134581000Y-66759000D01*
X134581000Y-69241000D02*
X134581000Y-72050000D01*
X134621000Y-63980000D02*
X134621000Y-66759000D01*
X134621000Y-69241000D02*
X134621000Y-72020000D01*
X134661000Y-64011000D02*
X134661000Y-66759000D01*
X134661000Y-69241000D02*
X134661000Y-71989000D01*
X134701000Y-64043000D02*
X134701000Y-66759000D01*
X134701000Y-69241000D02*
X134701000Y-71957000D01*
X134741000Y-64075000D02*
X134741000Y-66759000D01*
X134741000Y-69241000D02*
X134741000Y-71925000D01*
X134781000Y-64108000D02*
X134781000Y-66759000D01*
X134781000Y-69241000D02*
X134781000Y-71892000D01*
X134821000Y-64142000D02*
X134821000Y-66759000D01*
X134821000Y-69241000D02*
X134821000Y-71858000D01*
X134861000Y-64176000D02*
X134861000Y-66759000D01*
X134861000Y-69241000D02*
X134861000Y-71824000D01*
X134901000Y-64211000D02*
X134901000Y-66759000D01*
X134901000Y-69241000D02*
X134901000Y-71789000D01*
X134941000Y-64247000D02*
X134941000Y-66759000D01*
X134941000Y-69241000D02*
X134941000Y-71753000D01*
X134981000Y-64284000D02*
X134981000Y-66759000D01*
X134981000Y-69241000D02*
X134981000Y-71716000D01*
X135021000Y-64321000D02*
X135021000Y-66759000D01*
X135021000Y-69241000D02*
X135021000Y-71679000D01*
X135061000Y-64360000D02*
X135061000Y-66759000D01*
X135061000Y-69241000D02*
X135061000Y-71640000D01*
X135101000Y-64399000D02*
X135101000Y-66759000D01*
X135101000Y-69241000D02*
X135101000Y-71601000D01*
X135141000Y-64439000D02*
X135141000Y-66759000D01*
X135141000Y-69241000D02*
X135141000Y-71561000D01*
X135181000Y-64480000D02*
X135181000Y-66759000D01*
X135181000Y-69241000D02*
X135181000Y-71520000D01*
X135221000Y-64522000D02*
X135221000Y-66759000D01*
X135221000Y-69241000D02*
X135221000Y-71478000D01*
X135261000Y-64564000D02*
X135261000Y-71436000D01*
X135301000Y-64608000D02*
X135301000Y-71392000D01*
X135341000Y-64653000D02*
X135341000Y-71347000D01*
X135381000Y-64699000D02*
X135381000Y-71301000D01*
X135421000Y-64746000D02*
X135421000Y-71254000D01*
X135461000Y-64794000D02*
X135461000Y-71206000D01*
X135501000Y-64844000D02*
X135501000Y-71156000D01*
X135541000Y-64894000D02*
X135541000Y-71106000D01*
X135581000Y-64946000D02*
X135581000Y-71054000D01*
X135621000Y-65000000D02*
X135621000Y-71000000D01*
X135661000Y-65055000D02*
X135661000Y-70945000D01*
X135701000Y-65111000D02*
X135701000Y-70889000D01*
X135741000Y-65170000D02*
X135741000Y-70830000D01*
X135781000Y-65230000D02*
X135781000Y-70770000D01*
X135821000Y-65291000D02*
X135821000Y-70709000D01*
X135861000Y-65355000D02*
X135861000Y-70645000D01*
X135901000Y-65421000D02*
X135901000Y-70579000D01*
X135941000Y-65490000D02*
X135941000Y-70510000D01*
X135981000Y-65561000D02*
X135981000Y-70439000D01*
X136021000Y-65635000D02*
X136021000Y-70365000D01*
X136061000Y-65711000D02*
X136061000Y-70289000D01*
X136101000Y-65791000D02*
X136101000Y-70209000D01*
X136141000Y-65875000D02*
X136141000Y-70125000D01*
X136181000Y-65963000D02*
X136181000Y-70037000D01*
X136221000Y-66056000D02*
X136221000Y-69944000D01*
X136261000Y-66154000D02*
X136261000Y-69846000D01*
X136301000Y-66258000D02*
X136301000Y-69742000D01*
X136341000Y-66370000D02*
X136341000Y-69630000D01*
X136381000Y-66490000D02*
X136381000Y-69510000D01*
X136421000Y-66622000D02*
X136421000Y-69378000D01*
X136461000Y-66770000D02*
X136461000Y-69230000D01*
X136501000Y-66938000D02*
X136501000Y-69062000D01*
X136541000Y-67138000D02*
X136541000Y-68862000D01*
X136581000Y-67401000D02*
X136581000Y-68599000D01*
X136620000Y-68000000D02*
G75*
G02*
X126380000Y-68000000I-5120000J0D01*
G01*
X126380000Y-68000000D02*
G75*
G02*
X136620000Y-68000000I5120000J0D01*
G01*
%TO.C,C2*%
X119919000Y-100533000D02*
X119919000Y-99467000D01*
X119959000Y-100768000D02*
X119959000Y-99232000D01*
X119999000Y-100948000D02*
X119999000Y-99052000D01*
X120039000Y-101098000D02*
X120039000Y-98902000D01*
X120079000Y-101229000D02*
X120079000Y-98771000D01*
X120119000Y-101346000D02*
X120119000Y-98654000D01*
X120159000Y-101453000D02*
X120159000Y-98547000D01*
X120199000Y-101552000D02*
X120199000Y-98448000D01*
X120239000Y-101645000D02*
X120239000Y-98355000D01*
X120279000Y-101731000D02*
X120279000Y-98269000D01*
X120319000Y-101813000D02*
X120319000Y-98187000D01*
X120359000Y-101890000D02*
X120359000Y-98110000D01*
X120399000Y-101964000D02*
X120399000Y-98036000D01*
X120439000Y-102034000D02*
X120439000Y-97966000D01*
X120479000Y-98960000D02*
X120479000Y-97898000D01*
X120479000Y-102102000D02*
X120479000Y-101040000D01*
X120519000Y-98960000D02*
X120519000Y-97834000D01*
X120519000Y-102166000D02*
X120519000Y-101040000D01*
X120559000Y-98960000D02*
X120559000Y-97772000D01*
X120559000Y-102228000D02*
X120559000Y-101040000D01*
X120599000Y-98960000D02*
X120599000Y-97713000D01*
X120599000Y-102287000D02*
X120599000Y-101040000D01*
X120639000Y-98960000D02*
X120639000Y-97655000D01*
X120639000Y-102345000D02*
X120639000Y-101040000D01*
X120679000Y-98960000D02*
X120679000Y-97600000D01*
X120679000Y-102400000D02*
X120679000Y-101040000D01*
X120719000Y-98960000D02*
X120719000Y-97546000D01*
X120719000Y-102454000D02*
X120719000Y-101040000D01*
X120759000Y-98960000D02*
X120759000Y-97495000D01*
X120759000Y-102505000D02*
X120759000Y-101040000D01*
X120799000Y-98960000D02*
X120799000Y-97444000D01*
X120799000Y-102556000D02*
X120799000Y-101040000D01*
X120839000Y-98960000D02*
X120839000Y-97396000D01*
X120839000Y-102604000D02*
X120839000Y-101040000D01*
X120879000Y-98960000D02*
X120879000Y-97349000D01*
X120879000Y-102651000D02*
X120879000Y-101040000D01*
X120919000Y-98960000D02*
X120919000Y-97303000D01*
X120919000Y-102697000D02*
X120919000Y-101040000D01*
X120959000Y-98960000D02*
X120959000Y-97259000D01*
X120959000Y-102741000D02*
X120959000Y-101040000D01*
X120999000Y-98960000D02*
X120999000Y-97216000D01*
X120999000Y-102784000D02*
X120999000Y-101040000D01*
X121039000Y-98960000D02*
X121039000Y-97174000D01*
X121039000Y-102826000D02*
X121039000Y-101040000D01*
X121079000Y-98960000D02*
X121079000Y-97133000D01*
X121079000Y-102867000D02*
X121079000Y-101040000D01*
X121119000Y-98960000D02*
X121119000Y-97093000D01*
X121119000Y-102907000D02*
X121119000Y-101040000D01*
X121159000Y-98960000D02*
X121159000Y-97055000D01*
X121159000Y-102945000D02*
X121159000Y-101040000D01*
X121199000Y-98960000D02*
X121199000Y-97017000D01*
X121199000Y-102983000D02*
X121199000Y-101040000D01*
X121239000Y-98960000D02*
X121239000Y-96981000D01*
X121239000Y-103019000D02*
X121239000Y-101040000D01*
X121279000Y-98960000D02*
X121279000Y-96945000D01*
X121279000Y-103055000D02*
X121279000Y-101040000D01*
X121319000Y-98960000D02*
X121319000Y-96910000D01*
X121319000Y-103090000D02*
X121319000Y-101040000D01*
X121359000Y-98960000D02*
X121359000Y-96876000D01*
X121359000Y-103124000D02*
X121359000Y-101040000D01*
X121399000Y-98960000D02*
X121399000Y-96844000D01*
X121399000Y-103156000D02*
X121399000Y-101040000D01*
X121439000Y-98960000D02*
X121439000Y-96811000D01*
X121439000Y-103189000D02*
X121439000Y-101040000D01*
X121479000Y-98960000D02*
X121479000Y-96780000D01*
X121479000Y-103220000D02*
X121479000Y-101040000D01*
X121519000Y-98960000D02*
X121519000Y-96750000D01*
X121519000Y-103250000D02*
X121519000Y-101040000D01*
X121559000Y-98960000D02*
X121559000Y-96720000D01*
X121559000Y-103280000D02*
X121559000Y-101040000D01*
X121599000Y-98960000D02*
X121599000Y-96691000D01*
X121599000Y-103309000D02*
X121599000Y-101040000D01*
X121639000Y-98960000D02*
X121639000Y-96662000D01*
X121639000Y-103338000D02*
X121639000Y-101040000D01*
X121679000Y-98960000D02*
X121679000Y-96635000D01*
X121679000Y-103365000D02*
X121679000Y-101040000D01*
X121719000Y-98960000D02*
X121719000Y-96608000D01*
X121719000Y-103392000D02*
X121719000Y-101040000D01*
X121759000Y-98960000D02*
X121759000Y-96582000D01*
X121759000Y-103418000D02*
X121759000Y-101040000D01*
X121799000Y-98960000D02*
X121799000Y-96556000D01*
X121799000Y-103444000D02*
X121799000Y-101040000D01*
X121839000Y-98960000D02*
X121839000Y-96531000D01*
X121839000Y-103469000D02*
X121839000Y-101040000D01*
X121879000Y-98960000D02*
X121879000Y-96507000D01*
X121879000Y-103493000D02*
X121879000Y-101040000D01*
X121919000Y-98960000D02*
X121919000Y-96483000D01*
X121919000Y-103517000D02*
X121919000Y-101040000D01*
X121959000Y-98960000D02*
X121959000Y-96460000D01*
X121959000Y-103540000D02*
X121959000Y-101040000D01*
X121999000Y-98960000D02*
X121999000Y-96438000D01*
X121999000Y-103562000D02*
X121999000Y-101040000D01*
X122039000Y-98960000D02*
X122039000Y-96416000D01*
X122039000Y-103584000D02*
X122039000Y-101040000D01*
X122079000Y-98960000D02*
X122079000Y-96394000D01*
X122079000Y-103606000D02*
X122079000Y-101040000D01*
X122119000Y-98960000D02*
X122119000Y-96373000D01*
X122119000Y-103627000D02*
X122119000Y-101040000D01*
X122159000Y-98960000D02*
X122159000Y-96353000D01*
X122159000Y-103647000D02*
X122159000Y-101040000D01*
X122199000Y-98960000D02*
X122199000Y-96334000D01*
X122199000Y-103666000D02*
X122199000Y-101040000D01*
X122239000Y-98960000D02*
X122239000Y-96314000D01*
X122239000Y-103686000D02*
X122239000Y-101040000D01*
X122279000Y-98960000D02*
X122279000Y-96296000D01*
X122279000Y-103704000D02*
X122279000Y-101040000D01*
X122319000Y-98960000D02*
X122319000Y-96278000D01*
X122319000Y-103722000D02*
X122319000Y-101040000D01*
X122359000Y-98960000D02*
X122359000Y-96260000D01*
X122359000Y-103740000D02*
X122359000Y-101040000D01*
X122399000Y-98960000D02*
X122399000Y-96243000D01*
X122399000Y-103757000D02*
X122399000Y-101040000D01*
X122439000Y-98960000D02*
X122439000Y-96226000D01*
X122439000Y-103774000D02*
X122439000Y-101040000D01*
X122479000Y-98960000D02*
X122479000Y-96210000D01*
X122479000Y-103790000D02*
X122479000Y-101040000D01*
X122519000Y-98960000D02*
X122519000Y-96195000D01*
X122519000Y-103805000D02*
X122519000Y-101040000D01*
X122559000Y-103821000D02*
X122559000Y-96179000D01*
X122599000Y-103835000D02*
X122599000Y-96165000D01*
X122639000Y-103850000D02*
X122639000Y-96150000D01*
X122679000Y-103863000D02*
X122679000Y-96137000D01*
X122719000Y-103877000D02*
X122719000Y-96123000D01*
X122759000Y-103889000D02*
X122759000Y-96111000D01*
X122799000Y-103902000D02*
X122799000Y-96098000D01*
X122839000Y-103914000D02*
X122839000Y-96086000D01*
X122879000Y-103925000D02*
X122879000Y-96075000D01*
X122919000Y-103936000D02*
X122919000Y-96064000D01*
X122959000Y-103947000D02*
X122959000Y-96053000D01*
X122999000Y-103957000D02*
X122999000Y-96043000D01*
X123039000Y-103967000D02*
X123039000Y-96033000D01*
X123079000Y-103976000D02*
X123079000Y-96024000D01*
X123119000Y-103985000D02*
X123119000Y-96015000D01*
X123159000Y-103994000D02*
X123159000Y-96006000D01*
X123199000Y-104002000D02*
X123199000Y-95998000D01*
X123239000Y-104010000D02*
X123239000Y-95990000D01*
X123279000Y-104017000D02*
X123279000Y-95983000D01*
X123320000Y-104024000D02*
X123320000Y-95976000D01*
X123360000Y-104030000D02*
X123360000Y-95970000D01*
X123400000Y-104037000D02*
X123400000Y-95963000D01*
X123440000Y-104042000D02*
X123440000Y-95958000D01*
X123480000Y-104048000D02*
X123480000Y-95952000D01*
X123520000Y-104052000D02*
X123520000Y-95948000D01*
X123560000Y-104057000D02*
X123560000Y-95943000D01*
X123600000Y-104061000D02*
X123600000Y-95939000D01*
X123640000Y-104065000D02*
X123640000Y-95935000D01*
X123680000Y-104068000D02*
X123680000Y-95932000D01*
X123720000Y-104071000D02*
X123720000Y-95929000D01*
X123760000Y-104074000D02*
X123760000Y-95926000D01*
X123800000Y-104076000D02*
X123800000Y-95924000D01*
X123840000Y-104077000D02*
X123840000Y-95923000D01*
X123880000Y-104079000D02*
X123880000Y-95921000D01*
X123920000Y-104080000D02*
X123920000Y-95920000D01*
X123960000Y-104080000D02*
X123960000Y-95920000D01*
X124000000Y-104080000D02*
X124000000Y-95920000D01*
X128009698Y-102715000D02*
X128009698Y-101915000D01*
X128409698Y-102315000D02*
X127609698Y-102315000D01*
X128120000Y-100000000D02*
G75*
G02*
X119880000Y-100000000I-4120000J0D01*
G01*
X119880000Y-100000000D02*
G75*
G02*
X128120000Y-100000000I4120000J0D01*
G01*
%TO.C,C7*%
X131130000Y-97835000D02*
X131130000Y-97130000D01*
X131130000Y-99870000D02*
X131130000Y-99165000D01*
X135370000Y-97130000D02*
X131130000Y-97130000D01*
X135370000Y-97835000D02*
X135370000Y-97130000D01*
X135370000Y-99870000D02*
X131130000Y-99870000D01*
X135370000Y-99870000D02*
X135370000Y-99165000D01*
%TO.C,C1*%
X114419000Y-68599000D02*
X114419000Y-67401000D01*
X114459000Y-68862000D02*
X114459000Y-67138000D01*
X114499000Y-69062000D02*
X114499000Y-66938000D01*
X114539000Y-69230000D02*
X114539000Y-66770000D01*
X114579000Y-69378000D02*
X114579000Y-66622000D01*
X114619000Y-69510000D02*
X114619000Y-66490000D01*
X114659000Y-69630000D02*
X114659000Y-66370000D01*
X114699000Y-69742000D02*
X114699000Y-66258000D01*
X114739000Y-69846000D02*
X114739000Y-66154000D01*
X114779000Y-69944000D02*
X114779000Y-66056000D01*
X114819000Y-70037000D02*
X114819000Y-65963000D01*
X114859000Y-70125000D02*
X114859000Y-65875000D01*
X114899000Y-70209000D02*
X114899000Y-65791000D01*
X114939000Y-70289000D02*
X114939000Y-65711000D01*
X114979000Y-70365000D02*
X114979000Y-65635000D01*
X115019000Y-70439000D02*
X115019000Y-65561000D01*
X115059000Y-70510000D02*
X115059000Y-65490000D01*
X115099000Y-70579000D02*
X115099000Y-65421000D01*
X115139000Y-70645000D02*
X115139000Y-65355000D01*
X115179000Y-70709000D02*
X115179000Y-65291000D01*
X115219000Y-70770000D02*
X115219000Y-65230000D01*
X115259000Y-70830000D02*
X115259000Y-65170000D01*
X115299000Y-70889000D02*
X115299000Y-65111000D01*
X115339000Y-70945000D02*
X115339000Y-65055000D01*
X115379000Y-71000000D02*
X115379000Y-65000000D01*
X115419000Y-71054000D02*
X115419000Y-64946000D01*
X115459000Y-71106000D02*
X115459000Y-64894000D01*
X115499000Y-71156000D02*
X115499000Y-64844000D01*
X115539000Y-71206000D02*
X115539000Y-64794000D01*
X115579000Y-71254000D02*
X115579000Y-64746000D01*
X115619000Y-71301000D02*
X115619000Y-64699000D01*
X115659000Y-71347000D02*
X115659000Y-64653000D01*
X115699000Y-71392000D02*
X115699000Y-64608000D01*
X115739000Y-71436000D02*
X115739000Y-64564000D01*
X115779000Y-66759000D02*
X115779000Y-64522000D01*
X115779000Y-71478000D02*
X115779000Y-69241000D01*
X115819000Y-66759000D02*
X115819000Y-64480000D01*
X115819000Y-71520000D02*
X115819000Y-69241000D01*
X115859000Y-66759000D02*
X115859000Y-64439000D01*
X115859000Y-71561000D02*
X115859000Y-69241000D01*
X115899000Y-66759000D02*
X115899000Y-64399000D01*
X115899000Y-71601000D02*
X115899000Y-69241000D01*
X115939000Y-66759000D02*
X115939000Y-64360000D01*
X115939000Y-71640000D02*
X115939000Y-69241000D01*
X115979000Y-66759000D02*
X115979000Y-64321000D01*
X115979000Y-71679000D02*
X115979000Y-69241000D01*
X116019000Y-66759000D02*
X116019000Y-64284000D01*
X116019000Y-71716000D02*
X116019000Y-69241000D01*
X116059000Y-66759000D02*
X116059000Y-64247000D01*
X116059000Y-71753000D02*
X116059000Y-69241000D01*
X116099000Y-66759000D02*
X116099000Y-64211000D01*
X116099000Y-71789000D02*
X116099000Y-69241000D01*
X116139000Y-66759000D02*
X116139000Y-64176000D01*
X116139000Y-71824000D02*
X116139000Y-69241000D01*
X116179000Y-66759000D02*
X116179000Y-64142000D01*
X116179000Y-71858000D02*
X116179000Y-69241000D01*
X116219000Y-66759000D02*
X116219000Y-64108000D01*
X116219000Y-71892000D02*
X116219000Y-69241000D01*
X116259000Y-66759000D02*
X116259000Y-64075000D01*
X116259000Y-71925000D02*
X116259000Y-69241000D01*
X116299000Y-66759000D02*
X116299000Y-64043000D01*
X116299000Y-71957000D02*
X116299000Y-69241000D01*
X116339000Y-66759000D02*
X116339000Y-64011000D01*
X116339000Y-71989000D02*
X116339000Y-69241000D01*
X116379000Y-66759000D02*
X116379000Y-63980000D01*
X116379000Y-72020000D02*
X116379000Y-69241000D01*
X116419000Y-66759000D02*
X116419000Y-63950000D01*
X116419000Y-72050000D02*
X116419000Y-69241000D01*
X116459000Y-66759000D02*
X116459000Y-63920000D01*
X116459000Y-72080000D02*
X116459000Y-69241000D01*
X116499000Y-66759000D02*
X116499000Y-63890000D01*
X116499000Y-72110000D02*
X116499000Y-69241000D01*
X116539000Y-66759000D02*
X116539000Y-63862000D01*
X116539000Y-72138000D02*
X116539000Y-69241000D01*
X116579000Y-66759000D02*
X116579000Y-63834000D01*
X116579000Y-72166000D02*
X116579000Y-69241000D01*
X116619000Y-66759000D02*
X116619000Y-63806000D01*
X116619000Y-72194000D02*
X116619000Y-69241000D01*
X116659000Y-66759000D02*
X116659000Y-63779000D01*
X116659000Y-72221000D02*
X116659000Y-69241000D01*
X116699000Y-66759000D02*
X116699000Y-63753000D01*
X116699000Y-72247000D02*
X116699000Y-69241000D01*
X116739000Y-66759000D02*
X116739000Y-63727000D01*
X116739000Y-72273000D02*
X116739000Y-69241000D01*
X116779000Y-66759000D02*
X116779000Y-63702000D01*
X116779000Y-72298000D02*
X116779000Y-69241000D01*
X116819000Y-66759000D02*
X116819000Y-63677000D01*
X116819000Y-72323000D02*
X116819000Y-69241000D01*
X116859000Y-66759000D02*
X116859000Y-63653000D01*
X116859000Y-72347000D02*
X116859000Y-69241000D01*
X116899000Y-66759000D02*
X116899000Y-63629000D01*
X116899000Y-72371000D02*
X116899000Y-69241000D01*
X116939000Y-66759000D02*
X116939000Y-63605000D01*
X116939000Y-72395000D02*
X116939000Y-69241000D01*
X116979000Y-66759000D02*
X116979000Y-63583000D01*
X116979000Y-72417000D02*
X116979000Y-69241000D01*
X117019000Y-66759000D02*
X117019000Y-63560000D01*
X117019000Y-72440000D02*
X117019000Y-69241000D01*
X117059000Y-66759000D02*
X117059000Y-63538000D01*
X117059000Y-72462000D02*
X117059000Y-69241000D01*
X117099000Y-66759000D02*
X117099000Y-63517000D01*
X117099000Y-72483000D02*
X117099000Y-69241000D01*
X117139000Y-66759000D02*
X117139000Y-63496000D01*
X117139000Y-72504000D02*
X117139000Y-69241000D01*
X117179000Y-66759000D02*
X117179000Y-63475000D01*
X117179000Y-72525000D02*
X117179000Y-69241000D01*
X117219000Y-66759000D02*
X117219000Y-63455000D01*
X117219000Y-72545000D02*
X117219000Y-69241000D01*
X117259000Y-66759000D02*
X117259000Y-63436000D01*
X117259000Y-72564000D02*
X117259000Y-69241000D01*
X117299000Y-66759000D02*
X117299000Y-63416000D01*
X117299000Y-72584000D02*
X117299000Y-69241000D01*
X117339000Y-66759000D02*
X117339000Y-63397000D01*
X117339000Y-72603000D02*
X117339000Y-69241000D01*
X117379000Y-66759000D02*
X117379000Y-63379000D01*
X117379000Y-72621000D02*
X117379000Y-69241000D01*
X117419000Y-66759000D02*
X117419000Y-63361000D01*
X117419000Y-72639000D02*
X117419000Y-69241000D01*
X117459000Y-66759000D02*
X117459000Y-63343000D01*
X117459000Y-72657000D02*
X117459000Y-69241000D01*
X117499000Y-66759000D02*
X117499000Y-63326000D01*
X117499000Y-72674000D02*
X117499000Y-69241000D01*
X117539000Y-66759000D02*
X117539000Y-63310000D01*
X117539000Y-72690000D02*
X117539000Y-69241000D01*
X117579000Y-66759000D02*
X117579000Y-63293000D01*
X117579000Y-72707000D02*
X117579000Y-69241000D01*
X117619000Y-66759000D02*
X117619000Y-63277000D01*
X117619000Y-72723000D02*
X117619000Y-69241000D01*
X117659000Y-66759000D02*
X117659000Y-63262000D01*
X117659000Y-72738000D02*
X117659000Y-69241000D01*
X117699000Y-66759000D02*
X117699000Y-63246000D01*
X117699000Y-72754000D02*
X117699000Y-69241000D01*
X117739000Y-66759000D02*
X117739000Y-63232000D01*
X117739000Y-72768000D02*
X117739000Y-69241000D01*
X117779000Y-66759000D02*
X117779000Y-63217000D01*
X117779000Y-72783000D02*
X117779000Y-69241000D01*
X117819000Y-66759000D02*
X117819000Y-63203000D01*
X117819000Y-72797000D02*
X117819000Y-69241000D01*
X117859000Y-66759000D02*
X117859000Y-63189000D01*
X117859000Y-72811000D02*
X117859000Y-69241000D01*
X117899000Y-66759000D02*
X117899000Y-63176000D01*
X117899000Y-72824000D02*
X117899000Y-69241000D01*
X117939000Y-66759000D02*
X117939000Y-63163000D01*
X117939000Y-72837000D02*
X117939000Y-69241000D01*
X117979000Y-66759000D02*
X117979000Y-63150000D01*
X117979000Y-72850000D02*
X117979000Y-69241000D01*
X118019000Y-66759000D02*
X118019000Y-63138000D01*
X118019000Y-72862000D02*
X118019000Y-69241000D01*
X118059000Y-66759000D02*
X118059000Y-63126000D01*
X118059000Y-72874000D02*
X118059000Y-69241000D01*
X118099000Y-66759000D02*
X118099000Y-63115000D01*
X118099000Y-72885000D02*
X118099000Y-69241000D01*
X118139000Y-66759000D02*
X118139000Y-63103000D01*
X118139000Y-72897000D02*
X118139000Y-69241000D01*
X118179000Y-66759000D02*
X118179000Y-63093000D01*
X118179000Y-72907000D02*
X118179000Y-69241000D01*
X118219000Y-66759000D02*
X118219000Y-63082000D01*
X118219000Y-72918000D02*
X118219000Y-69241000D01*
X118259000Y-72928000D02*
X118259000Y-63072000D01*
X118299000Y-72938000D02*
X118299000Y-63062000D01*
X118339000Y-72947000D02*
X118339000Y-63053000D01*
X118379000Y-72956000D02*
X118379000Y-63044000D01*
X118419000Y-72965000D02*
X118419000Y-63035000D01*
X118459000Y-72974000D02*
X118459000Y-63026000D01*
X118499000Y-72982000D02*
X118499000Y-63018000D01*
X118539000Y-72990000D02*
X118539000Y-63010000D01*
X118579000Y-72997000D02*
X118579000Y-63003000D01*
X118619000Y-73004000D02*
X118619000Y-62996000D01*
X118659000Y-73011000D02*
X118659000Y-62989000D01*
X118699000Y-73018000D02*
X118699000Y-62982000D01*
X118739000Y-73024000D02*
X118739000Y-62976000D01*
X118779000Y-73030000D02*
X118779000Y-62970000D01*
X118820000Y-73035000D02*
X118820000Y-62965000D01*
X118860000Y-73040000D02*
X118860000Y-62960000D01*
X118900000Y-73045000D02*
X118900000Y-62955000D01*
X118940000Y-73050000D02*
X118940000Y-62950000D01*
X118980000Y-73054000D02*
X118980000Y-62946000D01*
X119020000Y-73058000D02*
X119020000Y-62942000D01*
X119060000Y-73062000D02*
X119060000Y-62938000D01*
X119100000Y-73065000D02*
X119100000Y-62935000D01*
X119140000Y-73068000D02*
X119140000Y-62932000D01*
X119180000Y-73070000D02*
X119180000Y-62930000D01*
X119220000Y-73073000D02*
X119220000Y-62927000D01*
X119260000Y-73075000D02*
X119260000Y-62925000D01*
X119300000Y-73077000D02*
X119300000Y-62923000D01*
X119340000Y-73078000D02*
X119340000Y-62922000D01*
X119380000Y-73079000D02*
X119380000Y-62921000D01*
X119420000Y-73080000D02*
X119420000Y-62920000D01*
X119460000Y-73080000D02*
X119460000Y-62920000D01*
X119500000Y-73080000D02*
X119500000Y-62920000D01*
X124479646Y-71375000D02*
X124479646Y-70375000D01*
X124979646Y-70875000D02*
X123979646Y-70875000D01*
X124620000Y-68000000D02*
G75*
G02*
X114380000Y-68000000I-5120000J0D01*
G01*
X114380000Y-68000000D02*
G75*
G02*
X124620000Y-68000000I5120000J0D01*
G01*
%TO.C,J2*%
X101050000Y-87520000D02*
X101050000Y-90180000D01*
X106190000Y-87520000D02*
X101050000Y-87520000D01*
X106190000Y-87520000D02*
X106190000Y-90180000D01*
X106190000Y-90180000D02*
X101050000Y-90180000D01*
X108790000Y-88850000D02*
X108790000Y-90180000D01*
X108790000Y-90180000D02*
X107460000Y-90180000D01*
%TO.C,RV2*%
X107970000Y-106745000D02*
X107970000Y-104025000D01*
X107970000Y-99525000D02*
X107970000Y-95155000D01*
X106150000Y-95155000D02*
X107970000Y-95155000D01*
X97030000Y-106745000D02*
X107970000Y-106745000D01*
X97030000Y-106745000D02*
X97030000Y-104025000D01*
X97030000Y-99525000D02*
X97030000Y-95155000D01*
X97030000Y-95155000D02*
X98850000Y-95155000D01*
%TO.C,J1*%
X114170000Y-102270000D02*
X114170000Y-104870000D01*
X114170000Y-102270000D02*
X116830000Y-102270000D01*
X114170000Y-104870000D02*
X116830000Y-104870000D01*
X115500000Y-99670000D02*
X116830000Y-99670000D01*
X116830000Y-99670000D02*
X116830000Y-101000000D01*
X116830000Y-102270000D02*
X116830000Y-104870000D01*
%TD*%
%LPC*%
D12*
%TO.C,C6*%
X131500000Y-78500000D03*
D13*
X136500000Y-78500000D03*
%TD*%
D12*
%TO.C,U1*%
X114880000Y-82500000D03*
D14*
X114880000Y-85040000D03*
X114880000Y-87580000D03*
X114880000Y-90120000D03*
X122500000Y-90120000D03*
X122500000Y-87580000D03*
X122500000Y-85040000D03*
X122500000Y-82500000D03*
%TD*%
D13*
%TO.C,R1*%
X101500000Y-79000000D03*
D14*
X109120000Y-79000000D03*
%TD*%
D15*
%TO.C,J3*%
X132650000Y-89730000D03*
D16*
X132650000Y-92270000D03*
%TD*%
D13*
%TO.C,C3*%
X95750000Y-82500000D03*
X98250000Y-82500000D03*
%TD*%
D17*
%TO.C,RV1*%
X96750000Y-67725000D03*
X106250000Y-67725000D03*
D18*
X99000000Y-75225000D03*
D19*
X101500000Y-75225000D03*
X104000000Y-75225000D03*
%TD*%
D20*
%TO.C,R2*%
X122460000Y-77000000D03*
D21*
X127540000Y-77000000D03*
%TD*%
D22*
%TO.C,C4*%
X129000000Y-68000000D03*
D23*
X134000000Y-68000000D03*
%TD*%
D12*
%TO.C,C2*%
X126500000Y-100000000D03*
D13*
X121500000Y-100000000D03*
%TD*%
%TO.C,C7*%
X134500000Y-98500000D03*
X132000000Y-98500000D03*
%TD*%
D22*
%TO.C,C1*%
X122000000Y-68000000D03*
D23*
X117000000Y-68000000D03*
%TD*%
D15*
%TO.C,J2*%
X107460000Y-88850000D03*
D16*
X104920000Y-88850000D03*
X102380000Y-88850000D03*
%TD*%
D17*
%TO.C,RV2*%
X107250000Y-101775000D03*
X97750000Y-101775000D03*
D18*
X105000000Y-94275000D03*
D19*
X102500000Y-94275000D03*
X100000000Y-94275000D03*
%TD*%
D15*
%TO.C,J1*%
X115500000Y-101000000D03*
D16*
X115500000Y-103540000D03*
%TD*%
%LPD*%
M02*
