G04 #@! TF.GenerationSoftware,KiCad,Pcbnew,8.0.1*
G04 #@! TF.CreationDate,2024-05-12T13:49:03-04:00*
G04 #@! TF.ProjectId,recyclobot,72656379-636c-46f6-926f-742e6b696361,rev?*
G04 #@! TF.SameCoordinates,Original*
G04 #@! TF.FileFunction,Copper,L1,Top*
G04 #@! TF.FilePolarity,Positive*
%FSLAX46Y46*%
G04 Gerber Fmt 4.6, Leading zero omitted, Abs format (unit mm)*
G04 Created by KiCad (PCBNEW 8.0.1) date 2024-05-12 13:49:03*
%MOMM*%
%LPD*%
G01*
G04 APERTURE LIST*
G04 Aperture macros list*
%AMRoundRect*
0 Rectangle with rounded corners*
0 $1 Rounding radius*
0 $2 $3 $4 $5 $6 $7 $8 $9 X,Y pos of 4 corners*
0 Add a 4 corners polygon primitive as box body*
4,1,4,$2,$3,$4,$5,$6,$7,$8,$9,$2,$3,0*
0 Add four circle primitives for the rounded corners*
1,1,$1+$1,$2,$3*
1,1,$1+$1,$4,$5*
1,1,$1+$1,$6,$7*
1,1,$1+$1,$8,$9*
0 Add four rect primitives between the rounded corners*
20,1,$1+$1,$2,$3,$4,$5,0*
20,1,$1+$1,$4,$5,$6,$7,0*
20,1,$1+$1,$6,$7,$8,$9,0*
20,1,$1+$1,$8,$9,$2,$3,0*%
G04 Aperture macros list end*
G04 #@! TA.AperFunction,ComponentPad*
%ADD10R,1.700000X1.700000*%
G04 #@! TD*
G04 #@! TA.AperFunction,ComponentPad*
%ADD11O,1.700000X1.700000*%
G04 #@! TD*
G04 #@! TA.AperFunction,ComponentPad*
%ADD12R,1.500000X1.050000*%
G04 #@! TD*
G04 #@! TA.AperFunction,ComponentPad*
%ADD13O,1.500000X1.050000*%
G04 #@! TD*
G04 #@! TA.AperFunction,SMDPad,CuDef*
%ADD14RoundRect,0.150000X-0.150000X0.800000X-0.150000X-0.800000X0.150000X-0.800000X0.150000X0.800000X0*%
G04 #@! TD*
G04 #@! TA.AperFunction,ComponentPad*
%ADD15C,1.397000*%
G04 #@! TD*
G04 #@! TA.AperFunction,ComponentPad*
%ADD16O,1.600000X1.600000*%
G04 #@! TD*
G04 #@! TA.AperFunction,ComponentPad*
%ADD17C,1.600000*%
G04 #@! TD*
G04 #@! TA.AperFunction,ComponentPad*
%ADD18R,1.800000X1.800000*%
G04 #@! TD*
G04 #@! TA.AperFunction,ComponentPad*
%ADD19C,1.800000*%
G04 #@! TD*
G04 #@! TA.AperFunction,ViaPad*
%ADD20C,0.600000*%
G04 #@! TD*
G04 #@! TA.AperFunction,Conductor*
%ADD21C,0.200000*%
G04 #@! TD*
G04 APERTURE END LIST*
D10*
X174000000Y-75420000D03*
D11*
X174000000Y-77960000D03*
X174000000Y-80500000D03*
D10*
X165000000Y-67725000D03*
D11*
X165000000Y-65185000D03*
D12*
X140500000Y-86500000D03*
D13*
X140500000Y-85230000D03*
X140500000Y-83960000D03*
D14*
X161715000Y-79900000D03*
X160445000Y-79900000D03*
X159175000Y-79900000D03*
X157905000Y-79900000D03*
X156635000Y-79900000D03*
X155365000Y-79900000D03*
X154095000Y-79900000D03*
X152825000Y-79900000D03*
X151555000Y-79900000D03*
X150285000Y-79900000D03*
X150285000Y-89100000D03*
X151555000Y-89100000D03*
X152825000Y-89100000D03*
X154095000Y-89100000D03*
X155365000Y-89100000D03*
X156635000Y-89100000D03*
X157905000Y-89100000D03*
X159175000Y-89100000D03*
X160445000Y-89100000D03*
X161715000Y-89100000D03*
D15*
X166000000Y-104420000D03*
X173620000Y-104420000D03*
X166000000Y-109500000D03*
X173620000Y-109500000D03*
X150690000Y-95460000D03*
X158310000Y-95460000D03*
X150690000Y-100540000D03*
X158310000Y-100540000D03*
X152500000Y-112000000D03*
X160120000Y-112000000D03*
X152500000Y-117080000D03*
X160120000Y-117080000D03*
X136690000Y-103960000D03*
X144310000Y-103960000D03*
X136690000Y-109040000D03*
X144310000Y-109040000D03*
D16*
X145080000Y-72500000D03*
D17*
X134920000Y-72500000D03*
X172500000Y-88420000D03*
D16*
X172500000Y-98580000D03*
D18*
X153775000Y-68500000D03*
D19*
X151235000Y-68500000D03*
D20*
X159500000Y-93000000D03*
X147000000Y-117000000D03*
X159000000Y-74000000D03*
X137000000Y-95000000D03*
X172000000Y-117500000D03*
X136500000Y-117000000D03*
X138500000Y-65000000D03*
X175500000Y-67500000D03*
D21*
X135000000Y-86500000D02*
X134920000Y-86420000D01*
X134920000Y-86420000D02*
X134920000Y-72500000D01*
X158315001Y-93000000D02*
X159500000Y-93000000D01*
X155365000Y-90049999D02*
X158315001Y-93000000D01*
X155365000Y-89100000D02*
X155365000Y-90049999D01*
X158000000Y-90500000D02*
X159000000Y-91500000D01*
X157085001Y-90500000D02*
X158000000Y-90500000D01*
X156635000Y-90049999D02*
X157085001Y-90500000D01*
X159000000Y-91500000D02*
X162000000Y-91500000D01*
X162000000Y-91500000D02*
X169080000Y-98580000D01*
X169080000Y-98580000D02*
X172500000Y-98580000D01*
X140500000Y-86500000D02*
X135000000Y-86500000D01*
X166000000Y-104420000D02*
X173620000Y-104420000D01*
X166000000Y-104420000D02*
X166000000Y-101737907D01*
X154095000Y-89832907D02*
X154095000Y-89100000D01*
X166000000Y-101737907D02*
X154095000Y-89832907D01*
X152500000Y-112000000D02*
X160120000Y-112000000D01*
X152500000Y-112000000D02*
X149691500Y-109191500D01*
X149691500Y-109191500D02*
X149691500Y-91808500D01*
X149691500Y-91808500D02*
X151555000Y-89945000D01*
X151555000Y-89945000D02*
X151555000Y-89100000D01*
X150690000Y-95460000D02*
X158310000Y-95460000D01*
X150690000Y-95460000D02*
X152825000Y-93325000D01*
X152825000Y-93325000D02*
X152825000Y-89100000D01*
X144310000Y-103960000D02*
X144310000Y-95075000D01*
X144310000Y-95075000D02*
X150285000Y-89100000D01*
X136690000Y-103960000D02*
X144310000Y-103960000D01*
X172500000Y-88420000D02*
X170170000Y-90750000D01*
X170170000Y-90750000D02*
X159234448Y-90750000D01*
X159234448Y-90750000D02*
X157905000Y-89420552D01*
X157905000Y-89420552D02*
X157905000Y-89100000D01*
X156635000Y-89100000D02*
X156635000Y-90049999D01*
X174000000Y-77960000D02*
X175150000Y-79110000D01*
X175150000Y-79110000D02*
X175150000Y-81350000D01*
X175150000Y-81350000D02*
X166150000Y-90350000D01*
X166150000Y-90350000D02*
X159475001Y-90350000D01*
X159475001Y-90350000D02*
X159175000Y-90049999D01*
X159175000Y-90049999D02*
X159175000Y-89100000D01*
X145080000Y-72500000D02*
X147235000Y-72500000D01*
X147235000Y-72500000D02*
X151235000Y-68500000D01*
X140500000Y-83960000D02*
X161540000Y-83960000D01*
X161540000Y-83960000D02*
X165000000Y-80500000D01*
X165000000Y-80500000D02*
X165000000Y-67725000D01*
X160445000Y-89100000D02*
X160445000Y-88150001D01*
X160445000Y-88150001D02*
X168095001Y-80500000D01*
X168095001Y-80500000D02*
X174000000Y-80500000D01*
X140500000Y-86500000D02*
X158794999Y-86500000D01*
X158794999Y-86500000D02*
X160445000Y-88150001D01*
G04 #@! TA.AperFunction,Conductor*
G36*
X178442539Y-60020185D02*
G01*
X178488294Y-60072989D01*
X178499500Y-60124500D01*
X178499500Y-120368959D01*
X178479815Y-120435998D01*
X178427011Y-120481753D01*
X178374208Y-120492952D01*
X131628294Y-120006017D01*
X131561464Y-119985635D01*
X131516261Y-119932358D01*
X131505590Y-119881008D01*
X131523356Y-117713626D01*
X131528550Y-117080000D01*
X151296366Y-117080000D01*
X151316859Y-117301166D01*
X151316860Y-117301168D01*
X151377643Y-117514798D01*
X151377649Y-117514813D01*
X151476652Y-117713636D01*
X151492208Y-117734236D01*
X152093600Y-117132845D01*
X152093600Y-117133504D01*
X152121295Y-117236865D01*
X152174799Y-117329536D01*
X152250464Y-117405201D01*
X152343135Y-117458705D01*
X152446496Y-117486400D01*
X152447153Y-117486400D01*
X151847761Y-118085790D01*
X151847762Y-118085791D01*
X151963490Y-118157447D01*
X151963496Y-118157450D01*
X152170607Y-118237684D01*
X152388945Y-118278500D01*
X152611055Y-118278500D01*
X152829392Y-118237684D01*
X153036505Y-118157449D01*
X153036506Y-118157448D01*
X153152237Y-118085790D01*
X152552848Y-117486400D01*
X152553504Y-117486400D01*
X152656865Y-117458705D01*
X152749536Y-117405201D01*
X152825201Y-117329536D01*
X152878705Y-117236865D01*
X152906400Y-117133504D01*
X152906400Y-117132846D01*
X153507790Y-117734236D01*
X153523348Y-117713634D01*
X153523353Y-117713626D01*
X153622350Y-117514813D01*
X153622356Y-117514798D01*
X153683139Y-117301168D01*
X153683140Y-117301166D01*
X153703634Y-117080000D01*
X158916366Y-117080000D01*
X158936859Y-117301166D01*
X158936860Y-117301168D01*
X158997643Y-117514798D01*
X158997649Y-117514813D01*
X159096652Y-117713636D01*
X159112208Y-117734236D01*
X159713600Y-117132844D01*
X159713600Y-117133504D01*
X159741295Y-117236865D01*
X159794799Y-117329536D01*
X159870464Y-117405201D01*
X159963135Y-117458705D01*
X160066496Y-117486400D01*
X160067153Y-117486400D01*
X159467761Y-118085790D01*
X159467762Y-118085791D01*
X159583490Y-118157447D01*
X159583496Y-118157450D01*
X159790607Y-118237684D01*
X160008945Y-118278500D01*
X160231055Y-118278500D01*
X160449392Y-118237684D01*
X160656505Y-118157449D01*
X160656506Y-118157448D01*
X160772237Y-118085790D01*
X160172848Y-117486400D01*
X160173504Y-117486400D01*
X160276865Y-117458705D01*
X160369536Y-117405201D01*
X160445201Y-117329536D01*
X160498705Y-117236865D01*
X160526400Y-117133504D01*
X160526400Y-117132846D01*
X161127790Y-117734236D01*
X161143348Y-117713634D01*
X161143353Y-117713626D01*
X161242350Y-117514813D01*
X161242356Y-117514798D01*
X161303139Y-117301168D01*
X161303140Y-117301166D01*
X161323634Y-117080000D01*
X161323634Y-117079999D01*
X161303140Y-116858833D01*
X161303139Y-116858831D01*
X161242356Y-116645201D01*
X161242350Y-116645186D01*
X161143353Y-116446374D01*
X161143348Y-116446367D01*
X161127789Y-116425762D01*
X160526400Y-117027151D01*
X160526400Y-117026496D01*
X160498705Y-116923135D01*
X160445201Y-116830464D01*
X160369536Y-116754799D01*
X160276865Y-116701295D01*
X160173504Y-116673600D01*
X160172847Y-116673600D01*
X160772237Y-116074208D01*
X160772236Y-116074207D01*
X160656509Y-116002552D01*
X160656503Y-116002549D01*
X160449392Y-115922315D01*
X160231055Y-115881500D01*
X160008945Y-115881500D01*
X159790607Y-115922315D01*
X159583495Y-116002550D01*
X159467761Y-116074208D01*
X160067154Y-116673600D01*
X160066496Y-116673600D01*
X159963135Y-116701295D01*
X159870464Y-116754799D01*
X159794799Y-116830464D01*
X159741295Y-116923135D01*
X159713600Y-117026496D01*
X159713600Y-117027153D01*
X159112209Y-116425762D01*
X159096651Y-116446365D01*
X158997649Y-116645186D01*
X158997643Y-116645201D01*
X158936860Y-116858831D01*
X158936859Y-116858833D01*
X158916366Y-117079999D01*
X158916366Y-117080000D01*
X153703634Y-117080000D01*
X153703634Y-117079999D01*
X153683140Y-116858833D01*
X153683139Y-116858831D01*
X153622356Y-116645201D01*
X153622350Y-116645186D01*
X153523353Y-116446374D01*
X153523348Y-116446367D01*
X153507789Y-116425762D01*
X152906400Y-117027151D01*
X152906400Y-117026496D01*
X152878705Y-116923135D01*
X152825201Y-116830464D01*
X152749536Y-116754799D01*
X152656865Y-116701295D01*
X152553504Y-116673600D01*
X152552847Y-116673600D01*
X153152237Y-116074208D01*
X153152236Y-116074207D01*
X153036509Y-116002552D01*
X153036503Y-116002549D01*
X152829392Y-115922315D01*
X152611055Y-115881500D01*
X152388945Y-115881500D01*
X152170607Y-115922315D01*
X151963495Y-116002550D01*
X151847761Y-116074208D01*
X152447154Y-116673600D01*
X152446496Y-116673600D01*
X152343135Y-116701295D01*
X152250464Y-116754799D01*
X152174799Y-116830464D01*
X152121295Y-116923135D01*
X152093600Y-117026496D01*
X152093600Y-117027153D01*
X151492209Y-116425762D01*
X151476651Y-116446365D01*
X151377649Y-116645186D01*
X151377643Y-116645201D01*
X151316860Y-116858831D01*
X151316859Y-116858833D01*
X151296366Y-117079999D01*
X151296366Y-117080000D01*
X131528550Y-117080000D01*
X131594451Y-109040000D01*
X135486366Y-109040000D01*
X135506859Y-109261166D01*
X135506860Y-109261168D01*
X135567643Y-109474798D01*
X135567649Y-109474813D01*
X135666652Y-109673636D01*
X135682208Y-109694236D01*
X136283600Y-109092845D01*
X136283600Y-109093504D01*
X136311295Y-109196865D01*
X136364799Y-109289536D01*
X136440464Y-109365201D01*
X136533135Y-109418705D01*
X136636496Y-109446400D01*
X136637153Y-109446400D01*
X136037761Y-110045790D01*
X136037762Y-110045791D01*
X136153490Y-110117447D01*
X136153496Y-110117450D01*
X136360607Y-110197684D01*
X136578945Y-110238500D01*
X136801055Y-110238500D01*
X137019392Y-110197684D01*
X137226505Y-110117449D01*
X137226506Y-110117448D01*
X137342237Y-110045790D01*
X136742848Y-109446400D01*
X136743504Y-109446400D01*
X136846865Y-109418705D01*
X136939536Y-109365201D01*
X137015201Y-109289536D01*
X137068705Y-109196865D01*
X137096400Y-109093504D01*
X137096400Y-109092846D01*
X137697790Y-109694236D01*
X137713348Y-109673634D01*
X137713353Y-109673626D01*
X137812350Y-109474813D01*
X137812356Y-109474798D01*
X137873139Y-109261168D01*
X137873140Y-109261166D01*
X137893634Y-109040000D01*
X143106366Y-109040000D01*
X143126859Y-109261166D01*
X143126860Y-109261168D01*
X143187643Y-109474798D01*
X143187649Y-109474813D01*
X143286652Y-109673636D01*
X143302208Y-109694236D01*
X143903600Y-109092845D01*
X143903600Y-109093504D01*
X143931295Y-109196865D01*
X143984799Y-109289536D01*
X144060464Y-109365201D01*
X144153135Y-109418705D01*
X144256496Y-109446400D01*
X144257153Y-109446400D01*
X143657761Y-110045790D01*
X143657762Y-110045791D01*
X143773490Y-110117447D01*
X143773496Y-110117450D01*
X143980607Y-110197684D01*
X144198945Y-110238500D01*
X144421055Y-110238500D01*
X144639392Y-110197684D01*
X144846505Y-110117449D01*
X144846506Y-110117448D01*
X144962237Y-110045790D01*
X144362848Y-109446400D01*
X144363504Y-109446400D01*
X144466865Y-109418705D01*
X144559536Y-109365201D01*
X144635201Y-109289536D01*
X144688705Y-109196865D01*
X144716400Y-109093504D01*
X144716400Y-109092846D01*
X145317790Y-109694236D01*
X145333348Y-109673634D01*
X145333353Y-109673626D01*
X145432350Y-109474813D01*
X145432356Y-109474798D01*
X145493139Y-109261168D01*
X145493140Y-109261166D01*
X145513634Y-109040000D01*
X145513634Y-109039999D01*
X145493140Y-108818833D01*
X145493139Y-108818831D01*
X145432356Y-108605201D01*
X145432350Y-108605186D01*
X145333353Y-108406374D01*
X145333348Y-108406367D01*
X145317789Y-108385762D01*
X144716400Y-108987151D01*
X144716400Y-108986496D01*
X144688705Y-108883135D01*
X144635201Y-108790464D01*
X144559536Y-108714799D01*
X144466865Y-108661295D01*
X144363504Y-108633600D01*
X144362847Y-108633600D01*
X144962237Y-108034208D01*
X144962236Y-108034207D01*
X144846509Y-107962552D01*
X144846503Y-107962549D01*
X144639392Y-107882315D01*
X144421055Y-107841500D01*
X144198945Y-107841500D01*
X143980607Y-107882315D01*
X143773495Y-107962550D01*
X143657761Y-108034208D01*
X144257154Y-108633600D01*
X144256496Y-108633600D01*
X144153135Y-108661295D01*
X144060464Y-108714799D01*
X143984799Y-108790464D01*
X143931295Y-108883135D01*
X143903600Y-108986496D01*
X143903600Y-108987153D01*
X143302209Y-108385762D01*
X143286651Y-108406365D01*
X143187649Y-108605186D01*
X143187643Y-108605201D01*
X143126860Y-108818831D01*
X143126859Y-108818833D01*
X143106366Y-109039999D01*
X143106366Y-109040000D01*
X137893634Y-109040000D01*
X137893634Y-109039999D01*
X137873140Y-108818833D01*
X137873139Y-108818831D01*
X137812356Y-108605201D01*
X137812350Y-108605186D01*
X137713353Y-108406374D01*
X137713348Y-108406367D01*
X137697789Y-108385762D01*
X137096400Y-108987151D01*
X137096400Y-108986496D01*
X137068705Y-108883135D01*
X137015201Y-108790464D01*
X136939536Y-108714799D01*
X136846865Y-108661295D01*
X136743504Y-108633600D01*
X136742847Y-108633600D01*
X137342237Y-108034208D01*
X137342236Y-108034207D01*
X137226509Y-107962552D01*
X137226503Y-107962549D01*
X137019392Y-107882315D01*
X136801055Y-107841500D01*
X136578945Y-107841500D01*
X136360607Y-107882315D01*
X136153495Y-107962550D01*
X136037761Y-108034208D01*
X136637154Y-108633600D01*
X136636496Y-108633600D01*
X136533135Y-108661295D01*
X136440464Y-108714799D01*
X136364799Y-108790464D01*
X136311295Y-108883135D01*
X136283600Y-108986496D01*
X136283600Y-108987153D01*
X135682209Y-108385762D01*
X135666651Y-108406365D01*
X135567649Y-108605186D01*
X135567643Y-108605201D01*
X135506860Y-108818831D01*
X135506859Y-108818833D01*
X135486366Y-109039999D01*
X135486366Y-109040000D01*
X131594451Y-109040000D01*
X131853005Y-77496337D01*
X131893959Y-72500001D01*
X133614532Y-72500001D01*
X133634364Y-72726686D01*
X133634366Y-72726697D01*
X133693258Y-72946488D01*
X133693261Y-72946497D01*
X133789431Y-73152732D01*
X133789432Y-73152734D01*
X133919954Y-73339141D01*
X134080858Y-73500045D01*
X134080861Y-73500047D01*
X134266624Y-73630118D01*
X134310248Y-73684693D01*
X134319500Y-73731692D01*
X134319500Y-86333330D01*
X134319499Y-86333348D01*
X134319499Y-86499054D01*
X134319498Y-86499054D01*
X134360423Y-86651785D01*
X134389358Y-86701900D01*
X134389359Y-86701904D01*
X134389360Y-86701904D01*
X134439480Y-86788716D01*
X134519480Y-86868716D01*
X134631284Y-86980520D01*
X134700532Y-87020500D01*
X134768215Y-87059577D01*
X134920943Y-87100500D01*
X139157885Y-87100500D01*
X139224924Y-87120185D01*
X139270679Y-87172989D01*
X139274067Y-87181167D01*
X139306202Y-87267328D01*
X139306206Y-87267335D01*
X139392452Y-87382544D01*
X139392455Y-87382547D01*
X139507664Y-87468793D01*
X139507671Y-87468797D01*
X139642517Y-87519091D01*
X139642516Y-87519091D01*
X139649444Y-87519835D01*
X139702127Y-87525500D01*
X141297872Y-87525499D01*
X141357483Y-87519091D01*
X141492331Y-87468796D01*
X141607546Y-87382546D01*
X141693796Y-87267331D01*
X141714029Y-87213084D01*
X141725934Y-87181166D01*
X141767806Y-87125233D01*
X141833270Y-87100816D01*
X141842116Y-87100500D01*
X158494902Y-87100500D01*
X158561941Y-87120185D01*
X158582583Y-87136819D01*
X158910343Y-87464579D01*
X158943828Y-87525902D01*
X158938844Y-87595594D01*
X158896972Y-87651527D01*
X158857258Y-87671336D01*
X158764604Y-87698254D01*
X158764603Y-87698255D01*
X158623137Y-87781917D01*
X158616969Y-87786702D01*
X158615072Y-87784256D01*
X158566358Y-87810857D01*
X158496666Y-87805873D01*
X158464296Y-87785069D01*
X158463031Y-87786702D01*
X158456862Y-87781917D01*
X158378681Y-87735681D01*
X158315398Y-87698256D01*
X158315397Y-87698255D01*
X158315396Y-87698255D01*
X158315393Y-87698254D01*
X158157573Y-87652402D01*
X158157567Y-87652401D01*
X158120701Y-87649500D01*
X158120694Y-87649500D01*
X157689306Y-87649500D01*
X157689298Y-87649500D01*
X157652432Y-87652401D01*
X157652426Y-87652402D01*
X157494606Y-87698254D01*
X157494603Y-87698255D01*
X157353137Y-87781917D01*
X157346969Y-87786702D01*
X157345072Y-87784256D01*
X157296358Y-87810857D01*
X157226666Y-87805873D01*
X157194296Y-87785069D01*
X157193031Y-87786702D01*
X157186862Y-87781917D01*
X157108681Y-87735681D01*
X157045398Y-87698256D01*
X157045397Y-87698255D01*
X157045396Y-87698255D01*
X157045393Y-87698254D01*
X156887573Y-87652402D01*
X156887567Y-87652401D01*
X156850701Y-87649500D01*
X156850694Y-87649500D01*
X156419306Y-87649500D01*
X156419298Y-87649500D01*
X156382432Y-87652401D01*
X156382426Y-87652402D01*
X156224606Y-87698254D01*
X156224603Y-87698255D01*
X156083140Y-87781915D01*
X156076974Y-87786699D01*
X156075174Y-87784379D01*
X156025913Y-87811230D01*
X155956225Y-87806193D01*
X155923992Y-87785461D01*
X155922722Y-87787100D01*
X155916552Y-87782314D01*
X155775196Y-87698717D01*
X155775193Y-87698716D01*
X155617494Y-87652900D01*
X155617497Y-87652900D01*
X155615000Y-87652703D01*
X155615000Y-89226000D01*
X155595315Y-89293039D01*
X155542511Y-89338794D01*
X155491000Y-89350000D01*
X155239000Y-89350000D01*
X155171961Y-89330315D01*
X155126206Y-89277511D01*
X155115000Y-89226000D01*
X155115000Y-87652703D01*
X155112503Y-87652900D01*
X154954806Y-87698716D01*
X154954803Y-87698717D01*
X154813449Y-87782313D01*
X154807283Y-87787097D01*
X154805389Y-87784655D01*
X154756580Y-87811239D01*
X154686894Y-87806179D01*
X154654227Y-87785159D01*
X154653031Y-87786702D01*
X154646862Y-87781917D01*
X154568681Y-87735681D01*
X154505398Y-87698256D01*
X154505397Y-87698255D01*
X154505396Y-87698255D01*
X154505393Y-87698254D01*
X154347573Y-87652402D01*
X154347567Y-87652401D01*
X154310701Y-87649500D01*
X154310694Y-87649500D01*
X153879306Y-87649500D01*
X153879298Y-87649500D01*
X153842432Y-87652401D01*
X153842426Y-87652402D01*
X153684606Y-87698254D01*
X153684603Y-87698255D01*
X153543137Y-87781917D01*
X153536969Y-87786702D01*
X153535072Y-87784256D01*
X153486358Y-87810857D01*
X153416666Y-87805873D01*
X153384296Y-87785069D01*
X153383031Y-87786702D01*
X153376862Y-87781917D01*
X153298681Y-87735681D01*
X153235398Y-87698256D01*
X153235397Y-87698255D01*
X153235396Y-87698255D01*
X153235393Y-87698254D01*
X153077573Y-87652402D01*
X153077567Y-87652401D01*
X153040701Y-87649500D01*
X153040694Y-87649500D01*
X152609306Y-87649500D01*
X152609298Y-87649500D01*
X152572432Y-87652401D01*
X152572426Y-87652402D01*
X152414606Y-87698254D01*
X152414603Y-87698255D01*
X152273137Y-87781917D01*
X152266969Y-87786702D01*
X152265072Y-87784256D01*
X152216358Y-87810857D01*
X152146666Y-87805873D01*
X152114296Y-87785069D01*
X152113031Y-87786702D01*
X152106862Y-87781917D01*
X152028681Y-87735681D01*
X151965398Y-87698256D01*
X151965397Y-87698255D01*
X151965396Y-87698255D01*
X151965393Y-87698254D01*
X151807573Y-87652402D01*
X151807567Y-87652401D01*
X151770701Y-87649500D01*
X151770694Y-87649500D01*
X151339306Y-87649500D01*
X151339298Y-87649500D01*
X151302432Y-87652401D01*
X151302426Y-87652402D01*
X151144606Y-87698254D01*
X151144603Y-87698255D01*
X151003137Y-87781917D01*
X150996969Y-87786702D01*
X150995072Y-87784256D01*
X150946358Y-87810857D01*
X150876666Y-87805873D01*
X150844296Y-87785069D01*
X150843031Y-87786702D01*
X150836862Y-87781917D01*
X150758681Y-87735681D01*
X150695398Y-87698256D01*
X150695397Y-87698255D01*
X150695396Y-87698255D01*
X150695393Y-87698254D01*
X150537573Y-87652402D01*
X150537567Y-87652401D01*
X150500701Y-87649500D01*
X150500694Y-87649500D01*
X150069306Y-87649500D01*
X150069298Y-87649500D01*
X150032432Y-87652401D01*
X150032426Y-87652402D01*
X149874606Y-87698254D01*
X149874603Y-87698255D01*
X149733137Y-87781917D01*
X149733129Y-87781923D01*
X149616923Y-87898129D01*
X149616917Y-87898137D01*
X149533255Y-88039603D01*
X149533254Y-88039606D01*
X149487402Y-88197426D01*
X149487401Y-88197432D01*
X149484500Y-88234298D01*
X149484500Y-88999902D01*
X149464815Y-89066941D01*
X149448181Y-89087583D01*
X143829481Y-94706282D01*
X143829479Y-94706284D01*
X143809481Y-94740923D01*
X143801028Y-94755565D01*
X143750423Y-94843215D01*
X143709499Y-94995943D01*
X143709499Y-94995945D01*
X143709499Y-95164046D01*
X143709500Y-95164059D01*
X143709500Y-102852517D01*
X143689815Y-102919556D01*
X143650778Y-102957944D01*
X143584343Y-102999079D01*
X143420133Y-103148775D01*
X143298212Y-103310227D01*
X143242103Y-103351863D01*
X143199258Y-103359500D01*
X137800742Y-103359500D01*
X137733703Y-103339815D01*
X137701788Y-103310227D01*
X137579866Y-103148775D01*
X137415655Y-102999078D01*
X137415653Y-102999076D01*
X137226733Y-102882102D01*
X137226727Y-102882099D01*
X137119080Y-102840397D01*
X137019528Y-102801830D01*
X136801104Y-102761000D01*
X136578896Y-102761000D01*
X136360472Y-102801830D01*
X136310695Y-102821113D01*
X136153272Y-102882099D01*
X136153266Y-102882102D01*
X135964346Y-102999076D01*
X135964344Y-102999078D01*
X135800133Y-103148775D01*
X135666222Y-103326103D01*
X135567180Y-103525005D01*
X135567174Y-103525020D01*
X135506366Y-103738738D01*
X135506365Y-103738740D01*
X135485863Y-103959999D01*
X135485863Y-103960000D01*
X135506365Y-104181259D01*
X135506366Y-104181261D01*
X135567174Y-104394979D01*
X135567180Y-104394994D01*
X135666222Y-104593896D01*
X135800133Y-104771224D01*
X135964344Y-104920921D01*
X135964346Y-104920923D01*
X136153266Y-105037897D01*
X136153272Y-105037900D01*
X136182206Y-105049109D01*
X136360472Y-105118170D01*
X136578896Y-105159000D01*
X136578899Y-105159000D01*
X136801101Y-105159000D01*
X136801104Y-105159000D01*
X137019528Y-105118170D01*
X137226730Y-105037899D01*
X137415655Y-104920922D01*
X137579868Y-104771222D01*
X137701788Y-104609772D01*
X137757897Y-104568137D01*
X137800742Y-104560500D01*
X143199258Y-104560500D01*
X143266297Y-104580185D01*
X143298212Y-104609773D01*
X143420133Y-104771224D01*
X143584344Y-104920921D01*
X143584346Y-104920923D01*
X143773266Y-105037897D01*
X143773272Y-105037900D01*
X143802206Y-105049109D01*
X143980472Y-105118170D01*
X144198896Y-105159000D01*
X144198899Y-105159000D01*
X144421101Y-105159000D01*
X144421104Y-105159000D01*
X144639528Y-105118170D01*
X144846730Y-105037899D01*
X145035655Y-104920922D01*
X145199868Y-104771222D01*
X145333778Y-104593896D01*
X145432824Y-104394984D01*
X145493634Y-104181260D01*
X145514137Y-103960000D01*
X145499293Y-103799815D01*
X145493634Y-103738740D01*
X145493633Y-103738738D01*
X145456655Y-103608775D01*
X145432824Y-103525016D01*
X145399991Y-103459079D01*
X145341744Y-103342102D01*
X145333778Y-103326104D01*
X145199868Y-103148778D01*
X145199866Y-103148775D01*
X145035656Y-102999079D01*
X145035655Y-102999078D01*
X144969222Y-102957944D01*
X144922587Y-102905915D01*
X144910500Y-102852517D01*
X144910500Y-95375096D01*
X144930185Y-95308057D01*
X144946814Y-95287420D01*
X149717291Y-90516942D01*
X149778612Y-90483459D01*
X149848304Y-90488443D01*
X149868092Y-90497894D01*
X149874602Y-90501744D01*
X149885892Y-90505024D01*
X149944778Y-90542628D01*
X149973986Y-90606100D01*
X149964242Y-90675287D01*
X149938981Y-90711782D01*
X149322786Y-91327978D01*
X149210981Y-91439782D01*
X149210979Y-91439785D01*
X149160861Y-91526594D01*
X149160859Y-91526596D01*
X149131925Y-91576709D01*
X149131924Y-91576710D01*
X149131923Y-91576715D01*
X149090999Y-91729443D01*
X149090999Y-91729445D01*
X149090999Y-91897546D01*
X149091000Y-91897559D01*
X149091000Y-109104830D01*
X149090999Y-109104848D01*
X149090999Y-109270554D01*
X149090998Y-109270554D01*
X149131923Y-109423285D01*
X149160858Y-109473400D01*
X149160859Y-109473404D01*
X149160860Y-109473404D01*
X149210979Y-109560214D01*
X149210981Y-109560217D01*
X149329849Y-109679085D01*
X149329855Y-109679090D01*
X151289899Y-111639135D01*
X151323384Y-111700458D01*
X151321485Y-111760748D01*
X151316365Y-111778741D01*
X151295863Y-111999999D01*
X151295863Y-112000000D01*
X151316365Y-112221259D01*
X151316366Y-112221261D01*
X151377174Y-112434979D01*
X151377180Y-112434994D01*
X151476222Y-112633896D01*
X151610133Y-112811224D01*
X151774344Y-112960921D01*
X151774346Y-112960923D01*
X151963266Y-113077897D01*
X151963272Y-113077900D01*
X151992206Y-113089109D01*
X152170472Y-113158170D01*
X152388896Y-113199000D01*
X152388899Y-113199000D01*
X152611101Y-113199000D01*
X152611104Y-113199000D01*
X152829528Y-113158170D01*
X153036730Y-113077899D01*
X153225655Y-112960922D01*
X153389868Y-112811222D01*
X153511788Y-112649772D01*
X153567897Y-112608137D01*
X153610742Y-112600500D01*
X159009258Y-112600500D01*
X159076297Y-112620185D01*
X159108212Y-112649773D01*
X159230133Y-112811224D01*
X159394344Y-112960921D01*
X159394346Y-112960923D01*
X159583266Y-113077897D01*
X159583272Y-113077900D01*
X159612206Y-113089109D01*
X159790472Y-113158170D01*
X160008896Y-113199000D01*
X160008899Y-113199000D01*
X160231101Y-113199000D01*
X160231104Y-113199000D01*
X160449528Y-113158170D01*
X160656730Y-113077899D01*
X160845655Y-112960922D01*
X161009868Y-112811222D01*
X161143778Y-112633896D01*
X161242824Y-112434984D01*
X161303634Y-112221260D01*
X161324137Y-112000000D01*
X161303634Y-111778740D01*
X161242824Y-111565016D01*
X161143778Y-111366104D01*
X161009868Y-111188778D01*
X161009866Y-111188775D01*
X160845655Y-111039078D01*
X160845653Y-111039076D01*
X160656733Y-110922102D01*
X160656727Y-110922099D01*
X160549080Y-110880397D01*
X160449528Y-110841830D01*
X160231104Y-110801000D01*
X160008896Y-110801000D01*
X159790472Y-110841830D01*
X159740695Y-110861113D01*
X159583272Y-110922099D01*
X159583266Y-110922102D01*
X159394346Y-111039076D01*
X159394344Y-111039078D01*
X159230133Y-111188775D01*
X159108212Y-111350227D01*
X159052103Y-111391863D01*
X159009258Y-111399500D01*
X153610742Y-111399500D01*
X153543703Y-111379815D01*
X153511788Y-111350227D01*
X153389866Y-111188775D01*
X153225655Y-111039078D01*
X153225653Y-111039076D01*
X153036733Y-110922102D01*
X153036727Y-110922099D01*
X152929080Y-110880397D01*
X152829528Y-110841830D01*
X152611104Y-110801000D01*
X152388896Y-110801000D01*
X152388895Y-110801000D01*
X152252068Y-110826576D01*
X152182554Y-110819544D01*
X152141604Y-110792368D01*
X150849236Y-109500000D01*
X164796366Y-109500000D01*
X164816859Y-109721166D01*
X164816860Y-109721168D01*
X164877643Y-109934798D01*
X164877649Y-109934813D01*
X164976652Y-110133636D01*
X164992208Y-110154236D01*
X165593600Y-109552845D01*
X165593600Y-109553504D01*
X165621295Y-109656865D01*
X165674799Y-109749536D01*
X165750464Y-109825201D01*
X165843135Y-109878705D01*
X165946496Y-109906400D01*
X165947153Y-109906400D01*
X165347761Y-110505790D01*
X165347762Y-110505791D01*
X165463490Y-110577447D01*
X165463496Y-110577450D01*
X165670607Y-110657684D01*
X165888945Y-110698500D01*
X166111055Y-110698500D01*
X166329392Y-110657684D01*
X166536505Y-110577449D01*
X166536506Y-110577448D01*
X166652237Y-110505790D01*
X166052848Y-109906400D01*
X166053504Y-109906400D01*
X166156865Y-109878705D01*
X166249536Y-109825201D01*
X166325201Y-109749536D01*
X166378705Y-109656865D01*
X166406400Y-109553504D01*
X166406400Y-109552846D01*
X167007790Y-110154236D01*
X167023348Y-110133634D01*
X167023353Y-110133626D01*
X167122350Y-109934813D01*
X167122356Y-109934798D01*
X167183139Y-109721168D01*
X167183140Y-109721166D01*
X167203634Y-109500000D01*
X172416366Y-109500000D01*
X172436859Y-109721166D01*
X172436860Y-109721168D01*
X172497643Y-109934798D01*
X172497649Y-109934813D01*
X172596652Y-110133636D01*
X172612208Y-110154236D01*
X173213600Y-109552845D01*
X173213600Y-109553504D01*
X173241295Y-109656865D01*
X173294799Y-109749536D01*
X173370464Y-109825201D01*
X173463135Y-109878705D01*
X173566496Y-109906400D01*
X173567153Y-109906400D01*
X172967761Y-110505790D01*
X172967762Y-110505791D01*
X173083490Y-110577447D01*
X173083496Y-110577450D01*
X173290607Y-110657684D01*
X173508945Y-110698500D01*
X173731055Y-110698500D01*
X173949392Y-110657684D01*
X174156505Y-110577449D01*
X174156506Y-110577448D01*
X174272237Y-110505790D01*
X173672848Y-109906400D01*
X173673504Y-109906400D01*
X173776865Y-109878705D01*
X173869536Y-109825201D01*
X173945201Y-109749536D01*
X173998705Y-109656865D01*
X174026400Y-109553504D01*
X174026400Y-109552846D01*
X174627790Y-110154236D01*
X174643348Y-110133634D01*
X174643353Y-110133626D01*
X174742350Y-109934813D01*
X174742356Y-109934798D01*
X174803139Y-109721168D01*
X174803140Y-109721166D01*
X174823634Y-109500000D01*
X174823634Y-109499999D01*
X174803140Y-109278833D01*
X174803139Y-109278831D01*
X174742356Y-109065201D01*
X174742350Y-109065186D01*
X174643353Y-108866374D01*
X174643348Y-108866367D01*
X174627789Y-108845762D01*
X174026400Y-109447151D01*
X174026400Y-109446496D01*
X173998705Y-109343135D01*
X173945201Y-109250464D01*
X173869536Y-109174799D01*
X173776865Y-109121295D01*
X173673504Y-109093600D01*
X173672847Y-109093600D01*
X174272237Y-108494208D01*
X174272236Y-108494207D01*
X174156509Y-108422552D01*
X174156503Y-108422549D01*
X173949392Y-108342315D01*
X173731055Y-108301500D01*
X173508945Y-108301500D01*
X173290607Y-108342315D01*
X173083495Y-108422550D01*
X172967761Y-108494208D01*
X173567154Y-109093600D01*
X173566496Y-109093600D01*
X173463135Y-109121295D01*
X173370464Y-109174799D01*
X173294799Y-109250464D01*
X173241295Y-109343135D01*
X173213600Y-109446496D01*
X173213600Y-109447153D01*
X172612209Y-108845762D01*
X172596651Y-108866365D01*
X172497649Y-109065186D01*
X172497643Y-109065201D01*
X172436860Y-109278831D01*
X172436859Y-109278833D01*
X172416366Y-109499999D01*
X172416366Y-109500000D01*
X167203634Y-109500000D01*
X167203634Y-109499999D01*
X167183140Y-109278833D01*
X167183139Y-109278831D01*
X167122356Y-109065201D01*
X167122350Y-109065186D01*
X167023353Y-108866374D01*
X167023348Y-108866367D01*
X167007789Y-108845762D01*
X166406400Y-109447151D01*
X166406400Y-109446496D01*
X166378705Y-109343135D01*
X166325201Y-109250464D01*
X166249536Y-109174799D01*
X166156865Y-109121295D01*
X166053504Y-109093600D01*
X166052847Y-109093600D01*
X166652237Y-108494208D01*
X166652236Y-108494207D01*
X166536509Y-108422552D01*
X166536503Y-108422549D01*
X166329392Y-108342315D01*
X166111055Y-108301500D01*
X165888945Y-108301500D01*
X165670607Y-108342315D01*
X165463495Y-108422550D01*
X165347761Y-108494208D01*
X165947154Y-109093600D01*
X165946496Y-109093600D01*
X165843135Y-109121295D01*
X165750464Y-109174799D01*
X165674799Y-109250464D01*
X165621295Y-109343135D01*
X165593600Y-109446496D01*
X165593600Y-109447153D01*
X164992209Y-108845762D01*
X164976651Y-108866365D01*
X164877649Y-109065186D01*
X164877643Y-109065201D01*
X164816860Y-109278831D01*
X164816859Y-109278833D01*
X164796366Y-109499999D01*
X164796366Y-109500000D01*
X150849236Y-109500000D01*
X150328319Y-108979083D01*
X150294834Y-108917760D01*
X150292000Y-108891402D01*
X150292000Y-101834188D01*
X150311685Y-101767149D01*
X150364489Y-101721394D01*
X150433647Y-101711450D01*
X150438785Y-101712299D01*
X150578945Y-101738500D01*
X150801055Y-101738500D01*
X151019392Y-101697684D01*
X151226505Y-101617449D01*
X151226506Y-101617448D01*
X151342237Y-101545790D01*
X150742847Y-100946400D01*
X150743504Y-100946400D01*
X150846865Y-100918705D01*
X150939536Y-100865201D01*
X151015201Y-100789536D01*
X151068705Y-100696865D01*
X151096400Y-100593504D01*
X151096400Y-100592846D01*
X151697790Y-101194236D01*
X151713348Y-101173634D01*
X151713353Y-101173626D01*
X151812350Y-100974813D01*
X151812356Y-100974798D01*
X151873139Y-100761168D01*
X151873140Y-100761166D01*
X151893634Y-100540000D01*
X157106366Y-100540000D01*
X157126859Y-100761166D01*
X157126860Y-100761168D01*
X157187643Y-100974798D01*
X157187649Y-100974813D01*
X157286652Y-101173636D01*
X157302208Y-101194236D01*
X157903600Y-100592845D01*
X157903600Y-100593504D01*
X157931295Y-100696865D01*
X157984799Y-100789536D01*
X158060464Y-100865201D01*
X158153135Y-100918705D01*
X158256496Y-100946400D01*
X158257153Y-100946400D01*
X157657761Y-101545790D01*
X157657762Y-101545791D01*
X157773490Y-101617447D01*
X157773496Y-101617450D01*
X157980607Y-101697684D01*
X158198945Y-101738500D01*
X158421055Y-101738500D01*
X158639392Y-101697684D01*
X158846505Y-101617449D01*
X158846506Y-101617448D01*
X158962237Y-101545790D01*
X158362848Y-100946400D01*
X158363504Y-100946400D01*
X158466865Y-100918705D01*
X158559536Y-100865201D01*
X158635201Y-100789536D01*
X158688705Y-100696865D01*
X158716400Y-100593504D01*
X158716400Y-100592846D01*
X159317790Y-101194236D01*
X159333348Y-101173634D01*
X159333353Y-101173626D01*
X159432350Y-100974813D01*
X159432356Y-100974798D01*
X159493139Y-100761168D01*
X159493140Y-100761166D01*
X159513634Y-100540000D01*
X159513634Y-100539999D01*
X159493140Y-100318833D01*
X159493139Y-100318831D01*
X159432356Y-100105201D01*
X159432350Y-100105186D01*
X159333353Y-99906374D01*
X159333348Y-99906367D01*
X159317789Y-99885762D01*
X158716400Y-100487151D01*
X158716400Y-100486496D01*
X158688705Y-100383135D01*
X158635201Y-100290464D01*
X158559536Y-100214799D01*
X158466865Y-100161295D01*
X158363504Y-100133600D01*
X158362847Y-100133600D01*
X158962237Y-99534208D01*
X158962236Y-99534207D01*
X158846509Y-99462552D01*
X158846503Y-99462549D01*
X158639392Y-99382315D01*
X158421055Y-99341500D01*
X158198945Y-99341500D01*
X157980607Y-99382315D01*
X157773495Y-99462550D01*
X157657761Y-99534208D01*
X158257154Y-100133600D01*
X158256496Y-100133600D01*
X158153135Y-100161295D01*
X158060464Y-100214799D01*
X157984799Y-100290464D01*
X157931295Y-100383135D01*
X157903600Y-100486496D01*
X157903600Y-100487153D01*
X157302209Y-99885762D01*
X157286651Y-99906365D01*
X157187649Y-100105186D01*
X157187643Y-100105201D01*
X157126860Y-100318831D01*
X157126859Y-100318833D01*
X157106366Y-100539999D01*
X157106366Y-100540000D01*
X151893634Y-100540000D01*
X151893634Y-100539999D01*
X151873140Y-100318833D01*
X151873139Y-100318831D01*
X151812356Y-100105201D01*
X151812350Y-100105186D01*
X151713353Y-99906374D01*
X151713348Y-99906367D01*
X151697789Y-99885762D01*
X151096400Y-100487151D01*
X151096400Y-100486496D01*
X151068705Y-100383135D01*
X151015201Y-100290464D01*
X150939536Y-100214799D01*
X150846865Y-100161295D01*
X150743504Y-100133600D01*
X150742847Y-100133600D01*
X151342237Y-99534208D01*
X151342236Y-99534207D01*
X151226509Y-99462552D01*
X151226503Y-99462549D01*
X151019392Y-99382315D01*
X150801055Y-99341500D01*
X150578945Y-99341500D01*
X150438785Y-99367700D01*
X150369270Y-99360669D01*
X150314591Y-99317171D01*
X150292109Y-99251017D01*
X150292000Y-99245811D01*
X150292000Y-96754697D01*
X150311685Y-96687658D01*
X150364489Y-96641903D01*
X150433647Y-96631959D01*
X150438736Y-96632800D01*
X150578896Y-96659000D01*
X150578899Y-96659000D01*
X150801101Y-96659000D01*
X150801104Y-96659000D01*
X151019528Y-96618170D01*
X151226730Y-96537899D01*
X151415655Y-96420922D01*
X151579868Y-96271222D01*
X151701788Y-96109772D01*
X151757897Y-96068137D01*
X151800742Y-96060500D01*
X157199258Y-96060500D01*
X157266297Y-96080185D01*
X157298212Y-96109773D01*
X157420133Y-96271224D01*
X157584344Y-96420921D01*
X157584346Y-96420923D01*
X157773266Y-96537897D01*
X157773272Y-96537900D01*
X157802206Y-96549109D01*
X157980472Y-96618170D01*
X158198896Y-96659000D01*
X158198899Y-96659000D01*
X158421101Y-96659000D01*
X158421104Y-96659000D01*
X158639528Y-96618170D01*
X158846730Y-96537899D01*
X159035655Y-96420922D01*
X159199868Y-96271222D01*
X159322329Y-96109056D01*
X159378435Y-96067422D01*
X159448147Y-96062730D01*
X159508962Y-96096104D01*
X165363181Y-101950323D01*
X165396666Y-102011646D01*
X165399500Y-102038004D01*
X165399500Y-103312517D01*
X165379815Y-103379556D01*
X165340778Y-103417944D01*
X165274343Y-103459079D01*
X165110133Y-103608775D01*
X164976222Y-103786103D01*
X164877180Y-103985005D01*
X164877174Y-103985020D01*
X164816366Y-104198738D01*
X164816365Y-104198740D01*
X164795863Y-104419999D01*
X164795863Y-104420000D01*
X164816365Y-104641259D01*
X164816366Y-104641261D01*
X164877174Y-104854979D01*
X164877180Y-104854994D01*
X164976222Y-105053896D01*
X165110133Y-105231224D01*
X165274344Y-105380921D01*
X165274346Y-105380923D01*
X165463266Y-105497897D01*
X165463272Y-105497900D01*
X165492206Y-105509109D01*
X165670472Y-105578170D01*
X165888896Y-105619000D01*
X165888899Y-105619000D01*
X166111101Y-105619000D01*
X166111104Y-105619000D01*
X166329528Y-105578170D01*
X166536730Y-105497899D01*
X166725655Y-105380922D01*
X166889868Y-105231222D01*
X167011788Y-105069772D01*
X167067897Y-105028137D01*
X167110742Y-105020500D01*
X172509258Y-105020500D01*
X172576297Y-105040185D01*
X172608212Y-105069773D01*
X172730133Y-105231224D01*
X172894344Y-105380921D01*
X172894346Y-105380923D01*
X173083266Y-105497897D01*
X173083272Y-105497900D01*
X173112206Y-105509109D01*
X173290472Y-105578170D01*
X173508896Y-105619000D01*
X173508899Y-105619000D01*
X173731101Y-105619000D01*
X173731104Y-105619000D01*
X173949528Y-105578170D01*
X174156730Y-105497899D01*
X174345655Y-105380922D01*
X174509868Y-105231222D01*
X174643778Y-105053896D01*
X174742824Y-104854984D01*
X174803634Y-104641260D01*
X174824137Y-104420000D01*
X174821818Y-104394979D01*
X174803634Y-104198740D01*
X174803633Y-104198738D01*
X174798660Y-104181261D01*
X174742824Y-103985016D01*
X174643778Y-103786104D01*
X174509868Y-103608778D01*
X174509866Y-103608775D01*
X174345655Y-103459078D01*
X174345653Y-103459076D01*
X174156733Y-103342102D01*
X174156727Y-103342099D01*
X174049080Y-103300397D01*
X173949528Y-103261830D01*
X173731104Y-103221000D01*
X173508896Y-103221000D01*
X173290472Y-103261830D01*
X173240695Y-103281113D01*
X173083272Y-103342099D01*
X173083266Y-103342102D01*
X172894346Y-103459076D01*
X172894344Y-103459078D01*
X172730133Y-103608775D01*
X172608212Y-103770227D01*
X172552103Y-103811863D01*
X172509258Y-103819500D01*
X167110742Y-103819500D01*
X167043703Y-103799815D01*
X167011788Y-103770227D01*
X166889866Y-103608775D01*
X166725656Y-103459079D01*
X166725655Y-103459078D01*
X166659222Y-103417944D01*
X166612587Y-103365915D01*
X166600500Y-103312517D01*
X166600500Y-101658852D01*
X166600500Y-101658850D01*
X166559577Y-101506123D01*
X166559573Y-101506116D01*
X166480524Y-101369197D01*
X166480521Y-101369193D01*
X166480520Y-101369191D01*
X166368716Y-101257387D01*
X166368715Y-101257386D01*
X166364385Y-101253056D01*
X166364374Y-101253046D01*
X155786069Y-90674741D01*
X155752584Y-90613418D01*
X155757568Y-90543726D01*
X155799440Y-90487793D01*
X155810629Y-90480328D01*
X155916550Y-90417686D01*
X155922717Y-90412903D01*
X155924630Y-90415369D01*
X155973222Y-90388802D01*
X156042917Y-90393749D01*
X156075762Y-90414853D01*
X156076969Y-90413298D01*
X156083138Y-90418083D01*
X156224593Y-90501739D01*
X156224595Y-90501739D01*
X156224602Y-90501744D01*
X156224609Y-90501746D01*
X156225632Y-90502189D01*
X156227503Y-90503460D01*
X156231317Y-90505716D01*
X156231175Y-90505955D01*
X156264081Y-90528316D01*
X156266284Y-90530519D01*
X156266285Y-90530520D01*
X156716285Y-90980520D01*
X156716287Y-90980521D01*
X156716291Y-90980524D01*
X156853210Y-91059573D01*
X156853217Y-91059577D01*
X157005944Y-91100501D01*
X157005946Y-91100501D01*
X157171655Y-91100501D01*
X157171671Y-91100500D01*
X157699903Y-91100500D01*
X157766942Y-91120185D01*
X157787583Y-91136818D01*
X158631284Y-91980520D01*
X158631286Y-91980521D01*
X158631290Y-91980524D01*
X158737004Y-92041557D01*
X158768216Y-92059577D01*
X158920943Y-92100501D01*
X158920945Y-92100501D01*
X159086654Y-92100501D01*
X159086670Y-92100500D01*
X161699903Y-92100500D01*
X161766942Y-92120185D01*
X161787584Y-92136819D01*
X168595139Y-98944374D01*
X168595149Y-98944385D01*
X168599479Y-98948715D01*
X168599480Y-98948716D01*
X168711284Y-99060520D01*
X168798095Y-99110639D01*
X168798097Y-99110641D01*
X168836151Y-99132611D01*
X168848215Y-99139577D01*
X169000943Y-99180501D01*
X169000946Y-99180501D01*
X169166653Y-99180501D01*
X169166669Y-99180500D01*
X171268308Y-99180500D01*
X171335347Y-99200185D01*
X171369880Y-99233374D01*
X171378589Y-99245811D01*
X171499954Y-99419141D01*
X171660858Y-99580045D01*
X171660861Y-99580047D01*
X171847266Y-99710568D01*
X172053504Y-99806739D01*
X172273308Y-99865635D01*
X172435230Y-99879801D01*
X172499998Y-99885468D01*
X172500000Y-99885468D01*
X172500002Y-99885468D01*
X172556673Y-99880509D01*
X172726692Y-99865635D01*
X172946496Y-99806739D01*
X173152734Y-99710568D01*
X173339139Y-99580047D01*
X173500047Y-99419139D01*
X173630568Y-99232734D01*
X173726739Y-99026496D01*
X173785635Y-98806692D01*
X173805468Y-98580000D01*
X173785635Y-98353308D01*
X173726739Y-98133504D01*
X173630568Y-97927266D01*
X173500047Y-97740861D01*
X173500045Y-97740858D01*
X173339141Y-97579954D01*
X173152734Y-97449432D01*
X173152732Y-97449431D01*
X172946497Y-97353261D01*
X172946488Y-97353258D01*
X172726697Y-97294366D01*
X172726693Y-97294365D01*
X172726692Y-97294365D01*
X172726691Y-97294364D01*
X172726686Y-97294364D01*
X172500002Y-97274532D01*
X172499998Y-97274532D01*
X172273313Y-97294364D01*
X172273302Y-97294366D01*
X172053511Y-97353258D01*
X172053502Y-97353261D01*
X171847267Y-97449431D01*
X171847265Y-97449432D01*
X171660858Y-97579954D01*
X171499954Y-97740858D01*
X171423450Y-97850118D01*
X171369881Y-97926624D01*
X171315307Y-97970248D01*
X171268308Y-97979500D01*
X169380097Y-97979500D01*
X169313058Y-97959815D01*
X169292416Y-97943181D01*
X162911416Y-91562181D01*
X162877931Y-91500858D01*
X162882915Y-91431166D01*
X162924787Y-91375233D01*
X162990251Y-91350816D01*
X162999097Y-91350500D01*
X170083331Y-91350500D01*
X170083347Y-91350501D01*
X170090943Y-91350501D01*
X170249054Y-91350501D01*
X170249057Y-91350501D01*
X170401785Y-91309577D01*
X170473424Y-91268216D01*
X170538716Y-91230520D01*
X170650520Y-91118716D01*
X170650520Y-91118714D01*
X170660724Y-91108511D01*
X170660728Y-91108506D01*
X172057294Y-89711939D01*
X172118615Y-89678456D01*
X172177066Y-89679847D01*
X172196604Y-89685082D01*
X172273308Y-89705635D01*
X172435230Y-89719801D01*
X172499998Y-89725468D01*
X172500000Y-89725468D01*
X172500002Y-89725468D01*
X172556673Y-89720509D01*
X172726692Y-89705635D01*
X172946496Y-89646739D01*
X173152734Y-89550568D01*
X173339139Y-89420047D01*
X173500047Y-89259139D01*
X173630568Y-89072734D01*
X173726739Y-88866496D01*
X173785635Y-88646692D01*
X173805468Y-88420000D01*
X173785635Y-88193308D01*
X173726739Y-87973504D01*
X173630568Y-87767266D01*
X173500047Y-87580861D01*
X173500045Y-87580858D01*
X173339141Y-87419954D01*
X173152734Y-87289432D01*
X173152732Y-87289431D01*
X172946497Y-87193261D01*
X172946488Y-87193258D01*
X172726697Y-87134366D01*
X172726693Y-87134365D01*
X172726692Y-87134365D01*
X172726691Y-87134364D01*
X172726686Y-87134364D01*
X172500002Y-87114532D01*
X172499998Y-87114532D01*
X172273313Y-87134364D01*
X172273302Y-87134366D01*
X172053511Y-87193258D01*
X172053502Y-87193261D01*
X171847267Y-87289431D01*
X171847265Y-87289432D01*
X171660858Y-87419954D01*
X171499954Y-87580858D01*
X171369432Y-87767265D01*
X171369431Y-87767267D01*
X171273261Y-87973502D01*
X171273258Y-87973511D01*
X171214366Y-88193302D01*
X171214364Y-88193313D01*
X171194532Y-88419998D01*
X171194532Y-88420001D01*
X171214364Y-88646686D01*
X171214366Y-88646697D01*
X171240152Y-88742931D01*
X171238489Y-88812781D01*
X171208058Y-88862705D01*
X169957584Y-90113181D01*
X169896261Y-90146666D01*
X169869903Y-90149500D01*
X167499097Y-90149500D01*
X167432058Y-90129815D01*
X167386303Y-90077011D01*
X167376359Y-90007853D01*
X167405384Y-89944297D01*
X167411416Y-89937819D01*
X169375733Y-87973502D01*
X175518713Y-81830521D01*
X175518716Y-81830520D01*
X175630520Y-81718716D01*
X175680639Y-81631904D01*
X175709577Y-81581785D01*
X175750500Y-81429057D01*
X175750500Y-81270943D01*
X175750500Y-79199060D01*
X175750501Y-79199047D01*
X175750501Y-79030944D01*
X175741541Y-78997504D01*
X175709577Y-78878216D01*
X175687401Y-78839806D01*
X175630524Y-78741290D01*
X175630518Y-78741282D01*
X175332766Y-78443530D01*
X175299281Y-78382207D01*
X175300672Y-78323755D01*
X175335063Y-78195408D01*
X175355659Y-77960000D01*
X175335063Y-77724592D01*
X175273903Y-77496337D01*
X175174035Y-77282171D01*
X175038495Y-77088599D01*
X174916179Y-76966283D01*
X174882696Y-76904963D01*
X174887680Y-76835271D01*
X174929551Y-76779337D01*
X174960529Y-76762422D01*
X175092086Y-76713354D01*
X175092093Y-76713350D01*
X175207187Y-76627190D01*
X175207190Y-76627187D01*
X175293350Y-76512093D01*
X175293354Y-76512086D01*
X175343596Y-76377379D01*
X175343598Y-76377372D01*
X175349999Y-76317844D01*
X175350000Y-76317827D01*
X175350000Y-75670000D01*
X174433012Y-75670000D01*
X174465925Y-75612993D01*
X174500000Y-75485826D01*
X174500000Y-75354174D01*
X174465925Y-75227007D01*
X174433012Y-75170000D01*
X175350000Y-75170000D01*
X175350000Y-74522172D01*
X175349999Y-74522155D01*
X175343598Y-74462627D01*
X175343596Y-74462620D01*
X175293354Y-74327913D01*
X175293350Y-74327906D01*
X175207190Y-74212812D01*
X175207187Y-74212809D01*
X175092093Y-74126649D01*
X175092086Y-74126645D01*
X174957379Y-74076403D01*
X174957372Y-74076401D01*
X174897844Y-74070000D01*
X174250000Y-74070000D01*
X174250000Y-74986988D01*
X174192993Y-74954075D01*
X174065826Y-74920000D01*
X173934174Y-74920000D01*
X173807007Y-74954075D01*
X173750000Y-74986988D01*
X173750000Y-74070000D01*
X173102155Y-74070000D01*
X173042627Y-74076401D01*
X173042620Y-74076403D01*
X172907913Y-74126645D01*
X172907906Y-74126649D01*
X172792812Y-74212809D01*
X172792809Y-74212812D01*
X172706649Y-74327906D01*
X172706645Y-74327913D01*
X172656403Y-74462620D01*
X172656401Y-74462627D01*
X172650000Y-74522155D01*
X172650000Y-75170000D01*
X173566988Y-75170000D01*
X173534075Y-75227007D01*
X173500000Y-75354174D01*
X173500000Y-75485826D01*
X173534075Y-75612993D01*
X173566988Y-75670000D01*
X172650000Y-75670000D01*
X172650000Y-76317844D01*
X172656401Y-76377372D01*
X172656403Y-76377379D01*
X172706645Y-76512086D01*
X172706649Y-76512093D01*
X172792809Y-76627187D01*
X172792812Y-76627190D01*
X172907906Y-76713350D01*
X172907913Y-76713354D01*
X173039470Y-76762421D01*
X173095403Y-76804292D01*
X173119821Y-76869756D01*
X173104970Y-76938029D01*
X173083819Y-76966284D01*
X172961503Y-77088600D01*
X172825965Y-77282169D01*
X172825964Y-77282171D01*
X172726098Y-77496335D01*
X172726094Y-77496344D01*
X172664938Y-77724586D01*
X172664936Y-77724596D01*
X172644341Y-77959999D01*
X172644341Y-77960000D01*
X172664936Y-78195403D01*
X172664938Y-78195413D01*
X172726094Y-78423655D01*
X172726096Y-78423659D01*
X172726097Y-78423663D01*
X172800081Y-78582321D01*
X172825965Y-78637830D01*
X172825967Y-78637834D01*
X172961501Y-78831395D01*
X172961506Y-78831402D01*
X173128597Y-78998493D01*
X173128603Y-78998498D01*
X173314158Y-79128425D01*
X173357783Y-79183002D01*
X173364977Y-79252500D01*
X173333454Y-79314855D01*
X173314158Y-79331575D01*
X173128597Y-79461505D01*
X172961506Y-79628596D01*
X172825965Y-79822170D01*
X172825962Y-79822175D01*
X172823289Y-79827909D01*
X172777115Y-79880346D01*
X172710909Y-79899500D01*
X168174058Y-79899500D01*
X168015944Y-79899500D01*
X167863216Y-79940423D01*
X167863215Y-79940423D01*
X167863213Y-79940424D01*
X167863210Y-79940425D01*
X167813097Y-79969359D01*
X167813096Y-79969360D01*
X167769690Y-79994420D01*
X167726286Y-80019479D01*
X167726283Y-80019481D01*
X167614479Y-80131286D01*
X160532680Y-87213084D01*
X160471357Y-87246569D01*
X160401665Y-87241585D01*
X160357320Y-87213085D01*
X159282588Y-86138354D01*
X159282587Y-86138352D01*
X159163716Y-86019481D01*
X159163715Y-86019480D01*
X159076903Y-85969360D01*
X159076903Y-85969359D01*
X159076899Y-85969358D01*
X159026784Y-85940423D01*
X158874056Y-85899499D01*
X158715942Y-85899499D01*
X158708346Y-85899499D01*
X158708330Y-85899500D01*
X141842115Y-85899500D01*
X141775076Y-85879815D01*
X141729321Y-85827011D01*
X141725933Y-85818833D01*
X141693797Y-85732670D01*
X141693795Y-85732668D01*
X141692618Y-85731095D01*
X141691931Y-85729255D01*
X141689547Y-85724888D01*
X141690175Y-85724544D01*
X141668203Y-85665630D01*
X141677326Y-85609333D01*
X141710610Y-85528978D01*
X141710611Y-85528974D01*
X141720353Y-85480000D01*
X141355671Y-85480000D01*
X141342415Y-85479289D01*
X141297873Y-85474500D01*
X141297872Y-85474500D01*
X140785830Y-85474500D01*
X140800075Y-85460255D01*
X140849444Y-85374745D01*
X140875000Y-85279370D01*
X140875000Y-85180630D01*
X140849444Y-85085255D01*
X140800075Y-84999745D01*
X140785830Y-84985500D01*
X140826004Y-84985500D01*
X140826004Y-84985499D01*
X140839473Y-84982820D01*
X140841674Y-84982383D01*
X140865866Y-84980000D01*
X141720353Y-84980000D01*
X141710612Y-84931025D01*
X141710609Y-84931016D01*
X141633343Y-84744478D01*
X141632525Y-84742946D01*
X141632338Y-84742052D01*
X141631013Y-84738851D01*
X141631620Y-84738599D01*
X141618287Y-84674542D01*
X141643292Y-84609300D01*
X141699600Y-84567933D01*
X141741887Y-84560500D01*
X161453331Y-84560500D01*
X161453347Y-84560501D01*
X161460943Y-84560501D01*
X161619054Y-84560501D01*
X161619057Y-84560501D01*
X161771785Y-84519577D01*
X161821904Y-84490639D01*
X161908716Y-84440520D01*
X162020520Y-84328716D01*
X162020520Y-84328714D01*
X162030728Y-84318507D01*
X162030730Y-84318504D01*
X165358506Y-80990728D01*
X165358511Y-80990724D01*
X165368714Y-80980520D01*
X165368716Y-80980520D01*
X165480520Y-80868716D01*
X165511306Y-80815392D01*
X165557482Y-80735414D01*
X165557485Y-80735409D01*
X165559575Y-80731788D01*
X165559577Y-80731785D01*
X165600501Y-80579057D01*
X165600501Y-80420943D01*
X165600501Y-80413348D01*
X165600500Y-80413330D01*
X165600500Y-69199499D01*
X165620185Y-69132460D01*
X165672989Y-69086705D01*
X165724500Y-69075499D01*
X165897871Y-69075499D01*
X165897872Y-69075499D01*
X165957483Y-69069091D01*
X166092331Y-69018796D01*
X166207546Y-68932546D01*
X166293796Y-68817331D01*
X166344091Y-68682483D01*
X166350500Y-68622873D01*
X166350499Y-66827128D01*
X166344091Y-66767517D01*
X166293796Y-66632669D01*
X166293795Y-66632668D01*
X166293793Y-66632664D01*
X166207547Y-66517455D01*
X166207544Y-66517452D01*
X166092335Y-66431206D01*
X166092328Y-66431202D01*
X165960401Y-66381997D01*
X165904467Y-66340126D01*
X165880050Y-66274662D01*
X165894902Y-66206389D01*
X165916053Y-66178133D01*
X166038108Y-66056078D01*
X166173600Y-65862578D01*
X166273429Y-65648492D01*
X166273432Y-65648486D01*
X166330636Y-65435000D01*
X165433012Y-65435000D01*
X165465925Y-65377993D01*
X165500000Y-65250826D01*
X165500000Y-65119174D01*
X165465925Y-64992007D01*
X165433012Y-64935000D01*
X166330636Y-64935000D01*
X166330635Y-64934999D01*
X166273432Y-64721513D01*
X166273429Y-64721507D01*
X166173600Y-64507422D01*
X166173599Y-64507420D01*
X166038113Y-64313926D01*
X166038108Y-64313920D01*
X165871082Y-64146894D01*
X165677578Y-64011399D01*
X165463492Y-63911570D01*
X165463486Y-63911567D01*
X165250000Y-63854364D01*
X165250000Y-64751988D01*
X165192993Y-64719075D01*
X165065826Y-64685000D01*
X164934174Y-64685000D01*
X164807007Y-64719075D01*
X164750000Y-64751988D01*
X164750000Y-63854364D01*
X164749999Y-63854364D01*
X164536513Y-63911567D01*
X164536507Y-63911570D01*
X164322422Y-64011399D01*
X164322420Y-64011400D01*
X164128926Y-64146886D01*
X164128920Y-64146891D01*
X163961891Y-64313920D01*
X163961886Y-64313926D01*
X163826400Y-64507420D01*
X163826399Y-64507422D01*
X163726570Y-64721507D01*
X163726567Y-64721513D01*
X163669364Y-64934999D01*
X163669364Y-64935000D01*
X164566988Y-64935000D01*
X164534075Y-64992007D01*
X164500000Y-65119174D01*
X164500000Y-65250826D01*
X164534075Y-65377993D01*
X164566988Y-65435000D01*
X163669364Y-65435000D01*
X163726567Y-65648486D01*
X163726570Y-65648492D01*
X163826399Y-65862578D01*
X163961894Y-66056082D01*
X164083946Y-66178134D01*
X164117431Y-66239457D01*
X164112447Y-66309149D01*
X164070575Y-66365082D01*
X164039598Y-66381997D01*
X163907671Y-66431202D01*
X163907664Y-66431206D01*
X163792455Y-66517452D01*
X163792452Y-66517455D01*
X163706206Y-66632664D01*
X163706202Y-66632671D01*
X163655908Y-66767517D01*
X163649501Y-66827116D01*
X163649501Y-66827123D01*
X163649500Y-66827135D01*
X163649500Y-68622870D01*
X163649501Y-68622876D01*
X163655908Y-68682483D01*
X163706202Y-68817328D01*
X163706206Y-68817335D01*
X163792452Y-68932544D01*
X163792455Y-68932547D01*
X163907664Y-69018793D01*
X163907671Y-69018797D01*
X163952618Y-69035561D01*
X164042517Y-69069091D01*
X164102127Y-69075500D01*
X164275500Y-69075499D01*
X164342539Y-69095183D01*
X164388294Y-69147987D01*
X164399500Y-69199499D01*
X164399500Y-80199903D01*
X164379815Y-80266942D01*
X164363181Y-80287584D01*
X161327584Y-83323181D01*
X161266261Y-83356666D01*
X161239903Y-83359500D01*
X141623397Y-83359500D01*
X141556358Y-83339815D01*
X141526288Y-83310279D01*
X141525422Y-83310990D01*
X141521555Y-83306278D01*
X141378718Y-83163441D01*
X141210762Y-83051217D01*
X141210752Y-83051212D01*
X141024127Y-82973909D01*
X141024119Y-82973907D01*
X140826007Y-82934500D01*
X140826003Y-82934500D01*
X140173997Y-82934500D01*
X140173992Y-82934500D01*
X139975880Y-82973907D01*
X139975872Y-82973909D01*
X139789247Y-83051212D01*
X139789237Y-83051217D01*
X139621281Y-83163441D01*
X139478441Y-83306281D01*
X139366217Y-83474237D01*
X139366212Y-83474247D01*
X139288909Y-83660872D01*
X139288907Y-83660880D01*
X139249500Y-83858992D01*
X139249500Y-84061007D01*
X139288907Y-84259119D01*
X139288909Y-84259127D01*
X139366212Y-84445754D01*
X139420204Y-84526558D01*
X139441081Y-84593235D01*
X139422596Y-84660615D01*
X139420204Y-84664337D01*
X139366655Y-84744479D01*
X139366654Y-84744481D01*
X139289390Y-84931016D01*
X139289387Y-84931025D01*
X139279647Y-84980000D01*
X140134134Y-84980000D01*
X140158326Y-84982383D01*
X140161123Y-84982939D01*
X140173995Y-84985499D01*
X140173996Y-84985500D01*
X140173997Y-84985500D01*
X140214170Y-84985500D01*
X140199925Y-84999745D01*
X140150556Y-85085255D01*
X140125000Y-85180630D01*
X140125000Y-85279370D01*
X140150556Y-85374745D01*
X140199925Y-85460255D01*
X140214170Y-85474500D01*
X139702129Y-85474500D01*
X139702125Y-85474501D01*
X139669577Y-85478000D01*
X139657576Y-85479290D01*
X139644325Y-85480000D01*
X139279647Y-85480000D01*
X139289387Y-85528974D01*
X139289390Y-85528983D01*
X139322673Y-85609335D01*
X139330142Y-85678804D01*
X139310156Y-85724723D01*
X139310454Y-85724886D01*
X139308636Y-85728213D01*
X139307385Y-85731090D01*
X139306206Y-85732664D01*
X139306203Y-85732669D01*
X139274066Y-85818834D01*
X139232194Y-85874767D01*
X139166730Y-85899184D01*
X139157884Y-85899500D01*
X135644500Y-85899500D01*
X135577461Y-85879815D01*
X135531706Y-85827011D01*
X135520500Y-85775500D01*
X135520500Y-80150000D01*
X149485000Y-80150000D01*
X149485000Y-80765649D01*
X149487899Y-80802489D01*
X149487900Y-80802495D01*
X149533716Y-80960193D01*
X149533717Y-80960196D01*
X149617314Y-81101552D01*
X149617321Y-81101561D01*
X149733438Y-81217678D01*
X149733447Y-81217685D01*
X149874801Y-81301281D01*
X150032514Y-81347100D01*
X150032511Y-81347100D01*
X150034998Y-81347295D01*
X150035000Y-81347295D01*
X150035000Y-80150000D01*
X150535000Y-80150000D01*
X150535000Y-81347295D01*
X150535001Y-81347295D01*
X150537486Y-81347100D01*
X150695198Y-81301281D01*
X150836552Y-81217685D01*
X150842722Y-81212900D01*
X150844546Y-81215252D01*
X150893595Y-81188445D01*
X150963288Y-81193402D01*
X150996063Y-81214465D01*
X150997278Y-81212900D01*
X151003447Y-81217685D01*
X151144801Y-81301281D01*
X151302514Y-81347100D01*
X151302511Y-81347100D01*
X151304998Y-81347295D01*
X151305000Y-81347295D01*
X151305000Y-80150000D01*
X151805000Y-80150000D01*
X151805000Y-81347295D01*
X151805001Y-81347295D01*
X151807486Y-81347100D01*
X151965198Y-81301281D01*
X152106552Y-81217685D01*
X152112722Y-81212900D01*
X152114546Y-81215252D01*
X152163595Y-81188445D01*
X152233288Y-81193402D01*
X152266063Y-81214465D01*
X152267278Y-81212900D01*
X152273447Y-81217685D01*
X152414801Y-81301281D01*
X152572514Y-81347100D01*
X152572511Y-81347100D01*
X152574998Y-81347295D01*
X152575000Y-81347295D01*
X152575000Y-80150000D01*
X153075000Y-80150000D01*
X153075000Y-81347295D01*
X153075001Y-81347295D01*
X153077486Y-81347100D01*
X153235198Y-81301281D01*
X153376552Y-81217685D01*
X153382722Y-81212900D01*
X153384546Y-81215252D01*
X153433595Y-81188445D01*
X153503288Y-81193402D01*
X153536063Y-81214465D01*
X153537278Y-81212900D01*
X153543447Y-81217685D01*
X153684801Y-81301281D01*
X153842514Y-81347100D01*
X153842511Y-81347100D01*
X153844998Y-81347295D01*
X153845000Y-81347295D01*
X153845000Y-80150000D01*
X154345000Y-80150000D01*
X154345000Y-81347295D01*
X154345001Y-81347295D01*
X154347486Y-81347100D01*
X154505198Y-81301281D01*
X154646552Y-81217685D01*
X154652722Y-81212900D01*
X154654546Y-81215252D01*
X154703595Y-81188445D01*
X154773288Y-81193402D01*
X154806063Y-81214465D01*
X154807278Y-81212900D01*
X154813447Y-81217685D01*
X154954801Y-81301281D01*
X155112514Y-81347100D01*
X155112511Y-81347100D01*
X155114998Y-81347295D01*
X155115000Y-81347295D01*
X155115000Y-80150000D01*
X155615000Y-80150000D01*
X155615000Y-81347295D01*
X155615001Y-81347295D01*
X155617486Y-81347100D01*
X155775198Y-81301281D01*
X155916552Y-81217685D01*
X155922722Y-81212900D01*
X155924546Y-81215252D01*
X155973595Y-81188445D01*
X156043288Y-81193402D01*
X156076063Y-81214465D01*
X156077278Y-81212900D01*
X156083447Y-81217685D01*
X156224801Y-81301281D01*
X156382514Y-81347100D01*
X156382511Y-81347100D01*
X156384998Y-81347295D01*
X156385000Y-81347295D01*
X156385000Y-80150000D01*
X156885000Y-80150000D01*
X156885000Y-81347295D01*
X156885001Y-81347295D01*
X156887486Y-81347100D01*
X157045198Y-81301281D01*
X157186552Y-81217685D01*
X157192722Y-81212900D01*
X157194546Y-81215252D01*
X157243595Y-81188445D01*
X157313288Y-81193402D01*
X157346063Y-81214465D01*
X157347278Y-81212900D01*
X157353447Y-81217685D01*
X157494801Y-81301281D01*
X157652514Y-81347100D01*
X157652511Y-81347100D01*
X157654998Y-81347295D01*
X157655000Y-81347295D01*
X157655000Y-80150000D01*
X158155000Y-80150000D01*
X158155000Y-81347295D01*
X158155001Y-81347295D01*
X158157486Y-81347100D01*
X158315198Y-81301281D01*
X158456552Y-81217685D01*
X158462722Y-81212900D01*
X158464546Y-81215252D01*
X158513595Y-81188445D01*
X158583288Y-81193402D01*
X158616063Y-81214465D01*
X158617278Y-81212900D01*
X158623447Y-81217685D01*
X158764801Y-81301281D01*
X158922514Y-81347100D01*
X158922511Y-81347100D01*
X158924998Y-81347295D01*
X158925000Y-81347295D01*
X158925000Y-80150000D01*
X159425000Y-80150000D01*
X159425000Y-81347295D01*
X159425001Y-81347295D01*
X159427486Y-81347100D01*
X159585198Y-81301281D01*
X159726552Y-81217685D01*
X159732722Y-81212900D01*
X159734546Y-81215252D01*
X159783595Y-81188445D01*
X159853288Y-81193402D01*
X159886063Y-81214465D01*
X159887278Y-81212900D01*
X159893447Y-81217685D01*
X160034801Y-81301281D01*
X160192514Y-81347100D01*
X160192511Y-81347100D01*
X160194998Y-81347295D01*
X160195000Y-81347295D01*
X160695000Y-81347295D01*
X160695001Y-81347295D01*
X160697486Y-81347100D01*
X160855198Y-81301281D01*
X160996550Y-81217686D01*
X161002717Y-81212903D01*
X161004630Y-81215369D01*
X161053222Y-81188802D01*
X161122917Y-81193749D01*
X161155762Y-81214853D01*
X161156969Y-81213298D01*
X161163132Y-81218078D01*
X161163135Y-81218081D01*
X161304602Y-81301744D01*
X161346224Y-81313836D01*
X161462426Y-81347597D01*
X161462429Y-81347597D01*
X161462431Y-81347598D01*
X161499306Y-81350500D01*
X161499314Y-81350500D01*
X161930686Y-81350500D01*
X161930694Y-81350500D01*
X161967569Y-81347598D01*
X161967571Y-81347597D01*
X161967573Y-81347597D01*
X162009191Y-81335505D01*
X162125398Y-81301744D01*
X162266865Y-81218081D01*
X162383081Y-81101865D01*
X162466744Y-80960398D01*
X162512598Y-80802569D01*
X162515500Y-80765694D01*
X162515500Y-79034306D01*
X162512598Y-78997431D01*
X162466744Y-78839602D01*
X162383081Y-78698135D01*
X162383079Y-78698133D01*
X162383076Y-78698129D01*
X162266870Y-78581923D01*
X162266862Y-78581917D01*
X162188681Y-78535681D01*
X162125398Y-78498256D01*
X162125397Y-78498255D01*
X162125396Y-78498255D01*
X162125393Y-78498254D01*
X161967573Y-78452402D01*
X161967567Y-78452401D01*
X161930701Y-78449500D01*
X161930694Y-78449500D01*
X161499306Y-78449500D01*
X161499298Y-78449500D01*
X161462432Y-78452401D01*
X161462426Y-78452402D01*
X161304606Y-78498254D01*
X161304603Y-78498255D01*
X161163140Y-78581915D01*
X161156974Y-78586699D01*
X161155174Y-78584379D01*
X161105913Y-78611230D01*
X161036225Y-78606193D01*
X161003992Y-78585461D01*
X161002722Y-78587100D01*
X160996552Y-78582314D01*
X160855196Y-78498717D01*
X160855193Y-78498716D01*
X160697494Y-78452900D01*
X160697497Y-78452900D01*
X160695000Y-78452703D01*
X160695000Y-81347295D01*
X160195000Y-81347295D01*
X160195000Y-80150000D01*
X159425000Y-80150000D01*
X158925000Y-80150000D01*
X158155000Y-80150000D01*
X157655000Y-80150000D01*
X156885000Y-80150000D01*
X156385000Y-80150000D01*
X155615000Y-80150000D01*
X155115000Y-80150000D01*
X154345000Y-80150000D01*
X153845000Y-80150000D01*
X153075000Y-80150000D01*
X152575000Y-80150000D01*
X151805000Y-80150000D01*
X151305000Y-80150000D01*
X150535000Y-80150000D01*
X150035000Y-80150000D01*
X149485000Y-80150000D01*
X135520500Y-80150000D01*
X135520500Y-79650000D01*
X149485000Y-79650000D01*
X150035000Y-79650000D01*
X150535000Y-79650000D01*
X151305000Y-79650000D01*
X151805000Y-79650000D01*
X152575000Y-79650000D01*
X153075000Y-79650000D01*
X153845000Y-79650000D01*
X154345000Y-79650000D01*
X155115000Y-79650000D01*
X155615000Y-79650000D01*
X156385000Y-79650000D01*
X156885000Y-79650000D01*
X157655000Y-79650000D01*
X158155000Y-79650000D01*
X158925000Y-79650000D01*
X159425000Y-79650000D01*
X160195000Y-79650000D01*
X160195000Y-78452703D01*
X160192503Y-78452900D01*
X160034806Y-78498716D01*
X160034803Y-78498717D01*
X159893447Y-78582314D01*
X159887278Y-78587100D01*
X159885457Y-78584753D01*
X159836358Y-78611564D01*
X159766666Y-78606580D01*
X159733930Y-78585541D01*
X159732722Y-78587100D01*
X159726552Y-78582314D01*
X159585196Y-78498717D01*
X159585193Y-78498716D01*
X159427494Y-78452900D01*
X159427497Y-78452900D01*
X159425000Y-78452703D01*
X159425000Y-79650000D01*
X158925000Y-79650000D01*
X158925000Y-78452703D01*
X158922503Y-78452900D01*
X158764806Y-78498716D01*
X158764803Y-78498717D01*
X158623447Y-78582314D01*
X158617278Y-78587100D01*
X158615457Y-78584753D01*
X158566358Y-78611564D01*
X158496666Y-78606580D01*
X158463930Y-78585541D01*
X158462722Y-78587100D01*
X158456552Y-78582314D01*
X158315196Y-78498717D01*
X158315193Y-78498716D01*
X158157494Y-78452900D01*
X158157497Y-78452900D01*
X158155000Y-78452703D01*
X158155000Y-79650000D01*
X157655000Y-79650000D01*
X157655000Y-78452703D01*
X157652503Y-78452900D01*
X157494806Y-78498716D01*
X157494803Y-78498717D01*
X157353447Y-78582314D01*
X157347278Y-78587100D01*
X157345457Y-78584753D01*
X157296358Y-78611564D01*
X157226666Y-78606580D01*
X157193930Y-78585541D01*
X157192722Y-78587100D01*
X157186552Y-78582314D01*
X157045196Y-78498717D01*
X157045193Y-78498716D01*
X156887494Y-78452900D01*
X156887497Y-78452900D01*
X156885000Y-78452703D01*
X156885000Y-79650000D01*
X156385000Y-79650000D01*
X156385000Y-78452703D01*
X156382503Y-78452900D01*
X156224806Y-78498716D01*
X156224803Y-78498717D01*
X156083447Y-78582314D01*
X156077278Y-78587100D01*
X156075457Y-78584753D01*
X156026358Y-78611564D01*
X155956666Y-78606580D01*
X155923930Y-78585541D01*
X155922722Y-78587100D01*
X155916552Y-78582314D01*
X155775196Y-78498717D01*
X155775193Y-78498716D01*
X155617494Y-78452900D01*
X155617497Y-78452900D01*
X155615000Y-78452703D01*
X155615000Y-79650000D01*
X155115000Y-79650000D01*
X155115000Y-78452703D01*
X155112503Y-78452900D01*
X154954806Y-78498716D01*
X154954803Y-78498717D01*
X154813447Y-78582314D01*
X154807278Y-78587100D01*
X154805457Y-78584753D01*
X154756358Y-78611564D01*
X154686666Y-78606580D01*
X154653930Y-78585541D01*
X154652722Y-78587100D01*
X154646552Y-78582314D01*
X154505196Y-78498717D01*
X154505193Y-78498716D01*
X154347494Y-78452900D01*
X154347497Y-78452900D01*
X154345000Y-78452703D01*
X154345000Y-79650000D01*
X153845000Y-79650000D01*
X153845000Y-78452703D01*
X153842503Y-78452900D01*
X153684806Y-78498716D01*
X153684803Y-78498717D01*
X153543447Y-78582314D01*
X153537278Y-78587100D01*
X153535457Y-78584753D01*
X153486358Y-78611564D01*
X153416666Y-78606580D01*
X153383930Y-78585541D01*
X153382722Y-78587100D01*
X153376552Y-78582314D01*
X153235196Y-78498717D01*
X153235193Y-78498716D01*
X153077494Y-78452900D01*
X153077497Y-78452900D01*
X153075000Y-78452703D01*
X153075000Y-79650000D01*
X152575000Y-79650000D01*
X152575000Y-78452703D01*
X152572503Y-78452900D01*
X152414806Y-78498716D01*
X152414803Y-78498717D01*
X152273447Y-78582314D01*
X152267278Y-78587100D01*
X152265457Y-78584753D01*
X152216358Y-78611564D01*
X152146666Y-78606580D01*
X152113930Y-78585541D01*
X152112722Y-78587100D01*
X152106552Y-78582314D01*
X151965196Y-78498717D01*
X151965193Y-78498716D01*
X151807494Y-78452900D01*
X151807497Y-78452900D01*
X151805000Y-78452703D01*
X151805000Y-79650000D01*
X151305000Y-79650000D01*
X151305000Y-78452703D01*
X151302503Y-78452900D01*
X151144806Y-78498716D01*
X151144803Y-78498717D01*
X151003447Y-78582314D01*
X150997278Y-78587100D01*
X150995457Y-78584753D01*
X150946358Y-78611564D01*
X150876666Y-78606580D01*
X150843930Y-78585541D01*
X150842722Y-78587100D01*
X150836552Y-78582314D01*
X150695196Y-78498717D01*
X150695193Y-78498716D01*
X150537494Y-78452900D01*
X150537497Y-78452900D01*
X150535000Y-78452703D01*
X150535000Y-79650000D01*
X150035000Y-79650000D01*
X150035000Y-78452703D01*
X150032503Y-78452900D01*
X149874806Y-78498716D01*
X149874803Y-78498717D01*
X149733447Y-78582314D01*
X149733438Y-78582321D01*
X149617321Y-78698438D01*
X149617314Y-78698447D01*
X149533717Y-78839803D01*
X149533716Y-78839806D01*
X149487900Y-78997504D01*
X149487899Y-78997510D01*
X149485000Y-79034350D01*
X149485000Y-79650000D01*
X135520500Y-79650000D01*
X135520500Y-73731692D01*
X135540185Y-73664653D01*
X135573374Y-73630119D01*
X135759139Y-73500047D01*
X135920047Y-73339139D01*
X136050568Y-73152734D01*
X136146739Y-72946496D01*
X136205635Y-72726692D01*
X136225468Y-72500001D01*
X143774532Y-72500001D01*
X143794364Y-72726686D01*
X143794366Y-72726697D01*
X143853258Y-72946488D01*
X143853261Y-72946497D01*
X143949431Y-73152732D01*
X143949432Y-73152734D01*
X144079954Y-73339141D01*
X144240858Y-73500045D01*
X144240861Y-73500047D01*
X144427266Y-73630568D01*
X144633504Y-73726739D01*
X144853308Y-73785635D01*
X145015230Y-73799801D01*
X145079998Y-73805468D01*
X145080000Y-73805468D01*
X145080002Y-73805468D01*
X145136673Y-73800509D01*
X145306692Y-73785635D01*
X145526496Y-73726739D01*
X145732734Y-73630568D01*
X145919139Y-73500047D01*
X146080047Y-73339139D01*
X146210118Y-73153375D01*
X146264693Y-73109752D01*
X146311692Y-73100500D01*
X147148331Y-73100500D01*
X147148347Y-73100501D01*
X147155943Y-73100501D01*
X147314054Y-73100501D01*
X147314057Y-73100501D01*
X147466785Y-73059577D01*
X147516904Y-73030639D01*
X147603716Y-72980520D01*
X147715520Y-72868716D01*
X147715520Y-72868714D01*
X147725728Y-72858507D01*
X147725730Y-72858504D01*
X150710160Y-69874073D01*
X150771481Y-69840590D01*
X150838102Y-69844474D01*
X150890019Y-69862298D01*
X151118951Y-69900500D01*
X151118952Y-69900500D01*
X151351048Y-69900500D01*
X151351049Y-69900500D01*
X151579981Y-69862298D01*
X151799503Y-69786936D01*
X152003626Y-69676470D01*
X152186784Y-69533913D01*
X152195511Y-69524432D01*
X152255394Y-69488441D01*
X152325232Y-69490538D01*
X152382850Y-69530060D01*
X152402924Y-69565080D01*
X152431645Y-69642086D01*
X152431649Y-69642093D01*
X152517809Y-69757187D01*
X152517812Y-69757190D01*
X152632906Y-69843350D01*
X152632913Y-69843354D01*
X152767620Y-69893596D01*
X152767627Y-69893598D01*
X152827155Y-69899999D01*
X152827172Y-69900000D01*
X153525000Y-69900000D01*
X153525000Y-68875277D01*
X153601306Y-68919333D01*
X153715756Y-68950000D01*
X153834244Y-68950000D01*
X153948694Y-68919333D01*
X154025000Y-68875277D01*
X154025000Y-69900000D01*
X154722828Y-69900000D01*
X154722844Y-69899999D01*
X154782372Y-69893598D01*
X154782379Y-69893596D01*
X154917086Y-69843354D01*
X154917093Y-69843350D01*
X155032187Y-69757190D01*
X155032190Y-69757187D01*
X155118350Y-69642093D01*
X155118354Y-69642086D01*
X155168596Y-69507379D01*
X155168598Y-69507372D01*
X155174999Y-69447844D01*
X155175000Y-69447827D01*
X155175000Y-68750000D01*
X154150278Y-68750000D01*
X154194333Y-68673694D01*
X154225000Y-68559244D01*
X154225000Y-68440756D01*
X154194333Y-68326306D01*
X154150278Y-68250000D01*
X155175000Y-68250000D01*
X155175000Y-67552172D01*
X155174999Y-67552155D01*
X155168598Y-67492627D01*
X155168596Y-67492620D01*
X155118354Y-67357913D01*
X155118350Y-67357906D01*
X155032190Y-67242812D01*
X155032187Y-67242809D01*
X154917093Y-67156649D01*
X154917086Y-67156645D01*
X154782379Y-67106403D01*
X154782372Y-67106401D01*
X154722844Y-67100000D01*
X154025000Y-67100000D01*
X154025000Y-68124722D01*
X153948694Y-68080667D01*
X153834244Y-68050000D01*
X153715756Y-68050000D01*
X153601306Y-68080667D01*
X153525000Y-68124722D01*
X153525000Y-67100000D01*
X152827155Y-67100000D01*
X152767627Y-67106401D01*
X152767620Y-67106403D01*
X152632913Y-67156645D01*
X152632906Y-67156649D01*
X152517812Y-67242809D01*
X152517809Y-67242812D01*
X152431649Y-67357906D01*
X152431646Y-67357911D01*
X152402924Y-67434920D01*
X152361052Y-67490853D01*
X152295588Y-67515270D01*
X152227315Y-67500418D01*
X152195514Y-67475571D01*
X152186784Y-67466087D01*
X152186779Y-67466083D01*
X152186777Y-67466081D01*
X152003634Y-67323535D01*
X152003628Y-67323531D01*
X151799504Y-67213064D01*
X151799495Y-67213061D01*
X151579984Y-67137702D01*
X151392404Y-67106401D01*
X151351049Y-67099500D01*
X151118951Y-67099500D01*
X151077596Y-67106401D01*
X150890015Y-67137702D01*
X150670504Y-67213061D01*
X150670495Y-67213064D01*
X150466371Y-67323531D01*
X150466365Y-67323535D01*
X150283222Y-67466081D01*
X150283219Y-67466084D01*
X150283216Y-67466086D01*
X150283216Y-67466087D01*
X150258791Y-67492620D01*
X150126016Y-67636852D01*
X149999075Y-67831151D01*
X149905842Y-68043699D01*
X149848866Y-68268691D01*
X149848864Y-68268702D01*
X149829700Y-68499993D01*
X149829700Y-68500006D01*
X149848864Y-68731297D01*
X149848866Y-68731309D01*
X149893319Y-68906848D01*
X149890694Y-68976668D01*
X149860794Y-69024969D01*
X147022584Y-71863181D01*
X146961261Y-71896666D01*
X146934903Y-71899500D01*
X146311692Y-71899500D01*
X146244653Y-71879815D01*
X146210119Y-71846625D01*
X146080047Y-71660861D01*
X146080045Y-71660858D01*
X145919141Y-71499954D01*
X145732734Y-71369432D01*
X145732732Y-71369431D01*
X145526497Y-71273261D01*
X145526488Y-71273258D01*
X145306697Y-71214366D01*
X145306693Y-71214365D01*
X145306692Y-71214365D01*
X145306691Y-71214364D01*
X145306686Y-71214364D01*
X145080002Y-71194532D01*
X145079998Y-71194532D01*
X144853313Y-71214364D01*
X144853302Y-71214366D01*
X144633511Y-71273258D01*
X144633502Y-71273261D01*
X144427267Y-71369431D01*
X144427265Y-71369432D01*
X144240858Y-71499954D01*
X144079954Y-71660858D01*
X143949432Y-71847265D01*
X143949431Y-71847267D01*
X143853261Y-72053502D01*
X143853258Y-72053511D01*
X143794366Y-72273302D01*
X143794364Y-72273313D01*
X143774532Y-72499998D01*
X143774532Y-72500001D01*
X136225468Y-72500001D01*
X136225468Y-72500000D01*
X136205635Y-72273308D01*
X136146739Y-72053504D01*
X136050568Y-71847266D01*
X135920047Y-71660861D01*
X135920045Y-71660858D01*
X135759141Y-71499954D01*
X135572734Y-71369432D01*
X135572732Y-71369431D01*
X135366497Y-71273261D01*
X135366488Y-71273258D01*
X135146697Y-71214366D01*
X135146693Y-71214365D01*
X135146692Y-71214365D01*
X135146691Y-71214364D01*
X135146686Y-71214364D01*
X134920002Y-71194532D01*
X134919998Y-71194532D01*
X134693313Y-71214364D01*
X134693302Y-71214366D01*
X134473511Y-71273258D01*
X134473502Y-71273261D01*
X134267267Y-71369431D01*
X134267265Y-71369432D01*
X134080858Y-71499954D01*
X133919954Y-71660858D01*
X133789432Y-71847265D01*
X133789431Y-71847267D01*
X133693261Y-72053502D01*
X133693258Y-72053511D01*
X133634366Y-72273302D01*
X133634364Y-72273313D01*
X133614532Y-72499998D01*
X133614532Y-72500001D01*
X131893959Y-72500001D01*
X131995406Y-60123484D01*
X132015640Y-60056608D01*
X132068817Y-60011287D01*
X132119402Y-60000500D01*
X178375500Y-60000500D01*
X178442539Y-60020185D01*
G37*
G04 #@! TD.AperFunction*
M02*
