G04 #@! TF.GenerationSoftware,KiCad,Pcbnew,8.0.1*
G04 #@! TF.CreationDate,2024-05-12T16:17:47-04:00*
G04 #@! TF.ProjectId,recyclobot,72656379-636c-46f6-926f-742e6b696361,rev?*
G04 #@! TF.SameCoordinates,Original*
G04 #@! TF.FileFunction,Copper,L2,Bot*
G04 #@! TF.FilePolarity,Positive*
%FSLAX46Y46*%
G04 Gerber Fmt 4.6, Leading zero omitted, Abs format (unit mm)*
G04 Created by KiCad (PCBNEW 8.0.1) date 2024-05-12 16:17:47*
%MOMM*%
%LPD*%
G01*
G04 APERTURE LIST*
G04 #@! TA.AperFunction,ComponentPad*
%ADD10O,1.700000X1.700000*%
G04 #@! TD*
G04 #@! TA.AperFunction,ComponentPad*
%ADD11R,1.700000X1.700000*%
G04 #@! TD*
G04 #@! TA.AperFunction,ComponentPad*
%ADD12R,1.800000X1.800000*%
G04 #@! TD*
G04 #@! TA.AperFunction,ComponentPad*
%ADD13C,1.800000*%
G04 #@! TD*
G04 #@! TA.AperFunction,ComponentPad*
%ADD14R,1.500000X1.050000*%
G04 #@! TD*
G04 #@! TA.AperFunction,ComponentPad*
%ADD15O,1.500000X1.050000*%
G04 #@! TD*
G04 #@! TA.AperFunction,ComponentPad*
%ADD16C,1.400000*%
G04 #@! TD*
G04 #@! TA.AperFunction,ComponentPad*
%ADD17O,1.400000X1.400000*%
G04 #@! TD*
G04 #@! TA.AperFunction,ComponentPad*
%ADD18R,1.600000X1.600000*%
G04 #@! TD*
G04 #@! TA.AperFunction,ComponentPad*
%ADD19O,1.600000X1.600000*%
G04 #@! TD*
G04 #@! TA.AperFunction,ViaPad*
%ADD20C,0.600000*%
G04 #@! TD*
G04 #@! TA.AperFunction,Conductor*
%ADD21C,0.200000*%
G04 #@! TD*
G04 APERTURE END LIST*
D10*
X120500000Y-87000000D03*
D11*
X120500000Y-84460000D03*
D12*
X146960000Y-100000000D03*
D13*
X149500000Y-100000000D03*
D12*
X108500000Y-93460000D03*
D13*
X108500000Y-96000000D03*
D12*
X109000000Y-111950000D03*
D13*
X109000000Y-114490000D03*
D12*
X146725000Y-106000000D03*
D13*
X149265000Y-106000000D03*
D12*
X136460000Y-83500000D03*
D13*
X139000000Y-83500000D03*
D12*
X146960000Y-86000000D03*
D13*
X149500000Y-86000000D03*
D12*
X127000000Y-83500000D03*
D13*
X129540000Y-83500000D03*
D14*
X109220000Y-103500000D03*
D15*
X109220000Y-102230000D03*
X109220000Y-100960000D03*
D16*
X117005000Y-114045000D03*
D17*
X117005000Y-106425000D03*
D12*
X144225000Y-122500000D03*
D13*
X146765000Y-122500000D03*
D12*
X135460000Y-122500000D03*
D13*
X138000000Y-122500000D03*
D12*
X131050000Y-122500000D03*
D13*
X128510000Y-122500000D03*
D12*
X146460000Y-114000000D03*
D13*
X149000000Y-114000000D03*
D18*
X127880000Y-93960000D03*
D19*
X127880000Y-96500000D03*
X127880000Y-99040000D03*
X127880000Y-101580000D03*
X127880000Y-104120000D03*
X127880000Y-106660000D03*
X127880000Y-109200000D03*
X127880000Y-111740000D03*
X127880000Y-114280000D03*
X135500000Y-114280000D03*
X135500000Y-111740000D03*
X135500000Y-109200000D03*
X135500000Y-106660000D03*
X135500000Y-104120000D03*
X135500000Y-101580000D03*
X135500000Y-99040000D03*
X135500000Y-96500000D03*
X135500000Y-93960000D03*
D16*
X119500000Y-101810000D03*
D17*
X119500000Y-94190000D03*
D16*
X115000000Y-96500000D03*
D17*
X115000000Y-88880000D03*
D16*
X123500000Y-112810000D03*
D17*
X123500000Y-105190000D03*
D12*
X146960000Y-93000000D03*
D13*
X149500000Y-93000000D03*
D20*
X130500000Y-112000000D03*
X131000000Y-98000000D03*
X107500000Y-119500000D03*
X132000000Y-103000000D03*
X140500000Y-97000000D03*
X150000000Y-124500000D03*
X107000000Y-84000000D03*
X122500000Y-93500000D03*
X146500000Y-81000000D03*
D21*
X107600000Y-104100000D02*
X107600000Y-96900000D01*
X107600000Y-96900000D02*
X108500000Y-96000000D01*
X130500000Y-101660000D02*
X127880000Y-99040000D01*
X108000000Y-104500000D02*
X107600000Y-104100000D01*
X130500000Y-112000000D02*
X130500000Y-101660000D01*
X131000000Y-98000000D02*
X131000000Y-84960000D01*
X108220000Y-104500000D02*
X109220000Y-103500000D01*
X108000000Y-104500000D02*
X108220000Y-104500000D01*
X131000000Y-84960000D02*
X129540000Y-83500000D01*
G04 #@! TA.AperFunction,Conductor*
G36*
X151442539Y-79520185D02*
G01*
X151488294Y-79572989D01*
X151499500Y-79624500D01*
X151499500Y-126375500D01*
X151479815Y-126442539D01*
X151427011Y-126488294D01*
X151375500Y-126499500D01*
X103124500Y-126499500D01*
X103057461Y-126479815D01*
X103011706Y-126427011D01*
X103000500Y-126375500D01*
X103000500Y-122500006D01*
X127104700Y-122500006D01*
X127123864Y-122731297D01*
X127123866Y-122731308D01*
X127180842Y-122956300D01*
X127274075Y-123168848D01*
X127401016Y-123363147D01*
X127401019Y-123363151D01*
X127401021Y-123363153D01*
X127558216Y-123533913D01*
X127558219Y-123533915D01*
X127558222Y-123533918D01*
X127741365Y-123676464D01*
X127741371Y-123676468D01*
X127741374Y-123676470D01*
X127945497Y-123786936D01*
X128059487Y-123826068D01*
X128165015Y-123862297D01*
X128165017Y-123862297D01*
X128165019Y-123862298D01*
X128393951Y-123900500D01*
X128393952Y-123900500D01*
X128626048Y-123900500D01*
X128626049Y-123900500D01*
X128854981Y-123862298D01*
X129074503Y-123786936D01*
X129278626Y-123676470D01*
X129461784Y-123533913D01*
X129470130Y-123524846D01*
X129530010Y-123488854D01*
X129599849Y-123490949D01*
X129657468Y-123530469D01*
X129677544Y-123565491D01*
X129706203Y-123642330D01*
X129706206Y-123642335D01*
X129792452Y-123757544D01*
X129792455Y-123757547D01*
X129907664Y-123843793D01*
X129907671Y-123843797D01*
X130042517Y-123894091D01*
X130042516Y-123894091D01*
X130049444Y-123894835D01*
X130102127Y-123900500D01*
X131997872Y-123900499D01*
X132057483Y-123894091D01*
X132192331Y-123843796D01*
X132307546Y-123757546D01*
X132393796Y-123642331D01*
X132444091Y-123507483D01*
X132450500Y-123447873D01*
X132450500Y-123447870D01*
X134059500Y-123447870D01*
X134059501Y-123447876D01*
X134065908Y-123507483D01*
X134116202Y-123642328D01*
X134116206Y-123642335D01*
X134202452Y-123757544D01*
X134202455Y-123757547D01*
X134317664Y-123843793D01*
X134317671Y-123843797D01*
X134452517Y-123894091D01*
X134452516Y-123894091D01*
X134459444Y-123894835D01*
X134512127Y-123900500D01*
X136407872Y-123900499D01*
X136467483Y-123894091D01*
X136602331Y-123843796D01*
X136717546Y-123757546D01*
X136803796Y-123642331D01*
X136832455Y-123565493D01*
X136874326Y-123509559D01*
X136939790Y-123485141D01*
X137008063Y-123499992D01*
X137039866Y-123524843D01*
X137045046Y-123530469D01*
X137048215Y-123533912D01*
X137048222Y-123533918D01*
X137231365Y-123676464D01*
X137231371Y-123676468D01*
X137231374Y-123676470D01*
X137435497Y-123786936D01*
X137549487Y-123826068D01*
X137655015Y-123862297D01*
X137655017Y-123862297D01*
X137655019Y-123862298D01*
X137883951Y-123900500D01*
X137883952Y-123900500D01*
X138116048Y-123900500D01*
X138116049Y-123900500D01*
X138344981Y-123862298D01*
X138564503Y-123786936D01*
X138768626Y-123676470D01*
X138951784Y-123533913D01*
X139030992Y-123447870D01*
X142824500Y-123447870D01*
X142824501Y-123447876D01*
X142830908Y-123507483D01*
X142881202Y-123642328D01*
X142881206Y-123642335D01*
X142967452Y-123757544D01*
X142967455Y-123757547D01*
X143082664Y-123843793D01*
X143082671Y-123843797D01*
X143217517Y-123894091D01*
X143217516Y-123894091D01*
X143224444Y-123894835D01*
X143277127Y-123900500D01*
X145172872Y-123900499D01*
X145232483Y-123894091D01*
X145367331Y-123843796D01*
X145482546Y-123757546D01*
X145568796Y-123642331D01*
X145597455Y-123565493D01*
X145639326Y-123509559D01*
X145704790Y-123485141D01*
X145773063Y-123499992D01*
X145804866Y-123524843D01*
X145810046Y-123530469D01*
X145813215Y-123533912D01*
X145813222Y-123533918D01*
X145996365Y-123676464D01*
X145996371Y-123676468D01*
X145996374Y-123676470D01*
X146200497Y-123786936D01*
X146314487Y-123826068D01*
X146420015Y-123862297D01*
X146420017Y-123862297D01*
X146420019Y-123862298D01*
X146648951Y-123900500D01*
X146648952Y-123900500D01*
X146881048Y-123900500D01*
X146881049Y-123900500D01*
X147109981Y-123862298D01*
X147329503Y-123786936D01*
X147533626Y-123676470D01*
X147716784Y-123533913D01*
X147873979Y-123363153D01*
X148000924Y-123168849D01*
X148094157Y-122956300D01*
X148151134Y-122731305D01*
X148170300Y-122500000D01*
X148170300Y-122499993D01*
X148151135Y-122268702D01*
X148151133Y-122268691D01*
X148094157Y-122043699D01*
X148000924Y-121831151D01*
X147873983Y-121636852D01*
X147873980Y-121636849D01*
X147873979Y-121636847D01*
X147716784Y-121466087D01*
X147716779Y-121466083D01*
X147716777Y-121466081D01*
X147533634Y-121323535D01*
X147533628Y-121323531D01*
X147329504Y-121213064D01*
X147329495Y-121213061D01*
X147109984Y-121137702D01*
X146919450Y-121105908D01*
X146881049Y-121099500D01*
X146648951Y-121099500D01*
X146610550Y-121105908D01*
X146420015Y-121137702D01*
X146200504Y-121213061D01*
X146200495Y-121213064D01*
X145996371Y-121323531D01*
X145996365Y-121323535D01*
X145813222Y-121466081D01*
X145813218Y-121466085D01*
X145813216Y-121466086D01*
X145813216Y-121466087D01*
X145804870Y-121475154D01*
X145804866Y-121475158D01*
X145744979Y-121511148D01*
X145675141Y-121509047D01*
X145617525Y-121469522D01*
X145597455Y-121434507D01*
X145568797Y-121357671D01*
X145568793Y-121357664D01*
X145482547Y-121242455D01*
X145482544Y-121242452D01*
X145367335Y-121156206D01*
X145367328Y-121156202D01*
X145232482Y-121105908D01*
X145232483Y-121105908D01*
X145172883Y-121099501D01*
X145172881Y-121099500D01*
X145172873Y-121099500D01*
X145172864Y-121099500D01*
X143277129Y-121099500D01*
X143277123Y-121099501D01*
X143217516Y-121105908D01*
X143082671Y-121156202D01*
X143082664Y-121156206D01*
X142967455Y-121242452D01*
X142967452Y-121242455D01*
X142881206Y-121357664D01*
X142881202Y-121357671D01*
X142830908Y-121492517D01*
X142824501Y-121552116D01*
X142824501Y-121552123D01*
X142824500Y-121552135D01*
X142824500Y-123447870D01*
X139030992Y-123447870D01*
X139108979Y-123363153D01*
X139235924Y-123168849D01*
X139329157Y-122956300D01*
X139386134Y-122731305D01*
X139405300Y-122500000D01*
X139405300Y-122499993D01*
X139386135Y-122268702D01*
X139386133Y-122268691D01*
X139329157Y-122043699D01*
X139235924Y-121831151D01*
X139108983Y-121636852D01*
X139108980Y-121636849D01*
X139108979Y-121636847D01*
X138951784Y-121466087D01*
X138951779Y-121466083D01*
X138951777Y-121466081D01*
X138768634Y-121323535D01*
X138768628Y-121323531D01*
X138564504Y-121213064D01*
X138564495Y-121213061D01*
X138344984Y-121137702D01*
X138154450Y-121105908D01*
X138116049Y-121099500D01*
X137883951Y-121099500D01*
X137845550Y-121105908D01*
X137655015Y-121137702D01*
X137435504Y-121213061D01*
X137435495Y-121213064D01*
X137231371Y-121323531D01*
X137231365Y-121323535D01*
X137048222Y-121466081D01*
X137048218Y-121466085D01*
X137048216Y-121466086D01*
X137048216Y-121466087D01*
X137039870Y-121475154D01*
X137039866Y-121475158D01*
X136979979Y-121511148D01*
X136910141Y-121509047D01*
X136852525Y-121469522D01*
X136832455Y-121434507D01*
X136803797Y-121357671D01*
X136803793Y-121357664D01*
X136717547Y-121242455D01*
X136717544Y-121242452D01*
X136602335Y-121156206D01*
X136602328Y-121156202D01*
X136467482Y-121105908D01*
X136467483Y-121105908D01*
X136407883Y-121099501D01*
X136407881Y-121099500D01*
X136407873Y-121099500D01*
X136407864Y-121099500D01*
X134512129Y-121099500D01*
X134512123Y-121099501D01*
X134452516Y-121105908D01*
X134317671Y-121156202D01*
X134317664Y-121156206D01*
X134202455Y-121242452D01*
X134202452Y-121242455D01*
X134116206Y-121357664D01*
X134116202Y-121357671D01*
X134065908Y-121492517D01*
X134059501Y-121552116D01*
X134059501Y-121552123D01*
X134059500Y-121552135D01*
X134059500Y-123447870D01*
X132450500Y-123447870D01*
X132450499Y-121552128D01*
X132444091Y-121492517D01*
X132435514Y-121469522D01*
X132393797Y-121357671D01*
X132393793Y-121357664D01*
X132307547Y-121242455D01*
X132307544Y-121242452D01*
X132192335Y-121156206D01*
X132192328Y-121156202D01*
X132057482Y-121105908D01*
X132057483Y-121105908D01*
X131997883Y-121099501D01*
X131997881Y-121099500D01*
X131997873Y-121099500D01*
X131997864Y-121099500D01*
X130102129Y-121099500D01*
X130102123Y-121099501D01*
X130042516Y-121105908D01*
X129907671Y-121156202D01*
X129907664Y-121156206D01*
X129792455Y-121242452D01*
X129792452Y-121242455D01*
X129706206Y-121357664D01*
X129706203Y-121357670D01*
X129677544Y-121434508D01*
X129635672Y-121490441D01*
X129570208Y-121514858D01*
X129501935Y-121500006D01*
X129470135Y-121475158D01*
X129461784Y-121466087D01*
X129461778Y-121466082D01*
X129461777Y-121466081D01*
X129278634Y-121323535D01*
X129278628Y-121323531D01*
X129074504Y-121213064D01*
X129074495Y-121213061D01*
X128854984Y-121137702D01*
X128664450Y-121105908D01*
X128626049Y-121099500D01*
X128393951Y-121099500D01*
X128355550Y-121105908D01*
X128165015Y-121137702D01*
X127945504Y-121213061D01*
X127945495Y-121213064D01*
X127741371Y-121323531D01*
X127741365Y-121323535D01*
X127558222Y-121466081D01*
X127558219Y-121466084D01*
X127558216Y-121466086D01*
X127558216Y-121466087D01*
X127518669Y-121509047D01*
X127401016Y-121636852D01*
X127274075Y-121831151D01*
X127180842Y-122043699D01*
X127123866Y-122268691D01*
X127123864Y-122268702D01*
X127104700Y-122499993D01*
X127104700Y-122500006D01*
X103000500Y-122500006D01*
X103000500Y-114490006D01*
X107594700Y-114490006D01*
X107613864Y-114721297D01*
X107613866Y-114721308D01*
X107670842Y-114946300D01*
X107764075Y-115158848D01*
X107891016Y-115353147D01*
X107891019Y-115353151D01*
X107891021Y-115353153D01*
X108048216Y-115523913D01*
X108048219Y-115523915D01*
X108048222Y-115523918D01*
X108231365Y-115666464D01*
X108231371Y-115666468D01*
X108231374Y-115666470D01*
X108435497Y-115776936D01*
X108549487Y-115816068D01*
X108655015Y-115852297D01*
X108655017Y-115852297D01*
X108655019Y-115852298D01*
X108883951Y-115890500D01*
X108883952Y-115890500D01*
X109116048Y-115890500D01*
X109116049Y-115890500D01*
X109344981Y-115852298D01*
X109564503Y-115776936D01*
X109768626Y-115666470D01*
X109951784Y-115523913D01*
X110108979Y-115353153D01*
X110235924Y-115158849D01*
X110329157Y-114946300D01*
X110386134Y-114721305D01*
X110386135Y-114721297D01*
X110405300Y-114490006D01*
X110405300Y-114489993D01*
X110386135Y-114258702D01*
X110386133Y-114258691D01*
X110332019Y-114045000D01*
X115799357Y-114045000D01*
X115819884Y-114266535D01*
X115819885Y-114266537D01*
X115880769Y-114480523D01*
X115880775Y-114480538D01*
X115979938Y-114679683D01*
X115979943Y-114679691D01*
X116114020Y-114857238D01*
X116278437Y-115007123D01*
X116278439Y-115007125D01*
X116467595Y-115124245D01*
X116467596Y-115124245D01*
X116467599Y-115124247D01*
X116675060Y-115204618D01*
X116893757Y-115245500D01*
X116893759Y-115245500D01*
X117116241Y-115245500D01*
X117116243Y-115245500D01*
X117334940Y-115204618D01*
X117542401Y-115124247D01*
X117731562Y-115007124D01*
X117871282Y-114879751D01*
X117895979Y-114857238D01*
X117926792Y-114816436D01*
X118030058Y-114679689D01*
X118129229Y-114480528D01*
X118186284Y-114280001D01*
X126574532Y-114280001D01*
X126594364Y-114506686D01*
X126594366Y-114506697D01*
X126653258Y-114726488D01*
X126653261Y-114726497D01*
X126749431Y-114932732D01*
X126749432Y-114932734D01*
X126879954Y-115119141D01*
X127040858Y-115280045D01*
X127050702Y-115286938D01*
X127227266Y-115410568D01*
X127433504Y-115506739D01*
X127653308Y-115565635D01*
X127815230Y-115579801D01*
X127879998Y-115585468D01*
X127880000Y-115585468D01*
X127880002Y-115585468D01*
X127936673Y-115580509D01*
X128106692Y-115565635D01*
X128326496Y-115506739D01*
X128532734Y-115410568D01*
X128719139Y-115280047D01*
X128880047Y-115119139D01*
X129010568Y-114932734D01*
X129106739Y-114726496D01*
X129165635Y-114506692D01*
X129185468Y-114280001D01*
X134194532Y-114280001D01*
X134214364Y-114506686D01*
X134214366Y-114506697D01*
X134273258Y-114726488D01*
X134273261Y-114726497D01*
X134369431Y-114932732D01*
X134369432Y-114932734D01*
X134499954Y-115119141D01*
X134660858Y-115280045D01*
X134670702Y-115286938D01*
X134847266Y-115410568D01*
X135053504Y-115506739D01*
X135273308Y-115565635D01*
X135435230Y-115579801D01*
X135499998Y-115585468D01*
X135500000Y-115585468D01*
X135500002Y-115585468D01*
X135556673Y-115580509D01*
X135726692Y-115565635D01*
X135946496Y-115506739D01*
X136152734Y-115410568D01*
X136339139Y-115280047D01*
X136500047Y-115119139D01*
X136619970Y-114947870D01*
X145059500Y-114947870D01*
X145059501Y-114947876D01*
X145065908Y-115007483D01*
X145116202Y-115142328D01*
X145116206Y-115142335D01*
X145202452Y-115257544D01*
X145202455Y-115257547D01*
X145317664Y-115343793D01*
X145317671Y-115343797D01*
X145452517Y-115394091D01*
X145452516Y-115394091D01*
X145459444Y-115394835D01*
X145512127Y-115400500D01*
X147407872Y-115400499D01*
X147467483Y-115394091D01*
X147602331Y-115343796D01*
X147717546Y-115257546D01*
X147803796Y-115142331D01*
X147832455Y-115065493D01*
X147874326Y-115009559D01*
X147939790Y-114985141D01*
X148008063Y-114999992D01*
X148039866Y-115024843D01*
X148047302Y-115032920D01*
X148048215Y-115033912D01*
X148048222Y-115033918D01*
X148231365Y-115176464D01*
X148231371Y-115176468D01*
X148231374Y-115176470D01*
X148283387Y-115204618D01*
X148422763Y-115280045D01*
X148435497Y-115286936D01*
X148549487Y-115326068D01*
X148655015Y-115362297D01*
X148655017Y-115362297D01*
X148655019Y-115362298D01*
X148883951Y-115400500D01*
X148883952Y-115400500D01*
X149116048Y-115400500D01*
X149116049Y-115400500D01*
X149344981Y-115362298D01*
X149564503Y-115286936D01*
X149768626Y-115176470D01*
X149951784Y-115033913D01*
X150108979Y-114863153D01*
X150112844Y-114857238D01*
X150139501Y-114816436D01*
X150235924Y-114668849D01*
X150329157Y-114456300D01*
X150386134Y-114231305D01*
X150386135Y-114231297D01*
X150405300Y-114000006D01*
X150405300Y-113999993D01*
X150386135Y-113768702D01*
X150386133Y-113768691D01*
X150329157Y-113543699D01*
X150235924Y-113331151D01*
X150108983Y-113136852D01*
X150108980Y-113136849D01*
X150108979Y-113136847D01*
X149951784Y-112966087D01*
X149951779Y-112966083D01*
X149951777Y-112966081D01*
X149768634Y-112823535D01*
X149768628Y-112823531D01*
X149564504Y-112713064D01*
X149564495Y-112713061D01*
X149344984Y-112637702D01*
X149154450Y-112605908D01*
X149116049Y-112599500D01*
X148883951Y-112599500D01*
X148845550Y-112605908D01*
X148655015Y-112637702D01*
X148435504Y-112713061D01*
X148435495Y-112713064D01*
X148231371Y-112823531D01*
X148231365Y-112823535D01*
X148048222Y-112966081D01*
X148048218Y-112966085D01*
X148039866Y-112975158D01*
X147979979Y-113011148D01*
X147910141Y-113009047D01*
X147852525Y-112969522D01*
X147832455Y-112934507D01*
X147803797Y-112857671D01*
X147803793Y-112857664D01*
X147717547Y-112742455D01*
X147717544Y-112742452D01*
X147602335Y-112656206D01*
X147602328Y-112656202D01*
X147467482Y-112605908D01*
X147467483Y-112605908D01*
X147407883Y-112599501D01*
X147407881Y-112599500D01*
X147407873Y-112599500D01*
X147407864Y-112599500D01*
X145512129Y-112599500D01*
X145512123Y-112599501D01*
X145452516Y-112605908D01*
X145317671Y-112656202D01*
X145317664Y-112656206D01*
X145202455Y-112742452D01*
X145202452Y-112742455D01*
X145116206Y-112857664D01*
X145116202Y-112857671D01*
X145065908Y-112992517D01*
X145059501Y-113052116D01*
X145059500Y-113052135D01*
X145059500Y-114947870D01*
X136619970Y-114947870D01*
X136630568Y-114932734D01*
X136726739Y-114726496D01*
X136785635Y-114506692D01*
X136805468Y-114280000D01*
X136785635Y-114053308D01*
X136726739Y-113833504D01*
X136630568Y-113627266D01*
X136502543Y-113444425D01*
X136500045Y-113440858D01*
X136339141Y-113279954D01*
X136152734Y-113149432D01*
X136152728Y-113149429D01*
X136094725Y-113122382D01*
X136042285Y-113076210D01*
X136023133Y-113009017D01*
X136043348Y-112942135D01*
X136094725Y-112897618D01*
X136095319Y-112897341D01*
X136152734Y-112870568D01*
X136339139Y-112740047D01*
X136500047Y-112579139D01*
X136630568Y-112392734D01*
X136726739Y-112186496D01*
X136785635Y-111966692D01*
X136805468Y-111740000D01*
X136785635Y-111513308D01*
X136726739Y-111293504D01*
X136630568Y-111087266D01*
X136500047Y-110900861D01*
X136500045Y-110900858D01*
X136339141Y-110739954D01*
X136152734Y-110609432D01*
X136152728Y-110609429D01*
X136094725Y-110582382D01*
X136042285Y-110536210D01*
X136023133Y-110469017D01*
X136043348Y-110402135D01*
X136094725Y-110357618D01*
X136152734Y-110330568D01*
X136339139Y-110200047D01*
X136500047Y-110039139D01*
X136630568Y-109852734D01*
X136726739Y-109646496D01*
X136785635Y-109426692D01*
X136805468Y-109200000D01*
X136785635Y-108973308D01*
X136726739Y-108753504D01*
X136630568Y-108547266D01*
X136500047Y-108360861D01*
X136500045Y-108360858D01*
X136339141Y-108199954D01*
X136152734Y-108069432D01*
X136152728Y-108069429D01*
X136094725Y-108042382D01*
X136042285Y-107996210D01*
X136023133Y-107929017D01*
X136043348Y-107862135D01*
X136094725Y-107817618D01*
X136152734Y-107790568D01*
X136339139Y-107660047D01*
X136500047Y-107499139D01*
X136630568Y-107312734D01*
X136726739Y-107106496D01*
X136769242Y-106947870D01*
X145324500Y-106947870D01*
X145324501Y-106947876D01*
X145330908Y-107007483D01*
X145381202Y-107142328D01*
X145381206Y-107142335D01*
X145467452Y-107257544D01*
X145467455Y-107257547D01*
X145582664Y-107343793D01*
X145582671Y-107343797D01*
X145717517Y-107394091D01*
X145717516Y-107394091D01*
X145724444Y-107394835D01*
X145777127Y-107400500D01*
X147672872Y-107400499D01*
X147732483Y-107394091D01*
X147867331Y-107343796D01*
X147982546Y-107257546D01*
X148068796Y-107142331D01*
X148097455Y-107065493D01*
X148139326Y-107009559D01*
X148204790Y-106985141D01*
X148273063Y-106999992D01*
X148304866Y-107024843D01*
X148312302Y-107032920D01*
X148313215Y-107033912D01*
X148313222Y-107033918D01*
X148496365Y-107176464D01*
X148496371Y-107176468D01*
X148496374Y-107176470D01*
X148700497Y-107286936D01*
X148775644Y-107312734D01*
X148920015Y-107362297D01*
X148920017Y-107362297D01*
X148920019Y-107362298D01*
X149148951Y-107400500D01*
X149148952Y-107400500D01*
X149381048Y-107400500D01*
X149381049Y-107400500D01*
X149609981Y-107362298D01*
X149829503Y-107286936D01*
X150033626Y-107176470D01*
X150216784Y-107033913D01*
X150373979Y-106863153D01*
X150500924Y-106668849D01*
X150594157Y-106456300D01*
X150651134Y-106231305D01*
X150651135Y-106231297D01*
X150670300Y-106000006D01*
X150670300Y-105999993D01*
X150651135Y-105768702D01*
X150651133Y-105768691D01*
X150594157Y-105543699D01*
X150500924Y-105331151D01*
X150373983Y-105136852D01*
X150373980Y-105136849D01*
X150373979Y-105136847D01*
X150216784Y-104966087D01*
X150216779Y-104966083D01*
X150216777Y-104966081D01*
X150033634Y-104823535D01*
X150033628Y-104823531D01*
X149829504Y-104713064D01*
X149829495Y-104713061D01*
X149609984Y-104637702D01*
X149419450Y-104605908D01*
X149381049Y-104599500D01*
X149148951Y-104599500D01*
X149110550Y-104605908D01*
X148920015Y-104637702D01*
X148700504Y-104713061D01*
X148700495Y-104713064D01*
X148496371Y-104823531D01*
X148496365Y-104823535D01*
X148313222Y-104966081D01*
X148313218Y-104966085D01*
X148304866Y-104975158D01*
X148244979Y-105011148D01*
X148175141Y-105009047D01*
X148117525Y-104969522D01*
X148097455Y-104934507D01*
X148068797Y-104857671D01*
X148068793Y-104857664D01*
X147982547Y-104742455D01*
X147982544Y-104742452D01*
X147867335Y-104656206D01*
X147867328Y-104656202D01*
X147732482Y-104605908D01*
X147732483Y-104605908D01*
X147672883Y-104599501D01*
X147672881Y-104599500D01*
X147672873Y-104599500D01*
X147672864Y-104599500D01*
X145777129Y-104599500D01*
X145777123Y-104599501D01*
X145717516Y-104605908D01*
X145582671Y-104656202D01*
X145582664Y-104656206D01*
X145467455Y-104742452D01*
X145467452Y-104742455D01*
X145381206Y-104857664D01*
X145381202Y-104857671D01*
X145330908Y-104992517D01*
X145324501Y-105052116D01*
X145324500Y-105052135D01*
X145324500Y-106947870D01*
X136769242Y-106947870D01*
X136785635Y-106886692D01*
X136805468Y-106660000D01*
X136785635Y-106433308D01*
X136726739Y-106213504D01*
X136630568Y-106007266D01*
X136500047Y-105820861D01*
X136500045Y-105820858D01*
X136339141Y-105659954D01*
X136152734Y-105529432D01*
X136152728Y-105529429D01*
X136094725Y-105502382D01*
X136042285Y-105456210D01*
X136023133Y-105389017D01*
X136043348Y-105322135D01*
X136094725Y-105277618D01*
X136152734Y-105250568D01*
X136339139Y-105120047D01*
X136500047Y-104959139D01*
X136630568Y-104772734D01*
X136726739Y-104566496D01*
X136785635Y-104346692D01*
X136805468Y-104120000D01*
X136785635Y-103893308D01*
X136726739Y-103673504D01*
X136630568Y-103467266D01*
X136500047Y-103280861D01*
X136500045Y-103280858D01*
X136339141Y-103119954D01*
X136152734Y-102989432D01*
X136152728Y-102989429D01*
X136094725Y-102962382D01*
X136042285Y-102916210D01*
X136023133Y-102849017D01*
X136043348Y-102782135D01*
X136094725Y-102737618D01*
X136105334Y-102732671D01*
X136152734Y-102710568D01*
X136339139Y-102580047D01*
X136500047Y-102419139D01*
X136630568Y-102232734D01*
X136726739Y-102026496D01*
X136785635Y-101806692D01*
X136804156Y-101595000D01*
X136805468Y-101580001D01*
X136805468Y-101579998D01*
X136793723Y-101445753D01*
X136785635Y-101353308D01*
X136726739Y-101133504D01*
X136640176Y-100947870D01*
X145559500Y-100947870D01*
X145559501Y-100947876D01*
X145565908Y-101007483D01*
X145616202Y-101142328D01*
X145616206Y-101142335D01*
X145702452Y-101257544D01*
X145702455Y-101257547D01*
X145817664Y-101343793D01*
X145817671Y-101343797D01*
X145952517Y-101394091D01*
X145952516Y-101394091D01*
X145959444Y-101394835D01*
X146012127Y-101400500D01*
X147907872Y-101400499D01*
X147967483Y-101394091D01*
X148102331Y-101343796D01*
X148217546Y-101257546D01*
X148303796Y-101142331D01*
X148332455Y-101065493D01*
X148374326Y-101009559D01*
X148439790Y-100985141D01*
X148508063Y-100999992D01*
X148539866Y-101024843D01*
X148547302Y-101032920D01*
X148548215Y-101033912D01*
X148548222Y-101033918D01*
X148731365Y-101176464D01*
X148731371Y-101176468D01*
X148731374Y-101176470D01*
X148935497Y-101286936D01*
X149049487Y-101326068D01*
X149155015Y-101362297D01*
X149155017Y-101362297D01*
X149155019Y-101362298D01*
X149383951Y-101400500D01*
X149383952Y-101400500D01*
X149616048Y-101400500D01*
X149616049Y-101400500D01*
X149844981Y-101362298D01*
X150064503Y-101286936D01*
X150268626Y-101176470D01*
X150451784Y-101033913D01*
X150608979Y-100863153D01*
X150735924Y-100668849D01*
X150829157Y-100456300D01*
X150886134Y-100231305D01*
X150888903Y-100197893D01*
X150905300Y-100000006D01*
X150905300Y-99999993D01*
X150886135Y-99768702D01*
X150886133Y-99768691D01*
X150829157Y-99543699D01*
X150735924Y-99331151D01*
X150608983Y-99136852D01*
X150608980Y-99136849D01*
X150608979Y-99136847D01*
X150451784Y-98966087D01*
X150451779Y-98966083D01*
X150451777Y-98966081D01*
X150268634Y-98823535D01*
X150268628Y-98823531D01*
X150064504Y-98713064D01*
X150064495Y-98713061D01*
X149844984Y-98637702D01*
X149654450Y-98605908D01*
X149616049Y-98599500D01*
X149383951Y-98599500D01*
X149345550Y-98605908D01*
X149155015Y-98637702D01*
X148935504Y-98713061D01*
X148935495Y-98713064D01*
X148731371Y-98823531D01*
X148731365Y-98823535D01*
X148548222Y-98966081D01*
X148548218Y-98966085D01*
X148539866Y-98975158D01*
X148479979Y-99011148D01*
X148410141Y-99009047D01*
X148352525Y-98969522D01*
X148332455Y-98934507D01*
X148303797Y-98857671D01*
X148303793Y-98857664D01*
X148217547Y-98742455D01*
X148217544Y-98742452D01*
X148102335Y-98656206D01*
X148102328Y-98656202D01*
X147967482Y-98605908D01*
X147967483Y-98605908D01*
X147907883Y-98599501D01*
X147907881Y-98599500D01*
X147907873Y-98599500D01*
X147907864Y-98599500D01*
X146012129Y-98599500D01*
X146012123Y-98599501D01*
X145952516Y-98605908D01*
X145817671Y-98656202D01*
X145817664Y-98656206D01*
X145702455Y-98742452D01*
X145702452Y-98742455D01*
X145616206Y-98857664D01*
X145616202Y-98857671D01*
X145565908Y-98992517D01*
X145559501Y-99052116D01*
X145559500Y-99052135D01*
X145559500Y-100947870D01*
X136640176Y-100947870D01*
X136630568Y-100927266D01*
X136500047Y-100740861D01*
X136500045Y-100740858D01*
X136339141Y-100579954D01*
X136152734Y-100449432D01*
X136152728Y-100449429D01*
X136094725Y-100422382D01*
X136042285Y-100376210D01*
X136023133Y-100309017D01*
X136043348Y-100242135D01*
X136094725Y-100197618D01*
X136152734Y-100170568D01*
X136339139Y-100040047D01*
X136500047Y-99879139D01*
X136630568Y-99692734D01*
X136726739Y-99486496D01*
X136785635Y-99266692D01*
X136805468Y-99040000D01*
X136785635Y-98813308D01*
X136726739Y-98593504D01*
X136630568Y-98387266D01*
X136500047Y-98200861D01*
X136500045Y-98200858D01*
X136339141Y-98039954D01*
X136152734Y-97909432D01*
X136152728Y-97909429D01*
X136094725Y-97882382D01*
X136042285Y-97836210D01*
X136023133Y-97769017D01*
X136043348Y-97702135D01*
X136094725Y-97657618D01*
X136095319Y-97657341D01*
X136152734Y-97630568D01*
X136339139Y-97500047D01*
X136500047Y-97339139D01*
X136630568Y-97152734D01*
X136726739Y-96946496D01*
X136785635Y-96726692D01*
X136805468Y-96500000D01*
X136803426Y-96476665D01*
X136785635Y-96273313D01*
X136785635Y-96273308D01*
X136726739Y-96053504D01*
X136630568Y-95847266D01*
X136500047Y-95660861D01*
X136500045Y-95660858D01*
X136339141Y-95499954D01*
X136152734Y-95369432D01*
X136152728Y-95369429D01*
X136094725Y-95342382D01*
X136042285Y-95296210D01*
X136023133Y-95229017D01*
X136043348Y-95162135D01*
X136094725Y-95117618D01*
X136152734Y-95090568D01*
X136339139Y-94960047D01*
X136500047Y-94799139D01*
X136630568Y-94612734D01*
X136726739Y-94406496D01*
X136785635Y-94186692D01*
X136805468Y-93960000D01*
X136804407Y-93947870D01*
X145559500Y-93947870D01*
X145559501Y-93947876D01*
X145565908Y-94007483D01*
X145616202Y-94142328D01*
X145616206Y-94142335D01*
X145702452Y-94257544D01*
X145702455Y-94257547D01*
X145817664Y-94343793D01*
X145817671Y-94343797D01*
X145952517Y-94394091D01*
X145952516Y-94394091D01*
X145959444Y-94394835D01*
X146012127Y-94400500D01*
X147907872Y-94400499D01*
X147967483Y-94394091D01*
X148102331Y-94343796D01*
X148217546Y-94257546D01*
X148303796Y-94142331D01*
X148332455Y-94065493D01*
X148374326Y-94009559D01*
X148439790Y-93985141D01*
X148508063Y-93999992D01*
X148539866Y-94024843D01*
X148547302Y-94032920D01*
X148548215Y-94033912D01*
X148548222Y-94033918D01*
X148731365Y-94176464D01*
X148731371Y-94176468D01*
X148731374Y-94176470D01*
X148935497Y-94286936D01*
X149046650Y-94325095D01*
X149155015Y-94362297D01*
X149155017Y-94362297D01*
X149155019Y-94362298D01*
X149383951Y-94400500D01*
X149383952Y-94400500D01*
X149616048Y-94400500D01*
X149616049Y-94400500D01*
X149844981Y-94362298D01*
X150064503Y-94286936D01*
X150268626Y-94176470D01*
X150451784Y-94033913D01*
X150608979Y-93863153D01*
X150735924Y-93668849D01*
X150829157Y-93456300D01*
X150886134Y-93231305D01*
X150886385Y-93228278D01*
X150905300Y-93000006D01*
X150905300Y-92999993D01*
X150886135Y-92768702D01*
X150886133Y-92768691D01*
X150829157Y-92543699D01*
X150735924Y-92331151D01*
X150608983Y-92136852D01*
X150608980Y-92136849D01*
X150608979Y-92136847D01*
X150451784Y-91966087D01*
X150451779Y-91966083D01*
X150451777Y-91966081D01*
X150268634Y-91823535D01*
X150268628Y-91823531D01*
X150064504Y-91713064D01*
X150064495Y-91713061D01*
X149844984Y-91637702D01*
X149654450Y-91605908D01*
X149616049Y-91599500D01*
X149383951Y-91599500D01*
X149345550Y-91605908D01*
X149155015Y-91637702D01*
X148935504Y-91713061D01*
X148935495Y-91713064D01*
X148731371Y-91823531D01*
X148731365Y-91823535D01*
X148548222Y-91966081D01*
X148548218Y-91966085D01*
X148539866Y-91975158D01*
X148479979Y-92011148D01*
X148410141Y-92009047D01*
X148352525Y-91969522D01*
X148332455Y-91934507D01*
X148303797Y-91857671D01*
X148303793Y-91857664D01*
X148217547Y-91742455D01*
X148217544Y-91742452D01*
X148102335Y-91656206D01*
X148102328Y-91656202D01*
X147967482Y-91605908D01*
X147967483Y-91605908D01*
X147907883Y-91599501D01*
X147907881Y-91599500D01*
X147907873Y-91599500D01*
X147907864Y-91599500D01*
X146012129Y-91599500D01*
X146012123Y-91599501D01*
X145952516Y-91605908D01*
X145817671Y-91656202D01*
X145817664Y-91656206D01*
X145702455Y-91742452D01*
X145702452Y-91742455D01*
X145616206Y-91857664D01*
X145616202Y-91857671D01*
X145565908Y-91992517D01*
X145559501Y-92052116D01*
X145559500Y-92052135D01*
X145559500Y-93947870D01*
X136804407Y-93947870D01*
X136785635Y-93733308D01*
X136726739Y-93513504D01*
X136630568Y-93307266D01*
X136500047Y-93120861D01*
X136500045Y-93120858D01*
X136339141Y-92959954D01*
X136152734Y-92829432D01*
X136152732Y-92829431D01*
X135946497Y-92733261D01*
X135946488Y-92733258D01*
X135726697Y-92674366D01*
X135726693Y-92674365D01*
X135726692Y-92674365D01*
X135726691Y-92674364D01*
X135726686Y-92674364D01*
X135500002Y-92654532D01*
X135499998Y-92654532D01*
X135273313Y-92674364D01*
X135273302Y-92674366D01*
X135053511Y-92733258D01*
X135053502Y-92733261D01*
X134847267Y-92829431D01*
X134847265Y-92829432D01*
X134660858Y-92959954D01*
X134499954Y-93120858D01*
X134369432Y-93307265D01*
X134369431Y-93307267D01*
X134273261Y-93513502D01*
X134273258Y-93513511D01*
X134214366Y-93733302D01*
X134214364Y-93733313D01*
X134194532Y-93959998D01*
X134194532Y-93960001D01*
X134214364Y-94186686D01*
X134214366Y-94186697D01*
X134273258Y-94406488D01*
X134273261Y-94406497D01*
X134369431Y-94612732D01*
X134369432Y-94612734D01*
X134499954Y-94799141D01*
X134660858Y-94960045D01*
X134660861Y-94960047D01*
X134847266Y-95090568D01*
X134905275Y-95117618D01*
X134957714Y-95163791D01*
X134976866Y-95230984D01*
X134956650Y-95297865D01*
X134905275Y-95342382D01*
X134847267Y-95369431D01*
X134847265Y-95369432D01*
X134660858Y-95499954D01*
X134499954Y-95660858D01*
X134369432Y-95847265D01*
X134369431Y-95847267D01*
X134273261Y-96053502D01*
X134273258Y-96053511D01*
X134214366Y-96273302D01*
X134214364Y-96273313D01*
X134194532Y-96499998D01*
X134194532Y-96500001D01*
X134214364Y-96726686D01*
X134214366Y-96726697D01*
X134273258Y-96946488D01*
X134273261Y-96946497D01*
X134369431Y-97152732D01*
X134369432Y-97152734D01*
X134499954Y-97339141D01*
X134660858Y-97500045D01*
X134660861Y-97500047D01*
X134847266Y-97630568D01*
X134889959Y-97650476D01*
X134905275Y-97657618D01*
X134957714Y-97703791D01*
X134976866Y-97770984D01*
X134956650Y-97837865D01*
X134905275Y-97882382D01*
X134847267Y-97909431D01*
X134847265Y-97909432D01*
X134660858Y-98039954D01*
X134499954Y-98200858D01*
X134369432Y-98387265D01*
X134369431Y-98387267D01*
X134273261Y-98593502D01*
X134273258Y-98593511D01*
X134214366Y-98813302D01*
X134214364Y-98813313D01*
X134194532Y-99039998D01*
X134194532Y-99040001D01*
X134214364Y-99266686D01*
X134214366Y-99266697D01*
X134273258Y-99486488D01*
X134273261Y-99486497D01*
X134369431Y-99692732D01*
X134369432Y-99692734D01*
X134499954Y-99879141D01*
X134660858Y-100040045D01*
X134707693Y-100072839D01*
X134847266Y-100170568D01*
X134905275Y-100197618D01*
X134957714Y-100243791D01*
X134976866Y-100310984D01*
X134956650Y-100377865D01*
X134905275Y-100422382D01*
X134847267Y-100449431D01*
X134847265Y-100449432D01*
X134660858Y-100579954D01*
X134499954Y-100740858D01*
X134369432Y-100927265D01*
X134369431Y-100927267D01*
X134273261Y-101133502D01*
X134273258Y-101133511D01*
X134214366Y-101353302D01*
X134214364Y-101353313D01*
X134194532Y-101579998D01*
X134194532Y-101580001D01*
X134214364Y-101806686D01*
X134214366Y-101806697D01*
X134273258Y-102026488D01*
X134273261Y-102026497D01*
X134369431Y-102232732D01*
X134369432Y-102232734D01*
X134499954Y-102419141D01*
X134660858Y-102580045D01*
X134660861Y-102580047D01*
X134847266Y-102710568D01*
X134894666Y-102732671D01*
X134905275Y-102737618D01*
X134957714Y-102783791D01*
X134976866Y-102850984D01*
X134956650Y-102917865D01*
X134905275Y-102962382D01*
X134847267Y-102989431D01*
X134847265Y-102989432D01*
X134660858Y-103119954D01*
X134499954Y-103280858D01*
X134369432Y-103467265D01*
X134369431Y-103467267D01*
X134273261Y-103673502D01*
X134273258Y-103673511D01*
X134214366Y-103893302D01*
X134214364Y-103893313D01*
X134194532Y-104119998D01*
X134194532Y-104120001D01*
X134214364Y-104346686D01*
X134214366Y-104346697D01*
X134273258Y-104566488D01*
X134273261Y-104566497D01*
X134369431Y-104772732D01*
X134369432Y-104772734D01*
X134499954Y-104959141D01*
X134660858Y-105120045D01*
X134660861Y-105120047D01*
X134847266Y-105250568D01*
X134905275Y-105277618D01*
X134957714Y-105323791D01*
X134976866Y-105390984D01*
X134956650Y-105457865D01*
X134905275Y-105502382D01*
X134847267Y-105529431D01*
X134847265Y-105529432D01*
X134660858Y-105659954D01*
X134499954Y-105820858D01*
X134369432Y-106007265D01*
X134369431Y-106007267D01*
X134273261Y-106213502D01*
X134273258Y-106213511D01*
X134214366Y-106433302D01*
X134214364Y-106433313D01*
X134194532Y-106659998D01*
X134194532Y-106660001D01*
X134214364Y-106886686D01*
X134214366Y-106886697D01*
X134273258Y-107106488D01*
X134273261Y-107106497D01*
X134369431Y-107312732D01*
X134369432Y-107312734D01*
X134499954Y-107499141D01*
X134660858Y-107660045D01*
X134660861Y-107660047D01*
X134847266Y-107790568D01*
X134905275Y-107817618D01*
X134957714Y-107863791D01*
X134976866Y-107930984D01*
X134956650Y-107997865D01*
X134905275Y-108042382D01*
X134847267Y-108069431D01*
X134847265Y-108069432D01*
X134660858Y-108199954D01*
X134499954Y-108360858D01*
X134369432Y-108547265D01*
X134369431Y-108547267D01*
X134273261Y-108753502D01*
X134273258Y-108753511D01*
X134214366Y-108973302D01*
X134214364Y-108973313D01*
X134194532Y-109199998D01*
X134194532Y-109200001D01*
X134214364Y-109426686D01*
X134214366Y-109426697D01*
X134273258Y-109646488D01*
X134273261Y-109646497D01*
X134369431Y-109852732D01*
X134369432Y-109852734D01*
X134499954Y-110039141D01*
X134660858Y-110200045D01*
X134660861Y-110200047D01*
X134847266Y-110330568D01*
X134905275Y-110357618D01*
X134957714Y-110403791D01*
X134976866Y-110470984D01*
X134956650Y-110537865D01*
X134905275Y-110582382D01*
X134847267Y-110609431D01*
X134847265Y-110609432D01*
X134660858Y-110739954D01*
X134499954Y-110900858D01*
X134369432Y-111087265D01*
X134369431Y-111087267D01*
X134273261Y-111293502D01*
X134273258Y-111293511D01*
X134214366Y-111513302D01*
X134214364Y-111513313D01*
X134194532Y-111739998D01*
X134194532Y-111740001D01*
X134214364Y-111966686D01*
X134214366Y-111966697D01*
X134273258Y-112186488D01*
X134273261Y-112186497D01*
X134369431Y-112392732D01*
X134369432Y-112392734D01*
X134499954Y-112579141D01*
X134660858Y-112740045D01*
X134664300Y-112742455D01*
X134847266Y-112870568D01*
X134879035Y-112885382D01*
X134905275Y-112897618D01*
X134957714Y-112943791D01*
X134976866Y-113010984D01*
X134956650Y-113077865D01*
X134905275Y-113122382D01*
X134847267Y-113149431D01*
X134847265Y-113149432D01*
X134660858Y-113279954D01*
X134499954Y-113440858D01*
X134369432Y-113627265D01*
X134369431Y-113627267D01*
X134273261Y-113833502D01*
X134273258Y-113833511D01*
X134214366Y-114053302D01*
X134214364Y-114053313D01*
X134194532Y-114279998D01*
X134194532Y-114280001D01*
X129185468Y-114280001D01*
X129185468Y-114280000D01*
X129165635Y-114053308D01*
X129106739Y-113833504D01*
X129010568Y-113627266D01*
X128882543Y-113444425D01*
X128880045Y-113440858D01*
X128719141Y-113279954D01*
X128532734Y-113149432D01*
X128532732Y-113149431D01*
X128505756Y-113136852D01*
X128474132Y-113122105D01*
X128421694Y-113075934D01*
X128402542Y-113008740D01*
X128422758Y-112941859D01*
X128474134Y-112897341D01*
X128532484Y-112870132D01*
X128718820Y-112739657D01*
X128879657Y-112578820D01*
X129010134Y-112392482D01*
X129106265Y-112186326D01*
X129106269Y-112186317D01*
X129158872Y-111990000D01*
X128195686Y-111990000D01*
X128200080Y-111985606D01*
X128252741Y-111894394D01*
X128280000Y-111792661D01*
X128280000Y-111687339D01*
X128252741Y-111585606D01*
X128200080Y-111494394D01*
X128195686Y-111490000D01*
X129158872Y-111490000D01*
X129158872Y-111489999D01*
X129106269Y-111293682D01*
X129106265Y-111293673D01*
X129010134Y-111087517D01*
X128879657Y-110901179D01*
X128718820Y-110740342D01*
X128532482Y-110609865D01*
X128474133Y-110582657D01*
X128421694Y-110536484D01*
X128402542Y-110469291D01*
X128422758Y-110402410D01*
X128474129Y-110357895D01*
X128532734Y-110330568D01*
X128719139Y-110200047D01*
X128880047Y-110039139D01*
X129010568Y-109852734D01*
X129106739Y-109646496D01*
X129165635Y-109426692D01*
X129185468Y-109200000D01*
X129165635Y-108973308D01*
X129106739Y-108753504D01*
X129010568Y-108547266D01*
X128880047Y-108360861D01*
X128880045Y-108360858D01*
X128719141Y-108199954D01*
X128532734Y-108069432D01*
X128532728Y-108069429D01*
X128474725Y-108042382D01*
X128422285Y-107996210D01*
X128403133Y-107929017D01*
X128423348Y-107862135D01*
X128474725Y-107817618D01*
X128532734Y-107790568D01*
X128719139Y-107660047D01*
X128880047Y-107499139D01*
X129010568Y-107312734D01*
X129106739Y-107106496D01*
X129165635Y-106886692D01*
X129185468Y-106660000D01*
X129165635Y-106433308D01*
X129106739Y-106213504D01*
X129010568Y-106007266D01*
X128880047Y-105820861D01*
X128880045Y-105820858D01*
X128719141Y-105659954D01*
X128532734Y-105529432D01*
X128532728Y-105529429D01*
X128474725Y-105502382D01*
X128422285Y-105456210D01*
X128403133Y-105389017D01*
X128423348Y-105322135D01*
X128474725Y-105277618D01*
X128532734Y-105250568D01*
X128719139Y-105120047D01*
X128880047Y-104959139D01*
X129010568Y-104772734D01*
X129106739Y-104566496D01*
X129165635Y-104346692D01*
X129185468Y-104120000D01*
X129165635Y-103893308D01*
X129106739Y-103673504D01*
X129010568Y-103467266D01*
X128880047Y-103280861D01*
X128880045Y-103280858D01*
X128719141Y-103119954D01*
X128532734Y-102989432D01*
X128532732Y-102989431D01*
X128490243Y-102969618D01*
X128474132Y-102962105D01*
X128421694Y-102915934D01*
X128402542Y-102848740D01*
X128422758Y-102781859D01*
X128474134Y-102737341D01*
X128532484Y-102710132D01*
X128718820Y-102579657D01*
X128879657Y-102418820D01*
X129010134Y-102232482D01*
X129106265Y-102026326D01*
X129106269Y-102026317D01*
X129158872Y-101830000D01*
X128195686Y-101830000D01*
X128200080Y-101825606D01*
X128252741Y-101734394D01*
X128280000Y-101632661D01*
X128280000Y-101527339D01*
X128252741Y-101425606D01*
X128200080Y-101334394D01*
X128195686Y-101330000D01*
X129171260Y-101330000D01*
X129199514Y-101309370D01*
X129269260Y-101305215D01*
X129329143Y-101338378D01*
X129863181Y-101872416D01*
X129896666Y-101933739D01*
X129899500Y-101960097D01*
X129899500Y-111417587D01*
X129879815Y-111484626D01*
X129872450Y-111494896D01*
X129870186Y-111497734D01*
X129774211Y-111650476D01*
X129714631Y-111820745D01*
X129714630Y-111820750D01*
X129694435Y-111999996D01*
X129694435Y-112000003D01*
X129714630Y-112179249D01*
X129714631Y-112179254D01*
X129774211Y-112349523D01*
X129841396Y-112456447D01*
X129870184Y-112502262D01*
X129997738Y-112629816D01*
X130069497Y-112674905D01*
X130130221Y-112713061D01*
X130150478Y-112725789D01*
X130198104Y-112742454D01*
X130320745Y-112785368D01*
X130320750Y-112785369D01*
X130499996Y-112805565D01*
X130500000Y-112805565D01*
X130500004Y-112805565D01*
X130679249Y-112785369D01*
X130679252Y-112785368D01*
X130679255Y-112785368D01*
X130849522Y-112725789D01*
X131002262Y-112629816D01*
X131129816Y-112502262D01*
X131225789Y-112349522D01*
X131285368Y-112179255D01*
X131289791Y-112140000D01*
X131305565Y-112000003D01*
X131305565Y-111999996D01*
X131285369Y-111820750D01*
X131285368Y-111820745D01*
X131257113Y-111739998D01*
X131225789Y-111650478D01*
X131129816Y-111497738D01*
X131129814Y-111497736D01*
X131129813Y-111497734D01*
X131127550Y-111494896D01*
X131126659Y-111492715D01*
X131126111Y-111491842D01*
X131126264Y-111491745D01*
X131101144Y-111430209D01*
X131100500Y-111417587D01*
X131100500Y-101749060D01*
X131100501Y-101749047D01*
X131100501Y-101580944D01*
X131100501Y-101580943D01*
X131059577Y-101428216D01*
X131039875Y-101394091D01*
X130980524Y-101291290D01*
X130980518Y-101291282D01*
X130111618Y-100422382D01*
X129171940Y-99482705D01*
X129138456Y-99421383D01*
X129139847Y-99362931D01*
X129165635Y-99266692D01*
X129185468Y-99040000D01*
X129165635Y-98813308D01*
X129106739Y-98593504D01*
X129010568Y-98387266D01*
X128880047Y-98200861D01*
X128880045Y-98200858D01*
X128719141Y-98039954D01*
X128532734Y-97909432D01*
X128532732Y-97909431D01*
X128474725Y-97882382D01*
X128474132Y-97882105D01*
X128421694Y-97835934D01*
X128402542Y-97768740D01*
X128422758Y-97701859D01*
X128474134Y-97657341D01*
X128532484Y-97630132D01*
X128718820Y-97499657D01*
X128879657Y-97338820D01*
X129010134Y-97152482D01*
X129106265Y-96946326D01*
X129106269Y-96946317D01*
X129158872Y-96750000D01*
X128195686Y-96750000D01*
X128200080Y-96745606D01*
X128252741Y-96654394D01*
X128280000Y-96552661D01*
X128280000Y-96447339D01*
X128252741Y-96345606D01*
X128200080Y-96254394D01*
X128195686Y-96250000D01*
X129158872Y-96250000D01*
X129158872Y-96249999D01*
X129106269Y-96053682D01*
X129106265Y-96053673D01*
X129010134Y-95847517D01*
X128879657Y-95661179D01*
X128718820Y-95500342D01*
X128693779Y-95482808D01*
X128650154Y-95428230D01*
X128642962Y-95358732D01*
X128674484Y-95296377D01*
X128734714Y-95260964D01*
X128751650Y-95257943D01*
X128787483Y-95254091D01*
X128922328Y-95203797D01*
X128922327Y-95203797D01*
X128922331Y-95203796D01*
X129037546Y-95117546D01*
X129123796Y-95002331D01*
X129174091Y-94867483D01*
X129180500Y-94807873D01*
X129180499Y-93112128D01*
X129174091Y-93052517D01*
X129154503Y-93000000D01*
X129123797Y-92917671D01*
X129123793Y-92917664D01*
X129037547Y-92802455D01*
X129037544Y-92802452D01*
X128922335Y-92716206D01*
X128922328Y-92716202D01*
X128787482Y-92665908D01*
X128787483Y-92665908D01*
X128727883Y-92659501D01*
X128727881Y-92659500D01*
X128727873Y-92659500D01*
X128727864Y-92659500D01*
X127032129Y-92659500D01*
X127032123Y-92659501D01*
X126972516Y-92665908D01*
X126837671Y-92716202D01*
X126837664Y-92716206D01*
X126722455Y-92802452D01*
X126722452Y-92802455D01*
X126636206Y-92917664D01*
X126636202Y-92917671D01*
X126585908Y-93052517D01*
X126579599Y-93111202D01*
X126579501Y-93112123D01*
X126579500Y-93112135D01*
X126579500Y-94807870D01*
X126579501Y-94807876D01*
X126585908Y-94867483D01*
X126636202Y-95002328D01*
X126636206Y-95002335D01*
X126722452Y-95117544D01*
X126722455Y-95117547D01*
X126837664Y-95203793D01*
X126837671Y-95203797D01*
X126972513Y-95254090D01*
X126972514Y-95254090D01*
X126972517Y-95254091D01*
X127008353Y-95257944D01*
X127072901Y-95284679D01*
X127112751Y-95342070D01*
X127115246Y-95411896D01*
X127079595Y-95471985D01*
X127066223Y-95482805D01*
X127041182Y-95500339D01*
X126880342Y-95661179D01*
X126749865Y-95847517D01*
X126653734Y-96053673D01*
X126653730Y-96053682D01*
X126601127Y-96249999D01*
X126601128Y-96250000D01*
X127564314Y-96250000D01*
X127559920Y-96254394D01*
X127507259Y-96345606D01*
X127480000Y-96447339D01*
X127480000Y-96552661D01*
X127507259Y-96654394D01*
X127559920Y-96745606D01*
X127564314Y-96750000D01*
X126601128Y-96750000D01*
X126653730Y-96946317D01*
X126653734Y-96946326D01*
X126749865Y-97152482D01*
X126880342Y-97338820D01*
X127041179Y-97499657D01*
X127227518Y-97630134D01*
X127227520Y-97630135D01*
X127285865Y-97657342D01*
X127338305Y-97703514D01*
X127357457Y-97770707D01*
X127337242Y-97837589D01*
X127285867Y-97882105D01*
X127227268Y-97909431D01*
X127227264Y-97909433D01*
X127040858Y-98039954D01*
X126879954Y-98200858D01*
X126749432Y-98387265D01*
X126749431Y-98387267D01*
X126653261Y-98593502D01*
X126653258Y-98593511D01*
X126594366Y-98813302D01*
X126594364Y-98813313D01*
X126574532Y-99039998D01*
X126574532Y-99040001D01*
X126594364Y-99266686D01*
X126594366Y-99266697D01*
X126653258Y-99486488D01*
X126653261Y-99486497D01*
X126749431Y-99692732D01*
X126749432Y-99692734D01*
X126879954Y-99879141D01*
X127040858Y-100040045D01*
X127087693Y-100072839D01*
X127227266Y-100170568D01*
X127285865Y-100197893D01*
X127338305Y-100244065D01*
X127357457Y-100311258D01*
X127337242Y-100378139D01*
X127285867Y-100422657D01*
X127227515Y-100449867D01*
X127041179Y-100580342D01*
X126880342Y-100741179D01*
X126749865Y-100927517D01*
X126653734Y-101133673D01*
X126653730Y-101133682D01*
X126601127Y-101329999D01*
X126601128Y-101330000D01*
X127564314Y-101330000D01*
X127559920Y-101334394D01*
X127507259Y-101425606D01*
X127480000Y-101527339D01*
X127480000Y-101632661D01*
X127507259Y-101734394D01*
X127559920Y-101825606D01*
X127564314Y-101830000D01*
X126601128Y-101830000D01*
X126653730Y-102026317D01*
X126653734Y-102026326D01*
X126749865Y-102232482D01*
X126880342Y-102418820D01*
X127041179Y-102579657D01*
X127227518Y-102710134D01*
X127227520Y-102710135D01*
X127285865Y-102737342D01*
X127338305Y-102783514D01*
X127357457Y-102850707D01*
X127337242Y-102917589D01*
X127285867Y-102962105D01*
X127227268Y-102989431D01*
X127227264Y-102989433D01*
X127040858Y-103119954D01*
X126879954Y-103280858D01*
X126749432Y-103467265D01*
X126749431Y-103467267D01*
X126653261Y-103673502D01*
X126653258Y-103673511D01*
X126594366Y-103893302D01*
X126594364Y-103893313D01*
X126574532Y-104119998D01*
X126574532Y-104120001D01*
X126594364Y-104346686D01*
X126594366Y-104346697D01*
X126653258Y-104566488D01*
X126653261Y-104566497D01*
X126749431Y-104772732D01*
X126749432Y-104772734D01*
X126879954Y-104959141D01*
X127040858Y-105120045D01*
X127040861Y-105120047D01*
X127227266Y-105250568D01*
X127285275Y-105277618D01*
X127337714Y-105323791D01*
X127356866Y-105390984D01*
X127336650Y-105457865D01*
X127285275Y-105502382D01*
X127227267Y-105529431D01*
X127227265Y-105529432D01*
X127040858Y-105659954D01*
X126879954Y-105820858D01*
X126749432Y-106007265D01*
X126749431Y-106007267D01*
X126653261Y-106213502D01*
X126653258Y-106213511D01*
X126594366Y-106433302D01*
X126594364Y-106433313D01*
X126574532Y-106659998D01*
X126574532Y-106660001D01*
X126594364Y-106886686D01*
X126594366Y-106886697D01*
X126653258Y-107106488D01*
X126653261Y-107106497D01*
X126749431Y-107312732D01*
X126749432Y-107312734D01*
X126879954Y-107499141D01*
X127040858Y-107660045D01*
X127040861Y-107660047D01*
X127227266Y-107790568D01*
X127285275Y-107817618D01*
X127337714Y-107863791D01*
X127356866Y-107930984D01*
X127336650Y-107997865D01*
X127285275Y-108042382D01*
X127227267Y-108069431D01*
X127227265Y-108069432D01*
X127040858Y-108199954D01*
X126879954Y-108360858D01*
X126749432Y-108547265D01*
X126749431Y-108547267D01*
X126653261Y-108753502D01*
X126653258Y-108753511D01*
X126594366Y-108973302D01*
X126594364Y-108973313D01*
X126574532Y-109199998D01*
X126574532Y-109200001D01*
X126594364Y-109426686D01*
X126594366Y-109426697D01*
X126653258Y-109646488D01*
X126653261Y-109646497D01*
X126749431Y-109852732D01*
X126749432Y-109852734D01*
X126879954Y-110039141D01*
X127040858Y-110200045D01*
X127040861Y-110200047D01*
X127227266Y-110330568D01*
X127285865Y-110357893D01*
X127338305Y-110404065D01*
X127357457Y-110471258D01*
X127337242Y-110538139D01*
X127285867Y-110582657D01*
X127227515Y-110609867D01*
X127041179Y-110740342D01*
X126880342Y-110901179D01*
X126749865Y-111087517D01*
X126653734Y-111293673D01*
X126653730Y-111293682D01*
X126601127Y-111489999D01*
X126601128Y-111490000D01*
X127564314Y-111490000D01*
X127559920Y-111494394D01*
X127507259Y-111585606D01*
X127480000Y-111687339D01*
X127480000Y-111792661D01*
X127507259Y-111894394D01*
X127559920Y-111985606D01*
X127564314Y-111990000D01*
X126601128Y-111990000D01*
X126653730Y-112186317D01*
X126653734Y-112186326D01*
X126749865Y-112392482D01*
X126880342Y-112578820D01*
X127041179Y-112739657D01*
X127227518Y-112870134D01*
X127227520Y-112870135D01*
X127285865Y-112897342D01*
X127338305Y-112943514D01*
X127357457Y-113010707D01*
X127337242Y-113077589D01*
X127285867Y-113122105D01*
X127227268Y-113149431D01*
X127227264Y-113149433D01*
X127040858Y-113279954D01*
X126879954Y-113440858D01*
X126749432Y-113627265D01*
X126749431Y-113627267D01*
X126653261Y-113833502D01*
X126653258Y-113833511D01*
X126594366Y-114053302D01*
X126594364Y-114053313D01*
X126574532Y-114279998D01*
X126574532Y-114280001D01*
X118186284Y-114280001D01*
X118190115Y-114266536D01*
X118210643Y-114045000D01*
X118190115Y-113823464D01*
X118188242Y-113816880D01*
X122846672Y-113816880D01*
X122962821Y-113888797D01*
X122962822Y-113888798D01*
X123170195Y-113969134D01*
X123388807Y-114010000D01*
X123611193Y-114010000D01*
X123829809Y-113969133D01*
X124037168Y-113888801D01*
X124037181Y-113888795D01*
X124153326Y-113816879D01*
X123500001Y-113163553D01*
X123500000Y-113163553D01*
X122846672Y-113816879D01*
X122846672Y-113816880D01*
X118188242Y-113816880D01*
X118129229Y-113609472D01*
X118129224Y-113609461D01*
X118030061Y-113410316D01*
X118030056Y-113410308D01*
X117895979Y-113232761D01*
X117731562Y-113082876D01*
X117731560Y-113082874D01*
X117542404Y-112965754D01*
X117542398Y-112965752D01*
X117334940Y-112885382D01*
X117116243Y-112844500D01*
X116893757Y-112844500D01*
X116675060Y-112885382D01*
X116548254Y-112934507D01*
X116467601Y-112965752D01*
X116467595Y-112965754D01*
X116278439Y-113082874D01*
X116278437Y-113082876D01*
X116114020Y-113232761D01*
X115979943Y-113410308D01*
X115979938Y-113410316D01*
X115880775Y-113609461D01*
X115880769Y-113609476D01*
X115819885Y-113823462D01*
X115819884Y-113823464D01*
X115799357Y-114044999D01*
X115799357Y-114045000D01*
X110332019Y-114045000D01*
X110329157Y-114033699D01*
X110235924Y-113821151D01*
X110108983Y-113626852D01*
X110108980Y-113626849D01*
X110108979Y-113626847D01*
X110014195Y-113523884D01*
X109983275Y-113461232D01*
X109991135Y-113391806D01*
X110035283Y-113337651D01*
X110062095Y-113323722D01*
X110142326Y-113293798D01*
X110142326Y-113293797D01*
X110142331Y-113293796D01*
X110257546Y-113207546D01*
X110343796Y-113092331D01*
X110394091Y-112957483D01*
X110400500Y-112897873D01*
X110400500Y-112810000D01*
X122294859Y-112810000D01*
X122315378Y-113031439D01*
X122376240Y-113245350D01*
X122475369Y-113444428D01*
X122491137Y-113465308D01*
X122491138Y-113465308D01*
X123100369Y-112856078D01*
X123150000Y-112856078D01*
X123173852Y-112945095D01*
X123219930Y-113024905D01*
X123285095Y-113090070D01*
X123364905Y-113136148D01*
X123453922Y-113160000D01*
X123546078Y-113160000D01*
X123635095Y-113136148D01*
X123714905Y-113090070D01*
X123780070Y-113024905D01*
X123826148Y-112945095D01*
X123850000Y-112856078D01*
X123850000Y-112810000D01*
X123853553Y-112810000D01*
X124508861Y-113465308D01*
X124524631Y-113444425D01*
X124524633Y-113444422D01*
X124623759Y-113245350D01*
X124684621Y-113031439D01*
X124705141Y-112810000D01*
X124705141Y-112809999D01*
X124684621Y-112588560D01*
X124623759Y-112374649D01*
X124524635Y-112175580D01*
X124524630Y-112175572D01*
X124508860Y-112154690D01*
X123853553Y-112809999D01*
X123853553Y-112810000D01*
X123850000Y-112810000D01*
X123850000Y-112763922D01*
X123826148Y-112674905D01*
X123780070Y-112595095D01*
X123714905Y-112529930D01*
X123635095Y-112483852D01*
X123546078Y-112460000D01*
X123453922Y-112460000D01*
X123364905Y-112483852D01*
X123285095Y-112529930D01*
X123219930Y-112595095D01*
X123173852Y-112674905D01*
X123150000Y-112763922D01*
X123150000Y-112856078D01*
X123100369Y-112856078D01*
X123146447Y-112810000D01*
X122491138Y-112154691D01*
X122491137Y-112154691D01*
X122475368Y-112175574D01*
X122376240Y-112374649D01*
X122315378Y-112588560D01*
X122294859Y-112809999D01*
X122294859Y-112810000D01*
X110400500Y-112810000D01*
X110400499Y-111803119D01*
X122846671Y-111803119D01*
X123500000Y-112456447D01*
X123500001Y-112456447D01*
X124153327Y-111803119D01*
X124037178Y-111731202D01*
X124037177Y-111731201D01*
X123829804Y-111650865D01*
X123611193Y-111610000D01*
X123388807Y-111610000D01*
X123170195Y-111650865D01*
X122962824Y-111731200D01*
X122962823Y-111731201D01*
X122846671Y-111803119D01*
X110400499Y-111803119D01*
X110400499Y-111002128D01*
X110394091Y-110942517D01*
X110378554Y-110900861D01*
X110343797Y-110807671D01*
X110343793Y-110807664D01*
X110257547Y-110692455D01*
X110257544Y-110692452D01*
X110142335Y-110606206D01*
X110142328Y-110606202D01*
X110007482Y-110555908D01*
X110007483Y-110555908D01*
X109947883Y-110549501D01*
X109947881Y-110549500D01*
X109947873Y-110549500D01*
X109947864Y-110549500D01*
X108052129Y-110549500D01*
X108052123Y-110549501D01*
X107992516Y-110555908D01*
X107857671Y-110606202D01*
X107857664Y-110606206D01*
X107742455Y-110692452D01*
X107742452Y-110692455D01*
X107656206Y-110807664D01*
X107656202Y-110807671D01*
X107605908Y-110942517D01*
X107599501Y-111002116D01*
X107599501Y-111002123D01*
X107599500Y-111002135D01*
X107599500Y-112897870D01*
X107599501Y-112897876D01*
X107605908Y-112957483D01*
X107656202Y-113092328D01*
X107656206Y-113092335D01*
X107742452Y-113207544D01*
X107742455Y-113207547D01*
X107857664Y-113293793D01*
X107857673Y-113293798D01*
X107937904Y-113323722D01*
X107993838Y-113365593D01*
X108018256Y-113431057D01*
X108003405Y-113499330D01*
X107985802Y-113523886D01*
X107891019Y-113626849D01*
X107764075Y-113821151D01*
X107670842Y-114033699D01*
X107613866Y-114258691D01*
X107613864Y-114258702D01*
X107594700Y-114489993D01*
X107594700Y-114490006D01*
X103000500Y-114490006D01*
X103000500Y-106675000D01*
X115828505Y-106675000D01*
X115881239Y-106860349D01*
X115980368Y-107059425D01*
X116114391Y-107236900D01*
X116278738Y-107386721D01*
X116467820Y-107503797D01*
X116467822Y-107503798D01*
X116675195Y-107584135D01*
X116755000Y-107599052D01*
X116755000Y-106675000D01*
X115828505Y-106675000D01*
X103000500Y-106675000D01*
X103000500Y-106471078D01*
X116655000Y-106471078D01*
X116678852Y-106560095D01*
X116724930Y-106639905D01*
X116790095Y-106705070D01*
X116869905Y-106751148D01*
X116958922Y-106775000D01*
X117051078Y-106775000D01*
X117140095Y-106751148D01*
X117219905Y-106705070D01*
X117249975Y-106675000D01*
X117255000Y-106675000D01*
X117255000Y-107599052D01*
X117334804Y-107584135D01*
X117542177Y-107503798D01*
X117542179Y-107503797D01*
X117731261Y-107386721D01*
X117895608Y-107236900D01*
X118029631Y-107059425D01*
X118128760Y-106860349D01*
X118181495Y-106675000D01*
X117255000Y-106675000D01*
X117249975Y-106675000D01*
X117285070Y-106639905D01*
X117331148Y-106560095D01*
X117355000Y-106471078D01*
X117355000Y-106378922D01*
X117331148Y-106289905D01*
X117285070Y-106210095D01*
X117219905Y-106144930D01*
X117140095Y-106098852D01*
X117051078Y-106075000D01*
X116958922Y-106075000D01*
X116869905Y-106098852D01*
X116790095Y-106144930D01*
X116724930Y-106210095D01*
X116678852Y-106289905D01*
X116655000Y-106378922D01*
X116655000Y-106471078D01*
X103000500Y-106471078D01*
X103000500Y-106175000D01*
X115828505Y-106175000D01*
X116755000Y-106175000D01*
X116755000Y-105250946D01*
X117255000Y-105250946D01*
X117255000Y-106175000D01*
X118181495Y-106175000D01*
X118128760Y-105989650D01*
X118029631Y-105790574D01*
X117895608Y-105613099D01*
X117731261Y-105463278D01*
X117542179Y-105346202D01*
X117542177Y-105346201D01*
X117334799Y-105265864D01*
X117255000Y-105250946D01*
X116755000Y-105250946D01*
X116675200Y-105265864D01*
X116467822Y-105346201D01*
X116467820Y-105346202D01*
X116278738Y-105463278D01*
X116114391Y-105613099D01*
X115980368Y-105790574D01*
X115881239Y-105989650D01*
X115828505Y-106175000D01*
X103000500Y-106175000D01*
X103000500Y-105190000D01*
X122294357Y-105190000D01*
X122314884Y-105411535D01*
X122314885Y-105411537D01*
X122375769Y-105625523D01*
X122375775Y-105625538D01*
X122474938Y-105824683D01*
X122474942Y-105824689D01*
X122609020Y-106002238D01*
X122773437Y-106152123D01*
X122773439Y-106152125D01*
X122962595Y-106269245D01*
X122962596Y-106269245D01*
X122962599Y-106269247D01*
X123170060Y-106349618D01*
X123388757Y-106390500D01*
X123388759Y-106390500D01*
X123611241Y-106390500D01*
X123611243Y-106390500D01*
X123829940Y-106349618D01*
X124037401Y-106269247D01*
X124226562Y-106152124D01*
X124385462Y-106007267D01*
X124390979Y-106002238D01*
X124392670Y-106000000D01*
X124525058Y-105824689D01*
X124624229Y-105625528D01*
X124685115Y-105411536D01*
X124705643Y-105190000D01*
X124692867Y-105052128D01*
X124685115Y-104968464D01*
X124685114Y-104968462D01*
X124684438Y-104966087D01*
X124624229Y-104754472D01*
X124624224Y-104754461D01*
X124525061Y-104555316D01*
X124525056Y-104555308D01*
X124390979Y-104377761D01*
X124226562Y-104227876D01*
X124226560Y-104227874D01*
X124037404Y-104110754D01*
X124037398Y-104110752D01*
X123829940Y-104030382D01*
X123611243Y-103989500D01*
X123388757Y-103989500D01*
X123170060Y-104030382D01*
X123060402Y-104072864D01*
X122962601Y-104110752D01*
X122962595Y-104110754D01*
X122773439Y-104227874D01*
X122773437Y-104227876D01*
X122609020Y-104377761D01*
X122474943Y-104555308D01*
X122474938Y-104555316D01*
X122375775Y-104754461D01*
X122375769Y-104754476D01*
X122314885Y-104968462D01*
X122314884Y-104968464D01*
X122294357Y-105189999D01*
X122294357Y-105190000D01*
X103000500Y-105190000D01*
X103000500Y-104179054D01*
X106999498Y-104179054D01*
X107040423Y-104331785D01*
X107046237Y-104341855D01*
X107119477Y-104468712D01*
X107119481Y-104468717D01*
X107238349Y-104587585D01*
X107238355Y-104587590D01*
X107515139Y-104864374D01*
X107515149Y-104864385D01*
X107519479Y-104868715D01*
X107519480Y-104868716D01*
X107631284Y-104980520D01*
X107631286Y-104980521D01*
X107631290Y-104980524D01*
X107700530Y-105020499D01*
X107768216Y-105059577D01*
X107866929Y-105086027D01*
X107920942Y-105100500D01*
X107920943Y-105100500D01*
X108133331Y-105100500D01*
X108133347Y-105100501D01*
X108140943Y-105100501D01*
X108299054Y-105100501D01*
X108299057Y-105100501D01*
X108451785Y-105059577D01*
X108519468Y-105020500D01*
X108588716Y-104980520D01*
X108700520Y-104868716D01*
X108700520Y-104868714D01*
X108710724Y-104858511D01*
X108710728Y-104858506D01*
X109007416Y-104561818D01*
X109068739Y-104528333D01*
X109095097Y-104525499D01*
X110017871Y-104525499D01*
X110017872Y-104525499D01*
X110077483Y-104519091D01*
X110212331Y-104468796D01*
X110327546Y-104382546D01*
X110413796Y-104267331D01*
X110464091Y-104132483D01*
X110470500Y-104072873D01*
X110470499Y-102927128D01*
X110464091Y-102867517D01*
X110457821Y-102850707D01*
X110413797Y-102732671D01*
X110413796Y-102732670D01*
X110413796Y-102732669D01*
X110412967Y-102731562D01*
X110412485Y-102730268D01*
X110409546Y-102724886D01*
X110410319Y-102724463D01*
X110388551Y-102666099D01*
X110397675Y-102609798D01*
X110410000Y-102580045D01*
X110431091Y-102529127D01*
X110470500Y-102331003D01*
X110470500Y-102128997D01*
X110431091Y-101930873D01*
X110381023Y-101810000D01*
X118294357Y-101810000D01*
X118314884Y-102031535D01*
X118314885Y-102031537D01*
X118375769Y-102245523D01*
X118375775Y-102245538D01*
X118474938Y-102444683D01*
X118474943Y-102444691D01*
X118609020Y-102622238D01*
X118773437Y-102772123D01*
X118773439Y-102772125D01*
X118962595Y-102889245D01*
X118962596Y-102889245D01*
X118962599Y-102889247D01*
X119170060Y-102969618D01*
X119388757Y-103010500D01*
X119388759Y-103010500D01*
X119611241Y-103010500D01*
X119611243Y-103010500D01*
X119829940Y-102969618D01*
X120037401Y-102889247D01*
X120226562Y-102772124D01*
X120390981Y-102622236D01*
X120525058Y-102444689D01*
X120624229Y-102245528D01*
X120685115Y-102031536D01*
X120705643Y-101810000D01*
X120705336Y-101806692D01*
X120685115Y-101588464D01*
X120685114Y-101588462D01*
X120682706Y-101580000D01*
X120624229Y-101374472D01*
X120624224Y-101374461D01*
X120525061Y-101175316D01*
X120525056Y-101175308D01*
X120390979Y-100997761D01*
X120226562Y-100847876D01*
X120226560Y-100847874D01*
X120037404Y-100730754D01*
X120037398Y-100730752D01*
X119829940Y-100650382D01*
X119611243Y-100609500D01*
X119388757Y-100609500D01*
X119170060Y-100650382D01*
X119038864Y-100701207D01*
X118962601Y-100730752D01*
X118962595Y-100730754D01*
X118773439Y-100847874D01*
X118773437Y-100847876D01*
X118609020Y-100997761D01*
X118474943Y-101175308D01*
X118474938Y-101175316D01*
X118375775Y-101374461D01*
X118375769Y-101374476D01*
X118314885Y-101588462D01*
X118314884Y-101588464D01*
X118294357Y-101809999D01*
X118294357Y-101810000D01*
X110381023Y-101810000D01*
X110355781Y-101749060D01*
X110353787Y-101744246D01*
X110353786Y-101744244D01*
X110300094Y-101663889D01*
X110279217Y-101597214D01*
X110297701Y-101529834D01*
X110300078Y-101526134D01*
X110353786Y-101445756D01*
X110431091Y-101259127D01*
X110470500Y-101061003D01*
X110470500Y-100858997D01*
X110431091Y-100660873D01*
X110353786Y-100474244D01*
X110353784Y-100474241D01*
X110353782Y-100474237D01*
X110241558Y-100306281D01*
X110098718Y-100163441D01*
X109930762Y-100051217D01*
X109930752Y-100051212D01*
X109744127Y-99973909D01*
X109744119Y-99973907D01*
X109546007Y-99934500D01*
X109546003Y-99934500D01*
X108893997Y-99934500D01*
X108893992Y-99934500D01*
X108695880Y-99973907D01*
X108695872Y-99973909D01*
X108509247Y-100051212D01*
X108509239Y-100051216D01*
X108393390Y-100128624D01*
X108326713Y-100149501D01*
X108259333Y-100131016D01*
X108212643Y-100079037D01*
X108200500Y-100025521D01*
X108200500Y-97516293D01*
X108203264Y-97506880D01*
X114346672Y-97506880D01*
X114462821Y-97578797D01*
X114462822Y-97578798D01*
X114670195Y-97659134D01*
X114888807Y-97700000D01*
X115111193Y-97700000D01*
X115329809Y-97659133D01*
X115537168Y-97578801D01*
X115537181Y-97578795D01*
X115653326Y-97506879D01*
X115000001Y-96853553D01*
X115000000Y-96853553D01*
X114346672Y-97506879D01*
X114346672Y-97506880D01*
X108203264Y-97506880D01*
X108220185Y-97449254D01*
X108272989Y-97403499D01*
X108342147Y-97393555D01*
X108344872Y-97393978D01*
X108367303Y-97397721D01*
X108383949Y-97400500D01*
X108383951Y-97400500D01*
X108616048Y-97400500D01*
X108616049Y-97400500D01*
X108844981Y-97362298D01*
X109064503Y-97286936D01*
X109268626Y-97176470D01*
X109322650Y-97134422D01*
X109330129Y-97128600D01*
X109451784Y-97033913D01*
X109608979Y-96863153D01*
X109735924Y-96668849D01*
X109809988Y-96500000D01*
X113794859Y-96500000D01*
X113815378Y-96721439D01*
X113876240Y-96935350D01*
X113975369Y-97134428D01*
X113991137Y-97155308D01*
X113991138Y-97155308D01*
X114600369Y-96546078D01*
X114650000Y-96546078D01*
X114673852Y-96635095D01*
X114719930Y-96714905D01*
X114785095Y-96780070D01*
X114864905Y-96826148D01*
X114953922Y-96850000D01*
X115046078Y-96850000D01*
X115135095Y-96826148D01*
X115214905Y-96780070D01*
X115280070Y-96714905D01*
X115326148Y-96635095D01*
X115350000Y-96546078D01*
X115350000Y-96500000D01*
X115353553Y-96500000D01*
X116008861Y-97155308D01*
X116024631Y-97134425D01*
X116024633Y-97134422D01*
X116123759Y-96935350D01*
X116184621Y-96721439D01*
X116205141Y-96500000D01*
X116205141Y-96499999D01*
X116184621Y-96278560D01*
X116123759Y-96064649D01*
X116024635Y-95865580D01*
X116024630Y-95865572D01*
X116008860Y-95844690D01*
X115353553Y-96499999D01*
X115353553Y-96500000D01*
X115350000Y-96500000D01*
X115350000Y-96453922D01*
X115326148Y-96364905D01*
X115280070Y-96285095D01*
X115214905Y-96219930D01*
X115135095Y-96173852D01*
X115046078Y-96150000D01*
X114953922Y-96150000D01*
X114864905Y-96173852D01*
X114785095Y-96219930D01*
X114719930Y-96285095D01*
X114673852Y-96364905D01*
X114650000Y-96453922D01*
X114650000Y-96546078D01*
X114600369Y-96546078D01*
X114646447Y-96500000D01*
X113991138Y-95844691D01*
X113991137Y-95844691D01*
X113975368Y-95865574D01*
X113876240Y-96064649D01*
X113815378Y-96278560D01*
X113794859Y-96499999D01*
X113794859Y-96500000D01*
X109809988Y-96500000D01*
X109829157Y-96456300D01*
X109886134Y-96231305D01*
X109892871Y-96150000D01*
X109905300Y-96000006D01*
X109905300Y-95999993D01*
X109886135Y-95768702D01*
X109886133Y-95768691D01*
X109829157Y-95543699D01*
X109806970Y-95493119D01*
X114346671Y-95493119D01*
X115000000Y-96146447D01*
X115000001Y-96146447D01*
X115653327Y-95493119D01*
X115537178Y-95421202D01*
X115537177Y-95421201D01*
X115329804Y-95340865D01*
X115111193Y-95300000D01*
X114888807Y-95300000D01*
X114670195Y-95340865D01*
X114462824Y-95421200D01*
X114462823Y-95421201D01*
X114346671Y-95493119D01*
X109806970Y-95493119D01*
X109735924Y-95331151D01*
X109608983Y-95136852D01*
X109608980Y-95136849D01*
X109608979Y-95136847D01*
X109514195Y-95033884D01*
X109483275Y-94971232D01*
X109491135Y-94901806D01*
X109535283Y-94847651D01*
X109562095Y-94833722D01*
X109642326Y-94803798D01*
X109642326Y-94803797D01*
X109642331Y-94803796D01*
X109757546Y-94717546D01*
X109843796Y-94602331D01*
X109894091Y-94467483D01*
X109897046Y-94440000D01*
X118323505Y-94440000D01*
X118376239Y-94625349D01*
X118475368Y-94824425D01*
X118609391Y-95001900D01*
X118773738Y-95151721D01*
X118962820Y-95268797D01*
X118962822Y-95268798D01*
X119170195Y-95349135D01*
X119250000Y-95364052D01*
X119250000Y-94440000D01*
X118323505Y-94440000D01*
X109897046Y-94440000D01*
X109900500Y-94407873D01*
X109900500Y-94236078D01*
X119150000Y-94236078D01*
X119173852Y-94325095D01*
X119219930Y-94404905D01*
X119285095Y-94470070D01*
X119364905Y-94516148D01*
X119453922Y-94540000D01*
X119546078Y-94540000D01*
X119635095Y-94516148D01*
X119714905Y-94470070D01*
X119744975Y-94440000D01*
X119750000Y-94440000D01*
X119750000Y-95364052D01*
X119829804Y-95349135D01*
X120037177Y-95268798D01*
X120037179Y-95268797D01*
X120226261Y-95151721D01*
X120390608Y-95001900D01*
X120524631Y-94824425D01*
X120623760Y-94625349D01*
X120676495Y-94440000D01*
X119750000Y-94440000D01*
X119744975Y-94440000D01*
X119780070Y-94404905D01*
X119826148Y-94325095D01*
X119850000Y-94236078D01*
X119850000Y-94143922D01*
X119826148Y-94054905D01*
X119780070Y-93975095D01*
X119714905Y-93909930D01*
X119635095Y-93863852D01*
X119546078Y-93840000D01*
X119453922Y-93840000D01*
X119364905Y-93863852D01*
X119285095Y-93909930D01*
X119219930Y-93975095D01*
X119173852Y-94054905D01*
X119150000Y-94143922D01*
X119150000Y-94236078D01*
X109900500Y-94236078D01*
X109900500Y-93940000D01*
X118323505Y-93940000D01*
X119250000Y-93940000D01*
X119250000Y-93015946D01*
X119750000Y-93015946D01*
X119750000Y-93940000D01*
X120676495Y-93940000D01*
X120623760Y-93754650D01*
X120524631Y-93555574D01*
X120390608Y-93378099D01*
X120226261Y-93228278D01*
X120037179Y-93111202D01*
X120037177Y-93111201D01*
X119829799Y-93030864D01*
X119750000Y-93015946D01*
X119250000Y-93015946D01*
X119170200Y-93030864D01*
X118962822Y-93111201D01*
X118962820Y-93111202D01*
X118773738Y-93228278D01*
X118609391Y-93378099D01*
X118475368Y-93555574D01*
X118376239Y-93754650D01*
X118323505Y-93940000D01*
X109900500Y-93940000D01*
X109900499Y-92512128D01*
X109894091Y-92452517D01*
X109848824Y-92331151D01*
X109843797Y-92317671D01*
X109843793Y-92317664D01*
X109757547Y-92202455D01*
X109757544Y-92202452D01*
X109642335Y-92116206D01*
X109642328Y-92116202D01*
X109507482Y-92065908D01*
X109507483Y-92065908D01*
X109447883Y-92059501D01*
X109447881Y-92059500D01*
X109447873Y-92059500D01*
X109447864Y-92059500D01*
X107552129Y-92059500D01*
X107552123Y-92059501D01*
X107492516Y-92065908D01*
X107357671Y-92116202D01*
X107357664Y-92116206D01*
X107242455Y-92202452D01*
X107242452Y-92202455D01*
X107156206Y-92317664D01*
X107156202Y-92317671D01*
X107105908Y-92452517D01*
X107099501Y-92512116D01*
X107099501Y-92512123D01*
X107099500Y-92512135D01*
X107099500Y-94407870D01*
X107099501Y-94407876D01*
X107105908Y-94467483D01*
X107156202Y-94602328D01*
X107156206Y-94602335D01*
X107242452Y-94717544D01*
X107242455Y-94717547D01*
X107357664Y-94803793D01*
X107357673Y-94803798D01*
X107437904Y-94833722D01*
X107493838Y-94875593D01*
X107518256Y-94941057D01*
X107503405Y-95009330D01*
X107485802Y-95033886D01*
X107391019Y-95136849D01*
X107264075Y-95331151D01*
X107170842Y-95543699D01*
X107113866Y-95768691D01*
X107113864Y-95768702D01*
X107094700Y-95999993D01*
X107094700Y-96000006D01*
X107113864Y-96231297D01*
X107113868Y-96231317D01*
X107158319Y-96406845D01*
X107155695Y-96476665D01*
X107125799Y-96524964D01*
X107119478Y-96531285D01*
X107076396Y-96605907D01*
X107076396Y-96605908D01*
X107040423Y-96668215D01*
X106999499Y-96820943D01*
X106999499Y-96820945D01*
X106999499Y-96989046D01*
X106999500Y-96989059D01*
X106999500Y-104013330D01*
X106999499Y-104013348D01*
X106999499Y-104179054D01*
X106999498Y-104179054D01*
X103000500Y-104179054D01*
X103000500Y-88880000D01*
X113794357Y-88880000D01*
X113814884Y-89101535D01*
X113814885Y-89101537D01*
X113875769Y-89315523D01*
X113875775Y-89315538D01*
X113974938Y-89514683D01*
X113974943Y-89514691D01*
X114109020Y-89692238D01*
X114273437Y-89842123D01*
X114273439Y-89842125D01*
X114462595Y-89959245D01*
X114462596Y-89959245D01*
X114462599Y-89959247D01*
X114670060Y-90039618D01*
X114888757Y-90080500D01*
X114888759Y-90080500D01*
X115111241Y-90080500D01*
X115111243Y-90080500D01*
X115329940Y-90039618D01*
X115537401Y-89959247D01*
X115726562Y-89842124D01*
X115890981Y-89692236D01*
X116025058Y-89514689D01*
X116124229Y-89315528D01*
X116185115Y-89101536D01*
X116205643Y-88880000D01*
X116185115Y-88658464D01*
X116124229Y-88444472D01*
X116124224Y-88444461D01*
X116025061Y-88245316D01*
X116025056Y-88245308D01*
X115890979Y-88067761D01*
X115726562Y-87917876D01*
X115726560Y-87917874D01*
X115537404Y-87800754D01*
X115537398Y-87800752D01*
X115329940Y-87720382D01*
X115111243Y-87679500D01*
X114888757Y-87679500D01*
X114670060Y-87720382D01*
X114538864Y-87771207D01*
X114462601Y-87800752D01*
X114462595Y-87800754D01*
X114273439Y-87917874D01*
X114273437Y-87917876D01*
X114109020Y-88067761D01*
X113974943Y-88245308D01*
X113974938Y-88245316D01*
X113875775Y-88444461D01*
X113875769Y-88444476D01*
X113814885Y-88658462D01*
X113814884Y-88658464D01*
X113794357Y-88879999D01*
X113794357Y-88880000D01*
X103000500Y-88880000D01*
X103000500Y-85357870D01*
X119149500Y-85357870D01*
X119149501Y-85357876D01*
X119155908Y-85417483D01*
X119206202Y-85552328D01*
X119206206Y-85552335D01*
X119292452Y-85667544D01*
X119292455Y-85667547D01*
X119407664Y-85753793D01*
X119407671Y-85753797D01*
X119447615Y-85768695D01*
X119539598Y-85803002D01*
X119595531Y-85844873D01*
X119619949Y-85910337D01*
X119605098Y-85978610D01*
X119583947Y-86006865D01*
X119461886Y-86128926D01*
X119326400Y-86322420D01*
X119326399Y-86322422D01*
X119226570Y-86536507D01*
X119226567Y-86536513D01*
X119169364Y-86749999D01*
X119169364Y-86750000D01*
X120066988Y-86750000D01*
X120034075Y-86807007D01*
X120000000Y-86934174D01*
X120000000Y-87065826D01*
X120034075Y-87192993D01*
X120066988Y-87250000D01*
X119169364Y-87250000D01*
X119226567Y-87463486D01*
X119226570Y-87463492D01*
X119326399Y-87677578D01*
X119461894Y-87871082D01*
X119628917Y-88038105D01*
X119822421Y-88173600D01*
X120036507Y-88273429D01*
X120036516Y-88273433D01*
X120250000Y-88330634D01*
X120250000Y-87433012D01*
X120307007Y-87465925D01*
X120434174Y-87500000D01*
X120565826Y-87500000D01*
X120692993Y-87465925D01*
X120750000Y-87433012D01*
X120750000Y-88330633D01*
X120963483Y-88273433D01*
X120963492Y-88273429D01*
X121177578Y-88173600D01*
X121371082Y-88038105D01*
X121538105Y-87871082D01*
X121673600Y-87677578D01*
X121773429Y-87463492D01*
X121773432Y-87463486D01*
X121830636Y-87250000D01*
X120933012Y-87250000D01*
X120965925Y-87192993D01*
X121000000Y-87065826D01*
X121000000Y-86934174D01*
X120965925Y-86807007D01*
X120933012Y-86750000D01*
X121830636Y-86750000D01*
X121830635Y-86749999D01*
X121773432Y-86536513D01*
X121773429Y-86536507D01*
X121673600Y-86322422D01*
X121673599Y-86322420D01*
X121538113Y-86128926D01*
X121538108Y-86128920D01*
X121416053Y-86006865D01*
X121382568Y-85945542D01*
X121387552Y-85875850D01*
X121429424Y-85819917D01*
X121460400Y-85803002D01*
X121592331Y-85753796D01*
X121707546Y-85667546D01*
X121793796Y-85552331D01*
X121844091Y-85417483D01*
X121850500Y-85357873D01*
X121850499Y-84447870D01*
X125599500Y-84447870D01*
X125599501Y-84447876D01*
X125605908Y-84507483D01*
X125656202Y-84642328D01*
X125656206Y-84642335D01*
X125742452Y-84757544D01*
X125742455Y-84757547D01*
X125857664Y-84843793D01*
X125857671Y-84843797D01*
X125992517Y-84894091D01*
X125992516Y-84894091D01*
X125999444Y-84894835D01*
X126052127Y-84900500D01*
X127947872Y-84900499D01*
X128007483Y-84894091D01*
X128142331Y-84843796D01*
X128257546Y-84757546D01*
X128343796Y-84642331D01*
X128359771Y-84599500D01*
X128372455Y-84565493D01*
X128414326Y-84509559D01*
X128479790Y-84485141D01*
X128548063Y-84499992D01*
X128579866Y-84524843D01*
X128587302Y-84532920D01*
X128588215Y-84533912D01*
X128588222Y-84533918D01*
X128771365Y-84676464D01*
X128771371Y-84676468D01*
X128771374Y-84676470D01*
X128975497Y-84786936D01*
X129082092Y-84823530D01*
X129195015Y-84862297D01*
X129195017Y-84862297D01*
X129195019Y-84862298D01*
X129423951Y-84900500D01*
X129423952Y-84900500D01*
X129656048Y-84900500D01*
X129656049Y-84900500D01*
X129884981Y-84862298D01*
X129936894Y-84844475D01*
X130006691Y-84841324D01*
X130064839Y-84874075D01*
X130363181Y-85172416D01*
X130396666Y-85233739D01*
X130399500Y-85260097D01*
X130399500Y-97417587D01*
X130379815Y-97484626D01*
X130372450Y-97494896D01*
X130370186Y-97497734D01*
X130274211Y-97650476D01*
X130214631Y-97820745D01*
X130214630Y-97820750D01*
X130194435Y-97999996D01*
X130194435Y-98000003D01*
X130214630Y-98179249D01*
X130214631Y-98179254D01*
X130274211Y-98349523D01*
X130370184Y-98502262D01*
X130497738Y-98629816D01*
X130588080Y-98686582D01*
X130630221Y-98713061D01*
X130650478Y-98725789D01*
X130698104Y-98742454D01*
X130820745Y-98785368D01*
X130820750Y-98785369D01*
X130999996Y-98805565D01*
X131000000Y-98805565D01*
X131000004Y-98805565D01*
X131179249Y-98785369D01*
X131179252Y-98785368D01*
X131179255Y-98785368D01*
X131349522Y-98725789D01*
X131502262Y-98629816D01*
X131629816Y-98502262D01*
X131725789Y-98349522D01*
X131785368Y-98179255D01*
X131785369Y-98179249D01*
X131805565Y-98000003D01*
X131805565Y-97999996D01*
X131785369Y-97820750D01*
X131785368Y-97820745D01*
X131767859Y-97770707D01*
X131725789Y-97650478D01*
X131629816Y-97497738D01*
X131629814Y-97497736D01*
X131629813Y-97497734D01*
X131627550Y-97494896D01*
X131626659Y-97492715D01*
X131626111Y-97491842D01*
X131626264Y-97491745D01*
X131601144Y-97430209D01*
X131600500Y-97417587D01*
X131600500Y-86947870D01*
X145559500Y-86947870D01*
X145559501Y-86947876D01*
X145565908Y-87007483D01*
X145616202Y-87142328D01*
X145616206Y-87142335D01*
X145702452Y-87257544D01*
X145702455Y-87257547D01*
X145817664Y-87343793D01*
X145817671Y-87343797D01*
X145952517Y-87394091D01*
X145952516Y-87394091D01*
X145959444Y-87394835D01*
X146012127Y-87400500D01*
X147907872Y-87400499D01*
X147967483Y-87394091D01*
X148102331Y-87343796D01*
X148217546Y-87257546D01*
X148303796Y-87142331D01*
X148303798Y-87142326D01*
X148332455Y-87065493D01*
X148374326Y-87009559D01*
X148439790Y-86985141D01*
X148508063Y-86999992D01*
X148539866Y-87024843D01*
X148547302Y-87032920D01*
X148548215Y-87033912D01*
X148548222Y-87033918D01*
X148731365Y-87176464D01*
X148731371Y-87176468D01*
X148731374Y-87176470D01*
X148935497Y-87286936D01*
X148993962Y-87307007D01*
X149155015Y-87362297D01*
X149155017Y-87362297D01*
X149155019Y-87362298D01*
X149383951Y-87400500D01*
X149383952Y-87400500D01*
X149616048Y-87400500D01*
X149616049Y-87400500D01*
X149844981Y-87362298D01*
X150064503Y-87286936D01*
X150268626Y-87176470D01*
X150451784Y-87033913D01*
X150608979Y-86863153D01*
X150735924Y-86668849D01*
X150829157Y-86456300D01*
X150886134Y-86231305D01*
X150886135Y-86231297D01*
X150905300Y-86000006D01*
X150905300Y-85999993D01*
X150886135Y-85768702D01*
X150886133Y-85768691D01*
X150829157Y-85543699D01*
X150735924Y-85331151D01*
X150608983Y-85136852D01*
X150608980Y-85136849D01*
X150608979Y-85136847D01*
X150451784Y-84966087D01*
X150451779Y-84966083D01*
X150451777Y-84966081D01*
X150268634Y-84823535D01*
X150268628Y-84823531D01*
X150064504Y-84713064D01*
X150064495Y-84713061D01*
X149844984Y-84637702D01*
X149654450Y-84605908D01*
X149616049Y-84599500D01*
X149383951Y-84599500D01*
X149345550Y-84605908D01*
X149155015Y-84637702D01*
X148935504Y-84713061D01*
X148935495Y-84713064D01*
X148731371Y-84823531D01*
X148731365Y-84823535D01*
X148548222Y-84966081D01*
X148548218Y-84966085D01*
X148539866Y-84975158D01*
X148479979Y-85011148D01*
X148410141Y-85009047D01*
X148352525Y-84969522D01*
X148332455Y-84934507D01*
X148303797Y-84857671D01*
X148303793Y-84857664D01*
X148217547Y-84742455D01*
X148217544Y-84742452D01*
X148102335Y-84656206D01*
X148102328Y-84656202D01*
X147967482Y-84605908D01*
X147967483Y-84605908D01*
X147907883Y-84599501D01*
X147907881Y-84599500D01*
X147907873Y-84599500D01*
X147907864Y-84599500D01*
X146012129Y-84599500D01*
X146012123Y-84599501D01*
X145952516Y-84605908D01*
X145817671Y-84656202D01*
X145817664Y-84656206D01*
X145702455Y-84742452D01*
X145702452Y-84742455D01*
X145616206Y-84857664D01*
X145616202Y-84857671D01*
X145565908Y-84992517D01*
X145559501Y-85052116D01*
X145559500Y-85052135D01*
X145559500Y-86947870D01*
X131600500Y-86947870D01*
X131600500Y-85049060D01*
X131600501Y-85049047D01*
X131600501Y-84880945D01*
X131600501Y-84880943D01*
X131559577Y-84728215D01*
X131480520Y-84591284D01*
X131337106Y-84447870D01*
X135059500Y-84447870D01*
X135059501Y-84447876D01*
X135065908Y-84507483D01*
X135116202Y-84642328D01*
X135116206Y-84642335D01*
X135202452Y-84757544D01*
X135202455Y-84757547D01*
X135317664Y-84843793D01*
X135317671Y-84843797D01*
X135452517Y-84894091D01*
X135452516Y-84894091D01*
X135459444Y-84894835D01*
X135512127Y-84900500D01*
X137407872Y-84900499D01*
X137467483Y-84894091D01*
X137602331Y-84843796D01*
X137717546Y-84757546D01*
X137803796Y-84642331D01*
X137819771Y-84599500D01*
X137832455Y-84565493D01*
X137874326Y-84509559D01*
X137939790Y-84485141D01*
X138008063Y-84499992D01*
X138039866Y-84524843D01*
X138047302Y-84532920D01*
X138048215Y-84533912D01*
X138048222Y-84533918D01*
X138231365Y-84676464D01*
X138231371Y-84676468D01*
X138231374Y-84676470D01*
X138435497Y-84786936D01*
X138542092Y-84823530D01*
X138655015Y-84862297D01*
X138655017Y-84862297D01*
X138655019Y-84862298D01*
X138883951Y-84900500D01*
X138883952Y-84900500D01*
X139116048Y-84900500D01*
X139116049Y-84900500D01*
X139344981Y-84862298D01*
X139564503Y-84786936D01*
X139768626Y-84676470D01*
X139794667Y-84656202D01*
X139878077Y-84591281D01*
X139951784Y-84533913D01*
X140108979Y-84363153D01*
X140235924Y-84168849D01*
X140329157Y-83956300D01*
X140386134Y-83731305D01*
X140386135Y-83731297D01*
X140405300Y-83500006D01*
X140405300Y-83499993D01*
X140386135Y-83268702D01*
X140386133Y-83268691D01*
X140329157Y-83043699D01*
X140235924Y-82831151D01*
X140108983Y-82636852D01*
X140108980Y-82636849D01*
X140108979Y-82636847D01*
X139951784Y-82466087D01*
X139951779Y-82466083D01*
X139951777Y-82466081D01*
X139768634Y-82323535D01*
X139768628Y-82323531D01*
X139564504Y-82213064D01*
X139564495Y-82213061D01*
X139344984Y-82137702D01*
X139154450Y-82105908D01*
X139116049Y-82099500D01*
X138883951Y-82099500D01*
X138845550Y-82105908D01*
X138655015Y-82137702D01*
X138435504Y-82213061D01*
X138435495Y-82213064D01*
X138231371Y-82323531D01*
X138231365Y-82323535D01*
X138048222Y-82466081D01*
X138048218Y-82466085D01*
X138039866Y-82475158D01*
X137979979Y-82511148D01*
X137910141Y-82509047D01*
X137852525Y-82469522D01*
X137832455Y-82434507D01*
X137803797Y-82357671D01*
X137803793Y-82357664D01*
X137717547Y-82242455D01*
X137717544Y-82242452D01*
X137602335Y-82156206D01*
X137602328Y-82156202D01*
X137467482Y-82105908D01*
X137467483Y-82105908D01*
X137407883Y-82099501D01*
X137407881Y-82099500D01*
X137407873Y-82099500D01*
X137407864Y-82099500D01*
X135512129Y-82099500D01*
X135512123Y-82099501D01*
X135452516Y-82105908D01*
X135317671Y-82156202D01*
X135317664Y-82156206D01*
X135202455Y-82242452D01*
X135202452Y-82242455D01*
X135116206Y-82357664D01*
X135116202Y-82357671D01*
X135065908Y-82492517D01*
X135059501Y-82552116D01*
X135059500Y-82552135D01*
X135059500Y-84447870D01*
X131337106Y-84447870D01*
X130914203Y-84024968D01*
X130880719Y-83963646D01*
X130881680Y-83906847D01*
X130926131Y-83731317D01*
X130926133Y-83731308D01*
X130926134Y-83731305D01*
X130926135Y-83731297D01*
X130945300Y-83500006D01*
X130945300Y-83499993D01*
X130926135Y-83268702D01*
X130926133Y-83268691D01*
X130869157Y-83043699D01*
X130775924Y-82831151D01*
X130648983Y-82636852D01*
X130648980Y-82636849D01*
X130648979Y-82636847D01*
X130491784Y-82466087D01*
X130491779Y-82466083D01*
X130491777Y-82466081D01*
X130308634Y-82323535D01*
X130308628Y-82323531D01*
X130104504Y-82213064D01*
X130104495Y-82213061D01*
X129884984Y-82137702D01*
X129694450Y-82105908D01*
X129656049Y-82099500D01*
X129423951Y-82099500D01*
X129385550Y-82105908D01*
X129195015Y-82137702D01*
X128975504Y-82213061D01*
X128975495Y-82213064D01*
X128771371Y-82323531D01*
X128771365Y-82323535D01*
X128588222Y-82466081D01*
X128588218Y-82466085D01*
X128579866Y-82475158D01*
X128519979Y-82511148D01*
X128450141Y-82509047D01*
X128392525Y-82469522D01*
X128372455Y-82434507D01*
X128343797Y-82357671D01*
X128343793Y-82357664D01*
X128257547Y-82242455D01*
X128257544Y-82242452D01*
X128142335Y-82156206D01*
X128142328Y-82156202D01*
X128007482Y-82105908D01*
X128007483Y-82105908D01*
X127947883Y-82099501D01*
X127947881Y-82099500D01*
X127947873Y-82099500D01*
X127947864Y-82099500D01*
X126052129Y-82099500D01*
X126052123Y-82099501D01*
X125992516Y-82105908D01*
X125857671Y-82156202D01*
X125857664Y-82156206D01*
X125742455Y-82242452D01*
X125742452Y-82242455D01*
X125656206Y-82357664D01*
X125656202Y-82357671D01*
X125605908Y-82492517D01*
X125599501Y-82552116D01*
X125599500Y-82552135D01*
X125599500Y-84447870D01*
X121850499Y-84447870D01*
X121850499Y-83562128D01*
X121844091Y-83502517D01*
X121843154Y-83500006D01*
X121793797Y-83367671D01*
X121793793Y-83367664D01*
X121707547Y-83252455D01*
X121707544Y-83252452D01*
X121592335Y-83166206D01*
X121592328Y-83166202D01*
X121457482Y-83115908D01*
X121457483Y-83115908D01*
X121397883Y-83109501D01*
X121397881Y-83109500D01*
X121397873Y-83109500D01*
X121397864Y-83109500D01*
X119602129Y-83109500D01*
X119602123Y-83109501D01*
X119542516Y-83115908D01*
X119407671Y-83166202D01*
X119407664Y-83166206D01*
X119292455Y-83252452D01*
X119292452Y-83252455D01*
X119206206Y-83367664D01*
X119206202Y-83367671D01*
X119155908Y-83502517D01*
X119149501Y-83562116D01*
X119149501Y-83562123D01*
X119149500Y-83562135D01*
X119149500Y-85357870D01*
X103000500Y-85357870D01*
X103000500Y-79624500D01*
X103020185Y-79557461D01*
X103072989Y-79511706D01*
X103124500Y-79500500D01*
X151375500Y-79500500D01*
X151442539Y-79520185D01*
G37*
G04 #@! TD.AperFunction*
M02*
