G04 #@! TF.GenerationSoftware,KiCad,Pcbnew,8.0.1*
G04 #@! TF.CreationDate,2024-05-12T16:03:36-04:00*
G04 #@! TF.ProjectId,recyclobot_main,72656379-636c-46f6-926f-745f6d61696e,rev?*
G04 #@! TF.SameCoordinates,Original*
G04 #@! TF.FileFunction,Copper,L1,Top*
G04 #@! TF.FilePolarity,Positive*
%FSLAX46Y46*%
G04 Gerber Fmt 4.6, Leading zero omitted, Abs format (unit mm)*
G04 Created by KiCad (PCBNEW 8.0.1) date 2024-05-12 16:03:36*
%MOMM*%
%LPD*%
G01*
G04 APERTURE LIST*
G04 Aperture macros list*
%AMRoundRect*
0 Rectangle with rounded corners*
0 $1 Rounding radius*
0 $2 $3 $4 $5 $6 $7 $8 $9 X,Y pos of 4 corners*
0 Add a 4 corners polygon primitive as box body*
4,1,4,$2,$3,$4,$5,$6,$7,$8,$9,$2,$3,0*
0 Add four circle primitives for the rounded corners*
1,1,$1+$1,$2,$3*
1,1,$1+$1,$4,$5*
1,1,$1+$1,$6,$7*
1,1,$1+$1,$8,$9*
0 Add four rect primitives between the rounded corners*
20,1,$1+$1,$2,$3,$4,$5,0*
20,1,$1+$1,$4,$5,$6,$7,0*
20,1,$1+$1,$6,$7,$8,$9,0*
20,1,$1+$1,$8,$9,$2,$3,0*%
G04 Aperture macros list end*
G04 #@! TA.AperFunction,ComponentPad*
%ADD10R,1.500000X1.050000*%
G04 #@! TD*
G04 #@! TA.AperFunction,ComponentPad*
%ADD11O,1.500000X1.050000*%
G04 #@! TD*
G04 #@! TA.AperFunction,ComponentPad*
%ADD12R,1.600000X1.600000*%
G04 #@! TD*
G04 #@! TA.AperFunction,ComponentPad*
%ADD13O,1.600000X1.600000*%
G04 #@! TD*
G04 #@! TA.AperFunction,SMDPad,CuDef*
%ADD14RoundRect,0.150000X-0.800000X-0.150000X0.800000X-0.150000X0.800000X0.150000X-0.800000X0.150000X0*%
G04 #@! TD*
G04 #@! TA.AperFunction,ComponentPad*
%ADD15C,1.600000*%
G04 #@! TD*
G04 #@! TA.AperFunction,ComponentPad*
%ADD16R,1.700000X1.700000*%
G04 #@! TD*
G04 #@! TA.AperFunction,ComponentPad*
%ADD17O,1.700000X1.700000*%
G04 #@! TD*
G04 #@! TA.AperFunction,ComponentPad*
%ADD18R,1.800000X1.800000*%
G04 #@! TD*
G04 #@! TA.AperFunction,ComponentPad*
%ADD19C,1.800000*%
G04 #@! TD*
G04 #@! TA.AperFunction,ViaPad*
%ADD20C,0.600000*%
G04 #@! TD*
G04 #@! TA.AperFunction,Conductor*
%ADD21C,0.200000*%
G04 #@! TD*
G04 APERTURE END LIST*
D10*
X137000000Y-100540000D03*
D11*
X137000000Y-99270000D03*
X137000000Y-98000000D03*
D12*
X151420000Y-100500000D03*
D13*
X153960000Y-100500000D03*
X156500000Y-100500000D03*
X159040000Y-100500000D03*
X161580000Y-100500000D03*
X164120000Y-100500000D03*
X166660000Y-100500000D03*
X169200000Y-100500000D03*
X169200000Y-92880000D03*
X166660000Y-92880000D03*
X164120000Y-92880000D03*
X161580000Y-92880000D03*
X159040000Y-92880000D03*
X156500000Y-92880000D03*
X153960000Y-92880000D03*
X151420000Y-92880000D03*
D14*
X141100000Y-82285000D03*
X141100000Y-83555000D03*
X141100000Y-84825000D03*
X141100000Y-86095000D03*
X141100000Y-87365000D03*
X141100000Y-88635000D03*
X141100000Y-89905000D03*
X141100000Y-91175000D03*
X141100000Y-92445000D03*
X141100000Y-93715000D03*
X131900000Y-93715000D03*
X131900000Y-92445000D03*
X131900000Y-91175000D03*
X131900000Y-89905000D03*
X131900000Y-88635000D03*
X131900000Y-87365000D03*
X131900000Y-86095000D03*
X131900000Y-84825000D03*
X131900000Y-83555000D03*
X131900000Y-82285000D03*
D15*
X153500000Y-81000000D03*
D13*
X163660000Y-81000000D03*
D15*
X148500000Y-79340000D03*
D13*
X148500000Y-89500000D03*
D16*
X135500000Y-77620000D03*
D17*
X135500000Y-75080000D03*
X135500000Y-72540000D03*
X135500000Y-70000000D03*
D16*
X168500000Y-107500000D03*
D17*
X168500000Y-104960000D03*
D16*
X167975000Y-87250000D03*
D17*
X167975000Y-84710000D03*
D16*
X127975000Y-86250000D03*
D17*
X127975000Y-83710000D03*
D18*
X142500000Y-75500000D03*
D19*
X145040000Y-75500000D03*
D20*
X143500000Y-82000000D03*
X143500000Y-88500000D03*
X141500000Y-99700003D03*
X141000000Y-104000000D03*
X141500000Y-99000000D03*
X161000000Y-70000000D03*
X154500000Y-106000000D03*
X131000000Y-103500000D03*
X125000000Y-70500000D03*
X171000000Y-73000000D03*
X167500000Y-102500000D03*
X153000000Y-98000000D03*
X145500000Y-92000000D03*
X155500000Y-94900000D03*
X147500000Y-94900000D03*
X146000000Y-95500000D03*
X162000000Y-95500000D03*
X136500000Y-85000000D03*
X144500000Y-99000000D03*
D21*
X135500000Y-75080000D02*
X138428529Y-75080000D01*
X138428529Y-75080000D02*
X143500000Y-80151471D01*
X143500000Y-80151471D02*
X143500000Y-82000000D01*
X143500000Y-88500000D02*
X143365000Y-88635000D01*
X143365000Y-88635000D02*
X141100000Y-88635000D01*
X135620000Y-77500000D02*
X135500000Y-77620000D01*
X141500000Y-99000000D02*
X141500000Y-99700003D01*
X136500000Y-79500000D02*
X136500000Y-79400000D01*
X141100000Y-83555000D02*
X137945000Y-83555000D01*
X164120000Y-92880000D02*
X164120000Y-91105000D01*
X164120000Y-91105000D02*
X167975000Y-87250000D01*
X167975000Y-84710000D02*
X164670000Y-84710000D01*
X164670000Y-84710000D02*
X156500000Y-92880000D01*
X169200000Y-100800000D02*
X167500000Y-102500000D01*
X169200000Y-100500000D02*
X169200000Y-100800000D01*
X169200000Y-100500000D02*
X169200000Y-92880000D01*
X168500000Y-104960000D02*
X164120000Y-100580000D01*
X164120000Y-100580000D02*
X164120000Y-100500000D01*
X156500000Y-100500000D02*
X163500000Y-107500000D01*
X163500000Y-107500000D02*
X168500000Y-107500000D01*
X141100000Y-91175000D02*
X144675000Y-91175000D01*
X144675000Y-91175000D02*
X145500000Y-92000000D01*
X153000000Y-98000000D02*
X153960000Y-98960000D01*
X153960000Y-98960000D02*
X153960000Y-100500000D01*
X141100000Y-92445000D02*
X145045000Y-92445000D01*
X155500000Y-94900000D02*
X155500000Y-94420000D01*
X155500000Y-94420000D02*
X153960000Y-92880000D01*
X145045000Y-92445000D02*
X147500000Y-94900000D01*
X162000000Y-95500000D02*
X164040000Y-95500000D01*
X141100000Y-93715000D02*
X144215000Y-93715000D01*
X164040000Y-95500000D02*
X166660000Y-92880000D01*
X144215000Y-93715000D02*
X146000000Y-95500000D01*
X141100000Y-89905000D02*
X145905000Y-89905000D01*
X158524365Y-99000000D02*
X165160000Y-99000000D01*
X145905000Y-89905000D02*
X147780000Y-91780000D01*
X147780000Y-91780000D02*
X151875635Y-91780000D01*
X151875635Y-91780000D02*
X152520000Y-92424365D01*
X152520000Y-92424365D02*
X152520000Y-92995635D01*
X152520000Y-92995635D02*
X158524365Y-99000000D01*
X165160000Y-99000000D02*
X166660000Y-100500000D01*
X148500000Y-89500000D02*
X146365000Y-87365000D01*
X146365000Y-87365000D02*
X141100000Y-87365000D01*
X141100000Y-86095000D02*
X141745000Y-86095000D01*
X141745000Y-86095000D02*
X148500000Y-79340000D01*
X145040000Y-75500000D02*
X145040000Y-81834999D01*
X145040000Y-81834999D02*
X142049999Y-84825000D01*
X142049999Y-84825000D02*
X141100000Y-84825000D01*
X142500000Y-75500000D02*
X143700000Y-74300000D01*
X143700000Y-74300000D02*
X146800000Y-74300000D01*
X146800000Y-74300000D02*
X153500000Y-81000000D01*
X135500000Y-75080000D02*
X135500000Y-75500000D01*
X135500000Y-75500000D02*
X135680000Y-75500000D01*
X140135000Y-88635000D02*
X141100000Y-88635000D01*
X135500000Y-72540000D02*
X135500000Y-70000000D01*
X134000000Y-79610000D02*
X134000000Y-72500000D01*
X137945000Y-83555000D02*
X134000000Y-79610000D01*
X134000000Y-72500000D02*
X134040000Y-72540000D01*
X134040000Y-72540000D02*
X135500000Y-72540000D01*
X136500000Y-85000000D02*
X137945000Y-83555000D01*
X151420000Y-100500000D02*
X146000000Y-100500000D01*
X146000000Y-100500000D02*
X144500000Y-99000000D01*
X137000000Y-100540000D02*
X151380000Y-100540000D01*
X151380000Y-100540000D02*
X151420000Y-100500000D01*
X137000000Y-98000000D02*
X146300000Y-98000000D01*
X146300000Y-98000000D02*
X151420000Y-92880000D01*
X127975000Y-83710000D02*
X124790000Y-83710000D01*
X124500000Y-97500000D02*
X125000000Y-98000000D01*
X124790000Y-83710000D02*
X124500000Y-84000000D01*
X124500000Y-84000000D02*
X124500000Y-97500000D01*
X125000000Y-98000000D02*
X137000000Y-98000000D01*
G04 #@! TA.AperFunction,Conductor*
G36*
X161830000Y-101778872D02*
G01*
X162026317Y-101726269D01*
X162026326Y-101726265D01*
X162232482Y-101630134D01*
X162418820Y-101499657D01*
X162579657Y-101338820D01*
X162710132Y-101152484D01*
X162737341Y-101094134D01*
X162783513Y-101041695D01*
X162850707Y-101022542D01*
X162917588Y-101042757D01*
X162962106Y-101094133D01*
X162989431Y-101152732D01*
X162989432Y-101152734D01*
X163119954Y-101339141D01*
X163280858Y-101500045D01*
X163280861Y-101500047D01*
X163467266Y-101630568D01*
X163673504Y-101726739D01*
X163893308Y-101785635D01*
X164033932Y-101797938D01*
X164119998Y-101805468D01*
X164120000Y-101805468D01*
X164120002Y-101805468D01*
X164151421Y-101802719D01*
X164346692Y-101785635D01*
X164346700Y-101785633D01*
X164371935Y-101778871D01*
X164379835Y-101776754D01*
X164449685Y-101778415D01*
X164499612Y-101808847D01*
X167167233Y-104476468D01*
X167200718Y-104537791D01*
X167199327Y-104596241D01*
X167164939Y-104724583D01*
X167164936Y-104724596D01*
X167144341Y-104959999D01*
X167144341Y-104960000D01*
X167164936Y-105195403D01*
X167164938Y-105195413D01*
X167226094Y-105423655D01*
X167226096Y-105423659D01*
X167226097Y-105423663D01*
X167325965Y-105637830D01*
X167325967Y-105637834D01*
X167434281Y-105792521D01*
X167461501Y-105831396D01*
X167461506Y-105831402D01*
X167583430Y-105953326D01*
X167616915Y-106014649D01*
X167611931Y-106084341D01*
X167570059Y-106140274D01*
X167539083Y-106157189D01*
X167407669Y-106206203D01*
X167407664Y-106206206D01*
X167292455Y-106292452D01*
X167292452Y-106292455D01*
X167206206Y-106407664D01*
X167206202Y-106407671D01*
X167155908Y-106542517D01*
X167149501Y-106602116D01*
X167149501Y-106602123D01*
X167149500Y-106602135D01*
X167149500Y-106775500D01*
X167129815Y-106842539D01*
X167077011Y-106888294D01*
X167025500Y-106899500D01*
X163800097Y-106899500D01*
X163733058Y-106879815D01*
X163712416Y-106863181D01*
X158798378Y-101949143D01*
X158764893Y-101887820D01*
X158769877Y-101818128D01*
X158790000Y-101790910D01*
X158790000Y-100815686D01*
X158794394Y-100820080D01*
X158885606Y-100872741D01*
X158987339Y-100900000D01*
X159092661Y-100900000D01*
X159194394Y-100872741D01*
X159285606Y-100820080D01*
X159290000Y-100815686D01*
X159290000Y-101778872D01*
X159486317Y-101726269D01*
X159486326Y-101726265D01*
X159692482Y-101630134D01*
X159878820Y-101499657D01*
X160039657Y-101338820D01*
X160170134Y-101152481D01*
X160170135Y-101152479D01*
X160197618Y-101093543D01*
X160243790Y-101041103D01*
X160310983Y-101021951D01*
X160377864Y-101042166D01*
X160422382Y-101093543D01*
X160449864Y-101152479D01*
X160449865Y-101152481D01*
X160580342Y-101338820D01*
X160741179Y-101499657D01*
X160927517Y-101630134D01*
X161133673Y-101726265D01*
X161133682Y-101726269D01*
X161329999Y-101778872D01*
X161330000Y-101778871D01*
X161330000Y-100815686D01*
X161334394Y-100820080D01*
X161425606Y-100872741D01*
X161527339Y-100900000D01*
X161632661Y-100900000D01*
X161734394Y-100872741D01*
X161825606Y-100820080D01*
X161830000Y-100815686D01*
X161830000Y-101778872D01*
G37*
G04 #@! TD.AperFunction*
G04 #@! TA.AperFunction,Conductor*
G36*
X161259920Y-100254394D02*
G01*
X161207259Y-100345606D01*
X161180000Y-100447339D01*
X161180000Y-100552661D01*
X161207259Y-100654394D01*
X161259920Y-100745606D01*
X161264314Y-100750000D01*
X159355686Y-100750000D01*
X159360080Y-100745606D01*
X159412741Y-100654394D01*
X159440000Y-100552661D01*
X159440000Y-100447339D01*
X159412741Y-100345606D01*
X159360080Y-100254394D01*
X159355686Y-100250000D01*
X161264314Y-100250000D01*
X161259920Y-100254394D01*
G37*
G04 #@! TD.AperFunction*
G04 #@! TA.AperFunction,Conductor*
G36*
X161830000Y-94158872D02*
G01*
X162026317Y-94106269D01*
X162026326Y-94106265D01*
X162232482Y-94010134D01*
X162418820Y-93879657D01*
X162579657Y-93718820D01*
X162710132Y-93532484D01*
X162737341Y-93474134D01*
X162783513Y-93421695D01*
X162850707Y-93402542D01*
X162917588Y-93422757D01*
X162962105Y-93474132D01*
X162973844Y-93499306D01*
X162989431Y-93532732D01*
X162989432Y-93532734D01*
X163119954Y-93719141D01*
X163280858Y-93880045D01*
X163280861Y-93880047D01*
X163467266Y-94010568D01*
X163673504Y-94106739D01*
X163893308Y-94165635D01*
X164037144Y-94178219D01*
X164119998Y-94185468D01*
X164119999Y-94185468D01*
X164119999Y-94185467D01*
X164120000Y-94185468D01*
X164202848Y-94178219D01*
X164271345Y-94191985D01*
X164321529Y-94240600D01*
X164337463Y-94308628D01*
X164314088Y-94374472D01*
X164301335Y-94389428D01*
X163827584Y-94863181D01*
X163766261Y-94896666D01*
X163739903Y-94899500D01*
X162582412Y-94899500D01*
X162515373Y-94879815D01*
X162505097Y-94872445D01*
X162502263Y-94870185D01*
X162502262Y-94870184D01*
X162445496Y-94834515D01*
X162349523Y-94774211D01*
X162179254Y-94714631D01*
X162179249Y-94714630D01*
X162000004Y-94694435D01*
X161999996Y-94694435D01*
X161820750Y-94714630D01*
X161820745Y-94714631D01*
X161650476Y-94774211D01*
X161497737Y-94870184D01*
X161370184Y-94997737D01*
X161274211Y-95150476D01*
X161214631Y-95320745D01*
X161214630Y-95320750D01*
X161194435Y-95499996D01*
X161194435Y-95500003D01*
X161214630Y-95679249D01*
X161214631Y-95679254D01*
X161274211Y-95849523D01*
X161370184Y-96002262D01*
X161497738Y-96129816D01*
X161650478Y-96225789D01*
X161820745Y-96285368D01*
X161820750Y-96285369D01*
X161999996Y-96305565D01*
X162000000Y-96305565D01*
X162000004Y-96305565D01*
X162179249Y-96285369D01*
X162179252Y-96285368D01*
X162179255Y-96285368D01*
X162349522Y-96225789D01*
X162502262Y-96129816D01*
X162502267Y-96129810D01*
X162505097Y-96127555D01*
X162507275Y-96126665D01*
X162508158Y-96126111D01*
X162508255Y-96126265D01*
X162569783Y-96101145D01*
X162582412Y-96100500D01*
X163953331Y-96100500D01*
X163953347Y-96100501D01*
X163960943Y-96100501D01*
X164119054Y-96100501D01*
X164119057Y-96100501D01*
X164271785Y-96059577D01*
X164321904Y-96030639D01*
X164408716Y-95980520D01*
X164520520Y-95868716D01*
X164520520Y-95868714D01*
X164530728Y-95858507D01*
X164530730Y-95858504D01*
X166217294Y-94171939D01*
X166278615Y-94138456D01*
X166337066Y-94139847D01*
X166356604Y-94145082D01*
X166433308Y-94165635D01*
X166577144Y-94178219D01*
X166659998Y-94185468D01*
X166660000Y-94185468D01*
X166660002Y-94185468D01*
X166716673Y-94180509D01*
X166886692Y-94165635D01*
X167106496Y-94106739D01*
X167312734Y-94010568D01*
X167499139Y-93880047D01*
X167660047Y-93719139D01*
X167790568Y-93532734D01*
X167817618Y-93474724D01*
X167863790Y-93422285D01*
X167930983Y-93403133D01*
X167997865Y-93423348D01*
X168042382Y-93474725D01*
X168069429Y-93532728D01*
X168069432Y-93532734D01*
X168199954Y-93719141D01*
X168360858Y-93880045D01*
X168360861Y-93880047D01*
X168546624Y-94010118D01*
X168590248Y-94064693D01*
X168599500Y-94111692D01*
X168599500Y-99268306D01*
X168579815Y-99335345D01*
X168546623Y-99369881D01*
X168360859Y-99499953D01*
X168199954Y-99660858D01*
X168069432Y-99847265D01*
X168069431Y-99847267D01*
X168042382Y-99905275D01*
X167996209Y-99957714D01*
X167929016Y-99976866D01*
X167862135Y-99956650D01*
X167817618Y-99905275D01*
X167797989Y-99863181D01*
X167790568Y-99847266D01*
X167660047Y-99660861D01*
X167660045Y-99660858D01*
X167499141Y-99499954D01*
X167312734Y-99369432D01*
X167312732Y-99369431D01*
X167106497Y-99273261D01*
X167106488Y-99273258D01*
X166886697Y-99214366D01*
X166886693Y-99214365D01*
X166886692Y-99214365D01*
X166886691Y-99214364D01*
X166886686Y-99214364D01*
X166660002Y-99194532D01*
X166659998Y-99194532D01*
X166433313Y-99214364D01*
X166433302Y-99214366D01*
X166337067Y-99240152D01*
X166267217Y-99238489D01*
X166217293Y-99208058D01*
X165647590Y-98638355D01*
X165647588Y-98638352D01*
X165528716Y-98519480D01*
X165528709Y-98519475D01*
X165426936Y-98460717D01*
X165426934Y-98460716D01*
X165391790Y-98440425D01*
X165391789Y-98440424D01*
X165379263Y-98437067D01*
X165239057Y-98399499D01*
X165080943Y-98399499D01*
X165073347Y-98399499D01*
X165073331Y-98399500D01*
X158824462Y-98399500D01*
X158757423Y-98379815D01*
X158736781Y-98363181D01*
X156040520Y-95666920D01*
X156007035Y-95605597D01*
X156012019Y-95535905D01*
X156040520Y-95491558D01*
X156129816Y-95402262D01*
X156225789Y-95249522D01*
X156285368Y-95079255D01*
X156294553Y-94997737D01*
X156305565Y-94900003D01*
X156305565Y-94899996D01*
X156285369Y-94720750D01*
X156285368Y-94720745D01*
X156267366Y-94669298D01*
X156225789Y-94550478D01*
X156201674Y-94512100D01*
X156129815Y-94397737D01*
X156125475Y-94392295D01*
X156127521Y-94390662D01*
X156101959Y-94346388D01*
X156100501Y-94340946D01*
X156100501Y-94340943D01*
X156092114Y-94309643D01*
X156093777Y-94239796D01*
X156132939Y-94181933D01*
X156197168Y-94154429D01*
X156243980Y-94157776D01*
X156273308Y-94165635D01*
X156417144Y-94178219D01*
X156499998Y-94185468D01*
X156500000Y-94185468D01*
X156500002Y-94185468D01*
X156556673Y-94180509D01*
X156726692Y-94165635D01*
X156946496Y-94106739D01*
X157152734Y-94010568D01*
X157339139Y-93880047D01*
X157500047Y-93719139D01*
X157630568Y-93532734D01*
X157657895Y-93474129D01*
X157704064Y-93421695D01*
X157771257Y-93402542D01*
X157838139Y-93422757D01*
X157882657Y-93474133D01*
X157909865Y-93532482D01*
X158040342Y-93718820D01*
X158201179Y-93879657D01*
X158387517Y-94010134D01*
X158593673Y-94106265D01*
X158593682Y-94106269D01*
X158789999Y-94158872D01*
X158790000Y-94158871D01*
X158790000Y-93195686D01*
X158794394Y-93200080D01*
X158885606Y-93252741D01*
X158987339Y-93280000D01*
X159092661Y-93280000D01*
X159194394Y-93252741D01*
X159285606Y-93200080D01*
X159290000Y-93195686D01*
X159290000Y-94158872D01*
X159486317Y-94106269D01*
X159486326Y-94106265D01*
X159692482Y-94010134D01*
X159878820Y-93879657D01*
X160039657Y-93718820D01*
X160170134Y-93532481D01*
X160170135Y-93532479D01*
X160197618Y-93473543D01*
X160243790Y-93421103D01*
X160310983Y-93401951D01*
X160377864Y-93422166D01*
X160422382Y-93473543D01*
X160449864Y-93532479D01*
X160449865Y-93532481D01*
X160580342Y-93718820D01*
X160741179Y-93879657D01*
X160927517Y-94010134D01*
X161133673Y-94106265D01*
X161133682Y-94106269D01*
X161329999Y-94158872D01*
X161330000Y-94158871D01*
X161330000Y-93195686D01*
X161334394Y-93200080D01*
X161425606Y-93252741D01*
X161527339Y-93280000D01*
X161632661Y-93280000D01*
X161734394Y-93252741D01*
X161825606Y-93200080D01*
X161830000Y-93195686D01*
X161830000Y-94158872D01*
G37*
G04 #@! TD.AperFunction*
G04 #@! TA.AperFunction,Conductor*
G36*
X143683976Y-98620185D02*
G01*
X143729731Y-98672989D01*
X143739675Y-98742147D01*
X143733978Y-98765455D01*
X143714633Y-98820737D01*
X143714630Y-98820750D01*
X143694435Y-98999996D01*
X143694435Y-99000003D01*
X143714630Y-99179249D01*
X143714631Y-99179254D01*
X143774211Y-99349523D01*
X143860492Y-99486838D01*
X143870184Y-99502262D01*
X143997738Y-99629816D01*
X144041724Y-99657454D01*
X144126155Y-99710506D01*
X144172446Y-99762841D01*
X144183094Y-99831895D01*
X144154719Y-99895743D01*
X144096329Y-99934115D01*
X144060183Y-99939500D01*
X138342115Y-99939500D01*
X138275076Y-99919815D01*
X138229321Y-99867011D01*
X138225933Y-99858833D01*
X138193797Y-99772670D01*
X138193795Y-99772668D01*
X138192618Y-99771095D01*
X138191931Y-99769255D01*
X138189547Y-99764888D01*
X138190175Y-99764544D01*
X138168203Y-99705630D01*
X138177326Y-99649333D01*
X138210610Y-99568978D01*
X138210611Y-99568974D01*
X138220353Y-99520000D01*
X137855671Y-99520000D01*
X137842415Y-99519289D01*
X137797873Y-99514500D01*
X137797872Y-99514500D01*
X137285830Y-99514500D01*
X137300075Y-99500255D01*
X137349444Y-99414745D01*
X137375000Y-99319370D01*
X137375000Y-99220630D01*
X137349444Y-99125255D01*
X137300075Y-99039745D01*
X137285830Y-99025500D01*
X137326004Y-99025500D01*
X137326004Y-99025499D01*
X137339473Y-99022820D01*
X137341674Y-99022383D01*
X137365866Y-99020000D01*
X138220353Y-99020000D01*
X138210612Y-98971025D01*
X138210609Y-98971016D01*
X138133343Y-98784478D01*
X138132525Y-98782946D01*
X138132338Y-98782052D01*
X138131013Y-98778851D01*
X138131620Y-98778599D01*
X138118287Y-98714542D01*
X138143292Y-98649300D01*
X138199600Y-98607933D01*
X138241887Y-98600500D01*
X143616937Y-98600500D01*
X143683976Y-98620185D01*
G37*
G04 #@! TD.AperFunction*
G04 #@! TA.AperFunction,Conductor*
G36*
X161259920Y-92634394D02*
G01*
X161207259Y-92725606D01*
X161180000Y-92827339D01*
X161180000Y-92932661D01*
X161207259Y-93034394D01*
X161259920Y-93125606D01*
X161264314Y-93130000D01*
X159355686Y-93130000D01*
X159360080Y-93125606D01*
X159412741Y-93034394D01*
X159440000Y-92932661D01*
X159440000Y-92827339D01*
X159412741Y-92725606D01*
X159360080Y-92634394D01*
X159355686Y-92630000D01*
X161264314Y-92630000D01*
X161259920Y-92634394D01*
G37*
G04 #@! TD.AperFunction*
G04 #@! TA.AperFunction,Conductor*
G36*
X166752948Y-85330185D02*
G01*
X166798292Y-85382097D01*
X166800965Y-85387830D01*
X166936501Y-85581396D01*
X166936506Y-85581402D01*
X167058430Y-85703326D01*
X167091915Y-85764649D01*
X167086931Y-85834341D01*
X167045059Y-85890274D01*
X167014083Y-85907189D01*
X166882669Y-85956203D01*
X166882664Y-85956206D01*
X166767455Y-86042452D01*
X166767452Y-86042455D01*
X166681206Y-86157664D01*
X166681202Y-86157671D01*
X166630908Y-86292517D01*
X166624501Y-86352116D01*
X166624501Y-86352123D01*
X166624500Y-86352135D01*
X166624500Y-87699902D01*
X166604815Y-87766941D01*
X166588181Y-87787583D01*
X163639481Y-90736282D01*
X163639480Y-90736284D01*
X163599537Y-90805468D01*
X163560423Y-90873215D01*
X163519499Y-91025943D01*
X163519499Y-91025945D01*
X163519499Y-91194046D01*
X163519500Y-91194059D01*
X163519500Y-91648306D01*
X163499815Y-91715345D01*
X163466623Y-91749881D01*
X163280859Y-91879953D01*
X163119954Y-92040858D01*
X162989433Y-92227264D01*
X162989432Y-92227266D01*
X162973924Y-92260524D01*
X162962106Y-92285867D01*
X162915933Y-92338306D01*
X162848739Y-92357457D01*
X162781858Y-92337241D01*
X162737342Y-92285865D01*
X162710135Y-92227520D01*
X162710134Y-92227518D01*
X162579657Y-92041179D01*
X162418820Y-91880342D01*
X162232482Y-91749865D01*
X162026328Y-91653734D01*
X161830000Y-91601127D01*
X161830000Y-92564314D01*
X161825606Y-92559920D01*
X161734394Y-92507259D01*
X161632661Y-92480000D01*
X161527339Y-92480000D01*
X161425606Y-92507259D01*
X161334394Y-92559920D01*
X161330000Y-92564314D01*
X161330000Y-91601127D01*
X161133671Y-91653734D01*
X160927517Y-91749865D01*
X160741179Y-91880342D01*
X160580342Y-92041179D01*
X160449865Y-92227517D01*
X160422382Y-92286457D01*
X160376210Y-92338896D01*
X160309016Y-92358048D01*
X160242135Y-92337832D01*
X160197618Y-92286457D01*
X160170134Y-92227517D01*
X160039657Y-92041179D01*
X159878820Y-91880342D01*
X159692482Y-91749865D01*
X159486328Y-91653734D01*
X159290000Y-91601127D01*
X159290000Y-92564314D01*
X159285606Y-92559920D01*
X159194394Y-92507259D01*
X159092661Y-92480000D01*
X158987339Y-92480000D01*
X158885606Y-92507259D01*
X158794394Y-92559920D01*
X158790000Y-92564314D01*
X158790000Y-91588740D01*
X158769369Y-91560487D01*
X158765214Y-91490741D01*
X158798375Y-91430858D01*
X164882417Y-85346819D01*
X164943740Y-85313334D01*
X164970098Y-85310500D01*
X166685909Y-85310500D01*
X166752948Y-85330185D01*
G37*
G04 #@! TD.AperFunction*
G04 #@! TA.AperFunction,Conductor*
G36*
X138195471Y-75700185D02*
G01*
X138216113Y-75716819D01*
X142863181Y-80363887D01*
X142896666Y-80425210D01*
X142899500Y-80451568D01*
X142899500Y-81417587D01*
X142879815Y-81484626D01*
X142872450Y-81494896D01*
X142870186Y-81497734D01*
X142774211Y-81650476D01*
X142712332Y-81827318D01*
X142709866Y-81826455D01*
X142681595Y-81876982D01*
X142619929Y-81909831D01*
X142550293Y-81904127D01*
X142494795Y-81861679D01*
X142488093Y-81851520D01*
X142480772Y-81839141D01*
X142418081Y-81733135D01*
X142418079Y-81733133D01*
X142418076Y-81733129D01*
X142301870Y-81616923D01*
X142301862Y-81616917D01*
X142223681Y-81570681D01*
X142160398Y-81533256D01*
X142160397Y-81533255D01*
X142160396Y-81533255D01*
X142160393Y-81533254D01*
X142002573Y-81487402D01*
X142002567Y-81487401D01*
X141965701Y-81484500D01*
X141965694Y-81484500D01*
X140234306Y-81484500D01*
X140234298Y-81484500D01*
X140197432Y-81487401D01*
X140197426Y-81487402D01*
X140039606Y-81533254D01*
X140039603Y-81533255D01*
X139898137Y-81616917D01*
X139898129Y-81616923D01*
X139781923Y-81733129D01*
X139781917Y-81733137D01*
X139698255Y-81874603D01*
X139698254Y-81874606D01*
X139652402Y-82032426D01*
X139652401Y-82032432D01*
X139649500Y-82069298D01*
X139649500Y-82500701D01*
X139652401Y-82537567D01*
X139652402Y-82537573D01*
X139698254Y-82695393D01*
X139698257Y-82695400D01*
X139740825Y-82767380D01*
X139758008Y-82835104D01*
X139735848Y-82901366D01*
X139681381Y-82945129D01*
X139634093Y-82954500D01*
X138245098Y-82954500D01*
X138178059Y-82934815D01*
X138157417Y-82918181D01*
X134636819Y-79397583D01*
X134603334Y-79336260D01*
X134600500Y-79309902D01*
X134600500Y-79094000D01*
X134620185Y-79026961D01*
X134672989Y-78981206D01*
X134724500Y-78970000D01*
X135250000Y-78970000D01*
X135250000Y-78053012D01*
X135307007Y-78085925D01*
X135434174Y-78120000D01*
X135565826Y-78120000D01*
X135692993Y-78085925D01*
X135750000Y-78053012D01*
X135750000Y-78970000D01*
X136397828Y-78970000D01*
X136397844Y-78969999D01*
X136457372Y-78963598D01*
X136457379Y-78963596D01*
X136592086Y-78913354D01*
X136592093Y-78913350D01*
X136707187Y-78827190D01*
X136707190Y-78827187D01*
X136793350Y-78712093D01*
X136793354Y-78712086D01*
X136843596Y-78577379D01*
X136843598Y-78577372D01*
X136849999Y-78517844D01*
X136850000Y-78517827D01*
X136850000Y-77870000D01*
X135933012Y-77870000D01*
X135965925Y-77812993D01*
X136000000Y-77685826D01*
X136000000Y-77554174D01*
X135965925Y-77427007D01*
X135933012Y-77370000D01*
X136850000Y-77370000D01*
X136850000Y-76722172D01*
X136849999Y-76722155D01*
X136843598Y-76662627D01*
X136843596Y-76662620D01*
X136793354Y-76527913D01*
X136793350Y-76527906D01*
X136707190Y-76412812D01*
X136707187Y-76412809D01*
X136592093Y-76326649D01*
X136592088Y-76326646D01*
X136460528Y-76277577D01*
X136404595Y-76235705D01*
X136380178Y-76170241D01*
X136395030Y-76101968D01*
X136416175Y-76073720D01*
X136538495Y-75951401D01*
X136674035Y-75757830D01*
X136676707Y-75752097D01*
X136722878Y-75699658D01*
X136789091Y-75680500D01*
X138128432Y-75680500D01*
X138195471Y-75700185D01*
G37*
G04 #@! TD.AperFunction*
G04 #@! TA.AperFunction,Conductor*
G36*
X175442539Y-65520185D02*
G01*
X175488294Y-65572989D01*
X175499500Y-65624500D01*
X175499500Y-111375500D01*
X175479815Y-111442539D01*
X175427011Y-111488294D01*
X175375500Y-111499500D01*
X120624500Y-111499500D01*
X120557461Y-111479815D01*
X120511706Y-111427011D01*
X120500500Y-111375500D01*
X120500500Y-97579054D01*
X123899498Y-97579054D01*
X123899499Y-97579057D01*
X123940423Y-97731785D01*
X123947837Y-97744626D01*
X123947838Y-97744627D01*
X123947838Y-97744628D01*
X124019477Y-97868712D01*
X124019479Y-97868715D01*
X124019480Y-97868716D01*
X124131284Y-97980520D01*
X124131285Y-97980521D01*
X124631284Y-98480520D01*
X124631286Y-98480521D01*
X124631290Y-98480524D01*
X124768209Y-98559573D01*
X124768212Y-98559575D01*
X124768216Y-98559577D01*
X124920943Y-98600501D01*
X124920945Y-98600501D01*
X125086654Y-98600501D01*
X125086670Y-98600500D01*
X135758114Y-98600500D01*
X135825153Y-98620185D01*
X135870908Y-98672989D01*
X135880852Y-98742147D01*
X135868837Y-98778788D01*
X135868987Y-98778851D01*
X135868169Y-98780824D01*
X135867470Y-98782958D01*
X135866652Y-98784487D01*
X135789390Y-98971016D01*
X135789387Y-98971025D01*
X135779647Y-99020000D01*
X136634134Y-99020000D01*
X136658326Y-99022383D01*
X136661123Y-99022939D01*
X136673995Y-99025499D01*
X136673996Y-99025500D01*
X136673997Y-99025500D01*
X136714170Y-99025500D01*
X136699925Y-99039745D01*
X136650556Y-99125255D01*
X136625000Y-99220630D01*
X136625000Y-99319370D01*
X136650556Y-99414745D01*
X136699925Y-99500255D01*
X136714170Y-99514500D01*
X136202129Y-99514500D01*
X136202125Y-99514501D01*
X136169577Y-99518000D01*
X136157576Y-99519290D01*
X136144325Y-99520000D01*
X135779647Y-99520000D01*
X135789387Y-99568974D01*
X135789390Y-99568983D01*
X135822673Y-99649335D01*
X135830142Y-99718804D01*
X135810156Y-99764723D01*
X135810454Y-99764886D01*
X135808636Y-99768213D01*
X135807385Y-99771090D01*
X135806206Y-99772664D01*
X135806202Y-99772671D01*
X135755908Y-99907517D01*
X135749501Y-99967116D01*
X135749500Y-99967135D01*
X135749500Y-101112870D01*
X135749501Y-101112876D01*
X135755908Y-101172483D01*
X135806202Y-101307328D01*
X135806206Y-101307335D01*
X135892452Y-101422544D01*
X135892455Y-101422547D01*
X136007664Y-101508793D01*
X136007671Y-101508797D01*
X136142517Y-101559091D01*
X136142516Y-101559091D01*
X136149444Y-101559835D01*
X136202127Y-101565500D01*
X137797872Y-101565499D01*
X137857483Y-101559091D01*
X137992331Y-101508796D01*
X138107546Y-101422546D01*
X138193796Y-101307331D01*
X138209771Y-101264500D01*
X138225934Y-101221166D01*
X138267806Y-101165233D01*
X138333270Y-101140816D01*
X138342116Y-101140500D01*
X149995501Y-101140500D01*
X150062540Y-101160185D01*
X150108295Y-101212989D01*
X150119501Y-101264500D01*
X150119501Y-101347876D01*
X150125908Y-101407483D01*
X150176202Y-101542328D01*
X150176206Y-101542335D01*
X150262452Y-101657544D01*
X150262455Y-101657547D01*
X150377664Y-101743793D01*
X150377671Y-101743797D01*
X150512517Y-101794091D01*
X150512516Y-101794091D01*
X150519444Y-101794835D01*
X150572127Y-101800500D01*
X152267872Y-101800499D01*
X152327483Y-101794091D01*
X152462331Y-101743796D01*
X152577546Y-101657546D01*
X152663796Y-101542331D01*
X152714091Y-101407483D01*
X152717862Y-101372401D01*
X152744599Y-101307855D01*
X152801990Y-101268006D01*
X152871816Y-101265511D01*
X152931905Y-101301163D01*
X152942726Y-101314536D01*
X152959956Y-101339143D01*
X153120858Y-101500045D01*
X153120861Y-101500047D01*
X153307266Y-101630568D01*
X153513504Y-101726739D01*
X153733308Y-101785635D01*
X153873932Y-101797938D01*
X153959998Y-101805468D01*
X153960000Y-101805468D01*
X153960002Y-101805468D01*
X154019070Y-101800300D01*
X154186692Y-101785635D01*
X154406496Y-101726739D01*
X154612734Y-101630568D01*
X154799139Y-101500047D01*
X154960047Y-101339139D01*
X155090568Y-101152734D01*
X155117618Y-101094724D01*
X155163790Y-101042285D01*
X155230983Y-101023133D01*
X155297865Y-101043348D01*
X155342382Y-101094725D01*
X155369429Y-101152728D01*
X155369432Y-101152734D01*
X155499954Y-101339141D01*
X155660858Y-101500045D01*
X155660861Y-101500047D01*
X155847266Y-101630568D01*
X156053504Y-101726739D01*
X156273308Y-101785635D01*
X156413932Y-101797938D01*
X156499998Y-101805468D01*
X156500000Y-101805468D01*
X156500002Y-101805468D01*
X156559070Y-101800300D01*
X156726692Y-101785635D01*
X156822932Y-101759847D01*
X156892781Y-101761510D01*
X156942706Y-101791941D01*
X163015139Y-107864374D01*
X163015149Y-107864385D01*
X163019479Y-107868715D01*
X163019480Y-107868716D01*
X163131284Y-107980520D01*
X163218095Y-108030639D01*
X163218097Y-108030641D01*
X163256151Y-108052611D01*
X163268215Y-108059577D01*
X163420943Y-108100501D01*
X163420946Y-108100501D01*
X163586653Y-108100501D01*
X163586669Y-108100500D01*
X167025501Y-108100500D01*
X167092540Y-108120185D01*
X167138295Y-108172989D01*
X167149501Y-108224500D01*
X167149501Y-108397876D01*
X167155908Y-108457483D01*
X167206202Y-108592328D01*
X167206206Y-108592335D01*
X167292452Y-108707544D01*
X167292455Y-108707547D01*
X167407664Y-108793793D01*
X167407671Y-108793797D01*
X167542517Y-108844091D01*
X167542516Y-108844091D01*
X167549444Y-108844835D01*
X167602127Y-108850500D01*
X169397872Y-108850499D01*
X169457483Y-108844091D01*
X169592331Y-108793796D01*
X169707546Y-108707546D01*
X169793796Y-108592331D01*
X169844091Y-108457483D01*
X169850500Y-108397873D01*
X169850499Y-106602128D01*
X169844091Y-106542517D01*
X169793796Y-106407669D01*
X169793795Y-106407668D01*
X169793793Y-106407664D01*
X169707547Y-106292455D01*
X169707544Y-106292452D01*
X169592335Y-106206206D01*
X169592328Y-106206202D01*
X169460917Y-106157189D01*
X169404983Y-106115318D01*
X169380566Y-106049853D01*
X169395418Y-105981580D01*
X169416563Y-105953332D01*
X169538495Y-105831401D01*
X169674035Y-105637830D01*
X169773903Y-105423663D01*
X169835063Y-105195408D01*
X169855659Y-104960000D01*
X169835063Y-104724592D01*
X169773903Y-104496337D01*
X169674035Y-104282171D01*
X169538495Y-104088599D01*
X169538494Y-104088597D01*
X169371402Y-103921506D01*
X169371395Y-103921501D01*
X169177834Y-103785967D01*
X169177830Y-103785965D01*
X168963663Y-103686097D01*
X168963659Y-103686096D01*
X168963655Y-103686094D01*
X168735413Y-103624938D01*
X168735403Y-103624936D01*
X168500001Y-103604341D01*
X168499999Y-103604341D01*
X168264596Y-103624936D01*
X168264583Y-103624939D01*
X168136241Y-103659327D01*
X168066392Y-103657664D01*
X168016468Y-103627233D01*
X167814821Y-103425586D01*
X167781336Y-103364263D01*
X167786320Y-103294571D01*
X167828192Y-103238638D01*
X167848704Y-103226183D01*
X167849518Y-103225790D01*
X167849522Y-103225789D01*
X168002262Y-103129816D01*
X168129816Y-103002262D01*
X168225789Y-102849522D01*
X168285368Y-102679255D01*
X168295161Y-102592329D01*
X168322226Y-102527918D01*
X168330690Y-102518543D01*
X169015450Y-101833783D01*
X169076771Y-101800300D01*
X169113933Y-101797938D01*
X169187147Y-101804343D01*
X169199999Y-101805468D01*
X169200000Y-101805468D01*
X169200002Y-101805468D01*
X169259070Y-101800300D01*
X169426692Y-101785635D01*
X169646496Y-101726739D01*
X169852734Y-101630568D01*
X170039139Y-101500047D01*
X170200047Y-101339139D01*
X170330568Y-101152734D01*
X170426739Y-100946496D01*
X170485635Y-100726692D01*
X170505468Y-100500000D01*
X170485635Y-100273308D01*
X170426739Y-100053504D01*
X170330568Y-99847266D01*
X170200047Y-99660861D01*
X170200045Y-99660858D01*
X170039140Y-99499953D01*
X169853377Y-99369881D01*
X169809752Y-99315304D01*
X169800500Y-99268306D01*
X169800500Y-94111692D01*
X169820185Y-94044653D01*
X169853374Y-94010119D01*
X170039139Y-93880047D01*
X170200047Y-93719139D01*
X170330568Y-93532734D01*
X170426739Y-93326496D01*
X170485635Y-93106692D01*
X170505468Y-92880000D01*
X170503315Y-92855396D01*
X170491960Y-92725606D01*
X170485635Y-92653308D01*
X170426739Y-92433504D01*
X170330568Y-92227266D01*
X170200047Y-92040861D01*
X170200045Y-92040858D01*
X170039141Y-91879954D01*
X169852734Y-91749432D01*
X169852732Y-91749431D01*
X169646497Y-91653261D01*
X169646488Y-91653258D01*
X169426697Y-91594366D01*
X169426693Y-91594365D01*
X169426692Y-91594365D01*
X169426691Y-91594364D01*
X169426686Y-91594364D01*
X169200002Y-91574532D01*
X169199998Y-91574532D01*
X168973313Y-91594364D01*
X168973302Y-91594366D01*
X168753511Y-91653258D01*
X168753502Y-91653261D01*
X168547267Y-91749431D01*
X168547265Y-91749432D01*
X168360858Y-91879954D01*
X168199954Y-92040858D01*
X168069432Y-92227265D01*
X168069431Y-92227267D01*
X168042382Y-92285275D01*
X167996209Y-92337714D01*
X167929016Y-92356866D01*
X167862135Y-92336650D01*
X167817618Y-92285275D01*
X167790568Y-92227266D01*
X167660047Y-92040861D01*
X167660045Y-92040858D01*
X167499141Y-91879954D01*
X167312734Y-91749432D01*
X167312732Y-91749431D01*
X167106497Y-91653261D01*
X167106488Y-91653258D01*
X166886697Y-91594366D01*
X166886693Y-91594365D01*
X166886692Y-91594365D01*
X166886691Y-91594364D01*
X166886686Y-91594364D01*
X166660002Y-91574532D01*
X166659998Y-91574532D01*
X166433313Y-91594364D01*
X166433302Y-91594366D01*
X166213511Y-91653258D01*
X166213502Y-91653261D01*
X166007267Y-91749431D01*
X166007265Y-91749432D01*
X165820858Y-91879954D01*
X165659954Y-92040858D01*
X165529432Y-92227265D01*
X165529431Y-92227267D01*
X165502382Y-92285275D01*
X165456209Y-92337714D01*
X165389016Y-92356866D01*
X165322135Y-92336650D01*
X165277618Y-92285275D01*
X165250568Y-92227266D01*
X165120047Y-92040861D01*
X165120045Y-92040858D01*
X164959140Y-91879953D01*
X164773377Y-91749881D01*
X164729752Y-91695304D01*
X164720500Y-91648306D01*
X164720500Y-91405096D01*
X164740185Y-91338057D01*
X164756814Y-91317420D01*
X167437416Y-88636817D01*
X167498739Y-88603333D01*
X167525097Y-88600499D01*
X168872871Y-88600499D01*
X168872872Y-88600499D01*
X168932483Y-88594091D01*
X169067331Y-88543796D01*
X169182546Y-88457546D01*
X169268796Y-88342331D01*
X169319091Y-88207483D01*
X169325500Y-88147873D01*
X169325499Y-86352128D01*
X169319091Y-86292517D01*
X169268796Y-86157669D01*
X169268795Y-86157668D01*
X169268793Y-86157664D01*
X169182547Y-86042455D01*
X169182544Y-86042452D01*
X169067335Y-85956206D01*
X169067328Y-85956202D01*
X168935917Y-85907189D01*
X168879983Y-85865318D01*
X168855566Y-85799853D01*
X168870418Y-85731580D01*
X168891563Y-85703332D01*
X169013495Y-85581401D01*
X169149035Y-85387830D01*
X169248903Y-85173663D01*
X169310063Y-84945408D01*
X169330659Y-84710000D01*
X169310063Y-84474592D01*
X169256372Y-84274211D01*
X169248905Y-84246344D01*
X169248904Y-84246343D01*
X169248903Y-84246337D01*
X169149035Y-84032171D01*
X169149034Y-84032169D01*
X169013494Y-83838597D01*
X168846402Y-83671506D01*
X168846395Y-83671501D01*
X168652834Y-83535967D01*
X168652830Y-83535965D01*
X168617478Y-83519480D01*
X168438663Y-83436097D01*
X168438659Y-83436096D01*
X168438655Y-83436094D01*
X168210413Y-83374938D01*
X168210403Y-83374936D01*
X167975001Y-83354341D01*
X167974999Y-83354341D01*
X167739596Y-83374936D01*
X167739586Y-83374938D01*
X167511344Y-83436094D01*
X167511335Y-83436098D01*
X167297171Y-83535964D01*
X167297169Y-83535965D01*
X167103597Y-83671505D01*
X166936506Y-83838596D01*
X166800965Y-84032170D01*
X166800962Y-84032175D01*
X166798289Y-84037909D01*
X166752115Y-84090346D01*
X166685909Y-84109500D01*
X164756670Y-84109500D01*
X164756654Y-84109499D01*
X164749058Y-84109499D01*
X164590943Y-84109499D01*
X164438215Y-84150423D01*
X164303867Y-84227989D01*
X164301281Y-84229482D01*
X156942705Y-91588058D01*
X156881382Y-91621543D01*
X156822931Y-91620152D01*
X156726697Y-91594366D01*
X156726693Y-91594365D01*
X156726692Y-91594365D01*
X156726691Y-91594364D01*
X156726686Y-91594364D01*
X156500002Y-91574532D01*
X156499998Y-91574532D01*
X156273313Y-91594364D01*
X156273302Y-91594366D01*
X156053511Y-91653258D01*
X156053502Y-91653261D01*
X155847267Y-91749431D01*
X155847265Y-91749432D01*
X155660858Y-91879954D01*
X155499954Y-92040858D01*
X155369432Y-92227265D01*
X155369431Y-92227267D01*
X155342382Y-92285275D01*
X155296209Y-92337714D01*
X155229016Y-92356866D01*
X155162135Y-92336650D01*
X155117618Y-92285275D01*
X155090568Y-92227266D01*
X154960047Y-92040861D01*
X154960045Y-92040858D01*
X154799141Y-91879954D01*
X154612734Y-91749432D01*
X154612732Y-91749431D01*
X154406497Y-91653261D01*
X154406488Y-91653258D01*
X154186697Y-91594366D01*
X154186693Y-91594365D01*
X154186692Y-91594365D01*
X154186691Y-91594364D01*
X154186686Y-91594364D01*
X153960002Y-91574532D01*
X153959998Y-91574532D01*
X153733313Y-91594364D01*
X153733302Y-91594366D01*
X153513511Y-91653258D01*
X153513502Y-91653261D01*
X153307267Y-91749431D01*
X153307265Y-91749432D01*
X153120861Y-91879952D01*
X153060521Y-91940291D01*
X152999197Y-91973775D01*
X152929506Y-91968789D01*
X152885160Y-91940289D01*
X152363225Y-91418355D01*
X152363223Y-91418352D01*
X152244352Y-91299481D01*
X152244351Y-91299480D01*
X152157539Y-91249360D01*
X152157539Y-91249359D01*
X152157535Y-91249358D01*
X152107420Y-91220423D01*
X151954692Y-91179499D01*
X151796578Y-91179499D01*
X151788982Y-91179499D01*
X151788966Y-91179500D01*
X148080097Y-91179500D01*
X148013058Y-91159815D01*
X147992416Y-91143181D01*
X147623741Y-90774506D01*
X147590256Y-90713183D01*
X147595240Y-90643491D01*
X147637112Y-90587558D01*
X147702576Y-90563141D01*
X147770849Y-90577993D01*
X147782541Y-90585247D01*
X147847266Y-90630568D01*
X148053504Y-90726739D01*
X148053509Y-90726740D01*
X148053511Y-90726741D01*
X148089130Y-90736285D01*
X148273308Y-90785635D01*
X148435230Y-90799801D01*
X148499998Y-90805468D01*
X148500000Y-90805468D01*
X148500002Y-90805468D01*
X148556673Y-90800509D01*
X148726692Y-90785635D01*
X148946496Y-90726739D01*
X149152734Y-90630568D01*
X149339139Y-90500047D01*
X149500047Y-90339139D01*
X149630568Y-90152734D01*
X149726739Y-89946496D01*
X149785635Y-89726692D01*
X149805468Y-89500000D01*
X149785635Y-89273308D01*
X149737273Y-89092819D01*
X149726741Y-89053511D01*
X149726738Y-89053502D01*
X149648164Y-88885001D01*
X149630568Y-88847266D01*
X149500047Y-88660861D01*
X149500045Y-88660858D01*
X149339141Y-88499954D01*
X149152734Y-88369432D01*
X149152732Y-88369431D01*
X148946497Y-88273261D01*
X148946488Y-88273258D01*
X148726697Y-88214366D01*
X148726693Y-88214365D01*
X148726692Y-88214365D01*
X148726691Y-88214364D01*
X148726686Y-88214364D01*
X148500002Y-88194532D01*
X148499998Y-88194532D01*
X148273313Y-88214364D01*
X148273302Y-88214366D01*
X148177067Y-88240152D01*
X148107217Y-88238489D01*
X148057293Y-88208058D01*
X146852590Y-87003355D01*
X146852588Y-87003352D01*
X146733717Y-86884481D01*
X146733709Y-86884475D01*
X146610143Y-86813135D01*
X146610140Y-86813134D01*
X146596785Y-86805423D01*
X146444057Y-86764499D01*
X146285943Y-86764499D01*
X146278347Y-86764499D01*
X146278331Y-86764500D01*
X142565907Y-86764500D01*
X142498868Y-86744815D01*
X142453113Y-86692011D01*
X142443169Y-86622853D01*
X142459175Y-86577380D01*
X142480973Y-86540518D01*
X142501744Y-86505398D01*
X142535505Y-86389191D01*
X142547597Y-86347573D01*
X142547598Y-86347567D01*
X142550500Y-86310694D01*
X142550500Y-86190097D01*
X142570185Y-86123058D01*
X142586819Y-86102416D01*
X145314299Y-83374936D01*
X148057295Y-80631939D01*
X148118616Y-80598456D01*
X148177067Y-80599846D01*
X148273308Y-80625635D01*
X148435230Y-80639801D01*
X148499998Y-80645468D01*
X148500000Y-80645468D01*
X148500002Y-80645468D01*
X148556673Y-80640509D01*
X148726692Y-80625635D01*
X148946496Y-80566739D01*
X149152734Y-80470568D01*
X149339139Y-80340047D01*
X149500047Y-80179139D01*
X149630568Y-79992734D01*
X149726739Y-79786496D01*
X149785635Y-79566692D01*
X149805468Y-79340000D01*
X149785635Y-79113308D01*
X149726739Y-78893504D01*
X149630568Y-78687266D01*
X149500047Y-78500861D01*
X149500045Y-78500858D01*
X149339141Y-78339954D01*
X149152734Y-78209432D01*
X149152732Y-78209431D01*
X148946497Y-78113261D01*
X148946488Y-78113258D01*
X148726697Y-78054366D01*
X148726693Y-78054365D01*
X148726692Y-78054365D01*
X148726691Y-78054364D01*
X148726686Y-78054364D01*
X148500002Y-78034532D01*
X148499998Y-78034532D01*
X148273313Y-78054364D01*
X148273302Y-78054366D01*
X148053511Y-78113258D01*
X148053502Y-78113261D01*
X147847267Y-78209431D01*
X147847265Y-78209432D01*
X147660858Y-78339954D01*
X147499954Y-78500858D01*
X147369432Y-78687265D01*
X147369431Y-78687267D01*
X147273261Y-78893502D01*
X147273258Y-78893511D01*
X147214366Y-79113302D01*
X147214364Y-79113313D01*
X147194532Y-79339998D01*
X147194532Y-79340001D01*
X147214364Y-79566686D01*
X147214365Y-79566694D01*
X147240152Y-79662929D01*
X147238489Y-79732779D01*
X147208058Y-79782704D01*
X145852181Y-81138582D01*
X145790858Y-81172067D01*
X145721166Y-81167083D01*
X145665233Y-81125211D01*
X145640816Y-81059747D01*
X145640500Y-81050901D01*
X145640500Y-76841343D01*
X145660185Y-76774304D01*
X145705483Y-76732288D01*
X145724207Y-76722155D01*
X145808626Y-76676470D01*
X145991784Y-76533913D01*
X146148979Y-76363153D01*
X146275924Y-76168849D01*
X146369157Y-75956300D01*
X146426134Y-75731305D01*
X146426135Y-75731297D01*
X146445300Y-75500006D01*
X146445300Y-75499993D01*
X146426135Y-75268702D01*
X146426131Y-75268682D01*
X146372004Y-75054941D01*
X146374628Y-74985120D01*
X146414584Y-74927803D01*
X146479185Y-74901186D01*
X146492209Y-74900500D01*
X146499903Y-74900500D01*
X146566942Y-74920185D01*
X146587584Y-74936819D01*
X152208058Y-80557293D01*
X152241543Y-80618616D01*
X152240152Y-80677067D01*
X152214366Y-80773302D01*
X152214364Y-80773313D01*
X152194532Y-80999998D01*
X152194532Y-81000001D01*
X152214364Y-81226686D01*
X152214366Y-81226697D01*
X152273258Y-81446488D01*
X152273261Y-81446497D01*
X152369431Y-81652732D01*
X152369432Y-81652734D01*
X152499954Y-81839141D01*
X152660858Y-82000045D01*
X152660861Y-82000047D01*
X152847266Y-82130568D01*
X153053504Y-82226739D01*
X153273308Y-82285635D01*
X153435230Y-82299801D01*
X153499998Y-82305468D01*
X153500000Y-82305468D01*
X153500002Y-82305468D01*
X153556673Y-82300509D01*
X153726692Y-82285635D01*
X153946496Y-82226739D01*
X154152734Y-82130568D01*
X154339139Y-82000047D01*
X154500047Y-81839139D01*
X154630568Y-81652734D01*
X154726739Y-81446496D01*
X154785635Y-81226692D01*
X154805468Y-81000000D01*
X154785635Y-80773308D01*
X154779389Y-80749999D01*
X162381127Y-80749999D01*
X162381128Y-80750000D01*
X163344314Y-80750000D01*
X163339920Y-80754394D01*
X163287259Y-80845606D01*
X163260000Y-80947339D01*
X163260000Y-81052661D01*
X163287259Y-81154394D01*
X163339920Y-81245606D01*
X163344314Y-81250000D01*
X162381128Y-81250000D01*
X162433730Y-81446317D01*
X162433734Y-81446326D01*
X162529865Y-81652482D01*
X162660342Y-81838820D01*
X162821179Y-81999657D01*
X163007517Y-82130134D01*
X163213673Y-82226265D01*
X163213682Y-82226269D01*
X163409999Y-82278872D01*
X163410000Y-82278871D01*
X163410000Y-81315686D01*
X163414394Y-81320080D01*
X163505606Y-81372741D01*
X163607339Y-81400000D01*
X163712661Y-81400000D01*
X163814394Y-81372741D01*
X163905606Y-81320080D01*
X163910000Y-81315686D01*
X163910000Y-82278872D01*
X164106317Y-82226269D01*
X164106326Y-82226265D01*
X164312482Y-82130134D01*
X164498820Y-81999657D01*
X164659657Y-81838820D01*
X164790134Y-81652482D01*
X164886265Y-81446326D01*
X164886269Y-81446317D01*
X164938872Y-81250000D01*
X163975686Y-81250000D01*
X163980080Y-81245606D01*
X164032741Y-81154394D01*
X164060000Y-81052661D01*
X164060000Y-80947339D01*
X164032741Y-80845606D01*
X163980080Y-80754394D01*
X163975686Y-80750000D01*
X164938872Y-80750000D01*
X164938872Y-80749999D01*
X164886269Y-80553682D01*
X164886265Y-80553673D01*
X164790134Y-80347517D01*
X164659657Y-80161179D01*
X164498820Y-80000342D01*
X164312482Y-79869865D01*
X164106328Y-79773734D01*
X163910000Y-79721127D01*
X163910000Y-80684314D01*
X163905606Y-80679920D01*
X163814394Y-80627259D01*
X163712661Y-80600000D01*
X163607339Y-80600000D01*
X163505606Y-80627259D01*
X163414394Y-80679920D01*
X163410000Y-80684314D01*
X163410000Y-79721127D01*
X163213671Y-79773734D01*
X163007517Y-79869865D01*
X162821179Y-80000342D01*
X162660342Y-80161179D01*
X162529865Y-80347517D01*
X162433734Y-80553673D01*
X162433730Y-80553682D01*
X162381127Y-80749999D01*
X154779389Y-80749999D01*
X154726739Y-80553504D01*
X154630568Y-80347266D01*
X154500047Y-80160861D01*
X154500045Y-80160858D01*
X154339141Y-79999954D01*
X154224506Y-79919687D01*
X154152734Y-79869432D01*
X153974881Y-79786497D01*
X153946497Y-79773261D01*
X153946488Y-79773258D01*
X153726697Y-79714366D01*
X153726693Y-79714365D01*
X153726692Y-79714365D01*
X153726691Y-79714364D01*
X153726686Y-79714364D01*
X153500002Y-79694532D01*
X153499998Y-79694532D01*
X153273313Y-79714364D01*
X153273302Y-79714366D01*
X153177067Y-79740152D01*
X153107217Y-79738489D01*
X153057293Y-79708058D01*
X147287590Y-73938355D01*
X147287588Y-73938352D01*
X147168717Y-73819481D01*
X147168712Y-73819477D01*
X147039605Y-73744938D01*
X147039604Y-73744937D01*
X147031787Y-73740423D01*
X146970693Y-73724053D01*
X146879057Y-73699499D01*
X146720943Y-73699499D01*
X146713347Y-73699499D01*
X146713331Y-73699500D01*
X143620942Y-73699500D01*
X143468213Y-73740423D01*
X143460396Y-73744937D01*
X143460394Y-73744938D01*
X143331287Y-73819477D01*
X143331282Y-73819481D01*
X143244799Y-73905965D01*
X143219480Y-73931284D01*
X143219478Y-73931286D01*
X143109263Y-74041501D01*
X143087582Y-74063182D01*
X143026259Y-74096666D01*
X142999901Y-74099500D01*
X141552129Y-74099500D01*
X141552123Y-74099501D01*
X141492516Y-74105908D01*
X141357671Y-74156202D01*
X141357664Y-74156206D01*
X141242455Y-74242452D01*
X141242452Y-74242455D01*
X141156206Y-74357664D01*
X141156202Y-74357671D01*
X141105908Y-74492517D01*
X141099501Y-74552116D01*
X141099500Y-74552135D01*
X141099500Y-76447870D01*
X141099501Y-76447876D01*
X141105908Y-76507483D01*
X141145039Y-76612398D01*
X141150023Y-76682090D01*
X141116537Y-76743413D01*
X141055214Y-76776897D01*
X140985522Y-76771912D01*
X140941176Y-76743412D01*
X138916119Y-74718355D01*
X138916117Y-74718352D01*
X138797246Y-74599481D01*
X138797238Y-74599475D01*
X138679994Y-74531785D01*
X138679994Y-74531784D01*
X138679989Y-74531783D01*
X138673123Y-74527818D01*
X138660315Y-74520423D01*
X138622132Y-74510192D01*
X138507586Y-74479499D01*
X138349472Y-74479499D01*
X138341876Y-74479499D01*
X138341860Y-74479500D01*
X136789091Y-74479500D01*
X136722052Y-74459815D01*
X136676711Y-74407909D01*
X136674037Y-74402175D01*
X136674034Y-74402170D01*
X136538494Y-74208597D01*
X136371402Y-74041506D01*
X136371396Y-74041501D01*
X136185842Y-73911575D01*
X136142217Y-73856998D01*
X136135023Y-73787500D01*
X136166546Y-73725145D01*
X136185842Y-73708425D01*
X136208026Y-73692891D01*
X136371401Y-73578495D01*
X136538495Y-73411401D01*
X136674035Y-73217830D01*
X136773903Y-73003663D01*
X136835063Y-72775408D01*
X136855659Y-72540000D01*
X136835063Y-72304592D01*
X136773903Y-72076337D01*
X136674035Y-71862171D01*
X136674034Y-71862169D01*
X136538494Y-71668597D01*
X136371402Y-71501506D01*
X136371396Y-71501501D01*
X136185842Y-71371575D01*
X136142217Y-71316998D01*
X136135023Y-71247500D01*
X136166546Y-71185145D01*
X136185842Y-71168425D01*
X136208026Y-71152891D01*
X136371401Y-71038495D01*
X136538495Y-70871401D01*
X136674035Y-70677830D01*
X136773903Y-70463663D01*
X136835063Y-70235408D01*
X136855659Y-70000000D01*
X136835063Y-69764592D01*
X136773903Y-69536337D01*
X136674035Y-69322171D01*
X136538495Y-69128599D01*
X136538494Y-69128597D01*
X136371402Y-68961506D01*
X136371395Y-68961501D01*
X136177834Y-68825967D01*
X136177830Y-68825965D01*
X136177828Y-68825964D01*
X135963663Y-68726097D01*
X135963659Y-68726096D01*
X135963655Y-68726094D01*
X135735413Y-68664938D01*
X135735403Y-68664936D01*
X135500001Y-68644341D01*
X135499999Y-68644341D01*
X135264596Y-68664936D01*
X135264586Y-68664938D01*
X135036344Y-68726094D01*
X135036335Y-68726098D01*
X134822171Y-68825964D01*
X134822169Y-68825965D01*
X134628597Y-68961505D01*
X134461505Y-69128597D01*
X134325965Y-69322169D01*
X134325964Y-69322171D01*
X134226098Y-69536335D01*
X134226094Y-69536344D01*
X134164938Y-69764586D01*
X134164936Y-69764596D01*
X134144341Y-69999999D01*
X134144341Y-70000000D01*
X134164936Y-70235403D01*
X134164938Y-70235413D01*
X134226094Y-70463655D01*
X134226096Y-70463659D01*
X134226097Y-70463663D01*
X134325965Y-70677830D01*
X134325967Y-70677834D01*
X134461501Y-70871395D01*
X134461506Y-70871402D01*
X134628597Y-71038493D01*
X134628603Y-71038498D01*
X134814158Y-71168425D01*
X134857783Y-71223002D01*
X134864977Y-71292500D01*
X134833454Y-71354855D01*
X134814158Y-71371575D01*
X134628597Y-71501505D01*
X134461506Y-71668596D01*
X134325965Y-71862170D01*
X134323257Y-71866862D01*
X134321688Y-71865956D01*
X134280832Y-71912325D01*
X134213632Y-71931455D01*
X134182564Y-71927234D01*
X134126923Y-71912325D01*
X134079057Y-71899499D01*
X133920943Y-71899499D01*
X133817436Y-71927234D01*
X133768210Y-71940424D01*
X133768209Y-71940425D01*
X133718096Y-71969359D01*
X133718095Y-71969360D01*
X133674689Y-71994420D01*
X133631285Y-72019479D01*
X133631282Y-72019481D01*
X133519481Y-72131282D01*
X133519479Y-72131285D01*
X133469361Y-72218094D01*
X133469359Y-72218096D01*
X133440425Y-72268209D01*
X133440424Y-72268210D01*
X133424544Y-72327472D01*
X133399499Y-72420943D01*
X133399499Y-72420945D01*
X133399499Y-72589046D01*
X133399500Y-72589059D01*
X133399500Y-79523330D01*
X133399499Y-79523348D01*
X133399499Y-79689054D01*
X133399498Y-79689054D01*
X133440424Y-79841789D01*
X133440425Y-79841790D01*
X133456384Y-79869431D01*
X133456385Y-79869432D01*
X133519477Y-79978712D01*
X133519481Y-79978717D01*
X133638349Y-80097585D01*
X133638354Y-80097589D01*
X137008084Y-83467320D01*
X137041568Y-83528641D01*
X137036584Y-83598333D01*
X137008083Y-83642680D01*
X136481465Y-84169298D01*
X136420142Y-84202783D01*
X136407668Y-84204837D01*
X136320750Y-84214630D01*
X136150478Y-84274210D01*
X135997737Y-84370184D01*
X135870184Y-84497737D01*
X135774211Y-84650476D01*
X135714631Y-84820745D01*
X135714630Y-84820750D01*
X135694435Y-84999996D01*
X135694435Y-85000003D01*
X135714630Y-85179249D01*
X135714631Y-85179254D01*
X135774211Y-85349523D01*
X135798282Y-85387831D01*
X135870184Y-85502262D01*
X135997738Y-85629816D01*
X136150478Y-85725789D01*
X136317050Y-85784075D01*
X136320745Y-85785368D01*
X136320750Y-85785369D01*
X136499996Y-85805565D01*
X136500000Y-85805565D01*
X136500004Y-85805565D01*
X136679249Y-85785369D01*
X136679252Y-85785368D01*
X136679255Y-85785368D01*
X136849522Y-85725789D01*
X137002262Y-85629816D01*
X137129816Y-85502262D01*
X137225789Y-85349522D01*
X137285368Y-85179255D01*
X137295161Y-85092329D01*
X137322226Y-85027918D01*
X137330690Y-85018544D01*
X138157417Y-84191819D01*
X138218740Y-84158334D01*
X138245098Y-84155500D01*
X139634093Y-84155500D01*
X139701132Y-84175185D01*
X139746887Y-84227989D01*
X139756831Y-84297147D01*
X139740825Y-84342620D01*
X139698257Y-84414599D01*
X139698254Y-84414606D01*
X139652402Y-84572426D01*
X139652401Y-84572432D01*
X139649500Y-84609298D01*
X139649500Y-85040701D01*
X139652401Y-85077567D01*
X139652402Y-85077573D01*
X139698254Y-85235393D01*
X139698255Y-85235396D01*
X139781917Y-85376862D01*
X139786702Y-85383031D01*
X139784256Y-85384927D01*
X139810857Y-85433642D01*
X139805873Y-85503334D01*
X139785069Y-85535703D01*
X139786702Y-85536969D01*
X139781917Y-85543137D01*
X139698255Y-85684603D01*
X139698254Y-85684606D01*
X139652402Y-85842426D01*
X139652401Y-85842432D01*
X139649500Y-85879298D01*
X139649500Y-86310701D01*
X139652401Y-86347567D01*
X139652402Y-86347573D01*
X139698254Y-86505393D01*
X139698255Y-86505396D01*
X139781917Y-86646862D01*
X139786702Y-86653031D01*
X139784256Y-86654927D01*
X139810857Y-86703642D01*
X139805873Y-86773334D01*
X139785069Y-86805703D01*
X139786702Y-86806969D01*
X139781919Y-86813135D01*
X139698255Y-86954603D01*
X139698254Y-86954606D01*
X139652402Y-87112426D01*
X139652401Y-87112432D01*
X139649500Y-87149298D01*
X139649500Y-87580701D01*
X139652401Y-87617567D01*
X139652402Y-87617573D01*
X139698254Y-87775393D01*
X139698255Y-87775396D01*
X139781917Y-87916862D01*
X139786702Y-87923031D01*
X139784256Y-87924927D01*
X139810857Y-87973642D01*
X139805873Y-88043334D01*
X139785069Y-88075703D01*
X139786702Y-88076969D01*
X139781919Y-88083135D01*
X139709259Y-88205995D01*
X139690210Y-88230552D01*
X139654482Y-88266281D01*
X139654475Y-88266291D01*
X139575426Y-88403209D01*
X139575423Y-88403216D01*
X139534500Y-88555943D01*
X139534500Y-88714057D01*
X139570194Y-88847267D01*
X139575423Y-88866783D01*
X139575426Y-88866790D01*
X139654475Y-89003709D01*
X139654481Y-89003717D01*
X139690208Y-89039444D01*
X139709259Y-89064004D01*
X139781916Y-89186861D01*
X139786702Y-89193031D01*
X139784256Y-89194927D01*
X139810857Y-89243642D01*
X139805873Y-89313334D01*
X139785069Y-89345703D01*
X139786702Y-89346969D01*
X139781919Y-89353135D01*
X139698255Y-89494603D01*
X139698254Y-89494606D01*
X139652402Y-89652426D01*
X139652401Y-89652432D01*
X139649500Y-89689298D01*
X139649500Y-90120701D01*
X139652401Y-90157567D01*
X139652402Y-90157573D01*
X139698254Y-90315393D01*
X139698255Y-90315396D01*
X139781917Y-90456862D01*
X139786702Y-90463031D01*
X139784256Y-90464927D01*
X139810857Y-90513642D01*
X139805873Y-90583334D01*
X139785069Y-90615703D01*
X139786702Y-90616969D01*
X139781917Y-90623137D01*
X139698255Y-90764603D01*
X139698254Y-90764606D01*
X139652402Y-90922426D01*
X139652401Y-90922432D01*
X139649500Y-90959298D01*
X139649500Y-91390701D01*
X139652401Y-91427567D01*
X139652402Y-91427573D01*
X139698254Y-91585393D01*
X139698255Y-91585396D01*
X139698256Y-91585398D01*
X139703559Y-91594365D01*
X139781917Y-91726862D01*
X139786702Y-91733031D01*
X139784256Y-91734927D01*
X139810857Y-91783642D01*
X139805873Y-91853334D01*
X139785069Y-91885703D01*
X139786702Y-91886969D01*
X139781917Y-91893137D01*
X139698255Y-92034603D01*
X139698254Y-92034606D01*
X139652402Y-92192426D01*
X139652401Y-92192432D01*
X139649500Y-92229298D01*
X139649500Y-92660701D01*
X139652401Y-92697567D01*
X139652402Y-92697573D01*
X139698254Y-92855393D01*
X139698255Y-92855396D01*
X139781917Y-92996862D01*
X139786702Y-93003031D01*
X139784256Y-93004927D01*
X139810857Y-93053642D01*
X139805873Y-93123334D01*
X139785069Y-93155703D01*
X139786702Y-93156969D01*
X139781917Y-93163137D01*
X139698255Y-93304603D01*
X139698254Y-93304606D01*
X139652402Y-93462426D01*
X139652401Y-93462432D01*
X139649500Y-93499298D01*
X139649500Y-93930701D01*
X139652401Y-93967567D01*
X139652402Y-93967573D01*
X139698254Y-94125393D01*
X139698255Y-94125396D01*
X139698256Y-94125398D01*
X139706801Y-94139847D01*
X139781917Y-94266862D01*
X139781923Y-94266870D01*
X139898129Y-94383076D01*
X139898133Y-94383079D01*
X139898135Y-94383081D01*
X140039602Y-94466744D01*
X140081224Y-94478836D01*
X140197426Y-94512597D01*
X140197429Y-94512597D01*
X140197431Y-94512598D01*
X140234306Y-94515500D01*
X140234314Y-94515500D01*
X141965686Y-94515500D01*
X141965694Y-94515500D01*
X142002569Y-94512598D01*
X142002571Y-94512597D01*
X142002573Y-94512597D01*
X142044599Y-94500387D01*
X142160398Y-94466744D01*
X142301865Y-94383081D01*
X142333126Y-94351820D01*
X142394448Y-94318334D01*
X142420808Y-94315500D01*
X143914903Y-94315500D01*
X143981942Y-94335185D01*
X144002584Y-94351819D01*
X145169298Y-95518533D01*
X145202783Y-95579856D01*
X145204837Y-95592330D01*
X145214630Y-95679249D01*
X145274210Y-95849521D01*
X145286271Y-95868716D01*
X145370184Y-96002262D01*
X145497738Y-96129816D01*
X145650478Y-96225789D01*
X145820745Y-96285368D01*
X145820750Y-96285369D01*
X145999996Y-96305565D01*
X146000000Y-96305565D01*
X146000004Y-96305565D01*
X146179249Y-96285369D01*
X146179252Y-96285368D01*
X146179255Y-96285368D01*
X146349522Y-96225789D01*
X146502262Y-96129816D01*
X146629816Y-96002262D01*
X146725789Y-95849522D01*
X146785368Y-95679255D01*
X146789904Y-95639001D01*
X146793206Y-95609691D01*
X146820272Y-95545276D01*
X146877866Y-95505721D01*
X146947703Y-95503582D01*
X146993743Y-95526629D01*
X146997731Y-95529809D01*
X146997738Y-95529816D01*
X147150478Y-95625789D01*
X147188236Y-95639001D01*
X147320745Y-95685368D01*
X147320750Y-95685369D01*
X147464499Y-95701565D01*
X147528913Y-95728631D01*
X147568468Y-95786226D01*
X147570606Y-95856063D01*
X147538297Y-95912466D01*
X146087584Y-97363181D01*
X146026261Y-97396666D01*
X145999903Y-97399500D01*
X138123397Y-97399500D01*
X138056358Y-97379815D01*
X138026288Y-97350279D01*
X138025422Y-97350990D01*
X138021555Y-97346278D01*
X137878718Y-97203441D01*
X137710762Y-97091217D01*
X137710752Y-97091212D01*
X137524127Y-97013909D01*
X137524119Y-97013907D01*
X137326007Y-96974500D01*
X137326003Y-96974500D01*
X136673997Y-96974500D01*
X136673992Y-96974500D01*
X136475880Y-97013907D01*
X136475872Y-97013909D01*
X136289247Y-97091212D01*
X136289237Y-97091217D01*
X136121281Y-97203441D01*
X135978444Y-97346278D01*
X135974578Y-97350990D01*
X135973181Y-97349843D01*
X135926088Y-97389198D01*
X135876603Y-97399500D01*
X125300098Y-97399500D01*
X125233059Y-97379815D01*
X125212417Y-97363181D01*
X125136819Y-97287583D01*
X125103334Y-97226260D01*
X125100500Y-97199902D01*
X125100500Y-93965001D01*
X130452704Y-93965001D01*
X130452899Y-93967486D01*
X130498718Y-94125198D01*
X130582314Y-94266552D01*
X130582321Y-94266561D01*
X130698438Y-94382678D01*
X130698447Y-94382685D01*
X130839803Y-94466282D01*
X130839806Y-94466283D01*
X130997504Y-94512099D01*
X130997510Y-94512100D01*
X131034350Y-94514999D01*
X131034366Y-94515000D01*
X131650000Y-94515000D01*
X131650000Y-93965000D01*
X132150000Y-93965000D01*
X132150000Y-94515000D01*
X132765634Y-94515000D01*
X132765649Y-94514999D01*
X132802489Y-94512100D01*
X132802495Y-94512099D01*
X132960193Y-94466283D01*
X132960196Y-94466282D01*
X133101552Y-94382685D01*
X133101561Y-94382678D01*
X133217678Y-94266561D01*
X133217685Y-94266552D01*
X133301281Y-94125198D01*
X133347100Y-93967486D01*
X133347295Y-93965001D01*
X133347295Y-93965000D01*
X132150000Y-93965000D01*
X131650000Y-93965000D01*
X130452705Y-93965000D01*
X130452704Y-93965001D01*
X125100500Y-93965001D01*
X125100500Y-93464998D01*
X130452704Y-93464998D01*
X130452705Y-93465000D01*
X131650000Y-93465000D01*
X131650000Y-92695000D01*
X132150000Y-92695000D01*
X132150000Y-93465000D01*
X133347295Y-93465000D01*
X133347295Y-93464998D01*
X133347100Y-93462513D01*
X133301281Y-93304801D01*
X133217685Y-93163447D01*
X133212900Y-93157278D01*
X133215252Y-93155453D01*
X133188445Y-93106405D01*
X133193402Y-93036712D01*
X133214465Y-93003936D01*
X133212900Y-93002722D01*
X133217685Y-92996552D01*
X133301281Y-92855198D01*
X133347100Y-92697486D01*
X133347295Y-92695001D01*
X133347295Y-92695000D01*
X132150000Y-92695000D01*
X131650000Y-92695000D01*
X130452705Y-92695000D01*
X130452704Y-92695001D01*
X130452899Y-92697486D01*
X130498718Y-92855198D01*
X130582314Y-92996552D01*
X130587100Y-93002722D01*
X130584753Y-93004542D01*
X130611564Y-93053642D01*
X130606580Y-93123334D01*
X130585541Y-93156069D01*
X130587100Y-93157278D01*
X130582314Y-93163447D01*
X130498718Y-93304801D01*
X130452899Y-93462513D01*
X130452704Y-93464998D01*
X125100500Y-93464998D01*
X125100500Y-92194998D01*
X130452704Y-92194998D01*
X130452705Y-92195000D01*
X131650000Y-92195000D01*
X131650000Y-91425000D01*
X132150000Y-91425000D01*
X132150000Y-92195000D01*
X133347295Y-92195000D01*
X133347295Y-92194998D01*
X133347100Y-92192513D01*
X133301281Y-92034801D01*
X133217685Y-91893447D01*
X133212900Y-91887278D01*
X133215252Y-91885453D01*
X133188445Y-91836405D01*
X133193402Y-91766712D01*
X133214465Y-91733936D01*
X133212900Y-91732722D01*
X133217685Y-91726552D01*
X133301281Y-91585198D01*
X133347100Y-91427486D01*
X133347295Y-91425001D01*
X133347295Y-91425000D01*
X132150000Y-91425000D01*
X131650000Y-91425000D01*
X130452705Y-91425000D01*
X130452704Y-91425001D01*
X130452899Y-91427486D01*
X130498718Y-91585198D01*
X130582314Y-91726552D01*
X130587100Y-91732722D01*
X130584753Y-91734542D01*
X130611564Y-91783642D01*
X130606580Y-91853334D01*
X130585541Y-91886069D01*
X130587100Y-91887278D01*
X130582314Y-91893447D01*
X130498718Y-92034801D01*
X130452899Y-92192513D01*
X130452704Y-92194998D01*
X125100500Y-92194998D01*
X125100500Y-90924998D01*
X130452704Y-90924998D01*
X130452705Y-90925000D01*
X131650000Y-90925000D01*
X131650000Y-90155000D01*
X132150000Y-90155000D01*
X132150000Y-90925000D01*
X133347295Y-90925000D01*
X133347295Y-90924998D01*
X133347100Y-90922513D01*
X133301281Y-90764801D01*
X133217685Y-90623447D01*
X133212900Y-90617278D01*
X133215252Y-90615453D01*
X133188445Y-90566405D01*
X133193402Y-90496712D01*
X133214465Y-90463936D01*
X133212900Y-90462722D01*
X133217685Y-90456552D01*
X133301281Y-90315198D01*
X133347100Y-90157486D01*
X133347295Y-90155001D01*
X133347295Y-90155000D01*
X132150000Y-90155000D01*
X131650000Y-90155000D01*
X130452705Y-90155000D01*
X130452704Y-90155001D01*
X130452899Y-90157486D01*
X130498718Y-90315198D01*
X130582314Y-90456552D01*
X130587100Y-90462722D01*
X130584753Y-90464542D01*
X130611564Y-90513642D01*
X130606580Y-90583334D01*
X130585541Y-90616069D01*
X130587100Y-90617278D01*
X130582314Y-90623447D01*
X130498718Y-90764801D01*
X130452899Y-90922513D01*
X130452704Y-90924998D01*
X125100500Y-90924998D01*
X125100500Y-89654998D01*
X130452704Y-89654998D01*
X130452705Y-89655000D01*
X131650000Y-89655000D01*
X131650000Y-88885000D01*
X132150000Y-88885000D01*
X132150000Y-89655000D01*
X133347295Y-89655000D01*
X133347295Y-89654998D01*
X133347100Y-89652513D01*
X133301281Y-89494801D01*
X133217685Y-89353447D01*
X133212900Y-89347278D01*
X133215252Y-89345453D01*
X133188445Y-89296405D01*
X133193402Y-89226712D01*
X133214465Y-89193936D01*
X133212900Y-89192722D01*
X133217685Y-89186552D01*
X133301281Y-89045198D01*
X133347100Y-88887486D01*
X133347295Y-88885001D01*
X133347295Y-88885000D01*
X132150000Y-88885000D01*
X131650000Y-88885000D01*
X130452705Y-88885000D01*
X130452704Y-88885001D01*
X130452899Y-88887486D01*
X130498718Y-89045198D01*
X130582314Y-89186552D01*
X130587100Y-89192722D01*
X130584753Y-89194542D01*
X130611564Y-89243642D01*
X130606580Y-89313334D01*
X130585541Y-89346069D01*
X130587100Y-89347278D01*
X130582314Y-89353447D01*
X130498718Y-89494801D01*
X130452899Y-89652513D01*
X130452704Y-89654998D01*
X125100500Y-89654998D01*
X125100500Y-88384998D01*
X130452704Y-88384998D01*
X130452705Y-88385000D01*
X131650000Y-88385000D01*
X131650000Y-87615000D01*
X132150000Y-87615000D01*
X132150000Y-88385000D01*
X133347295Y-88385000D01*
X133347295Y-88384998D01*
X133347100Y-88382513D01*
X133301281Y-88224801D01*
X133217685Y-88083447D01*
X133212900Y-88077278D01*
X133215252Y-88075453D01*
X133188445Y-88026405D01*
X133193402Y-87956712D01*
X133214465Y-87923936D01*
X133212900Y-87922722D01*
X133217685Y-87916552D01*
X133301281Y-87775198D01*
X133347100Y-87617486D01*
X133347295Y-87615001D01*
X133347295Y-87615000D01*
X132150000Y-87615000D01*
X131650000Y-87615000D01*
X130452705Y-87615000D01*
X130452704Y-87615001D01*
X130452899Y-87617486D01*
X130498718Y-87775198D01*
X130582314Y-87916552D01*
X130587100Y-87922722D01*
X130584753Y-87924542D01*
X130611564Y-87973642D01*
X130606580Y-88043334D01*
X130585541Y-88076069D01*
X130587100Y-88077278D01*
X130582314Y-88083447D01*
X130498718Y-88224801D01*
X130452899Y-88382513D01*
X130452704Y-88384998D01*
X125100500Y-88384998D01*
X125100500Y-84434500D01*
X125120185Y-84367461D01*
X125172989Y-84321706D01*
X125224500Y-84310500D01*
X126685909Y-84310500D01*
X126752948Y-84330185D01*
X126798292Y-84382097D01*
X126800965Y-84387830D01*
X126936501Y-84581396D01*
X126936506Y-84581402D01*
X127058818Y-84703714D01*
X127092303Y-84765037D01*
X127087319Y-84834729D01*
X127045447Y-84890662D01*
X127014471Y-84907577D01*
X126882912Y-84956646D01*
X126882906Y-84956649D01*
X126767812Y-85042809D01*
X126767809Y-85042812D01*
X126681649Y-85157906D01*
X126681645Y-85157913D01*
X126631403Y-85292620D01*
X126631401Y-85292627D01*
X126625000Y-85352155D01*
X126625000Y-86000000D01*
X127541988Y-86000000D01*
X127509075Y-86057007D01*
X127475000Y-86184174D01*
X127475000Y-86315826D01*
X127509075Y-86442993D01*
X127541988Y-86500000D01*
X126625000Y-86500000D01*
X126625000Y-87147844D01*
X126631401Y-87207372D01*
X126631403Y-87207379D01*
X126681645Y-87342086D01*
X126681649Y-87342093D01*
X126767809Y-87457187D01*
X126767812Y-87457190D01*
X126882906Y-87543350D01*
X126882913Y-87543354D01*
X127017620Y-87593596D01*
X127017627Y-87593598D01*
X127077155Y-87599999D01*
X127077172Y-87600000D01*
X127725000Y-87600000D01*
X127725000Y-86683012D01*
X127782007Y-86715925D01*
X127909174Y-86750000D01*
X128040826Y-86750000D01*
X128167993Y-86715925D01*
X128225000Y-86683012D01*
X128225000Y-87600000D01*
X128872828Y-87600000D01*
X128872844Y-87599999D01*
X128932372Y-87593598D01*
X128932379Y-87593596D01*
X129067086Y-87543354D01*
X129067093Y-87543350D01*
X129182187Y-87457190D01*
X129182190Y-87457187D01*
X129268350Y-87342093D01*
X129268354Y-87342086D01*
X129318596Y-87207379D01*
X129318598Y-87207372D01*
X129324999Y-87147844D01*
X129325000Y-87147827D01*
X129325000Y-87114998D01*
X130452704Y-87114998D01*
X130452705Y-87115000D01*
X131650000Y-87115000D01*
X131650000Y-86345000D01*
X132150000Y-86345000D01*
X132150000Y-87115000D01*
X133347295Y-87115000D01*
X133347295Y-87114998D01*
X133347100Y-87112513D01*
X133301281Y-86954801D01*
X133217685Y-86813447D01*
X133212900Y-86807278D01*
X133215252Y-86805453D01*
X133188445Y-86756405D01*
X133193402Y-86686712D01*
X133214465Y-86653936D01*
X133212900Y-86652722D01*
X133217685Y-86646552D01*
X133301281Y-86505198D01*
X133347100Y-86347486D01*
X133347295Y-86345001D01*
X133347295Y-86345000D01*
X132150000Y-86345000D01*
X131650000Y-86345000D01*
X130452705Y-86345000D01*
X130452704Y-86345001D01*
X130452899Y-86347486D01*
X130498718Y-86505198D01*
X130582314Y-86646552D01*
X130587100Y-86652722D01*
X130584753Y-86654542D01*
X130611564Y-86703642D01*
X130606580Y-86773334D01*
X130585541Y-86806069D01*
X130587100Y-86807278D01*
X130582314Y-86813447D01*
X130498718Y-86954801D01*
X130452899Y-87112513D01*
X130452704Y-87114998D01*
X129325000Y-87114998D01*
X129325000Y-86500000D01*
X128408012Y-86500000D01*
X128440925Y-86442993D01*
X128475000Y-86315826D01*
X128475000Y-86184174D01*
X128440925Y-86057007D01*
X128408012Y-86000000D01*
X129325000Y-86000000D01*
X129325000Y-85844998D01*
X130452704Y-85844998D01*
X130452705Y-85845000D01*
X131650000Y-85845000D01*
X131650000Y-85075000D01*
X132150000Y-85075000D01*
X132150000Y-85845000D01*
X133347295Y-85845000D01*
X133347295Y-85844998D01*
X133347100Y-85842513D01*
X133301281Y-85684801D01*
X133217685Y-85543447D01*
X133212900Y-85537278D01*
X133215252Y-85535453D01*
X133188445Y-85486405D01*
X133193402Y-85416712D01*
X133214465Y-85383936D01*
X133212900Y-85382722D01*
X133217685Y-85376552D01*
X133301281Y-85235198D01*
X133347100Y-85077486D01*
X133347295Y-85075001D01*
X133347295Y-85075000D01*
X132150000Y-85075000D01*
X131650000Y-85075000D01*
X130452705Y-85075000D01*
X130452704Y-85075001D01*
X130452899Y-85077486D01*
X130498718Y-85235198D01*
X130582314Y-85376552D01*
X130587100Y-85382722D01*
X130584753Y-85384542D01*
X130611564Y-85433642D01*
X130606580Y-85503334D01*
X130585541Y-85536069D01*
X130587100Y-85537278D01*
X130582314Y-85543447D01*
X130498718Y-85684801D01*
X130452899Y-85842513D01*
X130452704Y-85844998D01*
X129325000Y-85844998D01*
X129325000Y-85352172D01*
X129324999Y-85352155D01*
X129318598Y-85292627D01*
X129318596Y-85292620D01*
X129268354Y-85157913D01*
X129268350Y-85157906D01*
X129182190Y-85042812D01*
X129182187Y-85042809D01*
X129067093Y-84956649D01*
X129067088Y-84956646D01*
X128935528Y-84907577D01*
X128879595Y-84865705D01*
X128855178Y-84800241D01*
X128870030Y-84731968D01*
X128891175Y-84703720D01*
X129013495Y-84581401D01*
X129017978Y-84574998D01*
X130452704Y-84574998D01*
X130452705Y-84575000D01*
X131650000Y-84575000D01*
X131650000Y-83805000D01*
X132150000Y-83805000D01*
X132150000Y-84575000D01*
X133347295Y-84575000D01*
X133347295Y-84574998D01*
X133347100Y-84572513D01*
X133301281Y-84414801D01*
X133217685Y-84273447D01*
X133212900Y-84267278D01*
X133215252Y-84265453D01*
X133188445Y-84216405D01*
X133193402Y-84146712D01*
X133214465Y-84113936D01*
X133212900Y-84112722D01*
X133217685Y-84106552D01*
X133301281Y-83965198D01*
X133347100Y-83807486D01*
X133347295Y-83805001D01*
X133347295Y-83805000D01*
X132150000Y-83805000D01*
X131650000Y-83805000D01*
X130452705Y-83805000D01*
X130452704Y-83805001D01*
X130452899Y-83807486D01*
X130498718Y-83965198D01*
X130582314Y-84106552D01*
X130587100Y-84112722D01*
X130584753Y-84114542D01*
X130611564Y-84163642D01*
X130606580Y-84233334D01*
X130585541Y-84266069D01*
X130587100Y-84267278D01*
X130582314Y-84273447D01*
X130498718Y-84414801D01*
X130452899Y-84572513D01*
X130452704Y-84574998D01*
X129017978Y-84574998D01*
X129149035Y-84387830D01*
X129248903Y-84173663D01*
X129310063Y-83945408D01*
X129330659Y-83710000D01*
X129310063Y-83474592D01*
X129248903Y-83246337D01*
X129149035Y-83032171D01*
X129149034Y-83032169D01*
X129013494Y-82838597D01*
X128846402Y-82671506D01*
X128846395Y-82671501D01*
X128652834Y-82535967D01*
X128652830Y-82535965D01*
X128577206Y-82500701D01*
X130449500Y-82500701D01*
X130452401Y-82537567D01*
X130452402Y-82537573D01*
X130498254Y-82695393D01*
X130498255Y-82695396D01*
X130581917Y-82836862D01*
X130586702Y-82843031D01*
X130584369Y-82844840D01*
X130611210Y-82893995D01*
X130606226Y-82963687D01*
X130585470Y-82996021D01*
X130587097Y-82997283D01*
X130582313Y-83003449D01*
X130498718Y-83144801D01*
X130452899Y-83302513D01*
X130452704Y-83304998D01*
X130452705Y-83305000D01*
X133347295Y-83305000D01*
X133347295Y-83304998D01*
X133347100Y-83302513D01*
X133301281Y-83144801D01*
X133217685Y-83003447D01*
X133212900Y-82997278D01*
X133215366Y-82995364D01*
X133188802Y-82946776D01*
X133193749Y-82877082D01*
X133214856Y-82844232D01*
X133213301Y-82843026D01*
X133218077Y-82836868D01*
X133218081Y-82836865D01*
X133301744Y-82695398D01*
X133347598Y-82537569D01*
X133350500Y-82500694D01*
X133350500Y-82069306D01*
X133347598Y-82032431D01*
X133338189Y-82000047D01*
X133301745Y-81874606D01*
X133301744Y-81874603D01*
X133301744Y-81874602D01*
X133218081Y-81733135D01*
X133218079Y-81733133D01*
X133218076Y-81733129D01*
X133101870Y-81616923D01*
X133101862Y-81616917D01*
X133023681Y-81570681D01*
X132960398Y-81533256D01*
X132960397Y-81533255D01*
X132960396Y-81533255D01*
X132960393Y-81533254D01*
X132802573Y-81487402D01*
X132802567Y-81487401D01*
X132765701Y-81484500D01*
X132765694Y-81484500D01*
X131034306Y-81484500D01*
X131034298Y-81484500D01*
X130997432Y-81487401D01*
X130997426Y-81487402D01*
X130839606Y-81533254D01*
X130839603Y-81533255D01*
X130698137Y-81616917D01*
X130698129Y-81616923D01*
X130581923Y-81733129D01*
X130581917Y-81733137D01*
X130498255Y-81874603D01*
X130498254Y-81874606D01*
X130452402Y-82032426D01*
X130452401Y-82032432D01*
X130449500Y-82069298D01*
X130449500Y-82500701D01*
X128577206Y-82500701D01*
X128577174Y-82500686D01*
X128438663Y-82436097D01*
X128438659Y-82436096D01*
X128438655Y-82436094D01*
X128210413Y-82374938D01*
X128210403Y-82374936D01*
X127975001Y-82354341D01*
X127974999Y-82354341D01*
X127739596Y-82374936D01*
X127739586Y-82374938D01*
X127511344Y-82436094D01*
X127511335Y-82436098D01*
X127297171Y-82535964D01*
X127297169Y-82535965D01*
X127103597Y-82671505D01*
X126936506Y-82838596D01*
X126800965Y-83032170D01*
X126800962Y-83032175D01*
X126798289Y-83037909D01*
X126752115Y-83090346D01*
X126685909Y-83109500D01*
X124876669Y-83109500D01*
X124876653Y-83109499D01*
X124869057Y-83109499D01*
X124710943Y-83109499D01*
X124603587Y-83138265D01*
X124558210Y-83150424D01*
X124558209Y-83150425D01*
X124508096Y-83179359D01*
X124508095Y-83179360D01*
X124464689Y-83204420D01*
X124421285Y-83229479D01*
X124421282Y-83229481D01*
X124019481Y-83631282D01*
X124019477Y-83631287D01*
X123996261Y-83671501D01*
X123996259Y-83671505D01*
X123940423Y-83768215D01*
X123899499Y-83920943D01*
X123899499Y-83920945D01*
X123899499Y-84089046D01*
X123899500Y-84089059D01*
X123899500Y-97413330D01*
X123899499Y-97413348D01*
X123899499Y-97579054D01*
X123899498Y-97579054D01*
X120500500Y-97579054D01*
X120500500Y-65624500D01*
X120520185Y-65557461D01*
X120572989Y-65511706D01*
X120624500Y-65500500D01*
X175375500Y-65500500D01*
X175442539Y-65520185D01*
G37*
G04 #@! TD.AperFunction*
M02*
