%TF.GenerationSoftware,KiCad,Pcbnew,8.0.1*%
%TF.CreationDate,2024-05-12T16:04:07-04:00*%
%TF.ProjectId,recyclobot_main,72656379-636c-46f6-926f-745f6d61696e,rev?*%
%TF.SameCoordinates,Original*%
%TF.FileFunction,Drillmap*%
%TF.FilePolarity,Positive*%
%FSLAX45Y45*%
G04 Gerber Fmt 4.5, Leading zero omitted, Abs format (unit mm)*
G04 Created by KiCad (PCBNEW 8.0.1) date 2024-05-12 16:04:07*
%MOMM*%
%LPD*%
G01*
G04 APERTURE LIST*
%ADD10C,0.050000*%
%ADD11C,0.200000*%
%ADD12C,0.100000*%
G04 APERTURE END LIST*
D10*
X12000000Y-11200000D02*
X12000000Y-6500000D01*
X17600000Y-11200000D02*
X12000000Y-11200000D01*
X17600000Y-6500000D02*
X17600000Y-11200000D01*
X12000000Y-6500000D02*
X17600000Y-6500000D01*
D11*
D12*
X12485000Y-7035000D02*
X12515000Y-7065000D01*
X12515000Y-7035000D02*
X12485000Y-7065000D01*
X13085000Y-10335000D02*
X13115000Y-10365000D01*
X13115000Y-10335000D02*
X13085000Y-10365000D01*
X13635000Y-8485000D02*
X13665000Y-8515000D01*
X13665000Y-8485000D02*
X13635000Y-8515000D01*
X14085000Y-10385000D02*
X14115000Y-10415000D01*
X14115000Y-10385000D02*
X14085000Y-10415000D01*
X14135000Y-9885000D02*
X14165000Y-9915000D01*
X14165000Y-9885000D02*
X14135000Y-9915000D01*
X14135000Y-9955000D02*
X14165000Y-9985000D01*
X14165000Y-9955000D02*
X14135000Y-9985000D01*
X14335000Y-8185000D02*
X14365000Y-8215000D01*
X14365000Y-8185000D02*
X14335000Y-8215000D01*
X14335000Y-8835000D02*
X14365000Y-8865000D01*
X14365000Y-8835000D02*
X14335000Y-8865000D01*
X14435000Y-9885000D02*
X14465000Y-9915000D01*
X14465000Y-9885000D02*
X14435000Y-9915000D01*
X14535000Y-9185000D02*
X14565000Y-9215000D01*
X14565000Y-9185000D02*
X14535000Y-9215000D01*
X14585000Y-9535000D02*
X14615000Y-9565000D01*
X14615000Y-9535000D02*
X14585000Y-9565000D01*
X14735000Y-9475000D02*
X14765000Y-9505000D01*
X14765000Y-9475000D02*
X14735000Y-9505000D01*
X15285000Y-9785000D02*
X15315000Y-9815000D01*
X15315000Y-9785000D02*
X15285000Y-9815000D01*
X15435000Y-10585000D02*
X15465000Y-10615000D01*
X15465000Y-10585000D02*
X15435000Y-10615000D01*
X15535000Y-9475000D02*
X15565000Y-9505000D01*
X15565000Y-9475000D02*
X15535000Y-9505000D01*
X16085000Y-6985000D02*
X16115000Y-7015000D01*
X16115000Y-6985000D02*
X16085000Y-7015000D01*
X16185000Y-9535000D02*
X16215000Y-9565000D01*
X16215000Y-9535000D02*
X16185000Y-9565000D01*
X16735000Y-10235000D02*
X16765000Y-10265000D01*
X16765000Y-10235000D02*
X16735000Y-10265000D01*
X17085000Y-7285000D02*
X17115000Y-7315000D01*
X17115000Y-7285000D02*
X17085000Y-7315000D01*
X13737500Y-9800000D02*
G75*
G02*
X13662500Y-9800000I-37500J0D01*
G01*
X13662500Y-9800000D02*
G75*
G02*
X13737500Y-9800000I37500J0D01*
G01*
X13737500Y-9927000D02*
G75*
G02*
X13662500Y-9927000I-37500J0D01*
G01*
X13662500Y-9927000D02*
G75*
G02*
X13737500Y-9927000I37500J0D01*
G01*
X13737500Y-10054000D02*
G75*
G02*
X13662500Y-10054000I-37500J0D01*
G01*
X13662500Y-10054000D02*
G75*
G02*
X13737500Y-10054000I37500J0D01*
G01*
X14850000Y-7894000D02*
X14850000Y-7974000D01*
X14810000Y-7934000D02*
X14890000Y-7934000D01*
X14850000Y-8910000D02*
X14850000Y-8990000D01*
X14810000Y-8950000D02*
X14890000Y-8950000D01*
X15142000Y-9248000D02*
X15142000Y-9328000D01*
X15102000Y-9288000D02*
X15182000Y-9288000D01*
X15142000Y-10010000D02*
X15142000Y-10090000D01*
X15102000Y-10050000D02*
X15182000Y-10050000D01*
X15350000Y-8060000D02*
X15350000Y-8140000D01*
X15310000Y-8100000D02*
X15390000Y-8100000D01*
X15396000Y-9248000D02*
X15396000Y-9328000D01*
X15356000Y-9288000D02*
X15436000Y-9288000D01*
X15396000Y-10010000D02*
X15396000Y-10090000D01*
X15356000Y-10050000D02*
X15436000Y-10050000D01*
X15650000Y-9248000D02*
X15650000Y-9328000D01*
X15610000Y-9288000D02*
X15690000Y-9288000D01*
X15650000Y-10010000D02*
X15650000Y-10090000D01*
X15610000Y-10050000D02*
X15690000Y-10050000D01*
X15904000Y-9248000D02*
X15904000Y-9328000D01*
X15864000Y-9288000D02*
X15944000Y-9288000D01*
X15904000Y-10010000D02*
X15904000Y-10090000D01*
X15864000Y-10050000D02*
X15944000Y-10050000D01*
X16158000Y-9248000D02*
X16158000Y-9328000D01*
X16118000Y-9288000D02*
X16198000Y-9288000D01*
X16158000Y-10010000D02*
X16158000Y-10090000D01*
X16118000Y-10050000D02*
X16198000Y-10050000D01*
X16366000Y-8060000D02*
X16366000Y-8140000D01*
X16326000Y-8100000D02*
X16406000Y-8100000D01*
X16412000Y-9248000D02*
X16412000Y-9328000D01*
X16372000Y-9288000D02*
X16452000Y-9288000D01*
X16412000Y-10010000D02*
X16412000Y-10090000D01*
X16372000Y-10050000D02*
X16452000Y-10050000D01*
X16666000Y-9248000D02*
X16666000Y-9328000D01*
X16626000Y-9288000D02*
X16706000Y-9288000D01*
X16666000Y-10010000D02*
X16666000Y-10090000D01*
X16626000Y-10050000D02*
X16706000Y-10050000D01*
X16920000Y-9248000D02*
X16920000Y-9328000D01*
X16880000Y-9288000D02*
X16960000Y-9288000D01*
X16920000Y-10010000D02*
X16920000Y-10090000D01*
X16880000Y-10050000D02*
X16960000Y-10050000D01*
X14281820Y-7581820D02*
X14281820Y-7518180D01*
X14218180Y-7518180D01*
X14218180Y-7581820D01*
X14281820Y-7581820D01*
X14535820Y-7581820D02*
X14535820Y-7518180D01*
X14472180Y-7518180D01*
X14472180Y-7581820D01*
X14535820Y-7581820D01*
X12797500Y-8421000D02*
X12847500Y-8371000D01*
X12797500Y-8321000D01*
X12747500Y-8371000D01*
X12797500Y-8421000D01*
X12797500Y-8675000D02*
X12847500Y-8625000D01*
X12797500Y-8575000D01*
X12747500Y-8625000D01*
X12797500Y-8675000D01*
X13550000Y-7050000D02*
X13600000Y-7000000D01*
X13550000Y-6950000D01*
X13500000Y-7000000D01*
X13550000Y-7050000D01*
X13550000Y-7304000D02*
X13600000Y-7254000D01*
X13550000Y-7204000D01*
X13500000Y-7254000D01*
X13550000Y-7304000D01*
X13550000Y-7558000D02*
X13600000Y-7508000D01*
X13550000Y-7458000D01*
X13500000Y-7508000D01*
X13550000Y-7558000D01*
X13550000Y-7812000D02*
X13600000Y-7762000D01*
X13550000Y-7712000D01*
X13500000Y-7762000D01*
X13550000Y-7812000D01*
X16797500Y-8521000D02*
X16847500Y-8471000D01*
X16797500Y-8421000D01*
X16747500Y-8471000D01*
X16797500Y-8521000D01*
X16797500Y-8775000D02*
X16847500Y-8725000D01*
X16797500Y-8675000D01*
X16747500Y-8725000D01*
X16797500Y-8775000D01*
X16850000Y-10546000D02*
X16900000Y-10496000D01*
X16850000Y-10446000D01*
X16800000Y-10496000D01*
X16850000Y-10546000D01*
X16850000Y-10800000D02*
X16900000Y-10750000D01*
X16850000Y-10700000D01*
X16800000Y-10750000D01*
X16850000Y-10800000D01*
D11*
X12258277Y-11513984D02*
X12258277Y-11313984D01*
X12258277Y-11313984D02*
X12305896Y-11313984D01*
X12305896Y-11313984D02*
X12334467Y-11323508D01*
X12334467Y-11323508D02*
X12353515Y-11342555D01*
X12353515Y-11342555D02*
X12363039Y-11361603D01*
X12363039Y-11361603D02*
X12372562Y-11399698D01*
X12372562Y-11399698D02*
X12372562Y-11428269D01*
X12372562Y-11428269D02*
X12363039Y-11466365D01*
X12363039Y-11466365D02*
X12353515Y-11485412D01*
X12353515Y-11485412D02*
X12334467Y-11504460D01*
X12334467Y-11504460D02*
X12305896Y-11513984D01*
X12305896Y-11513984D02*
X12258277Y-11513984D01*
X12458277Y-11513984D02*
X12458277Y-11380650D01*
X12458277Y-11418746D02*
X12467801Y-11399698D01*
X12467801Y-11399698D02*
X12477324Y-11390174D01*
X12477324Y-11390174D02*
X12496372Y-11380650D01*
X12496372Y-11380650D02*
X12515420Y-11380650D01*
X12582086Y-11513984D02*
X12582086Y-11380650D01*
X12582086Y-11313984D02*
X12572562Y-11323508D01*
X12572562Y-11323508D02*
X12582086Y-11333031D01*
X12582086Y-11333031D02*
X12591610Y-11323508D01*
X12591610Y-11323508D02*
X12582086Y-11313984D01*
X12582086Y-11313984D02*
X12582086Y-11333031D01*
X12705896Y-11513984D02*
X12686848Y-11504460D01*
X12686848Y-11504460D02*
X12677324Y-11485412D01*
X12677324Y-11485412D02*
X12677324Y-11313984D01*
X12810658Y-11513984D02*
X12791610Y-11504460D01*
X12791610Y-11504460D02*
X12782086Y-11485412D01*
X12782086Y-11485412D02*
X12782086Y-11313984D01*
X13039229Y-11513984D02*
X13039229Y-11313984D01*
X13039229Y-11313984D02*
X13105896Y-11456841D01*
X13105896Y-11456841D02*
X13172562Y-11313984D01*
X13172562Y-11313984D02*
X13172562Y-11513984D01*
X13353515Y-11513984D02*
X13353515Y-11409222D01*
X13353515Y-11409222D02*
X13343991Y-11390174D01*
X13343991Y-11390174D02*
X13324943Y-11380650D01*
X13324943Y-11380650D02*
X13286848Y-11380650D01*
X13286848Y-11380650D02*
X13267801Y-11390174D01*
X13353515Y-11504460D02*
X13334467Y-11513984D01*
X13334467Y-11513984D02*
X13286848Y-11513984D01*
X13286848Y-11513984D02*
X13267801Y-11504460D01*
X13267801Y-11504460D02*
X13258277Y-11485412D01*
X13258277Y-11485412D02*
X13258277Y-11466365D01*
X13258277Y-11466365D02*
X13267801Y-11447317D01*
X13267801Y-11447317D02*
X13286848Y-11437793D01*
X13286848Y-11437793D02*
X13334467Y-11437793D01*
X13334467Y-11437793D02*
X13353515Y-11428269D01*
X13448753Y-11380650D02*
X13448753Y-11580650D01*
X13448753Y-11390174D02*
X13467801Y-11380650D01*
X13467801Y-11380650D02*
X13505896Y-11380650D01*
X13505896Y-11380650D02*
X13524943Y-11390174D01*
X13524943Y-11390174D02*
X13534467Y-11399698D01*
X13534467Y-11399698D02*
X13543991Y-11418746D01*
X13543991Y-11418746D02*
X13543991Y-11475888D01*
X13543991Y-11475888D02*
X13534467Y-11494936D01*
X13534467Y-11494936D02*
X13524943Y-11504460D01*
X13524943Y-11504460D02*
X13505896Y-11513984D01*
X13505896Y-11513984D02*
X13467801Y-11513984D01*
X13467801Y-11513984D02*
X13448753Y-11504460D01*
X13629705Y-11494936D02*
X13639229Y-11504460D01*
X13639229Y-11504460D02*
X13629705Y-11513984D01*
X13629705Y-11513984D02*
X13620182Y-11504460D01*
X13620182Y-11504460D02*
X13629705Y-11494936D01*
X13629705Y-11494936D02*
X13629705Y-11513984D01*
X13629705Y-11390174D02*
X13639229Y-11399698D01*
X13639229Y-11399698D02*
X13629705Y-11409222D01*
X13629705Y-11409222D02*
X13620182Y-11399698D01*
X13620182Y-11399698D02*
X13629705Y-11390174D01*
X13629705Y-11390174D02*
X13629705Y-11409222D01*
D12*
X11967500Y-11827500D02*
X11997500Y-11857500D01*
X11997500Y-11827500D02*
X11967500Y-11857500D01*
D11*
X12296372Y-11733984D02*
X12315420Y-11733984D01*
X12315420Y-11733984D02*
X12334467Y-11743508D01*
X12334467Y-11743508D02*
X12343991Y-11753031D01*
X12343991Y-11753031D02*
X12353515Y-11772079D01*
X12353515Y-11772079D02*
X12363039Y-11810174D01*
X12363039Y-11810174D02*
X12363039Y-11857793D01*
X12363039Y-11857793D02*
X12353515Y-11895888D01*
X12353515Y-11895888D02*
X12343991Y-11914936D01*
X12343991Y-11914936D02*
X12334467Y-11924460D01*
X12334467Y-11924460D02*
X12315420Y-11933984D01*
X12315420Y-11933984D02*
X12296372Y-11933984D01*
X12296372Y-11933984D02*
X12277324Y-11924460D01*
X12277324Y-11924460D02*
X12267801Y-11914936D01*
X12267801Y-11914936D02*
X12258277Y-11895888D01*
X12258277Y-11895888D02*
X12248753Y-11857793D01*
X12248753Y-11857793D02*
X12248753Y-11810174D01*
X12248753Y-11810174D02*
X12258277Y-11772079D01*
X12258277Y-11772079D02*
X12267801Y-11753031D01*
X12267801Y-11753031D02*
X12277324Y-11743508D01*
X12277324Y-11743508D02*
X12296372Y-11733984D01*
X12448753Y-11914936D02*
X12458277Y-11924460D01*
X12458277Y-11924460D02*
X12448753Y-11933984D01*
X12448753Y-11933984D02*
X12439229Y-11924460D01*
X12439229Y-11924460D02*
X12448753Y-11914936D01*
X12448753Y-11914936D02*
X12448753Y-11933984D01*
X12524943Y-11733984D02*
X12648753Y-11733984D01*
X12648753Y-11733984D02*
X12582086Y-11810174D01*
X12582086Y-11810174D02*
X12610658Y-11810174D01*
X12610658Y-11810174D02*
X12629705Y-11819698D01*
X12629705Y-11819698D02*
X12639229Y-11829222D01*
X12639229Y-11829222D02*
X12648753Y-11848269D01*
X12648753Y-11848269D02*
X12648753Y-11895888D01*
X12648753Y-11895888D02*
X12639229Y-11914936D01*
X12639229Y-11914936D02*
X12629705Y-11924460D01*
X12629705Y-11924460D02*
X12610658Y-11933984D01*
X12610658Y-11933984D02*
X12553515Y-11933984D01*
X12553515Y-11933984D02*
X12534467Y-11924460D01*
X12534467Y-11924460D02*
X12524943Y-11914936D01*
X12772562Y-11733984D02*
X12791610Y-11733984D01*
X12791610Y-11733984D02*
X12810658Y-11743508D01*
X12810658Y-11743508D02*
X12820182Y-11753031D01*
X12820182Y-11753031D02*
X12829705Y-11772079D01*
X12829705Y-11772079D02*
X12839229Y-11810174D01*
X12839229Y-11810174D02*
X12839229Y-11857793D01*
X12839229Y-11857793D02*
X12829705Y-11895888D01*
X12829705Y-11895888D02*
X12820182Y-11914936D01*
X12820182Y-11914936D02*
X12810658Y-11924460D01*
X12810658Y-11924460D02*
X12791610Y-11933984D01*
X12791610Y-11933984D02*
X12772562Y-11933984D01*
X12772562Y-11933984D02*
X12753515Y-11924460D01*
X12753515Y-11924460D02*
X12743991Y-11914936D01*
X12743991Y-11914936D02*
X12734467Y-11895888D01*
X12734467Y-11895888D02*
X12724943Y-11857793D01*
X12724943Y-11857793D02*
X12724943Y-11810174D01*
X12724943Y-11810174D02*
X12734467Y-11772079D01*
X12734467Y-11772079D02*
X12743991Y-11753031D01*
X12743991Y-11753031D02*
X12753515Y-11743508D01*
X12753515Y-11743508D02*
X12772562Y-11733984D01*
X12963039Y-11733984D02*
X12982086Y-11733984D01*
X12982086Y-11733984D02*
X13001134Y-11743508D01*
X13001134Y-11743508D02*
X13010658Y-11753031D01*
X13010658Y-11753031D02*
X13020182Y-11772079D01*
X13020182Y-11772079D02*
X13029705Y-11810174D01*
X13029705Y-11810174D02*
X13029705Y-11857793D01*
X13029705Y-11857793D02*
X13020182Y-11895888D01*
X13020182Y-11895888D02*
X13010658Y-11914936D01*
X13010658Y-11914936D02*
X13001134Y-11924460D01*
X13001134Y-11924460D02*
X12982086Y-11933984D01*
X12982086Y-11933984D02*
X12963039Y-11933984D01*
X12963039Y-11933984D02*
X12943991Y-11924460D01*
X12943991Y-11924460D02*
X12934467Y-11914936D01*
X12934467Y-11914936D02*
X12924943Y-11895888D01*
X12924943Y-11895888D02*
X12915420Y-11857793D01*
X12915420Y-11857793D02*
X12915420Y-11810174D01*
X12915420Y-11810174D02*
X12924943Y-11772079D01*
X12924943Y-11772079D02*
X12934467Y-11753031D01*
X12934467Y-11753031D02*
X12943991Y-11743508D01*
X12943991Y-11743508D02*
X12963039Y-11733984D01*
X13115420Y-11933984D02*
X13115420Y-11800650D01*
X13115420Y-11819698D02*
X13124943Y-11810174D01*
X13124943Y-11810174D02*
X13143991Y-11800650D01*
X13143991Y-11800650D02*
X13172563Y-11800650D01*
X13172563Y-11800650D02*
X13191610Y-11810174D01*
X13191610Y-11810174D02*
X13201134Y-11829222D01*
X13201134Y-11829222D02*
X13201134Y-11933984D01*
X13201134Y-11829222D02*
X13210658Y-11810174D01*
X13210658Y-11810174D02*
X13229705Y-11800650D01*
X13229705Y-11800650D02*
X13258277Y-11800650D01*
X13258277Y-11800650D02*
X13277324Y-11810174D01*
X13277324Y-11810174D02*
X13286848Y-11829222D01*
X13286848Y-11829222D02*
X13286848Y-11933984D01*
X13382086Y-11933984D02*
X13382086Y-11800650D01*
X13382086Y-11819698D02*
X13391610Y-11810174D01*
X13391610Y-11810174D02*
X13410658Y-11800650D01*
X13410658Y-11800650D02*
X13439229Y-11800650D01*
X13439229Y-11800650D02*
X13458277Y-11810174D01*
X13458277Y-11810174D02*
X13467801Y-11829222D01*
X13467801Y-11829222D02*
X13467801Y-11933984D01*
X13467801Y-11829222D02*
X13477324Y-11810174D01*
X13477324Y-11810174D02*
X13496372Y-11800650D01*
X13496372Y-11800650D02*
X13524943Y-11800650D01*
X13524943Y-11800650D02*
X13543991Y-11810174D01*
X13543991Y-11810174D02*
X13553515Y-11829222D01*
X13553515Y-11829222D02*
X13553515Y-11933984D01*
X13943991Y-11724460D02*
X13772563Y-11981603D01*
X14201134Y-11733984D02*
X14220182Y-11733984D01*
X14220182Y-11733984D02*
X14239229Y-11743508D01*
X14239229Y-11743508D02*
X14248753Y-11753031D01*
X14248753Y-11753031D02*
X14258277Y-11772079D01*
X14258277Y-11772079D02*
X14267801Y-11810174D01*
X14267801Y-11810174D02*
X14267801Y-11857793D01*
X14267801Y-11857793D02*
X14258277Y-11895888D01*
X14258277Y-11895888D02*
X14248753Y-11914936D01*
X14248753Y-11914936D02*
X14239229Y-11924460D01*
X14239229Y-11924460D02*
X14220182Y-11933984D01*
X14220182Y-11933984D02*
X14201134Y-11933984D01*
X14201134Y-11933984D02*
X14182086Y-11924460D01*
X14182086Y-11924460D02*
X14172563Y-11914936D01*
X14172563Y-11914936D02*
X14163039Y-11895888D01*
X14163039Y-11895888D02*
X14153515Y-11857793D01*
X14153515Y-11857793D02*
X14153515Y-11810174D01*
X14153515Y-11810174D02*
X14163039Y-11772079D01*
X14163039Y-11772079D02*
X14172563Y-11753031D01*
X14172563Y-11753031D02*
X14182086Y-11743508D01*
X14182086Y-11743508D02*
X14201134Y-11733984D01*
X14353515Y-11914936D02*
X14363039Y-11924460D01*
X14363039Y-11924460D02*
X14353515Y-11933984D01*
X14353515Y-11933984D02*
X14343991Y-11924460D01*
X14343991Y-11924460D02*
X14353515Y-11914936D01*
X14353515Y-11914936D02*
X14353515Y-11933984D01*
X14486848Y-11733984D02*
X14505896Y-11733984D01*
X14505896Y-11733984D02*
X14524944Y-11743508D01*
X14524944Y-11743508D02*
X14534467Y-11753031D01*
X14534467Y-11753031D02*
X14543991Y-11772079D01*
X14543991Y-11772079D02*
X14553515Y-11810174D01*
X14553515Y-11810174D02*
X14553515Y-11857793D01*
X14553515Y-11857793D02*
X14543991Y-11895888D01*
X14543991Y-11895888D02*
X14534467Y-11914936D01*
X14534467Y-11914936D02*
X14524944Y-11924460D01*
X14524944Y-11924460D02*
X14505896Y-11933984D01*
X14505896Y-11933984D02*
X14486848Y-11933984D01*
X14486848Y-11933984D02*
X14467801Y-11924460D01*
X14467801Y-11924460D02*
X14458277Y-11914936D01*
X14458277Y-11914936D02*
X14448753Y-11895888D01*
X14448753Y-11895888D02*
X14439229Y-11857793D01*
X14439229Y-11857793D02*
X14439229Y-11810174D01*
X14439229Y-11810174D02*
X14448753Y-11772079D01*
X14448753Y-11772079D02*
X14458277Y-11753031D01*
X14458277Y-11753031D02*
X14467801Y-11743508D01*
X14467801Y-11743508D02*
X14486848Y-11733984D01*
X14743991Y-11933984D02*
X14629706Y-11933984D01*
X14686848Y-11933984D02*
X14686848Y-11733984D01*
X14686848Y-11733984D02*
X14667801Y-11762555D01*
X14667801Y-11762555D02*
X14648753Y-11781603D01*
X14648753Y-11781603D02*
X14629706Y-11791127D01*
X14934467Y-11933984D02*
X14820182Y-11933984D01*
X14877325Y-11933984D02*
X14877325Y-11733984D01*
X14877325Y-11733984D02*
X14858277Y-11762555D01*
X14858277Y-11762555D02*
X14839229Y-11781603D01*
X14839229Y-11781603D02*
X14820182Y-11791127D01*
X15048753Y-11819698D02*
X15029706Y-11810174D01*
X15029706Y-11810174D02*
X15020182Y-11800650D01*
X15020182Y-11800650D02*
X15010658Y-11781603D01*
X15010658Y-11781603D02*
X15010658Y-11772079D01*
X15010658Y-11772079D02*
X15020182Y-11753031D01*
X15020182Y-11753031D02*
X15029706Y-11743508D01*
X15029706Y-11743508D02*
X15048753Y-11733984D01*
X15048753Y-11733984D02*
X15086848Y-11733984D01*
X15086848Y-11733984D02*
X15105896Y-11743508D01*
X15105896Y-11743508D02*
X15115420Y-11753031D01*
X15115420Y-11753031D02*
X15124944Y-11772079D01*
X15124944Y-11772079D02*
X15124944Y-11781603D01*
X15124944Y-11781603D02*
X15115420Y-11800650D01*
X15115420Y-11800650D02*
X15105896Y-11810174D01*
X15105896Y-11810174D02*
X15086848Y-11819698D01*
X15086848Y-11819698D02*
X15048753Y-11819698D01*
X15048753Y-11819698D02*
X15029706Y-11829222D01*
X15029706Y-11829222D02*
X15020182Y-11838746D01*
X15020182Y-11838746D02*
X15010658Y-11857793D01*
X15010658Y-11857793D02*
X15010658Y-11895888D01*
X15010658Y-11895888D02*
X15020182Y-11914936D01*
X15020182Y-11914936D02*
X15029706Y-11924460D01*
X15029706Y-11924460D02*
X15048753Y-11933984D01*
X15048753Y-11933984D02*
X15086848Y-11933984D01*
X15086848Y-11933984D02*
X15105896Y-11924460D01*
X15105896Y-11924460D02*
X15115420Y-11914936D01*
X15115420Y-11914936D02*
X15124944Y-11895888D01*
X15124944Y-11895888D02*
X15124944Y-11857793D01*
X15124944Y-11857793D02*
X15115420Y-11838746D01*
X15115420Y-11838746D02*
X15105896Y-11829222D01*
X15105896Y-11829222D02*
X15086848Y-11819698D01*
X15201134Y-11733984D02*
X15201134Y-11772079D01*
X15277325Y-11733984D02*
X15277325Y-11772079D01*
X15572563Y-12010174D02*
X15563039Y-12000650D01*
X15563039Y-12000650D02*
X15543991Y-11972079D01*
X15543991Y-11972079D02*
X15534468Y-11953031D01*
X15534468Y-11953031D02*
X15524944Y-11924460D01*
X15524944Y-11924460D02*
X15515420Y-11876841D01*
X15515420Y-11876841D02*
X15515420Y-11838746D01*
X15515420Y-11838746D02*
X15524944Y-11791127D01*
X15524944Y-11791127D02*
X15534468Y-11762555D01*
X15534468Y-11762555D02*
X15543991Y-11743508D01*
X15543991Y-11743508D02*
X15563039Y-11714936D01*
X15563039Y-11714936D02*
X15572563Y-11705412D01*
X15753515Y-11933984D02*
X15639229Y-11933984D01*
X15696372Y-11933984D02*
X15696372Y-11733984D01*
X15696372Y-11733984D02*
X15677325Y-11762555D01*
X15677325Y-11762555D02*
X15658277Y-11781603D01*
X15658277Y-11781603D02*
X15639229Y-11791127D01*
X15848753Y-11933984D02*
X15886848Y-11933984D01*
X15886848Y-11933984D02*
X15905896Y-11924460D01*
X15905896Y-11924460D02*
X15915420Y-11914936D01*
X15915420Y-11914936D02*
X15934468Y-11886365D01*
X15934468Y-11886365D02*
X15943991Y-11848269D01*
X15943991Y-11848269D02*
X15943991Y-11772079D01*
X15943991Y-11772079D02*
X15934468Y-11753031D01*
X15934468Y-11753031D02*
X15924944Y-11743508D01*
X15924944Y-11743508D02*
X15905896Y-11733984D01*
X15905896Y-11733984D02*
X15867801Y-11733984D01*
X15867801Y-11733984D02*
X15848753Y-11743508D01*
X15848753Y-11743508D02*
X15839229Y-11753031D01*
X15839229Y-11753031D02*
X15829706Y-11772079D01*
X15829706Y-11772079D02*
X15829706Y-11819698D01*
X15829706Y-11819698D02*
X15839229Y-11838746D01*
X15839229Y-11838746D02*
X15848753Y-11848269D01*
X15848753Y-11848269D02*
X15867801Y-11857793D01*
X15867801Y-11857793D02*
X15905896Y-11857793D01*
X15905896Y-11857793D02*
X15924944Y-11848269D01*
X15924944Y-11848269D02*
X15934468Y-11838746D01*
X15934468Y-11838746D02*
X15943991Y-11819698D01*
X16182087Y-11933984D02*
X16182087Y-11733984D01*
X16267801Y-11933984D02*
X16267801Y-11829222D01*
X16267801Y-11829222D02*
X16258277Y-11810174D01*
X16258277Y-11810174D02*
X16239230Y-11800650D01*
X16239230Y-11800650D02*
X16210658Y-11800650D01*
X16210658Y-11800650D02*
X16191610Y-11810174D01*
X16191610Y-11810174D02*
X16182087Y-11819698D01*
X16391610Y-11933984D02*
X16372563Y-11924460D01*
X16372563Y-11924460D02*
X16363039Y-11914936D01*
X16363039Y-11914936D02*
X16353515Y-11895888D01*
X16353515Y-11895888D02*
X16353515Y-11838746D01*
X16353515Y-11838746D02*
X16363039Y-11819698D01*
X16363039Y-11819698D02*
X16372563Y-11810174D01*
X16372563Y-11810174D02*
X16391610Y-11800650D01*
X16391610Y-11800650D02*
X16420182Y-11800650D01*
X16420182Y-11800650D02*
X16439230Y-11810174D01*
X16439230Y-11810174D02*
X16448753Y-11819698D01*
X16448753Y-11819698D02*
X16458277Y-11838746D01*
X16458277Y-11838746D02*
X16458277Y-11895888D01*
X16458277Y-11895888D02*
X16448753Y-11914936D01*
X16448753Y-11914936D02*
X16439230Y-11924460D01*
X16439230Y-11924460D02*
X16420182Y-11933984D01*
X16420182Y-11933984D02*
X16391610Y-11933984D01*
X16572563Y-11933984D02*
X16553515Y-11924460D01*
X16553515Y-11924460D02*
X16543991Y-11905412D01*
X16543991Y-11905412D02*
X16543991Y-11733984D01*
X16724944Y-11924460D02*
X16705896Y-11933984D01*
X16705896Y-11933984D02*
X16667801Y-11933984D01*
X16667801Y-11933984D02*
X16648753Y-11924460D01*
X16648753Y-11924460D02*
X16639230Y-11905412D01*
X16639230Y-11905412D02*
X16639230Y-11829222D01*
X16639230Y-11829222D02*
X16648753Y-11810174D01*
X16648753Y-11810174D02*
X16667801Y-11800650D01*
X16667801Y-11800650D02*
X16705896Y-11800650D01*
X16705896Y-11800650D02*
X16724944Y-11810174D01*
X16724944Y-11810174D02*
X16734468Y-11829222D01*
X16734468Y-11829222D02*
X16734468Y-11848269D01*
X16734468Y-11848269D02*
X16639230Y-11867317D01*
X16810658Y-11924460D02*
X16829706Y-11933984D01*
X16829706Y-11933984D02*
X16867801Y-11933984D01*
X16867801Y-11933984D02*
X16886849Y-11924460D01*
X16886849Y-11924460D02*
X16896373Y-11905412D01*
X16896373Y-11905412D02*
X16896373Y-11895888D01*
X16896373Y-11895888D02*
X16886849Y-11876841D01*
X16886849Y-11876841D02*
X16867801Y-11867317D01*
X16867801Y-11867317D02*
X16839230Y-11867317D01*
X16839230Y-11867317D02*
X16820182Y-11857793D01*
X16820182Y-11857793D02*
X16810658Y-11838746D01*
X16810658Y-11838746D02*
X16810658Y-11829222D01*
X16810658Y-11829222D02*
X16820182Y-11810174D01*
X16820182Y-11810174D02*
X16839230Y-11800650D01*
X16839230Y-11800650D02*
X16867801Y-11800650D01*
X16867801Y-11800650D02*
X16886849Y-11810174D01*
X16963039Y-12010174D02*
X16972563Y-12000650D01*
X16972563Y-12000650D02*
X16991611Y-11972079D01*
X16991611Y-11972079D02*
X17001134Y-11953031D01*
X17001134Y-11953031D02*
X17010658Y-11924460D01*
X17010658Y-11924460D02*
X17020182Y-11876841D01*
X17020182Y-11876841D02*
X17020182Y-11838746D01*
X17020182Y-11838746D02*
X17010658Y-11791127D01*
X17010658Y-11791127D02*
X17001134Y-11762555D01*
X17001134Y-11762555D02*
X16991611Y-11743508D01*
X16991611Y-11743508D02*
X16972563Y-11714936D01*
X16972563Y-11714936D02*
X16963039Y-11705412D01*
D12*
X11997500Y-12106500D02*
G75*
G02*
X11922500Y-12106500I-37500J0D01*
G01*
X11922500Y-12106500D02*
G75*
G02*
X11997500Y-12106500I37500J0D01*
G01*
D11*
X12296372Y-11997984D02*
X12315420Y-11997984D01*
X12315420Y-11997984D02*
X12334467Y-12007508D01*
X12334467Y-12007508D02*
X12343991Y-12017031D01*
X12343991Y-12017031D02*
X12353515Y-12036079D01*
X12353515Y-12036079D02*
X12363039Y-12074174D01*
X12363039Y-12074174D02*
X12363039Y-12121793D01*
X12363039Y-12121793D02*
X12353515Y-12159888D01*
X12353515Y-12159888D02*
X12343991Y-12178936D01*
X12343991Y-12178936D02*
X12334467Y-12188460D01*
X12334467Y-12188460D02*
X12315420Y-12197984D01*
X12315420Y-12197984D02*
X12296372Y-12197984D01*
X12296372Y-12197984D02*
X12277324Y-12188460D01*
X12277324Y-12188460D02*
X12267801Y-12178936D01*
X12267801Y-12178936D02*
X12258277Y-12159888D01*
X12258277Y-12159888D02*
X12248753Y-12121793D01*
X12248753Y-12121793D02*
X12248753Y-12074174D01*
X12248753Y-12074174D02*
X12258277Y-12036079D01*
X12258277Y-12036079D02*
X12267801Y-12017031D01*
X12267801Y-12017031D02*
X12277324Y-12007508D01*
X12277324Y-12007508D02*
X12296372Y-11997984D01*
X12448753Y-12178936D02*
X12458277Y-12188460D01*
X12458277Y-12188460D02*
X12448753Y-12197984D01*
X12448753Y-12197984D02*
X12439229Y-12188460D01*
X12439229Y-12188460D02*
X12448753Y-12178936D01*
X12448753Y-12178936D02*
X12448753Y-12197984D01*
X12524943Y-11997984D02*
X12658277Y-11997984D01*
X12658277Y-11997984D02*
X12572562Y-12197984D01*
X12829705Y-11997984D02*
X12734467Y-11997984D01*
X12734467Y-11997984D02*
X12724943Y-12093222D01*
X12724943Y-12093222D02*
X12734467Y-12083698D01*
X12734467Y-12083698D02*
X12753515Y-12074174D01*
X12753515Y-12074174D02*
X12801134Y-12074174D01*
X12801134Y-12074174D02*
X12820182Y-12083698D01*
X12820182Y-12083698D02*
X12829705Y-12093222D01*
X12829705Y-12093222D02*
X12839229Y-12112269D01*
X12839229Y-12112269D02*
X12839229Y-12159888D01*
X12839229Y-12159888D02*
X12829705Y-12178936D01*
X12829705Y-12178936D02*
X12820182Y-12188460D01*
X12820182Y-12188460D02*
X12801134Y-12197984D01*
X12801134Y-12197984D02*
X12753515Y-12197984D01*
X12753515Y-12197984D02*
X12734467Y-12188460D01*
X12734467Y-12188460D02*
X12724943Y-12178936D01*
X12963039Y-11997984D02*
X12982086Y-11997984D01*
X12982086Y-11997984D02*
X13001134Y-12007508D01*
X13001134Y-12007508D02*
X13010658Y-12017031D01*
X13010658Y-12017031D02*
X13020182Y-12036079D01*
X13020182Y-12036079D02*
X13029705Y-12074174D01*
X13029705Y-12074174D02*
X13029705Y-12121793D01*
X13029705Y-12121793D02*
X13020182Y-12159888D01*
X13020182Y-12159888D02*
X13010658Y-12178936D01*
X13010658Y-12178936D02*
X13001134Y-12188460D01*
X13001134Y-12188460D02*
X12982086Y-12197984D01*
X12982086Y-12197984D02*
X12963039Y-12197984D01*
X12963039Y-12197984D02*
X12943991Y-12188460D01*
X12943991Y-12188460D02*
X12934467Y-12178936D01*
X12934467Y-12178936D02*
X12924943Y-12159888D01*
X12924943Y-12159888D02*
X12915420Y-12121793D01*
X12915420Y-12121793D02*
X12915420Y-12074174D01*
X12915420Y-12074174D02*
X12924943Y-12036079D01*
X12924943Y-12036079D02*
X12934467Y-12017031D01*
X12934467Y-12017031D02*
X12943991Y-12007508D01*
X12943991Y-12007508D02*
X12963039Y-11997984D01*
X13115420Y-12197984D02*
X13115420Y-12064650D01*
X13115420Y-12083698D02*
X13124943Y-12074174D01*
X13124943Y-12074174D02*
X13143991Y-12064650D01*
X13143991Y-12064650D02*
X13172563Y-12064650D01*
X13172563Y-12064650D02*
X13191610Y-12074174D01*
X13191610Y-12074174D02*
X13201134Y-12093222D01*
X13201134Y-12093222D02*
X13201134Y-12197984D01*
X13201134Y-12093222D02*
X13210658Y-12074174D01*
X13210658Y-12074174D02*
X13229705Y-12064650D01*
X13229705Y-12064650D02*
X13258277Y-12064650D01*
X13258277Y-12064650D02*
X13277324Y-12074174D01*
X13277324Y-12074174D02*
X13286848Y-12093222D01*
X13286848Y-12093222D02*
X13286848Y-12197984D01*
X13382086Y-12197984D02*
X13382086Y-12064650D01*
X13382086Y-12083698D02*
X13391610Y-12074174D01*
X13391610Y-12074174D02*
X13410658Y-12064650D01*
X13410658Y-12064650D02*
X13439229Y-12064650D01*
X13439229Y-12064650D02*
X13458277Y-12074174D01*
X13458277Y-12074174D02*
X13467801Y-12093222D01*
X13467801Y-12093222D02*
X13467801Y-12197984D01*
X13467801Y-12093222D02*
X13477324Y-12074174D01*
X13477324Y-12074174D02*
X13496372Y-12064650D01*
X13496372Y-12064650D02*
X13524943Y-12064650D01*
X13524943Y-12064650D02*
X13543991Y-12074174D01*
X13543991Y-12074174D02*
X13553515Y-12093222D01*
X13553515Y-12093222D02*
X13553515Y-12197984D01*
X13943991Y-11988460D02*
X13772563Y-12245603D01*
X14201134Y-11997984D02*
X14220182Y-11997984D01*
X14220182Y-11997984D02*
X14239229Y-12007508D01*
X14239229Y-12007508D02*
X14248753Y-12017031D01*
X14248753Y-12017031D02*
X14258277Y-12036079D01*
X14258277Y-12036079D02*
X14267801Y-12074174D01*
X14267801Y-12074174D02*
X14267801Y-12121793D01*
X14267801Y-12121793D02*
X14258277Y-12159888D01*
X14258277Y-12159888D02*
X14248753Y-12178936D01*
X14248753Y-12178936D02*
X14239229Y-12188460D01*
X14239229Y-12188460D02*
X14220182Y-12197984D01*
X14220182Y-12197984D02*
X14201134Y-12197984D01*
X14201134Y-12197984D02*
X14182086Y-12188460D01*
X14182086Y-12188460D02*
X14172563Y-12178936D01*
X14172563Y-12178936D02*
X14163039Y-12159888D01*
X14163039Y-12159888D02*
X14153515Y-12121793D01*
X14153515Y-12121793D02*
X14153515Y-12074174D01*
X14153515Y-12074174D02*
X14163039Y-12036079D01*
X14163039Y-12036079D02*
X14172563Y-12017031D01*
X14172563Y-12017031D02*
X14182086Y-12007508D01*
X14182086Y-12007508D02*
X14201134Y-11997984D01*
X14353515Y-12178936D02*
X14363039Y-12188460D01*
X14363039Y-12188460D02*
X14353515Y-12197984D01*
X14353515Y-12197984D02*
X14343991Y-12188460D01*
X14343991Y-12188460D02*
X14353515Y-12178936D01*
X14353515Y-12178936D02*
X14353515Y-12197984D01*
X14486848Y-11997984D02*
X14505896Y-11997984D01*
X14505896Y-11997984D02*
X14524944Y-12007508D01*
X14524944Y-12007508D02*
X14534467Y-12017031D01*
X14534467Y-12017031D02*
X14543991Y-12036079D01*
X14543991Y-12036079D02*
X14553515Y-12074174D01*
X14553515Y-12074174D02*
X14553515Y-12121793D01*
X14553515Y-12121793D02*
X14543991Y-12159888D01*
X14543991Y-12159888D02*
X14534467Y-12178936D01*
X14534467Y-12178936D02*
X14524944Y-12188460D01*
X14524944Y-12188460D02*
X14505896Y-12197984D01*
X14505896Y-12197984D02*
X14486848Y-12197984D01*
X14486848Y-12197984D02*
X14467801Y-12188460D01*
X14467801Y-12188460D02*
X14458277Y-12178936D01*
X14458277Y-12178936D02*
X14448753Y-12159888D01*
X14448753Y-12159888D02*
X14439229Y-12121793D01*
X14439229Y-12121793D02*
X14439229Y-12074174D01*
X14439229Y-12074174D02*
X14448753Y-12036079D01*
X14448753Y-12036079D02*
X14458277Y-12017031D01*
X14458277Y-12017031D02*
X14467801Y-12007508D01*
X14467801Y-12007508D02*
X14486848Y-11997984D01*
X14629706Y-12017031D02*
X14639229Y-12007508D01*
X14639229Y-12007508D02*
X14658277Y-11997984D01*
X14658277Y-11997984D02*
X14705896Y-11997984D01*
X14705896Y-11997984D02*
X14724944Y-12007508D01*
X14724944Y-12007508D02*
X14734467Y-12017031D01*
X14734467Y-12017031D02*
X14743991Y-12036079D01*
X14743991Y-12036079D02*
X14743991Y-12055127D01*
X14743991Y-12055127D02*
X14734467Y-12083698D01*
X14734467Y-12083698D02*
X14620182Y-12197984D01*
X14620182Y-12197984D02*
X14743991Y-12197984D01*
X14839229Y-12197984D02*
X14877325Y-12197984D01*
X14877325Y-12197984D02*
X14896372Y-12188460D01*
X14896372Y-12188460D02*
X14905896Y-12178936D01*
X14905896Y-12178936D02*
X14924944Y-12150365D01*
X14924944Y-12150365D02*
X14934467Y-12112269D01*
X14934467Y-12112269D02*
X14934467Y-12036079D01*
X14934467Y-12036079D02*
X14924944Y-12017031D01*
X14924944Y-12017031D02*
X14915420Y-12007508D01*
X14915420Y-12007508D02*
X14896372Y-11997984D01*
X14896372Y-11997984D02*
X14858277Y-11997984D01*
X14858277Y-11997984D02*
X14839229Y-12007508D01*
X14839229Y-12007508D02*
X14829706Y-12017031D01*
X14829706Y-12017031D02*
X14820182Y-12036079D01*
X14820182Y-12036079D02*
X14820182Y-12083698D01*
X14820182Y-12083698D02*
X14829706Y-12102746D01*
X14829706Y-12102746D02*
X14839229Y-12112269D01*
X14839229Y-12112269D02*
X14858277Y-12121793D01*
X14858277Y-12121793D02*
X14896372Y-12121793D01*
X14896372Y-12121793D02*
X14915420Y-12112269D01*
X14915420Y-12112269D02*
X14924944Y-12102746D01*
X14924944Y-12102746D02*
X14934467Y-12083698D01*
X15115420Y-11997984D02*
X15020182Y-11997984D01*
X15020182Y-11997984D02*
X15010658Y-12093222D01*
X15010658Y-12093222D02*
X15020182Y-12083698D01*
X15020182Y-12083698D02*
X15039229Y-12074174D01*
X15039229Y-12074174D02*
X15086848Y-12074174D01*
X15086848Y-12074174D02*
X15105896Y-12083698D01*
X15105896Y-12083698D02*
X15115420Y-12093222D01*
X15115420Y-12093222D02*
X15124944Y-12112269D01*
X15124944Y-12112269D02*
X15124944Y-12159888D01*
X15124944Y-12159888D02*
X15115420Y-12178936D01*
X15115420Y-12178936D02*
X15105896Y-12188460D01*
X15105896Y-12188460D02*
X15086848Y-12197984D01*
X15086848Y-12197984D02*
X15039229Y-12197984D01*
X15039229Y-12197984D02*
X15020182Y-12188460D01*
X15020182Y-12188460D02*
X15010658Y-12178936D01*
X15201134Y-11997984D02*
X15201134Y-12036079D01*
X15277325Y-11997984D02*
X15277325Y-12036079D01*
X15572563Y-12274174D02*
X15563039Y-12264650D01*
X15563039Y-12264650D02*
X15543991Y-12236079D01*
X15543991Y-12236079D02*
X15534468Y-12217031D01*
X15534468Y-12217031D02*
X15524944Y-12188460D01*
X15524944Y-12188460D02*
X15515420Y-12140841D01*
X15515420Y-12140841D02*
X15515420Y-12102746D01*
X15515420Y-12102746D02*
X15524944Y-12055127D01*
X15524944Y-12055127D02*
X15534468Y-12026555D01*
X15534468Y-12026555D02*
X15543991Y-12007508D01*
X15543991Y-12007508D02*
X15563039Y-11978936D01*
X15563039Y-11978936D02*
X15572563Y-11969412D01*
X15629706Y-11997984D02*
X15753515Y-11997984D01*
X15753515Y-11997984D02*
X15686848Y-12074174D01*
X15686848Y-12074174D02*
X15715420Y-12074174D01*
X15715420Y-12074174D02*
X15734468Y-12083698D01*
X15734468Y-12083698D02*
X15743991Y-12093222D01*
X15743991Y-12093222D02*
X15753515Y-12112269D01*
X15753515Y-12112269D02*
X15753515Y-12159888D01*
X15753515Y-12159888D02*
X15743991Y-12178936D01*
X15743991Y-12178936D02*
X15734468Y-12188460D01*
X15734468Y-12188460D02*
X15715420Y-12197984D01*
X15715420Y-12197984D02*
X15658277Y-12197984D01*
X15658277Y-12197984D02*
X15639229Y-12188460D01*
X15639229Y-12188460D02*
X15629706Y-12178936D01*
X15991610Y-12197984D02*
X15991610Y-11997984D01*
X16077325Y-12197984D02*
X16077325Y-12093222D01*
X16077325Y-12093222D02*
X16067801Y-12074174D01*
X16067801Y-12074174D02*
X16048753Y-12064650D01*
X16048753Y-12064650D02*
X16020182Y-12064650D01*
X16020182Y-12064650D02*
X16001134Y-12074174D01*
X16001134Y-12074174D02*
X15991610Y-12083698D01*
X16201134Y-12197984D02*
X16182087Y-12188460D01*
X16182087Y-12188460D02*
X16172563Y-12178936D01*
X16172563Y-12178936D02*
X16163039Y-12159888D01*
X16163039Y-12159888D02*
X16163039Y-12102746D01*
X16163039Y-12102746D02*
X16172563Y-12083698D01*
X16172563Y-12083698D02*
X16182087Y-12074174D01*
X16182087Y-12074174D02*
X16201134Y-12064650D01*
X16201134Y-12064650D02*
X16229706Y-12064650D01*
X16229706Y-12064650D02*
X16248753Y-12074174D01*
X16248753Y-12074174D02*
X16258277Y-12083698D01*
X16258277Y-12083698D02*
X16267801Y-12102746D01*
X16267801Y-12102746D02*
X16267801Y-12159888D01*
X16267801Y-12159888D02*
X16258277Y-12178936D01*
X16258277Y-12178936D02*
X16248753Y-12188460D01*
X16248753Y-12188460D02*
X16229706Y-12197984D01*
X16229706Y-12197984D02*
X16201134Y-12197984D01*
X16382087Y-12197984D02*
X16363039Y-12188460D01*
X16363039Y-12188460D02*
X16353515Y-12169412D01*
X16353515Y-12169412D02*
X16353515Y-11997984D01*
X16534468Y-12188460D02*
X16515420Y-12197984D01*
X16515420Y-12197984D02*
X16477325Y-12197984D01*
X16477325Y-12197984D02*
X16458277Y-12188460D01*
X16458277Y-12188460D02*
X16448753Y-12169412D01*
X16448753Y-12169412D02*
X16448753Y-12093222D01*
X16448753Y-12093222D02*
X16458277Y-12074174D01*
X16458277Y-12074174D02*
X16477325Y-12064650D01*
X16477325Y-12064650D02*
X16515420Y-12064650D01*
X16515420Y-12064650D02*
X16534468Y-12074174D01*
X16534468Y-12074174D02*
X16543991Y-12093222D01*
X16543991Y-12093222D02*
X16543991Y-12112269D01*
X16543991Y-12112269D02*
X16448753Y-12131317D01*
X16620182Y-12188460D02*
X16639230Y-12197984D01*
X16639230Y-12197984D02*
X16677325Y-12197984D01*
X16677325Y-12197984D02*
X16696372Y-12188460D01*
X16696372Y-12188460D02*
X16705896Y-12169412D01*
X16705896Y-12169412D02*
X16705896Y-12159888D01*
X16705896Y-12159888D02*
X16696372Y-12140841D01*
X16696372Y-12140841D02*
X16677325Y-12131317D01*
X16677325Y-12131317D02*
X16648753Y-12131317D01*
X16648753Y-12131317D02*
X16629706Y-12121793D01*
X16629706Y-12121793D02*
X16620182Y-12102746D01*
X16620182Y-12102746D02*
X16620182Y-12093222D01*
X16620182Y-12093222D02*
X16629706Y-12074174D01*
X16629706Y-12074174D02*
X16648753Y-12064650D01*
X16648753Y-12064650D02*
X16677325Y-12064650D01*
X16677325Y-12064650D02*
X16696372Y-12074174D01*
X16772563Y-12274174D02*
X16782087Y-12264650D01*
X16782087Y-12264650D02*
X16801134Y-12236079D01*
X16801134Y-12236079D02*
X16810658Y-12217031D01*
X16810658Y-12217031D02*
X16820182Y-12188460D01*
X16820182Y-12188460D02*
X16829706Y-12140841D01*
X16829706Y-12140841D02*
X16829706Y-12102746D01*
X16829706Y-12102746D02*
X16820182Y-12055127D01*
X16820182Y-12055127D02*
X16810658Y-12026555D01*
X16810658Y-12026555D02*
X16801134Y-12007508D01*
X16801134Y-12007508D02*
X16782087Y-11978936D01*
X16782087Y-11978936D02*
X16772563Y-11969412D01*
D12*
X11957500Y-12330500D02*
X11957500Y-12410500D01*
X11917500Y-12370500D02*
X11997500Y-12370500D01*
D11*
X12296372Y-12261984D02*
X12315420Y-12261984D01*
X12315420Y-12261984D02*
X12334467Y-12271508D01*
X12334467Y-12271508D02*
X12343991Y-12281031D01*
X12343991Y-12281031D02*
X12353515Y-12300079D01*
X12353515Y-12300079D02*
X12363039Y-12338174D01*
X12363039Y-12338174D02*
X12363039Y-12385793D01*
X12363039Y-12385793D02*
X12353515Y-12423888D01*
X12353515Y-12423888D02*
X12343991Y-12442936D01*
X12343991Y-12442936D02*
X12334467Y-12452460D01*
X12334467Y-12452460D02*
X12315420Y-12461984D01*
X12315420Y-12461984D02*
X12296372Y-12461984D01*
X12296372Y-12461984D02*
X12277324Y-12452460D01*
X12277324Y-12452460D02*
X12267801Y-12442936D01*
X12267801Y-12442936D02*
X12258277Y-12423888D01*
X12258277Y-12423888D02*
X12248753Y-12385793D01*
X12248753Y-12385793D02*
X12248753Y-12338174D01*
X12248753Y-12338174D02*
X12258277Y-12300079D01*
X12258277Y-12300079D02*
X12267801Y-12281031D01*
X12267801Y-12281031D02*
X12277324Y-12271508D01*
X12277324Y-12271508D02*
X12296372Y-12261984D01*
X12448753Y-12442936D02*
X12458277Y-12452460D01*
X12458277Y-12452460D02*
X12448753Y-12461984D01*
X12448753Y-12461984D02*
X12439229Y-12452460D01*
X12439229Y-12452460D02*
X12448753Y-12442936D01*
X12448753Y-12442936D02*
X12448753Y-12461984D01*
X12572562Y-12347698D02*
X12553515Y-12338174D01*
X12553515Y-12338174D02*
X12543991Y-12328650D01*
X12543991Y-12328650D02*
X12534467Y-12309603D01*
X12534467Y-12309603D02*
X12534467Y-12300079D01*
X12534467Y-12300079D02*
X12543991Y-12281031D01*
X12543991Y-12281031D02*
X12553515Y-12271508D01*
X12553515Y-12271508D02*
X12572562Y-12261984D01*
X12572562Y-12261984D02*
X12610658Y-12261984D01*
X12610658Y-12261984D02*
X12629705Y-12271508D01*
X12629705Y-12271508D02*
X12639229Y-12281031D01*
X12639229Y-12281031D02*
X12648753Y-12300079D01*
X12648753Y-12300079D02*
X12648753Y-12309603D01*
X12648753Y-12309603D02*
X12639229Y-12328650D01*
X12639229Y-12328650D02*
X12629705Y-12338174D01*
X12629705Y-12338174D02*
X12610658Y-12347698D01*
X12610658Y-12347698D02*
X12572562Y-12347698D01*
X12572562Y-12347698D02*
X12553515Y-12357222D01*
X12553515Y-12357222D02*
X12543991Y-12366746D01*
X12543991Y-12366746D02*
X12534467Y-12385793D01*
X12534467Y-12385793D02*
X12534467Y-12423888D01*
X12534467Y-12423888D02*
X12543991Y-12442936D01*
X12543991Y-12442936D02*
X12553515Y-12452460D01*
X12553515Y-12452460D02*
X12572562Y-12461984D01*
X12572562Y-12461984D02*
X12610658Y-12461984D01*
X12610658Y-12461984D02*
X12629705Y-12452460D01*
X12629705Y-12452460D02*
X12639229Y-12442936D01*
X12639229Y-12442936D02*
X12648753Y-12423888D01*
X12648753Y-12423888D02*
X12648753Y-12385793D01*
X12648753Y-12385793D02*
X12639229Y-12366746D01*
X12639229Y-12366746D02*
X12629705Y-12357222D01*
X12629705Y-12357222D02*
X12610658Y-12347698D01*
X12772562Y-12261984D02*
X12791610Y-12261984D01*
X12791610Y-12261984D02*
X12810658Y-12271508D01*
X12810658Y-12271508D02*
X12820182Y-12281031D01*
X12820182Y-12281031D02*
X12829705Y-12300079D01*
X12829705Y-12300079D02*
X12839229Y-12338174D01*
X12839229Y-12338174D02*
X12839229Y-12385793D01*
X12839229Y-12385793D02*
X12829705Y-12423888D01*
X12829705Y-12423888D02*
X12820182Y-12442936D01*
X12820182Y-12442936D02*
X12810658Y-12452460D01*
X12810658Y-12452460D02*
X12791610Y-12461984D01*
X12791610Y-12461984D02*
X12772562Y-12461984D01*
X12772562Y-12461984D02*
X12753515Y-12452460D01*
X12753515Y-12452460D02*
X12743991Y-12442936D01*
X12743991Y-12442936D02*
X12734467Y-12423888D01*
X12734467Y-12423888D02*
X12724943Y-12385793D01*
X12724943Y-12385793D02*
X12724943Y-12338174D01*
X12724943Y-12338174D02*
X12734467Y-12300079D01*
X12734467Y-12300079D02*
X12743991Y-12281031D01*
X12743991Y-12281031D02*
X12753515Y-12271508D01*
X12753515Y-12271508D02*
X12772562Y-12261984D01*
X12963039Y-12261984D02*
X12982086Y-12261984D01*
X12982086Y-12261984D02*
X13001134Y-12271508D01*
X13001134Y-12271508D02*
X13010658Y-12281031D01*
X13010658Y-12281031D02*
X13020182Y-12300079D01*
X13020182Y-12300079D02*
X13029705Y-12338174D01*
X13029705Y-12338174D02*
X13029705Y-12385793D01*
X13029705Y-12385793D02*
X13020182Y-12423888D01*
X13020182Y-12423888D02*
X13010658Y-12442936D01*
X13010658Y-12442936D02*
X13001134Y-12452460D01*
X13001134Y-12452460D02*
X12982086Y-12461984D01*
X12982086Y-12461984D02*
X12963039Y-12461984D01*
X12963039Y-12461984D02*
X12943991Y-12452460D01*
X12943991Y-12452460D02*
X12934467Y-12442936D01*
X12934467Y-12442936D02*
X12924943Y-12423888D01*
X12924943Y-12423888D02*
X12915420Y-12385793D01*
X12915420Y-12385793D02*
X12915420Y-12338174D01*
X12915420Y-12338174D02*
X12924943Y-12300079D01*
X12924943Y-12300079D02*
X12934467Y-12281031D01*
X12934467Y-12281031D02*
X12943991Y-12271508D01*
X12943991Y-12271508D02*
X12963039Y-12261984D01*
X13115420Y-12461984D02*
X13115420Y-12328650D01*
X13115420Y-12347698D02*
X13124943Y-12338174D01*
X13124943Y-12338174D02*
X13143991Y-12328650D01*
X13143991Y-12328650D02*
X13172563Y-12328650D01*
X13172563Y-12328650D02*
X13191610Y-12338174D01*
X13191610Y-12338174D02*
X13201134Y-12357222D01*
X13201134Y-12357222D02*
X13201134Y-12461984D01*
X13201134Y-12357222D02*
X13210658Y-12338174D01*
X13210658Y-12338174D02*
X13229705Y-12328650D01*
X13229705Y-12328650D02*
X13258277Y-12328650D01*
X13258277Y-12328650D02*
X13277324Y-12338174D01*
X13277324Y-12338174D02*
X13286848Y-12357222D01*
X13286848Y-12357222D02*
X13286848Y-12461984D01*
X13382086Y-12461984D02*
X13382086Y-12328650D01*
X13382086Y-12347698D02*
X13391610Y-12338174D01*
X13391610Y-12338174D02*
X13410658Y-12328650D01*
X13410658Y-12328650D02*
X13439229Y-12328650D01*
X13439229Y-12328650D02*
X13458277Y-12338174D01*
X13458277Y-12338174D02*
X13467801Y-12357222D01*
X13467801Y-12357222D02*
X13467801Y-12461984D01*
X13467801Y-12357222D02*
X13477324Y-12338174D01*
X13477324Y-12338174D02*
X13496372Y-12328650D01*
X13496372Y-12328650D02*
X13524943Y-12328650D01*
X13524943Y-12328650D02*
X13543991Y-12338174D01*
X13543991Y-12338174D02*
X13553515Y-12357222D01*
X13553515Y-12357222D02*
X13553515Y-12461984D01*
X13943991Y-12252460D02*
X13772563Y-12509603D01*
X14201134Y-12261984D02*
X14220182Y-12261984D01*
X14220182Y-12261984D02*
X14239229Y-12271508D01*
X14239229Y-12271508D02*
X14248753Y-12281031D01*
X14248753Y-12281031D02*
X14258277Y-12300079D01*
X14258277Y-12300079D02*
X14267801Y-12338174D01*
X14267801Y-12338174D02*
X14267801Y-12385793D01*
X14267801Y-12385793D02*
X14258277Y-12423888D01*
X14258277Y-12423888D02*
X14248753Y-12442936D01*
X14248753Y-12442936D02*
X14239229Y-12452460D01*
X14239229Y-12452460D02*
X14220182Y-12461984D01*
X14220182Y-12461984D02*
X14201134Y-12461984D01*
X14201134Y-12461984D02*
X14182086Y-12452460D01*
X14182086Y-12452460D02*
X14172563Y-12442936D01*
X14172563Y-12442936D02*
X14163039Y-12423888D01*
X14163039Y-12423888D02*
X14153515Y-12385793D01*
X14153515Y-12385793D02*
X14153515Y-12338174D01*
X14153515Y-12338174D02*
X14163039Y-12300079D01*
X14163039Y-12300079D02*
X14172563Y-12281031D01*
X14172563Y-12281031D02*
X14182086Y-12271508D01*
X14182086Y-12271508D02*
X14201134Y-12261984D01*
X14353515Y-12442936D02*
X14363039Y-12452460D01*
X14363039Y-12452460D02*
X14353515Y-12461984D01*
X14353515Y-12461984D02*
X14343991Y-12452460D01*
X14343991Y-12452460D02*
X14353515Y-12442936D01*
X14353515Y-12442936D02*
X14353515Y-12461984D01*
X14486848Y-12261984D02*
X14505896Y-12261984D01*
X14505896Y-12261984D02*
X14524944Y-12271508D01*
X14524944Y-12271508D02*
X14534467Y-12281031D01*
X14534467Y-12281031D02*
X14543991Y-12300079D01*
X14543991Y-12300079D02*
X14553515Y-12338174D01*
X14553515Y-12338174D02*
X14553515Y-12385793D01*
X14553515Y-12385793D02*
X14543991Y-12423888D01*
X14543991Y-12423888D02*
X14534467Y-12442936D01*
X14534467Y-12442936D02*
X14524944Y-12452460D01*
X14524944Y-12452460D02*
X14505896Y-12461984D01*
X14505896Y-12461984D02*
X14486848Y-12461984D01*
X14486848Y-12461984D02*
X14467801Y-12452460D01*
X14467801Y-12452460D02*
X14458277Y-12442936D01*
X14458277Y-12442936D02*
X14448753Y-12423888D01*
X14448753Y-12423888D02*
X14439229Y-12385793D01*
X14439229Y-12385793D02*
X14439229Y-12338174D01*
X14439229Y-12338174D02*
X14448753Y-12300079D01*
X14448753Y-12300079D02*
X14458277Y-12281031D01*
X14458277Y-12281031D02*
X14467801Y-12271508D01*
X14467801Y-12271508D02*
X14486848Y-12261984D01*
X14620182Y-12261984D02*
X14743991Y-12261984D01*
X14743991Y-12261984D02*
X14677325Y-12338174D01*
X14677325Y-12338174D02*
X14705896Y-12338174D01*
X14705896Y-12338174D02*
X14724944Y-12347698D01*
X14724944Y-12347698D02*
X14734467Y-12357222D01*
X14734467Y-12357222D02*
X14743991Y-12376269D01*
X14743991Y-12376269D02*
X14743991Y-12423888D01*
X14743991Y-12423888D02*
X14734467Y-12442936D01*
X14734467Y-12442936D02*
X14724944Y-12452460D01*
X14724944Y-12452460D02*
X14705896Y-12461984D01*
X14705896Y-12461984D02*
X14648753Y-12461984D01*
X14648753Y-12461984D02*
X14629706Y-12452460D01*
X14629706Y-12452460D02*
X14620182Y-12442936D01*
X14934467Y-12461984D02*
X14820182Y-12461984D01*
X14877325Y-12461984D02*
X14877325Y-12261984D01*
X14877325Y-12261984D02*
X14858277Y-12290555D01*
X14858277Y-12290555D02*
X14839229Y-12309603D01*
X14839229Y-12309603D02*
X14820182Y-12319127D01*
X15115420Y-12261984D02*
X15020182Y-12261984D01*
X15020182Y-12261984D02*
X15010658Y-12357222D01*
X15010658Y-12357222D02*
X15020182Y-12347698D01*
X15020182Y-12347698D02*
X15039229Y-12338174D01*
X15039229Y-12338174D02*
X15086848Y-12338174D01*
X15086848Y-12338174D02*
X15105896Y-12347698D01*
X15105896Y-12347698D02*
X15115420Y-12357222D01*
X15115420Y-12357222D02*
X15124944Y-12376269D01*
X15124944Y-12376269D02*
X15124944Y-12423888D01*
X15124944Y-12423888D02*
X15115420Y-12442936D01*
X15115420Y-12442936D02*
X15105896Y-12452460D01*
X15105896Y-12452460D02*
X15086848Y-12461984D01*
X15086848Y-12461984D02*
X15039229Y-12461984D01*
X15039229Y-12461984D02*
X15020182Y-12452460D01*
X15020182Y-12452460D02*
X15010658Y-12442936D01*
X15201134Y-12261984D02*
X15201134Y-12300079D01*
X15277325Y-12261984D02*
X15277325Y-12300079D01*
X15572563Y-12538174D02*
X15563039Y-12528650D01*
X15563039Y-12528650D02*
X15543991Y-12500079D01*
X15543991Y-12500079D02*
X15534468Y-12481031D01*
X15534468Y-12481031D02*
X15524944Y-12452460D01*
X15524944Y-12452460D02*
X15515420Y-12404841D01*
X15515420Y-12404841D02*
X15515420Y-12366746D01*
X15515420Y-12366746D02*
X15524944Y-12319127D01*
X15524944Y-12319127D02*
X15534468Y-12290555D01*
X15534468Y-12290555D02*
X15543991Y-12271508D01*
X15543991Y-12271508D02*
X15563039Y-12242936D01*
X15563039Y-12242936D02*
X15572563Y-12233412D01*
X15639229Y-12281031D02*
X15648753Y-12271508D01*
X15648753Y-12271508D02*
X15667801Y-12261984D01*
X15667801Y-12261984D02*
X15715420Y-12261984D01*
X15715420Y-12261984D02*
X15734468Y-12271508D01*
X15734468Y-12271508D02*
X15743991Y-12281031D01*
X15743991Y-12281031D02*
X15753515Y-12300079D01*
X15753515Y-12300079D02*
X15753515Y-12319127D01*
X15753515Y-12319127D02*
X15743991Y-12347698D01*
X15743991Y-12347698D02*
X15629706Y-12461984D01*
X15629706Y-12461984D02*
X15753515Y-12461984D01*
X15877325Y-12261984D02*
X15896372Y-12261984D01*
X15896372Y-12261984D02*
X15915420Y-12271508D01*
X15915420Y-12271508D02*
X15924944Y-12281031D01*
X15924944Y-12281031D02*
X15934468Y-12300079D01*
X15934468Y-12300079D02*
X15943991Y-12338174D01*
X15943991Y-12338174D02*
X15943991Y-12385793D01*
X15943991Y-12385793D02*
X15934468Y-12423888D01*
X15934468Y-12423888D02*
X15924944Y-12442936D01*
X15924944Y-12442936D02*
X15915420Y-12452460D01*
X15915420Y-12452460D02*
X15896372Y-12461984D01*
X15896372Y-12461984D02*
X15877325Y-12461984D01*
X15877325Y-12461984D02*
X15858277Y-12452460D01*
X15858277Y-12452460D02*
X15848753Y-12442936D01*
X15848753Y-12442936D02*
X15839229Y-12423888D01*
X15839229Y-12423888D02*
X15829706Y-12385793D01*
X15829706Y-12385793D02*
X15829706Y-12338174D01*
X15829706Y-12338174D02*
X15839229Y-12300079D01*
X15839229Y-12300079D02*
X15848753Y-12281031D01*
X15848753Y-12281031D02*
X15858277Y-12271508D01*
X15858277Y-12271508D02*
X15877325Y-12261984D01*
X16182087Y-12461984D02*
X16182087Y-12261984D01*
X16267801Y-12461984D02*
X16267801Y-12357222D01*
X16267801Y-12357222D02*
X16258277Y-12338174D01*
X16258277Y-12338174D02*
X16239230Y-12328650D01*
X16239230Y-12328650D02*
X16210658Y-12328650D01*
X16210658Y-12328650D02*
X16191610Y-12338174D01*
X16191610Y-12338174D02*
X16182087Y-12347698D01*
X16391610Y-12461984D02*
X16372563Y-12452460D01*
X16372563Y-12452460D02*
X16363039Y-12442936D01*
X16363039Y-12442936D02*
X16353515Y-12423888D01*
X16353515Y-12423888D02*
X16353515Y-12366746D01*
X16353515Y-12366746D02*
X16363039Y-12347698D01*
X16363039Y-12347698D02*
X16372563Y-12338174D01*
X16372563Y-12338174D02*
X16391610Y-12328650D01*
X16391610Y-12328650D02*
X16420182Y-12328650D01*
X16420182Y-12328650D02*
X16439230Y-12338174D01*
X16439230Y-12338174D02*
X16448753Y-12347698D01*
X16448753Y-12347698D02*
X16458277Y-12366746D01*
X16458277Y-12366746D02*
X16458277Y-12423888D01*
X16458277Y-12423888D02*
X16448753Y-12442936D01*
X16448753Y-12442936D02*
X16439230Y-12452460D01*
X16439230Y-12452460D02*
X16420182Y-12461984D01*
X16420182Y-12461984D02*
X16391610Y-12461984D01*
X16572563Y-12461984D02*
X16553515Y-12452460D01*
X16553515Y-12452460D02*
X16543991Y-12433412D01*
X16543991Y-12433412D02*
X16543991Y-12261984D01*
X16724944Y-12452460D02*
X16705896Y-12461984D01*
X16705896Y-12461984D02*
X16667801Y-12461984D01*
X16667801Y-12461984D02*
X16648753Y-12452460D01*
X16648753Y-12452460D02*
X16639230Y-12433412D01*
X16639230Y-12433412D02*
X16639230Y-12357222D01*
X16639230Y-12357222D02*
X16648753Y-12338174D01*
X16648753Y-12338174D02*
X16667801Y-12328650D01*
X16667801Y-12328650D02*
X16705896Y-12328650D01*
X16705896Y-12328650D02*
X16724944Y-12338174D01*
X16724944Y-12338174D02*
X16734468Y-12357222D01*
X16734468Y-12357222D02*
X16734468Y-12376269D01*
X16734468Y-12376269D02*
X16639230Y-12395317D01*
X16810658Y-12452460D02*
X16829706Y-12461984D01*
X16829706Y-12461984D02*
X16867801Y-12461984D01*
X16867801Y-12461984D02*
X16886849Y-12452460D01*
X16886849Y-12452460D02*
X16896373Y-12433412D01*
X16896373Y-12433412D02*
X16896373Y-12423888D01*
X16896373Y-12423888D02*
X16886849Y-12404841D01*
X16886849Y-12404841D02*
X16867801Y-12395317D01*
X16867801Y-12395317D02*
X16839230Y-12395317D01*
X16839230Y-12395317D02*
X16820182Y-12385793D01*
X16820182Y-12385793D02*
X16810658Y-12366746D01*
X16810658Y-12366746D02*
X16810658Y-12357222D01*
X16810658Y-12357222D02*
X16820182Y-12338174D01*
X16820182Y-12338174D02*
X16839230Y-12328650D01*
X16839230Y-12328650D02*
X16867801Y-12328650D01*
X16867801Y-12328650D02*
X16886849Y-12338174D01*
X16963039Y-12538174D02*
X16972563Y-12528650D01*
X16972563Y-12528650D02*
X16991611Y-12500079D01*
X16991611Y-12500079D02*
X17001134Y-12481031D01*
X17001134Y-12481031D02*
X17010658Y-12452460D01*
X17010658Y-12452460D02*
X17020182Y-12404841D01*
X17020182Y-12404841D02*
X17020182Y-12366746D01*
X17020182Y-12366746D02*
X17010658Y-12319127D01*
X17010658Y-12319127D02*
X17001134Y-12290555D01*
X17001134Y-12290555D02*
X16991611Y-12271508D01*
X16991611Y-12271508D02*
X16972563Y-12242936D01*
X16972563Y-12242936D02*
X16963039Y-12233412D01*
D12*
X11984320Y-12666320D02*
X11984320Y-12602680D01*
X11920680Y-12602680D01*
X11920680Y-12666320D01*
X11984320Y-12666320D01*
D11*
X12296372Y-12525984D02*
X12315420Y-12525984D01*
X12315420Y-12525984D02*
X12334467Y-12535508D01*
X12334467Y-12535508D02*
X12343991Y-12545031D01*
X12343991Y-12545031D02*
X12353515Y-12564079D01*
X12353515Y-12564079D02*
X12363039Y-12602174D01*
X12363039Y-12602174D02*
X12363039Y-12649793D01*
X12363039Y-12649793D02*
X12353515Y-12687888D01*
X12353515Y-12687888D02*
X12343991Y-12706936D01*
X12343991Y-12706936D02*
X12334467Y-12716460D01*
X12334467Y-12716460D02*
X12315420Y-12725984D01*
X12315420Y-12725984D02*
X12296372Y-12725984D01*
X12296372Y-12725984D02*
X12277324Y-12716460D01*
X12277324Y-12716460D02*
X12267801Y-12706936D01*
X12267801Y-12706936D02*
X12258277Y-12687888D01*
X12258277Y-12687888D02*
X12248753Y-12649793D01*
X12248753Y-12649793D02*
X12248753Y-12602174D01*
X12248753Y-12602174D02*
X12258277Y-12564079D01*
X12258277Y-12564079D02*
X12267801Y-12545031D01*
X12267801Y-12545031D02*
X12277324Y-12535508D01*
X12277324Y-12535508D02*
X12296372Y-12525984D01*
X12448753Y-12706936D02*
X12458277Y-12716460D01*
X12458277Y-12716460D02*
X12448753Y-12725984D01*
X12448753Y-12725984D02*
X12439229Y-12716460D01*
X12439229Y-12716460D02*
X12448753Y-12706936D01*
X12448753Y-12706936D02*
X12448753Y-12725984D01*
X12553515Y-12725984D02*
X12591610Y-12725984D01*
X12591610Y-12725984D02*
X12610658Y-12716460D01*
X12610658Y-12716460D02*
X12620182Y-12706936D01*
X12620182Y-12706936D02*
X12639229Y-12678365D01*
X12639229Y-12678365D02*
X12648753Y-12640269D01*
X12648753Y-12640269D02*
X12648753Y-12564079D01*
X12648753Y-12564079D02*
X12639229Y-12545031D01*
X12639229Y-12545031D02*
X12629705Y-12535508D01*
X12629705Y-12535508D02*
X12610658Y-12525984D01*
X12610658Y-12525984D02*
X12572562Y-12525984D01*
X12572562Y-12525984D02*
X12553515Y-12535508D01*
X12553515Y-12535508D02*
X12543991Y-12545031D01*
X12543991Y-12545031D02*
X12534467Y-12564079D01*
X12534467Y-12564079D02*
X12534467Y-12611698D01*
X12534467Y-12611698D02*
X12543991Y-12630746D01*
X12543991Y-12630746D02*
X12553515Y-12640269D01*
X12553515Y-12640269D02*
X12572562Y-12649793D01*
X12572562Y-12649793D02*
X12610658Y-12649793D01*
X12610658Y-12649793D02*
X12629705Y-12640269D01*
X12629705Y-12640269D02*
X12639229Y-12630746D01*
X12639229Y-12630746D02*
X12648753Y-12611698D01*
X12772562Y-12525984D02*
X12791610Y-12525984D01*
X12791610Y-12525984D02*
X12810658Y-12535508D01*
X12810658Y-12535508D02*
X12820182Y-12545031D01*
X12820182Y-12545031D02*
X12829705Y-12564079D01*
X12829705Y-12564079D02*
X12839229Y-12602174D01*
X12839229Y-12602174D02*
X12839229Y-12649793D01*
X12839229Y-12649793D02*
X12829705Y-12687888D01*
X12829705Y-12687888D02*
X12820182Y-12706936D01*
X12820182Y-12706936D02*
X12810658Y-12716460D01*
X12810658Y-12716460D02*
X12791610Y-12725984D01*
X12791610Y-12725984D02*
X12772562Y-12725984D01*
X12772562Y-12725984D02*
X12753515Y-12716460D01*
X12753515Y-12716460D02*
X12743991Y-12706936D01*
X12743991Y-12706936D02*
X12734467Y-12687888D01*
X12734467Y-12687888D02*
X12724943Y-12649793D01*
X12724943Y-12649793D02*
X12724943Y-12602174D01*
X12724943Y-12602174D02*
X12734467Y-12564079D01*
X12734467Y-12564079D02*
X12743991Y-12545031D01*
X12743991Y-12545031D02*
X12753515Y-12535508D01*
X12753515Y-12535508D02*
X12772562Y-12525984D01*
X12963039Y-12525984D02*
X12982086Y-12525984D01*
X12982086Y-12525984D02*
X13001134Y-12535508D01*
X13001134Y-12535508D02*
X13010658Y-12545031D01*
X13010658Y-12545031D02*
X13020182Y-12564079D01*
X13020182Y-12564079D02*
X13029705Y-12602174D01*
X13029705Y-12602174D02*
X13029705Y-12649793D01*
X13029705Y-12649793D02*
X13020182Y-12687888D01*
X13020182Y-12687888D02*
X13010658Y-12706936D01*
X13010658Y-12706936D02*
X13001134Y-12716460D01*
X13001134Y-12716460D02*
X12982086Y-12725984D01*
X12982086Y-12725984D02*
X12963039Y-12725984D01*
X12963039Y-12725984D02*
X12943991Y-12716460D01*
X12943991Y-12716460D02*
X12934467Y-12706936D01*
X12934467Y-12706936D02*
X12924943Y-12687888D01*
X12924943Y-12687888D02*
X12915420Y-12649793D01*
X12915420Y-12649793D02*
X12915420Y-12602174D01*
X12915420Y-12602174D02*
X12924943Y-12564079D01*
X12924943Y-12564079D02*
X12934467Y-12545031D01*
X12934467Y-12545031D02*
X12943991Y-12535508D01*
X12943991Y-12535508D02*
X12963039Y-12525984D01*
X13115420Y-12725984D02*
X13115420Y-12592650D01*
X13115420Y-12611698D02*
X13124943Y-12602174D01*
X13124943Y-12602174D02*
X13143991Y-12592650D01*
X13143991Y-12592650D02*
X13172563Y-12592650D01*
X13172563Y-12592650D02*
X13191610Y-12602174D01*
X13191610Y-12602174D02*
X13201134Y-12621222D01*
X13201134Y-12621222D02*
X13201134Y-12725984D01*
X13201134Y-12621222D02*
X13210658Y-12602174D01*
X13210658Y-12602174D02*
X13229705Y-12592650D01*
X13229705Y-12592650D02*
X13258277Y-12592650D01*
X13258277Y-12592650D02*
X13277324Y-12602174D01*
X13277324Y-12602174D02*
X13286848Y-12621222D01*
X13286848Y-12621222D02*
X13286848Y-12725984D01*
X13382086Y-12725984D02*
X13382086Y-12592650D01*
X13382086Y-12611698D02*
X13391610Y-12602174D01*
X13391610Y-12602174D02*
X13410658Y-12592650D01*
X13410658Y-12592650D02*
X13439229Y-12592650D01*
X13439229Y-12592650D02*
X13458277Y-12602174D01*
X13458277Y-12602174D02*
X13467801Y-12621222D01*
X13467801Y-12621222D02*
X13467801Y-12725984D01*
X13467801Y-12621222D02*
X13477324Y-12602174D01*
X13477324Y-12602174D02*
X13496372Y-12592650D01*
X13496372Y-12592650D02*
X13524943Y-12592650D01*
X13524943Y-12592650D02*
X13543991Y-12602174D01*
X13543991Y-12602174D02*
X13553515Y-12621222D01*
X13553515Y-12621222D02*
X13553515Y-12725984D01*
X13943991Y-12516460D02*
X13772563Y-12773603D01*
X14201134Y-12525984D02*
X14220182Y-12525984D01*
X14220182Y-12525984D02*
X14239229Y-12535508D01*
X14239229Y-12535508D02*
X14248753Y-12545031D01*
X14248753Y-12545031D02*
X14258277Y-12564079D01*
X14258277Y-12564079D02*
X14267801Y-12602174D01*
X14267801Y-12602174D02*
X14267801Y-12649793D01*
X14267801Y-12649793D02*
X14258277Y-12687888D01*
X14258277Y-12687888D02*
X14248753Y-12706936D01*
X14248753Y-12706936D02*
X14239229Y-12716460D01*
X14239229Y-12716460D02*
X14220182Y-12725984D01*
X14220182Y-12725984D02*
X14201134Y-12725984D01*
X14201134Y-12725984D02*
X14182086Y-12716460D01*
X14182086Y-12716460D02*
X14172563Y-12706936D01*
X14172563Y-12706936D02*
X14163039Y-12687888D01*
X14163039Y-12687888D02*
X14153515Y-12649793D01*
X14153515Y-12649793D02*
X14153515Y-12602174D01*
X14153515Y-12602174D02*
X14163039Y-12564079D01*
X14163039Y-12564079D02*
X14172563Y-12545031D01*
X14172563Y-12545031D02*
X14182086Y-12535508D01*
X14182086Y-12535508D02*
X14201134Y-12525984D01*
X14353515Y-12706936D02*
X14363039Y-12716460D01*
X14363039Y-12716460D02*
X14353515Y-12725984D01*
X14353515Y-12725984D02*
X14343991Y-12716460D01*
X14343991Y-12716460D02*
X14353515Y-12706936D01*
X14353515Y-12706936D02*
X14353515Y-12725984D01*
X14486848Y-12525984D02*
X14505896Y-12525984D01*
X14505896Y-12525984D02*
X14524944Y-12535508D01*
X14524944Y-12535508D02*
X14534467Y-12545031D01*
X14534467Y-12545031D02*
X14543991Y-12564079D01*
X14543991Y-12564079D02*
X14553515Y-12602174D01*
X14553515Y-12602174D02*
X14553515Y-12649793D01*
X14553515Y-12649793D02*
X14543991Y-12687888D01*
X14543991Y-12687888D02*
X14534467Y-12706936D01*
X14534467Y-12706936D02*
X14524944Y-12716460D01*
X14524944Y-12716460D02*
X14505896Y-12725984D01*
X14505896Y-12725984D02*
X14486848Y-12725984D01*
X14486848Y-12725984D02*
X14467801Y-12716460D01*
X14467801Y-12716460D02*
X14458277Y-12706936D01*
X14458277Y-12706936D02*
X14448753Y-12687888D01*
X14448753Y-12687888D02*
X14439229Y-12649793D01*
X14439229Y-12649793D02*
X14439229Y-12602174D01*
X14439229Y-12602174D02*
X14448753Y-12564079D01*
X14448753Y-12564079D02*
X14458277Y-12545031D01*
X14458277Y-12545031D02*
X14467801Y-12535508D01*
X14467801Y-12535508D02*
X14486848Y-12525984D01*
X14620182Y-12525984D02*
X14743991Y-12525984D01*
X14743991Y-12525984D02*
X14677325Y-12602174D01*
X14677325Y-12602174D02*
X14705896Y-12602174D01*
X14705896Y-12602174D02*
X14724944Y-12611698D01*
X14724944Y-12611698D02*
X14734467Y-12621222D01*
X14734467Y-12621222D02*
X14743991Y-12640269D01*
X14743991Y-12640269D02*
X14743991Y-12687888D01*
X14743991Y-12687888D02*
X14734467Y-12706936D01*
X14734467Y-12706936D02*
X14724944Y-12716460D01*
X14724944Y-12716460D02*
X14705896Y-12725984D01*
X14705896Y-12725984D02*
X14648753Y-12725984D01*
X14648753Y-12725984D02*
X14629706Y-12716460D01*
X14629706Y-12716460D02*
X14620182Y-12706936D01*
X14924944Y-12525984D02*
X14829706Y-12525984D01*
X14829706Y-12525984D02*
X14820182Y-12621222D01*
X14820182Y-12621222D02*
X14829706Y-12611698D01*
X14829706Y-12611698D02*
X14848753Y-12602174D01*
X14848753Y-12602174D02*
X14896372Y-12602174D01*
X14896372Y-12602174D02*
X14915420Y-12611698D01*
X14915420Y-12611698D02*
X14924944Y-12621222D01*
X14924944Y-12621222D02*
X14934467Y-12640269D01*
X14934467Y-12640269D02*
X14934467Y-12687888D01*
X14934467Y-12687888D02*
X14924944Y-12706936D01*
X14924944Y-12706936D02*
X14915420Y-12716460D01*
X14915420Y-12716460D02*
X14896372Y-12725984D01*
X14896372Y-12725984D02*
X14848753Y-12725984D01*
X14848753Y-12725984D02*
X14829706Y-12716460D01*
X14829706Y-12716460D02*
X14820182Y-12706936D01*
X15105896Y-12592650D02*
X15105896Y-12725984D01*
X15058277Y-12516460D02*
X15010658Y-12659317D01*
X15010658Y-12659317D02*
X15134467Y-12659317D01*
X15201134Y-12525984D02*
X15201134Y-12564079D01*
X15277325Y-12525984D02*
X15277325Y-12564079D01*
X15572563Y-12802174D02*
X15563039Y-12792650D01*
X15563039Y-12792650D02*
X15543991Y-12764079D01*
X15543991Y-12764079D02*
X15534468Y-12745031D01*
X15534468Y-12745031D02*
X15524944Y-12716460D01*
X15524944Y-12716460D02*
X15515420Y-12668841D01*
X15515420Y-12668841D02*
X15515420Y-12630746D01*
X15515420Y-12630746D02*
X15524944Y-12583127D01*
X15524944Y-12583127D02*
X15534468Y-12554555D01*
X15534468Y-12554555D02*
X15543991Y-12535508D01*
X15543991Y-12535508D02*
X15563039Y-12506936D01*
X15563039Y-12506936D02*
X15572563Y-12497412D01*
X15639229Y-12545031D02*
X15648753Y-12535508D01*
X15648753Y-12535508D02*
X15667801Y-12525984D01*
X15667801Y-12525984D02*
X15715420Y-12525984D01*
X15715420Y-12525984D02*
X15734468Y-12535508D01*
X15734468Y-12535508D02*
X15743991Y-12545031D01*
X15743991Y-12545031D02*
X15753515Y-12564079D01*
X15753515Y-12564079D02*
X15753515Y-12583127D01*
X15753515Y-12583127D02*
X15743991Y-12611698D01*
X15743991Y-12611698D02*
X15629706Y-12725984D01*
X15629706Y-12725984D02*
X15753515Y-12725984D01*
X15991610Y-12725984D02*
X15991610Y-12525984D01*
X16077325Y-12725984D02*
X16077325Y-12621222D01*
X16077325Y-12621222D02*
X16067801Y-12602174D01*
X16067801Y-12602174D02*
X16048753Y-12592650D01*
X16048753Y-12592650D02*
X16020182Y-12592650D01*
X16020182Y-12592650D02*
X16001134Y-12602174D01*
X16001134Y-12602174D02*
X15991610Y-12611698D01*
X16201134Y-12725984D02*
X16182087Y-12716460D01*
X16182087Y-12716460D02*
X16172563Y-12706936D01*
X16172563Y-12706936D02*
X16163039Y-12687888D01*
X16163039Y-12687888D02*
X16163039Y-12630746D01*
X16163039Y-12630746D02*
X16172563Y-12611698D01*
X16172563Y-12611698D02*
X16182087Y-12602174D01*
X16182087Y-12602174D02*
X16201134Y-12592650D01*
X16201134Y-12592650D02*
X16229706Y-12592650D01*
X16229706Y-12592650D02*
X16248753Y-12602174D01*
X16248753Y-12602174D02*
X16258277Y-12611698D01*
X16258277Y-12611698D02*
X16267801Y-12630746D01*
X16267801Y-12630746D02*
X16267801Y-12687888D01*
X16267801Y-12687888D02*
X16258277Y-12706936D01*
X16258277Y-12706936D02*
X16248753Y-12716460D01*
X16248753Y-12716460D02*
X16229706Y-12725984D01*
X16229706Y-12725984D02*
X16201134Y-12725984D01*
X16382087Y-12725984D02*
X16363039Y-12716460D01*
X16363039Y-12716460D02*
X16353515Y-12697412D01*
X16353515Y-12697412D02*
X16353515Y-12525984D01*
X16534468Y-12716460D02*
X16515420Y-12725984D01*
X16515420Y-12725984D02*
X16477325Y-12725984D01*
X16477325Y-12725984D02*
X16458277Y-12716460D01*
X16458277Y-12716460D02*
X16448753Y-12697412D01*
X16448753Y-12697412D02*
X16448753Y-12621222D01*
X16448753Y-12621222D02*
X16458277Y-12602174D01*
X16458277Y-12602174D02*
X16477325Y-12592650D01*
X16477325Y-12592650D02*
X16515420Y-12592650D01*
X16515420Y-12592650D02*
X16534468Y-12602174D01*
X16534468Y-12602174D02*
X16543991Y-12621222D01*
X16543991Y-12621222D02*
X16543991Y-12640269D01*
X16543991Y-12640269D02*
X16448753Y-12659317D01*
X16620182Y-12716460D02*
X16639230Y-12725984D01*
X16639230Y-12725984D02*
X16677325Y-12725984D01*
X16677325Y-12725984D02*
X16696372Y-12716460D01*
X16696372Y-12716460D02*
X16705896Y-12697412D01*
X16705896Y-12697412D02*
X16705896Y-12687888D01*
X16705896Y-12687888D02*
X16696372Y-12668841D01*
X16696372Y-12668841D02*
X16677325Y-12659317D01*
X16677325Y-12659317D02*
X16648753Y-12659317D01*
X16648753Y-12659317D02*
X16629706Y-12649793D01*
X16629706Y-12649793D02*
X16620182Y-12630746D01*
X16620182Y-12630746D02*
X16620182Y-12621222D01*
X16620182Y-12621222D02*
X16629706Y-12602174D01*
X16629706Y-12602174D02*
X16648753Y-12592650D01*
X16648753Y-12592650D02*
X16677325Y-12592650D01*
X16677325Y-12592650D02*
X16696372Y-12602174D01*
X16772563Y-12802174D02*
X16782087Y-12792650D01*
X16782087Y-12792650D02*
X16801134Y-12764079D01*
X16801134Y-12764079D02*
X16810658Y-12745031D01*
X16810658Y-12745031D02*
X16820182Y-12716460D01*
X16820182Y-12716460D02*
X16829706Y-12668841D01*
X16829706Y-12668841D02*
X16829706Y-12630746D01*
X16829706Y-12630746D02*
X16820182Y-12583127D01*
X16820182Y-12583127D02*
X16810658Y-12554555D01*
X16810658Y-12554555D02*
X16801134Y-12535508D01*
X16801134Y-12535508D02*
X16782087Y-12506936D01*
X16782087Y-12506936D02*
X16772563Y-12497412D01*
D12*
X11947500Y-12948500D02*
X11997500Y-12898500D01*
X11947500Y-12848500D01*
X11897500Y-12898500D01*
X11947500Y-12948500D01*
D11*
X12363039Y-12989984D02*
X12248753Y-12989984D01*
X12305896Y-12989984D02*
X12305896Y-12789984D01*
X12305896Y-12789984D02*
X12286848Y-12818555D01*
X12286848Y-12818555D02*
X12267801Y-12837603D01*
X12267801Y-12837603D02*
X12248753Y-12847127D01*
X12448753Y-12970936D02*
X12458277Y-12980460D01*
X12458277Y-12980460D02*
X12448753Y-12989984D01*
X12448753Y-12989984D02*
X12439229Y-12980460D01*
X12439229Y-12980460D02*
X12448753Y-12970936D01*
X12448753Y-12970936D02*
X12448753Y-12989984D01*
X12582086Y-12789984D02*
X12601134Y-12789984D01*
X12601134Y-12789984D02*
X12620182Y-12799508D01*
X12620182Y-12799508D02*
X12629705Y-12809031D01*
X12629705Y-12809031D02*
X12639229Y-12828079D01*
X12639229Y-12828079D02*
X12648753Y-12866174D01*
X12648753Y-12866174D02*
X12648753Y-12913793D01*
X12648753Y-12913793D02*
X12639229Y-12951888D01*
X12639229Y-12951888D02*
X12629705Y-12970936D01*
X12629705Y-12970936D02*
X12620182Y-12980460D01*
X12620182Y-12980460D02*
X12601134Y-12989984D01*
X12601134Y-12989984D02*
X12582086Y-12989984D01*
X12582086Y-12989984D02*
X12563039Y-12980460D01*
X12563039Y-12980460D02*
X12553515Y-12970936D01*
X12553515Y-12970936D02*
X12543991Y-12951888D01*
X12543991Y-12951888D02*
X12534467Y-12913793D01*
X12534467Y-12913793D02*
X12534467Y-12866174D01*
X12534467Y-12866174D02*
X12543991Y-12828079D01*
X12543991Y-12828079D02*
X12553515Y-12809031D01*
X12553515Y-12809031D02*
X12563039Y-12799508D01*
X12563039Y-12799508D02*
X12582086Y-12789984D01*
X12772562Y-12789984D02*
X12791610Y-12789984D01*
X12791610Y-12789984D02*
X12810658Y-12799508D01*
X12810658Y-12799508D02*
X12820182Y-12809031D01*
X12820182Y-12809031D02*
X12829705Y-12828079D01*
X12829705Y-12828079D02*
X12839229Y-12866174D01*
X12839229Y-12866174D02*
X12839229Y-12913793D01*
X12839229Y-12913793D02*
X12829705Y-12951888D01*
X12829705Y-12951888D02*
X12820182Y-12970936D01*
X12820182Y-12970936D02*
X12810658Y-12980460D01*
X12810658Y-12980460D02*
X12791610Y-12989984D01*
X12791610Y-12989984D02*
X12772562Y-12989984D01*
X12772562Y-12989984D02*
X12753515Y-12980460D01*
X12753515Y-12980460D02*
X12743991Y-12970936D01*
X12743991Y-12970936D02*
X12734467Y-12951888D01*
X12734467Y-12951888D02*
X12724943Y-12913793D01*
X12724943Y-12913793D02*
X12724943Y-12866174D01*
X12724943Y-12866174D02*
X12734467Y-12828079D01*
X12734467Y-12828079D02*
X12743991Y-12809031D01*
X12743991Y-12809031D02*
X12753515Y-12799508D01*
X12753515Y-12799508D02*
X12772562Y-12789984D01*
X12963039Y-12789984D02*
X12982086Y-12789984D01*
X12982086Y-12789984D02*
X13001134Y-12799508D01*
X13001134Y-12799508D02*
X13010658Y-12809031D01*
X13010658Y-12809031D02*
X13020182Y-12828079D01*
X13020182Y-12828079D02*
X13029705Y-12866174D01*
X13029705Y-12866174D02*
X13029705Y-12913793D01*
X13029705Y-12913793D02*
X13020182Y-12951888D01*
X13020182Y-12951888D02*
X13010658Y-12970936D01*
X13010658Y-12970936D02*
X13001134Y-12980460D01*
X13001134Y-12980460D02*
X12982086Y-12989984D01*
X12982086Y-12989984D02*
X12963039Y-12989984D01*
X12963039Y-12989984D02*
X12943991Y-12980460D01*
X12943991Y-12980460D02*
X12934467Y-12970936D01*
X12934467Y-12970936D02*
X12924943Y-12951888D01*
X12924943Y-12951888D02*
X12915420Y-12913793D01*
X12915420Y-12913793D02*
X12915420Y-12866174D01*
X12915420Y-12866174D02*
X12924943Y-12828079D01*
X12924943Y-12828079D02*
X12934467Y-12809031D01*
X12934467Y-12809031D02*
X12943991Y-12799508D01*
X12943991Y-12799508D02*
X12963039Y-12789984D01*
X13115420Y-12989984D02*
X13115420Y-12856650D01*
X13115420Y-12875698D02*
X13124943Y-12866174D01*
X13124943Y-12866174D02*
X13143991Y-12856650D01*
X13143991Y-12856650D02*
X13172563Y-12856650D01*
X13172563Y-12856650D02*
X13191610Y-12866174D01*
X13191610Y-12866174D02*
X13201134Y-12885222D01*
X13201134Y-12885222D02*
X13201134Y-12989984D01*
X13201134Y-12885222D02*
X13210658Y-12866174D01*
X13210658Y-12866174D02*
X13229705Y-12856650D01*
X13229705Y-12856650D02*
X13258277Y-12856650D01*
X13258277Y-12856650D02*
X13277324Y-12866174D01*
X13277324Y-12866174D02*
X13286848Y-12885222D01*
X13286848Y-12885222D02*
X13286848Y-12989984D01*
X13382086Y-12989984D02*
X13382086Y-12856650D01*
X13382086Y-12875698D02*
X13391610Y-12866174D01*
X13391610Y-12866174D02*
X13410658Y-12856650D01*
X13410658Y-12856650D02*
X13439229Y-12856650D01*
X13439229Y-12856650D02*
X13458277Y-12866174D01*
X13458277Y-12866174D02*
X13467801Y-12885222D01*
X13467801Y-12885222D02*
X13467801Y-12989984D01*
X13467801Y-12885222D02*
X13477324Y-12866174D01*
X13477324Y-12866174D02*
X13496372Y-12856650D01*
X13496372Y-12856650D02*
X13524943Y-12856650D01*
X13524943Y-12856650D02*
X13543991Y-12866174D01*
X13543991Y-12866174D02*
X13553515Y-12885222D01*
X13553515Y-12885222D02*
X13553515Y-12989984D01*
X13943991Y-12780460D02*
X13772563Y-13037603D01*
X14201134Y-12789984D02*
X14220182Y-12789984D01*
X14220182Y-12789984D02*
X14239229Y-12799508D01*
X14239229Y-12799508D02*
X14248753Y-12809031D01*
X14248753Y-12809031D02*
X14258277Y-12828079D01*
X14258277Y-12828079D02*
X14267801Y-12866174D01*
X14267801Y-12866174D02*
X14267801Y-12913793D01*
X14267801Y-12913793D02*
X14258277Y-12951888D01*
X14258277Y-12951888D02*
X14248753Y-12970936D01*
X14248753Y-12970936D02*
X14239229Y-12980460D01*
X14239229Y-12980460D02*
X14220182Y-12989984D01*
X14220182Y-12989984D02*
X14201134Y-12989984D01*
X14201134Y-12989984D02*
X14182086Y-12980460D01*
X14182086Y-12980460D02*
X14172563Y-12970936D01*
X14172563Y-12970936D02*
X14163039Y-12951888D01*
X14163039Y-12951888D02*
X14153515Y-12913793D01*
X14153515Y-12913793D02*
X14153515Y-12866174D01*
X14153515Y-12866174D02*
X14163039Y-12828079D01*
X14163039Y-12828079D02*
X14172563Y-12809031D01*
X14172563Y-12809031D02*
X14182086Y-12799508D01*
X14182086Y-12799508D02*
X14201134Y-12789984D01*
X14353515Y-12970936D02*
X14363039Y-12980460D01*
X14363039Y-12980460D02*
X14353515Y-12989984D01*
X14353515Y-12989984D02*
X14343991Y-12980460D01*
X14343991Y-12980460D02*
X14353515Y-12970936D01*
X14353515Y-12970936D02*
X14353515Y-12989984D01*
X14486848Y-12789984D02*
X14505896Y-12789984D01*
X14505896Y-12789984D02*
X14524944Y-12799508D01*
X14524944Y-12799508D02*
X14534467Y-12809031D01*
X14534467Y-12809031D02*
X14543991Y-12828079D01*
X14543991Y-12828079D02*
X14553515Y-12866174D01*
X14553515Y-12866174D02*
X14553515Y-12913793D01*
X14553515Y-12913793D02*
X14543991Y-12951888D01*
X14543991Y-12951888D02*
X14534467Y-12970936D01*
X14534467Y-12970936D02*
X14524944Y-12980460D01*
X14524944Y-12980460D02*
X14505896Y-12989984D01*
X14505896Y-12989984D02*
X14486848Y-12989984D01*
X14486848Y-12989984D02*
X14467801Y-12980460D01*
X14467801Y-12980460D02*
X14458277Y-12970936D01*
X14458277Y-12970936D02*
X14448753Y-12951888D01*
X14448753Y-12951888D02*
X14439229Y-12913793D01*
X14439229Y-12913793D02*
X14439229Y-12866174D01*
X14439229Y-12866174D02*
X14448753Y-12828079D01*
X14448753Y-12828079D02*
X14458277Y-12809031D01*
X14458277Y-12809031D02*
X14467801Y-12799508D01*
X14467801Y-12799508D02*
X14486848Y-12789984D01*
X14620182Y-12789984D02*
X14743991Y-12789984D01*
X14743991Y-12789984D02*
X14677325Y-12866174D01*
X14677325Y-12866174D02*
X14705896Y-12866174D01*
X14705896Y-12866174D02*
X14724944Y-12875698D01*
X14724944Y-12875698D02*
X14734467Y-12885222D01*
X14734467Y-12885222D02*
X14743991Y-12904269D01*
X14743991Y-12904269D02*
X14743991Y-12951888D01*
X14743991Y-12951888D02*
X14734467Y-12970936D01*
X14734467Y-12970936D02*
X14724944Y-12980460D01*
X14724944Y-12980460D02*
X14705896Y-12989984D01*
X14705896Y-12989984D02*
X14648753Y-12989984D01*
X14648753Y-12989984D02*
X14629706Y-12980460D01*
X14629706Y-12980460D02*
X14620182Y-12970936D01*
X14839229Y-12989984D02*
X14877325Y-12989984D01*
X14877325Y-12989984D02*
X14896372Y-12980460D01*
X14896372Y-12980460D02*
X14905896Y-12970936D01*
X14905896Y-12970936D02*
X14924944Y-12942365D01*
X14924944Y-12942365D02*
X14934467Y-12904269D01*
X14934467Y-12904269D02*
X14934467Y-12828079D01*
X14934467Y-12828079D02*
X14924944Y-12809031D01*
X14924944Y-12809031D02*
X14915420Y-12799508D01*
X14915420Y-12799508D02*
X14896372Y-12789984D01*
X14896372Y-12789984D02*
X14858277Y-12789984D01*
X14858277Y-12789984D02*
X14839229Y-12799508D01*
X14839229Y-12799508D02*
X14829706Y-12809031D01*
X14829706Y-12809031D02*
X14820182Y-12828079D01*
X14820182Y-12828079D02*
X14820182Y-12875698D01*
X14820182Y-12875698D02*
X14829706Y-12894746D01*
X14829706Y-12894746D02*
X14839229Y-12904269D01*
X14839229Y-12904269D02*
X14858277Y-12913793D01*
X14858277Y-12913793D02*
X14896372Y-12913793D01*
X14896372Y-12913793D02*
X14915420Y-12904269D01*
X14915420Y-12904269D02*
X14924944Y-12894746D01*
X14924944Y-12894746D02*
X14934467Y-12875698D01*
X15105896Y-12856650D02*
X15105896Y-12989984D01*
X15058277Y-12780460D02*
X15010658Y-12923317D01*
X15010658Y-12923317D02*
X15134467Y-12923317D01*
X15201134Y-12789984D02*
X15201134Y-12828079D01*
X15277325Y-12789984D02*
X15277325Y-12828079D01*
X15572563Y-13066174D02*
X15563039Y-13056650D01*
X15563039Y-13056650D02*
X15543991Y-13028079D01*
X15543991Y-13028079D02*
X15534468Y-13009031D01*
X15534468Y-13009031D02*
X15524944Y-12980460D01*
X15524944Y-12980460D02*
X15515420Y-12932841D01*
X15515420Y-12932841D02*
X15515420Y-12894746D01*
X15515420Y-12894746D02*
X15524944Y-12847127D01*
X15524944Y-12847127D02*
X15534468Y-12818555D01*
X15534468Y-12818555D02*
X15543991Y-12799508D01*
X15543991Y-12799508D02*
X15563039Y-12770936D01*
X15563039Y-12770936D02*
X15572563Y-12761412D01*
X15753515Y-12989984D02*
X15639229Y-12989984D01*
X15696372Y-12989984D02*
X15696372Y-12789984D01*
X15696372Y-12789984D02*
X15677325Y-12818555D01*
X15677325Y-12818555D02*
X15658277Y-12837603D01*
X15658277Y-12837603D02*
X15639229Y-12847127D01*
X15877325Y-12789984D02*
X15896372Y-12789984D01*
X15896372Y-12789984D02*
X15915420Y-12799508D01*
X15915420Y-12799508D02*
X15924944Y-12809031D01*
X15924944Y-12809031D02*
X15934468Y-12828079D01*
X15934468Y-12828079D02*
X15943991Y-12866174D01*
X15943991Y-12866174D02*
X15943991Y-12913793D01*
X15943991Y-12913793D02*
X15934468Y-12951888D01*
X15934468Y-12951888D02*
X15924944Y-12970936D01*
X15924944Y-12970936D02*
X15915420Y-12980460D01*
X15915420Y-12980460D02*
X15896372Y-12989984D01*
X15896372Y-12989984D02*
X15877325Y-12989984D01*
X15877325Y-12989984D02*
X15858277Y-12980460D01*
X15858277Y-12980460D02*
X15848753Y-12970936D01*
X15848753Y-12970936D02*
X15839229Y-12951888D01*
X15839229Y-12951888D02*
X15829706Y-12913793D01*
X15829706Y-12913793D02*
X15829706Y-12866174D01*
X15829706Y-12866174D02*
X15839229Y-12828079D01*
X15839229Y-12828079D02*
X15848753Y-12809031D01*
X15848753Y-12809031D02*
X15858277Y-12799508D01*
X15858277Y-12799508D02*
X15877325Y-12789984D01*
X16182087Y-12989984D02*
X16182087Y-12789984D01*
X16267801Y-12989984D02*
X16267801Y-12885222D01*
X16267801Y-12885222D02*
X16258277Y-12866174D01*
X16258277Y-12866174D02*
X16239230Y-12856650D01*
X16239230Y-12856650D02*
X16210658Y-12856650D01*
X16210658Y-12856650D02*
X16191610Y-12866174D01*
X16191610Y-12866174D02*
X16182087Y-12875698D01*
X16391610Y-12989984D02*
X16372563Y-12980460D01*
X16372563Y-12980460D02*
X16363039Y-12970936D01*
X16363039Y-12970936D02*
X16353515Y-12951888D01*
X16353515Y-12951888D02*
X16353515Y-12894746D01*
X16353515Y-12894746D02*
X16363039Y-12875698D01*
X16363039Y-12875698D02*
X16372563Y-12866174D01*
X16372563Y-12866174D02*
X16391610Y-12856650D01*
X16391610Y-12856650D02*
X16420182Y-12856650D01*
X16420182Y-12856650D02*
X16439230Y-12866174D01*
X16439230Y-12866174D02*
X16448753Y-12875698D01*
X16448753Y-12875698D02*
X16458277Y-12894746D01*
X16458277Y-12894746D02*
X16458277Y-12951888D01*
X16458277Y-12951888D02*
X16448753Y-12970936D01*
X16448753Y-12970936D02*
X16439230Y-12980460D01*
X16439230Y-12980460D02*
X16420182Y-12989984D01*
X16420182Y-12989984D02*
X16391610Y-12989984D01*
X16572563Y-12989984D02*
X16553515Y-12980460D01*
X16553515Y-12980460D02*
X16543991Y-12961412D01*
X16543991Y-12961412D02*
X16543991Y-12789984D01*
X16724944Y-12980460D02*
X16705896Y-12989984D01*
X16705896Y-12989984D02*
X16667801Y-12989984D01*
X16667801Y-12989984D02*
X16648753Y-12980460D01*
X16648753Y-12980460D02*
X16639230Y-12961412D01*
X16639230Y-12961412D02*
X16639230Y-12885222D01*
X16639230Y-12885222D02*
X16648753Y-12866174D01*
X16648753Y-12866174D02*
X16667801Y-12856650D01*
X16667801Y-12856650D02*
X16705896Y-12856650D01*
X16705896Y-12856650D02*
X16724944Y-12866174D01*
X16724944Y-12866174D02*
X16734468Y-12885222D01*
X16734468Y-12885222D02*
X16734468Y-12904269D01*
X16734468Y-12904269D02*
X16639230Y-12923317D01*
X16810658Y-12980460D02*
X16829706Y-12989984D01*
X16829706Y-12989984D02*
X16867801Y-12989984D01*
X16867801Y-12989984D02*
X16886849Y-12980460D01*
X16886849Y-12980460D02*
X16896373Y-12961412D01*
X16896373Y-12961412D02*
X16896373Y-12951888D01*
X16896373Y-12951888D02*
X16886849Y-12932841D01*
X16886849Y-12932841D02*
X16867801Y-12923317D01*
X16867801Y-12923317D02*
X16839230Y-12923317D01*
X16839230Y-12923317D02*
X16820182Y-12913793D01*
X16820182Y-12913793D02*
X16810658Y-12894746D01*
X16810658Y-12894746D02*
X16810658Y-12885222D01*
X16810658Y-12885222D02*
X16820182Y-12866174D01*
X16820182Y-12866174D02*
X16839230Y-12856650D01*
X16839230Y-12856650D02*
X16867801Y-12856650D01*
X16867801Y-12856650D02*
X16886849Y-12866174D01*
X16963039Y-13066174D02*
X16972563Y-13056650D01*
X16972563Y-13056650D02*
X16991611Y-13028079D01*
X16991611Y-13028079D02*
X17001134Y-13009031D01*
X17001134Y-13009031D02*
X17010658Y-12980460D01*
X17010658Y-12980460D02*
X17020182Y-12932841D01*
X17020182Y-12932841D02*
X17020182Y-12894746D01*
X17020182Y-12894746D02*
X17010658Y-12847127D01*
X17010658Y-12847127D02*
X17001134Y-12818555D01*
X17001134Y-12818555D02*
X16991611Y-12799508D01*
X16991611Y-12799508D02*
X16972563Y-12770936D01*
X16972563Y-12770936D02*
X16963039Y-12761412D01*
M02*
