G04 #@! TF.GenerationSoftware,KiCad,Pcbnew,8.0.1*
G04 #@! TF.CreationDate,2024-05-12T16:03:36-04:00*
G04 #@! TF.ProjectId,recyclobot_main,72656379-636c-46f6-926f-745f6d61696e,rev?*
G04 #@! TF.SameCoordinates,Original*
G04 #@! TF.FileFunction,Copper,L2,Bot*
G04 #@! TF.FilePolarity,Positive*
%FSLAX46Y46*%
G04 Gerber Fmt 4.6, Leading zero omitted, Abs format (unit mm)*
G04 Created by KiCad (PCBNEW 8.0.1) date 2024-05-12 16:03:36*
%MOMM*%
%LPD*%
G01*
G04 APERTURE LIST*
G04 #@! TA.AperFunction,ComponentPad*
%ADD10R,1.500000X1.050000*%
G04 #@! TD*
G04 #@! TA.AperFunction,ComponentPad*
%ADD11O,1.500000X1.050000*%
G04 #@! TD*
G04 #@! TA.AperFunction,ComponentPad*
%ADD12R,1.600000X1.600000*%
G04 #@! TD*
G04 #@! TA.AperFunction,ComponentPad*
%ADD13O,1.600000X1.600000*%
G04 #@! TD*
G04 #@! TA.AperFunction,ComponentPad*
%ADD14C,1.600000*%
G04 #@! TD*
G04 #@! TA.AperFunction,ComponentPad*
%ADD15R,1.700000X1.700000*%
G04 #@! TD*
G04 #@! TA.AperFunction,ComponentPad*
%ADD16O,1.700000X1.700000*%
G04 #@! TD*
G04 #@! TA.AperFunction,ComponentPad*
%ADD17R,1.800000X1.800000*%
G04 #@! TD*
G04 #@! TA.AperFunction,ComponentPad*
%ADD18C,1.800000*%
G04 #@! TD*
G04 #@! TA.AperFunction,ViaPad*
%ADD19C,0.600000*%
G04 #@! TD*
G04 #@! TA.AperFunction,Conductor*
%ADD20C,0.200000*%
G04 #@! TD*
G04 APERTURE END LIST*
D10*
X137000000Y-100540000D03*
D11*
X137000000Y-99270000D03*
X137000000Y-98000000D03*
D12*
X151420000Y-100500000D03*
D13*
X153960000Y-100500000D03*
X156500000Y-100500000D03*
X159040000Y-100500000D03*
X161580000Y-100500000D03*
X164120000Y-100500000D03*
X166660000Y-100500000D03*
X169200000Y-100500000D03*
X169200000Y-92880000D03*
X166660000Y-92880000D03*
X164120000Y-92880000D03*
X161580000Y-92880000D03*
X159040000Y-92880000D03*
X156500000Y-92880000D03*
X153960000Y-92880000D03*
X151420000Y-92880000D03*
D14*
X153500000Y-81000000D03*
D13*
X163660000Y-81000000D03*
D14*
X148500000Y-79340000D03*
D13*
X148500000Y-89500000D03*
D15*
X135500000Y-77620000D03*
D16*
X135500000Y-75080000D03*
X135500000Y-72540000D03*
X135500000Y-70000000D03*
D15*
X168500000Y-107500000D03*
D16*
X168500000Y-104960000D03*
D15*
X167975000Y-87250000D03*
D16*
X167975000Y-84710000D03*
D15*
X127975000Y-86250000D03*
D16*
X127975000Y-83710000D03*
D17*
X142500000Y-75500000D03*
D18*
X145040000Y-75500000D03*
D19*
X143500000Y-82000000D03*
X143500000Y-88500000D03*
X141500000Y-99700003D03*
X141000000Y-104000000D03*
X141500000Y-99000000D03*
X161000000Y-70000000D03*
X154500000Y-106000000D03*
X131000000Y-103500000D03*
X125000000Y-70500000D03*
X171000000Y-73000000D03*
X167500000Y-102500000D03*
X153000000Y-98000000D03*
X145500000Y-92000000D03*
X155500000Y-94900000D03*
X147500000Y-94900000D03*
X146000000Y-95500000D03*
X162000000Y-95500000D03*
X136500000Y-85000000D03*
X144500000Y-99000000D03*
D20*
X143500000Y-82000000D02*
X143500000Y-88500000D01*
X141500000Y-103500000D02*
X141000000Y-104000000D01*
X141500000Y-99700003D02*
X141500000Y-103500000D01*
X167500000Y-102500000D02*
X153420000Y-102500000D01*
X153420000Y-102500000D02*
X151420000Y-100500000D01*
X145500000Y-92000000D02*
X145400000Y-92100000D01*
X145400000Y-95900000D02*
X147500000Y-98000000D01*
X145400000Y-92100000D02*
X145400000Y-95900000D01*
X147500000Y-98000000D02*
X153000000Y-98000000D01*
X147500000Y-94900000D02*
X155500000Y-94900000D01*
X146000000Y-95500000D02*
X162000000Y-95500000D01*
X136500000Y-91000000D02*
X136500000Y-85000000D01*
X144500000Y-99000000D02*
X136500000Y-91000000D01*
G04 #@! TA.AperFunction,Conductor*
G36*
X161259920Y-100254394D02*
G01*
X161207259Y-100345606D01*
X161180000Y-100447339D01*
X161180000Y-100552661D01*
X161207259Y-100654394D01*
X161259920Y-100745606D01*
X161264314Y-100750000D01*
X159355686Y-100750000D01*
X159360080Y-100745606D01*
X159412741Y-100654394D01*
X159440000Y-100552661D01*
X159440000Y-100447339D01*
X159412741Y-100345606D01*
X159360080Y-100254394D01*
X159355686Y-100250000D01*
X161264314Y-100250000D01*
X161259920Y-100254394D01*
G37*
G04 #@! TD.AperFunction*
G04 #@! TA.AperFunction,Conductor*
G36*
X161259920Y-92634394D02*
G01*
X161207259Y-92725606D01*
X161180000Y-92827339D01*
X161180000Y-92932661D01*
X161207259Y-93034394D01*
X161259920Y-93125606D01*
X161264314Y-93130000D01*
X159355686Y-93130000D01*
X159360080Y-93125606D01*
X159412741Y-93034394D01*
X159440000Y-92932661D01*
X159440000Y-92827339D01*
X159412741Y-92725606D01*
X159360080Y-92634394D01*
X159355686Y-92630000D01*
X161264314Y-92630000D01*
X161259920Y-92634394D01*
G37*
G04 #@! TD.AperFunction*
G04 #@! TA.AperFunction,Conductor*
G36*
X175442539Y-65520185D02*
G01*
X175488294Y-65572989D01*
X175499500Y-65624500D01*
X175499500Y-111375500D01*
X175479815Y-111442539D01*
X175427011Y-111488294D01*
X175375500Y-111499500D01*
X120624500Y-111499500D01*
X120557461Y-111479815D01*
X120511706Y-111427011D01*
X120500500Y-111375500D01*
X120500500Y-104960000D01*
X167144341Y-104960000D01*
X167164936Y-105195403D01*
X167164938Y-105195413D01*
X167226094Y-105423655D01*
X167226096Y-105423659D01*
X167226097Y-105423663D01*
X167325965Y-105637830D01*
X167325967Y-105637834D01*
X167434281Y-105792521D01*
X167461501Y-105831396D01*
X167461506Y-105831402D01*
X167583430Y-105953326D01*
X167616915Y-106014649D01*
X167611931Y-106084341D01*
X167570059Y-106140274D01*
X167539083Y-106157189D01*
X167407669Y-106206203D01*
X167407664Y-106206206D01*
X167292455Y-106292452D01*
X167292452Y-106292455D01*
X167206206Y-106407664D01*
X167206202Y-106407671D01*
X167155908Y-106542517D01*
X167149501Y-106602116D01*
X167149501Y-106602123D01*
X167149500Y-106602135D01*
X167149500Y-108397870D01*
X167149501Y-108397876D01*
X167155908Y-108457483D01*
X167206202Y-108592328D01*
X167206206Y-108592335D01*
X167292452Y-108707544D01*
X167292455Y-108707547D01*
X167407664Y-108793793D01*
X167407671Y-108793797D01*
X167542517Y-108844091D01*
X167542516Y-108844091D01*
X167549444Y-108844835D01*
X167602127Y-108850500D01*
X169397872Y-108850499D01*
X169457483Y-108844091D01*
X169592331Y-108793796D01*
X169707546Y-108707546D01*
X169793796Y-108592331D01*
X169844091Y-108457483D01*
X169850500Y-108397873D01*
X169850499Y-106602128D01*
X169844091Y-106542517D01*
X169793796Y-106407669D01*
X169793795Y-106407668D01*
X169793793Y-106407664D01*
X169707547Y-106292455D01*
X169707544Y-106292452D01*
X169592335Y-106206206D01*
X169592328Y-106206202D01*
X169460917Y-106157189D01*
X169404983Y-106115318D01*
X169380566Y-106049853D01*
X169395418Y-105981580D01*
X169416563Y-105953332D01*
X169538495Y-105831401D01*
X169674035Y-105637830D01*
X169773903Y-105423663D01*
X169835063Y-105195408D01*
X169855659Y-104960000D01*
X169835063Y-104724592D01*
X169773903Y-104496337D01*
X169674035Y-104282171D01*
X169538495Y-104088599D01*
X169538494Y-104088597D01*
X169371402Y-103921506D01*
X169371395Y-103921501D01*
X169177834Y-103785967D01*
X169177830Y-103785965D01*
X169177828Y-103785964D01*
X168963663Y-103686097D01*
X168963659Y-103686096D01*
X168963655Y-103686094D01*
X168735413Y-103624938D01*
X168735403Y-103624936D01*
X168500001Y-103604341D01*
X168499999Y-103604341D01*
X168264596Y-103624936D01*
X168264586Y-103624938D01*
X168036344Y-103686094D01*
X168036335Y-103686098D01*
X167822171Y-103785964D01*
X167822169Y-103785965D01*
X167628597Y-103921505D01*
X167461505Y-104088597D01*
X167325965Y-104282169D01*
X167325964Y-104282171D01*
X167226098Y-104496335D01*
X167226094Y-104496344D01*
X167164938Y-104724586D01*
X167164936Y-104724596D01*
X167144341Y-104959999D01*
X167144341Y-104960000D01*
X120500500Y-104960000D01*
X120500500Y-101112870D01*
X135749500Y-101112870D01*
X135749501Y-101112876D01*
X135755908Y-101172483D01*
X135806202Y-101307328D01*
X135806206Y-101307335D01*
X135892452Y-101422544D01*
X135892455Y-101422547D01*
X136007664Y-101508793D01*
X136007671Y-101508797D01*
X136142517Y-101559091D01*
X136142516Y-101559091D01*
X136149444Y-101559835D01*
X136202127Y-101565500D01*
X137797872Y-101565499D01*
X137857483Y-101559091D01*
X137992331Y-101508796D01*
X138107546Y-101422546D01*
X138163448Y-101347870D01*
X150119500Y-101347870D01*
X150119501Y-101347876D01*
X150125908Y-101407483D01*
X150176202Y-101542328D01*
X150176206Y-101542335D01*
X150262452Y-101657544D01*
X150262455Y-101657547D01*
X150377664Y-101743793D01*
X150377671Y-101743797D01*
X150512517Y-101794091D01*
X150512516Y-101794091D01*
X150519444Y-101794835D01*
X150572127Y-101800500D01*
X151819902Y-101800499D01*
X151886941Y-101820184D01*
X151907583Y-101836818D01*
X152935139Y-102864374D01*
X152935149Y-102864385D01*
X152939479Y-102868715D01*
X152939480Y-102868716D01*
X153051284Y-102980520D01*
X153138095Y-103030639D01*
X153138097Y-103030641D01*
X153176151Y-103052611D01*
X153188215Y-103059577D01*
X153340943Y-103100500D01*
X153499057Y-103100500D01*
X166917588Y-103100500D01*
X166984627Y-103120185D01*
X166994903Y-103127555D01*
X166997736Y-103129814D01*
X166997738Y-103129816D01*
X167150478Y-103225789D01*
X167320745Y-103285368D01*
X167320750Y-103285369D01*
X167499996Y-103305565D01*
X167500000Y-103305565D01*
X167500004Y-103305565D01*
X167679249Y-103285369D01*
X167679252Y-103285368D01*
X167679255Y-103285368D01*
X167849522Y-103225789D01*
X168002262Y-103129816D01*
X168129816Y-103002262D01*
X168225789Y-102849522D01*
X168285368Y-102679255D01*
X168305565Y-102500000D01*
X168285368Y-102320745D01*
X168225789Y-102150478D01*
X168129816Y-101997738D01*
X168002262Y-101870184D01*
X167959580Y-101843365D01*
X167849523Y-101774211D01*
X167679254Y-101714631D01*
X167679250Y-101714630D01*
X167580392Y-101703492D01*
X167515978Y-101676425D01*
X167476423Y-101618830D01*
X167474286Y-101548993D01*
X167506593Y-101492592D01*
X167660047Y-101339139D01*
X167790568Y-101152734D01*
X167817618Y-101094724D01*
X167863790Y-101042285D01*
X167930983Y-101023133D01*
X167997865Y-101043348D01*
X168042382Y-101094725D01*
X168069429Y-101152728D01*
X168069432Y-101152734D01*
X168199954Y-101339141D01*
X168360858Y-101500045D01*
X168360861Y-101500047D01*
X168547266Y-101630568D01*
X168753504Y-101726739D01*
X168973308Y-101785635D01*
X169135230Y-101799801D01*
X169199998Y-101805468D01*
X169200000Y-101805468D01*
X169200002Y-101805468D01*
X169256807Y-101800498D01*
X169426692Y-101785635D01*
X169646496Y-101726739D01*
X169852734Y-101630568D01*
X170039139Y-101500047D01*
X170200047Y-101339139D01*
X170330568Y-101152734D01*
X170426739Y-100946496D01*
X170485635Y-100726692D01*
X170505468Y-100500000D01*
X170485635Y-100273308D01*
X170426739Y-100053504D01*
X170330568Y-99847266D01*
X170200047Y-99660861D01*
X170200045Y-99660858D01*
X170039141Y-99499954D01*
X169852734Y-99369432D01*
X169852732Y-99369431D01*
X169646497Y-99273261D01*
X169646488Y-99273258D01*
X169426697Y-99214366D01*
X169426693Y-99214365D01*
X169426692Y-99214365D01*
X169426691Y-99214364D01*
X169426686Y-99214364D01*
X169200002Y-99194532D01*
X169199998Y-99194532D01*
X168973313Y-99214364D01*
X168973302Y-99214366D01*
X168753511Y-99273258D01*
X168753502Y-99273261D01*
X168547267Y-99369431D01*
X168547265Y-99369432D01*
X168360858Y-99499954D01*
X168199954Y-99660858D01*
X168069432Y-99847265D01*
X168069431Y-99847267D01*
X168042382Y-99905275D01*
X167996209Y-99957714D01*
X167929016Y-99976866D01*
X167862135Y-99956650D01*
X167817618Y-99905275D01*
X167790686Y-99847520D01*
X167790568Y-99847266D01*
X167660047Y-99660861D01*
X167660045Y-99660858D01*
X167499141Y-99499954D01*
X167312734Y-99369432D01*
X167312732Y-99369431D01*
X167106497Y-99273261D01*
X167106488Y-99273258D01*
X166886697Y-99214366D01*
X166886693Y-99214365D01*
X166886692Y-99214365D01*
X166886691Y-99214364D01*
X166886686Y-99214364D01*
X166660002Y-99194532D01*
X166659998Y-99194532D01*
X166433313Y-99214364D01*
X166433302Y-99214366D01*
X166213511Y-99273258D01*
X166213502Y-99273261D01*
X166007267Y-99369431D01*
X166007265Y-99369432D01*
X165820858Y-99499954D01*
X165659954Y-99660858D01*
X165529432Y-99847265D01*
X165529431Y-99847267D01*
X165502382Y-99905275D01*
X165456209Y-99957714D01*
X165389016Y-99976866D01*
X165322135Y-99956650D01*
X165277618Y-99905275D01*
X165250686Y-99847520D01*
X165250568Y-99847266D01*
X165120047Y-99660861D01*
X165120045Y-99660858D01*
X164959141Y-99499954D01*
X164772734Y-99369432D01*
X164772732Y-99369431D01*
X164566497Y-99273261D01*
X164566488Y-99273258D01*
X164346697Y-99214366D01*
X164346693Y-99214365D01*
X164346692Y-99214365D01*
X164346691Y-99214364D01*
X164346686Y-99214364D01*
X164120002Y-99194532D01*
X164119998Y-99194532D01*
X163893313Y-99214364D01*
X163893302Y-99214366D01*
X163673511Y-99273258D01*
X163673502Y-99273261D01*
X163467267Y-99369431D01*
X163467265Y-99369432D01*
X163280858Y-99499954D01*
X163119954Y-99660858D01*
X163032772Y-99785369D01*
X162989432Y-99847266D01*
X162989315Y-99847518D01*
X162962106Y-99905867D01*
X162915933Y-99958306D01*
X162848739Y-99977457D01*
X162781858Y-99957241D01*
X162737342Y-99905865D01*
X162710135Y-99847520D01*
X162710134Y-99847518D01*
X162579657Y-99661179D01*
X162418820Y-99500342D01*
X162232482Y-99369865D01*
X162026328Y-99273734D01*
X161830000Y-99221127D01*
X161830000Y-100184314D01*
X161825606Y-100179920D01*
X161734394Y-100127259D01*
X161632661Y-100100000D01*
X161527339Y-100100000D01*
X161425606Y-100127259D01*
X161334394Y-100179920D01*
X161330000Y-100184314D01*
X161330000Y-99221127D01*
X161133671Y-99273734D01*
X160927517Y-99369865D01*
X160741179Y-99500342D01*
X160580342Y-99661179D01*
X160449865Y-99847517D01*
X160422382Y-99906457D01*
X160376210Y-99958896D01*
X160309016Y-99978048D01*
X160242135Y-99957832D01*
X160197618Y-99906457D01*
X160170134Y-99847517D01*
X160039657Y-99661179D01*
X159878820Y-99500342D01*
X159692482Y-99369865D01*
X159486328Y-99273734D01*
X159290000Y-99221127D01*
X159290000Y-100184314D01*
X159285606Y-100179920D01*
X159194394Y-100127259D01*
X159092661Y-100100000D01*
X158987339Y-100100000D01*
X158885606Y-100127259D01*
X158794394Y-100179920D01*
X158790000Y-100184314D01*
X158790000Y-99221127D01*
X158593671Y-99273734D01*
X158387517Y-99369865D01*
X158201179Y-99500342D01*
X158040342Y-99661179D01*
X157909867Y-99847515D01*
X157882657Y-99905867D01*
X157836484Y-99958306D01*
X157769290Y-99977457D01*
X157702409Y-99957241D01*
X157657893Y-99905865D01*
X157630685Y-99847518D01*
X157630568Y-99847266D01*
X157500047Y-99660861D01*
X157500045Y-99660858D01*
X157339141Y-99499954D01*
X157152734Y-99369432D01*
X157152732Y-99369431D01*
X156946497Y-99273261D01*
X156946488Y-99273258D01*
X156726697Y-99214366D01*
X156726693Y-99214365D01*
X156726692Y-99214365D01*
X156726691Y-99214364D01*
X156726686Y-99214364D01*
X156500002Y-99194532D01*
X156499998Y-99194532D01*
X156273313Y-99214364D01*
X156273302Y-99214366D01*
X156053511Y-99273258D01*
X156053502Y-99273261D01*
X155847267Y-99369431D01*
X155847265Y-99369432D01*
X155660858Y-99499954D01*
X155499954Y-99660858D01*
X155369432Y-99847265D01*
X155369431Y-99847267D01*
X155342382Y-99905275D01*
X155296209Y-99957714D01*
X155229016Y-99976866D01*
X155162135Y-99956650D01*
X155117618Y-99905275D01*
X155090686Y-99847520D01*
X155090568Y-99847266D01*
X154960047Y-99660861D01*
X154960045Y-99660858D01*
X154799141Y-99499954D01*
X154612734Y-99369432D01*
X154612732Y-99369431D01*
X154406497Y-99273261D01*
X154406488Y-99273258D01*
X154186697Y-99214366D01*
X154186693Y-99214365D01*
X154186692Y-99214365D01*
X154186691Y-99214364D01*
X154186686Y-99214364D01*
X153960002Y-99194532D01*
X153959998Y-99194532D01*
X153733313Y-99214364D01*
X153733302Y-99214366D01*
X153513511Y-99273258D01*
X153513502Y-99273261D01*
X153307267Y-99369431D01*
X153307265Y-99369432D01*
X153120858Y-99499954D01*
X152959954Y-99660858D01*
X152942725Y-99685464D01*
X152888147Y-99729088D01*
X152818648Y-99736280D01*
X152756294Y-99704757D01*
X152720882Y-99644526D01*
X152717861Y-99627591D01*
X152716985Y-99619444D01*
X152714091Y-99592517D01*
X152705313Y-99568983D01*
X152663797Y-99457671D01*
X152663793Y-99457664D01*
X152577547Y-99342455D01*
X152577544Y-99342452D01*
X152462335Y-99256206D01*
X152462328Y-99256202D01*
X152327482Y-99205908D01*
X152327483Y-99205908D01*
X152267883Y-99199501D01*
X152267881Y-99199500D01*
X152267873Y-99199500D01*
X152267864Y-99199500D01*
X150572129Y-99199500D01*
X150572123Y-99199501D01*
X150512516Y-99205908D01*
X150377671Y-99256202D01*
X150377664Y-99256206D01*
X150262455Y-99342452D01*
X150262452Y-99342455D01*
X150176206Y-99457664D01*
X150176202Y-99457671D01*
X150125908Y-99592517D01*
X150119501Y-99652116D01*
X150119500Y-99652135D01*
X150119500Y-101347870D01*
X138163448Y-101347870D01*
X138193796Y-101307331D01*
X138244091Y-101172483D01*
X138250500Y-101112873D01*
X138250499Y-99967128D01*
X138244091Y-99907517D01*
X138221713Y-99847518D01*
X138193797Y-99772670D01*
X138193795Y-99772668D01*
X138192618Y-99771095D01*
X138191931Y-99769255D01*
X138189547Y-99764888D01*
X138190175Y-99764544D01*
X138168203Y-99705630D01*
X138177326Y-99649333D01*
X138210610Y-99568978D01*
X138210611Y-99568974D01*
X138220353Y-99520000D01*
X137855671Y-99520000D01*
X137842415Y-99519289D01*
X137797873Y-99514500D01*
X137797872Y-99514500D01*
X137285830Y-99514500D01*
X137300075Y-99500255D01*
X137349444Y-99414745D01*
X137375000Y-99319370D01*
X137375000Y-99220630D01*
X137349444Y-99125255D01*
X137300075Y-99039745D01*
X137285830Y-99025500D01*
X137326004Y-99025500D01*
X137326004Y-99025499D01*
X137339473Y-99022820D01*
X137341674Y-99022383D01*
X137365866Y-99020000D01*
X138220353Y-99020000D01*
X138210612Y-98971025D01*
X138210609Y-98971016D01*
X138133347Y-98784486D01*
X138133343Y-98784479D01*
X138079795Y-98704340D01*
X138058917Y-98637662D01*
X138077401Y-98570282D01*
X138079733Y-98566652D01*
X138133786Y-98485756D01*
X138211091Y-98299127D01*
X138250500Y-98101003D01*
X138250500Y-97898997D01*
X138211091Y-97700873D01*
X138133786Y-97514244D01*
X138133784Y-97514241D01*
X138133782Y-97514237D01*
X138021558Y-97346281D01*
X137878718Y-97203441D01*
X137710762Y-97091217D01*
X137710752Y-97091212D01*
X137524127Y-97013909D01*
X137524119Y-97013907D01*
X137326007Y-96974500D01*
X137326003Y-96974500D01*
X136673997Y-96974500D01*
X136673992Y-96974500D01*
X136475880Y-97013907D01*
X136475872Y-97013909D01*
X136289247Y-97091212D01*
X136289237Y-97091217D01*
X136121281Y-97203441D01*
X135978441Y-97346281D01*
X135866217Y-97514237D01*
X135866212Y-97514247D01*
X135788909Y-97700872D01*
X135788907Y-97700880D01*
X135749500Y-97898992D01*
X135749500Y-98101007D01*
X135788907Y-98299119D01*
X135788909Y-98299127D01*
X135866212Y-98485754D01*
X135920204Y-98566558D01*
X135941081Y-98633235D01*
X135922596Y-98700615D01*
X135920204Y-98704337D01*
X135866655Y-98784479D01*
X135866654Y-98784481D01*
X135789390Y-98971016D01*
X135789387Y-98971025D01*
X135779647Y-99020000D01*
X136634134Y-99020000D01*
X136658326Y-99022383D01*
X136661123Y-99022939D01*
X136673995Y-99025499D01*
X136673996Y-99025500D01*
X136673997Y-99025500D01*
X136714170Y-99025500D01*
X136699925Y-99039745D01*
X136650556Y-99125255D01*
X136625000Y-99220630D01*
X136625000Y-99319370D01*
X136650556Y-99414745D01*
X136699925Y-99500255D01*
X136714170Y-99514500D01*
X136202129Y-99514500D01*
X136202125Y-99514501D01*
X136169577Y-99518000D01*
X136157576Y-99519290D01*
X136144325Y-99520000D01*
X135779647Y-99520000D01*
X135789387Y-99568974D01*
X135789390Y-99568983D01*
X135822673Y-99649335D01*
X135830142Y-99718804D01*
X135810156Y-99764723D01*
X135810454Y-99764886D01*
X135808636Y-99768213D01*
X135807385Y-99771090D01*
X135806206Y-99772664D01*
X135806202Y-99772671D01*
X135755908Y-99907517D01*
X135750626Y-99956650D01*
X135749501Y-99967123D01*
X135749500Y-99967135D01*
X135749500Y-101112870D01*
X120500500Y-101112870D01*
X120500500Y-83710000D01*
X126619341Y-83710000D01*
X126639936Y-83945403D01*
X126639938Y-83945413D01*
X126701094Y-84173655D01*
X126701096Y-84173659D01*
X126701097Y-84173663D01*
X126792737Y-84370184D01*
X126800965Y-84387830D01*
X126800967Y-84387834D01*
X126861712Y-84474586D01*
X126936501Y-84581396D01*
X126936506Y-84581402D01*
X127058818Y-84703714D01*
X127092303Y-84765037D01*
X127087319Y-84834729D01*
X127045447Y-84890662D01*
X127014471Y-84907577D01*
X126882912Y-84956646D01*
X126882906Y-84956649D01*
X126767812Y-85042809D01*
X126767809Y-85042812D01*
X126681649Y-85157906D01*
X126681645Y-85157913D01*
X126631403Y-85292620D01*
X126631401Y-85292627D01*
X126625000Y-85352155D01*
X126625000Y-86000000D01*
X127541988Y-86000000D01*
X127509075Y-86057007D01*
X127475000Y-86184174D01*
X127475000Y-86315826D01*
X127509075Y-86442993D01*
X127541988Y-86500000D01*
X126625000Y-86500000D01*
X126625000Y-87147844D01*
X126631401Y-87207372D01*
X126631403Y-87207379D01*
X126681645Y-87342086D01*
X126681649Y-87342093D01*
X126767809Y-87457187D01*
X126767812Y-87457190D01*
X126882906Y-87543350D01*
X126882913Y-87543354D01*
X127017620Y-87593596D01*
X127017627Y-87593598D01*
X127077155Y-87599999D01*
X127077172Y-87600000D01*
X127725000Y-87600000D01*
X127725000Y-86683012D01*
X127782007Y-86715925D01*
X127909174Y-86750000D01*
X128040826Y-86750000D01*
X128167993Y-86715925D01*
X128225000Y-86683012D01*
X128225000Y-87600000D01*
X128872828Y-87600000D01*
X128872844Y-87599999D01*
X128932372Y-87593598D01*
X128932379Y-87593596D01*
X129067086Y-87543354D01*
X129067093Y-87543350D01*
X129182187Y-87457190D01*
X129182190Y-87457187D01*
X129268350Y-87342093D01*
X129268354Y-87342086D01*
X129318596Y-87207379D01*
X129318598Y-87207372D01*
X129324999Y-87147844D01*
X129325000Y-87147827D01*
X129325000Y-86500000D01*
X128408012Y-86500000D01*
X128440925Y-86442993D01*
X128475000Y-86315826D01*
X128475000Y-86184174D01*
X128440925Y-86057007D01*
X128408012Y-86000000D01*
X129325000Y-86000000D01*
X129325000Y-85352172D01*
X129324999Y-85352155D01*
X129318598Y-85292627D01*
X129318596Y-85292620D01*
X129268354Y-85157913D01*
X129268350Y-85157906D01*
X129182190Y-85042812D01*
X129182187Y-85042809D01*
X129125006Y-85000003D01*
X135694435Y-85000003D01*
X135714630Y-85179249D01*
X135714631Y-85179254D01*
X135774211Y-85349523D01*
X135870185Y-85502263D01*
X135872445Y-85505097D01*
X135873334Y-85507275D01*
X135873889Y-85508158D01*
X135873734Y-85508255D01*
X135898855Y-85569783D01*
X135899500Y-85582412D01*
X135899500Y-90913330D01*
X135899499Y-90913348D01*
X135899499Y-91079054D01*
X135899498Y-91079054D01*
X135940423Y-91231785D01*
X135964917Y-91274210D01*
X135964919Y-91274212D01*
X136019479Y-91368714D01*
X136019481Y-91368717D01*
X136138349Y-91487585D01*
X136138355Y-91487590D01*
X143669298Y-99018533D01*
X143702783Y-99079856D01*
X143704837Y-99092330D01*
X143714630Y-99179249D01*
X143774210Y-99349521D01*
X143868733Y-99499953D01*
X143870184Y-99502262D01*
X143997738Y-99629816D01*
X144150478Y-99725789D01*
X144284456Y-99772670D01*
X144320745Y-99785368D01*
X144320750Y-99785369D01*
X144499996Y-99805565D01*
X144500000Y-99805565D01*
X144500004Y-99805565D01*
X144679249Y-99785369D01*
X144679252Y-99785368D01*
X144679255Y-99785368D01*
X144849522Y-99725789D01*
X145002262Y-99629816D01*
X145129816Y-99502262D01*
X145225789Y-99349522D01*
X145285368Y-99179255D01*
X145285369Y-99179249D01*
X145305565Y-99000003D01*
X145305565Y-98999996D01*
X145285369Y-98820750D01*
X145285368Y-98820745D01*
X145244635Y-98704337D01*
X145225789Y-98650478D01*
X145214954Y-98633235D01*
X145175398Y-98570282D01*
X145129816Y-98497738D01*
X145002262Y-98370184D01*
X144889163Y-98299119D01*
X144849521Y-98274210D01*
X144679249Y-98214630D01*
X144592330Y-98204837D01*
X144527916Y-98177770D01*
X144518533Y-98169298D01*
X138349238Y-92000003D01*
X144694435Y-92000003D01*
X144714630Y-92179249D01*
X144714631Y-92179254D01*
X144774212Y-92349525D01*
X144780492Y-92359519D01*
X144799500Y-92425493D01*
X144799500Y-95813330D01*
X144799499Y-95813348D01*
X144799499Y-95979054D01*
X144799498Y-95979054D01*
X144840423Y-96131785D01*
X144869358Y-96181900D01*
X144869359Y-96181904D01*
X144869360Y-96181904D01*
X144919479Y-96268714D01*
X144919481Y-96268717D01*
X145038349Y-96387585D01*
X145038355Y-96387590D01*
X147015139Y-98364374D01*
X147015149Y-98364385D01*
X147019479Y-98368715D01*
X147019480Y-98368716D01*
X147131284Y-98480520D01*
X147131286Y-98480521D01*
X147131290Y-98480524D01*
X147268209Y-98559573D01*
X147268216Y-98559577D01*
X147380019Y-98589534D01*
X147420942Y-98600500D01*
X147420943Y-98600500D01*
X152417588Y-98600500D01*
X152484627Y-98620185D01*
X152494903Y-98627555D01*
X152497736Y-98629814D01*
X152497738Y-98629816D01*
X152650478Y-98725789D01*
X152818204Y-98784479D01*
X152820745Y-98785368D01*
X152820750Y-98785369D01*
X152999996Y-98805565D01*
X153000000Y-98805565D01*
X153000004Y-98805565D01*
X153179249Y-98785369D01*
X153179252Y-98785368D01*
X153179255Y-98785368D01*
X153349522Y-98725789D01*
X153502262Y-98629816D01*
X153629816Y-98502262D01*
X153725789Y-98349522D01*
X153785368Y-98179255D01*
X153785369Y-98179249D01*
X153805565Y-98000003D01*
X153805565Y-97999996D01*
X153785369Y-97820750D01*
X153785368Y-97820745D01*
X153743423Y-97700873D01*
X153725789Y-97650478D01*
X153629816Y-97497738D01*
X153502262Y-97370184D01*
X153464221Y-97346281D01*
X153349523Y-97274211D01*
X153179254Y-97214631D01*
X153179249Y-97214630D01*
X153000004Y-97194435D01*
X152999996Y-97194435D01*
X152820750Y-97214630D01*
X152820745Y-97214631D01*
X152650476Y-97274211D01*
X152497736Y-97370185D01*
X152494903Y-97372445D01*
X152492724Y-97373334D01*
X152491842Y-97373889D01*
X152491744Y-97373734D01*
X152430217Y-97398855D01*
X152417588Y-97399500D01*
X147800097Y-97399500D01*
X147733058Y-97379815D01*
X147712416Y-97363181D01*
X146661416Y-96312181D01*
X146627931Y-96250858D01*
X146632915Y-96181166D01*
X146674787Y-96125233D01*
X146740251Y-96100816D01*
X146749097Y-96100500D01*
X161417588Y-96100500D01*
X161484627Y-96120185D01*
X161494903Y-96127555D01*
X161497736Y-96129814D01*
X161497738Y-96129816D01*
X161650478Y-96225789D01*
X161773159Y-96268717D01*
X161820745Y-96285368D01*
X161820750Y-96285369D01*
X161999996Y-96305565D01*
X162000000Y-96305565D01*
X162000004Y-96305565D01*
X162179249Y-96285369D01*
X162179252Y-96285368D01*
X162179255Y-96285368D01*
X162349522Y-96225789D01*
X162502262Y-96129816D01*
X162629816Y-96002262D01*
X162725789Y-95849522D01*
X162785368Y-95679255D01*
X162805565Y-95500000D01*
X162785368Y-95320745D01*
X162725789Y-95150478D01*
X162629816Y-94997738D01*
X162502262Y-94870184D01*
X162433553Y-94827011D01*
X162349523Y-94774211D01*
X162179254Y-94714631D01*
X162179249Y-94714630D01*
X162000004Y-94694435D01*
X161999996Y-94694435D01*
X161820750Y-94714630D01*
X161820745Y-94714631D01*
X161650476Y-94774211D01*
X161497736Y-94870185D01*
X161494903Y-94872445D01*
X161492724Y-94873334D01*
X161491842Y-94873889D01*
X161491744Y-94873734D01*
X161430217Y-94898855D01*
X161417588Y-94899500D01*
X156416322Y-94899500D01*
X156349283Y-94879815D01*
X156303528Y-94827011D01*
X156293102Y-94789383D01*
X156285369Y-94720750D01*
X156285368Y-94720748D01*
X156285368Y-94720745D01*
X156225789Y-94550478D01*
X156129816Y-94397738D01*
X156087466Y-94355388D01*
X156053981Y-94294065D01*
X156058965Y-94224373D01*
X156100837Y-94168440D01*
X156166301Y-94144023D01*
X156207238Y-94147931D01*
X156273308Y-94165635D01*
X156435230Y-94179801D01*
X156499998Y-94185468D01*
X156500000Y-94185468D01*
X156500002Y-94185468D01*
X156556673Y-94180509D01*
X156726692Y-94165635D01*
X156946496Y-94106739D01*
X157152734Y-94010568D01*
X157339139Y-93880047D01*
X157500047Y-93719139D01*
X157630568Y-93532734D01*
X157657895Y-93474129D01*
X157704064Y-93421695D01*
X157771257Y-93402542D01*
X157838139Y-93422757D01*
X157882657Y-93474133D01*
X157909865Y-93532482D01*
X158040342Y-93718820D01*
X158201179Y-93879657D01*
X158387517Y-94010134D01*
X158593673Y-94106265D01*
X158593682Y-94106269D01*
X158789999Y-94158872D01*
X158790000Y-94158871D01*
X158790000Y-93195686D01*
X158794394Y-93200080D01*
X158885606Y-93252741D01*
X158987339Y-93280000D01*
X159092661Y-93280000D01*
X159194394Y-93252741D01*
X159285606Y-93200080D01*
X159290000Y-93195686D01*
X159290000Y-94158872D01*
X159486317Y-94106269D01*
X159486326Y-94106265D01*
X159692482Y-94010134D01*
X159878820Y-93879657D01*
X160039657Y-93718820D01*
X160170134Y-93532481D01*
X160170135Y-93532479D01*
X160197618Y-93473543D01*
X160243790Y-93421103D01*
X160310983Y-93401951D01*
X160377864Y-93422166D01*
X160422382Y-93473543D01*
X160449864Y-93532479D01*
X160449865Y-93532481D01*
X160580342Y-93718820D01*
X160741179Y-93879657D01*
X160927517Y-94010134D01*
X161133673Y-94106265D01*
X161133682Y-94106269D01*
X161329999Y-94158872D01*
X161330000Y-94158871D01*
X161330000Y-93195686D01*
X161334394Y-93200080D01*
X161425606Y-93252741D01*
X161527339Y-93280000D01*
X161632661Y-93280000D01*
X161734394Y-93252741D01*
X161825606Y-93200080D01*
X161830000Y-93195686D01*
X161830000Y-94158872D01*
X162026317Y-94106269D01*
X162026326Y-94106265D01*
X162232482Y-94010134D01*
X162418820Y-93879657D01*
X162579657Y-93718820D01*
X162710132Y-93532484D01*
X162737341Y-93474134D01*
X162783513Y-93421695D01*
X162850707Y-93402542D01*
X162917588Y-93422757D01*
X162962106Y-93474133D01*
X162989431Y-93532732D01*
X162989432Y-93532734D01*
X163119954Y-93719141D01*
X163280858Y-93880045D01*
X163288236Y-93885211D01*
X163467266Y-94010568D01*
X163673504Y-94106739D01*
X163673509Y-94106740D01*
X163673511Y-94106741D01*
X163702954Y-94114630D01*
X163893308Y-94165635D01*
X164055230Y-94179801D01*
X164119998Y-94185468D01*
X164120000Y-94185468D01*
X164120002Y-94185468D01*
X164176673Y-94180509D01*
X164346692Y-94165635D01*
X164566496Y-94106739D01*
X164772734Y-94010568D01*
X164959139Y-93880047D01*
X165120047Y-93719139D01*
X165250568Y-93532734D01*
X165277618Y-93474724D01*
X165323790Y-93422285D01*
X165390983Y-93403133D01*
X165457865Y-93423348D01*
X165502382Y-93474725D01*
X165529429Y-93532728D01*
X165529432Y-93532734D01*
X165659954Y-93719141D01*
X165820858Y-93880045D01*
X165828236Y-93885211D01*
X166007266Y-94010568D01*
X166213504Y-94106739D01*
X166213509Y-94106740D01*
X166213511Y-94106741D01*
X166242954Y-94114630D01*
X166433308Y-94165635D01*
X166595230Y-94179801D01*
X166659998Y-94185468D01*
X166660000Y-94185468D01*
X166660002Y-94185468D01*
X166716673Y-94180509D01*
X166886692Y-94165635D01*
X167106496Y-94106739D01*
X167312734Y-94010568D01*
X167499139Y-93880047D01*
X167660047Y-93719139D01*
X167790568Y-93532734D01*
X167817618Y-93474724D01*
X167863790Y-93422285D01*
X167930983Y-93403133D01*
X167997865Y-93423348D01*
X168042382Y-93474725D01*
X168069429Y-93532728D01*
X168069432Y-93532734D01*
X168199954Y-93719141D01*
X168360858Y-93880045D01*
X168368236Y-93885211D01*
X168547266Y-94010568D01*
X168753504Y-94106739D01*
X168753509Y-94106740D01*
X168753511Y-94106741D01*
X168782954Y-94114630D01*
X168973308Y-94165635D01*
X169135230Y-94179801D01*
X169199998Y-94185468D01*
X169200000Y-94185468D01*
X169200002Y-94185468D01*
X169256673Y-94180509D01*
X169426692Y-94165635D01*
X169646496Y-94106739D01*
X169852734Y-94010568D01*
X170039139Y-93880047D01*
X170200047Y-93719139D01*
X170330568Y-93532734D01*
X170426739Y-93326496D01*
X170485635Y-93106692D01*
X170505468Y-92880000D01*
X170485635Y-92653308D01*
X170426739Y-92433504D01*
X170330568Y-92227266D01*
X170200047Y-92040861D01*
X170200045Y-92040858D01*
X170039141Y-91879954D01*
X169852734Y-91749432D01*
X169852732Y-91749431D01*
X169646497Y-91653261D01*
X169646488Y-91653258D01*
X169426697Y-91594366D01*
X169426693Y-91594365D01*
X169426692Y-91594365D01*
X169426691Y-91594364D01*
X169426686Y-91594364D01*
X169200002Y-91574532D01*
X169199998Y-91574532D01*
X168973313Y-91594364D01*
X168973302Y-91594366D01*
X168753511Y-91653258D01*
X168753502Y-91653261D01*
X168547267Y-91749431D01*
X168547265Y-91749432D01*
X168360858Y-91879954D01*
X168199954Y-92040858D01*
X168069432Y-92227265D01*
X168069431Y-92227267D01*
X168042382Y-92285275D01*
X167996209Y-92337714D01*
X167929016Y-92356866D01*
X167862135Y-92336650D01*
X167817618Y-92285275D01*
X167790686Y-92227520D01*
X167790568Y-92227266D01*
X167660047Y-92040861D01*
X167660045Y-92040858D01*
X167499141Y-91879954D01*
X167312734Y-91749432D01*
X167312732Y-91749431D01*
X167106497Y-91653261D01*
X167106488Y-91653258D01*
X166886697Y-91594366D01*
X166886693Y-91594365D01*
X166886692Y-91594365D01*
X166886691Y-91594364D01*
X166886686Y-91594364D01*
X166660002Y-91574532D01*
X166659998Y-91574532D01*
X166433313Y-91594364D01*
X166433302Y-91594366D01*
X166213511Y-91653258D01*
X166213502Y-91653261D01*
X166007267Y-91749431D01*
X166007265Y-91749432D01*
X165820858Y-91879954D01*
X165659954Y-92040858D01*
X165529432Y-92227265D01*
X165529431Y-92227267D01*
X165502382Y-92285275D01*
X165456209Y-92337714D01*
X165389016Y-92356866D01*
X165322135Y-92336650D01*
X165277618Y-92285275D01*
X165250686Y-92227520D01*
X165250568Y-92227266D01*
X165120047Y-92040861D01*
X165120045Y-92040858D01*
X164959141Y-91879954D01*
X164772734Y-91749432D01*
X164772732Y-91749431D01*
X164566497Y-91653261D01*
X164566488Y-91653258D01*
X164346697Y-91594366D01*
X164346693Y-91594365D01*
X164346692Y-91594365D01*
X164346691Y-91594364D01*
X164346686Y-91594364D01*
X164120002Y-91574532D01*
X164119998Y-91574532D01*
X163893313Y-91594364D01*
X163893302Y-91594366D01*
X163673511Y-91653258D01*
X163673502Y-91653261D01*
X163467267Y-91749431D01*
X163467265Y-91749432D01*
X163280858Y-91879954D01*
X163119954Y-92040858D01*
X163023049Y-92179255D01*
X162989432Y-92227266D01*
X162989315Y-92227518D01*
X162962106Y-92285867D01*
X162915933Y-92338306D01*
X162848739Y-92357457D01*
X162781858Y-92337241D01*
X162737342Y-92285865D01*
X162710135Y-92227520D01*
X162710134Y-92227518D01*
X162579657Y-92041179D01*
X162418820Y-91880342D01*
X162232482Y-91749865D01*
X162026328Y-91653734D01*
X161830000Y-91601127D01*
X161830000Y-92564314D01*
X161825606Y-92559920D01*
X161734394Y-92507259D01*
X161632661Y-92480000D01*
X161527339Y-92480000D01*
X161425606Y-92507259D01*
X161334394Y-92559920D01*
X161330000Y-92564314D01*
X161330000Y-91601127D01*
X161133671Y-91653734D01*
X160927517Y-91749865D01*
X160741179Y-91880342D01*
X160580342Y-92041179D01*
X160449865Y-92227517D01*
X160422382Y-92286457D01*
X160376210Y-92338896D01*
X160309016Y-92358048D01*
X160242135Y-92337832D01*
X160197618Y-92286457D01*
X160170134Y-92227517D01*
X160039657Y-92041179D01*
X159878820Y-91880342D01*
X159692482Y-91749865D01*
X159486328Y-91653734D01*
X159290000Y-91601127D01*
X159290000Y-92564314D01*
X159285606Y-92559920D01*
X159194394Y-92507259D01*
X159092661Y-92480000D01*
X158987339Y-92480000D01*
X158885606Y-92507259D01*
X158794394Y-92559920D01*
X158790000Y-92564314D01*
X158790000Y-91601127D01*
X158593671Y-91653734D01*
X158387517Y-91749865D01*
X158201179Y-91880342D01*
X158040342Y-92041179D01*
X157909867Y-92227515D01*
X157882657Y-92285867D01*
X157836484Y-92338306D01*
X157769290Y-92357457D01*
X157702409Y-92337241D01*
X157657893Y-92285865D01*
X157630685Y-92227518D01*
X157630568Y-92227266D01*
X157500047Y-92040861D01*
X157500045Y-92040858D01*
X157339141Y-91879954D01*
X157152734Y-91749432D01*
X157152732Y-91749431D01*
X156946497Y-91653261D01*
X156946488Y-91653258D01*
X156726697Y-91594366D01*
X156726693Y-91594365D01*
X156726692Y-91594365D01*
X156726691Y-91594364D01*
X156726686Y-91594364D01*
X156500002Y-91574532D01*
X156499998Y-91574532D01*
X156273313Y-91594364D01*
X156273302Y-91594366D01*
X156053511Y-91653258D01*
X156053502Y-91653261D01*
X155847267Y-91749431D01*
X155847265Y-91749432D01*
X155660858Y-91879954D01*
X155499954Y-92040858D01*
X155369432Y-92227265D01*
X155369431Y-92227267D01*
X155342382Y-92285275D01*
X155296209Y-92337714D01*
X155229016Y-92356866D01*
X155162135Y-92336650D01*
X155117618Y-92285275D01*
X155090686Y-92227520D01*
X155090568Y-92227266D01*
X154960047Y-92040861D01*
X154960045Y-92040858D01*
X154799141Y-91879954D01*
X154612734Y-91749432D01*
X154612732Y-91749431D01*
X154406497Y-91653261D01*
X154406488Y-91653258D01*
X154186697Y-91594366D01*
X154186693Y-91594365D01*
X154186692Y-91594365D01*
X154186691Y-91594364D01*
X154186686Y-91594364D01*
X153960002Y-91574532D01*
X153959998Y-91574532D01*
X153733313Y-91594364D01*
X153733302Y-91594366D01*
X153513511Y-91653258D01*
X153513502Y-91653261D01*
X153307267Y-91749431D01*
X153307265Y-91749432D01*
X153120858Y-91879954D01*
X152959954Y-92040858D01*
X152829432Y-92227265D01*
X152829431Y-92227267D01*
X152802382Y-92285275D01*
X152756209Y-92337714D01*
X152689016Y-92356866D01*
X152622135Y-92336650D01*
X152577618Y-92285275D01*
X152550686Y-92227520D01*
X152550568Y-92227266D01*
X152420047Y-92040861D01*
X152420045Y-92040858D01*
X152259141Y-91879954D01*
X152072734Y-91749432D01*
X152072732Y-91749431D01*
X151866497Y-91653261D01*
X151866488Y-91653258D01*
X151646697Y-91594366D01*
X151646693Y-91594365D01*
X151646692Y-91594365D01*
X151646691Y-91594364D01*
X151646686Y-91594364D01*
X151420002Y-91574532D01*
X151419998Y-91574532D01*
X151193313Y-91594364D01*
X151193302Y-91594366D01*
X150973511Y-91653258D01*
X150973502Y-91653261D01*
X150767267Y-91749431D01*
X150767265Y-91749432D01*
X150580858Y-91879954D01*
X150419954Y-92040858D01*
X150289432Y-92227265D01*
X150289431Y-92227267D01*
X150193261Y-92433502D01*
X150193258Y-92433511D01*
X150134366Y-92653302D01*
X150134364Y-92653313D01*
X150114532Y-92879998D01*
X150114532Y-92880001D01*
X150134364Y-93106686D01*
X150134366Y-93106697D01*
X150193258Y-93326488D01*
X150193261Y-93326497D01*
X150289431Y-93532732D01*
X150289432Y-93532734D01*
X150419954Y-93719141D01*
X150580858Y-93880045D01*
X150588236Y-93885211D01*
X150767266Y-94010568D01*
X150879961Y-94063118D01*
X150932399Y-94109290D01*
X150951551Y-94176484D01*
X150931335Y-94243365D01*
X150878170Y-94288700D01*
X150827555Y-94299500D01*
X148082412Y-94299500D01*
X148015373Y-94279815D01*
X148005097Y-94272445D01*
X148002263Y-94270185D01*
X148002262Y-94270184D01*
X147929354Y-94224373D01*
X147849523Y-94174211D01*
X147679254Y-94114631D01*
X147679249Y-94114630D01*
X147500004Y-94094435D01*
X147499996Y-94094435D01*
X147320750Y-94114630D01*
X147320745Y-94114631D01*
X147150476Y-94174211D01*
X146997737Y-94270184D01*
X146870184Y-94397737D01*
X146774210Y-94550478D01*
X146714630Y-94720750D01*
X146706898Y-94789383D01*
X146679832Y-94853797D01*
X146622237Y-94893352D01*
X146583678Y-94899500D01*
X146582412Y-94899500D01*
X146515373Y-94879815D01*
X146505097Y-94872445D01*
X146502263Y-94870185D01*
X146502262Y-94870184D01*
X146373668Y-94789383D01*
X146349521Y-94774210D01*
X146179249Y-94714630D01*
X146110616Y-94706897D01*
X146046202Y-94679830D01*
X146006647Y-94622235D01*
X146000500Y-94583677D01*
X146000500Y-92682940D01*
X146020185Y-92615901D01*
X146036819Y-92595259D01*
X146072158Y-92559920D01*
X146129816Y-92502262D01*
X146225789Y-92349522D01*
X146285368Y-92179255D01*
X146285369Y-92179249D01*
X146305565Y-92000003D01*
X146305565Y-91999996D01*
X146285369Y-91820750D01*
X146285368Y-91820745D01*
X146260566Y-91749865D01*
X146225789Y-91650478D01*
X146129816Y-91497738D01*
X146002262Y-91370184D01*
X145999923Y-91368714D01*
X145849523Y-91274211D01*
X145679254Y-91214631D01*
X145679249Y-91214630D01*
X145500004Y-91194435D01*
X145499996Y-91194435D01*
X145320750Y-91214630D01*
X145320745Y-91214631D01*
X145150476Y-91274211D01*
X144997737Y-91370184D01*
X144870184Y-91497737D01*
X144774211Y-91650476D01*
X144714631Y-91820745D01*
X144714630Y-91820750D01*
X144694435Y-91999996D01*
X144694435Y-92000003D01*
X138349238Y-92000003D01*
X137136819Y-90787584D01*
X137103334Y-90726261D01*
X137100500Y-90699903D01*
X137100500Y-89500001D01*
X147194532Y-89500001D01*
X147214364Y-89726686D01*
X147214366Y-89726697D01*
X147273258Y-89946488D01*
X147273261Y-89946497D01*
X147369431Y-90152732D01*
X147369432Y-90152734D01*
X147499954Y-90339141D01*
X147660858Y-90500045D01*
X147660861Y-90500047D01*
X147847266Y-90630568D01*
X148053504Y-90726739D01*
X148273308Y-90785635D01*
X148435230Y-90799801D01*
X148499998Y-90805468D01*
X148500000Y-90805468D01*
X148500002Y-90805468D01*
X148556673Y-90800509D01*
X148726692Y-90785635D01*
X148946496Y-90726739D01*
X149152734Y-90630568D01*
X149339139Y-90500047D01*
X149500047Y-90339139D01*
X149630568Y-90152734D01*
X149726739Y-89946496D01*
X149785635Y-89726692D01*
X149805468Y-89500000D01*
X149785635Y-89273308D01*
X149726739Y-89053504D01*
X149630568Y-88847266D01*
X149500047Y-88660861D01*
X149500045Y-88660858D01*
X149339141Y-88499954D01*
X149152734Y-88369432D01*
X149152732Y-88369431D01*
X148946497Y-88273261D01*
X148946488Y-88273258D01*
X148726697Y-88214366D01*
X148726693Y-88214365D01*
X148726692Y-88214365D01*
X148726691Y-88214364D01*
X148726686Y-88214364D01*
X148500002Y-88194532D01*
X148499998Y-88194532D01*
X148273313Y-88214364D01*
X148273302Y-88214366D01*
X148053511Y-88273258D01*
X148053502Y-88273261D01*
X147847267Y-88369431D01*
X147847265Y-88369432D01*
X147660858Y-88499954D01*
X147499954Y-88660858D01*
X147369432Y-88847265D01*
X147369431Y-88847267D01*
X147273261Y-89053502D01*
X147273258Y-89053511D01*
X147214366Y-89273302D01*
X147214364Y-89273313D01*
X147194532Y-89499998D01*
X147194532Y-89500001D01*
X137100500Y-89500001D01*
X137100500Y-88500003D01*
X142694435Y-88500003D01*
X142714630Y-88679249D01*
X142714631Y-88679254D01*
X142774211Y-88849523D01*
X142870184Y-89002262D01*
X142997738Y-89129816D01*
X143150478Y-89225789D01*
X143286280Y-89273308D01*
X143320745Y-89285368D01*
X143320750Y-89285369D01*
X143499996Y-89305565D01*
X143500000Y-89305565D01*
X143500004Y-89305565D01*
X143679249Y-89285369D01*
X143679252Y-89285368D01*
X143679255Y-89285368D01*
X143849522Y-89225789D01*
X144002262Y-89129816D01*
X144129816Y-89002262D01*
X144225789Y-88849522D01*
X144285368Y-88679255D01*
X144285369Y-88679249D01*
X144305565Y-88500003D01*
X144305565Y-88499996D01*
X144285369Y-88320750D01*
X144285368Y-88320745D01*
X144268753Y-88273261D01*
X144225789Y-88150478D01*
X144224158Y-88147883D01*
X144129813Y-87997734D01*
X144127550Y-87994896D01*
X144126659Y-87992715D01*
X144126111Y-87991842D01*
X144126264Y-87991745D01*
X144101144Y-87930209D01*
X144100500Y-87917587D01*
X144100500Y-84710000D01*
X166619341Y-84710000D01*
X166639936Y-84945403D01*
X166639938Y-84945413D01*
X166701094Y-85173655D01*
X166701096Y-85173659D01*
X166701097Y-85173663D01*
X166784337Y-85352172D01*
X166800965Y-85387830D01*
X166800967Y-85387834D01*
X166909281Y-85542521D01*
X166936501Y-85581396D01*
X166936506Y-85581402D01*
X167058430Y-85703326D01*
X167091915Y-85764649D01*
X167086931Y-85834341D01*
X167045059Y-85890274D01*
X167014083Y-85907189D01*
X166882669Y-85956203D01*
X166882664Y-85956206D01*
X166767455Y-86042452D01*
X166767452Y-86042455D01*
X166681206Y-86157664D01*
X166681202Y-86157671D01*
X166630908Y-86292517D01*
X166624501Y-86352116D01*
X166624501Y-86352123D01*
X166624500Y-86352135D01*
X166624500Y-88147870D01*
X166624501Y-88147876D01*
X166630908Y-88207483D01*
X166681202Y-88342328D01*
X166681206Y-88342335D01*
X166767452Y-88457544D01*
X166767455Y-88457547D01*
X166882664Y-88543793D01*
X166882671Y-88543797D01*
X167017517Y-88594091D01*
X167017516Y-88594091D01*
X167024444Y-88594835D01*
X167077127Y-88600500D01*
X168872872Y-88600499D01*
X168932483Y-88594091D01*
X169067331Y-88543796D01*
X169182546Y-88457546D01*
X169268796Y-88342331D01*
X169319091Y-88207483D01*
X169325500Y-88147873D01*
X169325499Y-86352128D01*
X169319091Y-86292517D01*
X169268796Y-86157669D01*
X169268795Y-86157668D01*
X169268793Y-86157664D01*
X169182547Y-86042455D01*
X169182544Y-86042452D01*
X169067335Y-85956206D01*
X169067328Y-85956202D01*
X168935917Y-85907189D01*
X168879983Y-85865318D01*
X168855566Y-85799853D01*
X168870418Y-85731580D01*
X168891563Y-85703332D01*
X169013495Y-85581401D01*
X169149035Y-85387830D01*
X169248903Y-85173663D01*
X169310063Y-84945408D01*
X169330659Y-84710000D01*
X169310063Y-84474592D01*
X169248903Y-84246337D01*
X169149035Y-84032171D01*
X169088284Y-83945408D01*
X169013494Y-83838597D01*
X168846402Y-83671506D01*
X168846395Y-83671501D01*
X168652834Y-83535967D01*
X168652830Y-83535965D01*
X168652828Y-83535964D01*
X168438663Y-83436097D01*
X168438659Y-83436096D01*
X168438655Y-83436094D01*
X168210413Y-83374938D01*
X168210403Y-83374936D01*
X167975001Y-83354341D01*
X167974999Y-83354341D01*
X167739596Y-83374936D01*
X167739586Y-83374938D01*
X167511344Y-83436094D01*
X167511335Y-83436098D01*
X167297171Y-83535964D01*
X167297169Y-83535965D01*
X167103597Y-83671505D01*
X166936505Y-83838597D01*
X166800965Y-84032169D01*
X166800964Y-84032171D01*
X166701098Y-84246335D01*
X166701094Y-84246344D01*
X166639938Y-84474586D01*
X166639936Y-84474596D01*
X166619341Y-84709999D01*
X166619341Y-84710000D01*
X144100500Y-84710000D01*
X144100500Y-82582412D01*
X144120185Y-82515373D01*
X144127555Y-82505097D01*
X144129810Y-82502267D01*
X144129816Y-82502262D01*
X144225789Y-82349522D01*
X144285368Y-82179255D01*
X144305565Y-82000000D01*
X144305526Y-81999657D01*
X144285369Y-81820750D01*
X144285368Y-81820745D01*
X144226578Y-81652734D01*
X144225789Y-81650478D01*
X144129816Y-81497738D01*
X144002262Y-81370184D01*
X143849523Y-81274211D01*
X143679254Y-81214631D01*
X143679249Y-81214630D01*
X143500004Y-81194435D01*
X143499996Y-81194435D01*
X143320750Y-81214630D01*
X143320745Y-81214631D01*
X143150476Y-81274211D01*
X142997737Y-81370184D01*
X142870184Y-81497737D01*
X142774211Y-81650476D01*
X142714631Y-81820745D01*
X142714630Y-81820750D01*
X142694435Y-81999996D01*
X142694435Y-82000003D01*
X142714630Y-82179249D01*
X142714631Y-82179254D01*
X142774211Y-82349523D01*
X142870185Y-82502263D01*
X142872445Y-82505097D01*
X142873334Y-82507275D01*
X142873889Y-82508158D01*
X142873734Y-82508255D01*
X142898855Y-82569783D01*
X142899500Y-82582412D01*
X142899500Y-87917587D01*
X142879815Y-87984626D01*
X142872450Y-87994896D01*
X142870186Y-87997734D01*
X142774211Y-88150476D01*
X142714631Y-88320745D01*
X142714630Y-88320750D01*
X142694435Y-88499996D01*
X142694435Y-88500003D01*
X137100500Y-88500003D01*
X137100500Y-85582412D01*
X137120185Y-85515373D01*
X137127555Y-85505097D01*
X137129810Y-85502267D01*
X137129816Y-85502262D01*
X137225789Y-85349522D01*
X137285368Y-85179255D01*
X137287773Y-85157913D01*
X137305565Y-85000003D01*
X137305565Y-84999996D01*
X137285369Y-84820750D01*
X137285368Y-84820745D01*
X137260087Y-84748495D01*
X137225789Y-84650478D01*
X137129816Y-84497738D01*
X137002262Y-84370184D01*
X136849523Y-84274211D01*
X136679254Y-84214631D01*
X136679249Y-84214630D01*
X136500004Y-84194435D01*
X136499996Y-84194435D01*
X136320750Y-84214630D01*
X136320745Y-84214631D01*
X136150476Y-84274211D01*
X135997737Y-84370184D01*
X135870184Y-84497737D01*
X135774211Y-84650476D01*
X135714631Y-84820745D01*
X135714630Y-84820750D01*
X135694435Y-84999996D01*
X135694435Y-85000003D01*
X129125006Y-85000003D01*
X129067093Y-84956649D01*
X129067088Y-84956646D01*
X128935528Y-84907577D01*
X128879595Y-84865705D01*
X128855178Y-84800241D01*
X128870030Y-84731968D01*
X128891175Y-84703720D01*
X129013495Y-84581401D01*
X129149035Y-84387830D01*
X129248903Y-84173663D01*
X129310063Y-83945408D01*
X129330659Y-83710000D01*
X129310063Y-83474592D01*
X129248903Y-83246337D01*
X129149035Y-83032171D01*
X129013495Y-82838599D01*
X129013494Y-82838597D01*
X128846402Y-82671506D01*
X128846395Y-82671501D01*
X128652834Y-82535967D01*
X128652830Y-82535965D01*
X128591304Y-82507275D01*
X128438663Y-82436097D01*
X128438659Y-82436096D01*
X128438655Y-82436094D01*
X128210413Y-82374938D01*
X128210403Y-82374936D01*
X127975001Y-82354341D01*
X127974999Y-82354341D01*
X127739596Y-82374936D01*
X127739586Y-82374938D01*
X127511344Y-82436094D01*
X127511335Y-82436098D01*
X127297171Y-82535964D01*
X127297169Y-82535965D01*
X127103597Y-82671505D01*
X126936505Y-82838597D01*
X126800965Y-83032169D01*
X126800964Y-83032171D01*
X126701098Y-83246335D01*
X126701094Y-83246344D01*
X126639938Y-83474586D01*
X126639936Y-83474596D01*
X126619341Y-83709999D01*
X126619341Y-83710000D01*
X120500500Y-83710000D01*
X120500500Y-81000001D01*
X152194532Y-81000001D01*
X152214364Y-81226686D01*
X152214366Y-81226697D01*
X152273258Y-81446488D01*
X152273261Y-81446497D01*
X152369431Y-81652732D01*
X152369432Y-81652734D01*
X152499954Y-81839141D01*
X152660858Y-82000045D01*
X152660861Y-82000047D01*
X152847266Y-82130568D01*
X153053504Y-82226739D01*
X153273308Y-82285635D01*
X153435230Y-82299801D01*
X153499998Y-82305468D01*
X153500000Y-82305468D01*
X153500002Y-82305468D01*
X153556673Y-82300509D01*
X153726692Y-82285635D01*
X153946496Y-82226739D01*
X154152734Y-82130568D01*
X154339139Y-82000047D01*
X154500047Y-81839139D01*
X154630568Y-81652734D01*
X154726739Y-81446496D01*
X154785635Y-81226692D01*
X154805468Y-81000000D01*
X154785635Y-80773308D01*
X154779389Y-80749999D01*
X162381127Y-80749999D01*
X162381128Y-80750000D01*
X163344314Y-80750000D01*
X163339920Y-80754394D01*
X163287259Y-80845606D01*
X163260000Y-80947339D01*
X163260000Y-81052661D01*
X163287259Y-81154394D01*
X163339920Y-81245606D01*
X163344314Y-81250000D01*
X162381128Y-81250000D01*
X162433730Y-81446317D01*
X162433734Y-81446326D01*
X162529865Y-81652482D01*
X162660342Y-81838820D01*
X162821179Y-81999657D01*
X163007517Y-82130134D01*
X163213673Y-82226265D01*
X163213682Y-82226269D01*
X163409999Y-82278872D01*
X163410000Y-82278871D01*
X163410000Y-81315686D01*
X163414394Y-81320080D01*
X163505606Y-81372741D01*
X163607339Y-81400000D01*
X163712661Y-81400000D01*
X163814394Y-81372741D01*
X163905606Y-81320080D01*
X163910000Y-81315686D01*
X163910000Y-82278872D01*
X164106317Y-82226269D01*
X164106326Y-82226265D01*
X164312482Y-82130134D01*
X164498820Y-81999657D01*
X164659657Y-81838820D01*
X164790134Y-81652482D01*
X164886265Y-81446326D01*
X164886269Y-81446317D01*
X164938872Y-81250000D01*
X163975686Y-81250000D01*
X163980080Y-81245606D01*
X164032741Y-81154394D01*
X164060000Y-81052661D01*
X164060000Y-80947339D01*
X164032741Y-80845606D01*
X163980080Y-80754394D01*
X163975686Y-80750000D01*
X164938872Y-80750000D01*
X164938872Y-80749999D01*
X164886269Y-80553682D01*
X164886265Y-80553673D01*
X164790134Y-80347517D01*
X164659657Y-80161179D01*
X164498820Y-80000342D01*
X164312482Y-79869865D01*
X164106328Y-79773734D01*
X163910000Y-79721127D01*
X163910000Y-80684314D01*
X163905606Y-80679920D01*
X163814394Y-80627259D01*
X163712661Y-80600000D01*
X163607339Y-80600000D01*
X163505606Y-80627259D01*
X163414394Y-80679920D01*
X163410000Y-80684314D01*
X163410000Y-79721127D01*
X163213671Y-79773734D01*
X163007517Y-79869865D01*
X162821179Y-80000342D01*
X162660342Y-80161179D01*
X162529865Y-80347517D01*
X162433734Y-80553673D01*
X162433730Y-80553682D01*
X162381127Y-80749999D01*
X154779389Y-80749999D01*
X154726739Y-80553504D01*
X154630568Y-80347266D01*
X154500047Y-80160861D01*
X154500045Y-80160858D01*
X154339141Y-79999954D01*
X154152734Y-79869432D01*
X154152732Y-79869431D01*
X153946497Y-79773261D01*
X153946488Y-79773258D01*
X153726697Y-79714366D01*
X153726693Y-79714365D01*
X153726692Y-79714365D01*
X153726691Y-79714364D01*
X153726686Y-79714364D01*
X153500002Y-79694532D01*
X153499998Y-79694532D01*
X153273313Y-79714364D01*
X153273302Y-79714366D01*
X153053511Y-79773258D01*
X153053502Y-79773261D01*
X152847267Y-79869431D01*
X152847265Y-79869432D01*
X152660858Y-79999954D01*
X152499954Y-80160858D01*
X152369432Y-80347265D01*
X152369431Y-80347267D01*
X152273261Y-80553502D01*
X152273258Y-80553511D01*
X152214366Y-80773302D01*
X152214364Y-80773313D01*
X152194532Y-80999998D01*
X152194532Y-81000001D01*
X120500500Y-81000001D01*
X120500500Y-79340001D01*
X147194532Y-79340001D01*
X147214364Y-79566686D01*
X147214366Y-79566697D01*
X147273258Y-79786488D01*
X147273261Y-79786497D01*
X147369431Y-79992732D01*
X147369432Y-79992734D01*
X147499954Y-80179141D01*
X147660858Y-80340045D01*
X147660861Y-80340047D01*
X147847266Y-80470568D01*
X148053504Y-80566739D01*
X148273308Y-80625635D01*
X148435230Y-80639801D01*
X148499998Y-80645468D01*
X148500000Y-80645468D01*
X148500002Y-80645468D01*
X148556673Y-80640509D01*
X148726692Y-80625635D01*
X148946496Y-80566739D01*
X149152734Y-80470568D01*
X149339139Y-80340047D01*
X149500047Y-80179139D01*
X149630568Y-79992734D01*
X149726739Y-79786496D01*
X149785635Y-79566692D01*
X149805468Y-79340000D01*
X149785635Y-79113308D01*
X149726739Y-78893504D01*
X149630568Y-78687266D01*
X149500047Y-78500861D01*
X149500045Y-78500858D01*
X149339141Y-78339954D01*
X149152734Y-78209432D01*
X149152732Y-78209431D01*
X148946497Y-78113261D01*
X148946488Y-78113258D01*
X148726697Y-78054366D01*
X148726693Y-78054365D01*
X148726692Y-78054365D01*
X148726691Y-78054364D01*
X148726686Y-78054364D01*
X148500002Y-78034532D01*
X148499998Y-78034532D01*
X148273313Y-78054364D01*
X148273302Y-78054366D01*
X148053511Y-78113258D01*
X148053502Y-78113261D01*
X147847267Y-78209431D01*
X147847265Y-78209432D01*
X147660858Y-78339954D01*
X147499954Y-78500858D01*
X147369432Y-78687265D01*
X147369431Y-78687267D01*
X147273261Y-78893502D01*
X147273258Y-78893511D01*
X147214366Y-79113302D01*
X147214364Y-79113313D01*
X147194532Y-79339998D01*
X147194532Y-79340001D01*
X120500500Y-79340001D01*
X120500500Y-75080000D01*
X134144341Y-75080000D01*
X134164936Y-75315403D01*
X134164938Y-75315413D01*
X134226094Y-75543655D01*
X134226096Y-75543659D01*
X134226097Y-75543663D01*
X134313592Y-75731297D01*
X134325965Y-75757830D01*
X134325967Y-75757834D01*
X134434281Y-75912521D01*
X134461501Y-75951396D01*
X134461506Y-75951402D01*
X134583818Y-76073714D01*
X134617303Y-76135037D01*
X134612319Y-76204729D01*
X134570447Y-76260662D01*
X134539471Y-76277577D01*
X134407912Y-76326646D01*
X134407906Y-76326649D01*
X134292812Y-76412809D01*
X134292809Y-76412812D01*
X134206649Y-76527906D01*
X134206645Y-76527913D01*
X134156403Y-76662620D01*
X134156401Y-76662627D01*
X134150000Y-76722155D01*
X134150000Y-77370000D01*
X135066988Y-77370000D01*
X135034075Y-77427007D01*
X135000000Y-77554174D01*
X135000000Y-77685826D01*
X135034075Y-77812993D01*
X135066988Y-77870000D01*
X134150000Y-77870000D01*
X134150000Y-78517844D01*
X134156401Y-78577372D01*
X134156403Y-78577379D01*
X134206645Y-78712086D01*
X134206649Y-78712093D01*
X134292809Y-78827187D01*
X134292812Y-78827190D01*
X134407906Y-78913350D01*
X134407913Y-78913354D01*
X134542620Y-78963596D01*
X134542627Y-78963598D01*
X134602155Y-78969999D01*
X134602172Y-78970000D01*
X135250000Y-78970000D01*
X135250000Y-78053012D01*
X135307007Y-78085925D01*
X135434174Y-78120000D01*
X135565826Y-78120000D01*
X135692993Y-78085925D01*
X135750000Y-78053012D01*
X135750000Y-78970000D01*
X136397828Y-78970000D01*
X136397844Y-78969999D01*
X136457372Y-78963598D01*
X136457379Y-78963596D01*
X136592086Y-78913354D01*
X136592093Y-78913350D01*
X136707187Y-78827190D01*
X136707190Y-78827187D01*
X136793350Y-78712093D01*
X136793354Y-78712086D01*
X136843596Y-78577379D01*
X136843598Y-78577372D01*
X136849999Y-78517844D01*
X136850000Y-78517827D01*
X136850000Y-77870000D01*
X135933012Y-77870000D01*
X135965925Y-77812993D01*
X136000000Y-77685826D01*
X136000000Y-77554174D01*
X135965925Y-77427007D01*
X135933012Y-77370000D01*
X136850000Y-77370000D01*
X136850000Y-76722172D01*
X136849999Y-76722155D01*
X136843598Y-76662627D01*
X136843596Y-76662620D01*
X136793354Y-76527913D01*
X136793350Y-76527906D01*
X136733435Y-76447870D01*
X141099500Y-76447870D01*
X141099501Y-76447876D01*
X141105908Y-76507483D01*
X141156202Y-76642328D01*
X141156206Y-76642335D01*
X141242452Y-76757544D01*
X141242455Y-76757547D01*
X141357664Y-76843793D01*
X141357671Y-76843797D01*
X141492517Y-76894091D01*
X141492516Y-76894091D01*
X141499444Y-76894835D01*
X141552127Y-76900500D01*
X143447872Y-76900499D01*
X143507483Y-76894091D01*
X143642331Y-76843796D01*
X143757546Y-76757546D01*
X143843796Y-76642331D01*
X143872455Y-76565493D01*
X143914326Y-76509559D01*
X143979790Y-76485141D01*
X144048063Y-76499992D01*
X144079866Y-76524843D01*
X144082693Y-76527913D01*
X144088215Y-76533912D01*
X144088222Y-76533918D01*
X144271365Y-76676464D01*
X144271371Y-76676468D01*
X144271374Y-76676470D01*
X144475497Y-76786936D01*
X144589487Y-76826068D01*
X144695015Y-76862297D01*
X144695017Y-76862297D01*
X144695019Y-76862298D01*
X144923951Y-76900500D01*
X144923952Y-76900500D01*
X145156048Y-76900500D01*
X145156049Y-76900500D01*
X145384981Y-76862298D01*
X145604503Y-76786936D01*
X145808626Y-76676470D01*
X145991784Y-76533913D01*
X146148979Y-76363153D01*
X146275924Y-76168849D01*
X146369157Y-75956300D01*
X146426134Y-75731305D01*
X146441682Y-75543664D01*
X146445300Y-75500006D01*
X146445300Y-75499993D01*
X146426135Y-75268702D01*
X146426133Y-75268691D01*
X146369157Y-75043699D01*
X146275924Y-74831151D01*
X146148983Y-74636852D01*
X146148980Y-74636849D01*
X146148979Y-74636847D01*
X145991784Y-74466087D01*
X145991779Y-74466083D01*
X145991777Y-74466081D01*
X145808634Y-74323535D01*
X145808628Y-74323531D01*
X145604504Y-74213064D01*
X145604495Y-74213061D01*
X145384984Y-74137702D01*
X145194450Y-74105908D01*
X145156049Y-74099500D01*
X144923951Y-74099500D01*
X144885550Y-74105908D01*
X144695015Y-74137702D01*
X144475504Y-74213061D01*
X144475495Y-74213064D01*
X144271371Y-74323531D01*
X144271365Y-74323535D01*
X144088222Y-74466081D01*
X144088218Y-74466085D01*
X144079866Y-74475158D01*
X144019979Y-74511148D01*
X143950141Y-74509047D01*
X143892525Y-74469522D01*
X143872455Y-74434507D01*
X143843797Y-74357671D01*
X143843793Y-74357664D01*
X143757547Y-74242455D01*
X143757544Y-74242452D01*
X143642335Y-74156206D01*
X143642328Y-74156202D01*
X143507482Y-74105908D01*
X143507483Y-74105908D01*
X143447883Y-74099501D01*
X143447881Y-74099500D01*
X143447873Y-74099500D01*
X143447864Y-74099500D01*
X141552129Y-74099500D01*
X141552123Y-74099501D01*
X141492516Y-74105908D01*
X141357671Y-74156202D01*
X141357664Y-74156206D01*
X141242455Y-74242452D01*
X141242452Y-74242455D01*
X141156206Y-74357664D01*
X141156202Y-74357671D01*
X141105908Y-74492517D01*
X141099501Y-74552116D01*
X141099500Y-74552135D01*
X141099500Y-76447870D01*
X136733435Y-76447870D01*
X136707190Y-76412812D01*
X136707187Y-76412809D01*
X136592093Y-76326649D01*
X136592088Y-76326646D01*
X136460528Y-76277577D01*
X136404595Y-76235705D01*
X136380178Y-76170241D01*
X136395030Y-76101968D01*
X136416175Y-76073720D01*
X136538495Y-75951401D01*
X136674035Y-75757830D01*
X136773903Y-75543663D01*
X136835063Y-75315408D01*
X136855659Y-75080000D01*
X136835063Y-74844592D01*
X136773903Y-74616337D01*
X136674035Y-74402171D01*
X136642875Y-74357669D01*
X136538494Y-74208597D01*
X136371402Y-74041506D01*
X136371396Y-74041501D01*
X136185842Y-73911575D01*
X136142217Y-73856998D01*
X136135023Y-73787500D01*
X136166546Y-73725145D01*
X136185842Y-73708425D01*
X136208026Y-73692891D01*
X136371401Y-73578495D01*
X136538495Y-73411401D01*
X136674035Y-73217830D01*
X136773903Y-73003663D01*
X136835063Y-72775408D01*
X136855659Y-72540000D01*
X136835063Y-72304592D01*
X136773903Y-72076337D01*
X136674035Y-71862171D01*
X136538495Y-71668599D01*
X136538494Y-71668597D01*
X136371402Y-71501506D01*
X136371396Y-71501501D01*
X136185842Y-71371575D01*
X136142217Y-71316998D01*
X136135023Y-71247500D01*
X136166546Y-71185145D01*
X136185842Y-71168425D01*
X136208026Y-71152891D01*
X136371401Y-71038495D01*
X136538495Y-70871401D01*
X136674035Y-70677830D01*
X136773903Y-70463663D01*
X136835063Y-70235408D01*
X136855659Y-70000000D01*
X136835063Y-69764592D01*
X136773903Y-69536337D01*
X136674035Y-69322171D01*
X136538495Y-69128599D01*
X136538494Y-69128597D01*
X136371402Y-68961506D01*
X136371395Y-68961501D01*
X136177834Y-68825967D01*
X136177830Y-68825965D01*
X136177828Y-68825964D01*
X135963663Y-68726097D01*
X135963659Y-68726096D01*
X135963655Y-68726094D01*
X135735413Y-68664938D01*
X135735403Y-68664936D01*
X135500001Y-68644341D01*
X135499999Y-68644341D01*
X135264596Y-68664936D01*
X135264586Y-68664938D01*
X135036344Y-68726094D01*
X135036335Y-68726098D01*
X134822171Y-68825964D01*
X134822169Y-68825965D01*
X134628597Y-68961505D01*
X134461505Y-69128597D01*
X134325965Y-69322169D01*
X134325964Y-69322171D01*
X134226098Y-69536335D01*
X134226094Y-69536344D01*
X134164938Y-69764586D01*
X134164936Y-69764596D01*
X134144341Y-69999999D01*
X134144341Y-70000000D01*
X134164936Y-70235403D01*
X134164938Y-70235413D01*
X134226094Y-70463655D01*
X134226096Y-70463659D01*
X134226097Y-70463663D01*
X134325965Y-70677830D01*
X134325967Y-70677834D01*
X134461501Y-70871395D01*
X134461506Y-70871402D01*
X134628597Y-71038493D01*
X134628603Y-71038498D01*
X134814158Y-71168425D01*
X134857783Y-71223002D01*
X134864977Y-71292500D01*
X134833454Y-71354855D01*
X134814158Y-71371575D01*
X134628597Y-71501505D01*
X134461505Y-71668597D01*
X134325965Y-71862169D01*
X134325964Y-71862171D01*
X134226098Y-72076335D01*
X134226094Y-72076344D01*
X134164938Y-72304586D01*
X134164936Y-72304596D01*
X134144341Y-72539999D01*
X134144341Y-72540000D01*
X134164936Y-72775403D01*
X134164938Y-72775413D01*
X134226094Y-73003655D01*
X134226096Y-73003659D01*
X134226097Y-73003663D01*
X134325965Y-73217830D01*
X134325967Y-73217834D01*
X134461501Y-73411395D01*
X134461506Y-73411402D01*
X134628597Y-73578493D01*
X134628603Y-73578498D01*
X134814158Y-73708425D01*
X134857783Y-73763002D01*
X134864977Y-73832500D01*
X134833454Y-73894855D01*
X134814158Y-73911575D01*
X134628597Y-74041505D01*
X134461505Y-74208597D01*
X134325965Y-74402169D01*
X134325964Y-74402171D01*
X134226098Y-74616335D01*
X134226094Y-74616344D01*
X134164938Y-74844586D01*
X134164936Y-74844596D01*
X134144341Y-75079999D01*
X134144341Y-75080000D01*
X120500500Y-75080000D01*
X120500500Y-65624500D01*
X120520185Y-65557461D01*
X120572989Y-65511706D01*
X120624500Y-65500500D01*
X175375500Y-65500500D01*
X175442539Y-65520185D01*
G37*
G04 #@! TD.AperFunction*
M02*
