G04 #@! TF.GenerationSoftware,KiCad,Pcbnew,8.0.1*
G04 #@! TF.CreationDate,2024-05-12T14:06:37-04:00*
G04 #@! TF.ProjectId,recyclobot,72656379-636c-46f6-926f-742e6b696361,rev?*
G04 #@! TF.SameCoordinates,Original*
G04 #@! TF.FileFunction,Legend,Top*
G04 #@! TF.FilePolarity,Positive*
%FSLAX46Y46*%
G04 Gerber Fmt 4.6, Leading zero omitted, Abs format (unit mm)*
G04 Created by KiCad (PCBNEW 8.0.1) date 2024-05-12 14:06:37*
%MOMM*%
%LPD*%
G01*
G04 APERTURE LIST*
G04 Aperture macros list*
%AMRoundRect*
0 Rectangle with rounded corners*
0 $1 Rounding radius*
0 $2 $3 $4 $5 $6 $7 $8 $9 X,Y pos of 4 corners*
0 Add a 4 corners polygon primitive as box body*
4,1,4,$2,$3,$4,$5,$6,$7,$8,$9,$2,$3,0*
0 Add four circle primitives for the rounded corners*
1,1,$1+$1,$2,$3*
1,1,$1+$1,$4,$5*
1,1,$1+$1,$6,$7*
1,1,$1+$1,$8,$9*
0 Add four rect primitives between the rounded corners*
20,1,$1+$1,$2,$3,$4,$5,0*
20,1,$1+$1,$4,$5,$6,$7,0*
20,1,$1+$1,$6,$7,$8,$9,0*
20,1,$1+$1,$8,$9,$2,$3,0*%
G04 Aperture macros list end*
%ADD10C,0.100000*%
%ADD11C,0.150000*%
%ADD12C,0.120000*%
%ADD13R,1.700000X1.700000*%
%ADD14O,1.700000X1.700000*%
%ADD15R,1.500000X1.050000*%
%ADD16O,1.500000X1.050000*%
%ADD17RoundRect,0.150000X-0.150000X0.800000X-0.150000X-0.800000X0.150000X-0.800000X0.150000X0.800000X0*%
%ADD18C,1.397000*%
%ADD19O,1.600000X1.600000*%
%ADD20C,1.600000*%
%ADD21R,1.800000X1.800000*%
%ADD22C,1.800000*%
G04 APERTURE END LIST*
D10*
X134875312Y-63250038D02*
X134541979Y-62297657D01*
X134303884Y-63250038D02*
X134303884Y-61250038D01*
X134303884Y-61250038D02*
X134684836Y-61250038D01*
X134684836Y-61250038D02*
X134780074Y-61345276D01*
X134780074Y-61345276D02*
X134827693Y-61440514D01*
X134827693Y-61440514D02*
X134875312Y-61630990D01*
X134875312Y-61630990D02*
X134875312Y-61916704D01*
X134875312Y-61916704D02*
X134827693Y-62107180D01*
X134827693Y-62107180D02*
X134780074Y-62202419D01*
X134780074Y-62202419D02*
X134684836Y-62297657D01*
X134684836Y-62297657D02*
X134303884Y-62297657D01*
X135303884Y-62202419D02*
X135637217Y-62202419D01*
X135780074Y-63250038D02*
X135303884Y-63250038D01*
X135303884Y-63250038D02*
X135303884Y-61250038D01*
X135303884Y-61250038D02*
X135780074Y-61250038D01*
X136780074Y-63059561D02*
X136732455Y-63154800D01*
X136732455Y-63154800D02*
X136589598Y-63250038D01*
X136589598Y-63250038D02*
X136494360Y-63250038D01*
X136494360Y-63250038D02*
X136351503Y-63154800D01*
X136351503Y-63154800D02*
X136256265Y-62964323D01*
X136256265Y-62964323D02*
X136208646Y-62773847D01*
X136208646Y-62773847D02*
X136161027Y-62392895D01*
X136161027Y-62392895D02*
X136161027Y-62107180D01*
X136161027Y-62107180D02*
X136208646Y-61726228D01*
X136208646Y-61726228D02*
X136256265Y-61535752D01*
X136256265Y-61535752D02*
X136351503Y-61345276D01*
X136351503Y-61345276D02*
X136494360Y-61250038D01*
X136494360Y-61250038D02*
X136589598Y-61250038D01*
X136589598Y-61250038D02*
X136732455Y-61345276D01*
X136732455Y-61345276D02*
X136780074Y-61440514D01*
X137399122Y-62297657D02*
X137399122Y-63250038D01*
X137065789Y-61250038D02*
X137399122Y-62297657D01*
X137399122Y-62297657D02*
X137732455Y-61250038D01*
X138637217Y-63059561D02*
X138589598Y-63154800D01*
X138589598Y-63154800D02*
X138446741Y-63250038D01*
X138446741Y-63250038D02*
X138351503Y-63250038D01*
X138351503Y-63250038D02*
X138208646Y-63154800D01*
X138208646Y-63154800D02*
X138113408Y-62964323D01*
X138113408Y-62964323D02*
X138065789Y-62773847D01*
X138065789Y-62773847D02*
X138018170Y-62392895D01*
X138018170Y-62392895D02*
X138018170Y-62107180D01*
X138018170Y-62107180D02*
X138065789Y-61726228D01*
X138065789Y-61726228D02*
X138113408Y-61535752D01*
X138113408Y-61535752D02*
X138208646Y-61345276D01*
X138208646Y-61345276D02*
X138351503Y-61250038D01*
X138351503Y-61250038D02*
X138446741Y-61250038D01*
X138446741Y-61250038D02*
X138589598Y-61345276D01*
X138589598Y-61345276D02*
X138637217Y-61440514D01*
X139541979Y-63250038D02*
X139065789Y-63250038D01*
X139065789Y-63250038D02*
X139065789Y-61250038D01*
X140065789Y-61250038D02*
X140256265Y-61250038D01*
X140256265Y-61250038D02*
X140351503Y-61345276D01*
X140351503Y-61345276D02*
X140446741Y-61535752D01*
X140446741Y-61535752D02*
X140494360Y-61916704D01*
X140494360Y-61916704D02*
X140494360Y-62583371D01*
X140494360Y-62583371D02*
X140446741Y-62964323D01*
X140446741Y-62964323D02*
X140351503Y-63154800D01*
X140351503Y-63154800D02*
X140256265Y-63250038D01*
X140256265Y-63250038D02*
X140065789Y-63250038D01*
X140065789Y-63250038D02*
X139970551Y-63154800D01*
X139970551Y-63154800D02*
X139875313Y-62964323D01*
X139875313Y-62964323D02*
X139827694Y-62583371D01*
X139827694Y-62583371D02*
X139827694Y-61916704D01*
X139827694Y-61916704D02*
X139875313Y-61535752D01*
X139875313Y-61535752D02*
X139970551Y-61345276D01*
X139970551Y-61345276D02*
X140065789Y-61250038D01*
X141256265Y-62202419D02*
X141399122Y-62297657D01*
X141399122Y-62297657D02*
X141446741Y-62392895D01*
X141446741Y-62392895D02*
X141494360Y-62583371D01*
X141494360Y-62583371D02*
X141494360Y-62869085D01*
X141494360Y-62869085D02*
X141446741Y-63059561D01*
X141446741Y-63059561D02*
X141399122Y-63154800D01*
X141399122Y-63154800D02*
X141303884Y-63250038D01*
X141303884Y-63250038D02*
X140922932Y-63250038D01*
X140922932Y-63250038D02*
X140922932Y-61250038D01*
X140922932Y-61250038D02*
X141256265Y-61250038D01*
X141256265Y-61250038D02*
X141351503Y-61345276D01*
X141351503Y-61345276D02*
X141399122Y-61440514D01*
X141399122Y-61440514D02*
X141446741Y-61630990D01*
X141446741Y-61630990D02*
X141446741Y-61821466D01*
X141446741Y-61821466D02*
X141399122Y-62011942D01*
X141399122Y-62011942D02*
X141351503Y-62107180D01*
X141351503Y-62107180D02*
X141256265Y-62202419D01*
X141256265Y-62202419D02*
X140922932Y-62202419D01*
X142113408Y-61250038D02*
X142303884Y-61250038D01*
X142303884Y-61250038D02*
X142399122Y-61345276D01*
X142399122Y-61345276D02*
X142494360Y-61535752D01*
X142494360Y-61535752D02*
X142541979Y-61916704D01*
X142541979Y-61916704D02*
X142541979Y-62583371D01*
X142541979Y-62583371D02*
X142494360Y-62964323D01*
X142494360Y-62964323D02*
X142399122Y-63154800D01*
X142399122Y-63154800D02*
X142303884Y-63250038D01*
X142303884Y-63250038D02*
X142113408Y-63250038D01*
X142113408Y-63250038D02*
X142018170Y-63154800D01*
X142018170Y-63154800D02*
X141922932Y-62964323D01*
X141922932Y-62964323D02*
X141875313Y-62583371D01*
X141875313Y-62583371D02*
X141875313Y-61916704D01*
X141875313Y-61916704D02*
X141922932Y-61535752D01*
X141922932Y-61535752D02*
X142018170Y-61345276D01*
X142018170Y-61345276D02*
X142113408Y-61250038D01*
X142827694Y-61250038D02*
X143399122Y-61250038D01*
X143113408Y-63250038D02*
X143113408Y-61250038D01*
D11*
X173666666Y-72104819D02*
X173666666Y-72819104D01*
X173666666Y-72819104D02*
X173619047Y-72961961D01*
X173619047Y-72961961D02*
X173523809Y-73057200D01*
X173523809Y-73057200D02*
X173380952Y-73104819D01*
X173380952Y-73104819D02*
X173285714Y-73104819D01*
X174095238Y-72200057D02*
X174142857Y-72152438D01*
X174142857Y-72152438D02*
X174238095Y-72104819D01*
X174238095Y-72104819D02*
X174476190Y-72104819D01*
X174476190Y-72104819D02*
X174571428Y-72152438D01*
X174571428Y-72152438D02*
X174619047Y-72200057D01*
X174619047Y-72200057D02*
X174666666Y-72295295D01*
X174666666Y-72295295D02*
X174666666Y-72390533D01*
X174666666Y-72390533D02*
X174619047Y-72533390D01*
X174619047Y-72533390D02*
X174047619Y-73104819D01*
X174047619Y-73104819D02*
X174666666Y-73104819D01*
X164666666Y-69949819D02*
X164666666Y-70664104D01*
X164666666Y-70664104D02*
X164619047Y-70806961D01*
X164619047Y-70806961D02*
X164523809Y-70902200D01*
X164523809Y-70902200D02*
X164380952Y-70949819D01*
X164380952Y-70949819D02*
X164285714Y-70949819D01*
X165666666Y-70949819D02*
X165095238Y-70949819D01*
X165380952Y-70949819D02*
X165380952Y-69949819D01*
X165380952Y-69949819D02*
X165285714Y-70092676D01*
X165285714Y-70092676D02*
X165190476Y-70187914D01*
X165190476Y-70187914D02*
X165095238Y-70235533D01*
X136394819Y-85991904D02*
X137204342Y-85991904D01*
X137204342Y-85991904D02*
X137299580Y-85944285D01*
X137299580Y-85944285D02*
X137347200Y-85896666D01*
X137347200Y-85896666D02*
X137394819Y-85801428D01*
X137394819Y-85801428D02*
X137394819Y-85610952D01*
X137394819Y-85610952D02*
X137347200Y-85515714D01*
X137347200Y-85515714D02*
X137299580Y-85468095D01*
X137299580Y-85468095D02*
X137204342Y-85420476D01*
X137204342Y-85420476D02*
X136394819Y-85420476D01*
X136490057Y-84991904D02*
X136442438Y-84944285D01*
X136442438Y-84944285D02*
X136394819Y-84849047D01*
X136394819Y-84849047D02*
X136394819Y-84610952D01*
X136394819Y-84610952D02*
X136442438Y-84515714D01*
X136442438Y-84515714D02*
X136490057Y-84468095D01*
X136490057Y-84468095D02*
X136585295Y-84420476D01*
X136585295Y-84420476D02*
X136680533Y-84420476D01*
X136680533Y-84420476D02*
X136823390Y-84468095D01*
X136823390Y-84468095D02*
X137394819Y-85039523D01*
X137394819Y-85039523D02*
X137394819Y-84420476D01*
X162804819Y-85261904D02*
X163614342Y-85261904D01*
X163614342Y-85261904D02*
X163709580Y-85214285D01*
X163709580Y-85214285D02*
X163757200Y-85166666D01*
X163757200Y-85166666D02*
X163804819Y-85071428D01*
X163804819Y-85071428D02*
X163804819Y-84880952D01*
X163804819Y-84880952D02*
X163757200Y-84785714D01*
X163757200Y-84785714D02*
X163709580Y-84738095D01*
X163709580Y-84738095D02*
X163614342Y-84690476D01*
X163614342Y-84690476D02*
X162804819Y-84690476D01*
X163804819Y-83690476D02*
X163804819Y-84261904D01*
X163804819Y-83976190D02*
X162804819Y-83976190D01*
X162804819Y-83976190D02*
X162947676Y-84071428D01*
X162947676Y-84071428D02*
X163042914Y-84166666D01*
X163042914Y-84166666D02*
X163090533Y-84261904D01*
X168476667Y-102747200D02*
X168619524Y-102794819D01*
X168619524Y-102794819D02*
X168857619Y-102794819D01*
X168857619Y-102794819D02*
X168952857Y-102747200D01*
X168952857Y-102747200D02*
X169000476Y-102699580D01*
X169000476Y-102699580D02*
X169048095Y-102604342D01*
X169048095Y-102604342D02*
X169048095Y-102509104D01*
X169048095Y-102509104D02*
X169000476Y-102413866D01*
X169000476Y-102413866D02*
X168952857Y-102366247D01*
X168952857Y-102366247D02*
X168857619Y-102318628D01*
X168857619Y-102318628D02*
X168667143Y-102271009D01*
X168667143Y-102271009D02*
X168571905Y-102223390D01*
X168571905Y-102223390D02*
X168524286Y-102175771D01*
X168524286Y-102175771D02*
X168476667Y-102080533D01*
X168476667Y-102080533D02*
X168476667Y-101985295D01*
X168476667Y-101985295D02*
X168524286Y-101890057D01*
X168524286Y-101890057D02*
X168571905Y-101842438D01*
X168571905Y-101842438D02*
X168667143Y-101794819D01*
X168667143Y-101794819D02*
X168905238Y-101794819D01*
X168905238Y-101794819D02*
X169048095Y-101842438D01*
X169381429Y-101794819D02*
X169619524Y-102794819D01*
X169619524Y-102794819D02*
X169810000Y-102080533D01*
X169810000Y-102080533D02*
X170000476Y-102794819D01*
X170000476Y-102794819D02*
X170238572Y-101794819D01*
X171048095Y-102128152D02*
X171048095Y-102794819D01*
X170810000Y-101747200D02*
X170571905Y-102461485D01*
X170571905Y-102461485D02*
X171190952Y-102461485D01*
X153166667Y-93787200D02*
X153309524Y-93834819D01*
X153309524Y-93834819D02*
X153547619Y-93834819D01*
X153547619Y-93834819D02*
X153642857Y-93787200D01*
X153642857Y-93787200D02*
X153690476Y-93739580D01*
X153690476Y-93739580D02*
X153738095Y-93644342D01*
X153738095Y-93644342D02*
X153738095Y-93549104D01*
X153738095Y-93549104D02*
X153690476Y-93453866D01*
X153690476Y-93453866D02*
X153642857Y-93406247D01*
X153642857Y-93406247D02*
X153547619Y-93358628D01*
X153547619Y-93358628D02*
X153357143Y-93311009D01*
X153357143Y-93311009D02*
X153261905Y-93263390D01*
X153261905Y-93263390D02*
X153214286Y-93215771D01*
X153214286Y-93215771D02*
X153166667Y-93120533D01*
X153166667Y-93120533D02*
X153166667Y-93025295D01*
X153166667Y-93025295D02*
X153214286Y-92930057D01*
X153214286Y-92930057D02*
X153261905Y-92882438D01*
X153261905Y-92882438D02*
X153357143Y-92834819D01*
X153357143Y-92834819D02*
X153595238Y-92834819D01*
X153595238Y-92834819D02*
X153738095Y-92882438D01*
X154071429Y-92834819D02*
X154309524Y-93834819D01*
X154309524Y-93834819D02*
X154500000Y-93120533D01*
X154500000Y-93120533D02*
X154690476Y-93834819D01*
X154690476Y-93834819D02*
X154928572Y-92834819D01*
X155214286Y-92834819D02*
X155833333Y-92834819D01*
X155833333Y-92834819D02*
X155500000Y-93215771D01*
X155500000Y-93215771D02*
X155642857Y-93215771D01*
X155642857Y-93215771D02*
X155738095Y-93263390D01*
X155738095Y-93263390D02*
X155785714Y-93311009D01*
X155785714Y-93311009D02*
X155833333Y-93406247D01*
X155833333Y-93406247D02*
X155833333Y-93644342D01*
X155833333Y-93644342D02*
X155785714Y-93739580D01*
X155785714Y-93739580D02*
X155738095Y-93787200D01*
X155738095Y-93787200D02*
X155642857Y-93834819D01*
X155642857Y-93834819D02*
X155357143Y-93834819D01*
X155357143Y-93834819D02*
X155261905Y-93787200D01*
X155261905Y-93787200D02*
X155214286Y-93739580D01*
X154976667Y-110327200D02*
X155119524Y-110374819D01*
X155119524Y-110374819D02*
X155357619Y-110374819D01*
X155357619Y-110374819D02*
X155452857Y-110327200D01*
X155452857Y-110327200D02*
X155500476Y-110279580D01*
X155500476Y-110279580D02*
X155548095Y-110184342D01*
X155548095Y-110184342D02*
X155548095Y-110089104D01*
X155548095Y-110089104D02*
X155500476Y-109993866D01*
X155500476Y-109993866D02*
X155452857Y-109946247D01*
X155452857Y-109946247D02*
X155357619Y-109898628D01*
X155357619Y-109898628D02*
X155167143Y-109851009D01*
X155167143Y-109851009D02*
X155071905Y-109803390D01*
X155071905Y-109803390D02*
X155024286Y-109755771D01*
X155024286Y-109755771D02*
X154976667Y-109660533D01*
X154976667Y-109660533D02*
X154976667Y-109565295D01*
X154976667Y-109565295D02*
X155024286Y-109470057D01*
X155024286Y-109470057D02*
X155071905Y-109422438D01*
X155071905Y-109422438D02*
X155167143Y-109374819D01*
X155167143Y-109374819D02*
X155405238Y-109374819D01*
X155405238Y-109374819D02*
X155548095Y-109422438D01*
X155881429Y-109374819D02*
X156119524Y-110374819D01*
X156119524Y-110374819D02*
X156310000Y-109660533D01*
X156310000Y-109660533D02*
X156500476Y-110374819D01*
X156500476Y-110374819D02*
X156738572Y-109374819D01*
X157071905Y-109470057D02*
X157119524Y-109422438D01*
X157119524Y-109422438D02*
X157214762Y-109374819D01*
X157214762Y-109374819D02*
X157452857Y-109374819D01*
X157452857Y-109374819D02*
X157548095Y-109422438D01*
X157548095Y-109422438D02*
X157595714Y-109470057D01*
X157595714Y-109470057D02*
X157643333Y-109565295D01*
X157643333Y-109565295D02*
X157643333Y-109660533D01*
X157643333Y-109660533D02*
X157595714Y-109803390D01*
X157595714Y-109803390D02*
X157024286Y-110374819D01*
X157024286Y-110374819D02*
X157643333Y-110374819D01*
X139166667Y-102287200D02*
X139309524Y-102334819D01*
X139309524Y-102334819D02*
X139547619Y-102334819D01*
X139547619Y-102334819D02*
X139642857Y-102287200D01*
X139642857Y-102287200D02*
X139690476Y-102239580D01*
X139690476Y-102239580D02*
X139738095Y-102144342D01*
X139738095Y-102144342D02*
X139738095Y-102049104D01*
X139738095Y-102049104D02*
X139690476Y-101953866D01*
X139690476Y-101953866D02*
X139642857Y-101906247D01*
X139642857Y-101906247D02*
X139547619Y-101858628D01*
X139547619Y-101858628D02*
X139357143Y-101811009D01*
X139357143Y-101811009D02*
X139261905Y-101763390D01*
X139261905Y-101763390D02*
X139214286Y-101715771D01*
X139214286Y-101715771D02*
X139166667Y-101620533D01*
X139166667Y-101620533D02*
X139166667Y-101525295D01*
X139166667Y-101525295D02*
X139214286Y-101430057D01*
X139214286Y-101430057D02*
X139261905Y-101382438D01*
X139261905Y-101382438D02*
X139357143Y-101334819D01*
X139357143Y-101334819D02*
X139595238Y-101334819D01*
X139595238Y-101334819D02*
X139738095Y-101382438D01*
X140071429Y-101334819D02*
X140309524Y-102334819D01*
X140309524Y-102334819D02*
X140500000Y-101620533D01*
X140500000Y-101620533D02*
X140690476Y-102334819D01*
X140690476Y-102334819D02*
X140928572Y-101334819D01*
X141833333Y-102334819D02*
X141261905Y-102334819D01*
X141547619Y-102334819D02*
X141547619Y-101334819D01*
X141547619Y-101334819D02*
X141452381Y-101477676D01*
X141452381Y-101477676D02*
X141357143Y-101572914D01*
X141357143Y-101572914D02*
X141261905Y-101620533D01*
X139833333Y-70584819D02*
X139500000Y-70108628D01*
X139261905Y-70584819D02*
X139261905Y-69584819D01*
X139261905Y-69584819D02*
X139642857Y-69584819D01*
X139642857Y-69584819D02*
X139738095Y-69632438D01*
X139738095Y-69632438D02*
X139785714Y-69680057D01*
X139785714Y-69680057D02*
X139833333Y-69775295D01*
X139833333Y-69775295D02*
X139833333Y-69918152D01*
X139833333Y-69918152D02*
X139785714Y-70013390D01*
X139785714Y-70013390D02*
X139738095Y-70061009D01*
X139738095Y-70061009D02*
X139642857Y-70108628D01*
X139642857Y-70108628D02*
X139261905Y-70108628D01*
X140214286Y-69680057D02*
X140261905Y-69632438D01*
X140261905Y-69632438D02*
X140357143Y-69584819D01*
X140357143Y-69584819D02*
X140595238Y-69584819D01*
X140595238Y-69584819D02*
X140690476Y-69632438D01*
X140690476Y-69632438D02*
X140738095Y-69680057D01*
X140738095Y-69680057D02*
X140785714Y-69775295D01*
X140785714Y-69775295D02*
X140785714Y-69870533D01*
X140785714Y-69870533D02*
X140738095Y-70013390D01*
X140738095Y-70013390D02*
X140166667Y-70584819D01*
X140166667Y-70584819D02*
X140785714Y-70584819D01*
X175324819Y-93666666D02*
X174848628Y-93999999D01*
X175324819Y-94238094D02*
X174324819Y-94238094D01*
X174324819Y-94238094D02*
X174324819Y-93857142D01*
X174324819Y-93857142D02*
X174372438Y-93761904D01*
X174372438Y-93761904D02*
X174420057Y-93714285D01*
X174420057Y-93714285D02*
X174515295Y-93666666D01*
X174515295Y-93666666D02*
X174658152Y-93666666D01*
X174658152Y-93666666D02*
X174753390Y-93714285D01*
X174753390Y-93714285D02*
X174801009Y-93761904D01*
X174801009Y-93761904D02*
X174848628Y-93857142D01*
X174848628Y-93857142D02*
X174848628Y-94238094D01*
X175324819Y-92714285D02*
X175324819Y-93285713D01*
X175324819Y-92999999D02*
X174324819Y-92999999D01*
X174324819Y-92999999D02*
X174467676Y-93095237D01*
X174467676Y-93095237D02*
X174562914Y-93190475D01*
X174562914Y-93190475D02*
X174610533Y-93285713D01*
X151766905Y-72914819D02*
X151766905Y-71914819D01*
X151766905Y-71914819D02*
X152005000Y-71914819D01*
X152005000Y-71914819D02*
X152147857Y-71962438D01*
X152147857Y-71962438D02*
X152243095Y-72057676D01*
X152243095Y-72057676D02*
X152290714Y-72152914D01*
X152290714Y-72152914D02*
X152338333Y-72343390D01*
X152338333Y-72343390D02*
X152338333Y-72486247D01*
X152338333Y-72486247D02*
X152290714Y-72676723D01*
X152290714Y-72676723D02*
X152243095Y-72771961D01*
X152243095Y-72771961D02*
X152147857Y-72867200D01*
X152147857Y-72867200D02*
X152005000Y-72914819D01*
X152005000Y-72914819D02*
X151766905Y-72914819D01*
X153290714Y-72914819D02*
X152719286Y-72914819D01*
X153005000Y-72914819D02*
X153005000Y-71914819D01*
X153005000Y-71914819D02*
X152909762Y-72057676D01*
X152909762Y-72057676D02*
X152814524Y-72152914D01*
X152814524Y-72152914D02*
X152719286Y-72200533D01*
D12*
X172670000Y-76690000D02*
X172670000Y-81830000D01*
X172670000Y-76690000D02*
X175330000Y-76690000D01*
X172670000Y-81830000D02*
X175330000Y-81830000D01*
X174000000Y-74090000D02*
X175330000Y-74090000D01*
X175330000Y-74090000D02*
X175330000Y-75420000D01*
X175330000Y-76690000D02*
X175330000Y-81830000D01*
X166330000Y-66455000D02*
X166330000Y-63855000D01*
X166330000Y-66455000D02*
X163670000Y-66455000D01*
X166330000Y-63855000D02*
X163670000Y-63855000D01*
X165000000Y-69055000D02*
X163670000Y-69055000D01*
X163670000Y-69055000D02*
X163670000Y-67725000D01*
X163670000Y-66455000D02*
X163670000Y-63855000D01*
X142350000Y-87030000D02*
X142350000Y-83430000D01*
X142338478Y-87068478D02*
G75*
G02*
X137900000Y-85230000I-1838478J1838478D01*
G01*
X137900000Y-85230000D02*
G75*
G02*
X142338478Y-83391522I2600000J0D01*
G01*
X162510000Y-80640000D02*
X162275000Y-80640000D01*
X149490000Y-80640000D02*
X149725000Y-80640000D01*
X162510000Y-84500000D02*
X162510000Y-80640000D01*
X162510000Y-84500000D02*
X162510000Y-88360000D01*
X149490000Y-84500000D02*
X149490000Y-80640000D01*
X149490000Y-84500000D02*
X149490000Y-88360000D01*
X162510000Y-88360000D02*
X162275000Y-88360000D01*
X149490000Y-88360000D02*
X149725000Y-88360000D01*
X162745000Y-80190000D02*
X162275000Y-79850000D01*
X162745000Y-79510000D01*
X162745000Y-80190000D01*
G36*
X162745000Y-80190000D02*
G01*
X162275000Y-79850000D01*
X162745000Y-79510000D01*
X162745000Y-80190000D01*
G37*
X166000000Y-103150000D02*
X166000000Y-103450000D01*
X166000000Y-103150000D02*
X173620000Y-103150000D01*
X166000000Y-105390000D02*
X166000000Y-108530000D01*
X166000000Y-110470000D02*
X166000000Y-110770000D01*
X173620000Y-103150000D02*
X173620000Y-103450000D01*
X173620000Y-105390000D02*
X173620000Y-108530000D01*
X173620000Y-110470000D02*
X173620000Y-110770000D01*
X173620000Y-110770000D02*
X166000000Y-110770000D01*
X172350000Y-106960000D02*
G75*
G02*
X167270000Y-106960000I-2540000J0D01*
G01*
X167270000Y-106960000D02*
G75*
G02*
X172350000Y-106960000I2540000J0D01*
G01*
X150690000Y-94190000D02*
X150690000Y-94490000D01*
X150690000Y-94190000D02*
X158310000Y-94190000D01*
X150690000Y-96430000D02*
X150690000Y-99570000D01*
X150690000Y-101510000D02*
X150690000Y-101810000D01*
X158310000Y-94190000D02*
X158310000Y-94490000D01*
X158310000Y-96430000D02*
X158310000Y-99570000D01*
X158310000Y-101510000D02*
X158310000Y-101810000D01*
X158310000Y-101810000D02*
X150690000Y-101810000D01*
X157040000Y-98000000D02*
G75*
G02*
X151960000Y-98000000I-2540000J0D01*
G01*
X151960000Y-98000000D02*
G75*
G02*
X157040000Y-98000000I2540000J0D01*
G01*
X152500000Y-110730000D02*
X152500000Y-111030000D01*
X152500000Y-110730000D02*
X160120000Y-110730000D01*
X152500000Y-112970000D02*
X152500000Y-116110000D01*
X152500000Y-118050000D02*
X152500000Y-118350000D01*
X160120000Y-110730000D02*
X160120000Y-111030000D01*
X160120000Y-112970000D02*
X160120000Y-116110000D01*
X160120000Y-118050000D02*
X160120000Y-118350000D01*
X160120000Y-118350000D02*
X152500000Y-118350000D01*
X158850000Y-114540000D02*
G75*
G02*
X153770000Y-114540000I-2540000J0D01*
G01*
X153770000Y-114540000D02*
G75*
G02*
X158850000Y-114540000I2540000J0D01*
G01*
X136690000Y-102690000D02*
X136690000Y-102990000D01*
X136690000Y-102690000D02*
X144310000Y-102690000D01*
X136690000Y-104930000D02*
X136690000Y-108070000D01*
X136690000Y-110010000D02*
X136690000Y-110310000D01*
X144310000Y-102690000D02*
X144310000Y-102990000D01*
X144310000Y-104930000D02*
X144310000Y-108070000D01*
X144310000Y-110010000D02*
X144310000Y-110310000D01*
X144310000Y-110310000D02*
X136690000Y-110310000D01*
X143040000Y-106500000D02*
G75*
G02*
X137960000Y-106500000I-2540000J0D01*
G01*
X137960000Y-106500000D02*
G75*
G02*
X143040000Y-106500000I2540000J0D01*
G01*
X144040000Y-72500000D02*
X143270000Y-72500000D01*
X143270000Y-73870000D02*
X143270000Y-71130000D01*
X143270000Y-71130000D02*
X136730000Y-71130000D01*
X136730000Y-73870000D02*
X143270000Y-73870000D01*
X136730000Y-71130000D02*
X136730000Y-73870000D01*
X135960000Y-72500000D02*
X136730000Y-72500000D01*
X172500000Y-89460000D02*
X172500000Y-90230000D01*
X173870000Y-90230000D02*
X171130000Y-90230000D01*
X171130000Y-90230000D02*
X171130000Y-96770000D01*
X173870000Y-96770000D02*
X173870000Y-90230000D01*
X171130000Y-96770000D02*
X173870000Y-96770000D01*
X172500000Y-97540000D02*
X172500000Y-96770000D01*
X155065000Y-70045000D02*
X155065000Y-66955000D01*
X155064999Y-70044830D02*
G75*
G02*
X149515001Y-68499538I-2559999J1544830D01*
G01*
X149515000Y-68500462D02*
G75*
G02*
X155065000Y-66955170I2990000J462D01*
G01*
X155005000Y-68500000D02*
G75*
G02*
X150005000Y-68500000I-2500000J0D01*
G01*
X150005000Y-68500000D02*
G75*
G02*
X155005000Y-68500000I2500000J0D01*
G01*
%LPC*%
D13*
X174000000Y-75420000D03*
D14*
X174000000Y-77960000D03*
X174000000Y-80500000D03*
D13*
X165000000Y-67725000D03*
D14*
X165000000Y-65185000D03*
D15*
X140500000Y-86500000D03*
D16*
X140500000Y-85230000D03*
X140500000Y-83960000D03*
D17*
X161715000Y-79900000D03*
X160445000Y-79900000D03*
X159175000Y-79900000D03*
X157905000Y-79900000D03*
X156635000Y-79900000D03*
X155365000Y-79900000D03*
X154095000Y-79900000D03*
X152825000Y-79900000D03*
X151555000Y-79900000D03*
X150285000Y-79900000D03*
X150285000Y-89100000D03*
X151555000Y-89100000D03*
X152825000Y-89100000D03*
X154095000Y-89100000D03*
X155365000Y-89100000D03*
X156635000Y-89100000D03*
X157905000Y-89100000D03*
X159175000Y-89100000D03*
X160445000Y-89100000D03*
X161715000Y-89100000D03*
D18*
X166000000Y-104420000D03*
X173620000Y-104420000D03*
X166000000Y-109500000D03*
X173620000Y-109500000D03*
X150690000Y-95460000D03*
X158310000Y-95460000D03*
X150690000Y-100540000D03*
X158310000Y-100540000D03*
X152500000Y-112000000D03*
X160120000Y-112000000D03*
X152500000Y-117080000D03*
X160120000Y-117080000D03*
X136690000Y-103960000D03*
X144310000Y-103960000D03*
X136690000Y-109040000D03*
X144310000Y-109040000D03*
D19*
X145080000Y-72500000D03*
D20*
X134920000Y-72500000D03*
X172500000Y-88420000D03*
D19*
X172500000Y-98580000D03*
D21*
X153775000Y-68500000D03*
D22*
X151235000Y-68500000D03*
%LPD*%
M02*
