%TF.GenerationSoftware,KiCad,Pcbnew,8.0.1*%
%TF.CreationDate,2024-05-12T14:06:55-04:00*%
%TF.ProjectId,recyclobot,72656379-636c-46f6-926f-742e6b696361,rev?*%
%TF.SameCoordinates,Original*%
%TF.FileFunction,Drillmap*%
%TF.FilePolarity,Positive*%
%FSLAX45Y45*%
G04 Gerber Fmt 4.5, Leading zero omitted, Abs format (unit mm)*
G04 Created by KiCad (PCBNEW 8.0.1) date 2024-05-12 14:06:55*
%MOMM*%
%LPD*%
G01*
G04 APERTURE LIST*
%ADD10C,0.050000*%
%ADD11C,0.200000*%
%ADD12C,0.100000*%
G04 APERTURE END LIST*
D10*
X13100000Y-12050000D02*
X13150000Y-5950000D01*
X17900000Y-12100000D02*
X13100000Y-12050000D01*
X17900000Y-5950000D02*
X17900000Y-12100000D01*
X13150000Y-5950000D02*
X17900000Y-5950000D01*
D11*
D12*
X13635000Y-11685000D02*
X13665000Y-11715000D01*
X13665000Y-11685000D02*
X13635000Y-11715000D01*
X13685000Y-9485000D02*
X13715000Y-9515000D01*
X13715000Y-9485000D02*
X13685000Y-9515000D01*
X13835000Y-6485000D02*
X13865000Y-6515000D01*
X13865000Y-6485000D02*
X13835000Y-6515000D01*
X14685000Y-11685000D02*
X14715000Y-11715000D01*
X14715000Y-11685000D02*
X14685000Y-11715000D01*
X15885000Y-7385000D02*
X15915000Y-7415000D01*
X15915000Y-7385000D02*
X15885000Y-7415000D01*
X15935000Y-9285000D02*
X15965000Y-9315000D01*
X15965000Y-9285000D02*
X15935000Y-9315000D01*
X17185000Y-11735000D02*
X17215000Y-11765000D01*
X17215000Y-11735000D02*
X17185000Y-11765000D01*
X17535000Y-6735000D02*
X17565000Y-6765000D01*
X17565000Y-6735000D02*
X17535000Y-6765000D01*
X14087500Y-8396000D02*
G75*
G02*
X14012500Y-8396000I-37500J0D01*
G01*
X14012500Y-8396000D02*
G75*
G02*
X14087500Y-8396000I37500J0D01*
G01*
X14087500Y-8523000D02*
G75*
G02*
X14012500Y-8523000I-37500J0D01*
G01*
X14012500Y-8523000D02*
G75*
G02*
X14087500Y-8523000I37500J0D01*
G01*
X14087500Y-8650000D02*
G75*
G02*
X14012500Y-8650000I-37500J0D01*
G01*
X14012500Y-8650000D02*
G75*
G02*
X14087500Y-8650000I37500J0D01*
G01*
X13492000Y-7210000D02*
X13492000Y-7290000D01*
X13452000Y-7250000D02*
X13532000Y-7250000D01*
X14508000Y-7210000D02*
X14508000Y-7290000D01*
X14468000Y-7250000D02*
X14548000Y-7250000D01*
X17250000Y-8802000D02*
X17250000Y-8882000D01*
X17210000Y-8842000D02*
X17290000Y-8842000D01*
X17250000Y-9818000D02*
X17250000Y-9898000D01*
X17210000Y-9858000D02*
X17290000Y-9858000D01*
X13697737Y-10424737D02*
X13697737Y-10367263D01*
X13640263Y-10367263D01*
X13640263Y-10424737D01*
X13697737Y-10424737D01*
X13697737Y-10932737D02*
X13697737Y-10875263D01*
X13640263Y-10875263D01*
X13640263Y-10932737D01*
X13697737Y-10932737D01*
X14459737Y-10424737D02*
X14459737Y-10367263D01*
X14402263Y-10367263D01*
X14402263Y-10424737D01*
X14459737Y-10424737D01*
X14459737Y-10932737D02*
X14459737Y-10875263D01*
X14402263Y-10875263D01*
X14402263Y-10932737D01*
X14459737Y-10932737D01*
X15097737Y-9574737D02*
X15097737Y-9517263D01*
X15040263Y-9517263D01*
X15040263Y-9574737D01*
X15097737Y-9574737D01*
X15097737Y-10082737D02*
X15097737Y-10025263D01*
X15040263Y-10025263D01*
X15040263Y-10082737D01*
X15097737Y-10082737D01*
X15278737Y-11228737D02*
X15278737Y-11171263D01*
X15221263Y-11171263D01*
X15221263Y-11228737D01*
X15278737Y-11228737D01*
X15278737Y-11736737D02*
X15278737Y-11679263D01*
X15221263Y-11679263D01*
X15221263Y-11736737D01*
X15278737Y-11736737D01*
X15859737Y-9574737D02*
X15859737Y-9517263D01*
X15802263Y-9517263D01*
X15802263Y-9574737D01*
X15859737Y-9574737D01*
X15859737Y-10082737D02*
X15859737Y-10025263D01*
X15802263Y-10025263D01*
X15802263Y-10082737D01*
X15859737Y-10082737D01*
X16040737Y-11228737D02*
X16040737Y-11171263D01*
X15983263Y-11171263D01*
X15983263Y-11228737D01*
X16040737Y-11228737D01*
X16040737Y-11736737D02*
X16040737Y-11679263D01*
X15983263Y-11679263D01*
X15983263Y-11736737D01*
X16040737Y-11736737D01*
X16628737Y-10470737D02*
X16628737Y-10413263D01*
X16571263Y-10413263D01*
X16571263Y-10470737D01*
X16628737Y-10470737D01*
X16628737Y-10978737D02*
X16628737Y-10921263D01*
X16571263Y-10921263D01*
X16571263Y-10978737D01*
X16628737Y-10978737D01*
X17390737Y-10470737D02*
X17390737Y-10413263D01*
X17333263Y-10413263D01*
X17333263Y-10470737D01*
X17390737Y-10470737D01*
X17390737Y-10978737D02*
X17390737Y-10921263D01*
X17333263Y-10921263D01*
X17333263Y-10978737D01*
X17390737Y-10978737D01*
X15123500Y-6895000D02*
X15168500Y-6850000D01*
X15123500Y-6805000D01*
X15078500Y-6850000D01*
X15123500Y-6895000D01*
X15377500Y-6895000D02*
X15422500Y-6850000D01*
X15377500Y-6805000D01*
X15332500Y-6850000D01*
X15377500Y-6895000D01*
X16450000Y-6468500D02*
X16550000Y-6568500D01*
X16550000Y-6468500D02*
X16450000Y-6568500D01*
X16550000Y-6518500D02*
G75*
G02*
X16450000Y-6518500I-50000J0D01*
G01*
X16450000Y-6518500D02*
G75*
G02*
X16550000Y-6518500I50000J0D01*
G01*
X16450000Y-6722500D02*
X16550000Y-6822500D01*
X16550000Y-6722500D02*
X16450000Y-6822500D01*
X16550000Y-6772500D02*
G75*
G02*
X16450000Y-6772500I-50000J0D01*
G01*
X16450000Y-6772500D02*
G75*
G02*
X16550000Y-6772500I50000J0D01*
G01*
X17350000Y-7492000D02*
X17450000Y-7592000D01*
X17450000Y-7492000D02*
X17350000Y-7592000D01*
X17450000Y-7542000D02*
G75*
G02*
X17350000Y-7542000I-50000J0D01*
G01*
X17350000Y-7542000D02*
G75*
G02*
X17450000Y-7542000I50000J0D01*
G01*
X17350000Y-7746000D02*
X17450000Y-7846000D01*
X17450000Y-7746000D02*
X17350000Y-7846000D01*
X17450000Y-7796000D02*
G75*
G02*
X17350000Y-7796000I-50000J0D01*
G01*
X17350000Y-7796000D02*
G75*
G02*
X17450000Y-7796000I50000J0D01*
G01*
X17350000Y-8000000D02*
X17450000Y-8100000D01*
X17450000Y-8000000D02*
X17350000Y-8100000D01*
X17450000Y-8050000D02*
G75*
G02*
X17350000Y-8050000I-50000J0D01*
G01*
X17350000Y-8050000D02*
G75*
G02*
X17450000Y-8050000I50000J0D01*
G01*
D11*
X13358277Y-12413984D02*
X13358277Y-12213984D01*
X13358277Y-12213984D02*
X13405896Y-12213984D01*
X13405896Y-12213984D02*
X13434467Y-12223508D01*
X13434467Y-12223508D02*
X13453515Y-12242555D01*
X13453515Y-12242555D02*
X13463039Y-12261603D01*
X13463039Y-12261603D02*
X13472562Y-12299698D01*
X13472562Y-12299698D02*
X13472562Y-12328269D01*
X13472562Y-12328269D02*
X13463039Y-12366365D01*
X13463039Y-12366365D02*
X13453515Y-12385412D01*
X13453515Y-12385412D02*
X13434467Y-12404460D01*
X13434467Y-12404460D02*
X13405896Y-12413984D01*
X13405896Y-12413984D02*
X13358277Y-12413984D01*
X13558277Y-12413984D02*
X13558277Y-12280650D01*
X13558277Y-12318746D02*
X13567801Y-12299698D01*
X13567801Y-12299698D02*
X13577324Y-12290174D01*
X13577324Y-12290174D02*
X13596372Y-12280650D01*
X13596372Y-12280650D02*
X13615420Y-12280650D01*
X13682086Y-12413984D02*
X13682086Y-12280650D01*
X13682086Y-12213984D02*
X13672562Y-12223508D01*
X13672562Y-12223508D02*
X13682086Y-12233031D01*
X13682086Y-12233031D02*
X13691610Y-12223508D01*
X13691610Y-12223508D02*
X13682086Y-12213984D01*
X13682086Y-12213984D02*
X13682086Y-12233031D01*
X13805896Y-12413984D02*
X13786848Y-12404460D01*
X13786848Y-12404460D02*
X13777324Y-12385412D01*
X13777324Y-12385412D02*
X13777324Y-12213984D01*
X13910658Y-12413984D02*
X13891610Y-12404460D01*
X13891610Y-12404460D02*
X13882086Y-12385412D01*
X13882086Y-12385412D02*
X13882086Y-12213984D01*
X14139229Y-12413984D02*
X14139229Y-12213984D01*
X14139229Y-12213984D02*
X14205896Y-12356841D01*
X14205896Y-12356841D02*
X14272562Y-12213984D01*
X14272562Y-12213984D02*
X14272562Y-12413984D01*
X14453515Y-12413984D02*
X14453515Y-12309222D01*
X14453515Y-12309222D02*
X14443991Y-12290174D01*
X14443991Y-12290174D02*
X14424943Y-12280650D01*
X14424943Y-12280650D02*
X14386848Y-12280650D01*
X14386848Y-12280650D02*
X14367801Y-12290174D01*
X14453515Y-12404460D02*
X14434467Y-12413984D01*
X14434467Y-12413984D02*
X14386848Y-12413984D01*
X14386848Y-12413984D02*
X14367801Y-12404460D01*
X14367801Y-12404460D02*
X14358277Y-12385412D01*
X14358277Y-12385412D02*
X14358277Y-12366365D01*
X14358277Y-12366365D02*
X14367801Y-12347317D01*
X14367801Y-12347317D02*
X14386848Y-12337793D01*
X14386848Y-12337793D02*
X14434467Y-12337793D01*
X14434467Y-12337793D02*
X14453515Y-12328269D01*
X14548753Y-12280650D02*
X14548753Y-12480650D01*
X14548753Y-12290174D02*
X14567801Y-12280650D01*
X14567801Y-12280650D02*
X14605896Y-12280650D01*
X14605896Y-12280650D02*
X14624943Y-12290174D01*
X14624943Y-12290174D02*
X14634467Y-12299698D01*
X14634467Y-12299698D02*
X14643991Y-12318746D01*
X14643991Y-12318746D02*
X14643991Y-12375888D01*
X14643991Y-12375888D02*
X14634467Y-12394936D01*
X14634467Y-12394936D02*
X14624943Y-12404460D01*
X14624943Y-12404460D02*
X14605896Y-12413984D01*
X14605896Y-12413984D02*
X14567801Y-12413984D01*
X14567801Y-12413984D02*
X14548753Y-12404460D01*
X14729705Y-12394936D02*
X14739229Y-12404460D01*
X14739229Y-12404460D02*
X14729705Y-12413984D01*
X14729705Y-12413984D02*
X14720182Y-12404460D01*
X14720182Y-12404460D02*
X14729705Y-12394936D01*
X14729705Y-12394936D02*
X14729705Y-12413984D01*
X14729705Y-12290174D02*
X14739229Y-12299698D01*
X14739229Y-12299698D02*
X14729705Y-12309222D01*
X14729705Y-12309222D02*
X14720182Y-12299698D01*
X14720182Y-12299698D02*
X14729705Y-12290174D01*
X14729705Y-12290174D02*
X14729705Y-12309222D01*
D12*
X13067500Y-12727500D02*
X13097500Y-12757500D01*
X13097500Y-12727500D02*
X13067500Y-12757500D01*
D11*
X13396372Y-12633984D02*
X13415420Y-12633984D01*
X13415420Y-12633984D02*
X13434467Y-12643508D01*
X13434467Y-12643508D02*
X13443991Y-12653031D01*
X13443991Y-12653031D02*
X13453515Y-12672079D01*
X13453515Y-12672079D02*
X13463039Y-12710174D01*
X13463039Y-12710174D02*
X13463039Y-12757793D01*
X13463039Y-12757793D02*
X13453515Y-12795888D01*
X13453515Y-12795888D02*
X13443991Y-12814936D01*
X13443991Y-12814936D02*
X13434467Y-12824460D01*
X13434467Y-12824460D02*
X13415420Y-12833984D01*
X13415420Y-12833984D02*
X13396372Y-12833984D01*
X13396372Y-12833984D02*
X13377324Y-12824460D01*
X13377324Y-12824460D02*
X13367801Y-12814936D01*
X13367801Y-12814936D02*
X13358277Y-12795888D01*
X13358277Y-12795888D02*
X13348753Y-12757793D01*
X13348753Y-12757793D02*
X13348753Y-12710174D01*
X13348753Y-12710174D02*
X13358277Y-12672079D01*
X13358277Y-12672079D02*
X13367801Y-12653031D01*
X13367801Y-12653031D02*
X13377324Y-12643508D01*
X13377324Y-12643508D02*
X13396372Y-12633984D01*
X13548753Y-12814936D02*
X13558277Y-12824460D01*
X13558277Y-12824460D02*
X13548753Y-12833984D01*
X13548753Y-12833984D02*
X13539229Y-12824460D01*
X13539229Y-12824460D02*
X13548753Y-12814936D01*
X13548753Y-12814936D02*
X13548753Y-12833984D01*
X13624943Y-12633984D02*
X13748753Y-12633984D01*
X13748753Y-12633984D02*
X13682086Y-12710174D01*
X13682086Y-12710174D02*
X13710658Y-12710174D01*
X13710658Y-12710174D02*
X13729705Y-12719698D01*
X13729705Y-12719698D02*
X13739229Y-12729222D01*
X13739229Y-12729222D02*
X13748753Y-12748269D01*
X13748753Y-12748269D02*
X13748753Y-12795888D01*
X13748753Y-12795888D02*
X13739229Y-12814936D01*
X13739229Y-12814936D02*
X13729705Y-12824460D01*
X13729705Y-12824460D02*
X13710658Y-12833984D01*
X13710658Y-12833984D02*
X13653515Y-12833984D01*
X13653515Y-12833984D02*
X13634467Y-12824460D01*
X13634467Y-12824460D02*
X13624943Y-12814936D01*
X13872562Y-12633984D02*
X13891610Y-12633984D01*
X13891610Y-12633984D02*
X13910658Y-12643508D01*
X13910658Y-12643508D02*
X13920182Y-12653031D01*
X13920182Y-12653031D02*
X13929705Y-12672079D01*
X13929705Y-12672079D02*
X13939229Y-12710174D01*
X13939229Y-12710174D02*
X13939229Y-12757793D01*
X13939229Y-12757793D02*
X13929705Y-12795888D01*
X13929705Y-12795888D02*
X13920182Y-12814936D01*
X13920182Y-12814936D02*
X13910658Y-12824460D01*
X13910658Y-12824460D02*
X13891610Y-12833984D01*
X13891610Y-12833984D02*
X13872562Y-12833984D01*
X13872562Y-12833984D02*
X13853515Y-12824460D01*
X13853515Y-12824460D02*
X13843991Y-12814936D01*
X13843991Y-12814936D02*
X13834467Y-12795888D01*
X13834467Y-12795888D02*
X13824943Y-12757793D01*
X13824943Y-12757793D02*
X13824943Y-12710174D01*
X13824943Y-12710174D02*
X13834467Y-12672079D01*
X13834467Y-12672079D02*
X13843991Y-12653031D01*
X13843991Y-12653031D02*
X13853515Y-12643508D01*
X13853515Y-12643508D02*
X13872562Y-12633984D01*
X14063039Y-12633984D02*
X14082086Y-12633984D01*
X14082086Y-12633984D02*
X14101134Y-12643508D01*
X14101134Y-12643508D02*
X14110658Y-12653031D01*
X14110658Y-12653031D02*
X14120182Y-12672079D01*
X14120182Y-12672079D02*
X14129705Y-12710174D01*
X14129705Y-12710174D02*
X14129705Y-12757793D01*
X14129705Y-12757793D02*
X14120182Y-12795888D01*
X14120182Y-12795888D02*
X14110658Y-12814936D01*
X14110658Y-12814936D02*
X14101134Y-12824460D01*
X14101134Y-12824460D02*
X14082086Y-12833984D01*
X14082086Y-12833984D02*
X14063039Y-12833984D01*
X14063039Y-12833984D02*
X14043991Y-12824460D01*
X14043991Y-12824460D02*
X14034467Y-12814936D01*
X14034467Y-12814936D02*
X14024943Y-12795888D01*
X14024943Y-12795888D02*
X14015420Y-12757793D01*
X14015420Y-12757793D02*
X14015420Y-12710174D01*
X14015420Y-12710174D02*
X14024943Y-12672079D01*
X14024943Y-12672079D02*
X14034467Y-12653031D01*
X14034467Y-12653031D02*
X14043991Y-12643508D01*
X14043991Y-12643508D02*
X14063039Y-12633984D01*
X14215420Y-12833984D02*
X14215420Y-12700650D01*
X14215420Y-12719698D02*
X14224943Y-12710174D01*
X14224943Y-12710174D02*
X14243991Y-12700650D01*
X14243991Y-12700650D02*
X14272563Y-12700650D01*
X14272563Y-12700650D02*
X14291610Y-12710174D01*
X14291610Y-12710174D02*
X14301134Y-12729222D01*
X14301134Y-12729222D02*
X14301134Y-12833984D01*
X14301134Y-12729222D02*
X14310658Y-12710174D01*
X14310658Y-12710174D02*
X14329705Y-12700650D01*
X14329705Y-12700650D02*
X14358277Y-12700650D01*
X14358277Y-12700650D02*
X14377324Y-12710174D01*
X14377324Y-12710174D02*
X14386848Y-12729222D01*
X14386848Y-12729222D02*
X14386848Y-12833984D01*
X14482086Y-12833984D02*
X14482086Y-12700650D01*
X14482086Y-12719698D02*
X14491610Y-12710174D01*
X14491610Y-12710174D02*
X14510658Y-12700650D01*
X14510658Y-12700650D02*
X14539229Y-12700650D01*
X14539229Y-12700650D02*
X14558277Y-12710174D01*
X14558277Y-12710174D02*
X14567801Y-12729222D01*
X14567801Y-12729222D02*
X14567801Y-12833984D01*
X14567801Y-12729222D02*
X14577324Y-12710174D01*
X14577324Y-12710174D02*
X14596372Y-12700650D01*
X14596372Y-12700650D02*
X14624943Y-12700650D01*
X14624943Y-12700650D02*
X14643991Y-12710174D01*
X14643991Y-12710174D02*
X14653515Y-12729222D01*
X14653515Y-12729222D02*
X14653515Y-12833984D01*
X15043991Y-12624460D02*
X14872563Y-12881603D01*
X15301134Y-12633984D02*
X15320182Y-12633984D01*
X15320182Y-12633984D02*
X15339229Y-12643508D01*
X15339229Y-12643508D02*
X15348753Y-12653031D01*
X15348753Y-12653031D02*
X15358277Y-12672079D01*
X15358277Y-12672079D02*
X15367801Y-12710174D01*
X15367801Y-12710174D02*
X15367801Y-12757793D01*
X15367801Y-12757793D02*
X15358277Y-12795888D01*
X15358277Y-12795888D02*
X15348753Y-12814936D01*
X15348753Y-12814936D02*
X15339229Y-12824460D01*
X15339229Y-12824460D02*
X15320182Y-12833984D01*
X15320182Y-12833984D02*
X15301134Y-12833984D01*
X15301134Y-12833984D02*
X15282086Y-12824460D01*
X15282086Y-12824460D02*
X15272563Y-12814936D01*
X15272563Y-12814936D02*
X15263039Y-12795888D01*
X15263039Y-12795888D02*
X15253515Y-12757793D01*
X15253515Y-12757793D02*
X15253515Y-12710174D01*
X15253515Y-12710174D02*
X15263039Y-12672079D01*
X15263039Y-12672079D02*
X15272563Y-12653031D01*
X15272563Y-12653031D02*
X15282086Y-12643508D01*
X15282086Y-12643508D02*
X15301134Y-12633984D01*
X15453515Y-12814936D02*
X15463039Y-12824460D01*
X15463039Y-12824460D02*
X15453515Y-12833984D01*
X15453515Y-12833984D02*
X15443991Y-12824460D01*
X15443991Y-12824460D02*
X15453515Y-12814936D01*
X15453515Y-12814936D02*
X15453515Y-12833984D01*
X15586848Y-12633984D02*
X15605896Y-12633984D01*
X15605896Y-12633984D02*
X15624944Y-12643508D01*
X15624944Y-12643508D02*
X15634467Y-12653031D01*
X15634467Y-12653031D02*
X15643991Y-12672079D01*
X15643991Y-12672079D02*
X15653515Y-12710174D01*
X15653515Y-12710174D02*
X15653515Y-12757793D01*
X15653515Y-12757793D02*
X15643991Y-12795888D01*
X15643991Y-12795888D02*
X15634467Y-12814936D01*
X15634467Y-12814936D02*
X15624944Y-12824460D01*
X15624944Y-12824460D02*
X15605896Y-12833984D01*
X15605896Y-12833984D02*
X15586848Y-12833984D01*
X15586848Y-12833984D02*
X15567801Y-12824460D01*
X15567801Y-12824460D02*
X15558277Y-12814936D01*
X15558277Y-12814936D02*
X15548753Y-12795888D01*
X15548753Y-12795888D02*
X15539229Y-12757793D01*
X15539229Y-12757793D02*
X15539229Y-12710174D01*
X15539229Y-12710174D02*
X15548753Y-12672079D01*
X15548753Y-12672079D02*
X15558277Y-12653031D01*
X15558277Y-12653031D02*
X15567801Y-12643508D01*
X15567801Y-12643508D02*
X15586848Y-12633984D01*
X15843991Y-12833984D02*
X15729706Y-12833984D01*
X15786848Y-12833984D02*
X15786848Y-12633984D01*
X15786848Y-12633984D02*
X15767801Y-12662555D01*
X15767801Y-12662555D02*
X15748753Y-12681603D01*
X15748753Y-12681603D02*
X15729706Y-12691127D01*
X16034467Y-12833984D02*
X15920182Y-12833984D01*
X15977325Y-12833984D02*
X15977325Y-12633984D01*
X15977325Y-12633984D02*
X15958277Y-12662555D01*
X15958277Y-12662555D02*
X15939229Y-12681603D01*
X15939229Y-12681603D02*
X15920182Y-12691127D01*
X16148753Y-12719698D02*
X16129706Y-12710174D01*
X16129706Y-12710174D02*
X16120182Y-12700650D01*
X16120182Y-12700650D02*
X16110658Y-12681603D01*
X16110658Y-12681603D02*
X16110658Y-12672079D01*
X16110658Y-12672079D02*
X16120182Y-12653031D01*
X16120182Y-12653031D02*
X16129706Y-12643508D01*
X16129706Y-12643508D02*
X16148753Y-12633984D01*
X16148753Y-12633984D02*
X16186848Y-12633984D01*
X16186848Y-12633984D02*
X16205896Y-12643508D01*
X16205896Y-12643508D02*
X16215420Y-12653031D01*
X16215420Y-12653031D02*
X16224944Y-12672079D01*
X16224944Y-12672079D02*
X16224944Y-12681603D01*
X16224944Y-12681603D02*
X16215420Y-12700650D01*
X16215420Y-12700650D02*
X16205896Y-12710174D01*
X16205896Y-12710174D02*
X16186848Y-12719698D01*
X16186848Y-12719698D02*
X16148753Y-12719698D01*
X16148753Y-12719698D02*
X16129706Y-12729222D01*
X16129706Y-12729222D02*
X16120182Y-12738746D01*
X16120182Y-12738746D02*
X16110658Y-12757793D01*
X16110658Y-12757793D02*
X16110658Y-12795888D01*
X16110658Y-12795888D02*
X16120182Y-12814936D01*
X16120182Y-12814936D02*
X16129706Y-12824460D01*
X16129706Y-12824460D02*
X16148753Y-12833984D01*
X16148753Y-12833984D02*
X16186848Y-12833984D01*
X16186848Y-12833984D02*
X16205896Y-12824460D01*
X16205896Y-12824460D02*
X16215420Y-12814936D01*
X16215420Y-12814936D02*
X16224944Y-12795888D01*
X16224944Y-12795888D02*
X16224944Y-12757793D01*
X16224944Y-12757793D02*
X16215420Y-12738746D01*
X16215420Y-12738746D02*
X16205896Y-12729222D01*
X16205896Y-12729222D02*
X16186848Y-12719698D01*
X16301134Y-12633984D02*
X16301134Y-12672079D01*
X16377325Y-12633984D02*
X16377325Y-12672079D01*
X16672563Y-12910174D02*
X16663039Y-12900650D01*
X16663039Y-12900650D02*
X16643991Y-12872079D01*
X16643991Y-12872079D02*
X16634468Y-12853031D01*
X16634468Y-12853031D02*
X16624944Y-12824460D01*
X16624944Y-12824460D02*
X16615420Y-12776841D01*
X16615420Y-12776841D02*
X16615420Y-12738746D01*
X16615420Y-12738746D02*
X16624944Y-12691127D01*
X16624944Y-12691127D02*
X16634468Y-12662555D01*
X16634468Y-12662555D02*
X16643991Y-12643508D01*
X16643991Y-12643508D02*
X16663039Y-12614936D01*
X16663039Y-12614936D02*
X16672563Y-12605412D01*
X16777325Y-12719698D02*
X16758277Y-12710174D01*
X16758277Y-12710174D02*
X16748753Y-12700650D01*
X16748753Y-12700650D02*
X16739229Y-12681603D01*
X16739229Y-12681603D02*
X16739229Y-12672079D01*
X16739229Y-12672079D02*
X16748753Y-12653031D01*
X16748753Y-12653031D02*
X16758277Y-12643508D01*
X16758277Y-12643508D02*
X16777325Y-12633984D01*
X16777325Y-12633984D02*
X16815420Y-12633984D01*
X16815420Y-12633984D02*
X16834468Y-12643508D01*
X16834468Y-12643508D02*
X16843991Y-12653031D01*
X16843991Y-12653031D02*
X16853515Y-12672079D01*
X16853515Y-12672079D02*
X16853515Y-12681603D01*
X16853515Y-12681603D02*
X16843991Y-12700650D01*
X16843991Y-12700650D02*
X16834468Y-12710174D01*
X16834468Y-12710174D02*
X16815420Y-12719698D01*
X16815420Y-12719698D02*
X16777325Y-12719698D01*
X16777325Y-12719698D02*
X16758277Y-12729222D01*
X16758277Y-12729222D02*
X16748753Y-12738746D01*
X16748753Y-12738746D02*
X16739229Y-12757793D01*
X16739229Y-12757793D02*
X16739229Y-12795888D01*
X16739229Y-12795888D02*
X16748753Y-12814936D01*
X16748753Y-12814936D02*
X16758277Y-12824460D01*
X16758277Y-12824460D02*
X16777325Y-12833984D01*
X16777325Y-12833984D02*
X16815420Y-12833984D01*
X16815420Y-12833984D02*
X16834468Y-12824460D01*
X16834468Y-12824460D02*
X16843991Y-12814936D01*
X16843991Y-12814936D02*
X16853515Y-12795888D01*
X16853515Y-12795888D02*
X16853515Y-12757793D01*
X16853515Y-12757793D02*
X16843991Y-12738746D01*
X16843991Y-12738746D02*
X16834468Y-12729222D01*
X16834468Y-12729222D02*
X16815420Y-12719698D01*
X17091611Y-12833984D02*
X17091611Y-12633984D01*
X17177325Y-12833984D02*
X17177325Y-12729222D01*
X17177325Y-12729222D02*
X17167801Y-12710174D01*
X17167801Y-12710174D02*
X17148753Y-12700650D01*
X17148753Y-12700650D02*
X17120182Y-12700650D01*
X17120182Y-12700650D02*
X17101134Y-12710174D01*
X17101134Y-12710174D02*
X17091611Y-12719698D01*
X17301134Y-12833984D02*
X17282087Y-12824460D01*
X17282087Y-12824460D02*
X17272563Y-12814936D01*
X17272563Y-12814936D02*
X17263039Y-12795888D01*
X17263039Y-12795888D02*
X17263039Y-12738746D01*
X17263039Y-12738746D02*
X17272563Y-12719698D01*
X17272563Y-12719698D02*
X17282087Y-12710174D01*
X17282087Y-12710174D02*
X17301134Y-12700650D01*
X17301134Y-12700650D02*
X17329706Y-12700650D01*
X17329706Y-12700650D02*
X17348753Y-12710174D01*
X17348753Y-12710174D02*
X17358277Y-12719698D01*
X17358277Y-12719698D02*
X17367801Y-12738746D01*
X17367801Y-12738746D02*
X17367801Y-12795888D01*
X17367801Y-12795888D02*
X17358277Y-12814936D01*
X17358277Y-12814936D02*
X17348753Y-12824460D01*
X17348753Y-12824460D02*
X17329706Y-12833984D01*
X17329706Y-12833984D02*
X17301134Y-12833984D01*
X17482087Y-12833984D02*
X17463039Y-12824460D01*
X17463039Y-12824460D02*
X17453515Y-12805412D01*
X17453515Y-12805412D02*
X17453515Y-12633984D01*
X17634468Y-12824460D02*
X17615420Y-12833984D01*
X17615420Y-12833984D02*
X17577325Y-12833984D01*
X17577325Y-12833984D02*
X17558277Y-12824460D01*
X17558277Y-12824460D02*
X17548753Y-12805412D01*
X17548753Y-12805412D02*
X17548753Y-12729222D01*
X17548753Y-12729222D02*
X17558277Y-12710174D01*
X17558277Y-12710174D02*
X17577325Y-12700650D01*
X17577325Y-12700650D02*
X17615420Y-12700650D01*
X17615420Y-12700650D02*
X17634468Y-12710174D01*
X17634468Y-12710174D02*
X17643992Y-12729222D01*
X17643992Y-12729222D02*
X17643992Y-12748269D01*
X17643992Y-12748269D02*
X17548753Y-12767317D01*
X17720182Y-12824460D02*
X17739230Y-12833984D01*
X17739230Y-12833984D02*
X17777325Y-12833984D01*
X17777325Y-12833984D02*
X17796373Y-12824460D01*
X17796373Y-12824460D02*
X17805896Y-12805412D01*
X17805896Y-12805412D02*
X17805896Y-12795888D01*
X17805896Y-12795888D02*
X17796373Y-12776841D01*
X17796373Y-12776841D02*
X17777325Y-12767317D01*
X17777325Y-12767317D02*
X17748753Y-12767317D01*
X17748753Y-12767317D02*
X17729706Y-12757793D01*
X17729706Y-12757793D02*
X17720182Y-12738746D01*
X17720182Y-12738746D02*
X17720182Y-12729222D01*
X17720182Y-12729222D02*
X17729706Y-12710174D01*
X17729706Y-12710174D02*
X17748753Y-12700650D01*
X17748753Y-12700650D02*
X17777325Y-12700650D01*
X17777325Y-12700650D02*
X17796373Y-12710174D01*
X17872563Y-12910174D02*
X17882087Y-12900650D01*
X17882087Y-12900650D02*
X17901134Y-12872079D01*
X17901134Y-12872079D02*
X17910658Y-12853031D01*
X17910658Y-12853031D02*
X17920182Y-12824460D01*
X17920182Y-12824460D02*
X17929706Y-12776841D01*
X17929706Y-12776841D02*
X17929706Y-12738746D01*
X17929706Y-12738746D02*
X17920182Y-12691127D01*
X17920182Y-12691127D02*
X17910658Y-12662555D01*
X17910658Y-12662555D02*
X17901134Y-12643508D01*
X17901134Y-12643508D02*
X17882087Y-12614936D01*
X17882087Y-12614936D02*
X17872563Y-12605412D01*
D12*
X13097500Y-13006500D02*
G75*
G02*
X13022500Y-13006500I-37500J0D01*
G01*
X13022500Y-13006500D02*
G75*
G02*
X13097500Y-13006500I37500J0D01*
G01*
D11*
X13396372Y-12897984D02*
X13415420Y-12897984D01*
X13415420Y-12897984D02*
X13434467Y-12907508D01*
X13434467Y-12907508D02*
X13443991Y-12917031D01*
X13443991Y-12917031D02*
X13453515Y-12936079D01*
X13453515Y-12936079D02*
X13463039Y-12974174D01*
X13463039Y-12974174D02*
X13463039Y-13021793D01*
X13463039Y-13021793D02*
X13453515Y-13059888D01*
X13453515Y-13059888D02*
X13443991Y-13078936D01*
X13443991Y-13078936D02*
X13434467Y-13088460D01*
X13434467Y-13088460D02*
X13415420Y-13097984D01*
X13415420Y-13097984D02*
X13396372Y-13097984D01*
X13396372Y-13097984D02*
X13377324Y-13088460D01*
X13377324Y-13088460D02*
X13367801Y-13078936D01*
X13367801Y-13078936D02*
X13358277Y-13059888D01*
X13358277Y-13059888D02*
X13348753Y-13021793D01*
X13348753Y-13021793D02*
X13348753Y-12974174D01*
X13348753Y-12974174D02*
X13358277Y-12936079D01*
X13358277Y-12936079D02*
X13367801Y-12917031D01*
X13367801Y-12917031D02*
X13377324Y-12907508D01*
X13377324Y-12907508D02*
X13396372Y-12897984D01*
X13548753Y-13078936D02*
X13558277Y-13088460D01*
X13558277Y-13088460D02*
X13548753Y-13097984D01*
X13548753Y-13097984D02*
X13539229Y-13088460D01*
X13539229Y-13088460D02*
X13548753Y-13078936D01*
X13548753Y-13078936D02*
X13548753Y-13097984D01*
X13624943Y-12897984D02*
X13758277Y-12897984D01*
X13758277Y-12897984D02*
X13672562Y-13097984D01*
X13929705Y-12897984D02*
X13834467Y-12897984D01*
X13834467Y-12897984D02*
X13824943Y-12993222D01*
X13824943Y-12993222D02*
X13834467Y-12983698D01*
X13834467Y-12983698D02*
X13853515Y-12974174D01*
X13853515Y-12974174D02*
X13901134Y-12974174D01*
X13901134Y-12974174D02*
X13920182Y-12983698D01*
X13920182Y-12983698D02*
X13929705Y-12993222D01*
X13929705Y-12993222D02*
X13939229Y-13012269D01*
X13939229Y-13012269D02*
X13939229Y-13059888D01*
X13939229Y-13059888D02*
X13929705Y-13078936D01*
X13929705Y-13078936D02*
X13920182Y-13088460D01*
X13920182Y-13088460D02*
X13901134Y-13097984D01*
X13901134Y-13097984D02*
X13853515Y-13097984D01*
X13853515Y-13097984D02*
X13834467Y-13088460D01*
X13834467Y-13088460D02*
X13824943Y-13078936D01*
X14063039Y-12897984D02*
X14082086Y-12897984D01*
X14082086Y-12897984D02*
X14101134Y-12907508D01*
X14101134Y-12907508D02*
X14110658Y-12917031D01*
X14110658Y-12917031D02*
X14120182Y-12936079D01*
X14120182Y-12936079D02*
X14129705Y-12974174D01*
X14129705Y-12974174D02*
X14129705Y-13021793D01*
X14129705Y-13021793D02*
X14120182Y-13059888D01*
X14120182Y-13059888D02*
X14110658Y-13078936D01*
X14110658Y-13078936D02*
X14101134Y-13088460D01*
X14101134Y-13088460D02*
X14082086Y-13097984D01*
X14082086Y-13097984D02*
X14063039Y-13097984D01*
X14063039Y-13097984D02*
X14043991Y-13088460D01*
X14043991Y-13088460D02*
X14034467Y-13078936D01*
X14034467Y-13078936D02*
X14024943Y-13059888D01*
X14024943Y-13059888D02*
X14015420Y-13021793D01*
X14015420Y-13021793D02*
X14015420Y-12974174D01*
X14015420Y-12974174D02*
X14024943Y-12936079D01*
X14024943Y-12936079D02*
X14034467Y-12917031D01*
X14034467Y-12917031D02*
X14043991Y-12907508D01*
X14043991Y-12907508D02*
X14063039Y-12897984D01*
X14215420Y-13097984D02*
X14215420Y-12964650D01*
X14215420Y-12983698D02*
X14224943Y-12974174D01*
X14224943Y-12974174D02*
X14243991Y-12964650D01*
X14243991Y-12964650D02*
X14272563Y-12964650D01*
X14272563Y-12964650D02*
X14291610Y-12974174D01*
X14291610Y-12974174D02*
X14301134Y-12993222D01*
X14301134Y-12993222D02*
X14301134Y-13097984D01*
X14301134Y-12993222D02*
X14310658Y-12974174D01*
X14310658Y-12974174D02*
X14329705Y-12964650D01*
X14329705Y-12964650D02*
X14358277Y-12964650D01*
X14358277Y-12964650D02*
X14377324Y-12974174D01*
X14377324Y-12974174D02*
X14386848Y-12993222D01*
X14386848Y-12993222D02*
X14386848Y-13097984D01*
X14482086Y-13097984D02*
X14482086Y-12964650D01*
X14482086Y-12983698D02*
X14491610Y-12974174D01*
X14491610Y-12974174D02*
X14510658Y-12964650D01*
X14510658Y-12964650D02*
X14539229Y-12964650D01*
X14539229Y-12964650D02*
X14558277Y-12974174D01*
X14558277Y-12974174D02*
X14567801Y-12993222D01*
X14567801Y-12993222D02*
X14567801Y-13097984D01*
X14567801Y-12993222D02*
X14577324Y-12974174D01*
X14577324Y-12974174D02*
X14596372Y-12964650D01*
X14596372Y-12964650D02*
X14624943Y-12964650D01*
X14624943Y-12964650D02*
X14643991Y-12974174D01*
X14643991Y-12974174D02*
X14653515Y-12993222D01*
X14653515Y-12993222D02*
X14653515Y-13097984D01*
X15043991Y-12888460D02*
X14872563Y-13145603D01*
X15301134Y-12897984D02*
X15320182Y-12897984D01*
X15320182Y-12897984D02*
X15339229Y-12907508D01*
X15339229Y-12907508D02*
X15348753Y-12917031D01*
X15348753Y-12917031D02*
X15358277Y-12936079D01*
X15358277Y-12936079D02*
X15367801Y-12974174D01*
X15367801Y-12974174D02*
X15367801Y-13021793D01*
X15367801Y-13021793D02*
X15358277Y-13059888D01*
X15358277Y-13059888D02*
X15348753Y-13078936D01*
X15348753Y-13078936D02*
X15339229Y-13088460D01*
X15339229Y-13088460D02*
X15320182Y-13097984D01*
X15320182Y-13097984D02*
X15301134Y-13097984D01*
X15301134Y-13097984D02*
X15282086Y-13088460D01*
X15282086Y-13088460D02*
X15272563Y-13078936D01*
X15272563Y-13078936D02*
X15263039Y-13059888D01*
X15263039Y-13059888D02*
X15253515Y-13021793D01*
X15253515Y-13021793D02*
X15253515Y-12974174D01*
X15253515Y-12974174D02*
X15263039Y-12936079D01*
X15263039Y-12936079D02*
X15272563Y-12917031D01*
X15272563Y-12917031D02*
X15282086Y-12907508D01*
X15282086Y-12907508D02*
X15301134Y-12897984D01*
X15453515Y-13078936D02*
X15463039Y-13088460D01*
X15463039Y-13088460D02*
X15453515Y-13097984D01*
X15453515Y-13097984D02*
X15443991Y-13088460D01*
X15443991Y-13088460D02*
X15453515Y-13078936D01*
X15453515Y-13078936D02*
X15453515Y-13097984D01*
X15586848Y-12897984D02*
X15605896Y-12897984D01*
X15605896Y-12897984D02*
X15624944Y-12907508D01*
X15624944Y-12907508D02*
X15634467Y-12917031D01*
X15634467Y-12917031D02*
X15643991Y-12936079D01*
X15643991Y-12936079D02*
X15653515Y-12974174D01*
X15653515Y-12974174D02*
X15653515Y-13021793D01*
X15653515Y-13021793D02*
X15643991Y-13059888D01*
X15643991Y-13059888D02*
X15634467Y-13078936D01*
X15634467Y-13078936D02*
X15624944Y-13088460D01*
X15624944Y-13088460D02*
X15605896Y-13097984D01*
X15605896Y-13097984D02*
X15586848Y-13097984D01*
X15586848Y-13097984D02*
X15567801Y-13088460D01*
X15567801Y-13088460D02*
X15558277Y-13078936D01*
X15558277Y-13078936D02*
X15548753Y-13059888D01*
X15548753Y-13059888D02*
X15539229Y-13021793D01*
X15539229Y-13021793D02*
X15539229Y-12974174D01*
X15539229Y-12974174D02*
X15548753Y-12936079D01*
X15548753Y-12936079D02*
X15558277Y-12917031D01*
X15558277Y-12917031D02*
X15567801Y-12907508D01*
X15567801Y-12907508D02*
X15586848Y-12897984D01*
X15729706Y-12917031D02*
X15739229Y-12907508D01*
X15739229Y-12907508D02*
X15758277Y-12897984D01*
X15758277Y-12897984D02*
X15805896Y-12897984D01*
X15805896Y-12897984D02*
X15824944Y-12907508D01*
X15824944Y-12907508D02*
X15834467Y-12917031D01*
X15834467Y-12917031D02*
X15843991Y-12936079D01*
X15843991Y-12936079D02*
X15843991Y-12955127D01*
X15843991Y-12955127D02*
X15834467Y-12983698D01*
X15834467Y-12983698D02*
X15720182Y-13097984D01*
X15720182Y-13097984D02*
X15843991Y-13097984D01*
X15939229Y-13097984D02*
X15977325Y-13097984D01*
X15977325Y-13097984D02*
X15996372Y-13088460D01*
X15996372Y-13088460D02*
X16005896Y-13078936D01*
X16005896Y-13078936D02*
X16024944Y-13050365D01*
X16024944Y-13050365D02*
X16034467Y-13012269D01*
X16034467Y-13012269D02*
X16034467Y-12936079D01*
X16034467Y-12936079D02*
X16024944Y-12917031D01*
X16024944Y-12917031D02*
X16015420Y-12907508D01*
X16015420Y-12907508D02*
X15996372Y-12897984D01*
X15996372Y-12897984D02*
X15958277Y-12897984D01*
X15958277Y-12897984D02*
X15939229Y-12907508D01*
X15939229Y-12907508D02*
X15929706Y-12917031D01*
X15929706Y-12917031D02*
X15920182Y-12936079D01*
X15920182Y-12936079D02*
X15920182Y-12983698D01*
X15920182Y-12983698D02*
X15929706Y-13002746D01*
X15929706Y-13002746D02*
X15939229Y-13012269D01*
X15939229Y-13012269D02*
X15958277Y-13021793D01*
X15958277Y-13021793D02*
X15996372Y-13021793D01*
X15996372Y-13021793D02*
X16015420Y-13012269D01*
X16015420Y-13012269D02*
X16024944Y-13002746D01*
X16024944Y-13002746D02*
X16034467Y-12983698D01*
X16215420Y-12897984D02*
X16120182Y-12897984D01*
X16120182Y-12897984D02*
X16110658Y-12993222D01*
X16110658Y-12993222D02*
X16120182Y-12983698D01*
X16120182Y-12983698D02*
X16139229Y-12974174D01*
X16139229Y-12974174D02*
X16186848Y-12974174D01*
X16186848Y-12974174D02*
X16205896Y-12983698D01*
X16205896Y-12983698D02*
X16215420Y-12993222D01*
X16215420Y-12993222D02*
X16224944Y-13012269D01*
X16224944Y-13012269D02*
X16224944Y-13059888D01*
X16224944Y-13059888D02*
X16215420Y-13078936D01*
X16215420Y-13078936D02*
X16205896Y-13088460D01*
X16205896Y-13088460D02*
X16186848Y-13097984D01*
X16186848Y-13097984D02*
X16139229Y-13097984D01*
X16139229Y-13097984D02*
X16120182Y-13088460D01*
X16120182Y-13088460D02*
X16110658Y-13078936D01*
X16301134Y-12897984D02*
X16301134Y-12936079D01*
X16377325Y-12897984D02*
X16377325Y-12936079D01*
X16672563Y-13174174D02*
X16663039Y-13164650D01*
X16663039Y-13164650D02*
X16643991Y-13136079D01*
X16643991Y-13136079D02*
X16634468Y-13117031D01*
X16634468Y-13117031D02*
X16624944Y-13088460D01*
X16624944Y-13088460D02*
X16615420Y-13040841D01*
X16615420Y-13040841D02*
X16615420Y-13002746D01*
X16615420Y-13002746D02*
X16624944Y-12955127D01*
X16624944Y-12955127D02*
X16634468Y-12926555D01*
X16634468Y-12926555D02*
X16643991Y-12907508D01*
X16643991Y-12907508D02*
X16663039Y-12878936D01*
X16663039Y-12878936D02*
X16672563Y-12869412D01*
X16729706Y-12897984D02*
X16853515Y-12897984D01*
X16853515Y-12897984D02*
X16786849Y-12974174D01*
X16786849Y-12974174D02*
X16815420Y-12974174D01*
X16815420Y-12974174D02*
X16834468Y-12983698D01*
X16834468Y-12983698D02*
X16843991Y-12993222D01*
X16843991Y-12993222D02*
X16853515Y-13012269D01*
X16853515Y-13012269D02*
X16853515Y-13059888D01*
X16853515Y-13059888D02*
X16843991Y-13078936D01*
X16843991Y-13078936D02*
X16834468Y-13088460D01*
X16834468Y-13088460D02*
X16815420Y-13097984D01*
X16815420Y-13097984D02*
X16758277Y-13097984D01*
X16758277Y-13097984D02*
X16739229Y-13088460D01*
X16739229Y-13088460D02*
X16729706Y-13078936D01*
X17091611Y-13097984D02*
X17091611Y-12897984D01*
X17177325Y-13097984D02*
X17177325Y-12993222D01*
X17177325Y-12993222D02*
X17167801Y-12974174D01*
X17167801Y-12974174D02*
X17148753Y-12964650D01*
X17148753Y-12964650D02*
X17120182Y-12964650D01*
X17120182Y-12964650D02*
X17101134Y-12974174D01*
X17101134Y-12974174D02*
X17091611Y-12983698D01*
X17301134Y-13097984D02*
X17282087Y-13088460D01*
X17282087Y-13088460D02*
X17272563Y-13078936D01*
X17272563Y-13078936D02*
X17263039Y-13059888D01*
X17263039Y-13059888D02*
X17263039Y-13002746D01*
X17263039Y-13002746D02*
X17272563Y-12983698D01*
X17272563Y-12983698D02*
X17282087Y-12974174D01*
X17282087Y-12974174D02*
X17301134Y-12964650D01*
X17301134Y-12964650D02*
X17329706Y-12964650D01*
X17329706Y-12964650D02*
X17348753Y-12974174D01*
X17348753Y-12974174D02*
X17358277Y-12983698D01*
X17358277Y-12983698D02*
X17367801Y-13002746D01*
X17367801Y-13002746D02*
X17367801Y-13059888D01*
X17367801Y-13059888D02*
X17358277Y-13078936D01*
X17358277Y-13078936D02*
X17348753Y-13088460D01*
X17348753Y-13088460D02*
X17329706Y-13097984D01*
X17329706Y-13097984D02*
X17301134Y-13097984D01*
X17482087Y-13097984D02*
X17463039Y-13088460D01*
X17463039Y-13088460D02*
X17453515Y-13069412D01*
X17453515Y-13069412D02*
X17453515Y-12897984D01*
X17634468Y-13088460D02*
X17615420Y-13097984D01*
X17615420Y-13097984D02*
X17577325Y-13097984D01*
X17577325Y-13097984D02*
X17558277Y-13088460D01*
X17558277Y-13088460D02*
X17548753Y-13069412D01*
X17548753Y-13069412D02*
X17548753Y-12993222D01*
X17548753Y-12993222D02*
X17558277Y-12974174D01*
X17558277Y-12974174D02*
X17577325Y-12964650D01*
X17577325Y-12964650D02*
X17615420Y-12964650D01*
X17615420Y-12964650D02*
X17634468Y-12974174D01*
X17634468Y-12974174D02*
X17643992Y-12993222D01*
X17643992Y-12993222D02*
X17643992Y-13012269D01*
X17643992Y-13012269D02*
X17548753Y-13031317D01*
X17720182Y-13088460D02*
X17739230Y-13097984D01*
X17739230Y-13097984D02*
X17777325Y-13097984D01*
X17777325Y-13097984D02*
X17796373Y-13088460D01*
X17796373Y-13088460D02*
X17805896Y-13069412D01*
X17805896Y-13069412D02*
X17805896Y-13059888D01*
X17805896Y-13059888D02*
X17796373Y-13040841D01*
X17796373Y-13040841D02*
X17777325Y-13031317D01*
X17777325Y-13031317D02*
X17748753Y-13031317D01*
X17748753Y-13031317D02*
X17729706Y-13021793D01*
X17729706Y-13021793D02*
X17720182Y-13002746D01*
X17720182Y-13002746D02*
X17720182Y-12993222D01*
X17720182Y-12993222D02*
X17729706Y-12974174D01*
X17729706Y-12974174D02*
X17748753Y-12964650D01*
X17748753Y-12964650D02*
X17777325Y-12964650D01*
X17777325Y-12964650D02*
X17796373Y-12974174D01*
X17872563Y-13174174D02*
X17882087Y-13164650D01*
X17882087Y-13164650D02*
X17901134Y-13136079D01*
X17901134Y-13136079D02*
X17910658Y-13117031D01*
X17910658Y-13117031D02*
X17920182Y-13088460D01*
X17920182Y-13088460D02*
X17929706Y-13040841D01*
X17929706Y-13040841D02*
X17929706Y-13002746D01*
X17929706Y-13002746D02*
X17920182Y-12955127D01*
X17920182Y-12955127D02*
X17910658Y-12926555D01*
X17910658Y-12926555D02*
X17901134Y-12907508D01*
X17901134Y-12907508D02*
X17882087Y-12878936D01*
X17882087Y-12878936D02*
X17872563Y-12869412D01*
D12*
X13057500Y-13230500D02*
X13057500Y-13310500D01*
X13017500Y-13270500D02*
X13097500Y-13270500D01*
D11*
X13396372Y-13161984D02*
X13415420Y-13161984D01*
X13415420Y-13161984D02*
X13434467Y-13171508D01*
X13434467Y-13171508D02*
X13443991Y-13181031D01*
X13443991Y-13181031D02*
X13453515Y-13200079D01*
X13453515Y-13200079D02*
X13463039Y-13238174D01*
X13463039Y-13238174D02*
X13463039Y-13285793D01*
X13463039Y-13285793D02*
X13453515Y-13323888D01*
X13453515Y-13323888D02*
X13443991Y-13342936D01*
X13443991Y-13342936D02*
X13434467Y-13352460D01*
X13434467Y-13352460D02*
X13415420Y-13361984D01*
X13415420Y-13361984D02*
X13396372Y-13361984D01*
X13396372Y-13361984D02*
X13377324Y-13352460D01*
X13377324Y-13352460D02*
X13367801Y-13342936D01*
X13367801Y-13342936D02*
X13358277Y-13323888D01*
X13358277Y-13323888D02*
X13348753Y-13285793D01*
X13348753Y-13285793D02*
X13348753Y-13238174D01*
X13348753Y-13238174D02*
X13358277Y-13200079D01*
X13358277Y-13200079D02*
X13367801Y-13181031D01*
X13367801Y-13181031D02*
X13377324Y-13171508D01*
X13377324Y-13171508D02*
X13396372Y-13161984D01*
X13548753Y-13342936D02*
X13558277Y-13352460D01*
X13558277Y-13352460D02*
X13548753Y-13361984D01*
X13548753Y-13361984D02*
X13539229Y-13352460D01*
X13539229Y-13352460D02*
X13548753Y-13342936D01*
X13548753Y-13342936D02*
X13548753Y-13361984D01*
X13672562Y-13247698D02*
X13653515Y-13238174D01*
X13653515Y-13238174D02*
X13643991Y-13228650D01*
X13643991Y-13228650D02*
X13634467Y-13209603D01*
X13634467Y-13209603D02*
X13634467Y-13200079D01*
X13634467Y-13200079D02*
X13643991Y-13181031D01*
X13643991Y-13181031D02*
X13653515Y-13171508D01*
X13653515Y-13171508D02*
X13672562Y-13161984D01*
X13672562Y-13161984D02*
X13710658Y-13161984D01*
X13710658Y-13161984D02*
X13729705Y-13171508D01*
X13729705Y-13171508D02*
X13739229Y-13181031D01*
X13739229Y-13181031D02*
X13748753Y-13200079D01*
X13748753Y-13200079D02*
X13748753Y-13209603D01*
X13748753Y-13209603D02*
X13739229Y-13228650D01*
X13739229Y-13228650D02*
X13729705Y-13238174D01*
X13729705Y-13238174D02*
X13710658Y-13247698D01*
X13710658Y-13247698D02*
X13672562Y-13247698D01*
X13672562Y-13247698D02*
X13653515Y-13257222D01*
X13653515Y-13257222D02*
X13643991Y-13266746D01*
X13643991Y-13266746D02*
X13634467Y-13285793D01*
X13634467Y-13285793D02*
X13634467Y-13323888D01*
X13634467Y-13323888D02*
X13643991Y-13342936D01*
X13643991Y-13342936D02*
X13653515Y-13352460D01*
X13653515Y-13352460D02*
X13672562Y-13361984D01*
X13672562Y-13361984D02*
X13710658Y-13361984D01*
X13710658Y-13361984D02*
X13729705Y-13352460D01*
X13729705Y-13352460D02*
X13739229Y-13342936D01*
X13739229Y-13342936D02*
X13748753Y-13323888D01*
X13748753Y-13323888D02*
X13748753Y-13285793D01*
X13748753Y-13285793D02*
X13739229Y-13266746D01*
X13739229Y-13266746D02*
X13729705Y-13257222D01*
X13729705Y-13257222D02*
X13710658Y-13247698D01*
X13872562Y-13161984D02*
X13891610Y-13161984D01*
X13891610Y-13161984D02*
X13910658Y-13171508D01*
X13910658Y-13171508D02*
X13920182Y-13181031D01*
X13920182Y-13181031D02*
X13929705Y-13200079D01*
X13929705Y-13200079D02*
X13939229Y-13238174D01*
X13939229Y-13238174D02*
X13939229Y-13285793D01*
X13939229Y-13285793D02*
X13929705Y-13323888D01*
X13929705Y-13323888D02*
X13920182Y-13342936D01*
X13920182Y-13342936D02*
X13910658Y-13352460D01*
X13910658Y-13352460D02*
X13891610Y-13361984D01*
X13891610Y-13361984D02*
X13872562Y-13361984D01*
X13872562Y-13361984D02*
X13853515Y-13352460D01*
X13853515Y-13352460D02*
X13843991Y-13342936D01*
X13843991Y-13342936D02*
X13834467Y-13323888D01*
X13834467Y-13323888D02*
X13824943Y-13285793D01*
X13824943Y-13285793D02*
X13824943Y-13238174D01*
X13824943Y-13238174D02*
X13834467Y-13200079D01*
X13834467Y-13200079D02*
X13843991Y-13181031D01*
X13843991Y-13181031D02*
X13853515Y-13171508D01*
X13853515Y-13171508D02*
X13872562Y-13161984D01*
X14063039Y-13161984D02*
X14082086Y-13161984D01*
X14082086Y-13161984D02*
X14101134Y-13171508D01*
X14101134Y-13171508D02*
X14110658Y-13181031D01*
X14110658Y-13181031D02*
X14120182Y-13200079D01*
X14120182Y-13200079D02*
X14129705Y-13238174D01*
X14129705Y-13238174D02*
X14129705Y-13285793D01*
X14129705Y-13285793D02*
X14120182Y-13323888D01*
X14120182Y-13323888D02*
X14110658Y-13342936D01*
X14110658Y-13342936D02*
X14101134Y-13352460D01*
X14101134Y-13352460D02*
X14082086Y-13361984D01*
X14082086Y-13361984D02*
X14063039Y-13361984D01*
X14063039Y-13361984D02*
X14043991Y-13352460D01*
X14043991Y-13352460D02*
X14034467Y-13342936D01*
X14034467Y-13342936D02*
X14024943Y-13323888D01*
X14024943Y-13323888D02*
X14015420Y-13285793D01*
X14015420Y-13285793D02*
X14015420Y-13238174D01*
X14015420Y-13238174D02*
X14024943Y-13200079D01*
X14024943Y-13200079D02*
X14034467Y-13181031D01*
X14034467Y-13181031D02*
X14043991Y-13171508D01*
X14043991Y-13171508D02*
X14063039Y-13161984D01*
X14215420Y-13361984D02*
X14215420Y-13228650D01*
X14215420Y-13247698D02*
X14224943Y-13238174D01*
X14224943Y-13238174D02*
X14243991Y-13228650D01*
X14243991Y-13228650D02*
X14272563Y-13228650D01*
X14272563Y-13228650D02*
X14291610Y-13238174D01*
X14291610Y-13238174D02*
X14301134Y-13257222D01*
X14301134Y-13257222D02*
X14301134Y-13361984D01*
X14301134Y-13257222D02*
X14310658Y-13238174D01*
X14310658Y-13238174D02*
X14329705Y-13228650D01*
X14329705Y-13228650D02*
X14358277Y-13228650D01*
X14358277Y-13228650D02*
X14377324Y-13238174D01*
X14377324Y-13238174D02*
X14386848Y-13257222D01*
X14386848Y-13257222D02*
X14386848Y-13361984D01*
X14482086Y-13361984D02*
X14482086Y-13228650D01*
X14482086Y-13247698D02*
X14491610Y-13238174D01*
X14491610Y-13238174D02*
X14510658Y-13228650D01*
X14510658Y-13228650D02*
X14539229Y-13228650D01*
X14539229Y-13228650D02*
X14558277Y-13238174D01*
X14558277Y-13238174D02*
X14567801Y-13257222D01*
X14567801Y-13257222D02*
X14567801Y-13361984D01*
X14567801Y-13257222D02*
X14577324Y-13238174D01*
X14577324Y-13238174D02*
X14596372Y-13228650D01*
X14596372Y-13228650D02*
X14624943Y-13228650D01*
X14624943Y-13228650D02*
X14643991Y-13238174D01*
X14643991Y-13238174D02*
X14653515Y-13257222D01*
X14653515Y-13257222D02*
X14653515Y-13361984D01*
X15043991Y-13152460D02*
X14872563Y-13409603D01*
X15301134Y-13161984D02*
X15320182Y-13161984D01*
X15320182Y-13161984D02*
X15339229Y-13171508D01*
X15339229Y-13171508D02*
X15348753Y-13181031D01*
X15348753Y-13181031D02*
X15358277Y-13200079D01*
X15358277Y-13200079D02*
X15367801Y-13238174D01*
X15367801Y-13238174D02*
X15367801Y-13285793D01*
X15367801Y-13285793D02*
X15358277Y-13323888D01*
X15358277Y-13323888D02*
X15348753Y-13342936D01*
X15348753Y-13342936D02*
X15339229Y-13352460D01*
X15339229Y-13352460D02*
X15320182Y-13361984D01*
X15320182Y-13361984D02*
X15301134Y-13361984D01*
X15301134Y-13361984D02*
X15282086Y-13352460D01*
X15282086Y-13352460D02*
X15272563Y-13342936D01*
X15272563Y-13342936D02*
X15263039Y-13323888D01*
X15263039Y-13323888D02*
X15253515Y-13285793D01*
X15253515Y-13285793D02*
X15253515Y-13238174D01*
X15253515Y-13238174D02*
X15263039Y-13200079D01*
X15263039Y-13200079D02*
X15272563Y-13181031D01*
X15272563Y-13181031D02*
X15282086Y-13171508D01*
X15282086Y-13171508D02*
X15301134Y-13161984D01*
X15453515Y-13342936D02*
X15463039Y-13352460D01*
X15463039Y-13352460D02*
X15453515Y-13361984D01*
X15453515Y-13361984D02*
X15443991Y-13352460D01*
X15443991Y-13352460D02*
X15453515Y-13342936D01*
X15453515Y-13342936D02*
X15453515Y-13361984D01*
X15586848Y-13161984D02*
X15605896Y-13161984D01*
X15605896Y-13161984D02*
X15624944Y-13171508D01*
X15624944Y-13171508D02*
X15634467Y-13181031D01*
X15634467Y-13181031D02*
X15643991Y-13200079D01*
X15643991Y-13200079D02*
X15653515Y-13238174D01*
X15653515Y-13238174D02*
X15653515Y-13285793D01*
X15653515Y-13285793D02*
X15643991Y-13323888D01*
X15643991Y-13323888D02*
X15634467Y-13342936D01*
X15634467Y-13342936D02*
X15624944Y-13352460D01*
X15624944Y-13352460D02*
X15605896Y-13361984D01*
X15605896Y-13361984D02*
X15586848Y-13361984D01*
X15586848Y-13361984D02*
X15567801Y-13352460D01*
X15567801Y-13352460D02*
X15558277Y-13342936D01*
X15558277Y-13342936D02*
X15548753Y-13323888D01*
X15548753Y-13323888D02*
X15539229Y-13285793D01*
X15539229Y-13285793D02*
X15539229Y-13238174D01*
X15539229Y-13238174D02*
X15548753Y-13200079D01*
X15548753Y-13200079D02*
X15558277Y-13181031D01*
X15558277Y-13181031D02*
X15567801Y-13171508D01*
X15567801Y-13171508D02*
X15586848Y-13161984D01*
X15720182Y-13161984D02*
X15843991Y-13161984D01*
X15843991Y-13161984D02*
X15777325Y-13238174D01*
X15777325Y-13238174D02*
X15805896Y-13238174D01*
X15805896Y-13238174D02*
X15824944Y-13247698D01*
X15824944Y-13247698D02*
X15834467Y-13257222D01*
X15834467Y-13257222D02*
X15843991Y-13276269D01*
X15843991Y-13276269D02*
X15843991Y-13323888D01*
X15843991Y-13323888D02*
X15834467Y-13342936D01*
X15834467Y-13342936D02*
X15824944Y-13352460D01*
X15824944Y-13352460D02*
X15805896Y-13361984D01*
X15805896Y-13361984D02*
X15748753Y-13361984D01*
X15748753Y-13361984D02*
X15729706Y-13352460D01*
X15729706Y-13352460D02*
X15720182Y-13342936D01*
X16034467Y-13361984D02*
X15920182Y-13361984D01*
X15977325Y-13361984D02*
X15977325Y-13161984D01*
X15977325Y-13161984D02*
X15958277Y-13190555D01*
X15958277Y-13190555D02*
X15939229Y-13209603D01*
X15939229Y-13209603D02*
X15920182Y-13219127D01*
X16215420Y-13161984D02*
X16120182Y-13161984D01*
X16120182Y-13161984D02*
X16110658Y-13257222D01*
X16110658Y-13257222D02*
X16120182Y-13247698D01*
X16120182Y-13247698D02*
X16139229Y-13238174D01*
X16139229Y-13238174D02*
X16186848Y-13238174D01*
X16186848Y-13238174D02*
X16205896Y-13247698D01*
X16205896Y-13247698D02*
X16215420Y-13257222D01*
X16215420Y-13257222D02*
X16224944Y-13276269D01*
X16224944Y-13276269D02*
X16224944Y-13323888D01*
X16224944Y-13323888D02*
X16215420Y-13342936D01*
X16215420Y-13342936D02*
X16205896Y-13352460D01*
X16205896Y-13352460D02*
X16186848Y-13361984D01*
X16186848Y-13361984D02*
X16139229Y-13361984D01*
X16139229Y-13361984D02*
X16120182Y-13352460D01*
X16120182Y-13352460D02*
X16110658Y-13342936D01*
X16301134Y-13161984D02*
X16301134Y-13200079D01*
X16377325Y-13161984D02*
X16377325Y-13200079D01*
X16672563Y-13438174D02*
X16663039Y-13428650D01*
X16663039Y-13428650D02*
X16643991Y-13400079D01*
X16643991Y-13400079D02*
X16634468Y-13381031D01*
X16634468Y-13381031D02*
X16624944Y-13352460D01*
X16624944Y-13352460D02*
X16615420Y-13304841D01*
X16615420Y-13304841D02*
X16615420Y-13266746D01*
X16615420Y-13266746D02*
X16624944Y-13219127D01*
X16624944Y-13219127D02*
X16634468Y-13190555D01*
X16634468Y-13190555D02*
X16643991Y-13171508D01*
X16643991Y-13171508D02*
X16663039Y-13142936D01*
X16663039Y-13142936D02*
X16672563Y-13133412D01*
X16834468Y-13228650D02*
X16834468Y-13361984D01*
X16786849Y-13152460D02*
X16739229Y-13295317D01*
X16739229Y-13295317D02*
X16863039Y-13295317D01*
X17091611Y-13361984D02*
X17091611Y-13161984D01*
X17177325Y-13361984D02*
X17177325Y-13257222D01*
X17177325Y-13257222D02*
X17167801Y-13238174D01*
X17167801Y-13238174D02*
X17148753Y-13228650D01*
X17148753Y-13228650D02*
X17120182Y-13228650D01*
X17120182Y-13228650D02*
X17101134Y-13238174D01*
X17101134Y-13238174D02*
X17091611Y-13247698D01*
X17301134Y-13361984D02*
X17282087Y-13352460D01*
X17282087Y-13352460D02*
X17272563Y-13342936D01*
X17272563Y-13342936D02*
X17263039Y-13323888D01*
X17263039Y-13323888D02*
X17263039Y-13266746D01*
X17263039Y-13266746D02*
X17272563Y-13247698D01*
X17272563Y-13247698D02*
X17282087Y-13238174D01*
X17282087Y-13238174D02*
X17301134Y-13228650D01*
X17301134Y-13228650D02*
X17329706Y-13228650D01*
X17329706Y-13228650D02*
X17348753Y-13238174D01*
X17348753Y-13238174D02*
X17358277Y-13247698D01*
X17358277Y-13247698D02*
X17367801Y-13266746D01*
X17367801Y-13266746D02*
X17367801Y-13323888D01*
X17367801Y-13323888D02*
X17358277Y-13342936D01*
X17358277Y-13342936D02*
X17348753Y-13352460D01*
X17348753Y-13352460D02*
X17329706Y-13361984D01*
X17329706Y-13361984D02*
X17301134Y-13361984D01*
X17482087Y-13361984D02*
X17463039Y-13352460D01*
X17463039Y-13352460D02*
X17453515Y-13333412D01*
X17453515Y-13333412D02*
X17453515Y-13161984D01*
X17634468Y-13352460D02*
X17615420Y-13361984D01*
X17615420Y-13361984D02*
X17577325Y-13361984D01*
X17577325Y-13361984D02*
X17558277Y-13352460D01*
X17558277Y-13352460D02*
X17548753Y-13333412D01*
X17548753Y-13333412D02*
X17548753Y-13257222D01*
X17548753Y-13257222D02*
X17558277Y-13238174D01*
X17558277Y-13238174D02*
X17577325Y-13228650D01*
X17577325Y-13228650D02*
X17615420Y-13228650D01*
X17615420Y-13228650D02*
X17634468Y-13238174D01*
X17634468Y-13238174D02*
X17643992Y-13257222D01*
X17643992Y-13257222D02*
X17643992Y-13276269D01*
X17643992Y-13276269D02*
X17548753Y-13295317D01*
X17720182Y-13352460D02*
X17739230Y-13361984D01*
X17739230Y-13361984D02*
X17777325Y-13361984D01*
X17777325Y-13361984D02*
X17796373Y-13352460D01*
X17796373Y-13352460D02*
X17805896Y-13333412D01*
X17805896Y-13333412D02*
X17805896Y-13323888D01*
X17805896Y-13323888D02*
X17796373Y-13304841D01*
X17796373Y-13304841D02*
X17777325Y-13295317D01*
X17777325Y-13295317D02*
X17748753Y-13295317D01*
X17748753Y-13295317D02*
X17729706Y-13285793D01*
X17729706Y-13285793D02*
X17720182Y-13266746D01*
X17720182Y-13266746D02*
X17720182Y-13257222D01*
X17720182Y-13257222D02*
X17729706Y-13238174D01*
X17729706Y-13238174D02*
X17748753Y-13228650D01*
X17748753Y-13228650D02*
X17777325Y-13228650D01*
X17777325Y-13228650D02*
X17796373Y-13238174D01*
X17872563Y-13438174D02*
X17882087Y-13428650D01*
X17882087Y-13428650D02*
X17901134Y-13400079D01*
X17901134Y-13400079D02*
X17910658Y-13381031D01*
X17910658Y-13381031D02*
X17920182Y-13352460D01*
X17920182Y-13352460D02*
X17929706Y-13304841D01*
X17929706Y-13304841D02*
X17929706Y-13266746D01*
X17929706Y-13266746D02*
X17920182Y-13219127D01*
X17920182Y-13219127D02*
X17910658Y-13190555D01*
X17910658Y-13190555D02*
X17901134Y-13171508D01*
X17901134Y-13171508D02*
X17882087Y-13142936D01*
X17882087Y-13142936D02*
X17872563Y-13133412D01*
D12*
X13085597Y-13563237D02*
X13085597Y-13505763D01*
X13028123Y-13505763D01*
X13028123Y-13563237D01*
X13085597Y-13563237D01*
D11*
X13396372Y-13425984D02*
X13415420Y-13425984D01*
X13415420Y-13425984D02*
X13434467Y-13435508D01*
X13434467Y-13435508D02*
X13443991Y-13445031D01*
X13443991Y-13445031D02*
X13453515Y-13464079D01*
X13453515Y-13464079D02*
X13463039Y-13502174D01*
X13463039Y-13502174D02*
X13463039Y-13549793D01*
X13463039Y-13549793D02*
X13453515Y-13587888D01*
X13453515Y-13587888D02*
X13443991Y-13606936D01*
X13443991Y-13606936D02*
X13434467Y-13616460D01*
X13434467Y-13616460D02*
X13415420Y-13625984D01*
X13415420Y-13625984D02*
X13396372Y-13625984D01*
X13396372Y-13625984D02*
X13377324Y-13616460D01*
X13377324Y-13616460D02*
X13367801Y-13606936D01*
X13367801Y-13606936D02*
X13358277Y-13587888D01*
X13358277Y-13587888D02*
X13348753Y-13549793D01*
X13348753Y-13549793D02*
X13348753Y-13502174D01*
X13348753Y-13502174D02*
X13358277Y-13464079D01*
X13358277Y-13464079D02*
X13367801Y-13445031D01*
X13367801Y-13445031D02*
X13377324Y-13435508D01*
X13377324Y-13435508D02*
X13396372Y-13425984D01*
X13548753Y-13606936D02*
X13558277Y-13616460D01*
X13558277Y-13616460D02*
X13548753Y-13625984D01*
X13548753Y-13625984D02*
X13539229Y-13616460D01*
X13539229Y-13616460D02*
X13548753Y-13606936D01*
X13548753Y-13606936D02*
X13548753Y-13625984D01*
X13672562Y-13511698D02*
X13653515Y-13502174D01*
X13653515Y-13502174D02*
X13643991Y-13492650D01*
X13643991Y-13492650D02*
X13634467Y-13473603D01*
X13634467Y-13473603D02*
X13634467Y-13464079D01*
X13634467Y-13464079D02*
X13643991Y-13445031D01*
X13643991Y-13445031D02*
X13653515Y-13435508D01*
X13653515Y-13435508D02*
X13672562Y-13425984D01*
X13672562Y-13425984D02*
X13710658Y-13425984D01*
X13710658Y-13425984D02*
X13729705Y-13435508D01*
X13729705Y-13435508D02*
X13739229Y-13445031D01*
X13739229Y-13445031D02*
X13748753Y-13464079D01*
X13748753Y-13464079D02*
X13748753Y-13473603D01*
X13748753Y-13473603D02*
X13739229Y-13492650D01*
X13739229Y-13492650D02*
X13729705Y-13502174D01*
X13729705Y-13502174D02*
X13710658Y-13511698D01*
X13710658Y-13511698D02*
X13672562Y-13511698D01*
X13672562Y-13511698D02*
X13653515Y-13521222D01*
X13653515Y-13521222D02*
X13643991Y-13530746D01*
X13643991Y-13530746D02*
X13634467Y-13549793D01*
X13634467Y-13549793D02*
X13634467Y-13587888D01*
X13634467Y-13587888D02*
X13643991Y-13606936D01*
X13643991Y-13606936D02*
X13653515Y-13616460D01*
X13653515Y-13616460D02*
X13672562Y-13625984D01*
X13672562Y-13625984D02*
X13710658Y-13625984D01*
X13710658Y-13625984D02*
X13729705Y-13616460D01*
X13729705Y-13616460D02*
X13739229Y-13606936D01*
X13739229Y-13606936D02*
X13748753Y-13587888D01*
X13748753Y-13587888D02*
X13748753Y-13549793D01*
X13748753Y-13549793D02*
X13739229Y-13530746D01*
X13739229Y-13530746D02*
X13729705Y-13521222D01*
X13729705Y-13521222D02*
X13710658Y-13511698D01*
X13939229Y-13625984D02*
X13824943Y-13625984D01*
X13882086Y-13625984D02*
X13882086Y-13425984D01*
X13882086Y-13425984D02*
X13863039Y-13454555D01*
X13863039Y-13454555D02*
X13843991Y-13473603D01*
X13843991Y-13473603D02*
X13824943Y-13483127D01*
X14005896Y-13425984D02*
X14129705Y-13425984D01*
X14129705Y-13425984D02*
X14063039Y-13502174D01*
X14063039Y-13502174D02*
X14091610Y-13502174D01*
X14091610Y-13502174D02*
X14110658Y-13511698D01*
X14110658Y-13511698D02*
X14120182Y-13521222D01*
X14120182Y-13521222D02*
X14129705Y-13540269D01*
X14129705Y-13540269D02*
X14129705Y-13587888D01*
X14129705Y-13587888D02*
X14120182Y-13606936D01*
X14120182Y-13606936D02*
X14110658Y-13616460D01*
X14110658Y-13616460D02*
X14091610Y-13625984D01*
X14091610Y-13625984D02*
X14034467Y-13625984D01*
X14034467Y-13625984D02*
X14015420Y-13616460D01*
X14015420Y-13616460D02*
X14005896Y-13606936D01*
X14215420Y-13625984D02*
X14215420Y-13492650D01*
X14215420Y-13511698D02*
X14224943Y-13502174D01*
X14224943Y-13502174D02*
X14243991Y-13492650D01*
X14243991Y-13492650D02*
X14272563Y-13492650D01*
X14272563Y-13492650D02*
X14291610Y-13502174D01*
X14291610Y-13502174D02*
X14301134Y-13521222D01*
X14301134Y-13521222D02*
X14301134Y-13625984D01*
X14301134Y-13521222D02*
X14310658Y-13502174D01*
X14310658Y-13502174D02*
X14329705Y-13492650D01*
X14329705Y-13492650D02*
X14358277Y-13492650D01*
X14358277Y-13492650D02*
X14377324Y-13502174D01*
X14377324Y-13502174D02*
X14386848Y-13521222D01*
X14386848Y-13521222D02*
X14386848Y-13625984D01*
X14482086Y-13625984D02*
X14482086Y-13492650D01*
X14482086Y-13511698D02*
X14491610Y-13502174D01*
X14491610Y-13502174D02*
X14510658Y-13492650D01*
X14510658Y-13492650D02*
X14539229Y-13492650D01*
X14539229Y-13492650D02*
X14558277Y-13502174D01*
X14558277Y-13502174D02*
X14567801Y-13521222D01*
X14567801Y-13521222D02*
X14567801Y-13625984D01*
X14567801Y-13521222D02*
X14577324Y-13502174D01*
X14577324Y-13502174D02*
X14596372Y-13492650D01*
X14596372Y-13492650D02*
X14624943Y-13492650D01*
X14624943Y-13492650D02*
X14643991Y-13502174D01*
X14643991Y-13502174D02*
X14653515Y-13521222D01*
X14653515Y-13521222D02*
X14653515Y-13625984D01*
X15043991Y-13416460D02*
X14872563Y-13673603D01*
X15301134Y-13425984D02*
X15320182Y-13425984D01*
X15320182Y-13425984D02*
X15339229Y-13435508D01*
X15339229Y-13435508D02*
X15348753Y-13445031D01*
X15348753Y-13445031D02*
X15358277Y-13464079D01*
X15358277Y-13464079D02*
X15367801Y-13502174D01*
X15367801Y-13502174D02*
X15367801Y-13549793D01*
X15367801Y-13549793D02*
X15358277Y-13587888D01*
X15358277Y-13587888D02*
X15348753Y-13606936D01*
X15348753Y-13606936D02*
X15339229Y-13616460D01*
X15339229Y-13616460D02*
X15320182Y-13625984D01*
X15320182Y-13625984D02*
X15301134Y-13625984D01*
X15301134Y-13625984D02*
X15282086Y-13616460D01*
X15282086Y-13616460D02*
X15272563Y-13606936D01*
X15272563Y-13606936D02*
X15263039Y-13587888D01*
X15263039Y-13587888D02*
X15253515Y-13549793D01*
X15253515Y-13549793D02*
X15253515Y-13502174D01*
X15253515Y-13502174D02*
X15263039Y-13464079D01*
X15263039Y-13464079D02*
X15272563Y-13445031D01*
X15272563Y-13445031D02*
X15282086Y-13435508D01*
X15282086Y-13435508D02*
X15301134Y-13425984D01*
X15453515Y-13606936D02*
X15463039Y-13616460D01*
X15463039Y-13616460D02*
X15453515Y-13625984D01*
X15453515Y-13625984D02*
X15443991Y-13616460D01*
X15443991Y-13616460D02*
X15453515Y-13606936D01*
X15453515Y-13606936D02*
X15453515Y-13625984D01*
X15586848Y-13425984D02*
X15605896Y-13425984D01*
X15605896Y-13425984D02*
X15624944Y-13435508D01*
X15624944Y-13435508D02*
X15634467Y-13445031D01*
X15634467Y-13445031D02*
X15643991Y-13464079D01*
X15643991Y-13464079D02*
X15653515Y-13502174D01*
X15653515Y-13502174D02*
X15653515Y-13549793D01*
X15653515Y-13549793D02*
X15643991Y-13587888D01*
X15643991Y-13587888D02*
X15634467Y-13606936D01*
X15634467Y-13606936D02*
X15624944Y-13616460D01*
X15624944Y-13616460D02*
X15605896Y-13625984D01*
X15605896Y-13625984D02*
X15586848Y-13625984D01*
X15586848Y-13625984D02*
X15567801Y-13616460D01*
X15567801Y-13616460D02*
X15558277Y-13606936D01*
X15558277Y-13606936D02*
X15548753Y-13587888D01*
X15548753Y-13587888D02*
X15539229Y-13549793D01*
X15539229Y-13549793D02*
X15539229Y-13502174D01*
X15539229Y-13502174D02*
X15548753Y-13464079D01*
X15548753Y-13464079D02*
X15558277Y-13445031D01*
X15558277Y-13445031D02*
X15567801Y-13435508D01*
X15567801Y-13435508D02*
X15586848Y-13425984D01*
X15720182Y-13425984D02*
X15843991Y-13425984D01*
X15843991Y-13425984D02*
X15777325Y-13502174D01*
X15777325Y-13502174D02*
X15805896Y-13502174D01*
X15805896Y-13502174D02*
X15824944Y-13511698D01*
X15824944Y-13511698D02*
X15834467Y-13521222D01*
X15834467Y-13521222D02*
X15843991Y-13540269D01*
X15843991Y-13540269D02*
X15843991Y-13587888D01*
X15843991Y-13587888D02*
X15834467Y-13606936D01*
X15834467Y-13606936D02*
X15824944Y-13616460D01*
X15824944Y-13616460D02*
X15805896Y-13625984D01*
X15805896Y-13625984D02*
X15748753Y-13625984D01*
X15748753Y-13625984D02*
X15729706Y-13616460D01*
X15729706Y-13616460D02*
X15720182Y-13606936D01*
X15920182Y-13445031D02*
X15929706Y-13435508D01*
X15929706Y-13435508D02*
X15948753Y-13425984D01*
X15948753Y-13425984D02*
X15996372Y-13425984D01*
X15996372Y-13425984D02*
X16015420Y-13435508D01*
X16015420Y-13435508D02*
X16024944Y-13445031D01*
X16024944Y-13445031D02*
X16034467Y-13464079D01*
X16034467Y-13464079D02*
X16034467Y-13483127D01*
X16034467Y-13483127D02*
X16024944Y-13511698D01*
X16024944Y-13511698D02*
X15910658Y-13625984D01*
X15910658Y-13625984D02*
X16034467Y-13625984D01*
X16158277Y-13425984D02*
X16177325Y-13425984D01*
X16177325Y-13425984D02*
X16196372Y-13435508D01*
X16196372Y-13435508D02*
X16205896Y-13445031D01*
X16205896Y-13445031D02*
X16215420Y-13464079D01*
X16215420Y-13464079D02*
X16224944Y-13502174D01*
X16224944Y-13502174D02*
X16224944Y-13549793D01*
X16224944Y-13549793D02*
X16215420Y-13587888D01*
X16215420Y-13587888D02*
X16205896Y-13606936D01*
X16205896Y-13606936D02*
X16196372Y-13616460D01*
X16196372Y-13616460D02*
X16177325Y-13625984D01*
X16177325Y-13625984D02*
X16158277Y-13625984D01*
X16158277Y-13625984D02*
X16139229Y-13616460D01*
X16139229Y-13616460D02*
X16129706Y-13606936D01*
X16129706Y-13606936D02*
X16120182Y-13587888D01*
X16120182Y-13587888D02*
X16110658Y-13549793D01*
X16110658Y-13549793D02*
X16110658Y-13502174D01*
X16110658Y-13502174D02*
X16120182Y-13464079D01*
X16120182Y-13464079D02*
X16129706Y-13445031D01*
X16129706Y-13445031D02*
X16139229Y-13435508D01*
X16139229Y-13435508D02*
X16158277Y-13425984D01*
X16301134Y-13425984D02*
X16301134Y-13464079D01*
X16377325Y-13425984D02*
X16377325Y-13464079D01*
X16672563Y-13702174D02*
X16663039Y-13692650D01*
X16663039Y-13692650D02*
X16643991Y-13664079D01*
X16643991Y-13664079D02*
X16634468Y-13645031D01*
X16634468Y-13645031D02*
X16624944Y-13616460D01*
X16624944Y-13616460D02*
X16615420Y-13568841D01*
X16615420Y-13568841D02*
X16615420Y-13530746D01*
X16615420Y-13530746D02*
X16624944Y-13483127D01*
X16624944Y-13483127D02*
X16634468Y-13454555D01*
X16634468Y-13454555D02*
X16643991Y-13435508D01*
X16643991Y-13435508D02*
X16663039Y-13406936D01*
X16663039Y-13406936D02*
X16672563Y-13397412D01*
X16853515Y-13625984D02*
X16739229Y-13625984D01*
X16796372Y-13625984D02*
X16796372Y-13425984D01*
X16796372Y-13425984D02*
X16777325Y-13454555D01*
X16777325Y-13454555D02*
X16758277Y-13473603D01*
X16758277Y-13473603D02*
X16739229Y-13483127D01*
X17024944Y-13425984D02*
X16986849Y-13425984D01*
X16986849Y-13425984D02*
X16967801Y-13435508D01*
X16967801Y-13435508D02*
X16958277Y-13445031D01*
X16958277Y-13445031D02*
X16939230Y-13473603D01*
X16939230Y-13473603D02*
X16929706Y-13511698D01*
X16929706Y-13511698D02*
X16929706Y-13587888D01*
X16929706Y-13587888D02*
X16939230Y-13606936D01*
X16939230Y-13606936D02*
X16948753Y-13616460D01*
X16948753Y-13616460D02*
X16967801Y-13625984D01*
X16967801Y-13625984D02*
X17005896Y-13625984D01*
X17005896Y-13625984D02*
X17024944Y-13616460D01*
X17024944Y-13616460D02*
X17034468Y-13606936D01*
X17034468Y-13606936D02*
X17043991Y-13587888D01*
X17043991Y-13587888D02*
X17043991Y-13540269D01*
X17043991Y-13540269D02*
X17034468Y-13521222D01*
X17034468Y-13521222D02*
X17024944Y-13511698D01*
X17024944Y-13511698D02*
X17005896Y-13502174D01*
X17005896Y-13502174D02*
X16967801Y-13502174D01*
X16967801Y-13502174D02*
X16948753Y-13511698D01*
X16948753Y-13511698D02*
X16939230Y-13521222D01*
X16939230Y-13521222D02*
X16929706Y-13540269D01*
X17282087Y-13625984D02*
X17282087Y-13425984D01*
X17367801Y-13625984D02*
X17367801Y-13521222D01*
X17367801Y-13521222D02*
X17358277Y-13502174D01*
X17358277Y-13502174D02*
X17339230Y-13492650D01*
X17339230Y-13492650D02*
X17310658Y-13492650D01*
X17310658Y-13492650D02*
X17291611Y-13502174D01*
X17291611Y-13502174D02*
X17282087Y-13511698D01*
X17491611Y-13625984D02*
X17472563Y-13616460D01*
X17472563Y-13616460D02*
X17463039Y-13606936D01*
X17463039Y-13606936D02*
X17453515Y-13587888D01*
X17453515Y-13587888D02*
X17453515Y-13530746D01*
X17453515Y-13530746D02*
X17463039Y-13511698D01*
X17463039Y-13511698D02*
X17472563Y-13502174D01*
X17472563Y-13502174D02*
X17491611Y-13492650D01*
X17491611Y-13492650D02*
X17520182Y-13492650D01*
X17520182Y-13492650D02*
X17539230Y-13502174D01*
X17539230Y-13502174D02*
X17548753Y-13511698D01*
X17548753Y-13511698D02*
X17558277Y-13530746D01*
X17558277Y-13530746D02*
X17558277Y-13587888D01*
X17558277Y-13587888D02*
X17548753Y-13606936D01*
X17548753Y-13606936D02*
X17539230Y-13616460D01*
X17539230Y-13616460D02*
X17520182Y-13625984D01*
X17520182Y-13625984D02*
X17491611Y-13625984D01*
X17672563Y-13625984D02*
X17653515Y-13616460D01*
X17653515Y-13616460D02*
X17643992Y-13597412D01*
X17643992Y-13597412D02*
X17643992Y-13425984D01*
X17824944Y-13616460D02*
X17805896Y-13625984D01*
X17805896Y-13625984D02*
X17767801Y-13625984D01*
X17767801Y-13625984D02*
X17748753Y-13616460D01*
X17748753Y-13616460D02*
X17739230Y-13597412D01*
X17739230Y-13597412D02*
X17739230Y-13521222D01*
X17739230Y-13521222D02*
X17748753Y-13502174D01*
X17748753Y-13502174D02*
X17767801Y-13492650D01*
X17767801Y-13492650D02*
X17805896Y-13492650D01*
X17805896Y-13492650D02*
X17824944Y-13502174D01*
X17824944Y-13502174D02*
X17834468Y-13521222D01*
X17834468Y-13521222D02*
X17834468Y-13540269D01*
X17834468Y-13540269D02*
X17739230Y-13559317D01*
X17910658Y-13616460D02*
X17929706Y-13625984D01*
X17929706Y-13625984D02*
X17967801Y-13625984D01*
X17967801Y-13625984D02*
X17986849Y-13616460D01*
X17986849Y-13616460D02*
X17996373Y-13597412D01*
X17996373Y-13597412D02*
X17996373Y-13587888D01*
X17996373Y-13587888D02*
X17986849Y-13568841D01*
X17986849Y-13568841D02*
X17967801Y-13559317D01*
X17967801Y-13559317D02*
X17939230Y-13559317D01*
X17939230Y-13559317D02*
X17920182Y-13549793D01*
X17920182Y-13549793D02*
X17910658Y-13530746D01*
X17910658Y-13530746D02*
X17910658Y-13521222D01*
X17910658Y-13521222D02*
X17920182Y-13502174D01*
X17920182Y-13502174D02*
X17939230Y-13492650D01*
X17939230Y-13492650D02*
X17967801Y-13492650D01*
X17967801Y-13492650D02*
X17986849Y-13502174D01*
X18063039Y-13702174D02*
X18072563Y-13692650D01*
X18072563Y-13692650D02*
X18091611Y-13664079D01*
X18091611Y-13664079D02*
X18101134Y-13645031D01*
X18101134Y-13645031D02*
X18110658Y-13616460D01*
X18110658Y-13616460D02*
X18120182Y-13568841D01*
X18120182Y-13568841D02*
X18120182Y-13530746D01*
X18120182Y-13530746D02*
X18110658Y-13483127D01*
X18110658Y-13483127D02*
X18101134Y-13454555D01*
X18101134Y-13454555D02*
X18091611Y-13435508D01*
X18091611Y-13435508D02*
X18072563Y-13406936D01*
X18072563Y-13406936D02*
X18063039Y-13397412D01*
D12*
X13052500Y-13843500D02*
X13097500Y-13798500D01*
X13052500Y-13753500D01*
X13007500Y-13798500D01*
X13052500Y-13843500D01*
D11*
X13396372Y-13689984D02*
X13415420Y-13689984D01*
X13415420Y-13689984D02*
X13434467Y-13699508D01*
X13434467Y-13699508D02*
X13443991Y-13709031D01*
X13443991Y-13709031D02*
X13453515Y-13728079D01*
X13453515Y-13728079D02*
X13463039Y-13766174D01*
X13463039Y-13766174D02*
X13463039Y-13813793D01*
X13463039Y-13813793D02*
X13453515Y-13851888D01*
X13453515Y-13851888D02*
X13443991Y-13870936D01*
X13443991Y-13870936D02*
X13434467Y-13880460D01*
X13434467Y-13880460D02*
X13415420Y-13889984D01*
X13415420Y-13889984D02*
X13396372Y-13889984D01*
X13396372Y-13889984D02*
X13377324Y-13880460D01*
X13377324Y-13880460D02*
X13367801Y-13870936D01*
X13367801Y-13870936D02*
X13358277Y-13851888D01*
X13358277Y-13851888D02*
X13348753Y-13813793D01*
X13348753Y-13813793D02*
X13348753Y-13766174D01*
X13348753Y-13766174D02*
X13358277Y-13728079D01*
X13358277Y-13728079D02*
X13367801Y-13709031D01*
X13367801Y-13709031D02*
X13377324Y-13699508D01*
X13377324Y-13699508D02*
X13396372Y-13689984D01*
X13548753Y-13870936D02*
X13558277Y-13880460D01*
X13558277Y-13880460D02*
X13548753Y-13889984D01*
X13548753Y-13889984D02*
X13539229Y-13880460D01*
X13539229Y-13880460D02*
X13548753Y-13870936D01*
X13548753Y-13870936D02*
X13548753Y-13889984D01*
X13653515Y-13889984D02*
X13691610Y-13889984D01*
X13691610Y-13889984D02*
X13710658Y-13880460D01*
X13710658Y-13880460D02*
X13720182Y-13870936D01*
X13720182Y-13870936D02*
X13739229Y-13842365D01*
X13739229Y-13842365D02*
X13748753Y-13804269D01*
X13748753Y-13804269D02*
X13748753Y-13728079D01*
X13748753Y-13728079D02*
X13739229Y-13709031D01*
X13739229Y-13709031D02*
X13729705Y-13699508D01*
X13729705Y-13699508D02*
X13710658Y-13689984D01*
X13710658Y-13689984D02*
X13672562Y-13689984D01*
X13672562Y-13689984D02*
X13653515Y-13699508D01*
X13653515Y-13699508D02*
X13643991Y-13709031D01*
X13643991Y-13709031D02*
X13634467Y-13728079D01*
X13634467Y-13728079D02*
X13634467Y-13775698D01*
X13634467Y-13775698D02*
X13643991Y-13794746D01*
X13643991Y-13794746D02*
X13653515Y-13804269D01*
X13653515Y-13804269D02*
X13672562Y-13813793D01*
X13672562Y-13813793D02*
X13710658Y-13813793D01*
X13710658Y-13813793D02*
X13729705Y-13804269D01*
X13729705Y-13804269D02*
X13739229Y-13794746D01*
X13739229Y-13794746D02*
X13748753Y-13775698D01*
X13872562Y-13689984D02*
X13891610Y-13689984D01*
X13891610Y-13689984D02*
X13910658Y-13699508D01*
X13910658Y-13699508D02*
X13920182Y-13709031D01*
X13920182Y-13709031D02*
X13929705Y-13728079D01*
X13929705Y-13728079D02*
X13939229Y-13766174D01*
X13939229Y-13766174D02*
X13939229Y-13813793D01*
X13939229Y-13813793D02*
X13929705Y-13851888D01*
X13929705Y-13851888D02*
X13920182Y-13870936D01*
X13920182Y-13870936D02*
X13910658Y-13880460D01*
X13910658Y-13880460D02*
X13891610Y-13889984D01*
X13891610Y-13889984D02*
X13872562Y-13889984D01*
X13872562Y-13889984D02*
X13853515Y-13880460D01*
X13853515Y-13880460D02*
X13843991Y-13870936D01*
X13843991Y-13870936D02*
X13834467Y-13851888D01*
X13834467Y-13851888D02*
X13824943Y-13813793D01*
X13824943Y-13813793D02*
X13824943Y-13766174D01*
X13824943Y-13766174D02*
X13834467Y-13728079D01*
X13834467Y-13728079D02*
X13843991Y-13709031D01*
X13843991Y-13709031D02*
X13853515Y-13699508D01*
X13853515Y-13699508D02*
X13872562Y-13689984D01*
X14063039Y-13689984D02*
X14082086Y-13689984D01*
X14082086Y-13689984D02*
X14101134Y-13699508D01*
X14101134Y-13699508D02*
X14110658Y-13709031D01*
X14110658Y-13709031D02*
X14120182Y-13728079D01*
X14120182Y-13728079D02*
X14129705Y-13766174D01*
X14129705Y-13766174D02*
X14129705Y-13813793D01*
X14129705Y-13813793D02*
X14120182Y-13851888D01*
X14120182Y-13851888D02*
X14110658Y-13870936D01*
X14110658Y-13870936D02*
X14101134Y-13880460D01*
X14101134Y-13880460D02*
X14082086Y-13889984D01*
X14082086Y-13889984D02*
X14063039Y-13889984D01*
X14063039Y-13889984D02*
X14043991Y-13880460D01*
X14043991Y-13880460D02*
X14034467Y-13870936D01*
X14034467Y-13870936D02*
X14024943Y-13851888D01*
X14024943Y-13851888D02*
X14015420Y-13813793D01*
X14015420Y-13813793D02*
X14015420Y-13766174D01*
X14015420Y-13766174D02*
X14024943Y-13728079D01*
X14024943Y-13728079D02*
X14034467Y-13709031D01*
X14034467Y-13709031D02*
X14043991Y-13699508D01*
X14043991Y-13699508D02*
X14063039Y-13689984D01*
X14215420Y-13889984D02*
X14215420Y-13756650D01*
X14215420Y-13775698D02*
X14224943Y-13766174D01*
X14224943Y-13766174D02*
X14243991Y-13756650D01*
X14243991Y-13756650D02*
X14272563Y-13756650D01*
X14272563Y-13756650D02*
X14291610Y-13766174D01*
X14291610Y-13766174D02*
X14301134Y-13785222D01*
X14301134Y-13785222D02*
X14301134Y-13889984D01*
X14301134Y-13785222D02*
X14310658Y-13766174D01*
X14310658Y-13766174D02*
X14329705Y-13756650D01*
X14329705Y-13756650D02*
X14358277Y-13756650D01*
X14358277Y-13756650D02*
X14377324Y-13766174D01*
X14377324Y-13766174D02*
X14386848Y-13785222D01*
X14386848Y-13785222D02*
X14386848Y-13889984D01*
X14482086Y-13889984D02*
X14482086Y-13756650D01*
X14482086Y-13775698D02*
X14491610Y-13766174D01*
X14491610Y-13766174D02*
X14510658Y-13756650D01*
X14510658Y-13756650D02*
X14539229Y-13756650D01*
X14539229Y-13756650D02*
X14558277Y-13766174D01*
X14558277Y-13766174D02*
X14567801Y-13785222D01*
X14567801Y-13785222D02*
X14567801Y-13889984D01*
X14567801Y-13785222D02*
X14577324Y-13766174D01*
X14577324Y-13766174D02*
X14596372Y-13756650D01*
X14596372Y-13756650D02*
X14624943Y-13756650D01*
X14624943Y-13756650D02*
X14643991Y-13766174D01*
X14643991Y-13766174D02*
X14653515Y-13785222D01*
X14653515Y-13785222D02*
X14653515Y-13889984D01*
X15043991Y-13680460D02*
X14872563Y-13937603D01*
X15301134Y-13689984D02*
X15320182Y-13689984D01*
X15320182Y-13689984D02*
X15339229Y-13699508D01*
X15339229Y-13699508D02*
X15348753Y-13709031D01*
X15348753Y-13709031D02*
X15358277Y-13728079D01*
X15358277Y-13728079D02*
X15367801Y-13766174D01*
X15367801Y-13766174D02*
X15367801Y-13813793D01*
X15367801Y-13813793D02*
X15358277Y-13851888D01*
X15358277Y-13851888D02*
X15348753Y-13870936D01*
X15348753Y-13870936D02*
X15339229Y-13880460D01*
X15339229Y-13880460D02*
X15320182Y-13889984D01*
X15320182Y-13889984D02*
X15301134Y-13889984D01*
X15301134Y-13889984D02*
X15282086Y-13880460D01*
X15282086Y-13880460D02*
X15272563Y-13870936D01*
X15272563Y-13870936D02*
X15263039Y-13851888D01*
X15263039Y-13851888D02*
X15253515Y-13813793D01*
X15253515Y-13813793D02*
X15253515Y-13766174D01*
X15253515Y-13766174D02*
X15263039Y-13728079D01*
X15263039Y-13728079D02*
X15272563Y-13709031D01*
X15272563Y-13709031D02*
X15282086Y-13699508D01*
X15282086Y-13699508D02*
X15301134Y-13689984D01*
X15453515Y-13870936D02*
X15463039Y-13880460D01*
X15463039Y-13880460D02*
X15453515Y-13889984D01*
X15453515Y-13889984D02*
X15443991Y-13880460D01*
X15443991Y-13880460D02*
X15453515Y-13870936D01*
X15453515Y-13870936D02*
X15453515Y-13889984D01*
X15586848Y-13689984D02*
X15605896Y-13689984D01*
X15605896Y-13689984D02*
X15624944Y-13699508D01*
X15624944Y-13699508D02*
X15634467Y-13709031D01*
X15634467Y-13709031D02*
X15643991Y-13728079D01*
X15643991Y-13728079D02*
X15653515Y-13766174D01*
X15653515Y-13766174D02*
X15653515Y-13813793D01*
X15653515Y-13813793D02*
X15643991Y-13851888D01*
X15643991Y-13851888D02*
X15634467Y-13870936D01*
X15634467Y-13870936D02*
X15624944Y-13880460D01*
X15624944Y-13880460D02*
X15605896Y-13889984D01*
X15605896Y-13889984D02*
X15586848Y-13889984D01*
X15586848Y-13889984D02*
X15567801Y-13880460D01*
X15567801Y-13880460D02*
X15558277Y-13870936D01*
X15558277Y-13870936D02*
X15548753Y-13851888D01*
X15548753Y-13851888D02*
X15539229Y-13813793D01*
X15539229Y-13813793D02*
X15539229Y-13766174D01*
X15539229Y-13766174D02*
X15548753Y-13728079D01*
X15548753Y-13728079D02*
X15558277Y-13709031D01*
X15558277Y-13709031D02*
X15567801Y-13699508D01*
X15567801Y-13699508D02*
X15586848Y-13689984D01*
X15720182Y-13689984D02*
X15843991Y-13689984D01*
X15843991Y-13689984D02*
X15777325Y-13766174D01*
X15777325Y-13766174D02*
X15805896Y-13766174D01*
X15805896Y-13766174D02*
X15824944Y-13775698D01*
X15824944Y-13775698D02*
X15834467Y-13785222D01*
X15834467Y-13785222D02*
X15843991Y-13804269D01*
X15843991Y-13804269D02*
X15843991Y-13851888D01*
X15843991Y-13851888D02*
X15834467Y-13870936D01*
X15834467Y-13870936D02*
X15824944Y-13880460D01*
X15824944Y-13880460D02*
X15805896Y-13889984D01*
X15805896Y-13889984D02*
X15748753Y-13889984D01*
X15748753Y-13889984D02*
X15729706Y-13880460D01*
X15729706Y-13880460D02*
X15720182Y-13870936D01*
X16024944Y-13689984D02*
X15929706Y-13689984D01*
X15929706Y-13689984D02*
X15920182Y-13785222D01*
X15920182Y-13785222D02*
X15929706Y-13775698D01*
X15929706Y-13775698D02*
X15948753Y-13766174D01*
X15948753Y-13766174D02*
X15996372Y-13766174D01*
X15996372Y-13766174D02*
X16015420Y-13775698D01*
X16015420Y-13775698D02*
X16024944Y-13785222D01*
X16024944Y-13785222D02*
X16034467Y-13804269D01*
X16034467Y-13804269D02*
X16034467Y-13851888D01*
X16034467Y-13851888D02*
X16024944Y-13870936D01*
X16024944Y-13870936D02*
X16015420Y-13880460D01*
X16015420Y-13880460D02*
X15996372Y-13889984D01*
X15996372Y-13889984D02*
X15948753Y-13889984D01*
X15948753Y-13889984D02*
X15929706Y-13880460D01*
X15929706Y-13880460D02*
X15920182Y-13870936D01*
X16205896Y-13756650D02*
X16205896Y-13889984D01*
X16158277Y-13680460D02*
X16110658Y-13823317D01*
X16110658Y-13823317D02*
X16234467Y-13823317D01*
X16301134Y-13689984D02*
X16301134Y-13728079D01*
X16377325Y-13689984D02*
X16377325Y-13728079D01*
X16672563Y-13966174D02*
X16663039Y-13956650D01*
X16663039Y-13956650D02*
X16643991Y-13928079D01*
X16643991Y-13928079D02*
X16634468Y-13909031D01*
X16634468Y-13909031D02*
X16624944Y-13880460D01*
X16624944Y-13880460D02*
X16615420Y-13832841D01*
X16615420Y-13832841D02*
X16615420Y-13794746D01*
X16615420Y-13794746D02*
X16624944Y-13747127D01*
X16624944Y-13747127D02*
X16634468Y-13718555D01*
X16634468Y-13718555D02*
X16643991Y-13699508D01*
X16643991Y-13699508D02*
X16663039Y-13670936D01*
X16663039Y-13670936D02*
X16672563Y-13661412D01*
X16739229Y-13709031D02*
X16748753Y-13699508D01*
X16748753Y-13699508D02*
X16767801Y-13689984D01*
X16767801Y-13689984D02*
X16815420Y-13689984D01*
X16815420Y-13689984D02*
X16834468Y-13699508D01*
X16834468Y-13699508D02*
X16843991Y-13709031D01*
X16843991Y-13709031D02*
X16853515Y-13728079D01*
X16853515Y-13728079D02*
X16853515Y-13747127D01*
X16853515Y-13747127D02*
X16843991Y-13775698D01*
X16843991Y-13775698D02*
X16729706Y-13889984D01*
X16729706Y-13889984D02*
X16853515Y-13889984D01*
X17091611Y-13889984D02*
X17091611Y-13689984D01*
X17177325Y-13889984D02*
X17177325Y-13785222D01*
X17177325Y-13785222D02*
X17167801Y-13766174D01*
X17167801Y-13766174D02*
X17148753Y-13756650D01*
X17148753Y-13756650D02*
X17120182Y-13756650D01*
X17120182Y-13756650D02*
X17101134Y-13766174D01*
X17101134Y-13766174D02*
X17091611Y-13775698D01*
X17301134Y-13889984D02*
X17282087Y-13880460D01*
X17282087Y-13880460D02*
X17272563Y-13870936D01*
X17272563Y-13870936D02*
X17263039Y-13851888D01*
X17263039Y-13851888D02*
X17263039Y-13794746D01*
X17263039Y-13794746D02*
X17272563Y-13775698D01*
X17272563Y-13775698D02*
X17282087Y-13766174D01*
X17282087Y-13766174D02*
X17301134Y-13756650D01*
X17301134Y-13756650D02*
X17329706Y-13756650D01*
X17329706Y-13756650D02*
X17348753Y-13766174D01*
X17348753Y-13766174D02*
X17358277Y-13775698D01*
X17358277Y-13775698D02*
X17367801Y-13794746D01*
X17367801Y-13794746D02*
X17367801Y-13851888D01*
X17367801Y-13851888D02*
X17358277Y-13870936D01*
X17358277Y-13870936D02*
X17348753Y-13880460D01*
X17348753Y-13880460D02*
X17329706Y-13889984D01*
X17329706Y-13889984D02*
X17301134Y-13889984D01*
X17482087Y-13889984D02*
X17463039Y-13880460D01*
X17463039Y-13880460D02*
X17453515Y-13861412D01*
X17453515Y-13861412D02*
X17453515Y-13689984D01*
X17634468Y-13880460D02*
X17615420Y-13889984D01*
X17615420Y-13889984D02*
X17577325Y-13889984D01*
X17577325Y-13889984D02*
X17558277Y-13880460D01*
X17558277Y-13880460D02*
X17548753Y-13861412D01*
X17548753Y-13861412D02*
X17548753Y-13785222D01*
X17548753Y-13785222D02*
X17558277Y-13766174D01*
X17558277Y-13766174D02*
X17577325Y-13756650D01*
X17577325Y-13756650D02*
X17615420Y-13756650D01*
X17615420Y-13756650D02*
X17634468Y-13766174D01*
X17634468Y-13766174D02*
X17643992Y-13785222D01*
X17643992Y-13785222D02*
X17643992Y-13804269D01*
X17643992Y-13804269D02*
X17548753Y-13823317D01*
X17720182Y-13880460D02*
X17739230Y-13889984D01*
X17739230Y-13889984D02*
X17777325Y-13889984D01*
X17777325Y-13889984D02*
X17796373Y-13880460D01*
X17796373Y-13880460D02*
X17805896Y-13861412D01*
X17805896Y-13861412D02*
X17805896Y-13851888D01*
X17805896Y-13851888D02*
X17796373Y-13832841D01*
X17796373Y-13832841D02*
X17777325Y-13823317D01*
X17777325Y-13823317D02*
X17748753Y-13823317D01*
X17748753Y-13823317D02*
X17729706Y-13813793D01*
X17729706Y-13813793D02*
X17720182Y-13794746D01*
X17720182Y-13794746D02*
X17720182Y-13785222D01*
X17720182Y-13785222D02*
X17729706Y-13766174D01*
X17729706Y-13766174D02*
X17748753Y-13756650D01*
X17748753Y-13756650D02*
X17777325Y-13756650D01*
X17777325Y-13756650D02*
X17796373Y-13766174D01*
X17872563Y-13966174D02*
X17882087Y-13956650D01*
X17882087Y-13956650D02*
X17901134Y-13928079D01*
X17901134Y-13928079D02*
X17910658Y-13909031D01*
X17910658Y-13909031D02*
X17920182Y-13880460D01*
X17920182Y-13880460D02*
X17929706Y-13832841D01*
X17929706Y-13832841D02*
X17929706Y-13794746D01*
X17929706Y-13794746D02*
X17920182Y-13747127D01*
X17920182Y-13747127D02*
X17910658Y-13718555D01*
X17910658Y-13718555D02*
X17901134Y-13699508D01*
X17901134Y-13699508D02*
X17882087Y-13670936D01*
X17882087Y-13670936D02*
X17872563Y-13661412D01*
D12*
X12997500Y-14012500D02*
X13097500Y-14112500D01*
X13097500Y-14012500D02*
X12997500Y-14112500D01*
X13097500Y-14062500D02*
G75*
G02*
X12997500Y-14062500I-50000J0D01*
G01*
X12997500Y-14062500D02*
G75*
G02*
X13097500Y-14062500I50000J0D01*
G01*
D11*
X13463039Y-14153984D02*
X13348753Y-14153984D01*
X13405896Y-14153984D02*
X13405896Y-13953984D01*
X13405896Y-13953984D02*
X13386848Y-13982555D01*
X13386848Y-13982555D02*
X13367801Y-14001603D01*
X13367801Y-14001603D02*
X13348753Y-14011127D01*
X13548753Y-14134936D02*
X13558277Y-14144460D01*
X13558277Y-14144460D02*
X13548753Y-14153984D01*
X13548753Y-14153984D02*
X13539229Y-14144460D01*
X13539229Y-14144460D02*
X13548753Y-14134936D01*
X13548753Y-14134936D02*
X13548753Y-14153984D01*
X13682086Y-13953984D02*
X13701134Y-13953984D01*
X13701134Y-13953984D02*
X13720182Y-13963508D01*
X13720182Y-13963508D02*
X13729705Y-13973031D01*
X13729705Y-13973031D02*
X13739229Y-13992079D01*
X13739229Y-13992079D02*
X13748753Y-14030174D01*
X13748753Y-14030174D02*
X13748753Y-14077793D01*
X13748753Y-14077793D02*
X13739229Y-14115888D01*
X13739229Y-14115888D02*
X13729705Y-14134936D01*
X13729705Y-14134936D02*
X13720182Y-14144460D01*
X13720182Y-14144460D02*
X13701134Y-14153984D01*
X13701134Y-14153984D02*
X13682086Y-14153984D01*
X13682086Y-14153984D02*
X13663039Y-14144460D01*
X13663039Y-14144460D02*
X13653515Y-14134936D01*
X13653515Y-14134936D02*
X13643991Y-14115888D01*
X13643991Y-14115888D02*
X13634467Y-14077793D01*
X13634467Y-14077793D02*
X13634467Y-14030174D01*
X13634467Y-14030174D02*
X13643991Y-13992079D01*
X13643991Y-13992079D02*
X13653515Y-13973031D01*
X13653515Y-13973031D02*
X13663039Y-13963508D01*
X13663039Y-13963508D02*
X13682086Y-13953984D01*
X13872562Y-13953984D02*
X13891610Y-13953984D01*
X13891610Y-13953984D02*
X13910658Y-13963508D01*
X13910658Y-13963508D02*
X13920182Y-13973031D01*
X13920182Y-13973031D02*
X13929705Y-13992079D01*
X13929705Y-13992079D02*
X13939229Y-14030174D01*
X13939229Y-14030174D02*
X13939229Y-14077793D01*
X13939229Y-14077793D02*
X13929705Y-14115888D01*
X13929705Y-14115888D02*
X13920182Y-14134936D01*
X13920182Y-14134936D02*
X13910658Y-14144460D01*
X13910658Y-14144460D02*
X13891610Y-14153984D01*
X13891610Y-14153984D02*
X13872562Y-14153984D01*
X13872562Y-14153984D02*
X13853515Y-14144460D01*
X13853515Y-14144460D02*
X13843991Y-14134936D01*
X13843991Y-14134936D02*
X13834467Y-14115888D01*
X13834467Y-14115888D02*
X13824943Y-14077793D01*
X13824943Y-14077793D02*
X13824943Y-14030174D01*
X13824943Y-14030174D02*
X13834467Y-13992079D01*
X13834467Y-13992079D02*
X13843991Y-13973031D01*
X13843991Y-13973031D02*
X13853515Y-13963508D01*
X13853515Y-13963508D02*
X13872562Y-13953984D01*
X14063039Y-13953984D02*
X14082086Y-13953984D01*
X14082086Y-13953984D02*
X14101134Y-13963508D01*
X14101134Y-13963508D02*
X14110658Y-13973031D01*
X14110658Y-13973031D02*
X14120182Y-13992079D01*
X14120182Y-13992079D02*
X14129705Y-14030174D01*
X14129705Y-14030174D02*
X14129705Y-14077793D01*
X14129705Y-14077793D02*
X14120182Y-14115888D01*
X14120182Y-14115888D02*
X14110658Y-14134936D01*
X14110658Y-14134936D02*
X14101134Y-14144460D01*
X14101134Y-14144460D02*
X14082086Y-14153984D01*
X14082086Y-14153984D02*
X14063039Y-14153984D01*
X14063039Y-14153984D02*
X14043991Y-14144460D01*
X14043991Y-14144460D02*
X14034467Y-14134936D01*
X14034467Y-14134936D02*
X14024943Y-14115888D01*
X14024943Y-14115888D02*
X14015420Y-14077793D01*
X14015420Y-14077793D02*
X14015420Y-14030174D01*
X14015420Y-14030174D02*
X14024943Y-13992079D01*
X14024943Y-13992079D02*
X14034467Y-13973031D01*
X14034467Y-13973031D02*
X14043991Y-13963508D01*
X14043991Y-13963508D02*
X14063039Y-13953984D01*
X14215420Y-14153984D02*
X14215420Y-14020650D01*
X14215420Y-14039698D02*
X14224943Y-14030174D01*
X14224943Y-14030174D02*
X14243991Y-14020650D01*
X14243991Y-14020650D02*
X14272563Y-14020650D01*
X14272563Y-14020650D02*
X14291610Y-14030174D01*
X14291610Y-14030174D02*
X14301134Y-14049222D01*
X14301134Y-14049222D02*
X14301134Y-14153984D01*
X14301134Y-14049222D02*
X14310658Y-14030174D01*
X14310658Y-14030174D02*
X14329705Y-14020650D01*
X14329705Y-14020650D02*
X14358277Y-14020650D01*
X14358277Y-14020650D02*
X14377324Y-14030174D01*
X14377324Y-14030174D02*
X14386848Y-14049222D01*
X14386848Y-14049222D02*
X14386848Y-14153984D01*
X14482086Y-14153984D02*
X14482086Y-14020650D01*
X14482086Y-14039698D02*
X14491610Y-14030174D01*
X14491610Y-14030174D02*
X14510658Y-14020650D01*
X14510658Y-14020650D02*
X14539229Y-14020650D01*
X14539229Y-14020650D02*
X14558277Y-14030174D01*
X14558277Y-14030174D02*
X14567801Y-14049222D01*
X14567801Y-14049222D02*
X14567801Y-14153984D01*
X14567801Y-14049222D02*
X14577324Y-14030174D01*
X14577324Y-14030174D02*
X14596372Y-14020650D01*
X14596372Y-14020650D02*
X14624943Y-14020650D01*
X14624943Y-14020650D02*
X14643991Y-14030174D01*
X14643991Y-14030174D02*
X14653515Y-14049222D01*
X14653515Y-14049222D02*
X14653515Y-14153984D01*
X15043991Y-13944460D02*
X14872563Y-14201603D01*
X15301134Y-13953984D02*
X15320182Y-13953984D01*
X15320182Y-13953984D02*
X15339229Y-13963508D01*
X15339229Y-13963508D02*
X15348753Y-13973031D01*
X15348753Y-13973031D02*
X15358277Y-13992079D01*
X15358277Y-13992079D02*
X15367801Y-14030174D01*
X15367801Y-14030174D02*
X15367801Y-14077793D01*
X15367801Y-14077793D02*
X15358277Y-14115888D01*
X15358277Y-14115888D02*
X15348753Y-14134936D01*
X15348753Y-14134936D02*
X15339229Y-14144460D01*
X15339229Y-14144460D02*
X15320182Y-14153984D01*
X15320182Y-14153984D02*
X15301134Y-14153984D01*
X15301134Y-14153984D02*
X15282086Y-14144460D01*
X15282086Y-14144460D02*
X15272563Y-14134936D01*
X15272563Y-14134936D02*
X15263039Y-14115888D01*
X15263039Y-14115888D02*
X15253515Y-14077793D01*
X15253515Y-14077793D02*
X15253515Y-14030174D01*
X15253515Y-14030174D02*
X15263039Y-13992079D01*
X15263039Y-13992079D02*
X15272563Y-13973031D01*
X15272563Y-13973031D02*
X15282086Y-13963508D01*
X15282086Y-13963508D02*
X15301134Y-13953984D01*
X15453515Y-14134936D02*
X15463039Y-14144460D01*
X15463039Y-14144460D02*
X15453515Y-14153984D01*
X15453515Y-14153984D02*
X15443991Y-14144460D01*
X15443991Y-14144460D02*
X15453515Y-14134936D01*
X15453515Y-14134936D02*
X15453515Y-14153984D01*
X15586848Y-13953984D02*
X15605896Y-13953984D01*
X15605896Y-13953984D02*
X15624944Y-13963508D01*
X15624944Y-13963508D02*
X15634467Y-13973031D01*
X15634467Y-13973031D02*
X15643991Y-13992079D01*
X15643991Y-13992079D02*
X15653515Y-14030174D01*
X15653515Y-14030174D02*
X15653515Y-14077793D01*
X15653515Y-14077793D02*
X15643991Y-14115888D01*
X15643991Y-14115888D02*
X15634467Y-14134936D01*
X15634467Y-14134936D02*
X15624944Y-14144460D01*
X15624944Y-14144460D02*
X15605896Y-14153984D01*
X15605896Y-14153984D02*
X15586848Y-14153984D01*
X15586848Y-14153984D02*
X15567801Y-14144460D01*
X15567801Y-14144460D02*
X15558277Y-14134936D01*
X15558277Y-14134936D02*
X15548753Y-14115888D01*
X15548753Y-14115888D02*
X15539229Y-14077793D01*
X15539229Y-14077793D02*
X15539229Y-14030174D01*
X15539229Y-14030174D02*
X15548753Y-13992079D01*
X15548753Y-13992079D02*
X15558277Y-13973031D01*
X15558277Y-13973031D02*
X15567801Y-13963508D01*
X15567801Y-13963508D02*
X15586848Y-13953984D01*
X15720182Y-13953984D02*
X15843991Y-13953984D01*
X15843991Y-13953984D02*
X15777325Y-14030174D01*
X15777325Y-14030174D02*
X15805896Y-14030174D01*
X15805896Y-14030174D02*
X15824944Y-14039698D01*
X15824944Y-14039698D02*
X15834467Y-14049222D01*
X15834467Y-14049222D02*
X15843991Y-14068269D01*
X15843991Y-14068269D02*
X15843991Y-14115888D01*
X15843991Y-14115888D02*
X15834467Y-14134936D01*
X15834467Y-14134936D02*
X15824944Y-14144460D01*
X15824944Y-14144460D02*
X15805896Y-14153984D01*
X15805896Y-14153984D02*
X15748753Y-14153984D01*
X15748753Y-14153984D02*
X15729706Y-14144460D01*
X15729706Y-14144460D02*
X15720182Y-14134936D01*
X15939229Y-14153984D02*
X15977325Y-14153984D01*
X15977325Y-14153984D02*
X15996372Y-14144460D01*
X15996372Y-14144460D02*
X16005896Y-14134936D01*
X16005896Y-14134936D02*
X16024944Y-14106365D01*
X16024944Y-14106365D02*
X16034467Y-14068269D01*
X16034467Y-14068269D02*
X16034467Y-13992079D01*
X16034467Y-13992079D02*
X16024944Y-13973031D01*
X16024944Y-13973031D02*
X16015420Y-13963508D01*
X16015420Y-13963508D02*
X15996372Y-13953984D01*
X15996372Y-13953984D02*
X15958277Y-13953984D01*
X15958277Y-13953984D02*
X15939229Y-13963508D01*
X15939229Y-13963508D02*
X15929706Y-13973031D01*
X15929706Y-13973031D02*
X15920182Y-13992079D01*
X15920182Y-13992079D02*
X15920182Y-14039698D01*
X15920182Y-14039698D02*
X15929706Y-14058746D01*
X15929706Y-14058746D02*
X15939229Y-14068269D01*
X15939229Y-14068269D02*
X15958277Y-14077793D01*
X15958277Y-14077793D02*
X15996372Y-14077793D01*
X15996372Y-14077793D02*
X16015420Y-14068269D01*
X16015420Y-14068269D02*
X16024944Y-14058746D01*
X16024944Y-14058746D02*
X16034467Y-14039698D01*
X16205896Y-14020650D02*
X16205896Y-14153984D01*
X16158277Y-13944460D02*
X16110658Y-14087317D01*
X16110658Y-14087317D02*
X16234467Y-14087317D01*
X16301134Y-13953984D02*
X16301134Y-13992079D01*
X16377325Y-13953984D02*
X16377325Y-13992079D01*
X16672563Y-14230174D02*
X16663039Y-14220650D01*
X16663039Y-14220650D02*
X16643991Y-14192079D01*
X16643991Y-14192079D02*
X16634468Y-14173031D01*
X16634468Y-14173031D02*
X16624944Y-14144460D01*
X16624944Y-14144460D02*
X16615420Y-14096841D01*
X16615420Y-14096841D02*
X16615420Y-14058746D01*
X16615420Y-14058746D02*
X16624944Y-14011127D01*
X16624944Y-14011127D02*
X16634468Y-13982555D01*
X16634468Y-13982555D02*
X16643991Y-13963508D01*
X16643991Y-13963508D02*
X16663039Y-13934936D01*
X16663039Y-13934936D02*
X16672563Y-13925412D01*
X16843991Y-13953984D02*
X16748753Y-13953984D01*
X16748753Y-13953984D02*
X16739229Y-14049222D01*
X16739229Y-14049222D02*
X16748753Y-14039698D01*
X16748753Y-14039698D02*
X16767801Y-14030174D01*
X16767801Y-14030174D02*
X16815420Y-14030174D01*
X16815420Y-14030174D02*
X16834468Y-14039698D01*
X16834468Y-14039698D02*
X16843991Y-14049222D01*
X16843991Y-14049222D02*
X16853515Y-14068269D01*
X16853515Y-14068269D02*
X16853515Y-14115888D01*
X16853515Y-14115888D02*
X16843991Y-14134936D01*
X16843991Y-14134936D02*
X16834468Y-14144460D01*
X16834468Y-14144460D02*
X16815420Y-14153984D01*
X16815420Y-14153984D02*
X16767801Y-14153984D01*
X16767801Y-14153984D02*
X16748753Y-14144460D01*
X16748753Y-14144460D02*
X16739229Y-14134936D01*
X17091611Y-14153984D02*
X17091611Y-13953984D01*
X17177325Y-14153984D02*
X17177325Y-14049222D01*
X17177325Y-14049222D02*
X17167801Y-14030174D01*
X17167801Y-14030174D02*
X17148753Y-14020650D01*
X17148753Y-14020650D02*
X17120182Y-14020650D01*
X17120182Y-14020650D02*
X17101134Y-14030174D01*
X17101134Y-14030174D02*
X17091611Y-14039698D01*
X17301134Y-14153984D02*
X17282087Y-14144460D01*
X17282087Y-14144460D02*
X17272563Y-14134936D01*
X17272563Y-14134936D02*
X17263039Y-14115888D01*
X17263039Y-14115888D02*
X17263039Y-14058746D01*
X17263039Y-14058746D02*
X17272563Y-14039698D01*
X17272563Y-14039698D02*
X17282087Y-14030174D01*
X17282087Y-14030174D02*
X17301134Y-14020650D01*
X17301134Y-14020650D02*
X17329706Y-14020650D01*
X17329706Y-14020650D02*
X17348753Y-14030174D01*
X17348753Y-14030174D02*
X17358277Y-14039698D01*
X17358277Y-14039698D02*
X17367801Y-14058746D01*
X17367801Y-14058746D02*
X17367801Y-14115888D01*
X17367801Y-14115888D02*
X17358277Y-14134936D01*
X17358277Y-14134936D02*
X17348753Y-14144460D01*
X17348753Y-14144460D02*
X17329706Y-14153984D01*
X17329706Y-14153984D02*
X17301134Y-14153984D01*
X17482087Y-14153984D02*
X17463039Y-14144460D01*
X17463039Y-14144460D02*
X17453515Y-14125412D01*
X17453515Y-14125412D02*
X17453515Y-13953984D01*
X17634468Y-14144460D02*
X17615420Y-14153984D01*
X17615420Y-14153984D02*
X17577325Y-14153984D01*
X17577325Y-14153984D02*
X17558277Y-14144460D01*
X17558277Y-14144460D02*
X17548753Y-14125412D01*
X17548753Y-14125412D02*
X17548753Y-14049222D01*
X17548753Y-14049222D02*
X17558277Y-14030174D01*
X17558277Y-14030174D02*
X17577325Y-14020650D01*
X17577325Y-14020650D02*
X17615420Y-14020650D01*
X17615420Y-14020650D02*
X17634468Y-14030174D01*
X17634468Y-14030174D02*
X17643992Y-14049222D01*
X17643992Y-14049222D02*
X17643992Y-14068269D01*
X17643992Y-14068269D02*
X17548753Y-14087317D01*
X17720182Y-14144460D02*
X17739230Y-14153984D01*
X17739230Y-14153984D02*
X17777325Y-14153984D01*
X17777325Y-14153984D02*
X17796373Y-14144460D01*
X17796373Y-14144460D02*
X17805896Y-14125412D01*
X17805896Y-14125412D02*
X17805896Y-14115888D01*
X17805896Y-14115888D02*
X17796373Y-14096841D01*
X17796373Y-14096841D02*
X17777325Y-14087317D01*
X17777325Y-14087317D02*
X17748753Y-14087317D01*
X17748753Y-14087317D02*
X17729706Y-14077793D01*
X17729706Y-14077793D02*
X17720182Y-14058746D01*
X17720182Y-14058746D02*
X17720182Y-14049222D01*
X17720182Y-14049222D02*
X17729706Y-14030174D01*
X17729706Y-14030174D02*
X17748753Y-14020650D01*
X17748753Y-14020650D02*
X17777325Y-14020650D01*
X17777325Y-14020650D02*
X17796373Y-14030174D01*
X17872563Y-14230174D02*
X17882087Y-14220650D01*
X17882087Y-14220650D02*
X17901134Y-14192079D01*
X17901134Y-14192079D02*
X17910658Y-14173031D01*
X17910658Y-14173031D02*
X17920182Y-14144460D01*
X17920182Y-14144460D02*
X17929706Y-14096841D01*
X17929706Y-14096841D02*
X17929706Y-14058746D01*
X17929706Y-14058746D02*
X17920182Y-14011127D01*
X17920182Y-14011127D02*
X17910658Y-13982555D01*
X17910658Y-13982555D02*
X17901134Y-13963508D01*
X17901134Y-13963508D02*
X17882087Y-13934936D01*
X17882087Y-13934936D02*
X17872563Y-13925412D01*
M02*
