G04 #@! TF.GenerationSoftware,KiCad,Pcbnew,8.0.1*
G04 #@! TF.CreationDate,2024-05-12T16:03:36-04:00*
G04 #@! TF.ProjectId,recyclobot_main,72656379-636c-46f6-926f-745f6d61696e,rev?*
G04 #@! TF.SameCoordinates,Original*
G04 #@! TF.FileFunction,Soldermask,Top*
G04 #@! TF.FilePolarity,Negative*
%FSLAX46Y46*%
G04 Gerber Fmt 4.6, Leading zero omitted, Abs format (unit mm)*
G04 Created by KiCad (PCBNEW 8.0.1) date 2024-05-12 16:03:36*
%MOMM*%
%LPD*%
G01*
G04 APERTURE LIST*
G04 Aperture macros list*
%AMRoundRect*
0 Rectangle with rounded corners*
0 $1 Rounding radius*
0 $2 $3 $4 $5 $6 $7 $8 $9 X,Y pos of 4 corners*
0 Add a 4 corners polygon primitive as box body*
4,1,4,$2,$3,$4,$5,$6,$7,$8,$9,$2,$3,0*
0 Add four circle primitives for the rounded corners*
1,1,$1+$1,$2,$3*
1,1,$1+$1,$4,$5*
1,1,$1+$1,$6,$7*
1,1,$1+$1,$8,$9*
0 Add four rect primitives between the rounded corners*
20,1,$1+$1,$2,$3,$4,$5,0*
20,1,$1+$1,$4,$5,$6,$7,0*
20,1,$1+$1,$6,$7,$8,$9,0*
20,1,$1+$1,$8,$9,$2,$3,0*%
G04 Aperture macros list end*
%ADD10R,1.500000X1.050000*%
%ADD11O,1.500000X1.050000*%
%ADD12R,1.600000X1.600000*%
%ADD13O,1.600000X1.600000*%
%ADD14RoundRect,0.150000X-0.800000X-0.150000X0.800000X-0.150000X0.800000X0.150000X-0.800000X0.150000X0*%
%ADD15C,1.600000*%
%ADD16R,1.700000X1.700000*%
%ADD17O,1.700000X1.700000*%
%ADD18R,1.800000X1.800000*%
%ADD19C,1.800000*%
G04 APERTURE END LIST*
D10*
X137000000Y-100540000D03*
D11*
X137000000Y-99270000D03*
X137000000Y-98000000D03*
D12*
X151420000Y-100500000D03*
D13*
X153960000Y-100500000D03*
X156500000Y-100500000D03*
X159040000Y-100500000D03*
X161580000Y-100500000D03*
X164120000Y-100500000D03*
X166660000Y-100500000D03*
X169200000Y-100500000D03*
X169200000Y-92880000D03*
X166660000Y-92880000D03*
X164120000Y-92880000D03*
X161580000Y-92880000D03*
X159040000Y-92880000D03*
X156500000Y-92880000D03*
X153960000Y-92880000D03*
X151420000Y-92880000D03*
D14*
X141100000Y-82285000D03*
X141100000Y-83555000D03*
X141100000Y-84825000D03*
X141100000Y-86095000D03*
X141100000Y-87365000D03*
X141100000Y-88635000D03*
X141100000Y-89905000D03*
X141100000Y-91175000D03*
X141100000Y-92445000D03*
X141100000Y-93715000D03*
X131900000Y-93715000D03*
X131900000Y-92445000D03*
X131900000Y-91175000D03*
X131900000Y-89905000D03*
X131900000Y-88635000D03*
X131900000Y-87365000D03*
X131900000Y-86095000D03*
X131900000Y-84825000D03*
X131900000Y-83555000D03*
X131900000Y-82285000D03*
D15*
X153500000Y-81000000D03*
D13*
X163660000Y-81000000D03*
D15*
X148500000Y-79340000D03*
D13*
X148500000Y-89500000D03*
D16*
X135500000Y-77620000D03*
D17*
X135500000Y-75080000D03*
X135500000Y-72540000D03*
X135500000Y-70000000D03*
D16*
X168500000Y-107500000D03*
D17*
X168500000Y-104960000D03*
D16*
X167975000Y-87250000D03*
D17*
X167975000Y-84710000D03*
D16*
X127975000Y-86250000D03*
D17*
X127975000Y-83710000D03*
D18*
X142500000Y-75500000D03*
D19*
X145040000Y-75500000D03*
M02*
