%TF.GenerationSoftware,KiCad,Pcbnew,8.0.1*%
%TF.CreationDate,2024-05-12T16:04:07-04:00*%
%TF.ProjectId,recyclobot_main,72656379-636c-46f6-926f-745f6d61696e,rev?*%
%TF.SameCoordinates,Original*%
%TF.FileFunction,Drillmap*%
%TF.FilePolarity,Positive*%
%FSLAX45Y45*%
G04 Gerber Fmt 4.5, Leading zero omitted, Abs format (unit mm)*
G04 Created by KiCad (PCBNEW 8.0.1) date 2024-05-12 16:04:07*
%MOMM*%
%LPD*%
G01*
G04 APERTURE LIST*
%ADD10C,0.050000*%
%ADD11C,0.200000*%
G04 APERTURE END LIST*
D10*
X12000000Y-11200000D02*
X12000000Y-6500000D01*
X17600000Y-11200000D02*
X12000000Y-11200000D01*
X17600000Y-6500000D02*
X17600000Y-11200000D01*
X12000000Y-6500000D02*
X17600000Y-6500000D01*
D11*
X12258277Y-11513984D02*
X12258277Y-11313984D01*
X12258277Y-11313984D02*
X12305896Y-11313984D01*
X12305896Y-11313984D02*
X12334467Y-11323508D01*
X12334467Y-11323508D02*
X12353515Y-11342555D01*
X12353515Y-11342555D02*
X12363039Y-11361603D01*
X12363039Y-11361603D02*
X12372562Y-11399698D01*
X12372562Y-11399698D02*
X12372562Y-11428269D01*
X12372562Y-11428269D02*
X12363039Y-11466365D01*
X12363039Y-11466365D02*
X12353515Y-11485412D01*
X12353515Y-11485412D02*
X12334467Y-11504460D01*
X12334467Y-11504460D02*
X12305896Y-11513984D01*
X12305896Y-11513984D02*
X12258277Y-11513984D01*
X12458277Y-11513984D02*
X12458277Y-11380650D01*
X12458277Y-11418746D02*
X12467801Y-11399698D01*
X12467801Y-11399698D02*
X12477324Y-11390174D01*
X12477324Y-11390174D02*
X12496372Y-11380650D01*
X12496372Y-11380650D02*
X12515420Y-11380650D01*
X12582086Y-11513984D02*
X12582086Y-11380650D01*
X12582086Y-11313984D02*
X12572562Y-11323508D01*
X12572562Y-11323508D02*
X12582086Y-11333031D01*
X12582086Y-11333031D02*
X12591610Y-11323508D01*
X12591610Y-11323508D02*
X12582086Y-11313984D01*
X12582086Y-11313984D02*
X12582086Y-11333031D01*
X12705896Y-11513984D02*
X12686848Y-11504460D01*
X12686848Y-11504460D02*
X12677324Y-11485412D01*
X12677324Y-11485412D02*
X12677324Y-11313984D01*
X12810658Y-11513984D02*
X12791610Y-11504460D01*
X12791610Y-11504460D02*
X12782086Y-11485412D01*
X12782086Y-11485412D02*
X12782086Y-11313984D01*
X13039229Y-11513984D02*
X13039229Y-11313984D01*
X13039229Y-11313984D02*
X13105896Y-11456841D01*
X13105896Y-11456841D02*
X13172562Y-11313984D01*
X13172562Y-11313984D02*
X13172562Y-11513984D01*
X13353515Y-11513984D02*
X13353515Y-11409222D01*
X13353515Y-11409222D02*
X13343991Y-11390174D01*
X13343991Y-11390174D02*
X13324943Y-11380650D01*
X13324943Y-11380650D02*
X13286848Y-11380650D01*
X13286848Y-11380650D02*
X13267801Y-11390174D01*
X13353515Y-11504460D02*
X13334467Y-11513984D01*
X13334467Y-11513984D02*
X13286848Y-11513984D01*
X13286848Y-11513984D02*
X13267801Y-11504460D01*
X13267801Y-11504460D02*
X13258277Y-11485412D01*
X13258277Y-11485412D02*
X13258277Y-11466365D01*
X13258277Y-11466365D02*
X13267801Y-11447317D01*
X13267801Y-11447317D02*
X13286848Y-11437793D01*
X13286848Y-11437793D02*
X13334467Y-11437793D01*
X13334467Y-11437793D02*
X13353515Y-11428269D01*
X13448753Y-11380650D02*
X13448753Y-11580650D01*
X13448753Y-11390174D02*
X13467801Y-11380650D01*
X13467801Y-11380650D02*
X13505896Y-11380650D01*
X13505896Y-11380650D02*
X13524943Y-11390174D01*
X13524943Y-11390174D02*
X13534467Y-11399698D01*
X13534467Y-11399698D02*
X13543991Y-11418746D01*
X13543991Y-11418746D02*
X13543991Y-11475888D01*
X13543991Y-11475888D02*
X13534467Y-11494936D01*
X13534467Y-11494936D02*
X13524943Y-11504460D01*
X13524943Y-11504460D02*
X13505896Y-11513984D01*
X13505896Y-11513984D02*
X13467801Y-11513984D01*
X13467801Y-11513984D02*
X13448753Y-11504460D01*
X13629705Y-11494936D02*
X13639229Y-11504460D01*
X13639229Y-11504460D02*
X13629705Y-11513984D01*
X13629705Y-11513984D02*
X13620182Y-11504460D01*
X13620182Y-11504460D02*
X13629705Y-11494936D01*
X13629705Y-11494936D02*
X13629705Y-11513984D01*
X13629705Y-11390174D02*
X13639229Y-11399698D01*
X13639229Y-11399698D02*
X13629705Y-11409222D01*
X13629705Y-11409222D02*
X13620182Y-11399698D01*
X13620182Y-11399698D02*
X13629705Y-11390174D01*
X13629705Y-11390174D02*
X13629705Y-11409222D01*
M02*
