M48
; DRILL file {KiCad 8.0.1} date 2024-05-12T16:04:05-0400
; FORMAT={-:-/ absolute / metric / decimal}
; #@! TF.CreationDate,2024-05-12T16:04:05-04:00
; #@! TF.GenerationSoftware,Kicad,Pcbnew,8.0.1
; #@! TF.FileFunction,Plated,1,2,PTH
FMAT,2
METRIC
; #@! TA.AperFunction,Plated,PTH,ViaDrill
T1C0.300
; #@! TA.AperFunction,Plated,PTH,ComponentDrill
T2C0.750
; #@! TA.AperFunction,Plated,PTH,ComponentDrill
T3C0.800
; #@! TA.AperFunction,Plated,PTH,ComponentDrill
T4C0.900
; #@! TA.AperFunction,Plated,PTH,ComponentDrill
T5C1.000
%
G90
G05
T1
X125.0Y-70.5
X131.0Y-103.5
X136.5Y-85.0
X141.0Y-104.0
X141.5Y-99.0
X141.5Y-99.7
X143.5Y-82.0
X143.5Y-88.5
X144.5Y-99.0
X145.5Y-92.0
X146.0Y-95.5
X147.5Y-94.9
X153.0Y-98.0
X154.5Y-106.0
X155.5Y-94.9
X161.0Y-70.0
X162.0Y-95.5
X167.5Y-102.5
X171.0Y-73.0
T2
X137.0Y-98.0
X137.0Y-99.27
X137.0Y-100.54
T3
X148.5Y-79.34
X148.5Y-89.5
X151.42Y-92.88
X151.42Y-100.5
X153.5Y-81.0
X153.96Y-92.88
X153.96Y-100.5
X156.5Y-92.88
X156.5Y-100.5
X159.04Y-92.88
X159.04Y-100.5
X161.58Y-92.88
X161.58Y-100.5
X163.66Y-81.0
X164.12Y-92.88
X164.12Y-100.5
X166.66Y-92.88
X166.66Y-100.5
X169.2Y-92.88
X169.2Y-100.5
T4
X142.5Y-75.5
X145.04Y-75.5
T5
X127.975Y-83.71
X127.975Y-86.25
X135.5Y-70.0
X135.5Y-72.54
X135.5Y-75.08
X135.5Y-77.62
X167.975Y-84.71
X167.975Y-87.25
X168.5Y-104.96
X168.5Y-107.5
M30
