%TF.GenerationSoftware,KiCad,Pcbnew,8.0.1*%
%TF.CreationDate,2024-05-12T16:16:42-04:00*%
%TF.ProjectId,recyclobot,72656379-636c-46f6-926f-742e6b696361,rev?*%
%TF.SameCoordinates,Original*%
%TF.FileFunction,Drillmap*%
%TF.FilePolarity,Positive*%
%FSLAX45Y45*%
G04 Gerber Fmt 4.5, Leading zero omitted, Abs format (unit mm)*
G04 Created by KiCad (PCBNEW 8.0.1) date 2024-05-12 16:16:42*
%MOMM*%
%LPD*%
G01*
G04 APERTURE LIST*
%ADD10C,0.050000*%
%ADD11C,0.200000*%
%ADD12C,0.100000*%
G04 APERTURE END LIST*
D10*
X15200000Y-7900000D02*
X15200000Y-12700000D01*
X10250000Y-12700000D02*
X10250000Y-7900000D01*
X15100000Y-12700000D02*
X10250000Y-12700000D01*
X10250000Y-7900000D02*
X15200000Y-7900000D01*
X15200000Y-12700000D02*
X15100000Y-12700000D01*
D11*
D12*
X10685000Y-8385000D02*
X10715000Y-8415000D01*
X10715000Y-8385000D02*
X10685000Y-8415000D01*
X10735000Y-11935000D02*
X10765000Y-11965000D01*
X10765000Y-11935000D02*
X10735000Y-11965000D01*
X12235000Y-9335000D02*
X12265000Y-9365000D01*
X12265000Y-9335000D02*
X12235000Y-9365000D01*
X13035000Y-11185000D02*
X13065000Y-11215000D01*
X13065000Y-11185000D02*
X13035000Y-11215000D01*
X13085000Y-9785000D02*
X13115000Y-9815000D01*
X13115000Y-9785000D02*
X13085000Y-9815000D01*
X13185000Y-10285000D02*
X13215000Y-10315000D01*
X13215000Y-10285000D02*
X13185000Y-10315000D01*
X14035000Y-9685000D02*
X14065000Y-9715000D01*
X14065000Y-9685000D02*
X14035000Y-9715000D01*
X14635000Y-8085000D02*
X14665000Y-8115000D01*
X14665000Y-8085000D02*
X14635000Y-8115000D01*
X14985000Y-12435000D02*
X15015000Y-12465000D01*
X15015000Y-12435000D02*
X14985000Y-12465000D01*
X11535000Y-8888000D02*
G75*
G02*
X11465000Y-8888000I-35000J0D01*
G01*
X11465000Y-8888000D02*
G75*
G02*
X11535000Y-8888000I35000J0D01*
G01*
X11535000Y-9650000D02*
G75*
G02*
X11465000Y-9650000I-35000J0D01*
G01*
X11465000Y-9650000D02*
G75*
G02*
X11535000Y-9650000I35000J0D01*
G01*
X11735500Y-10642500D02*
G75*
G02*
X11665500Y-10642500I-35000J0D01*
G01*
X11665500Y-10642500D02*
G75*
G02*
X11735500Y-10642500I35000J0D01*
G01*
X11735500Y-11404500D02*
G75*
G02*
X11665500Y-11404500I-35000J0D01*
G01*
X11665500Y-11404500D02*
G75*
G02*
X11735500Y-11404500I35000J0D01*
G01*
X11985000Y-9419000D02*
G75*
G02*
X11915000Y-9419000I-35000J0D01*
G01*
X11915000Y-9419000D02*
G75*
G02*
X11985000Y-9419000I35000J0D01*
G01*
X11985000Y-10181000D02*
G75*
G02*
X11915000Y-10181000I-35000J0D01*
G01*
X11915000Y-10181000D02*
G75*
G02*
X11985000Y-10181000I35000J0D01*
G01*
X12385000Y-10519000D02*
G75*
G02*
X12315000Y-10519000I-35000J0D01*
G01*
X12315000Y-10519000D02*
G75*
G02*
X12385000Y-10519000I35000J0D01*
G01*
X12385000Y-11281000D02*
G75*
G02*
X12315000Y-11281000I-35000J0D01*
G01*
X12315000Y-11281000D02*
G75*
G02*
X12385000Y-11281000I35000J0D01*
G01*
X10922000Y-10058500D02*
X10922000Y-10133500D01*
X10884500Y-10096000D02*
X10959500Y-10096000D01*
X10922000Y-10185500D02*
X10922000Y-10260500D01*
X10884500Y-10223000D02*
X10959500Y-10223000D01*
X10922000Y-10312500D02*
X10922000Y-10387500D01*
X10884500Y-10350000D02*
X10959500Y-10350000D01*
X12816284Y-9424285D02*
X12816284Y-9367716D01*
X12759715Y-9367716D01*
X12759715Y-9424285D01*
X12816284Y-9424285D01*
X12816284Y-9678285D02*
X12816284Y-9621716D01*
X12759715Y-9621716D01*
X12759715Y-9678285D01*
X12816284Y-9678285D01*
X12816284Y-9932285D02*
X12816284Y-9875716D01*
X12759715Y-9875716D01*
X12759715Y-9932285D01*
X12816284Y-9932285D01*
X12816284Y-10186285D02*
X12816284Y-10129716D01*
X12759715Y-10129716D01*
X12759715Y-10186285D01*
X12816284Y-10186285D01*
X12816284Y-10440285D02*
X12816284Y-10383716D01*
X12759715Y-10383716D01*
X12759715Y-10440285D01*
X12816284Y-10440285D01*
X12816284Y-10694285D02*
X12816284Y-10637716D01*
X12759715Y-10637716D01*
X12759715Y-10694285D01*
X12816284Y-10694285D01*
X12816284Y-10948285D02*
X12816284Y-10891716D01*
X12759715Y-10891716D01*
X12759715Y-10948285D01*
X12816284Y-10948285D01*
X12816284Y-11202284D02*
X12816284Y-11145716D01*
X12759715Y-11145716D01*
X12759715Y-11202284D01*
X12816284Y-11202284D01*
X12816284Y-11456284D02*
X12816284Y-11399715D01*
X12759715Y-11399715D01*
X12759715Y-11456284D01*
X12816284Y-11456284D01*
X13578284Y-9424285D02*
X13578284Y-9367716D01*
X13521715Y-9367716D01*
X13521715Y-9424285D01*
X13578284Y-9424285D01*
X13578284Y-9678285D02*
X13578284Y-9621716D01*
X13521715Y-9621716D01*
X13521715Y-9678285D01*
X13578284Y-9678285D01*
X13578284Y-9932285D02*
X13578284Y-9875716D01*
X13521715Y-9875716D01*
X13521715Y-9932285D01*
X13578284Y-9932285D01*
X13578284Y-10186285D02*
X13578284Y-10129716D01*
X13521715Y-10129716D01*
X13521715Y-10186285D01*
X13578284Y-10186285D01*
X13578284Y-10440285D02*
X13578284Y-10383716D01*
X13521715Y-10383716D01*
X13521715Y-10440285D01*
X13578284Y-10440285D01*
X13578284Y-10694285D02*
X13578284Y-10637716D01*
X13521715Y-10637716D01*
X13521715Y-10694285D01*
X13578284Y-10694285D01*
X13578284Y-10948285D02*
X13578284Y-10891716D01*
X13521715Y-10891716D01*
X13521715Y-10948285D01*
X13578284Y-10948285D01*
X13578284Y-11202284D02*
X13578284Y-11145716D01*
X13521715Y-11145716D01*
X13521715Y-11202284D01*
X13578284Y-11202284D01*
X13578284Y-11456284D02*
X13578284Y-11399715D01*
X13521715Y-11399715D01*
X13521715Y-11456284D01*
X13578284Y-11456284D01*
X10850000Y-9391000D02*
X10895000Y-9346000D01*
X10850000Y-9301000D01*
X10805000Y-9346000D01*
X10850000Y-9391000D01*
X10850000Y-9645000D02*
X10895000Y-9600000D01*
X10850000Y-9555000D01*
X10805000Y-9600000D01*
X10850000Y-9645000D01*
X10900000Y-11240000D02*
X10945000Y-11195000D01*
X10900000Y-11150000D01*
X10855000Y-11195000D01*
X10900000Y-11240000D01*
X10900000Y-11494000D02*
X10945000Y-11449000D01*
X10900000Y-11404000D01*
X10855000Y-11449000D01*
X10900000Y-11494000D01*
X12700000Y-8395000D02*
X12745000Y-8350000D01*
X12700000Y-8305000D01*
X12655000Y-8350000D01*
X12700000Y-8395000D01*
X12851000Y-12295000D02*
X12896000Y-12250000D01*
X12851000Y-12205000D01*
X12806000Y-12250000D01*
X12851000Y-12295000D01*
X12954000Y-8395000D02*
X12999000Y-8350000D01*
X12954000Y-8305000D01*
X12909000Y-8350000D01*
X12954000Y-8395000D01*
X13105000Y-12295000D02*
X13150000Y-12250000D01*
X13105000Y-12205000D01*
X13060000Y-12250000D01*
X13105000Y-12295000D01*
X13546000Y-12295000D02*
X13591000Y-12250000D01*
X13546000Y-12205000D01*
X13501000Y-12250000D01*
X13546000Y-12295000D01*
X13646000Y-8395000D02*
X13691000Y-8350000D01*
X13646000Y-8305000D01*
X13601000Y-8350000D01*
X13646000Y-8395000D01*
X13800000Y-12295000D02*
X13845000Y-12250000D01*
X13800000Y-12205000D01*
X13755000Y-12250000D01*
X13800000Y-12295000D01*
X13900000Y-8395000D02*
X13945000Y-8350000D01*
X13900000Y-8305000D01*
X13855000Y-8350000D01*
X13900000Y-8395000D01*
X14422500Y-12295000D02*
X14467500Y-12250000D01*
X14422500Y-12205000D01*
X14377500Y-12250000D01*
X14422500Y-12295000D01*
X14646000Y-11445000D02*
X14691000Y-11400000D01*
X14646000Y-11355000D01*
X14601000Y-11400000D01*
X14646000Y-11445000D01*
X14672500Y-10645000D02*
X14717500Y-10600000D01*
X14672500Y-10555000D01*
X14627500Y-10600000D01*
X14672500Y-10645000D01*
X14676500Y-12295000D02*
X14721500Y-12250000D01*
X14676500Y-12205000D01*
X14631500Y-12250000D01*
X14676500Y-12295000D01*
X14696000Y-8645000D02*
X14741000Y-8600000D01*
X14696000Y-8555000D01*
X14651000Y-8600000D01*
X14696000Y-8645000D01*
X14696000Y-9345000D02*
X14741000Y-9300000D01*
X14696000Y-9255000D01*
X14651000Y-9300000D01*
X14696000Y-9345000D01*
X14696000Y-10045000D02*
X14741000Y-10000000D01*
X14696000Y-9955000D01*
X14651000Y-10000000D01*
X14696000Y-10045000D01*
X14900000Y-11445000D02*
X14945000Y-11400000D01*
X14900000Y-11355000D01*
X14855000Y-11400000D01*
X14900000Y-11445000D01*
X14926500Y-10645000D02*
X14971500Y-10600000D01*
X14926500Y-10555000D01*
X14881500Y-10600000D01*
X14926500Y-10645000D01*
X14950000Y-8645000D02*
X14995000Y-8600000D01*
X14950000Y-8555000D01*
X14905000Y-8600000D01*
X14950000Y-8645000D01*
X14950000Y-9345000D02*
X14995000Y-9300000D01*
X14950000Y-9255000D01*
X14905000Y-9300000D01*
X14950000Y-9345000D01*
X14950000Y-10045000D02*
X14995000Y-10000000D01*
X14950000Y-9955000D01*
X14905000Y-10000000D01*
X14950000Y-10045000D01*
X12000000Y-8396000D02*
X12100000Y-8496000D01*
X12100000Y-8396000D02*
X12000000Y-8496000D01*
X12100000Y-8446000D02*
G75*
G02*
X12000000Y-8446000I-50000J0D01*
G01*
X12000000Y-8446000D02*
G75*
G02*
X12100000Y-8446000I50000J0D01*
G01*
X12000000Y-8650000D02*
X12100000Y-8750000D01*
X12100000Y-8650000D02*
X12000000Y-8750000D01*
X12100000Y-8700000D02*
G75*
G02*
X12000000Y-8700000I-50000J0D01*
G01*
X12000000Y-8700000D02*
G75*
G02*
X12100000Y-8700000I50000J0D01*
G01*
D11*
X10508277Y-13013984D02*
X10508277Y-12813984D01*
X10508277Y-12813984D02*
X10555896Y-12813984D01*
X10555896Y-12813984D02*
X10584467Y-12823508D01*
X10584467Y-12823508D02*
X10603515Y-12842555D01*
X10603515Y-12842555D02*
X10613039Y-12861603D01*
X10613039Y-12861603D02*
X10622563Y-12899698D01*
X10622563Y-12899698D02*
X10622563Y-12928269D01*
X10622563Y-12928269D02*
X10613039Y-12966365D01*
X10613039Y-12966365D02*
X10603515Y-12985412D01*
X10603515Y-12985412D02*
X10584467Y-13004460D01*
X10584467Y-13004460D02*
X10555896Y-13013984D01*
X10555896Y-13013984D02*
X10508277Y-13013984D01*
X10708277Y-13013984D02*
X10708277Y-12880650D01*
X10708277Y-12918746D02*
X10717801Y-12899698D01*
X10717801Y-12899698D02*
X10727324Y-12890174D01*
X10727324Y-12890174D02*
X10746372Y-12880650D01*
X10746372Y-12880650D02*
X10765420Y-12880650D01*
X10832086Y-13013984D02*
X10832086Y-12880650D01*
X10832086Y-12813984D02*
X10822563Y-12823508D01*
X10822563Y-12823508D02*
X10832086Y-12833031D01*
X10832086Y-12833031D02*
X10841610Y-12823508D01*
X10841610Y-12823508D02*
X10832086Y-12813984D01*
X10832086Y-12813984D02*
X10832086Y-12833031D01*
X10955896Y-13013984D02*
X10936848Y-13004460D01*
X10936848Y-13004460D02*
X10927324Y-12985412D01*
X10927324Y-12985412D02*
X10927324Y-12813984D01*
X11060658Y-13013984D02*
X11041610Y-13004460D01*
X11041610Y-13004460D02*
X11032086Y-12985412D01*
X11032086Y-12985412D02*
X11032086Y-12813984D01*
X11289229Y-13013984D02*
X11289229Y-12813984D01*
X11289229Y-12813984D02*
X11355896Y-12956841D01*
X11355896Y-12956841D02*
X11422562Y-12813984D01*
X11422562Y-12813984D02*
X11422562Y-13013984D01*
X11603515Y-13013984D02*
X11603515Y-12909222D01*
X11603515Y-12909222D02*
X11593991Y-12890174D01*
X11593991Y-12890174D02*
X11574943Y-12880650D01*
X11574943Y-12880650D02*
X11536848Y-12880650D01*
X11536848Y-12880650D02*
X11517801Y-12890174D01*
X11603515Y-13004460D02*
X11584467Y-13013984D01*
X11584467Y-13013984D02*
X11536848Y-13013984D01*
X11536848Y-13013984D02*
X11517801Y-13004460D01*
X11517801Y-13004460D02*
X11508277Y-12985412D01*
X11508277Y-12985412D02*
X11508277Y-12966365D01*
X11508277Y-12966365D02*
X11517801Y-12947317D01*
X11517801Y-12947317D02*
X11536848Y-12937793D01*
X11536848Y-12937793D02*
X11584467Y-12937793D01*
X11584467Y-12937793D02*
X11603515Y-12928269D01*
X11698753Y-12880650D02*
X11698753Y-13080650D01*
X11698753Y-12890174D02*
X11717801Y-12880650D01*
X11717801Y-12880650D02*
X11755896Y-12880650D01*
X11755896Y-12880650D02*
X11774943Y-12890174D01*
X11774943Y-12890174D02*
X11784467Y-12899698D01*
X11784467Y-12899698D02*
X11793991Y-12918746D01*
X11793991Y-12918746D02*
X11793991Y-12975888D01*
X11793991Y-12975888D02*
X11784467Y-12994936D01*
X11784467Y-12994936D02*
X11774943Y-13004460D01*
X11774943Y-13004460D02*
X11755896Y-13013984D01*
X11755896Y-13013984D02*
X11717801Y-13013984D01*
X11717801Y-13013984D02*
X11698753Y-13004460D01*
X11879705Y-12994936D02*
X11889229Y-13004460D01*
X11889229Y-13004460D02*
X11879705Y-13013984D01*
X11879705Y-13013984D02*
X11870182Y-13004460D01*
X11870182Y-13004460D02*
X11879705Y-12994936D01*
X11879705Y-12994936D02*
X11879705Y-13013984D01*
X11879705Y-12890174D02*
X11889229Y-12899698D01*
X11889229Y-12899698D02*
X11879705Y-12909222D01*
X11879705Y-12909222D02*
X11870182Y-12899698D01*
X11870182Y-12899698D02*
X11879705Y-12890174D01*
X11879705Y-12890174D02*
X11879705Y-12909222D01*
D12*
X10217500Y-13327500D02*
X10247500Y-13357500D01*
X10247500Y-13327500D02*
X10217500Y-13357500D01*
D11*
X10546372Y-13233984D02*
X10565420Y-13233984D01*
X10565420Y-13233984D02*
X10584467Y-13243508D01*
X10584467Y-13243508D02*
X10593991Y-13253031D01*
X10593991Y-13253031D02*
X10603515Y-13272079D01*
X10603515Y-13272079D02*
X10613039Y-13310174D01*
X10613039Y-13310174D02*
X10613039Y-13357793D01*
X10613039Y-13357793D02*
X10603515Y-13395888D01*
X10603515Y-13395888D02*
X10593991Y-13414936D01*
X10593991Y-13414936D02*
X10584467Y-13424460D01*
X10584467Y-13424460D02*
X10565420Y-13433984D01*
X10565420Y-13433984D02*
X10546372Y-13433984D01*
X10546372Y-13433984D02*
X10527324Y-13424460D01*
X10527324Y-13424460D02*
X10517801Y-13414936D01*
X10517801Y-13414936D02*
X10508277Y-13395888D01*
X10508277Y-13395888D02*
X10498753Y-13357793D01*
X10498753Y-13357793D02*
X10498753Y-13310174D01*
X10498753Y-13310174D02*
X10508277Y-13272079D01*
X10508277Y-13272079D02*
X10517801Y-13253031D01*
X10517801Y-13253031D02*
X10527324Y-13243508D01*
X10527324Y-13243508D02*
X10546372Y-13233984D01*
X10698753Y-13414936D02*
X10708277Y-13424460D01*
X10708277Y-13424460D02*
X10698753Y-13433984D01*
X10698753Y-13433984D02*
X10689229Y-13424460D01*
X10689229Y-13424460D02*
X10698753Y-13414936D01*
X10698753Y-13414936D02*
X10698753Y-13433984D01*
X10774944Y-13233984D02*
X10898753Y-13233984D01*
X10898753Y-13233984D02*
X10832086Y-13310174D01*
X10832086Y-13310174D02*
X10860658Y-13310174D01*
X10860658Y-13310174D02*
X10879705Y-13319698D01*
X10879705Y-13319698D02*
X10889229Y-13329222D01*
X10889229Y-13329222D02*
X10898753Y-13348269D01*
X10898753Y-13348269D02*
X10898753Y-13395888D01*
X10898753Y-13395888D02*
X10889229Y-13414936D01*
X10889229Y-13414936D02*
X10879705Y-13424460D01*
X10879705Y-13424460D02*
X10860658Y-13433984D01*
X10860658Y-13433984D02*
X10803515Y-13433984D01*
X10803515Y-13433984D02*
X10784467Y-13424460D01*
X10784467Y-13424460D02*
X10774944Y-13414936D01*
X11022563Y-13233984D02*
X11041610Y-13233984D01*
X11041610Y-13233984D02*
X11060658Y-13243508D01*
X11060658Y-13243508D02*
X11070182Y-13253031D01*
X11070182Y-13253031D02*
X11079705Y-13272079D01*
X11079705Y-13272079D02*
X11089229Y-13310174D01*
X11089229Y-13310174D02*
X11089229Y-13357793D01*
X11089229Y-13357793D02*
X11079705Y-13395888D01*
X11079705Y-13395888D02*
X11070182Y-13414936D01*
X11070182Y-13414936D02*
X11060658Y-13424460D01*
X11060658Y-13424460D02*
X11041610Y-13433984D01*
X11041610Y-13433984D02*
X11022563Y-13433984D01*
X11022563Y-13433984D02*
X11003515Y-13424460D01*
X11003515Y-13424460D02*
X10993991Y-13414936D01*
X10993991Y-13414936D02*
X10984467Y-13395888D01*
X10984467Y-13395888D02*
X10974944Y-13357793D01*
X10974944Y-13357793D02*
X10974944Y-13310174D01*
X10974944Y-13310174D02*
X10984467Y-13272079D01*
X10984467Y-13272079D02*
X10993991Y-13253031D01*
X10993991Y-13253031D02*
X11003515Y-13243508D01*
X11003515Y-13243508D02*
X11022563Y-13233984D01*
X11213039Y-13233984D02*
X11232086Y-13233984D01*
X11232086Y-13233984D02*
X11251134Y-13243508D01*
X11251134Y-13243508D02*
X11260658Y-13253031D01*
X11260658Y-13253031D02*
X11270182Y-13272079D01*
X11270182Y-13272079D02*
X11279705Y-13310174D01*
X11279705Y-13310174D02*
X11279705Y-13357793D01*
X11279705Y-13357793D02*
X11270182Y-13395888D01*
X11270182Y-13395888D02*
X11260658Y-13414936D01*
X11260658Y-13414936D02*
X11251134Y-13424460D01*
X11251134Y-13424460D02*
X11232086Y-13433984D01*
X11232086Y-13433984D02*
X11213039Y-13433984D01*
X11213039Y-13433984D02*
X11193991Y-13424460D01*
X11193991Y-13424460D02*
X11184467Y-13414936D01*
X11184467Y-13414936D02*
X11174944Y-13395888D01*
X11174944Y-13395888D02*
X11165420Y-13357793D01*
X11165420Y-13357793D02*
X11165420Y-13310174D01*
X11165420Y-13310174D02*
X11174944Y-13272079D01*
X11174944Y-13272079D02*
X11184467Y-13253031D01*
X11184467Y-13253031D02*
X11193991Y-13243508D01*
X11193991Y-13243508D02*
X11213039Y-13233984D01*
X11365420Y-13433984D02*
X11365420Y-13300650D01*
X11365420Y-13319698D02*
X11374943Y-13310174D01*
X11374943Y-13310174D02*
X11393991Y-13300650D01*
X11393991Y-13300650D02*
X11422563Y-13300650D01*
X11422563Y-13300650D02*
X11441610Y-13310174D01*
X11441610Y-13310174D02*
X11451134Y-13329222D01*
X11451134Y-13329222D02*
X11451134Y-13433984D01*
X11451134Y-13329222D02*
X11460658Y-13310174D01*
X11460658Y-13310174D02*
X11479705Y-13300650D01*
X11479705Y-13300650D02*
X11508277Y-13300650D01*
X11508277Y-13300650D02*
X11527324Y-13310174D01*
X11527324Y-13310174D02*
X11536848Y-13329222D01*
X11536848Y-13329222D02*
X11536848Y-13433984D01*
X11632086Y-13433984D02*
X11632086Y-13300650D01*
X11632086Y-13319698D02*
X11641610Y-13310174D01*
X11641610Y-13310174D02*
X11660658Y-13300650D01*
X11660658Y-13300650D02*
X11689229Y-13300650D01*
X11689229Y-13300650D02*
X11708277Y-13310174D01*
X11708277Y-13310174D02*
X11717801Y-13329222D01*
X11717801Y-13329222D02*
X11717801Y-13433984D01*
X11717801Y-13329222D02*
X11727324Y-13310174D01*
X11727324Y-13310174D02*
X11746372Y-13300650D01*
X11746372Y-13300650D02*
X11774943Y-13300650D01*
X11774943Y-13300650D02*
X11793991Y-13310174D01*
X11793991Y-13310174D02*
X11803515Y-13329222D01*
X11803515Y-13329222D02*
X11803515Y-13433984D01*
X12193991Y-13224460D02*
X12022563Y-13481603D01*
X12451134Y-13233984D02*
X12470182Y-13233984D01*
X12470182Y-13233984D02*
X12489229Y-13243508D01*
X12489229Y-13243508D02*
X12498753Y-13253031D01*
X12498753Y-13253031D02*
X12508277Y-13272079D01*
X12508277Y-13272079D02*
X12517801Y-13310174D01*
X12517801Y-13310174D02*
X12517801Y-13357793D01*
X12517801Y-13357793D02*
X12508277Y-13395888D01*
X12508277Y-13395888D02*
X12498753Y-13414936D01*
X12498753Y-13414936D02*
X12489229Y-13424460D01*
X12489229Y-13424460D02*
X12470182Y-13433984D01*
X12470182Y-13433984D02*
X12451134Y-13433984D01*
X12451134Y-13433984D02*
X12432086Y-13424460D01*
X12432086Y-13424460D02*
X12422563Y-13414936D01*
X12422563Y-13414936D02*
X12413039Y-13395888D01*
X12413039Y-13395888D02*
X12403515Y-13357793D01*
X12403515Y-13357793D02*
X12403515Y-13310174D01*
X12403515Y-13310174D02*
X12413039Y-13272079D01*
X12413039Y-13272079D02*
X12422563Y-13253031D01*
X12422563Y-13253031D02*
X12432086Y-13243508D01*
X12432086Y-13243508D02*
X12451134Y-13233984D01*
X12603515Y-13414936D02*
X12613039Y-13424460D01*
X12613039Y-13424460D02*
X12603515Y-13433984D01*
X12603515Y-13433984D02*
X12593991Y-13424460D01*
X12593991Y-13424460D02*
X12603515Y-13414936D01*
X12603515Y-13414936D02*
X12603515Y-13433984D01*
X12736848Y-13233984D02*
X12755896Y-13233984D01*
X12755896Y-13233984D02*
X12774944Y-13243508D01*
X12774944Y-13243508D02*
X12784467Y-13253031D01*
X12784467Y-13253031D02*
X12793991Y-13272079D01*
X12793991Y-13272079D02*
X12803515Y-13310174D01*
X12803515Y-13310174D02*
X12803515Y-13357793D01*
X12803515Y-13357793D02*
X12793991Y-13395888D01*
X12793991Y-13395888D02*
X12784467Y-13414936D01*
X12784467Y-13414936D02*
X12774944Y-13424460D01*
X12774944Y-13424460D02*
X12755896Y-13433984D01*
X12755896Y-13433984D02*
X12736848Y-13433984D01*
X12736848Y-13433984D02*
X12717801Y-13424460D01*
X12717801Y-13424460D02*
X12708277Y-13414936D01*
X12708277Y-13414936D02*
X12698753Y-13395888D01*
X12698753Y-13395888D02*
X12689229Y-13357793D01*
X12689229Y-13357793D02*
X12689229Y-13310174D01*
X12689229Y-13310174D02*
X12698753Y-13272079D01*
X12698753Y-13272079D02*
X12708277Y-13253031D01*
X12708277Y-13253031D02*
X12717801Y-13243508D01*
X12717801Y-13243508D02*
X12736848Y-13233984D01*
X12993991Y-13433984D02*
X12879706Y-13433984D01*
X12936848Y-13433984D02*
X12936848Y-13233984D01*
X12936848Y-13233984D02*
X12917801Y-13262555D01*
X12917801Y-13262555D02*
X12898753Y-13281603D01*
X12898753Y-13281603D02*
X12879706Y-13291127D01*
X13184467Y-13433984D02*
X13070182Y-13433984D01*
X13127325Y-13433984D02*
X13127325Y-13233984D01*
X13127325Y-13233984D02*
X13108277Y-13262555D01*
X13108277Y-13262555D02*
X13089229Y-13281603D01*
X13089229Y-13281603D02*
X13070182Y-13291127D01*
X13298753Y-13319698D02*
X13279706Y-13310174D01*
X13279706Y-13310174D02*
X13270182Y-13300650D01*
X13270182Y-13300650D02*
X13260658Y-13281603D01*
X13260658Y-13281603D02*
X13260658Y-13272079D01*
X13260658Y-13272079D02*
X13270182Y-13253031D01*
X13270182Y-13253031D02*
X13279706Y-13243508D01*
X13279706Y-13243508D02*
X13298753Y-13233984D01*
X13298753Y-13233984D02*
X13336848Y-13233984D01*
X13336848Y-13233984D02*
X13355896Y-13243508D01*
X13355896Y-13243508D02*
X13365420Y-13253031D01*
X13365420Y-13253031D02*
X13374944Y-13272079D01*
X13374944Y-13272079D02*
X13374944Y-13281603D01*
X13374944Y-13281603D02*
X13365420Y-13300650D01*
X13365420Y-13300650D02*
X13355896Y-13310174D01*
X13355896Y-13310174D02*
X13336848Y-13319698D01*
X13336848Y-13319698D02*
X13298753Y-13319698D01*
X13298753Y-13319698D02*
X13279706Y-13329222D01*
X13279706Y-13329222D02*
X13270182Y-13338746D01*
X13270182Y-13338746D02*
X13260658Y-13357793D01*
X13260658Y-13357793D02*
X13260658Y-13395888D01*
X13260658Y-13395888D02*
X13270182Y-13414936D01*
X13270182Y-13414936D02*
X13279706Y-13424460D01*
X13279706Y-13424460D02*
X13298753Y-13433984D01*
X13298753Y-13433984D02*
X13336848Y-13433984D01*
X13336848Y-13433984D02*
X13355896Y-13424460D01*
X13355896Y-13424460D02*
X13365420Y-13414936D01*
X13365420Y-13414936D02*
X13374944Y-13395888D01*
X13374944Y-13395888D02*
X13374944Y-13357793D01*
X13374944Y-13357793D02*
X13365420Y-13338746D01*
X13365420Y-13338746D02*
X13355896Y-13329222D01*
X13355896Y-13329222D02*
X13336848Y-13319698D01*
X13451134Y-13233984D02*
X13451134Y-13272079D01*
X13527325Y-13233984D02*
X13527325Y-13272079D01*
X13822563Y-13510174D02*
X13813039Y-13500650D01*
X13813039Y-13500650D02*
X13793991Y-13472079D01*
X13793991Y-13472079D02*
X13784468Y-13453031D01*
X13784468Y-13453031D02*
X13774944Y-13424460D01*
X13774944Y-13424460D02*
X13765420Y-13376841D01*
X13765420Y-13376841D02*
X13765420Y-13338746D01*
X13765420Y-13338746D02*
X13774944Y-13291127D01*
X13774944Y-13291127D02*
X13784468Y-13262555D01*
X13784468Y-13262555D02*
X13793991Y-13243508D01*
X13793991Y-13243508D02*
X13813039Y-13214936D01*
X13813039Y-13214936D02*
X13822563Y-13205412D01*
X13908277Y-13433984D02*
X13946372Y-13433984D01*
X13946372Y-13433984D02*
X13965420Y-13424460D01*
X13965420Y-13424460D02*
X13974944Y-13414936D01*
X13974944Y-13414936D02*
X13993991Y-13386365D01*
X13993991Y-13386365D02*
X14003515Y-13348269D01*
X14003515Y-13348269D02*
X14003515Y-13272079D01*
X14003515Y-13272079D02*
X13993991Y-13253031D01*
X13993991Y-13253031D02*
X13984468Y-13243508D01*
X13984468Y-13243508D02*
X13965420Y-13233984D01*
X13965420Y-13233984D02*
X13927325Y-13233984D01*
X13927325Y-13233984D02*
X13908277Y-13243508D01*
X13908277Y-13243508D02*
X13898753Y-13253031D01*
X13898753Y-13253031D02*
X13889229Y-13272079D01*
X13889229Y-13272079D02*
X13889229Y-13319698D01*
X13889229Y-13319698D02*
X13898753Y-13338746D01*
X13898753Y-13338746D02*
X13908277Y-13348269D01*
X13908277Y-13348269D02*
X13927325Y-13357793D01*
X13927325Y-13357793D02*
X13965420Y-13357793D01*
X13965420Y-13357793D02*
X13984468Y-13348269D01*
X13984468Y-13348269D02*
X13993991Y-13338746D01*
X13993991Y-13338746D02*
X14003515Y-13319698D01*
X14241610Y-13433984D02*
X14241610Y-13233984D01*
X14327325Y-13433984D02*
X14327325Y-13329222D01*
X14327325Y-13329222D02*
X14317801Y-13310174D01*
X14317801Y-13310174D02*
X14298753Y-13300650D01*
X14298753Y-13300650D02*
X14270182Y-13300650D01*
X14270182Y-13300650D02*
X14251134Y-13310174D01*
X14251134Y-13310174D02*
X14241610Y-13319698D01*
X14451134Y-13433984D02*
X14432087Y-13424460D01*
X14432087Y-13424460D02*
X14422563Y-13414936D01*
X14422563Y-13414936D02*
X14413039Y-13395888D01*
X14413039Y-13395888D02*
X14413039Y-13338746D01*
X14413039Y-13338746D02*
X14422563Y-13319698D01*
X14422563Y-13319698D02*
X14432087Y-13310174D01*
X14432087Y-13310174D02*
X14451134Y-13300650D01*
X14451134Y-13300650D02*
X14479706Y-13300650D01*
X14479706Y-13300650D02*
X14498753Y-13310174D01*
X14498753Y-13310174D02*
X14508277Y-13319698D01*
X14508277Y-13319698D02*
X14517801Y-13338746D01*
X14517801Y-13338746D02*
X14517801Y-13395888D01*
X14517801Y-13395888D02*
X14508277Y-13414936D01*
X14508277Y-13414936D02*
X14498753Y-13424460D01*
X14498753Y-13424460D02*
X14479706Y-13433984D01*
X14479706Y-13433984D02*
X14451134Y-13433984D01*
X14632087Y-13433984D02*
X14613039Y-13424460D01*
X14613039Y-13424460D02*
X14603515Y-13405412D01*
X14603515Y-13405412D02*
X14603515Y-13233984D01*
X14784468Y-13424460D02*
X14765420Y-13433984D01*
X14765420Y-13433984D02*
X14727325Y-13433984D01*
X14727325Y-13433984D02*
X14708277Y-13424460D01*
X14708277Y-13424460D02*
X14698753Y-13405412D01*
X14698753Y-13405412D02*
X14698753Y-13329222D01*
X14698753Y-13329222D02*
X14708277Y-13310174D01*
X14708277Y-13310174D02*
X14727325Y-13300650D01*
X14727325Y-13300650D02*
X14765420Y-13300650D01*
X14765420Y-13300650D02*
X14784468Y-13310174D01*
X14784468Y-13310174D02*
X14793991Y-13329222D01*
X14793991Y-13329222D02*
X14793991Y-13348269D01*
X14793991Y-13348269D02*
X14698753Y-13367317D01*
X14870182Y-13424460D02*
X14889230Y-13433984D01*
X14889230Y-13433984D02*
X14927325Y-13433984D01*
X14927325Y-13433984D02*
X14946372Y-13424460D01*
X14946372Y-13424460D02*
X14955896Y-13405412D01*
X14955896Y-13405412D02*
X14955896Y-13395888D01*
X14955896Y-13395888D02*
X14946372Y-13376841D01*
X14946372Y-13376841D02*
X14927325Y-13367317D01*
X14927325Y-13367317D02*
X14898753Y-13367317D01*
X14898753Y-13367317D02*
X14879706Y-13357793D01*
X14879706Y-13357793D02*
X14870182Y-13338746D01*
X14870182Y-13338746D02*
X14870182Y-13329222D01*
X14870182Y-13329222D02*
X14879706Y-13310174D01*
X14879706Y-13310174D02*
X14898753Y-13300650D01*
X14898753Y-13300650D02*
X14927325Y-13300650D01*
X14927325Y-13300650D02*
X14946372Y-13310174D01*
X15022563Y-13510174D02*
X15032087Y-13500650D01*
X15032087Y-13500650D02*
X15051134Y-13472079D01*
X15051134Y-13472079D02*
X15060658Y-13453031D01*
X15060658Y-13453031D02*
X15070182Y-13424460D01*
X15070182Y-13424460D02*
X15079706Y-13376841D01*
X15079706Y-13376841D02*
X15079706Y-13338746D01*
X15079706Y-13338746D02*
X15070182Y-13291127D01*
X15070182Y-13291127D02*
X15060658Y-13262555D01*
X15060658Y-13262555D02*
X15051134Y-13243508D01*
X15051134Y-13243508D02*
X15032087Y-13214936D01*
X15032087Y-13214936D02*
X15022563Y-13205412D01*
D12*
X10247500Y-13606500D02*
G75*
G02*
X10177500Y-13606500I-35000J0D01*
G01*
X10177500Y-13606500D02*
G75*
G02*
X10247500Y-13606500I35000J0D01*
G01*
D11*
X10546372Y-13497984D02*
X10565420Y-13497984D01*
X10565420Y-13497984D02*
X10584467Y-13507508D01*
X10584467Y-13507508D02*
X10593991Y-13517031D01*
X10593991Y-13517031D02*
X10603515Y-13536079D01*
X10603515Y-13536079D02*
X10613039Y-13574174D01*
X10613039Y-13574174D02*
X10613039Y-13621793D01*
X10613039Y-13621793D02*
X10603515Y-13659888D01*
X10603515Y-13659888D02*
X10593991Y-13678936D01*
X10593991Y-13678936D02*
X10584467Y-13688460D01*
X10584467Y-13688460D02*
X10565420Y-13697984D01*
X10565420Y-13697984D02*
X10546372Y-13697984D01*
X10546372Y-13697984D02*
X10527324Y-13688460D01*
X10527324Y-13688460D02*
X10517801Y-13678936D01*
X10517801Y-13678936D02*
X10508277Y-13659888D01*
X10508277Y-13659888D02*
X10498753Y-13621793D01*
X10498753Y-13621793D02*
X10498753Y-13574174D01*
X10498753Y-13574174D02*
X10508277Y-13536079D01*
X10508277Y-13536079D02*
X10517801Y-13517031D01*
X10517801Y-13517031D02*
X10527324Y-13507508D01*
X10527324Y-13507508D02*
X10546372Y-13497984D01*
X10698753Y-13678936D02*
X10708277Y-13688460D01*
X10708277Y-13688460D02*
X10698753Y-13697984D01*
X10698753Y-13697984D02*
X10689229Y-13688460D01*
X10689229Y-13688460D02*
X10698753Y-13678936D01*
X10698753Y-13678936D02*
X10698753Y-13697984D01*
X10774944Y-13497984D02*
X10908277Y-13497984D01*
X10908277Y-13497984D02*
X10822563Y-13697984D01*
X11022563Y-13497984D02*
X11041610Y-13497984D01*
X11041610Y-13497984D02*
X11060658Y-13507508D01*
X11060658Y-13507508D02*
X11070182Y-13517031D01*
X11070182Y-13517031D02*
X11079705Y-13536079D01*
X11079705Y-13536079D02*
X11089229Y-13574174D01*
X11089229Y-13574174D02*
X11089229Y-13621793D01*
X11089229Y-13621793D02*
X11079705Y-13659888D01*
X11079705Y-13659888D02*
X11070182Y-13678936D01*
X11070182Y-13678936D02*
X11060658Y-13688460D01*
X11060658Y-13688460D02*
X11041610Y-13697984D01*
X11041610Y-13697984D02*
X11022563Y-13697984D01*
X11022563Y-13697984D02*
X11003515Y-13688460D01*
X11003515Y-13688460D02*
X10993991Y-13678936D01*
X10993991Y-13678936D02*
X10984467Y-13659888D01*
X10984467Y-13659888D02*
X10974944Y-13621793D01*
X10974944Y-13621793D02*
X10974944Y-13574174D01*
X10974944Y-13574174D02*
X10984467Y-13536079D01*
X10984467Y-13536079D02*
X10993991Y-13517031D01*
X10993991Y-13517031D02*
X11003515Y-13507508D01*
X11003515Y-13507508D02*
X11022563Y-13497984D01*
X11213039Y-13497984D02*
X11232086Y-13497984D01*
X11232086Y-13497984D02*
X11251134Y-13507508D01*
X11251134Y-13507508D02*
X11260658Y-13517031D01*
X11260658Y-13517031D02*
X11270182Y-13536079D01*
X11270182Y-13536079D02*
X11279705Y-13574174D01*
X11279705Y-13574174D02*
X11279705Y-13621793D01*
X11279705Y-13621793D02*
X11270182Y-13659888D01*
X11270182Y-13659888D02*
X11260658Y-13678936D01*
X11260658Y-13678936D02*
X11251134Y-13688460D01*
X11251134Y-13688460D02*
X11232086Y-13697984D01*
X11232086Y-13697984D02*
X11213039Y-13697984D01*
X11213039Y-13697984D02*
X11193991Y-13688460D01*
X11193991Y-13688460D02*
X11184467Y-13678936D01*
X11184467Y-13678936D02*
X11174944Y-13659888D01*
X11174944Y-13659888D02*
X11165420Y-13621793D01*
X11165420Y-13621793D02*
X11165420Y-13574174D01*
X11165420Y-13574174D02*
X11174944Y-13536079D01*
X11174944Y-13536079D02*
X11184467Y-13517031D01*
X11184467Y-13517031D02*
X11193991Y-13507508D01*
X11193991Y-13507508D02*
X11213039Y-13497984D01*
X11365420Y-13697984D02*
X11365420Y-13564650D01*
X11365420Y-13583698D02*
X11374943Y-13574174D01*
X11374943Y-13574174D02*
X11393991Y-13564650D01*
X11393991Y-13564650D02*
X11422563Y-13564650D01*
X11422563Y-13564650D02*
X11441610Y-13574174D01*
X11441610Y-13574174D02*
X11451134Y-13593222D01*
X11451134Y-13593222D02*
X11451134Y-13697984D01*
X11451134Y-13593222D02*
X11460658Y-13574174D01*
X11460658Y-13574174D02*
X11479705Y-13564650D01*
X11479705Y-13564650D02*
X11508277Y-13564650D01*
X11508277Y-13564650D02*
X11527324Y-13574174D01*
X11527324Y-13574174D02*
X11536848Y-13593222D01*
X11536848Y-13593222D02*
X11536848Y-13697984D01*
X11632086Y-13697984D02*
X11632086Y-13564650D01*
X11632086Y-13583698D02*
X11641610Y-13574174D01*
X11641610Y-13574174D02*
X11660658Y-13564650D01*
X11660658Y-13564650D02*
X11689229Y-13564650D01*
X11689229Y-13564650D02*
X11708277Y-13574174D01*
X11708277Y-13574174D02*
X11717801Y-13593222D01*
X11717801Y-13593222D02*
X11717801Y-13697984D01*
X11717801Y-13593222D02*
X11727324Y-13574174D01*
X11727324Y-13574174D02*
X11746372Y-13564650D01*
X11746372Y-13564650D02*
X11774943Y-13564650D01*
X11774943Y-13564650D02*
X11793991Y-13574174D01*
X11793991Y-13574174D02*
X11803515Y-13593222D01*
X11803515Y-13593222D02*
X11803515Y-13697984D01*
X12193991Y-13488460D02*
X12022563Y-13745603D01*
X12451134Y-13497984D02*
X12470182Y-13497984D01*
X12470182Y-13497984D02*
X12489229Y-13507508D01*
X12489229Y-13507508D02*
X12498753Y-13517031D01*
X12498753Y-13517031D02*
X12508277Y-13536079D01*
X12508277Y-13536079D02*
X12517801Y-13574174D01*
X12517801Y-13574174D02*
X12517801Y-13621793D01*
X12517801Y-13621793D02*
X12508277Y-13659888D01*
X12508277Y-13659888D02*
X12498753Y-13678936D01*
X12498753Y-13678936D02*
X12489229Y-13688460D01*
X12489229Y-13688460D02*
X12470182Y-13697984D01*
X12470182Y-13697984D02*
X12451134Y-13697984D01*
X12451134Y-13697984D02*
X12432086Y-13688460D01*
X12432086Y-13688460D02*
X12422563Y-13678936D01*
X12422563Y-13678936D02*
X12413039Y-13659888D01*
X12413039Y-13659888D02*
X12403515Y-13621793D01*
X12403515Y-13621793D02*
X12403515Y-13574174D01*
X12403515Y-13574174D02*
X12413039Y-13536079D01*
X12413039Y-13536079D02*
X12422563Y-13517031D01*
X12422563Y-13517031D02*
X12432086Y-13507508D01*
X12432086Y-13507508D02*
X12451134Y-13497984D01*
X12603515Y-13678936D02*
X12613039Y-13688460D01*
X12613039Y-13688460D02*
X12603515Y-13697984D01*
X12603515Y-13697984D02*
X12593991Y-13688460D01*
X12593991Y-13688460D02*
X12603515Y-13678936D01*
X12603515Y-13678936D02*
X12603515Y-13697984D01*
X12736848Y-13497984D02*
X12755896Y-13497984D01*
X12755896Y-13497984D02*
X12774944Y-13507508D01*
X12774944Y-13507508D02*
X12784467Y-13517031D01*
X12784467Y-13517031D02*
X12793991Y-13536079D01*
X12793991Y-13536079D02*
X12803515Y-13574174D01*
X12803515Y-13574174D02*
X12803515Y-13621793D01*
X12803515Y-13621793D02*
X12793991Y-13659888D01*
X12793991Y-13659888D02*
X12784467Y-13678936D01*
X12784467Y-13678936D02*
X12774944Y-13688460D01*
X12774944Y-13688460D02*
X12755896Y-13697984D01*
X12755896Y-13697984D02*
X12736848Y-13697984D01*
X12736848Y-13697984D02*
X12717801Y-13688460D01*
X12717801Y-13688460D02*
X12708277Y-13678936D01*
X12708277Y-13678936D02*
X12698753Y-13659888D01*
X12698753Y-13659888D02*
X12689229Y-13621793D01*
X12689229Y-13621793D02*
X12689229Y-13574174D01*
X12689229Y-13574174D02*
X12698753Y-13536079D01*
X12698753Y-13536079D02*
X12708277Y-13517031D01*
X12708277Y-13517031D02*
X12717801Y-13507508D01*
X12717801Y-13507508D02*
X12736848Y-13497984D01*
X12879706Y-13517031D02*
X12889229Y-13507508D01*
X12889229Y-13507508D02*
X12908277Y-13497984D01*
X12908277Y-13497984D02*
X12955896Y-13497984D01*
X12955896Y-13497984D02*
X12974944Y-13507508D01*
X12974944Y-13507508D02*
X12984467Y-13517031D01*
X12984467Y-13517031D02*
X12993991Y-13536079D01*
X12993991Y-13536079D02*
X12993991Y-13555127D01*
X12993991Y-13555127D02*
X12984467Y-13583698D01*
X12984467Y-13583698D02*
X12870182Y-13697984D01*
X12870182Y-13697984D02*
X12993991Y-13697984D01*
X13060658Y-13497984D02*
X13193991Y-13497984D01*
X13193991Y-13497984D02*
X13108277Y-13697984D01*
X13355896Y-13497984D02*
X13317801Y-13497984D01*
X13317801Y-13497984D02*
X13298753Y-13507508D01*
X13298753Y-13507508D02*
X13289229Y-13517031D01*
X13289229Y-13517031D02*
X13270182Y-13545603D01*
X13270182Y-13545603D02*
X13260658Y-13583698D01*
X13260658Y-13583698D02*
X13260658Y-13659888D01*
X13260658Y-13659888D02*
X13270182Y-13678936D01*
X13270182Y-13678936D02*
X13279706Y-13688460D01*
X13279706Y-13688460D02*
X13298753Y-13697984D01*
X13298753Y-13697984D02*
X13336848Y-13697984D01*
X13336848Y-13697984D02*
X13355896Y-13688460D01*
X13355896Y-13688460D02*
X13365420Y-13678936D01*
X13365420Y-13678936D02*
X13374944Y-13659888D01*
X13374944Y-13659888D02*
X13374944Y-13612269D01*
X13374944Y-13612269D02*
X13365420Y-13593222D01*
X13365420Y-13593222D02*
X13355896Y-13583698D01*
X13355896Y-13583698D02*
X13336848Y-13574174D01*
X13336848Y-13574174D02*
X13298753Y-13574174D01*
X13298753Y-13574174D02*
X13279706Y-13583698D01*
X13279706Y-13583698D02*
X13270182Y-13593222D01*
X13270182Y-13593222D02*
X13260658Y-13612269D01*
X13451134Y-13497984D02*
X13451134Y-13536079D01*
X13527325Y-13497984D02*
X13527325Y-13536079D01*
X13822563Y-13774174D02*
X13813039Y-13764650D01*
X13813039Y-13764650D02*
X13793991Y-13736079D01*
X13793991Y-13736079D02*
X13784468Y-13717031D01*
X13784468Y-13717031D02*
X13774944Y-13688460D01*
X13774944Y-13688460D02*
X13765420Y-13640841D01*
X13765420Y-13640841D02*
X13765420Y-13602746D01*
X13765420Y-13602746D02*
X13774944Y-13555127D01*
X13774944Y-13555127D02*
X13784468Y-13526555D01*
X13784468Y-13526555D02*
X13793991Y-13507508D01*
X13793991Y-13507508D02*
X13813039Y-13478936D01*
X13813039Y-13478936D02*
X13822563Y-13469412D01*
X13927325Y-13583698D02*
X13908277Y-13574174D01*
X13908277Y-13574174D02*
X13898753Y-13564650D01*
X13898753Y-13564650D02*
X13889229Y-13545603D01*
X13889229Y-13545603D02*
X13889229Y-13536079D01*
X13889229Y-13536079D02*
X13898753Y-13517031D01*
X13898753Y-13517031D02*
X13908277Y-13507508D01*
X13908277Y-13507508D02*
X13927325Y-13497984D01*
X13927325Y-13497984D02*
X13965420Y-13497984D01*
X13965420Y-13497984D02*
X13984468Y-13507508D01*
X13984468Y-13507508D02*
X13993991Y-13517031D01*
X13993991Y-13517031D02*
X14003515Y-13536079D01*
X14003515Y-13536079D02*
X14003515Y-13545603D01*
X14003515Y-13545603D02*
X13993991Y-13564650D01*
X13993991Y-13564650D02*
X13984468Y-13574174D01*
X13984468Y-13574174D02*
X13965420Y-13583698D01*
X13965420Y-13583698D02*
X13927325Y-13583698D01*
X13927325Y-13583698D02*
X13908277Y-13593222D01*
X13908277Y-13593222D02*
X13898753Y-13602746D01*
X13898753Y-13602746D02*
X13889229Y-13621793D01*
X13889229Y-13621793D02*
X13889229Y-13659888D01*
X13889229Y-13659888D02*
X13898753Y-13678936D01*
X13898753Y-13678936D02*
X13908277Y-13688460D01*
X13908277Y-13688460D02*
X13927325Y-13697984D01*
X13927325Y-13697984D02*
X13965420Y-13697984D01*
X13965420Y-13697984D02*
X13984468Y-13688460D01*
X13984468Y-13688460D02*
X13993991Y-13678936D01*
X13993991Y-13678936D02*
X14003515Y-13659888D01*
X14003515Y-13659888D02*
X14003515Y-13621793D01*
X14003515Y-13621793D02*
X13993991Y-13602746D01*
X13993991Y-13602746D02*
X13984468Y-13593222D01*
X13984468Y-13593222D02*
X13965420Y-13583698D01*
X14241610Y-13697984D02*
X14241610Y-13497984D01*
X14327325Y-13697984D02*
X14327325Y-13593222D01*
X14327325Y-13593222D02*
X14317801Y-13574174D01*
X14317801Y-13574174D02*
X14298753Y-13564650D01*
X14298753Y-13564650D02*
X14270182Y-13564650D01*
X14270182Y-13564650D02*
X14251134Y-13574174D01*
X14251134Y-13574174D02*
X14241610Y-13583698D01*
X14451134Y-13697984D02*
X14432087Y-13688460D01*
X14432087Y-13688460D02*
X14422563Y-13678936D01*
X14422563Y-13678936D02*
X14413039Y-13659888D01*
X14413039Y-13659888D02*
X14413039Y-13602746D01*
X14413039Y-13602746D02*
X14422563Y-13583698D01*
X14422563Y-13583698D02*
X14432087Y-13574174D01*
X14432087Y-13574174D02*
X14451134Y-13564650D01*
X14451134Y-13564650D02*
X14479706Y-13564650D01*
X14479706Y-13564650D02*
X14498753Y-13574174D01*
X14498753Y-13574174D02*
X14508277Y-13583698D01*
X14508277Y-13583698D02*
X14517801Y-13602746D01*
X14517801Y-13602746D02*
X14517801Y-13659888D01*
X14517801Y-13659888D02*
X14508277Y-13678936D01*
X14508277Y-13678936D02*
X14498753Y-13688460D01*
X14498753Y-13688460D02*
X14479706Y-13697984D01*
X14479706Y-13697984D02*
X14451134Y-13697984D01*
X14632087Y-13697984D02*
X14613039Y-13688460D01*
X14613039Y-13688460D02*
X14603515Y-13669412D01*
X14603515Y-13669412D02*
X14603515Y-13497984D01*
X14784468Y-13688460D02*
X14765420Y-13697984D01*
X14765420Y-13697984D02*
X14727325Y-13697984D01*
X14727325Y-13697984D02*
X14708277Y-13688460D01*
X14708277Y-13688460D02*
X14698753Y-13669412D01*
X14698753Y-13669412D02*
X14698753Y-13593222D01*
X14698753Y-13593222D02*
X14708277Y-13574174D01*
X14708277Y-13574174D02*
X14727325Y-13564650D01*
X14727325Y-13564650D02*
X14765420Y-13564650D01*
X14765420Y-13564650D02*
X14784468Y-13574174D01*
X14784468Y-13574174D02*
X14793991Y-13593222D01*
X14793991Y-13593222D02*
X14793991Y-13612269D01*
X14793991Y-13612269D02*
X14698753Y-13631317D01*
X14870182Y-13688460D02*
X14889230Y-13697984D01*
X14889230Y-13697984D02*
X14927325Y-13697984D01*
X14927325Y-13697984D02*
X14946372Y-13688460D01*
X14946372Y-13688460D02*
X14955896Y-13669412D01*
X14955896Y-13669412D02*
X14955896Y-13659888D01*
X14955896Y-13659888D02*
X14946372Y-13640841D01*
X14946372Y-13640841D02*
X14927325Y-13631317D01*
X14927325Y-13631317D02*
X14898753Y-13631317D01*
X14898753Y-13631317D02*
X14879706Y-13621793D01*
X14879706Y-13621793D02*
X14870182Y-13602746D01*
X14870182Y-13602746D02*
X14870182Y-13593222D01*
X14870182Y-13593222D02*
X14879706Y-13574174D01*
X14879706Y-13574174D02*
X14898753Y-13564650D01*
X14898753Y-13564650D02*
X14927325Y-13564650D01*
X14927325Y-13564650D02*
X14946372Y-13574174D01*
X15022563Y-13774174D02*
X15032087Y-13764650D01*
X15032087Y-13764650D02*
X15051134Y-13736079D01*
X15051134Y-13736079D02*
X15060658Y-13717031D01*
X15060658Y-13717031D02*
X15070182Y-13688460D01*
X15070182Y-13688460D02*
X15079706Y-13640841D01*
X15079706Y-13640841D02*
X15079706Y-13602746D01*
X15079706Y-13602746D02*
X15070182Y-13555127D01*
X15070182Y-13555127D02*
X15060658Y-13526555D01*
X15060658Y-13526555D02*
X15051134Y-13507508D01*
X15051134Y-13507508D02*
X15032087Y-13478936D01*
X15032087Y-13478936D02*
X15022563Y-13469412D01*
D12*
X10210000Y-13833000D02*
X10210000Y-13908000D01*
X10172500Y-13870500D02*
X10247500Y-13870500D01*
D11*
X10546372Y-13761984D02*
X10565420Y-13761984D01*
X10565420Y-13761984D02*
X10584467Y-13771508D01*
X10584467Y-13771508D02*
X10593991Y-13781031D01*
X10593991Y-13781031D02*
X10603515Y-13800079D01*
X10603515Y-13800079D02*
X10613039Y-13838174D01*
X10613039Y-13838174D02*
X10613039Y-13885793D01*
X10613039Y-13885793D02*
X10603515Y-13923888D01*
X10603515Y-13923888D02*
X10593991Y-13942936D01*
X10593991Y-13942936D02*
X10584467Y-13952460D01*
X10584467Y-13952460D02*
X10565420Y-13961984D01*
X10565420Y-13961984D02*
X10546372Y-13961984D01*
X10546372Y-13961984D02*
X10527324Y-13952460D01*
X10527324Y-13952460D02*
X10517801Y-13942936D01*
X10517801Y-13942936D02*
X10508277Y-13923888D01*
X10508277Y-13923888D02*
X10498753Y-13885793D01*
X10498753Y-13885793D02*
X10498753Y-13838174D01*
X10498753Y-13838174D02*
X10508277Y-13800079D01*
X10508277Y-13800079D02*
X10517801Y-13781031D01*
X10517801Y-13781031D02*
X10527324Y-13771508D01*
X10527324Y-13771508D02*
X10546372Y-13761984D01*
X10698753Y-13942936D02*
X10708277Y-13952460D01*
X10708277Y-13952460D02*
X10698753Y-13961984D01*
X10698753Y-13961984D02*
X10689229Y-13952460D01*
X10689229Y-13952460D02*
X10698753Y-13942936D01*
X10698753Y-13942936D02*
X10698753Y-13961984D01*
X10774944Y-13761984D02*
X10908277Y-13761984D01*
X10908277Y-13761984D02*
X10822563Y-13961984D01*
X11079705Y-13761984D02*
X10984467Y-13761984D01*
X10984467Y-13761984D02*
X10974944Y-13857222D01*
X10974944Y-13857222D02*
X10984467Y-13847698D01*
X10984467Y-13847698D02*
X11003515Y-13838174D01*
X11003515Y-13838174D02*
X11051134Y-13838174D01*
X11051134Y-13838174D02*
X11070182Y-13847698D01*
X11070182Y-13847698D02*
X11079705Y-13857222D01*
X11079705Y-13857222D02*
X11089229Y-13876269D01*
X11089229Y-13876269D02*
X11089229Y-13923888D01*
X11089229Y-13923888D02*
X11079705Y-13942936D01*
X11079705Y-13942936D02*
X11070182Y-13952460D01*
X11070182Y-13952460D02*
X11051134Y-13961984D01*
X11051134Y-13961984D02*
X11003515Y-13961984D01*
X11003515Y-13961984D02*
X10984467Y-13952460D01*
X10984467Y-13952460D02*
X10974944Y-13942936D01*
X11213039Y-13761984D02*
X11232086Y-13761984D01*
X11232086Y-13761984D02*
X11251134Y-13771508D01*
X11251134Y-13771508D02*
X11260658Y-13781031D01*
X11260658Y-13781031D02*
X11270182Y-13800079D01*
X11270182Y-13800079D02*
X11279705Y-13838174D01*
X11279705Y-13838174D02*
X11279705Y-13885793D01*
X11279705Y-13885793D02*
X11270182Y-13923888D01*
X11270182Y-13923888D02*
X11260658Y-13942936D01*
X11260658Y-13942936D02*
X11251134Y-13952460D01*
X11251134Y-13952460D02*
X11232086Y-13961984D01*
X11232086Y-13961984D02*
X11213039Y-13961984D01*
X11213039Y-13961984D02*
X11193991Y-13952460D01*
X11193991Y-13952460D02*
X11184467Y-13942936D01*
X11184467Y-13942936D02*
X11174944Y-13923888D01*
X11174944Y-13923888D02*
X11165420Y-13885793D01*
X11165420Y-13885793D02*
X11165420Y-13838174D01*
X11165420Y-13838174D02*
X11174944Y-13800079D01*
X11174944Y-13800079D02*
X11184467Y-13781031D01*
X11184467Y-13781031D02*
X11193991Y-13771508D01*
X11193991Y-13771508D02*
X11213039Y-13761984D01*
X11365420Y-13961984D02*
X11365420Y-13828650D01*
X11365420Y-13847698D02*
X11374943Y-13838174D01*
X11374943Y-13838174D02*
X11393991Y-13828650D01*
X11393991Y-13828650D02*
X11422563Y-13828650D01*
X11422563Y-13828650D02*
X11441610Y-13838174D01*
X11441610Y-13838174D02*
X11451134Y-13857222D01*
X11451134Y-13857222D02*
X11451134Y-13961984D01*
X11451134Y-13857222D02*
X11460658Y-13838174D01*
X11460658Y-13838174D02*
X11479705Y-13828650D01*
X11479705Y-13828650D02*
X11508277Y-13828650D01*
X11508277Y-13828650D02*
X11527324Y-13838174D01*
X11527324Y-13838174D02*
X11536848Y-13857222D01*
X11536848Y-13857222D02*
X11536848Y-13961984D01*
X11632086Y-13961984D02*
X11632086Y-13828650D01*
X11632086Y-13847698D02*
X11641610Y-13838174D01*
X11641610Y-13838174D02*
X11660658Y-13828650D01*
X11660658Y-13828650D02*
X11689229Y-13828650D01*
X11689229Y-13828650D02*
X11708277Y-13838174D01*
X11708277Y-13838174D02*
X11717801Y-13857222D01*
X11717801Y-13857222D02*
X11717801Y-13961984D01*
X11717801Y-13857222D02*
X11727324Y-13838174D01*
X11727324Y-13838174D02*
X11746372Y-13828650D01*
X11746372Y-13828650D02*
X11774943Y-13828650D01*
X11774943Y-13828650D02*
X11793991Y-13838174D01*
X11793991Y-13838174D02*
X11803515Y-13857222D01*
X11803515Y-13857222D02*
X11803515Y-13961984D01*
X12193991Y-13752460D02*
X12022563Y-14009603D01*
X12451134Y-13761984D02*
X12470182Y-13761984D01*
X12470182Y-13761984D02*
X12489229Y-13771508D01*
X12489229Y-13771508D02*
X12498753Y-13781031D01*
X12498753Y-13781031D02*
X12508277Y-13800079D01*
X12508277Y-13800079D02*
X12517801Y-13838174D01*
X12517801Y-13838174D02*
X12517801Y-13885793D01*
X12517801Y-13885793D02*
X12508277Y-13923888D01*
X12508277Y-13923888D02*
X12498753Y-13942936D01*
X12498753Y-13942936D02*
X12489229Y-13952460D01*
X12489229Y-13952460D02*
X12470182Y-13961984D01*
X12470182Y-13961984D02*
X12451134Y-13961984D01*
X12451134Y-13961984D02*
X12432086Y-13952460D01*
X12432086Y-13952460D02*
X12422563Y-13942936D01*
X12422563Y-13942936D02*
X12413039Y-13923888D01*
X12413039Y-13923888D02*
X12403515Y-13885793D01*
X12403515Y-13885793D02*
X12403515Y-13838174D01*
X12403515Y-13838174D02*
X12413039Y-13800079D01*
X12413039Y-13800079D02*
X12422563Y-13781031D01*
X12422563Y-13781031D02*
X12432086Y-13771508D01*
X12432086Y-13771508D02*
X12451134Y-13761984D01*
X12603515Y-13942936D02*
X12613039Y-13952460D01*
X12613039Y-13952460D02*
X12603515Y-13961984D01*
X12603515Y-13961984D02*
X12593991Y-13952460D01*
X12593991Y-13952460D02*
X12603515Y-13942936D01*
X12603515Y-13942936D02*
X12603515Y-13961984D01*
X12736848Y-13761984D02*
X12755896Y-13761984D01*
X12755896Y-13761984D02*
X12774944Y-13771508D01*
X12774944Y-13771508D02*
X12784467Y-13781031D01*
X12784467Y-13781031D02*
X12793991Y-13800079D01*
X12793991Y-13800079D02*
X12803515Y-13838174D01*
X12803515Y-13838174D02*
X12803515Y-13885793D01*
X12803515Y-13885793D02*
X12793991Y-13923888D01*
X12793991Y-13923888D02*
X12784467Y-13942936D01*
X12784467Y-13942936D02*
X12774944Y-13952460D01*
X12774944Y-13952460D02*
X12755896Y-13961984D01*
X12755896Y-13961984D02*
X12736848Y-13961984D01*
X12736848Y-13961984D02*
X12717801Y-13952460D01*
X12717801Y-13952460D02*
X12708277Y-13942936D01*
X12708277Y-13942936D02*
X12698753Y-13923888D01*
X12698753Y-13923888D02*
X12689229Y-13885793D01*
X12689229Y-13885793D02*
X12689229Y-13838174D01*
X12689229Y-13838174D02*
X12698753Y-13800079D01*
X12698753Y-13800079D02*
X12708277Y-13781031D01*
X12708277Y-13781031D02*
X12717801Y-13771508D01*
X12717801Y-13771508D02*
X12736848Y-13761984D01*
X12879706Y-13781031D02*
X12889229Y-13771508D01*
X12889229Y-13771508D02*
X12908277Y-13761984D01*
X12908277Y-13761984D02*
X12955896Y-13761984D01*
X12955896Y-13761984D02*
X12974944Y-13771508D01*
X12974944Y-13771508D02*
X12984467Y-13781031D01*
X12984467Y-13781031D02*
X12993991Y-13800079D01*
X12993991Y-13800079D02*
X12993991Y-13819127D01*
X12993991Y-13819127D02*
X12984467Y-13847698D01*
X12984467Y-13847698D02*
X12870182Y-13961984D01*
X12870182Y-13961984D02*
X12993991Y-13961984D01*
X13089229Y-13961984D02*
X13127325Y-13961984D01*
X13127325Y-13961984D02*
X13146372Y-13952460D01*
X13146372Y-13952460D02*
X13155896Y-13942936D01*
X13155896Y-13942936D02*
X13174944Y-13914365D01*
X13174944Y-13914365D02*
X13184467Y-13876269D01*
X13184467Y-13876269D02*
X13184467Y-13800079D01*
X13184467Y-13800079D02*
X13174944Y-13781031D01*
X13174944Y-13781031D02*
X13165420Y-13771508D01*
X13165420Y-13771508D02*
X13146372Y-13761984D01*
X13146372Y-13761984D02*
X13108277Y-13761984D01*
X13108277Y-13761984D02*
X13089229Y-13771508D01*
X13089229Y-13771508D02*
X13079706Y-13781031D01*
X13079706Y-13781031D02*
X13070182Y-13800079D01*
X13070182Y-13800079D02*
X13070182Y-13847698D01*
X13070182Y-13847698D02*
X13079706Y-13866746D01*
X13079706Y-13866746D02*
X13089229Y-13876269D01*
X13089229Y-13876269D02*
X13108277Y-13885793D01*
X13108277Y-13885793D02*
X13146372Y-13885793D01*
X13146372Y-13885793D02*
X13165420Y-13876269D01*
X13165420Y-13876269D02*
X13174944Y-13866746D01*
X13174944Y-13866746D02*
X13184467Y-13847698D01*
X13365420Y-13761984D02*
X13270182Y-13761984D01*
X13270182Y-13761984D02*
X13260658Y-13857222D01*
X13260658Y-13857222D02*
X13270182Y-13847698D01*
X13270182Y-13847698D02*
X13289229Y-13838174D01*
X13289229Y-13838174D02*
X13336848Y-13838174D01*
X13336848Y-13838174D02*
X13355896Y-13847698D01*
X13355896Y-13847698D02*
X13365420Y-13857222D01*
X13365420Y-13857222D02*
X13374944Y-13876269D01*
X13374944Y-13876269D02*
X13374944Y-13923888D01*
X13374944Y-13923888D02*
X13365420Y-13942936D01*
X13365420Y-13942936D02*
X13355896Y-13952460D01*
X13355896Y-13952460D02*
X13336848Y-13961984D01*
X13336848Y-13961984D02*
X13289229Y-13961984D01*
X13289229Y-13961984D02*
X13270182Y-13952460D01*
X13270182Y-13952460D02*
X13260658Y-13942936D01*
X13451134Y-13761984D02*
X13451134Y-13800079D01*
X13527325Y-13761984D02*
X13527325Y-13800079D01*
X13822563Y-14038174D02*
X13813039Y-14028650D01*
X13813039Y-14028650D02*
X13793991Y-14000079D01*
X13793991Y-14000079D02*
X13784468Y-13981031D01*
X13784468Y-13981031D02*
X13774944Y-13952460D01*
X13774944Y-13952460D02*
X13765420Y-13904841D01*
X13765420Y-13904841D02*
X13765420Y-13866746D01*
X13765420Y-13866746D02*
X13774944Y-13819127D01*
X13774944Y-13819127D02*
X13784468Y-13790555D01*
X13784468Y-13790555D02*
X13793991Y-13771508D01*
X13793991Y-13771508D02*
X13813039Y-13742936D01*
X13813039Y-13742936D02*
X13822563Y-13733412D01*
X13879706Y-13761984D02*
X14003515Y-13761984D01*
X14003515Y-13761984D02*
X13936848Y-13838174D01*
X13936848Y-13838174D02*
X13965420Y-13838174D01*
X13965420Y-13838174D02*
X13984468Y-13847698D01*
X13984468Y-13847698D02*
X13993991Y-13857222D01*
X13993991Y-13857222D02*
X14003515Y-13876269D01*
X14003515Y-13876269D02*
X14003515Y-13923888D01*
X14003515Y-13923888D02*
X13993991Y-13942936D01*
X13993991Y-13942936D02*
X13984468Y-13952460D01*
X13984468Y-13952460D02*
X13965420Y-13961984D01*
X13965420Y-13961984D02*
X13908277Y-13961984D01*
X13908277Y-13961984D02*
X13889229Y-13952460D01*
X13889229Y-13952460D02*
X13879706Y-13942936D01*
X14241610Y-13961984D02*
X14241610Y-13761984D01*
X14327325Y-13961984D02*
X14327325Y-13857222D01*
X14327325Y-13857222D02*
X14317801Y-13838174D01*
X14317801Y-13838174D02*
X14298753Y-13828650D01*
X14298753Y-13828650D02*
X14270182Y-13828650D01*
X14270182Y-13828650D02*
X14251134Y-13838174D01*
X14251134Y-13838174D02*
X14241610Y-13847698D01*
X14451134Y-13961984D02*
X14432087Y-13952460D01*
X14432087Y-13952460D02*
X14422563Y-13942936D01*
X14422563Y-13942936D02*
X14413039Y-13923888D01*
X14413039Y-13923888D02*
X14413039Y-13866746D01*
X14413039Y-13866746D02*
X14422563Y-13847698D01*
X14422563Y-13847698D02*
X14432087Y-13838174D01*
X14432087Y-13838174D02*
X14451134Y-13828650D01*
X14451134Y-13828650D02*
X14479706Y-13828650D01*
X14479706Y-13828650D02*
X14498753Y-13838174D01*
X14498753Y-13838174D02*
X14508277Y-13847698D01*
X14508277Y-13847698D02*
X14517801Y-13866746D01*
X14517801Y-13866746D02*
X14517801Y-13923888D01*
X14517801Y-13923888D02*
X14508277Y-13942936D01*
X14508277Y-13942936D02*
X14498753Y-13952460D01*
X14498753Y-13952460D02*
X14479706Y-13961984D01*
X14479706Y-13961984D02*
X14451134Y-13961984D01*
X14632087Y-13961984D02*
X14613039Y-13952460D01*
X14613039Y-13952460D02*
X14603515Y-13933412D01*
X14603515Y-13933412D02*
X14603515Y-13761984D01*
X14784468Y-13952460D02*
X14765420Y-13961984D01*
X14765420Y-13961984D02*
X14727325Y-13961984D01*
X14727325Y-13961984D02*
X14708277Y-13952460D01*
X14708277Y-13952460D02*
X14698753Y-13933412D01*
X14698753Y-13933412D02*
X14698753Y-13857222D01*
X14698753Y-13857222D02*
X14708277Y-13838174D01*
X14708277Y-13838174D02*
X14727325Y-13828650D01*
X14727325Y-13828650D02*
X14765420Y-13828650D01*
X14765420Y-13828650D02*
X14784468Y-13838174D01*
X14784468Y-13838174D02*
X14793991Y-13857222D01*
X14793991Y-13857222D02*
X14793991Y-13876269D01*
X14793991Y-13876269D02*
X14698753Y-13895317D01*
X14870182Y-13952460D02*
X14889230Y-13961984D01*
X14889230Y-13961984D02*
X14927325Y-13961984D01*
X14927325Y-13961984D02*
X14946372Y-13952460D01*
X14946372Y-13952460D02*
X14955896Y-13933412D01*
X14955896Y-13933412D02*
X14955896Y-13923888D01*
X14955896Y-13923888D02*
X14946372Y-13904841D01*
X14946372Y-13904841D02*
X14927325Y-13895317D01*
X14927325Y-13895317D02*
X14898753Y-13895317D01*
X14898753Y-13895317D02*
X14879706Y-13885793D01*
X14879706Y-13885793D02*
X14870182Y-13866746D01*
X14870182Y-13866746D02*
X14870182Y-13857222D01*
X14870182Y-13857222D02*
X14879706Y-13838174D01*
X14879706Y-13838174D02*
X14898753Y-13828650D01*
X14898753Y-13828650D02*
X14927325Y-13828650D01*
X14927325Y-13828650D02*
X14946372Y-13838174D01*
X15022563Y-14038174D02*
X15032087Y-14028650D01*
X15032087Y-14028650D02*
X15051134Y-14000079D01*
X15051134Y-14000079D02*
X15060658Y-13981031D01*
X15060658Y-13981031D02*
X15070182Y-13952460D01*
X15070182Y-13952460D02*
X15079706Y-13904841D01*
X15079706Y-13904841D02*
X15079706Y-13866746D01*
X15079706Y-13866746D02*
X15070182Y-13819127D01*
X15070182Y-13819127D02*
X15060658Y-13790555D01*
X15060658Y-13790555D02*
X15051134Y-13771508D01*
X15051134Y-13771508D02*
X15032087Y-13742936D01*
X15032087Y-13742936D02*
X15022563Y-13733412D01*
D12*
X10235785Y-14162784D02*
X10235785Y-14106215D01*
X10179216Y-14106215D01*
X10179216Y-14162784D01*
X10235785Y-14162784D01*
D11*
X10546372Y-14025984D02*
X10565420Y-14025984D01*
X10565420Y-14025984D02*
X10584467Y-14035508D01*
X10584467Y-14035508D02*
X10593991Y-14045031D01*
X10593991Y-14045031D02*
X10603515Y-14064079D01*
X10603515Y-14064079D02*
X10613039Y-14102174D01*
X10613039Y-14102174D02*
X10613039Y-14149793D01*
X10613039Y-14149793D02*
X10603515Y-14187888D01*
X10603515Y-14187888D02*
X10593991Y-14206936D01*
X10593991Y-14206936D02*
X10584467Y-14216460D01*
X10584467Y-14216460D02*
X10565420Y-14225984D01*
X10565420Y-14225984D02*
X10546372Y-14225984D01*
X10546372Y-14225984D02*
X10527324Y-14216460D01*
X10527324Y-14216460D02*
X10517801Y-14206936D01*
X10517801Y-14206936D02*
X10508277Y-14187888D01*
X10508277Y-14187888D02*
X10498753Y-14149793D01*
X10498753Y-14149793D02*
X10498753Y-14102174D01*
X10498753Y-14102174D02*
X10508277Y-14064079D01*
X10508277Y-14064079D02*
X10517801Y-14045031D01*
X10517801Y-14045031D02*
X10527324Y-14035508D01*
X10527324Y-14035508D02*
X10546372Y-14025984D01*
X10698753Y-14206936D02*
X10708277Y-14216460D01*
X10708277Y-14216460D02*
X10698753Y-14225984D01*
X10698753Y-14225984D02*
X10689229Y-14216460D01*
X10689229Y-14216460D02*
X10698753Y-14206936D01*
X10698753Y-14206936D02*
X10698753Y-14225984D01*
X10822563Y-14111698D02*
X10803515Y-14102174D01*
X10803515Y-14102174D02*
X10793991Y-14092650D01*
X10793991Y-14092650D02*
X10784467Y-14073603D01*
X10784467Y-14073603D02*
X10784467Y-14064079D01*
X10784467Y-14064079D02*
X10793991Y-14045031D01*
X10793991Y-14045031D02*
X10803515Y-14035508D01*
X10803515Y-14035508D02*
X10822563Y-14025984D01*
X10822563Y-14025984D02*
X10860658Y-14025984D01*
X10860658Y-14025984D02*
X10879705Y-14035508D01*
X10879705Y-14035508D02*
X10889229Y-14045031D01*
X10889229Y-14045031D02*
X10898753Y-14064079D01*
X10898753Y-14064079D02*
X10898753Y-14073603D01*
X10898753Y-14073603D02*
X10889229Y-14092650D01*
X10889229Y-14092650D02*
X10879705Y-14102174D01*
X10879705Y-14102174D02*
X10860658Y-14111698D01*
X10860658Y-14111698D02*
X10822563Y-14111698D01*
X10822563Y-14111698D02*
X10803515Y-14121222D01*
X10803515Y-14121222D02*
X10793991Y-14130746D01*
X10793991Y-14130746D02*
X10784467Y-14149793D01*
X10784467Y-14149793D02*
X10784467Y-14187888D01*
X10784467Y-14187888D02*
X10793991Y-14206936D01*
X10793991Y-14206936D02*
X10803515Y-14216460D01*
X10803515Y-14216460D02*
X10822563Y-14225984D01*
X10822563Y-14225984D02*
X10860658Y-14225984D01*
X10860658Y-14225984D02*
X10879705Y-14216460D01*
X10879705Y-14216460D02*
X10889229Y-14206936D01*
X10889229Y-14206936D02*
X10898753Y-14187888D01*
X10898753Y-14187888D02*
X10898753Y-14149793D01*
X10898753Y-14149793D02*
X10889229Y-14130746D01*
X10889229Y-14130746D02*
X10879705Y-14121222D01*
X10879705Y-14121222D02*
X10860658Y-14111698D01*
X11022563Y-14025984D02*
X11041610Y-14025984D01*
X11041610Y-14025984D02*
X11060658Y-14035508D01*
X11060658Y-14035508D02*
X11070182Y-14045031D01*
X11070182Y-14045031D02*
X11079705Y-14064079D01*
X11079705Y-14064079D02*
X11089229Y-14102174D01*
X11089229Y-14102174D02*
X11089229Y-14149793D01*
X11089229Y-14149793D02*
X11079705Y-14187888D01*
X11079705Y-14187888D02*
X11070182Y-14206936D01*
X11070182Y-14206936D02*
X11060658Y-14216460D01*
X11060658Y-14216460D02*
X11041610Y-14225984D01*
X11041610Y-14225984D02*
X11022563Y-14225984D01*
X11022563Y-14225984D02*
X11003515Y-14216460D01*
X11003515Y-14216460D02*
X10993991Y-14206936D01*
X10993991Y-14206936D02*
X10984467Y-14187888D01*
X10984467Y-14187888D02*
X10974944Y-14149793D01*
X10974944Y-14149793D02*
X10974944Y-14102174D01*
X10974944Y-14102174D02*
X10984467Y-14064079D01*
X10984467Y-14064079D02*
X10993991Y-14045031D01*
X10993991Y-14045031D02*
X11003515Y-14035508D01*
X11003515Y-14035508D02*
X11022563Y-14025984D01*
X11213039Y-14025984D02*
X11232086Y-14025984D01*
X11232086Y-14025984D02*
X11251134Y-14035508D01*
X11251134Y-14035508D02*
X11260658Y-14045031D01*
X11260658Y-14045031D02*
X11270182Y-14064079D01*
X11270182Y-14064079D02*
X11279705Y-14102174D01*
X11279705Y-14102174D02*
X11279705Y-14149793D01*
X11279705Y-14149793D02*
X11270182Y-14187888D01*
X11270182Y-14187888D02*
X11260658Y-14206936D01*
X11260658Y-14206936D02*
X11251134Y-14216460D01*
X11251134Y-14216460D02*
X11232086Y-14225984D01*
X11232086Y-14225984D02*
X11213039Y-14225984D01*
X11213039Y-14225984D02*
X11193991Y-14216460D01*
X11193991Y-14216460D02*
X11184467Y-14206936D01*
X11184467Y-14206936D02*
X11174944Y-14187888D01*
X11174944Y-14187888D02*
X11165420Y-14149793D01*
X11165420Y-14149793D02*
X11165420Y-14102174D01*
X11165420Y-14102174D02*
X11174944Y-14064079D01*
X11174944Y-14064079D02*
X11184467Y-14045031D01*
X11184467Y-14045031D02*
X11193991Y-14035508D01*
X11193991Y-14035508D02*
X11213039Y-14025984D01*
X11365420Y-14225984D02*
X11365420Y-14092650D01*
X11365420Y-14111698D02*
X11374943Y-14102174D01*
X11374943Y-14102174D02*
X11393991Y-14092650D01*
X11393991Y-14092650D02*
X11422563Y-14092650D01*
X11422563Y-14092650D02*
X11441610Y-14102174D01*
X11441610Y-14102174D02*
X11451134Y-14121222D01*
X11451134Y-14121222D02*
X11451134Y-14225984D01*
X11451134Y-14121222D02*
X11460658Y-14102174D01*
X11460658Y-14102174D02*
X11479705Y-14092650D01*
X11479705Y-14092650D02*
X11508277Y-14092650D01*
X11508277Y-14092650D02*
X11527324Y-14102174D01*
X11527324Y-14102174D02*
X11536848Y-14121222D01*
X11536848Y-14121222D02*
X11536848Y-14225984D01*
X11632086Y-14225984D02*
X11632086Y-14092650D01*
X11632086Y-14111698D02*
X11641610Y-14102174D01*
X11641610Y-14102174D02*
X11660658Y-14092650D01*
X11660658Y-14092650D02*
X11689229Y-14092650D01*
X11689229Y-14092650D02*
X11708277Y-14102174D01*
X11708277Y-14102174D02*
X11717801Y-14121222D01*
X11717801Y-14121222D02*
X11717801Y-14225984D01*
X11717801Y-14121222D02*
X11727324Y-14102174D01*
X11727324Y-14102174D02*
X11746372Y-14092650D01*
X11746372Y-14092650D02*
X11774943Y-14092650D01*
X11774943Y-14092650D02*
X11793991Y-14102174D01*
X11793991Y-14102174D02*
X11803515Y-14121222D01*
X11803515Y-14121222D02*
X11803515Y-14225984D01*
X12193991Y-14016460D02*
X12022563Y-14273603D01*
X12451134Y-14025984D02*
X12470182Y-14025984D01*
X12470182Y-14025984D02*
X12489229Y-14035508D01*
X12489229Y-14035508D02*
X12498753Y-14045031D01*
X12498753Y-14045031D02*
X12508277Y-14064079D01*
X12508277Y-14064079D02*
X12517801Y-14102174D01*
X12517801Y-14102174D02*
X12517801Y-14149793D01*
X12517801Y-14149793D02*
X12508277Y-14187888D01*
X12508277Y-14187888D02*
X12498753Y-14206936D01*
X12498753Y-14206936D02*
X12489229Y-14216460D01*
X12489229Y-14216460D02*
X12470182Y-14225984D01*
X12470182Y-14225984D02*
X12451134Y-14225984D01*
X12451134Y-14225984D02*
X12432086Y-14216460D01*
X12432086Y-14216460D02*
X12422563Y-14206936D01*
X12422563Y-14206936D02*
X12413039Y-14187888D01*
X12413039Y-14187888D02*
X12403515Y-14149793D01*
X12403515Y-14149793D02*
X12403515Y-14102174D01*
X12403515Y-14102174D02*
X12413039Y-14064079D01*
X12413039Y-14064079D02*
X12422563Y-14045031D01*
X12422563Y-14045031D02*
X12432086Y-14035508D01*
X12432086Y-14035508D02*
X12451134Y-14025984D01*
X12603515Y-14206936D02*
X12613039Y-14216460D01*
X12613039Y-14216460D02*
X12603515Y-14225984D01*
X12603515Y-14225984D02*
X12593991Y-14216460D01*
X12593991Y-14216460D02*
X12603515Y-14206936D01*
X12603515Y-14206936D02*
X12603515Y-14225984D01*
X12736848Y-14025984D02*
X12755896Y-14025984D01*
X12755896Y-14025984D02*
X12774944Y-14035508D01*
X12774944Y-14035508D02*
X12784467Y-14045031D01*
X12784467Y-14045031D02*
X12793991Y-14064079D01*
X12793991Y-14064079D02*
X12803515Y-14102174D01*
X12803515Y-14102174D02*
X12803515Y-14149793D01*
X12803515Y-14149793D02*
X12793991Y-14187888D01*
X12793991Y-14187888D02*
X12784467Y-14206936D01*
X12784467Y-14206936D02*
X12774944Y-14216460D01*
X12774944Y-14216460D02*
X12755896Y-14225984D01*
X12755896Y-14225984D02*
X12736848Y-14225984D01*
X12736848Y-14225984D02*
X12717801Y-14216460D01*
X12717801Y-14216460D02*
X12708277Y-14206936D01*
X12708277Y-14206936D02*
X12698753Y-14187888D01*
X12698753Y-14187888D02*
X12689229Y-14149793D01*
X12689229Y-14149793D02*
X12689229Y-14102174D01*
X12689229Y-14102174D02*
X12698753Y-14064079D01*
X12698753Y-14064079D02*
X12708277Y-14045031D01*
X12708277Y-14045031D02*
X12717801Y-14035508D01*
X12717801Y-14035508D02*
X12736848Y-14025984D01*
X12870182Y-14025984D02*
X12993991Y-14025984D01*
X12993991Y-14025984D02*
X12927325Y-14102174D01*
X12927325Y-14102174D02*
X12955896Y-14102174D01*
X12955896Y-14102174D02*
X12974944Y-14111698D01*
X12974944Y-14111698D02*
X12984467Y-14121222D01*
X12984467Y-14121222D02*
X12993991Y-14140269D01*
X12993991Y-14140269D02*
X12993991Y-14187888D01*
X12993991Y-14187888D02*
X12984467Y-14206936D01*
X12984467Y-14206936D02*
X12974944Y-14216460D01*
X12974944Y-14216460D02*
X12955896Y-14225984D01*
X12955896Y-14225984D02*
X12898753Y-14225984D01*
X12898753Y-14225984D02*
X12879706Y-14216460D01*
X12879706Y-14216460D02*
X12870182Y-14206936D01*
X13184467Y-14225984D02*
X13070182Y-14225984D01*
X13127325Y-14225984D02*
X13127325Y-14025984D01*
X13127325Y-14025984D02*
X13108277Y-14054555D01*
X13108277Y-14054555D02*
X13089229Y-14073603D01*
X13089229Y-14073603D02*
X13070182Y-14083127D01*
X13365420Y-14025984D02*
X13270182Y-14025984D01*
X13270182Y-14025984D02*
X13260658Y-14121222D01*
X13260658Y-14121222D02*
X13270182Y-14111698D01*
X13270182Y-14111698D02*
X13289229Y-14102174D01*
X13289229Y-14102174D02*
X13336848Y-14102174D01*
X13336848Y-14102174D02*
X13355896Y-14111698D01*
X13355896Y-14111698D02*
X13365420Y-14121222D01*
X13365420Y-14121222D02*
X13374944Y-14140269D01*
X13374944Y-14140269D02*
X13374944Y-14187888D01*
X13374944Y-14187888D02*
X13365420Y-14206936D01*
X13365420Y-14206936D02*
X13355896Y-14216460D01*
X13355896Y-14216460D02*
X13336848Y-14225984D01*
X13336848Y-14225984D02*
X13289229Y-14225984D01*
X13289229Y-14225984D02*
X13270182Y-14216460D01*
X13270182Y-14216460D02*
X13260658Y-14206936D01*
X13451134Y-14025984D02*
X13451134Y-14064079D01*
X13527325Y-14025984D02*
X13527325Y-14064079D01*
X13822563Y-14302174D02*
X13813039Y-14292650D01*
X13813039Y-14292650D02*
X13793991Y-14264079D01*
X13793991Y-14264079D02*
X13784468Y-14245031D01*
X13784468Y-14245031D02*
X13774944Y-14216460D01*
X13774944Y-14216460D02*
X13765420Y-14168841D01*
X13765420Y-14168841D02*
X13765420Y-14130746D01*
X13765420Y-14130746D02*
X13774944Y-14083127D01*
X13774944Y-14083127D02*
X13784468Y-14054555D01*
X13784468Y-14054555D02*
X13793991Y-14035508D01*
X13793991Y-14035508D02*
X13813039Y-14006936D01*
X13813039Y-14006936D02*
X13822563Y-13997412D01*
X14003515Y-14225984D02*
X13889229Y-14225984D01*
X13946372Y-14225984D02*
X13946372Y-14025984D01*
X13946372Y-14025984D02*
X13927325Y-14054555D01*
X13927325Y-14054555D02*
X13908277Y-14073603D01*
X13908277Y-14073603D02*
X13889229Y-14083127D01*
X14117801Y-14111698D02*
X14098753Y-14102174D01*
X14098753Y-14102174D02*
X14089229Y-14092650D01*
X14089229Y-14092650D02*
X14079706Y-14073603D01*
X14079706Y-14073603D02*
X14079706Y-14064079D01*
X14079706Y-14064079D02*
X14089229Y-14045031D01*
X14089229Y-14045031D02*
X14098753Y-14035508D01*
X14098753Y-14035508D02*
X14117801Y-14025984D01*
X14117801Y-14025984D02*
X14155896Y-14025984D01*
X14155896Y-14025984D02*
X14174944Y-14035508D01*
X14174944Y-14035508D02*
X14184468Y-14045031D01*
X14184468Y-14045031D02*
X14193991Y-14064079D01*
X14193991Y-14064079D02*
X14193991Y-14073603D01*
X14193991Y-14073603D02*
X14184468Y-14092650D01*
X14184468Y-14092650D02*
X14174944Y-14102174D01*
X14174944Y-14102174D02*
X14155896Y-14111698D01*
X14155896Y-14111698D02*
X14117801Y-14111698D01*
X14117801Y-14111698D02*
X14098753Y-14121222D01*
X14098753Y-14121222D02*
X14089229Y-14130746D01*
X14089229Y-14130746D02*
X14079706Y-14149793D01*
X14079706Y-14149793D02*
X14079706Y-14187888D01*
X14079706Y-14187888D02*
X14089229Y-14206936D01*
X14089229Y-14206936D02*
X14098753Y-14216460D01*
X14098753Y-14216460D02*
X14117801Y-14225984D01*
X14117801Y-14225984D02*
X14155896Y-14225984D01*
X14155896Y-14225984D02*
X14174944Y-14216460D01*
X14174944Y-14216460D02*
X14184468Y-14206936D01*
X14184468Y-14206936D02*
X14193991Y-14187888D01*
X14193991Y-14187888D02*
X14193991Y-14149793D01*
X14193991Y-14149793D02*
X14184468Y-14130746D01*
X14184468Y-14130746D02*
X14174944Y-14121222D01*
X14174944Y-14121222D02*
X14155896Y-14111698D01*
X14432087Y-14225984D02*
X14432087Y-14025984D01*
X14517801Y-14225984D02*
X14517801Y-14121222D01*
X14517801Y-14121222D02*
X14508277Y-14102174D01*
X14508277Y-14102174D02*
X14489230Y-14092650D01*
X14489230Y-14092650D02*
X14460658Y-14092650D01*
X14460658Y-14092650D02*
X14441610Y-14102174D01*
X14441610Y-14102174D02*
X14432087Y-14111698D01*
X14641610Y-14225984D02*
X14622563Y-14216460D01*
X14622563Y-14216460D02*
X14613039Y-14206936D01*
X14613039Y-14206936D02*
X14603515Y-14187888D01*
X14603515Y-14187888D02*
X14603515Y-14130746D01*
X14603515Y-14130746D02*
X14613039Y-14111698D01*
X14613039Y-14111698D02*
X14622563Y-14102174D01*
X14622563Y-14102174D02*
X14641610Y-14092650D01*
X14641610Y-14092650D02*
X14670182Y-14092650D01*
X14670182Y-14092650D02*
X14689230Y-14102174D01*
X14689230Y-14102174D02*
X14698753Y-14111698D01*
X14698753Y-14111698D02*
X14708277Y-14130746D01*
X14708277Y-14130746D02*
X14708277Y-14187888D01*
X14708277Y-14187888D02*
X14698753Y-14206936D01*
X14698753Y-14206936D02*
X14689230Y-14216460D01*
X14689230Y-14216460D02*
X14670182Y-14225984D01*
X14670182Y-14225984D02*
X14641610Y-14225984D01*
X14822563Y-14225984D02*
X14803515Y-14216460D01*
X14803515Y-14216460D02*
X14793991Y-14197412D01*
X14793991Y-14197412D02*
X14793991Y-14025984D01*
X14974944Y-14216460D02*
X14955896Y-14225984D01*
X14955896Y-14225984D02*
X14917801Y-14225984D01*
X14917801Y-14225984D02*
X14898753Y-14216460D01*
X14898753Y-14216460D02*
X14889230Y-14197412D01*
X14889230Y-14197412D02*
X14889230Y-14121222D01*
X14889230Y-14121222D02*
X14898753Y-14102174D01*
X14898753Y-14102174D02*
X14917801Y-14092650D01*
X14917801Y-14092650D02*
X14955896Y-14092650D01*
X14955896Y-14092650D02*
X14974944Y-14102174D01*
X14974944Y-14102174D02*
X14984468Y-14121222D01*
X14984468Y-14121222D02*
X14984468Y-14140269D01*
X14984468Y-14140269D02*
X14889230Y-14159317D01*
X15060658Y-14216460D02*
X15079706Y-14225984D01*
X15079706Y-14225984D02*
X15117801Y-14225984D01*
X15117801Y-14225984D02*
X15136849Y-14216460D01*
X15136849Y-14216460D02*
X15146372Y-14197412D01*
X15146372Y-14197412D02*
X15146372Y-14187888D01*
X15146372Y-14187888D02*
X15136849Y-14168841D01*
X15136849Y-14168841D02*
X15117801Y-14159317D01*
X15117801Y-14159317D02*
X15089230Y-14159317D01*
X15089230Y-14159317D02*
X15070182Y-14149793D01*
X15070182Y-14149793D02*
X15060658Y-14130746D01*
X15060658Y-14130746D02*
X15060658Y-14121222D01*
X15060658Y-14121222D02*
X15070182Y-14102174D01*
X15070182Y-14102174D02*
X15089230Y-14092650D01*
X15089230Y-14092650D02*
X15117801Y-14092650D01*
X15117801Y-14092650D02*
X15136849Y-14102174D01*
X15213039Y-14302174D02*
X15222563Y-14292650D01*
X15222563Y-14292650D02*
X15241611Y-14264079D01*
X15241611Y-14264079D02*
X15251134Y-14245031D01*
X15251134Y-14245031D02*
X15260658Y-14216460D01*
X15260658Y-14216460D02*
X15270182Y-14168841D01*
X15270182Y-14168841D02*
X15270182Y-14130746D01*
X15270182Y-14130746D02*
X15260658Y-14083127D01*
X15260658Y-14083127D02*
X15251134Y-14054555D01*
X15251134Y-14054555D02*
X15241611Y-14035508D01*
X15241611Y-14035508D02*
X15222563Y-14006936D01*
X15222563Y-14006936D02*
X15213039Y-13997412D01*
D12*
X10202500Y-14443500D02*
X10247500Y-14398500D01*
X10202500Y-14353500D01*
X10157500Y-14398500D01*
X10202500Y-14443500D01*
D11*
X10546372Y-14289984D02*
X10565420Y-14289984D01*
X10565420Y-14289984D02*
X10584467Y-14299508D01*
X10584467Y-14299508D02*
X10593991Y-14309031D01*
X10593991Y-14309031D02*
X10603515Y-14328079D01*
X10603515Y-14328079D02*
X10613039Y-14366174D01*
X10613039Y-14366174D02*
X10613039Y-14413793D01*
X10613039Y-14413793D02*
X10603515Y-14451888D01*
X10603515Y-14451888D02*
X10593991Y-14470936D01*
X10593991Y-14470936D02*
X10584467Y-14480460D01*
X10584467Y-14480460D02*
X10565420Y-14489984D01*
X10565420Y-14489984D02*
X10546372Y-14489984D01*
X10546372Y-14489984D02*
X10527324Y-14480460D01*
X10527324Y-14480460D02*
X10517801Y-14470936D01*
X10517801Y-14470936D02*
X10508277Y-14451888D01*
X10508277Y-14451888D02*
X10498753Y-14413793D01*
X10498753Y-14413793D02*
X10498753Y-14366174D01*
X10498753Y-14366174D02*
X10508277Y-14328079D01*
X10508277Y-14328079D02*
X10517801Y-14309031D01*
X10517801Y-14309031D02*
X10527324Y-14299508D01*
X10527324Y-14299508D02*
X10546372Y-14289984D01*
X10698753Y-14470936D02*
X10708277Y-14480460D01*
X10708277Y-14480460D02*
X10698753Y-14489984D01*
X10698753Y-14489984D02*
X10689229Y-14480460D01*
X10689229Y-14480460D02*
X10698753Y-14470936D01*
X10698753Y-14470936D02*
X10698753Y-14489984D01*
X10803515Y-14489984D02*
X10841610Y-14489984D01*
X10841610Y-14489984D02*
X10860658Y-14480460D01*
X10860658Y-14480460D02*
X10870182Y-14470936D01*
X10870182Y-14470936D02*
X10889229Y-14442365D01*
X10889229Y-14442365D02*
X10898753Y-14404269D01*
X10898753Y-14404269D02*
X10898753Y-14328079D01*
X10898753Y-14328079D02*
X10889229Y-14309031D01*
X10889229Y-14309031D02*
X10879705Y-14299508D01*
X10879705Y-14299508D02*
X10860658Y-14289984D01*
X10860658Y-14289984D02*
X10822563Y-14289984D01*
X10822563Y-14289984D02*
X10803515Y-14299508D01*
X10803515Y-14299508D02*
X10793991Y-14309031D01*
X10793991Y-14309031D02*
X10784467Y-14328079D01*
X10784467Y-14328079D02*
X10784467Y-14375698D01*
X10784467Y-14375698D02*
X10793991Y-14394746D01*
X10793991Y-14394746D02*
X10803515Y-14404269D01*
X10803515Y-14404269D02*
X10822563Y-14413793D01*
X10822563Y-14413793D02*
X10860658Y-14413793D01*
X10860658Y-14413793D02*
X10879705Y-14404269D01*
X10879705Y-14404269D02*
X10889229Y-14394746D01*
X10889229Y-14394746D02*
X10898753Y-14375698D01*
X11022563Y-14289984D02*
X11041610Y-14289984D01*
X11041610Y-14289984D02*
X11060658Y-14299508D01*
X11060658Y-14299508D02*
X11070182Y-14309031D01*
X11070182Y-14309031D02*
X11079705Y-14328079D01*
X11079705Y-14328079D02*
X11089229Y-14366174D01*
X11089229Y-14366174D02*
X11089229Y-14413793D01*
X11089229Y-14413793D02*
X11079705Y-14451888D01*
X11079705Y-14451888D02*
X11070182Y-14470936D01*
X11070182Y-14470936D02*
X11060658Y-14480460D01*
X11060658Y-14480460D02*
X11041610Y-14489984D01*
X11041610Y-14489984D02*
X11022563Y-14489984D01*
X11022563Y-14489984D02*
X11003515Y-14480460D01*
X11003515Y-14480460D02*
X10993991Y-14470936D01*
X10993991Y-14470936D02*
X10984467Y-14451888D01*
X10984467Y-14451888D02*
X10974944Y-14413793D01*
X10974944Y-14413793D02*
X10974944Y-14366174D01*
X10974944Y-14366174D02*
X10984467Y-14328079D01*
X10984467Y-14328079D02*
X10993991Y-14309031D01*
X10993991Y-14309031D02*
X11003515Y-14299508D01*
X11003515Y-14299508D02*
X11022563Y-14289984D01*
X11213039Y-14289984D02*
X11232086Y-14289984D01*
X11232086Y-14289984D02*
X11251134Y-14299508D01*
X11251134Y-14299508D02*
X11260658Y-14309031D01*
X11260658Y-14309031D02*
X11270182Y-14328079D01*
X11270182Y-14328079D02*
X11279705Y-14366174D01*
X11279705Y-14366174D02*
X11279705Y-14413793D01*
X11279705Y-14413793D02*
X11270182Y-14451888D01*
X11270182Y-14451888D02*
X11260658Y-14470936D01*
X11260658Y-14470936D02*
X11251134Y-14480460D01*
X11251134Y-14480460D02*
X11232086Y-14489984D01*
X11232086Y-14489984D02*
X11213039Y-14489984D01*
X11213039Y-14489984D02*
X11193991Y-14480460D01*
X11193991Y-14480460D02*
X11184467Y-14470936D01*
X11184467Y-14470936D02*
X11174944Y-14451888D01*
X11174944Y-14451888D02*
X11165420Y-14413793D01*
X11165420Y-14413793D02*
X11165420Y-14366174D01*
X11165420Y-14366174D02*
X11174944Y-14328079D01*
X11174944Y-14328079D02*
X11184467Y-14309031D01*
X11184467Y-14309031D02*
X11193991Y-14299508D01*
X11193991Y-14299508D02*
X11213039Y-14289984D01*
X11365420Y-14489984D02*
X11365420Y-14356650D01*
X11365420Y-14375698D02*
X11374943Y-14366174D01*
X11374943Y-14366174D02*
X11393991Y-14356650D01*
X11393991Y-14356650D02*
X11422563Y-14356650D01*
X11422563Y-14356650D02*
X11441610Y-14366174D01*
X11441610Y-14366174D02*
X11451134Y-14385222D01*
X11451134Y-14385222D02*
X11451134Y-14489984D01*
X11451134Y-14385222D02*
X11460658Y-14366174D01*
X11460658Y-14366174D02*
X11479705Y-14356650D01*
X11479705Y-14356650D02*
X11508277Y-14356650D01*
X11508277Y-14356650D02*
X11527324Y-14366174D01*
X11527324Y-14366174D02*
X11536848Y-14385222D01*
X11536848Y-14385222D02*
X11536848Y-14489984D01*
X11632086Y-14489984D02*
X11632086Y-14356650D01*
X11632086Y-14375698D02*
X11641610Y-14366174D01*
X11641610Y-14366174D02*
X11660658Y-14356650D01*
X11660658Y-14356650D02*
X11689229Y-14356650D01*
X11689229Y-14356650D02*
X11708277Y-14366174D01*
X11708277Y-14366174D02*
X11717801Y-14385222D01*
X11717801Y-14385222D02*
X11717801Y-14489984D01*
X11717801Y-14385222D02*
X11727324Y-14366174D01*
X11727324Y-14366174D02*
X11746372Y-14356650D01*
X11746372Y-14356650D02*
X11774943Y-14356650D01*
X11774943Y-14356650D02*
X11793991Y-14366174D01*
X11793991Y-14366174D02*
X11803515Y-14385222D01*
X11803515Y-14385222D02*
X11803515Y-14489984D01*
X12193991Y-14280460D02*
X12022563Y-14537603D01*
X12451134Y-14289984D02*
X12470182Y-14289984D01*
X12470182Y-14289984D02*
X12489229Y-14299508D01*
X12489229Y-14299508D02*
X12498753Y-14309031D01*
X12498753Y-14309031D02*
X12508277Y-14328079D01*
X12508277Y-14328079D02*
X12517801Y-14366174D01*
X12517801Y-14366174D02*
X12517801Y-14413793D01*
X12517801Y-14413793D02*
X12508277Y-14451888D01*
X12508277Y-14451888D02*
X12498753Y-14470936D01*
X12498753Y-14470936D02*
X12489229Y-14480460D01*
X12489229Y-14480460D02*
X12470182Y-14489984D01*
X12470182Y-14489984D02*
X12451134Y-14489984D01*
X12451134Y-14489984D02*
X12432086Y-14480460D01*
X12432086Y-14480460D02*
X12422563Y-14470936D01*
X12422563Y-14470936D02*
X12413039Y-14451888D01*
X12413039Y-14451888D02*
X12403515Y-14413793D01*
X12403515Y-14413793D02*
X12403515Y-14366174D01*
X12403515Y-14366174D02*
X12413039Y-14328079D01*
X12413039Y-14328079D02*
X12422563Y-14309031D01*
X12422563Y-14309031D02*
X12432086Y-14299508D01*
X12432086Y-14299508D02*
X12451134Y-14289984D01*
X12603515Y-14470936D02*
X12613039Y-14480460D01*
X12613039Y-14480460D02*
X12603515Y-14489984D01*
X12603515Y-14489984D02*
X12593991Y-14480460D01*
X12593991Y-14480460D02*
X12603515Y-14470936D01*
X12603515Y-14470936D02*
X12603515Y-14489984D01*
X12736848Y-14289984D02*
X12755896Y-14289984D01*
X12755896Y-14289984D02*
X12774944Y-14299508D01*
X12774944Y-14299508D02*
X12784467Y-14309031D01*
X12784467Y-14309031D02*
X12793991Y-14328079D01*
X12793991Y-14328079D02*
X12803515Y-14366174D01*
X12803515Y-14366174D02*
X12803515Y-14413793D01*
X12803515Y-14413793D02*
X12793991Y-14451888D01*
X12793991Y-14451888D02*
X12784467Y-14470936D01*
X12784467Y-14470936D02*
X12774944Y-14480460D01*
X12774944Y-14480460D02*
X12755896Y-14489984D01*
X12755896Y-14489984D02*
X12736848Y-14489984D01*
X12736848Y-14489984D02*
X12717801Y-14480460D01*
X12717801Y-14480460D02*
X12708277Y-14470936D01*
X12708277Y-14470936D02*
X12698753Y-14451888D01*
X12698753Y-14451888D02*
X12689229Y-14413793D01*
X12689229Y-14413793D02*
X12689229Y-14366174D01*
X12689229Y-14366174D02*
X12698753Y-14328079D01*
X12698753Y-14328079D02*
X12708277Y-14309031D01*
X12708277Y-14309031D02*
X12717801Y-14299508D01*
X12717801Y-14299508D02*
X12736848Y-14289984D01*
X12870182Y-14289984D02*
X12993991Y-14289984D01*
X12993991Y-14289984D02*
X12927325Y-14366174D01*
X12927325Y-14366174D02*
X12955896Y-14366174D01*
X12955896Y-14366174D02*
X12974944Y-14375698D01*
X12974944Y-14375698D02*
X12984467Y-14385222D01*
X12984467Y-14385222D02*
X12993991Y-14404269D01*
X12993991Y-14404269D02*
X12993991Y-14451888D01*
X12993991Y-14451888D02*
X12984467Y-14470936D01*
X12984467Y-14470936D02*
X12974944Y-14480460D01*
X12974944Y-14480460D02*
X12955896Y-14489984D01*
X12955896Y-14489984D02*
X12898753Y-14489984D01*
X12898753Y-14489984D02*
X12879706Y-14480460D01*
X12879706Y-14480460D02*
X12870182Y-14470936D01*
X13174944Y-14289984D02*
X13079706Y-14289984D01*
X13079706Y-14289984D02*
X13070182Y-14385222D01*
X13070182Y-14385222D02*
X13079706Y-14375698D01*
X13079706Y-14375698D02*
X13098753Y-14366174D01*
X13098753Y-14366174D02*
X13146372Y-14366174D01*
X13146372Y-14366174D02*
X13165420Y-14375698D01*
X13165420Y-14375698D02*
X13174944Y-14385222D01*
X13174944Y-14385222D02*
X13184467Y-14404269D01*
X13184467Y-14404269D02*
X13184467Y-14451888D01*
X13184467Y-14451888D02*
X13174944Y-14470936D01*
X13174944Y-14470936D02*
X13165420Y-14480460D01*
X13165420Y-14480460D02*
X13146372Y-14489984D01*
X13146372Y-14489984D02*
X13098753Y-14489984D01*
X13098753Y-14489984D02*
X13079706Y-14480460D01*
X13079706Y-14480460D02*
X13070182Y-14470936D01*
X13355896Y-14356650D02*
X13355896Y-14489984D01*
X13308277Y-14280460D02*
X13260658Y-14423317D01*
X13260658Y-14423317D02*
X13384467Y-14423317D01*
X13451134Y-14289984D02*
X13451134Y-14328079D01*
X13527325Y-14289984D02*
X13527325Y-14328079D01*
X13822563Y-14566174D02*
X13813039Y-14556650D01*
X13813039Y-14556650D02*
X13793991Y-14528079D01*
X13793991Y-14528079D02*
X13784468Y-14509031D01*
X13784468Y-14509031D02*
X13774944Y-14480460D01*
X13774944Y-14480460D02*
X13765420Y-14432841D01*
X13765420Y-14432841D02*
X13765420Y-14394746D01*
X13765420Y-14394746D02*
X13774944Y-14347127D01*
X13774944Y-14347127D02*
X13784468Y-14318555D01*
X13784468Y-14318555D02*
X13793991Y-14299508D01*
X13793991Y-14299508D02*
X13813039Y-14270936D01*
X13813039Y-14270936D02*
X13822563Y-14261412D01*
X13889229Y-14309031D02*
X13898753Y-14299508D01*
X13898753Y-14299508D02*
X13917801Y-14289984D01*
X13917801Y-14289984D02*
X13965420Y-14289984D01*
X13965420Y-14289984D02*
X13984468Y-14299508D01*
X13984468Y-14299508D02*
X13993991Y-14309031D01*
X13993991Y-14309031D02*
X14003515Y-14328079D01*
X14003515Y-14328079D02*
X14003515Y-14347127D01*
X14003515Y-14347127D02*
X13993991Y-14375698D01*
X13993991Y-14375698D02*
X13879706Y-14489984D01*
X13879706Y-14489984D02*
X14003515Y-14489984D01*
X14174944Y-14356650D02*
X14174944Y-14489984D01*
X14127325Y-14280460D02*
X14079706Y-14423317D01*
X14079706Y-14423317D02*
X14203515Y-14423317D01*
X14432087Y-14489984D02*
X14432087Y-14289984D01*
X14517801Y-14489984D02*
X14517801Y-14385222D01*
X14517801Y-14385222D02*
X14508277Y-14366174D01*
X14508277Y-14366174D02*
X14489230Y-14356650D01*
X14489230Y-14356650D02*
X14460658Y-14356650D01*
X14460658Y-14356650D02*
X14441610Y-14366174D01*
X14441610Y-14366174D02*
X14432087Y-14375698D01*
X14641610Y-14489984D02*
X14622563Y-14480460D01*
X14622563Y-14480460D02*
X14613039Y-14470936D01*
X14613039Y-14470936D02*
X14603515Y-14451888D01*
X14603515Y-14451888D02*
X14603515Y-14394746D01*
X14603515Y-14394746D02*
X14613039Y-14375698D01*
X14613039Y-14375698D02*
X14622563Y-14366174D01*
X14622563Y-14366174D02*
X14641610Y-14356650D01*
X14641610Y-14356650D02*
X14670182Y-14356650D01*
X14670182Y-14356650D02*
X14689230Y-14366174D01*
X14689230Y-14366174D02*
X14698753Y-14375698D01*
X14698753Y-14375698D02*
X14708277Y-14394746D01*
X14708277Y-14394746D02*
X14708277Y-14451888D01*
X14708277Y-14451888D02*
X14698753Y-14470936D01*
X14698753Y-14470936D02*
X14689230Y-14480460D01*
X14689230Y-14480460D02*
X14670182Y-14489984D01*
X14670182Y-14489984D02*
X14641610Y-14489984D01*
X14822563Y-14489984D02*
X14803515Y-14480460D01*
X14803515Y-14480460D02*
X14793991Y-14461412D01*
X14793991Y-14461412D02*
X14793991Y-14289984D01*
X14974944Y-14480460D02*
X14955896Y-14489984D01*
X14955896Y-14489984D02*
X14917801Y-14489984D01*
X14917801Y-14489984D02*
X14898753Y-14480460D01*
X14898753Y-14480460D02*
X14889230Y-14461412D01*
X14889230Y-14461412D02*
X14889230Y-14385222D01*
X14889230Y-14385222D02*
X14898753Y-14366174D01*
X14898753Y-14366174D02*
X14917801Y-14356650D01*
X14917801Y-14356650D02*
X14955896Y-14356650D01*
X14955896Y-14356650D02*
X14974944Y-14366174D01*
X14974944Y-14366174D02*
X14984468Y-14385222D01*
X14984468Y-14385222D02*
X14984468Y-14404269D01*
X14984468Y-14404269D02*
X14889230Y-14423317D01*
X15060658Y-14480460D02*
X15079706Y-14489984D01*
X15079706Y-14489984D02*
X15117801Y-14489984D01*
X15117801Y-14489984D02*
X15136849Y-14480460D01*
X15136849Y-14480460D02*
X15146372Y-14461412D01*
X15146372Y-14461412D02*
X15146372Y-14451888D01*
X15146372Y-14451888D02*
X15136849Y-14432841D01*
X15136849Y-14432841D02*
X15117801Y-14423317D01*
X15117801Y-14423317D02*
X15089230Y-14423317D01*
X15089230Y-14423317D02*
X15070182Y-14413793D01*
X15070182Y-14413793D02*
X15060658Y-14394746D01*
X15060658Y-14394746D02*
X15060658Y-14385222D01*
X15060658Y-14385222D02*
X15070182Y-14366174D01*
X15070182Y-14366174D02*
X15089230Y-14356650D01*
X15089230Y-14356650D02*
X15117801Y-14356650D01*
X15117801Y-14356650D02*
X15136849Y-14366174D01*
X15213039Y-14566174D02*
X15222563Y-14556650D01*
X15222563Y-14556650D02*
X15241611Y-14528079D01*
X15241611Y-14528079D02*
X15251134Y-14509031D01*
X15251134Y-14509031D02*
X15260658Y-14480460D01*
X15260658Y-14480460D02*
X15270182Y-14432841D01*
X15270182Y-14432841D02*
X15270182Y-14394746D01*
X15270182Y-14394746D02*
X15260658Y-14347127D01*
X15260658Y-14347127D02*
X15251134Y-14318555D01*
X15251134Y-14318555D02*
X15241611Y-14299508D01*
X15241611Y-14299508D02*
X15222563Y-14270936D01*
X15222563Y-14270936D02*
X15213039Y-14261412D01*
D12*
X10147500Y-14612500D02*
X10247500Y-14712500D01*
X10247500Y-14612500D02*
X10147500Y-14712500D01*
X10247500Y-14662500D02*
G75*
G02*
X10147500Y-14662500I-50000J0D01*
G01*
X10147500Y-14662500D02*
G75*
G02*
X10247500Y-14662500I50000J0D01*
G01*
D11*
X10613039Y-14753984D02*
X10498753Y-14753984D01*
X10555896Y-14753984D02*
X10555896Y-14553984D01*
X10555896Y-14553984D02*
X10536848Y-14582555D01*
X10536848Y-14582555D02*
X10517801Y-14601603D01*
X10517801Y-14601603D02*
X10498753Y-14611127D01*
X10698753Y-14734936D02*
X10708277Y-14744460D01*
X10708277Y-14744460D02*
X10698753Y-14753984D01*
X10698753Y-14753984D02*
X10689229Y-14744460D01*
X10689229Y-14744460D02*
X10698753Y-14734936D01*
X10698753Y-14734936D02*
X10698753Y-14753984D01*
X10832086Y-14553984D02*
X10851134Y-14553984D01*
X10851134Y-14553984D02*
X10870182Y-14563508D01*
X10870182Y-14563508D02*
X10879705Y-14573031D01*
X10879705Y-14573031D02*
X10889229Y-14592079D01*
X10889229Y-14592079D02*
X10898753Y-14630174D01*
X10898753Y-14630174D02*
X10898753Y-14677793D01*
X10898753Y-14677793D02*
X10889229Y-14715888D01*
X10889229Y-14715888D02*
X10879705Y-14734936D01*
X10879705Y-14734936D02*
X10870182Y-14744460D01*
X10870182Y-14744460D02*
X10851134Y-14753984D01*
X10851134Y-14753984D02*
X10832086Y-14753984D01*
X10832086Y-14753984D02*
X10813039Y-14744460D01*
X10813039Y-14744460D02*
X10803515Y-14734936D01*
X10803515Y-14734936D02*
X10793991Y-14715888D01*
X10793991Y-14715888D02*
X10784467Y-14677793D01*
X10784467Y-14677793D02*
X10784467Y-14630174D01*
X10784467Y-14630174D02*
X10793991Y-14592079D01*
X10793991Y-14592079D02*
X10803515Y-14573031D01*
X10803515Y-14573031D02*
X10813039Y-14563508D01*
X10813039Y-14563508D02*
X10832086Y-14553984D01*
X11022563Y-14553984D02*
X11041610Y-14553984D01*
X11041610Y-14553984D02*
X11060658Y-14563508D01*
X11060658Y-14563508D02*
X11070182Y-14573031D01*
X11070182Y-14573031D02*
X11079705Y-14592079D01*
X11079705Y-14592079D02*
X11089229Y-14630174D01*
X11089229Y-14630174D02*
X11089229Y-14677793D01*
X11089229Y-14677793D02*
X11079705Y-14715888D01*
X11079705Y-14715888D02*
X11070182Y-14734936D01*
X11070182Y-14734936D02*
X11060658Y-14744460D01*
X11060658Y-14744460D02*
X11041610Y-14753984D01*
X11041610Y-14753984D02*
X11022563Y-14753984D01*
X11022563Y-14753984D02*
X11003515Y-14744460D01*
X11003515Y-14744460D02*
X10993991Y-14734936D01*
X10993991Y-14734936D02*
X10984467Y-14715888D01*
X10984467Y-14715888D02*
X10974944Y-14677793D01*
X10974944Y-14677793D02*
X10974944Y-14630174D01*
X10974944Y-14630174D02*
X10984467Y-14592079D01*
X10984467Y-14592079D02*
X10993991Y-14573031D01*
X10993991Y-14573031D02*
X11003515Y-14563508D01*
X11003515Y-14563508D02*
X11022563Y-14553984D01*
X11213039Y-14553984D02*
X11232086Y-14553984D01*
X11232086Y-14553984D02*
X11251134Y-14563508D01*
X11251134Y-14563508D02*
X11260658Y-14573031D01*
X11260658Y-14573031D02*
X11270182Y-14592079D01*
X11270182Y-14592079D02*
X11279705Y-14630174D01*
X11279705Y-14630174D02*
X11279705Y-14677793D01*
X11279705Y-14677793D02*
X11270182Y-14715888D01*
X11270182Y-14715888D02*
X11260658Y-14734936D01*
X11260658Y-14734936D02*
X11251134Y-14744460D01*
X11251134Y-14744460D02*
X11232086Y-14753984D01*
X11232086Y-14753984D02*
X11213039Y-14753984D01*
X11213039Y-14753984D02*
X11193991Y-14744460D01*
X11193991Y-14744460D02*
X11184467Y-14734936D01*
X11184467Y-14734936D02*
X11174944Y-14715888D01*
X11174944Y-14715888D02*
X11165420Y-14677793D01*
X11165420Y-14677793D02*
X11165420Y-14630174D01*
X11165420Y-14630174D02*
X11174944Y-14592079D01*
X11174944Y-14592079D02*
X11184467Y-14573031D01*
X11184467Y-14573031D02*
X11193991Y-14563508D01*
X11193991Y-14563508D02*
X11213039Y-14553984D01*
X11365420Y-14753984D02*
X11365420Y-14620650D01*
X11365420Y-14639698D02*
X11374943Y-14630174D01*
X11374943Y-14630174D02*
X11393991Y-14620650D01*
X11393991Y-14620650D02*
X11422563Y-14620650D01*
X11422563Y-14620650D02*
X11441610Y-14630174D01*
X11441610Y-14630174D02*
X11451134Y-14649222D01*
X11451134Y-14649222D02*
X11451134Y-14753984D01*
X11451134Y-14649222D02*
X11460658Y-14630174D01*
X11460658Y-14630174D02*
X11479705Y-14620650D01*
X11479705Y-14620650D02*
X11508277Y-14620650D01*
X11508277Y-14620650D02*
X11527324Y-14630174D01*
X11527324Y-14630174D02*
X11536848Y-14649222D01*
X11536848Y-14649222D02*
X11536848Y-14753984D01*
X11632086Y-14753984D02*
X11632086Y-14620650D01*
X11632086Y-14639698D02*
X11641610Y-14630174D01*
X11641610Y-14630174D02*
X11660658Y-14620650D01*
X11660658Y-14620650D02*
X11689229Y-14620650D01*
X11689229Y-14620650D02*
X11708277Y-14630174D01*
X11708277Y-14630174D02*
X11717801Y-14649222D01*
X11717801Y-14649222D02*
X11717801Y-14753984D01*
X11717801Y-14649222D02*
X11727324Y-14630174D01*
X11727324Y-14630174D02*
X11746372Y-14620650D01*
X11746372Y-14620650D02*
X11774943Y-14620650D01*
X11774943Y-14620650D02*
X11793991Y-14630174D01*
X11793991Y-14630174D02*
X11803515Y-14649222D01*
X11803515Y-14649222D02*
X11803515Y-14753984D01*
X12193991Y-14544460D02*
X12022563Y-14801603D01*
X12451134Y-14553984D02*
X12470182Y-14553984D01*
X12470182Y-14553984D02*
X12489229Y-14563508D01*
X12489229Y-14563508D02*
X12498753Y-14573031D01*
X12498753Y-14573031D02*
X12508277Y-14592079D01*
X12508277Y-14592079D02*
X12517801Y-14630174D01*
X12517801Y-14630174D02*
X12517801Y-14677793D01*
X12517801Y-14677793D02*
X12508277Y-14715888D01*
X12508277Y-14715888D02*
X12498753Y-14734936D01*
X12498753Y-14734936D02*
X12489229Y-14744460D01*
X12489229Y-14744460D02*
X12470182Y-14753984D01*
X12470182Y-14753984D02*
X12451134Y-14753984D01*
X12451134Y-14753984D02*
X12432086Y-14744460D01*
X12432086Y-14744460D02*
X12422563Y-14734936D01*
X12422563Y-14734936D02*
X12413039Y-14715888D01*
X12413039Y-14715888D02*
X12403515Y-14677793D01*
X12403515Y-14677793D02*
X12403515Y-14630174D01*
X12403515Y-14630174D02*
X12413039Y-14592079D01*
X12413039Y-14592079D02*
X12422563Y-14573031D01*
X12422563Y-14573031D02*
X12432086Y-14563508D01*
X12432086Y-14563508D02*
X12451134Y-14553984D01*
X12603515Y-14734936D02*
X12613039Y-14744460D01*
X12613039Y-14744460D02*
X12603515Y-14753984D01*
X12603515Y-14753984D02*
X12593991Y-14744460D01*
X12593991Y-14744460D02*
X12603515Y-14734936D01*
X12603515Y-14734936D02*
X12603515Y-14753984D01*
X12736848Y-14553984D02*
X12755896Y-14553984D01*
X12755896Y-14553984D02*
X12774944Y-14563508D01*
X12774944Y-14563508D02*
X12784467Y-14573031D01*
X12784467Y-14573031D02*
X12793991Y-14592079D01*
X12793991Y-14592079D02*
X12803515Y-14630174D01*
X12803515Y-14630174D02*
X12803515Y-14677793D01*
X12803515Y-14677793D02*
X12793991Y-14715888D01*
X12793991Y-14715888D02*
X12784467Y-14734936D01*
X12784467Y-14734936D02*
X12774944Y-14744460D01*
X12774944Y-14744460D02*
X12755896Y-14753984D01*
X12755896Y-14753984D02*
X12736848Y-14753984D01*
X12736848Y-14753984D02*
X12717801Y-14744460D01*
X12717801Y-14744460D02*
X12708277Y-14734936D01*
X12708277Y-14734936D02*
X12698753Y-14715888D01*
X12698753Y-14715888D02*
X12689229Y-14677793D01*
X12689229Y-14677793D02*
X12689229Y-14630174D01*
X12689229Y-14630174D02*
X12698753Y-14592079D01*
X12698753Y-14592079D02*
X12708277Y-14573031D01*
X12708277Y-14573031D02*
X12717801Y-14563508D01*
X12717801Y-14563508D02*
X12736848Y-14553984D01*
X12870182Y-14553984D02*
X12993991Y-14553984D01*
X12993991Y-14553984D02*
X12927325Y-14630174D01*
X12927325Y-14630174D02*
X12955896Y-14630174D01*
X12955896Y-14630174D02*
X12974944Y-14639698D01*
X12974944Y-14639698D02*
X12984467Y-14649222D01*
X12984467Y-14649222D02*
X12993991Y-14668269D01*
X12993991Y-14668269D02*
X12993991Y-14715888D01*
X12993991Y-14715888D02*
X12984467Y-14734936D01*
X12984467Y-14734936D02*
X12974944Y-14744460D01*
X12974944Y-14744460D02*
X12955896Y-14753984D01*
X12955896Y-14753984D02*
X12898753Y-14753984D01*
X12898753Y-14753984D02*
X12879706Y-14744460D01*
X12879706Y-14744460D02*
X12870182Y-14734936D01*
X13089229Y-14753984D02*
X13127325Y-14753984D01*
X13127325Y-14753984D02*
X13146372Y-14744460D01*
X13146372Y-14744460D02*
X13155896Y-14734936D01*
X13155896Y-14734936D02*
X13174944Y-14706365D01*
X13174944Y-14706365D02*
X13184467Y-14668269D01*
X13184467Y-14668269D02*
X13184467Y-14592079D01*
X13184467Y-14592079D02*
X13174944Y-14573031D01*
X13174944Y-14573031D02*
X13165420Y-14563508D01*
X13165420Y-14563508D02*
X13146372Y-14553984D01*
X13146372Y-14553984D02*
X13108277Y-14553984D01*
X13108277Y-14553984D02*
X13089229Y-14563508D01*
X13089229Y-14563508D02*
X13079706Y-14573031D01*
X13079706Y-14573031D02*
X13070182Y-14592079D01*
X13070182Y-14592079D02*
X13070182Y-14639698D01*
X13070182Y-14639698D02*
X13079706Y-14658746D01*
X13079706Y-14658746D02*
X13089229Y-14668269D01*
X13089229Y-14668269D02*
X13108277Y-14677793D01*
X13108277Y-14677793D02*
X13146372Y-14677793D01*
X13146372Y-14677793D02*
X13165420Y-14668269D01*
X13165420Y-14668269D02*
X13174944Y-14658746D01*
X13174944Y-14658746D02*
X13184467Y-14639698D01*
X13355896Y-14620650D02*
X13355896Y-14753984D01*
X13308277Y-14544460D02*
X13260658Y-14687317D01*
X13260658Y-14687317D02*
X13384467Y-14687317D01*
X13451134Y-14553984D02*
X13451134Y-14592079D01*
X13527325Y-14553984D02*
X13527325Y-14592079D01*
X13822563Y-14830174D02*
X13813039Y-14820650D01*
X13813039Y-14820650D02*
X13793991Y-14792079D01*
X13793991Y-14792079D02*
X13784468Y-14773031D01*
X13784468Y-14773031D02*
X13774944Y-14744460D01*
X13774944Y-14744460D02*
X13765420Y-14696841D01*
X13765420Y-14696841D02*
X13765420Y-14658746D01*
X13765420Y-14658746D02*
X13774944Y-14611127D01*
X13774944Y-14611127D02*
X13784468Y-14582555D01*
X13784468Y-14582555D02*
X13793991Y-14563508D01*
X13793991Y-14563508D02*
X13813039Y-14534936D01*
X13813039Y-14534936D02*
X13822563Y-14525412D01*
X13889229Y-14573031D02*
X13898753Y-14563508D01*
X13898753Y-14563508D02*
X13917801Y-14553984D01*
X13917801Y-14553984D02*
X13965420Y-14553984D01*
X13965420Y-14553984D02*
X13984468Y-14563508D01*
X13984468Y-14563508D02*
X13993991Y-14573031D01*
X13993991Y-14573031D02*
X14003515Y-14592079D01*
X14003515Y-14592079D02*
X14003515Y-14611127D01*
X14003515Y-14611127D02*
X13993991Y-14639698D01*
X13993991Y-14639698D02*
X13879706Y-14753984D01*
X13879706Y-14753984D02*
X14003515Y-14753984D01*
X14241610Y-14753984D02*
X14241610Y-14553984D01*
X14327325Y-14753984D02*
X14327325Y-14649222D01*
X14327325Y-14649222D02*
X14317801Y-14630174D01*
X14317801Y-14630174D02*
X14298753Y-14620650D01*
X14298753Y-14620650D02*
X14270182Y-14620650D01*
X14270182Y-14620650D02*
X14251134Y-14630174D01*
X14251134Y-14630174D02*
X14241610Y-14639698D01*
X14451134Y-14753984D02*
X14432087Y-14744460D01*
X14432087Y-14744460D02*
X14422563Y-14734936D01*
X14422563Y-14734936D02*
X14413039Y-14715888D01*
X14413039Y-14715888D02*
X14413039Y-14658746D01*
X14413039Y-14658746D02*
X14422563Y-14639698D01*
X14422563Y-14639698D02*
X14432087Y-14630174D01*
X14432087Y-14630174D02*
X14451134Y-14620650D01*
X14451134Y-14620650D02*
X14479706Y-14620650D01*
X14479706Y-14620650D02*
X14498753Y-14630174D01*
X14498753Y-14630174D02*
X14508277Y-14639698D01*
X14508277Y-14639698D02*
X14517801Y-14658746D01*
X14517801Y-14658746D02*
X14517801Y-14715888D01*
X14517801Y-14715888D02*
X14508277Y-14734936D01*
X14508277Y-14734936D02*
X14498753Y-14744460D01*
X14498753Y-14744460D02*
X14479706Y-14753984D01*
X14479706Y-14753984D02*
X14451134Y-14753984D01*
X14632087Y-14753984D02*
X14613039Y-14744460D01*
X14613039Y-14744460D02*
X14603515Y-14725412D01*
X14603515Y-14725412D02*
X14603515Y-14553984D01*
X14784468Y-14744460D02*
X14765420Y-14753984D01*
X14765420Y-14753984D02*
X14727325Y-14753984D01*
X14727325Y-14753984D02*
X14708277Y-14744460D01*
X14708277Y-14744460D02*
X14698753Y-14725412D01*
X14698753Y-14725412D02*
X14698753Y-14649222D01*
X14698753Y-14649222D02*
X14708277Y-14630174D01*
X14708277Y-14630174D02*
X14727325Y-14620650D01*
X14727325Y-14620650D02*
X14765420Y-14620650D01*
X14765420Y-14620650D02*
X14784468Y-14630174D01*
X14784468Y-14630174D02*
X14793991Y-14649222D01*
X14793991Y-14649222D02*
X14793991Y-14668269D01*
X14793991Y-14668269D02*
X14698753Y-14687317D01*
X14870182Y-14744460D02*
X14889230Y-14753984D01*
X14889230Y-14753984D02*
X14927325Y-14753984D01*
X14927325Y-14753984D02*
X14946372Y-14744460D01*
X14946372Y-14744460D02*
X14955896Y-14725412D01*
X14955896Y-14725412D02*
X14955896Y-14715888D01*
X14955896Y-14715888D02*
X14946372Y-14696841D01*
X14946372Y-14696841D02*
X14927325Y-14687317D01*
X14927325Y-14687317D02*
X14898753Y-14687317D01*
X14898753Y-14687317D02*
X14879706Y-14677793D01*
X14879706Y-14677793D02*
X14870182Y-14658746D01*
X14870182Y-14658746D02*
X14870182Y-14649222D01*
X14870182Y-14649222D02*
X14879706Y-14630174D01*
X14879706Y-14630174D02*
X14898753Y-14620650D01*
X14898753Y-14620650D02*
X14927325Y-14620650D01*
X14927325Y-14620650D02*
X14946372Y-14630174D01*
X15022563Y-14830174D02*
X15032087Y-14820650D01*
X15032087Y-14820650D02*
X15051134Y-14792079D01*
X15051134Y-14792079D02*
X15060658Y-14773031D01*
X15060658Y-14773031D02*
X15070182Y-14744460D01*
X15070182Y-14744460D02*
X15079706Y-14696841D01*
X15079706Y-14696841D02*
X15079706Y-14658746D01*
X15079706Y-14658746D02*
X15070182Y-14611127D01*
X15070182Y-14611127D02*
X15060658Y-14582555D01*
X15060658Y-14582555D02*
X15051134Y-14563508D01*
X15051134Y-14563508D02*
X15032087Y-14534936D01*
X15032087Y-14534936D02*
X15022563Y-14525412D01*
M02*
