G04 #@! TF.GenerationSoftware,KiCad,Pcbnew,8.0.1*
G04 #@! TF.CreationDate,2024-05-12T16:16:29-04:00*
G04 #@! TF.ProjectId,recyclobot,72656379-636c-46f6-926f-742e6b696361,rev?*
G04 #@! TF.SameCoordinates,Original*
G04 #@! TF.FileFunction,Copper,L1,Top*
G04 #@! TF.FilePolarity,Positive*
%FSLAX46Y46*%
G04 Gerber Fmt 4.6, Leading zero omitted, Abs format (unit mm)*
G04 Created by KiCad (PCBNEW 8.0.1) date 2024-05-12 16:16:29*
%MOMM*%
%LPD*%
G01*
G04 APERTURE LIST*
G04 #@! TA.AperFunction,ComponentPad*
%ADD10O,1.700000X1.700000*%
G04 #@! TD*
G04 #@! TA.AperFunction,ComponentPad*
%ADD11R,1.700000X1.700000*%
G04 #@! TD*
G04 #@! TA.AperFunction,ComponentPad*
%ADD12R,1.800000X1.800000*%
G04 #@! TD*
G04 #@! TA.AperFunction,ComponentPad*
%ADD13C,1.800000*%
G04 #@! TD*
G04 #@! TA.AperFunction,ComponentPad*
%ADD14R,1.500000X1.050000*%
G04 #@! TD*
G04 #@! TA.AperFunction,ComponentPad*
%ADD15O,1.500000X1.050000*%
G04 #@! TD*
G04 #@! TA.AperFunction,ComponentPad*
%ADD16C,1.400000*%
G04 #@! TD*
G04 #@! TA.AperFunction,ComponentPad*
%ADD17O,1.400000X1.400000*%
G04 #@! TD*
G04 #@! TA.AperFunction,ComponentPad*
%ADD18R,1.600000X1.600000*%
G04 #@! TD*
G04 #@! TA.AperFunction,ComponentPad*
%ADD19O,1.600000X1.600000*%
G04 #@! TD*
G04 #@! TA.AperFunction,ViaPad*
%ADD20C,0.600000*%
G04 #@! TD*
G04 #@! TA.AperFunction,Conductor*
%ADD21C,0.200000*%
G04 #@! TD*
G04 APERTURE END LIST*
D10*
X120500000Y-87000000D03*
D11*
X120500000Y-84460000D03*
D12*
X146960000Y-100000000D03*
D13*
X149500000Y-100000000D03*
D12*
X108500000Y-93460000D03*
D13*
X108500000Y-96000000D03*
D12*
X109000000Y-111950000D03*
D13*
X109000000Y-114490000D03*
D12*
X146725000Y-106000000D03*
D13*
X149265000Y-106000000D03*
D12*
X136460000Y-83500000D03*
D13*
X139000000Y-83500000D03*
D12*
X146960000Y-86000000D03*
D13*
X149500000Y-86000000D03*
D12*
X127000000Y-83500000D03*
D13*
X129540000Y-83500000D03*
D14*
X109220000Y-103500000D03*
D15*
X109220000Y-102230000D03*
X109220000Y-100960000D03*
D16*
X117005000Y-114045000D03*
D17*
X117005000Y-106425000D03*
D12*
X144225000Y-122500000D03*
D13*
X146765000Y-122500000D03*
D12*
X135460000Y-122500000D03*
D13*
X138000000Y-122500000D03*
D12*
X131050000Y-122500000D03*
D13*
X128510000Y-122500000D03*
D12*
X146460000Y-114000000D03*
D13*
X149000000Y-114000000D03*
D18*
X127880000Y-93960000D03*
D19*
X127880000Y-96500000D03*
X127880000Y-99040000D03*
X127880000Y-101580000D03*
X127880000Y-104120000D03*
X127880000Y-106660000D03*
X127880000Y-109200000D03*
X127880000Y-111740000D03*
X127880000Y-114280000D03*
X135500000Y-114280000D03*
X135500000Y-111740000D03*
X135500000Y-109200000D03*
X135500000Y-106660000D03*
X135500000Y-104120000D03*
X135500000Y-101580000D03*
X135500000Y-99040000D03*
X135500000Y-96500000D03*
X135500000Y-93960000D03*
D16*
X119500000Y-101810000D03*
D17*
X119500000Y-94190000D03*
D16*
X115000000Y-96500000D03*
D17*
X115000000Y-88880000D03*
D16*
X123500000Y-112810000D03*
D17*
X123500000Y-105190000D03*
D12*
X146960000Y-93000000D03*
D13*
X149500000Y-93000000D03*
D20*
X130500000Y-112000000D03*
X131000000Y-98000000D03*
X107500000Y-119500000D03*
X132000000Y-103000000D03*
X140500000Y-97000000D03*
X150000000Y-124500000D03*
X107000000Y-84000000D03*
X122500000Y-93500000D03*
X146500000Y-81000000D03*
D21*
X129540000Y-83500000D02*
X128340000Y-82300000D01*
X128340000Y-82300000D02*
X122700000Y-82300000D01*
X122700000Y-82300000D02*
X120500000Y-84500000D01*
X128000000Y-114400000D02*
X128000000Y-114500000D01*
X139000000Y-83500000D02*
X138000000Y-83500000D01*
X147000000Y-83500000D02*
X139000000Y-83500000D01*
X140500000Y-125000000D02*
X144265000Y-125000000D01*
X127880000Y-114280000D02*
X128000000Y-114400000D01*
X128980000Y-113180000D02*
X127880000Y-114280000D01*
X130160000Y-112000000D02*
X130500000Y-112000000D01*
X149500000Y-93000000D02*
X149500000Y-86000000D01*
X130510000Y-124500000D02*
X135860000Y-124500000D01*
X137660000Y-82300000D02*
X130740000Y-82300000D01*
X127880000Y-114280000D02*
X126470000Y-115690000D01*
X149500000Y-86000000D02*
X147000000Y-83500000D01*
X149265000Y-105735000D02*
X149500000Y-105500000D01*
X146765000Y-116235000D02*
X149000000Y-114000000D01*
X138000000Y-83500000D02*
X137660000Y-83160000D01*
X149500000Y-105500000D02*
X149500000Y-100000000D01*
X130740000Y-82300000D02*
X129540000Y-83500000D01*
X107800000Y-113150000D02*
X109000000Y-111950000D01*
X109220000Y-103500000D02*
X109220000Y-111614314D01*
X128980000Y-113180000D02*
X130160000Y-112000000D01*
X109220000Y-103500000D02*
X109220000Y-103880000D01*
X146765000Y-122500000D02*
X146765000Y-116235000D01*
X149000000Y-106265000D02*
X149265000Y-106000000D01*
X137860000Y-122500000D02*
X138000000Y-122500000D01*
X108190000Y-115690000D02*
X107800000Y-115300000D01*
X137660000Y-83160000D02*
X137660000Y-82300000D01*
X109540000Y-112500000D02*
X109000000Y-111960000D01*
X127880000Y-114280000D02*
X127880000Y-121870000D01*
X135860000Y-124500000D02*
X137860000Y-122500000D01*
X128510000Y-122500000D02*
X130510000Y-124500000D01*
X109220000Y-111614314D02*
X109277843Y-111672157D01*
X138000000Y-122500000D02*
X140500000Y-125000000D01*
X149265000Y-106000000D02*
X149265000Y-105735000D01*
X144265000Y-125000000D02*
X146765000Y-122500000D01*
X127880000Y-121870000D02*
X128510000Y-122500000D01*
X126470000Y-115690000D02*
X108190000Y-115690000D01*
X107800000Y-115300000D02*
X107800000Y-113150000D01*
X129960000Y-99040000D02*
X131000000Y-98000000D01*
X149500000Y-100000000D02*
X149500000Y-93000000D01*
X149000000Y-114000000D02*
X149000000Y-106265000D01*
X127880000Y-99040000D02*
X129960000Y-99040000D01*
X115000000Y-88880000D02*
X113080000Y-88880000D01*
X113080000Y-88880000D02*
X108500000Y-93460000D01*
X127000000Y-84000000D02*
X127880000Y-84880000D01*
X127880000Y-84880000D02*
X127880000Y-93960000D01*
X127000000Y-83500000D02*
X127000000Y-84000000D01*
X136460000Y-83500000D02*
X136460000Y-93000000D01*
X136460000Y-93000000D02*
X135500000Y-93960000D01*
X146960000Y-86000000D02*
X146000000Y-86000000D01*
X146000000Y-86000000D02*
X135500000Y-96500000D01*
X141540000Y-93000000D02*
X135500000Y-99040000D01*
X146960000Y-93000000D02*
X141540000Y-93000000D01*
X146960000Y-100000000D02*
X137080000Y-100000000D01*
X137080000Y-100000000D02*
X135500000Y-101580000D01*
X146725000Y-106000000D02*
X137380000Y-106000000D01*
X137380000Y-106000000D02*
X135500000Y-104120000D01*
X139120000Y-106660000D02*
X146460000Y-114000000D01*
X135500000Y-106660000D02*
X139120000Y-106660000D01*
X144225000Y-122500000D02*
X144225000Y-117925000D01*
X144225000Y-117925000D02*
X135500000Y-109200000D01*
X136600000Y-121360000D02*
X136600000Y-112840000D01*
X136600000Y-112840000D02*
X135500000Y-111740000D01*
X135460000Y-122500000D02*
X136600000Y-121360000D01*
X131050000Y-118730000D02*
X135500000Y-114280000D01*
X131050000Y-122500000D02*
X131050000Y-118730000D01*
X109825000Y-102230000D02*
X110270000Y-102675000D01*
X110270000Y-113220000D02*
X109000000Y-114490000D01*
X110270000Y-102675000D02*
X110270000Y-113220000D01*
X109220000Y-114280000D02*
X109000000Y-114500000D01*
X109000000Y-114490000D02*
X116560000Y-114490000D01*
X109220000Y-102230000D02*
X109825000Y-102230000D01*
X116560000Y-114490000D02*
X117005000Y-114045000D01*
X120765000Y-101810000D02*
X121500000Y-102545000D01*
X126305000Y-102545000D02*
X127880000Y-104120000D01*
X119500000Y-101810000D02*
X118650000Y-100960000D01*
X121500000Y-102545000D02*
X126305000Y-102545000D01*
X119500000Y-101810000D02*
X120765000Y-101810000D01*
X118500000Y-100960000D02*
X109220000Y-100960000D01*
X118650000Y-100960000D02*
X118500000Y-100960000D01*
X114500000Y-96500000D02*
X115000000Y-96500000D01*
X127880000Y-101580000D02*
X127880000Y-101120000D01*
X123500000Y-105190000D02*
X126410000Y-105190000D01*
X127880000Y-106660000D02*
X127880000Y-109200000D01*
X126410000Y-105190000D02*
X127880000Y-106660000D01*
G04 #@! TA.AperFunction,Conductor*
G36*
X135002539Y-82920185D02*
G01*
X135048294Y-82972989D01*
X135059500Y-83024500D01*
X135059500Y-84447870D01*
X135059501Y-84447876D01*
X135065908Y-84507483D01*
X135116202Y-84642328D01*
X135116206Y-84642335D01*
X135202452Y-84757544D01*
X135202455Y-84757547D01*
X135317664Y-84843793D01*
X135317671Y-84843797D01*
X135354851Y-84857664D01*
X135452517Y-84894091D01*
X135512127Y-84900500D01*
X135735500Y-84900499D01*
X135802539Y-84920183D01*
X135848294Y-84972987D01*
X135859500Y-85024499D01*
X135859500Y-92550662D01*
X135839815Y-92617701D01*
X135787011Y-92663456D01*
X135724693Y-92674190D01*
X135500002Y-92654532D01*
X135499998Y-92654532D01*
X135273313Y-92674364D01*
X135273302Y-92674366D01*
X135053511Y-92733258D01*
X135053502Y-92733261D01*
X134847267Y-92829431D01*
X134847265Y-92829432D01*
X134660858Y-92959954D01*
X134499954Y-93120858D01*
X134369432Y-93307265D01*
X134369431Y-93307267D01*
X134273261Y-93513502D01*
X134273258Y-93513511D01*
X134214366Y-93733302D01*
X134214364Y-93733313D01*
X134194532Y-93959998D01*
X134194532Y-93960001D01*
X134214364Y-94186686D01*
X134214366Y-94186697D01*
X134273258Y-94406488D01*
X134273261Y-94406497D01*
X134369431Y-94612732D01*
X134369432Y-94612734D01*
X134499954Y-94799141D01*
X134660858Y-94960045D01*
X134660861Y-94960047D01*
X134847266Y-95090568D01*
X134905275Y-95117618D01*
X134957714Y-95163791D01*
X134976866Y-95230984D01*
X134956650Y-95297865D01*
X134905275Y-95342382D01*
X134847267Y-95369431D01*
X134847265Y-95369432D01*
X134660858Y-95499954D01*
X134499954Y-95660858D01*
X134369432Y-95847265D01*
X134369431Y-95847267D01*
X134273261Y-96053502D01*
X134273258Y-96053511D01*
X134214366Y-96273302D01*
X134214364Y-96273313D01*
X134194532Y-96499998D01*
X134194532Y-96500001D01*
X134214364Y-96726686D01*
X134214366Y-96726697D01*
X134273258Y-96946488D01*
X134273261Y-96946497D01*
X134369431Y-97152732D01*
X134369432Y-97152734D01*
X134499954Y-97339141D01*
X134660858Y-97500045D01*
X134660861Y-97500047D01*
X134847266Y-97630568D01*
X134889959Y-97650476D01*
X134905275Y-97657618D01*
X134957714Y-97703791D01*
X134976866Y-97770984D01*
X134956650Y-97837865D01*
X134905275Y-97882382D01*
X134847267Y-97909431D01*
X134847265Y-97909432D01*
X134660858Y-98039954D01*
X134499954Y-98200858D01*
X134369432Y-98387265D01*
X134369431Y-98387267D01*
X134273261Y-98593502D01*
X134273258Y-98593511D01*
X134214366Y-98813302D01*
X134214364Y-98813313D01*
X134194532Y-99039998D01*
X134194532Y-99040001D01*
X134214364Y-99266686D01*
X134214366Y-99266697D01*
X134273258Y-99486488D01*
X134273261Y-99486497D01*
X134369431Y-99692732D01*
X134369432Y-99692734D01*
X134499954Y-99879141D01*
X134660858Y-100040045D01*
X134707693Y-100072839D01*
X134847266Y-100170568D01*
X134905275Y-100197618D01*
X134957714Y-100243791D01*
X134976866Y-100310984D01*
X134956650Y-100377865D01*
X134905275Y-100422382D01*
X134847267Y-100449431D01*
X134847265Y-100449432D01*
X134660858Y-100579954D01*
X134499954Y-100740858D01*
X134369432Y-100927265D01*
X134369431Y-100927267D01*
X134273261Y-101133502D01*
X134273258Y-101133511D01*
X134214366Y-101353302D01*
X134214364Y-101353313D01*
X134194532Y-101579998D01*
X134194532Y-101580001D01*
X134214364Y-101806686D01*
X134214366Y-101806697D01*
X134273258Y-102026488D01*
X134273261Y-102026497D01*
X134369431Y-102232732D01*
X134369432Y-102232734D01*
X134499954Y-102419141D01*
X134660858Y-102580045D01*
X134660861Y-102580047D01*
X134847266Y-102710568D01*
X134894668Y-102732672D01*
X134905275Y-102737618D01*
X134957714Y-102783791D01*
X134976866Y-102850984D01*
X134956650Y-102917865D01*
X134905275Y-102962382D01*
X134847267Y-102989431D01*
X134847265Y-102989432D01*
X134660858Y-103119954D01*
X134499954Y-103280858D01*
X134369432Y-103467265D01*
X134369431Y-103467267D01*
X134273261Y-103673502D01*
X134273258Y-103673511D01*
X134214366Y-103893302D01*
X134214364Y-103893313D01*
X134194532Y-104119998D01*
X134194532Y-104120001D01*
X134214364Y-104346686D01*
X134214366Y-104346697D01*
X134273258Y-104566488D01*
X134273261Y-104566497D01*
X134369431Y-104772732D01*
X134369432Y-104772734D01*
X134499954Y-104959141D01*
X134660858Y-105120045D01*
X134660861Y-105120047D01*
X134847266Y-105250568D01*
X134905275Y-105277618D01*
X134957714Y-105323791D01*
X134976866Y-105390984D01*
X134956650Y-105457865D01*
X134905275Y-105502382D01*
X134847267Y-105529431D01*
X134847265Y-105529432D01*
X134660858Y-105659954D01*
X134499954Y-105820858D01*
X134369432Y-106007265D01*
X134369431Y-106007267D01*
X134273261Y-106213502D01*
X134273258Y-106213511D01*
X134214366Y-106433302D01*
X134214364Y-106433313D01*
X134194532Y-106659998D01*
X134194532Y-106660001D01*
X134214364Y-106886686D01*
X134214366Y-106886697D01*
X134273258Y-107106488D01*
X134273261Y-107106497D01*
X134369431Y-107312732D01*
X134369432Y-107312734D01*
X134499954Y-107499141D01*
X134660858Y-107660045D01*
X134660861Y-107660047D01*
X134847266Y-107790568D01*
X134905275Y-107817618D01*
X134957714Y-107863791D01*
X134976866Y-107930984D01*
X134956650Y-107997865D01*
X134905275Y-108042382D01*
X134847267Y-108069431D01*
X134847265Y-108069432D01*
X134660858Y-108199954D01*
X134499954Y-108360858D01*
X134369432Y-108547265D01*
X134369431Y-108547267D01*
X134273261Y-108753502D01*
X134273258Y-108753511D01*
X134214366Y-108973302D01*
X134214364Y-108973313D01*
X134194532Y-109199998D01*
X134194532Y-109200001D01*
X134214364Y-109426686D01*
X134214366Y-109426697D01*
X134273258Y-109646488D01*
X134273261Y-109646497D01*
X134369431Y-109852732D01*
X134369432Y-109852734D01*
X134499954Y-110039141D01*
X134660858Y-110200045D01*
X134660861Y-110200047D01*
X134847266Y-110330568D01*
X134905275Y-110357618D01*
X134957714Y-110403791D01*
X134976866Y-110470984D01*
X134956650Y-110537865D01*
X134905275Y-110582382D01*
X134847267Y-110609431D01*
X134847265Y-110609432D01*
X134660858Y-110739954D01*
X134499954Y-110900858D01*
X134369432Y-111087265D01*
X134369431Y-111087267D01*
X134273261Y-111293502D01*
X134273258Y-111293511D01*
X134214366Y-111513302D01*
X134214364Y-111513313D01*
X134194532Y-111739998D01*
X134194532Y-111740001D01*
X134214364Y-111966686D01*
X134214366Y-111966697D01*
X134273258Y-112186488D01*
X134273261Y-112186497D01*
X134369431Y-112392732D01*
X134369432Y-112392734D01*
X134499954Y-112579141D01*
X134660858Y-112740045D01*
X134664300Y-112742455D01*
X134847266Y-112870568D01*
X134879035Y-112885382D01*
X134905275Y-112897618D01*
X134957714Y-112943791D01*
X134976866Y-113010984D01*
X134956650Y-113077865D01*
X134905275Y-113122382D01*
X134847267Y-113149431D01*
X134847265Y-113149432D01*
X134660858Y-113279954D01*
X134499954Y-113440858D01*
X134369432Y-113627265D01*
X134369431Y-113627267D01*
X134273261Y-113833502D01*
X134273258Y-113833511D01*
X134214366Y-114053302D01*
X134214364Y-114053313D01*
X134194532Y-114279998D01*
X134194532Y-114280001D01*
X134214364Y-114506686D01*
X134214366Y-114506697D01*
X134240152Y-114602931D01*
X134238489Y-114672781D01*
X134208058Y-114722705D01*
X130681286Y-118249478D01*
X130569481Y-118361282D01*
X130569479Y-118361285D01*
X130519361Y-118448094D01*
X130519359Y-118448096D01*
X130490425Y-118498209D01*
X130490424Y-118498210D01*
X130490423Y-118498215D01*
X130449499Y-118650943D01*
X130449499Y-118650945D01*
X130449499Y-118819046D01*
X130449500Y-118819059D01*
X130449500Y-120975500D01*
X130429815Y-121042539D01*
X130377011Y-121088294D01*
X130325501Y-121099500D01*
X130102130Y-121099500D01*
X130102123Y-121099501D01*
X130042516Y-121105908D01*
X129907671Y-121156202D01*
X129907664Y-121156206D01*
X129792455Y-121242452D01*
X129792452Y-121242455D01*
X129706206Y-121357664D01*
X129706203Y-121357670D01*
X129677544Y-121434508D01*
X129635672Y-121490441D01*
X129570208Y-121514858D01*
X129501935Y-121500006D01*
X129470135Y-121475158D01*
X129461784Y-121466087D01*
X129461778Y-121466082D01*
X129461777Y-121466081D01*
X129278634Y-121323535D01*
X129278628Y-121323531D01*
X129074504Y-121213064D01*
X129074495Y-121213061D01*
X128854984Y-121137702D01*
X128664450Y-121105908D01*
X128626049Y-121099500D01*
X128626048Y-121099500D01*
X128604500Y-121099500D01*
X128537461Y-121079815D01*
X128491706Y-121027011D01*
X128480500Y-120975500D01*
X128480500Y-115511692D01*
X128500185Y-115444653D01*
X128533374Y-115410119D01*
X128719139Y-115280047D01*
X128880047Y-115119139D01*
X129010568Y-114932734D01*
X129106739Y-114726496D01*
X129165635Y-114506692D01*
X129185468Y-114280000D01*
X129165635Y-114053308D01*
X129145082Y-113976604D01*
X129139847Y-113957066D01*
X129141510Y-113887217D01*
X129171937Y-113837296D01*
X129460519Y-113548716D01*
X130193886Y-112815347D01*
X130255207Y-112781864D01*
X130313589Y-112785443D01*
X130313960Y-112783819D01*
X130320740Y-112785366D01*
X130320745Y-112785368D01*
X130320750Y-112785368D01*
X130320752Y-112785369D01*
X130499996Y-112805565D01*
X130500000Y-112805565D01*
X130500004Y-112805565D01*
X130679249Y-112785369D01*
X130679252Y-112785368D01*
X130679255Y-112785368D01*
X130849522Y-112725789D01*
X131002262Y-112629816D01*
X131129816Y-112502262D01*
X131225789Y-112349522D01*
X131285368Y-112179255D01*
X131291889Y-112121383D01*
X131305565Y-112000003D01*
X131305565Y-111999996D01*
X131285369Y-111820750D01*
X131285368Y-111820745D01*
X131257113Y-111739998D01*
X131225789Y-111650478D01*
X131129816Y-111497738D01*
X131002262Y-111370184D01*
X130997607Y-111367259D01*
X130849523Y-111274211D01*
X130679254Y-111214631D01*
X130679249Y-111214630D01*
X130500004Y-111194435D01*
X130499996Y-111194435D01*
X130320750Y-111214630D01*
X130320745Y-111214631D01*
X130150476Y-111274211D01*
X129997736Y-111370184D01*
X129938060Y-111429860D01*
X129912386Y-111449561D01*
X129901623Y-111455775D01*
X129893067Y-111460715D01*
X129893064Y-111460717D01*
X129791290Y-111519475D01*
X129791282Y-111519481D01*
X129679478Y-111631286D01*
X129329142Y-111981621D01*
X129267819Y-112015106D01*
X129198127Y-112010122D01*
X129170912Y-111990000D01*
X128195686Y-111990000D01*
X128200080Y-111985606D01*
X128252741Y-111894394D01*
X128280000Y-111792661D01*
X128280000Y-111687339D01*
X128252741Y-111585606D01*
X128200080Y-111494394D01*
X128195686Y-111490000D01*
X129158872Y-111490000D01*
X129158872Y-111489999D01*
X129106269Y-111293682D01*
X129106265Y-111293673D01*
X129010134Y-111087517D01*
X128879657Y-110901179D01*
X128718820Y-110740342D01*
X128532482Y-110609865D01*
X128474133Y-110582657D01*
X128421694Y-110536484D01*
X128402542Y-110469291D01*
X128422758Y-110402410D01*
X128474129Y-110357895D01*
X128532734Y-110330568D01*
X128719139Y-110200047D01*
X128880047Y-110039139D01*
X129010568Y-109852734D01*
X129106739Y-109646496D01*
X129165635Y-109426692D01*
X129185468Y-109200000D01*
X129165635Y-108973308D01*
X129106739Y-108753504D01*
X129010568Y-108547266D01*
X128880047Y-108360861D01*
X128880045Y-108360858D01*
X128719140Y-108199953D01*
X128533377Y-108069881D01*
X128489752Y-108015304D01*
X128480500Y-107968306D01*
X128480500Y-107891692D01*
X128500185Y-107824653D01*
X128533374Y-107790119D01*
X128719139Y-107660047D01*
X128880047Y-107499139D01*
X129010568Y-107312734D01*
X129106739Y-107106496D01*
X129165635Y-106886692D01*
X129185468Y-106660000D01*
X129165635Y-106433308D01*
X129106739Y-106213504D01*
X129010568Y-106007266D01*
X128880047Y-105820861D01*
X128880045Y-105820858D01*
X128719141Y-105659954D01*
X128532734Y-105529432D01*
X128532728Y-105529429D01*
X128474725Y-105502382D01*
X128422285Y-105456210D01*
X128403133Y-105389017D01*
X128423348Y-105322135D01*
X128474725Y-105277618D01*
X128532734Y-105250568D01*
X128719139Y-105120047D01*
X128880047Y-104959139D01*
X129010568Y-104772734D01*
X129106739Y-104566496D01*
X129165635Y-104346692D01*
X129185468Y-104120000D01*
X129165635Y-103893308D01*
X129106739Y-103673504D01*
X129010568Y-103467266D01*
X128880047Y-103280861D01*
X128880045Y-103280858D01*
X128719141Y-103119954D01*
X128532734Y-102989432D01*
X128532732Y-102989431D01*
X128490243Y-102969618D01*
X128474132Y-102962105D01*
X128421694Y-102915934D01*
X128402542Y-102848740D01*
X128422758Y-102781859D01*
X128474134Y-102737341D01*
X128532484Y-102710132D01*
X128718820Y-102579657D01*
X128879657Y-102418820D01*
X129010134Y-102232482D01*
X129106265Y-102026326D01*
X129106269Y-102026317D01*
X129158872Y-101830000D01*
X128195686Y-101830000D01*
X128200080Y-101825606D01*
X128252741Y-101734394D01*
X128280000Y-101632661D01*
X128280000Y-101527339D01*
X128252741Y-101425606D01*
X128200080Y-101334394D01*
X128195686Y-101330000D01*
X129158872Y-101330000D01*
X129158872Y-101329999D01*
X129106269Y-101133682D01*
X129106265Y-101133673D01*
X129010134Y-100927517D01*
X128879657Y-100741179D01*
X128718820Y-100580342D01*
X128532482Y-100449865D01*
X128474133Y-100422657D01*
X128421694Y-100376484D01*
X128402542Y-100309291D01*
X128422758Y-100242410D01*
X128474129Y-100197895D01*
X128532734Y-100170568D01*
X128719139Y-100040047D01*
X128880047Y-99879139D01*
X129010118Y-99693375D01*
X129064693Y-99649752D01*
X129111692Y-99640500D01*
X129873331Y-99640500D01*
X129873347Y-99640501D01*
X129880943Y-99640501D01*
X130039054Y-99640501D01*
X130039057Y-99640501D01*
X130191785Y-99599577D01*
X130241904Y-99570639D01*
X130328716Y-99520520D01*
X130440520Y-99408716D01*
X130440520Y-99408714D01*
X130450728Y-99398507D01*
X130450730Y-99398504D01*
X131018535Y-98830698D01*
X131079856Y-98797215D01*
X131092311Y-98795163D01*
X131179255Y-98785368D01*
X131349522Y-98725789D01*
X131502262Y-98629816D01*
X131629816Y-98502262D01*
X131725789Y-98349522D01*
X131785368Y-98179255D01*
X131785369Y-98179249D01*
X131805565Y-98000003D01*
X131805565Y-97999996D01*
X131785369Y-97820750D01*
X131785368Y-97820745D01*
X131767859Y-97770707D01*
X131725789Y-97650478D01*
X131629816Y-97497738D01*
X131502262Y-97370184D01*
X131489710Y-97362297D01*
X131349523Y-97274211D01*
X131179254Y-97214631D01*
X131179249Y-97214630D01*
X131000004Y-97194435D01*
X130999996Y-97194435D01*
X130820750Y-97214630D01*
X130820745Y-97214631D01*
X130650476Y-97274211D01*
X130497737Y-97370184D01*
X130370184Y-97497737D01*
X130274210Y-97650478D01*
X130214630Y-97820750D01*
X130204837Y-97907668D01*
X130177770Y-97972082D01*
X130169298Y-97981465D01*
X129747584Y-98403181D01*
X129686261Y-98436666D01*
X129659903Y-98439500D01*
X129111692Y-98439500D01*
X129044653Y-98419815D01*
X129010119Y-98386625D01*
X128880047Y-98200861D01*
X128880045Y-98200858D01*
X128719141Y-98039954D01*
X128532734Y-97909432D01*
X128532732Y-97909431D01*
X128474725Y-97882382D01*
X128474132Y-97882105D01*
X128421694Y-97835934D01*
X128402542Y-97768740D01*
X128422758Y-97701859D01*
X128474134Y-97657341D01*
X128532484Y-97630132D01*
X128718820Y-97499657D01*
X128879657Y-97338820D01*
X129010134Y-97152482D01*
X129106265Y-96946326D01*
X129106269Y-96946317D01*
X129158872Y-96750000D01*
X128195686Y-96750000D01*
X128200080Y-96745606D01*
X128252741Y-96654394D01*
X128280000Y-96552661D01*
X128280000Y-96447339D01*
X128252741Y-96345606D01*
X128200080Y-96254394D01*
X128195686Y-96250000D01*
X129158872Y-96250000D01*
X129158872Y-96249999D01*
X129106269Y-96053682D01*
X129106265Y-96053673D01*
X129010134Y-95847517D01*
X128879657Y-95661179D01*
X128718820Y-95500342D01*
X128693779Y-95482808D01*
X128650154Y-95428230D01*
X128642962Y-95358732D01*
X128674484Y-95296377D01*
X128734714Y-95260964D01*
X128751650Y-95257943D01*
X128787483Y-95254091D01*
X128922328Y-95203797D01*
X128922327Y-95203797D01*
X128922331Y-95203796D01*
X129037546Y-95117546D01*
X129123796Y-95002331D01*
X129174091Y-94867483D01*
X129180500Y-94807873D01*
X129180499Y-93112128D01*
X129174091Y-93052517D01*
X129154503Y-93000000D01*
X129123797Y-92917671D01*
X129123793Y-92917664D01*
X129037547Y-92802455D01*
X129037544Y-92802452D01*
X128922335Y-92716206D01*
X128922328Y-92716202D01*
X128787482Y-92665908D01*
X128787483Y-92665908D01*
X128727883Y-92659501D01*
X128727881Y-92659500D01*
X128727873Y-92659500D01*
X128727865Y-92659500D01*
X128604500Y-92659500D01*
X128537461Y-92639815D01*
X128491706Y-92587011D01*
X128480500Y-92535500D01*
X128480500Y-84969059D01*
X128480501Y-84969046D01*
X128480501Y-84800945D01*
X128480501Y-84800943D01*
X128457337Y-84714495D01*
X128459000Y-84644647D01*
X128498162Y-84586784D01*
X128562391Y-84559280D01*
X128631293Y-84570866D01*
X128653274Y-84584550D01*
X128771365Y-84676464D01*
X128771371Y-84676468D01*
X128771374Y-84676470D01*
X128975497Y-84786936D01*
X129082092Y-84823530D01*
X129195015Y-84862297D01*
X129195017Y-84862297D01*
X129195019Y-84862298D01*
X129423951Y-84900500D01*
X129423952Y-84900500D01*
X129656048Y-84900500D01*
X129656049Y-84900500D01*
X129884981Y-84862298D01*
X130104503Y-84786936D01*
X130308626Y-84676470D01*
X130334667Y-84656202D01*
X130426725Y-84584550D01*
X130491784Y-84533913D01*
X130648979Y-84363153D01*
X130775924Y-84168849D01*
X130869157Y-83956300D01*
X130926134Y-83731305D01*
X130926135Y-83731297D01*
X130945300Y-83500006D01*
X130945300Y-83499993D01*
X130926135Y-83268702D01*
X130926131Y-83268682D01*
X130881680Y-83093152D01*
X130884304Y-83023332D01*
X130914203Y-82975030D01*
X130952419Y-82936816D01*
X131013743Y-82903333D01*
X131040098Y-82900500D01*
X134935500Y-82900500D01*
X135002539Y-82920185D01*
G37*
G04 #@! TD.AperFunction*
G04 #@! TA.AperFunction,Conductor*
G36*
X118248494Y-101580185D02*
G01*
X118294249Y-101632989D01*
X118304926Y-101695941D01*
X118294357Y-101809999D01*
X118294357Y-101810000D01*
X118314884Y-102031535D01*
X118314885Y-102031537D01*
X118375769Y-102245523D01*
X118375775Y-102245538D01*
X118474938Y-102444683D01*
X118474943Y-102444691D01*
X118609020Y-102622238D01*
X118773437Y-102772123D01*
X118773439Y-102772125D01*
X118962595Y-102889245D01*
X118962596Y-102889245D01*
X118962599Y-102889247D01*
X119170060Y-102969618D01*
X119388757Y-103010500D01*
X119388759Y-103010500D01*
X119611241Y-103010500D01*
X119611243Y-103010500D01*
X119829940Y-102969618D01*
X120037401Y-102889247D01*
X120226562Y-102772124D01*
X120390981Y-102622236D01*
X120450111Y-102543934D01*
X120506220Y-102502299D01*
X120575932Y-102497608D01*
X120636746Y-102530981D01*
X121015139Y-102909374D01*
X121015149Y-102909385D01*
X121019479Y-102913715D01*
X121019480Y-102913716D01*
X121131284Y-103025520D01*
X121131286Y-103025521D01*
X121131290Y-103025524D01*
X121211538Y-103071855D01*
X121211539Y-103071855D01*
X121268215Y-103104577D01*
X121420943Y-103145501D01*
X121420946Y-103145501D01*
X121586653Y-103145501D01*
X121586669Y-103145500D01*
X126004903Y-103145500D01*
X126071942Y-103165185D01*
X126092584Y-103181819D01*
X126588058Y-103677293D01*
X126621543Y-103738616D01*
X126620152Y-103797067D01*
X126594366Y-103893302D01*
X126594364Y-103893313D01*
X126574532Y-104119998D01*
X126574532Y-104120001D01*
X126594364Y-104346686D01*
X126594366Y-104346697D01*
X126617623Y-104433493D01*
X126615960Y-104503343D01*
X126576797Y-104561205D01*
X126512569Y-104588709D01*
X126497185Y-104588620D01*
X126497185Y-104589499D01*
X126323347Y-104589499D01*
X126323331Y-104589500D01*
X124612621Y-104589500D01*
X124545582Y-104569815D01*
X124513667Y-104540227D01*
X124390979Y-104377761D01*
X124226562Y-104227876D01*
X124226560Y-104227874D01*
X124037404Y-104110754D01*
X124037398Y-104110752D01*
X123829940Y-104030382D01*
X123611243Y-103989500D01*
X123388757Y-103989500D01*
X123170060Y-104030382D01*
X123060386Y-104072870D01*
X122962601Y-104110752D01*
X122962595Y-104110754D01*
X122773439Y-104227874D01*
X122773437Y-104227876D01*
X122609020Y-104377761D01*
X122474943Y-104555308D01*
X122474938Y-104555316D01*
X122375775Y-104754461D01*
X122375769Y-104754476D01*
X122314885Y-104968462D01*
X122314884Y-104968464D01*
X122294357Y-105189999D01*
X122294357Y-105190000D01*
X122314884Y-105411535D01*
X122314885Y-105411537D01*
X122375769Y-105625523D01*
X122375775Y-105625538D01*
X122474938Y-105824683D01*
X122474942Y-105824689D01*
X122609020Y-106002238D01*
X122773437Y-106152123D01*
X122773439Y-106152125D01*
X122962595Y-106269245D01*
X122962596Y-106269245D01*
X122962599Y-106269247D01*
X123170060Y-106349618D01*
X123388757Y-106390500D01*
X123388759Y-106390500D01*
X123611241Y-106390500D01*
X123611243Y-106390500D01*
X123829940Y-106349618D01*
X124037401Y-106269247D01*
X124226562Y-106152124D01*
X124385462Y-106007267D01*
X124390979Y-106002238D01*
X124392670Y-106000000D01*
X124513667Y-105839772D01*
X124569776Y-105798137D01*
X124612621Y-105790500D01*
X126109903Y-105790500D01*
X126176942Y-105810185D01*
X126197584Y-105826819D01*
X126588058Y-106217293D01*
X126621543Y-106278616D01*
X126620152Y-106337067D01*
X126594366Y-106433302D01*
X126594364Y-106433313D01*
X126574532Y-106659998D01*
X126574532Y-106660001D01*
X126594364Y-106886686D01*
X126594366Y-106886697D01*
X126653258Y-107106488D01*
X126653261Y-107106497D01*
X126749431Y-107312732D01*
X126749432Y-107312734D01*
X126879954Y-107499141D01*
X127040858Y-107660045D01*
X127040861Y-107660047D01*
X127226624Y-107790118D01*
X127270248Y-107844693D01*
X127279500Y-107891692D01*
X127279500Y-107968306D01*
X127259815Y-108035345D01*
X127226623Y-108069881D01*
X127040859Y-108199953D01*
X126879954Y-108360858D01*
X126749432Y-108547265D01*
X126749431Y-108547267D01*
X126653261Y-108753502D01*
X126653258Y-108753511D01*
X126594366Y-108973302D01*
X126594364Y-108973313D01*
X126574532Y-109199998D01*
X126574532Y-109200001D01*
X126594364Y-109426686D01*
X126594366Y-109426697D01*
X126653258Y-109646488D01*
X126653261Y-109646497D01*
X126749431Y-109852732D01*
X126749432Y-109852734D01*
X126879954Y-110039141D01*
X127040858Y-110200045D01*
X127040861Y-110200047D01*
X127227266Y-110330568D01*
X127285865Y-110357893D01*
X127338305Y-110404065D01*
X127357457Y-110471258D01*
X127337242Y-110538139D01*
X127285867Y-110582657D01*
X127227515Y-110609867D01*
X127041179Y-110740342D01*
X126880342Y-110901179D01*
X126749865Y-111087517D01*
X126653734Y-111293673D01*
X126653730Y-111293682D01*
X126601127Y-111489999D01*
X126601128Y-111490000D01*
X127564314Y-111490000D01*
X127559920Y-111494394D01*
X127507259Y-111585606D01*
X127480000Y-111687339D01*
X127480000Y-111792661D01*
X127507259Y-111894394D01*
X127559920Y-111985606D01*
X127564314Y-111990000D01*
X126601128Y-111990000D01*
X126653730Y-112186317D01*
X126653734Y-112186326D01*
X126749865Y-112392482D01*
X126880342Y-112578820D01*
X127041179Y-112739657D01*
X127227518Y-112870134D01*
X127227520Y-112870135D01*
X127285865Y-112897342D01*
X127338305Y-112943514D01*
X127357457Y-113010707D01*
X127337242Y-113077589D01*
X127285867Y-113122105D01*
X127254244Y-113136852D01*
X127227264Y-113149433D01*
X127040858Y-113279954D01*
X126879954Y-113440858D01*
X126749432Y-113627265D01*
X126749431Y-113627267D01*
X126653261Y-113833502D01*
X126653258Y-113833511D01*
X126594366Y-114053302D01*
X126594364Y-114053313D01*
X126574532Y-114279998D01*
X126574532Y-114280001D01*
X126594364Y-114506686D01*
X126594366Y-114506697D01*
X126620152Y-114602931D01*
X126618489Y-114672781D01*
X126588058Y-114722705D01*
X126257582Y-115053182D01*
X126196261Y-115086666D01*
X126169903Y-115089500D01*
X117961281Y-115089500D01*
X117894242Y-115069815D01*
X117848487Y-115017011D01*
X117838543Y-114947853D01*
X117867568Y-114884297D01*
X117877742Y-114873864D01*
X117889497Y-114863147D01*
X117895981Y-114857236D01*
X118030058Y-114679689D01*
X118129229Y-114480528D01*
X118190115Y-114266536D01*
X118210643Y-114045000D01*
X118196022Y-113887217D01*
X118190115Y-113823464D01*
X118190114Y-113823462D01*
X118188241Y-113816880D01*
X122846672Y-113816880D01*
X122962821Y-113888797D01*
X122962822Y-113888798D01*
X123170195Y-113969134D01*
X123388807Y-114010000D01*
X123611193Y-114010000D01*
X123829809Y-113969133D01*
X124037168Y-113888801D01*
X124037181Y-113888795D01*
X124153326Y-113816879D01*
X123500001Y-113163553D01*
X123500000Y-113163553D01*
X122846672Y-113816879D01*
X122846672Y-113816880D01*
X118188241Y-113816880D01*
X118129229Y-113609472D01*
X118129224Y-113609461D01*
X118030061Y-113410316D01*
X118030056Y-113410308D01*
X117895979Y-113232761D01*
X117731562Y-113082876D01*
X117731560Y-113082874D01*
X117542404Y-112965754D01*
X117542398Y-112965752D01*
X117334940Y-112885382D01*
X117116243Y-112844500D01*
X116893757Y-112844500D01*
X116675060Y-112885382D01*
X116562317Y-112929059D01*
X116467601Y-112965752D01*
X116467595Y-112965754D01*
X116278439Y-113082874D01*
X116278437Y-113082876D01*
X116114020Y-113232761D01*
X115979943Y-113410308D01*
X115979938Y-113410316D01*
X115880775Y-113609461D01*
X115880769Y-113609476D01*
X115826722Y-113799434D01*
X115789443Y-113858528D01*
X115726133Y-113888085D01*
X115707456Y-113889500D01*
X110749098Y-113889500D01*
X110682059Y-113869815D01*
X110636304Y-113817011D01*
X110626360Y-113747853D01*
X110655385Y-113684297D01*
X110661417Y-113677819D01*
X110750520Y-113588716D01*
X110810156Y-113485423D01*
X110821770Y-113465308D01*
X110829574Y-113451790D01*
X110829573Y-113451790D01*
X110829577Y-113451785D01*
X110870500Y-113299058D01*
X110870500Y-113140943D01*
X110870500Y-112810000D01*
X122294859Y-112810000D01*
X122315378Y-113031439D01*
X122376240Y-113245350D01*
X122475369Y-113444428D01*
X122491137Y-113465308D01*
X122491138Y-113465308D01*
X123100369Y-112856078D01*
X123150000Y-112856078D01*
X123173852Y-112945095D01*
X123219930Y-113024905D01*
X123285095Y-113090070D01*
X123364905Y-113136148D01*
X123453922Y-113160000D01*
X123546078Y-113160000D01*
X123635095Y-113136148D01*
X123714905Y-113090070D01*
X123780070Y-113024905D01*
X123826148Y-112945095D01*
X123850000Y-112856078D01*
X123850000Y-112810000D01*
X123853553Y-112810000D01*
X124508861Y-113465308D01*
X124524631Y-113444425D01*
X124524633Y-113444422D01*
X124623759Y-113245350D01*
X124684621Y-113031439D01*
X124705141Y-112810000D01*
X124705141Y-112809999D01*
X124684621Y-112588560D01*
X124623759Y-112374649D01*
X124524635Y-112175580D01*
X124524630Y-112175572D01*
X124508860Y-112154690D01*
X123853553Y-112809999D01*
X123853553Y-112810000D01*
X123850000Y-112810000D01*
X123850000Y-112763922D01*
X123826148Y-112674905D01*
X123780070Y-112595095D01*
X123714905Y-112529930D01*
X123635095Y-112483852D01*
X123546078Y-112460000D01*
X123453922Y-112460000D01*
X123364905Y-112483852D01*
X123285095Y-112529930D01*
X123219930Y-112595095D01*
X123173852Y-112674905D01*
X123150000Y-112763922D01*
X123150000Y-112856078D01*
X123100369Y-112856078D01*
X123146447Y-112810000D01*
X122491138Y-112154691D01*
X122491137Y-112154691D01*
X122475368Y-112175574D01*
X122376240Y-112374649D01*
X122315378Y-112588560D01*
X122294859Y-112809999D01*
X122294859Y-112810000D01*
X110870500Y-112810000D01*
X110870500Y-111803119D01*
X122846671Y-111803119D01*
X123500000Y-112456447D01*
X123500001Y-112456447D01*
X124153327Y-111803119D01*
X124037178Y-111731202D01*
X124037177Y-111731201D01*
X123829804Y-111650865D01*
X123611193Y-111610000D01*
X123388807Y-111610000D01*
X123170195Y-111650865D01*
X122962824Y-111731200D01*
X122962823Y-111731201D01*
X122846671Y-111803119D01*
X110870500Y-111803119D01*
X110870500Y-106675000D01*
X115828505Y-106675000D01*
X115881239Y-106860349D01*
X115980368Y-107059425D01*
X116114391Y-107236900D01*
X116278738Y-107386721D01*
X116467820Y-107503797D01*
X116467822Y-107503798D01*
X116675195Y-107584135D01*
X116755000Y-107599052D01*
X116755000Y-106675000D01*
X115828505Y-106675000D01*
X110870500Y-106675000D01*
X110870500Y-106471078D01*
X116655000Y-106471078D01*
X116678852Y-106560095D01*
X116724930Y-106639905D01*
X116790095Y-106705070D01*
X116869905Y-106751148D01*
X116958922Y-106775000D01*
X117051078Y-106775000D01*
X117140095Y-106751148D01*
X117219905Y-106705070D01*
X117249975Y-106675000D01*
X117255000Y-106675000D01*
X117255000Y-107599052D01*
X117334804Y-107584135D01*
X117542177Y-107503798D01*
X117542179Y-107503797D01*
X117731261Y-107386721D01*
X117895608Y-107236900D01*
X118029631Y-107059425D01*
X118128760Y-106860349D01*
X118181495Y-106675000D01*
X117255000Y-106675000D01*
X117249975Y-106675000D01*
X117285070Y-106639905D01*
X117331148Y-106560095D01*
X117355000Y-106471078D01*
X117355000Y-106378922D01*
X117331148Y-106289905D01*
X117285070Y-106210095D01*
X117219905Y-106144930D01*
X117140095Y-106098852D01*
X117051078Y-106075000D01*
X116958922Y-106075000D01*
X116869905Y-106098852D01*
X116790095Y-106144930D01*
X116724930Y-106210095D01*
X116678852Y-106289905D01*
X116655000Y-106378922D01*
X116655000Y-106471078D01*
X110870500Y-106471078D01*
X110870500Y-106175000D01*
X115828505Y-106175000D01*
X116755000Y-106175000D01*
X116755000Y-105250946D01*
X117255000Y-105250946D01*
X117255000Y-106175000D01*
X118181495Y-106175000D01*
X118128760Y-105989650D01*
X118029631Y-105790574D01*
X117895608Y-105613099D01*
X117731261Y-105463278D01*
X117542179Y-105346202D01*
X117542177Y-105346201D01*
X117334799Y-105265864D01*
X117255000Y-105250946D01*
X116755000Y-105250946D01*
X116675200Y-105265864D01*
X116467822Y-105346201D01*
X116467820Y-105346202D01*
X116278738Y-105463278D01*
X116114391Y-105613099D01*
X115980368Y-105790574D01*
X115881239Y-105989650D01*
X115828505Y-106175000D01*
X110870500Y-106175000D01*
X110870500Y-102764059D01*
X110870501Y-102764046D01*
X110870501Y-102595945D01*
X110870501Y-102595943D01*
X110829577Y-102443215D01*
X110764791Y-102331003D01*
X110750520Y-102306284D01*
X110750518Y-102306282D01*
X110750517Y-102306280D01*
X110634397Y-102190160D01*
X110634374Y-102190139D01*
X110471589Y-102027354D01*
X110438104Y-101966031D01*
X110437666Y-101963929D01*
X110431091Y-101930873D01*
X110353786Y-101744244D01*
X110353785Y-101744242D01*
X110353100Y-101742960D01*
X110352943Y-101742210D01*
X110351455Y-101738616D01*
X110352136Y-101738333D01*
X110338853Y-101674558D01*
X110363849Y-101609313D01*
X110420152Y-101567939D01*
X110462454Y-101560500D01*
X118181455Y-101560500D01*
X118248494Y-101580185D01*
G37*
G04 #@! TD.AperFunction*
G04 #@! TA.AperFunction,Conductor*
G36*
X145502540Y-93620185D02*
G01*
X145548295Y-93672989D01*
X145559501Y-93724500D01*
X145559501Y-93947876D01*
X145565908Y-94007483D01*
X145616202Y-94142328D01*
X145616206Y-94142335D01*
X145702452Y-94257544D01*
X145702455Y-94257547D01*
X145817664Y-94343793D01*
X145817671Y-94343797D01*
X145952517Y-94394091D01*
X145952516Y-94394091D01*
X145959444Y-94394835D01*
X146012127Y-94400500D01*
X147907872Y-94400499D01*
X147967483Y-94394091D01*
X148102331Y-94343796D01*
X148217546Y-94257546D01*
X148303796Y-94142331D01*
X148303798Y-94142326D01*
X148332455Y-94065493D01*
X148374326Y-94009559D01*
X148439790Y-93985141D01*
X148508063Y-93999992D01*
X148539866Y-94024843D01*
X148547302Y-94032920D01*
X148548215Y-94033912D01*
X148548222Y-94033918D01*
X148731365Y-94176464D01*
X148731376Y-94176471D01*
X148834517Y-94232288D01*
X148884108Y-94281507D01*
X148899500Y-94341343D01*
X148899500Y-98658655D01*
X148879815Y-98725694D01*
X148834519Y-98767709D01*
X148731376Y-98823528D01*
X148731365Y-98823535D01*
X148548222Y-98966081D01*
X148548218Y-98966085D01*
X148539866Y-98975158D01*
X148479979Y-99011148D01*
X148410141Y-99009047D01*
X148352525Y-98969522D01*
X148332455Y-98934507D01*
X148303797Y-98857671D01*
X148303793Y-98857664D01*
X148217547Y-98742455D01*
X148217544Y-98742452D01*
X148102335Y-98656206D01*
X148102328Y-98656202D01*
X147967482Y-98605908D01*
X147967483Y-98605908D01*
X147907883Y-98599501D01*
X147907881Y-98599500D01*
X147907873Y-98599500D01*
X147907864Y-98599500D01*
X146012129Y-98599500D01*
X146012123Y-98599501D01*
X145952516Y-98605908D01*
X145817671Y-98656202D01*
X145817664Y-98656206D01*
X145702455Y-98742452D01*
X145702452Y-98742455D01*
X145616206Y-98857664D01*
X145616202Y-98857671D01*
X145565908Y-98992517D01*
X145559501Y-99052116D01*
X145559500Y-99052135D01*
X145559500Y-99275500D01*
X145539815Y-99342539D01*
X145487011Y-99388294D01*
X145435500Y-99399500D01*
X137000939Y-99399500D01*
X136966547Y-99408715D01*
X136966548Y-99408716D01*
X136938099Y-99416339D01*
X136868249Y-99414676D01*
X136810386Y-99375514D01*
X136782882Y-99311286D01*
X136785677Y-99272199D01*
X136784694Y-99272026D01*
X136785631Y-99266703D01*
X136785635Y-99266692D01*
X136805468Y-99040000D01*
X136785635Y-98813308D01*
X136759847Y-98717066D01*
X136761510Y-98647217D01*
X136791939Y-98597294D01*
X141752416Y-93636819D01*
X141813739Y-93603334D01*
X141840097Y-93600500D01*
X145435501Y-93600500D01*
X145502540Y-93620185D01*
G37*
G04 #@! TD.AperFunction*
G04 #@! TA.AperFunction,Conductor*
G36*
X151442539Y-79520185D02*
G01*
X151488294Y-79572989D01*
X151499500Y-79624500D01*
X151499500Y-126375500D01*
X151479815Y-126442539D01*
X151427011Y-126488294D01*
X151375500Y-126499500D01*
X103124500Y-126499500D01*
X103057461Y-126479815D01*
X103011706Y-126427011D01*
X103000500Y-126375500D01*
X103000500Y-115379054D01*
X107199498Y-115379054D01*
X107207942Y-115410568D01*
X107240423Y-115531785D01*
X107242870Y-115536024D01*
X107259965Y-115565631D01*
X107259966Y-115565635D01*
X107319475Y-115668709D01*
X107319481Y-115668717D01*
X107438349Y-115787585D01*
X107438355Y-115787590D01*
X107705139Y-116054374D01*
X107705149Y-116054385D01*
X107709479Y-116058715D01*
X107709480Y-116058716D01*
X107821284Y-116170520D01*
X107908095Y-116220639D01*
X107908097Y-116220641D01*
X107958213Y-116249576D01*
X107958215Y-116249577D01*
X108110942Y-116290500D01*
X108110943Y-116290500D01*
X126383331Y-116290500D01*
X126383347Y-116290501D01*
X126390943Y-116290501D01*
X126549054Y-116290501D01*
X126549057Y-116290501D01*
X126701785Y-116249577D01*
X126751904Y-116220639D01*
X126838716Y-116170520D01*
X126950520Y-116058716D01*
X126950521Y-116058713D01*
X127067821Y-115941412D01*
X127129142Y-115907930D01*
X127198834Y-115912914D01*
X127254767Y-115954786D01*
X127279184Y-116020251D01*
X127279500Y-116029096D01*
X127279500Y-121783330D01*
X127279499Y-121783348D01*
X127279499Y-121792787D01*
X127278789Y-121796172D01*
X127278742Y-121797024D01*
X127278741Y-121797033D01*
X127278611Y-121797018D01*
X127269055Y-121842597D01*
X127180842Y-122043699D01*
X127123866Y-122268691D01*
X127123864Y-122268702D01*
X127104700Y-122499993D01*
X127104700Y-122500006D01*
X127123864Y-122731297D01*
X127123866Y-122731308D01*
X127180842Y-122956300D01*
X127274075Y-123168848D01*
X127401016Y-123363147D01*
X127401019Y-123363151D01*
X127401021Y-123363153D01*
X127558216Y-123533913D01*
X127558219Y-123533915D01*
X127558222Y-123533918D01*
X127741365Y-123676464D01*
X127741371Y-123676468D01*
X127741374Y-123676470D01*
X127945497Y-123786936D01*
X128059487Y-123826068D01*
X128165015Y-123862297D01*
X128165017Y-123862297D01*
X128165019Y-123862298D01*
X128393951Y-123900500D01*
X128393952Y-123900500D01*
X128626048Y-123900500D01*
X128626049Y-123900500D01*
X128854981Y-123862298D01*
X128906897Y-123844474D01*
X128976693Y-123841324D01*
X129034840Y-123874075D01*
X130025139Y-124864374D01*
X130025149Y-124864385D01*
X130029479Y-124868715D01*
X130029480Y-124868716D01*
X130141284Y-124980520D01*
X130228095Y-125030639D01*
X130228097Y-125030641D01*
X130266151Y-125052611D01*
X130278215Y-125059577D01*
X130430943Y-125100500D01*
X130589057Y-125100500D01*
X135773331Y-125100500D01*
X135773347Y-125100501D01*
X135780943Y-125100501D01*
X135939054Y-125100501D01*
X135939057Y-125100501D01*
X136091785Y-125059577D01*
X136141904Y-125030639D01*
X136228716Y-124980520D01*
X136340520Y-124868716D01*
X136340520Y-124868714D01*
X136350728Y-124858507D01*
X136350730Y-124858504D01*
X137370939Y-123838294D01*
X137432260Y-123804811D01*
X137498881Y-123808696D01*
X137655015Y-123862297D01*
X137655017Y-123862297D01*
X137655019Y-123862298D01*
X137883951Y-123900500D01*
X137883952Y-123900500D01*
X138116048Y-123900500D01*
X138116049Y-123900500D01*
X138344981Y-123862298D01*
X138396897Y-123844474D01*
X138466693Y-123841324D01*
X138524840Y-123874075D01*
X140015139Y-125364374D01*
X140015149Y-125364385D01*
X140019479Y-125368715D01*
X140019480Y-125368716D01*
X140131284Y-125480520D01*
X140218095Y-125530639D01*
X140218097Y-125530641D01*
X140256151Y-125552611D01*
X140268215Y-125559577D01*
X140420943Y-125600501D01*
X140420946Y-125600501D01*
X140586653Y-125600501D01*
X140586669Y-125600500D01*
X144178331Y-125600500D01*
X144178347Y-125600501D01*
X144185943Y-125600501D01*
X144344054Y-125600501D01*
X144344057Y-125600501D01*
X144496785Y-125559577D01*
X144546904Y-125530639D01*
X144633716Y-125480520D01*
X144745520Y-125368716D01*
X144745520Y-125368714D01*
X144755728Y-125358507D01*
X144755730Y-125358504D01*
X146240160Y-123874073D01*
X146301481Y-123840590D01*
X146368102Y-123844474D01*
X146420019Y-123862298D01*
X146648951Y-123900500D01*
X146648952Y-123900500D01*
X146881048Y-123900500D01*
X146881049Y-123900500D01*
X147109981Y-123862298D01*
X147329503Y-123786936D01*
X147533626Y-123676470D01*
X147716784Y-123533913D01*
X147873979Y-123363153D01*
X148000924Y-123168849D01*
X148094157Y-122956300D01*
X148151134Y-122731305D01*
X148170300Y-122500000D01*
X148170300Y-122499993D01*
X148151135Y-122268702D01*
X148151133Y-122268691D01*
X148094157Y-122043699D01*
X148000924Y-121831151D01*
X147873983Y-121636852D01*
X147873980Y-121636849D01*
X147873979Y-121636847D01*
X147716784Y-121466087D01*
X147716779Y-121466083D01*
X147716777Y-121466081D01*
X147533634Y-121323535D01*
X147533623Y-121323528D01*
X147430481Y-121267709D01*
X147380891Y-121218489D01*
X147365500Y-121158655D01*
X147365500Y-116535096D01*
X147385185Y-116468057D01*
X147401814Y-116447419D01*
X148475160Y-115374073D01*
X148536481Y-115340590D01*
X148603102Y-115344474D01*
X148655019Y-115362298D01*
X148883951Y-115400500D01*
X148883952Y-115400500D01*
X149116048Y-115400500D01*
X149116049Y-115400500D01*
X149344981Y-115362298D01*
X149564503Y-115286936D01*
X149768626Y-115176470D01*
X149951784Y-115033913D01*
X150108979Y-114863153D01*
X150112844Y-114857238D01*
X150122832Y-114841948D01*
X150235924Y-114668849D01*
X150329157Y-114456300D01*
X150386134Y-114231305D01*
X150386135Y-114231297D01*
X150405300Y-114000006D01*
X150405300Y-113999993D01*
X150386135Y-113768702D01*
X150386133Y-113768691D01*
X150329157Y-113543699D01*
X150235924Y-113331151D01*
X150108983Y-113136852D01*
X150108980Y-113136849D01*
X150108979Y-113136847D01*
X149951784Y-112966087D01*
X149951779Y-112966083D01*
X149951777Y-112966081D01*
X149768634Y-112823535D01*
X149768623Y-112823528D01*
X149665481Y-112767709D01*
X149615891Y-112718489D01*
X149600500Y-112658655D01*
X149600500Y-107454087D01*
X149620185Y-107387048D01*
X149672989Y-107341293D01*
X149684237Y-107336806D01*
X149704029Y-107330011D01*
X149829503Y-107286936D01*
X150033626Y-107176470D01*
X150052616Y-107161690D01*
X150130500Y-107101070D01*
X150216784Y-107033913D01*
X150373979Y-106863153D01*
X150500924Y-106668849D01*
X150594157Y-106456300D01*
X150651134Y-106231305D01*
X150652295Y-106217293D01*
X150670300Y-106000006D01*
X150670300Y-105999993D01*
X150651135Y-105768702D01*
X150651133Y-105768691D01*
X150594157Y-105543699D01*
X150500924Y-105331151D01*
X150373983Y-105136852D01*
X150373980Y-105136849D01*
X150373979Y-105136847D01*
X150216784Y-104966087D01*
X150148337Y-104912812D01*
X150107524Y-104856101D01*
X150100500Y-104814959D01*
X150100500Y-101341343D01*
X150120185Y-101274304D01*
X150165483Y-101232288D01*
X150268626Y-101176470D01*
X150451784Y-101033913D01*
X150608979Y-100863153D01*
X150735924Y-100668849D01*
X150829157Y-100456300D01*
X150886134Y-100231305D01*
X150888903Y-100197892D01*
X150905300Y-100000006D01*
X150905300Y-99999993D01*
X150886135Y-99768702D01*
X150886133Y-99768691D01*
X150829157Y-99543699D01*
X150735924Y-99331151D01*
X150608983Y-99136852D01*
X150608980Y-99136849D01*
X150608979Y-99136847D01*
X150451784Y-98966087D01*
X150451779Y-98966083D01*
X150451777Y-98966081D01*
X150268634Y-98823535D01*
X150268623Y-98823528D01*
X150165481Y-98767709D01*
X150115891Y-98718489D01*
X150100500Y-98658655D01*
X150100500Y-94341343D01*
X150120185Y-94274304D01*
X150165483Y-94232288D01*
X150268626Y-94176470D01*
X150277150Y-94169836D01*
X150330947Y-94127964D01*
X150451784Y-94033913D01*
X150608979Y-93863153D01*
X150735924Y-93668849D01*
X150829157Y-93456300D01*
X150886134Y-93231305D01*
X150886385Y-93228278D01*
X150905300Y-93000006D01*
X150905300Y-92999993D01*
X150886135Y-92768702D01*
X150886133Y-92768691D01*
X150829157Y-92543699D01*
X150735924Y-92331151D01*
X150608983Y-92136852D01*
X150608980Y-92136849D01*
X150608979Y-92136847D01*
X150451784Y-91966087D01*
X150451779Y-91966083D01*
X150451777Y-91966081D01*
X150268634Y-91823535D01*
X150268623Y-91823528D01*
X150165481Y-91767709D01*
X150115891Y-91718489D01*
X150100500Y-91658655D01*
X150100500Y-87341343D01*
X150120185Y-87274304D01*
X150165483Y-87232288D01*
X150268626Y-87176470D01*
X150451784Y-87033913D01*
X150608979Y-86863153D01*
X150735924Y-86668849D01*
X150829157Y-86456300D01*
X150886134Y-86231305D01*
X150886135Y-86231297D01*
X150905300Y-86000006D01*
X150905300Y-85999993D01*
X150886135Y-85768702D01*
X150886133Y-85768691D01*
X150829157Y-85543699D01*
X150735924Y-85331151D01*
X150608983Y-85136852D01*
X150608980Y-85136849D01*
X150608979Y-85136847D01*
X150451784Y-84966087D01*
X150451779Y-84966083D01*
X150451777Y-84966081D01*
X150268634Y-84823535D01*
X150268628Y-84823531D01*
X150064504Y-84713064D01*
X150064495Y-84713061D01*
X149844984Y-84637702D01*
X149654450Y-84605908D01*
X149616049Y-84599500D01*
X149383951Y-84599500D01*
X149345795Y-84605867D01*
X149155014Y-84637702D01*
X149103098Y-84655524D01*
X149033300Y-84658672D01*
X148975158Y-84625923D01*
X147487590Y-83138355D01*
X147487588Y-83138352D01*
X147368717Y-83019481D01*
X147368716Y-83019480D01*
X147281904Y-82969360D01*
X147281904Y-82969359D01*
X147281900Y-82969358D01*
X147231785Y-82940423D01*
X147079057Y-82899499D01*
X146920943Y-82899499D01*
X146913347Y-82899499D01*
X146913331Y-82899500D01*
X140346801Y-82899500D01*
X140279762Y-82879815D01*
X140237747Y-82834519D01*
X140235924Y-82831151D01*
X140108983Y-82636852D01*
X140108980Y-82636849D01*
X140108979Y-82636847D01*
X139951784Y-82466087D01*
X139951779Y-82466083D01*
X139951777Y-82466081D01*
X139768634Y-82323535D01*
X139768628Y-82323531D01*
X139564504Y-82213064D01*
X139564495Y-82213061D01*
X139344984Y-82137702D01*
X139173282Y-82109050D01*
X139116049Y-82099500D01*
X138883951Y-82099500D01*
X138838164Y-82107140D01*
X138655015Y-82137702D01*
X138435501Y-82213062D01*
X138435486Y-82213069D01*
X138418952Y-82222016D01*
X138350623Y-82236609D01*
X138285252Y-82211943D01*
X138243593Y-82155850D01*
X138240169Y-82145067D01*
X138219577Y-82068216D01*
X138219573Y-82068209D01*
X138140524Y-81931290D01*
X138140518Y-81931282D01*
X138028717Y-81819481D01*
X138028709Y-81819475D01*
X137891790Y-81740426D01*
X137891786Y-81740424D01*
X137891784Y-81740423D01*
X137739057Y-81699500D01*
X130819057Y-81699500D01*
X130660942Y-81699500D01*
X130508215Y-81740423D01*
X130508214Y-81740423D01*
X130508212Y-81740424D01*
X130508209Y-81740425D01*
X130458096Y-81769359D01*
X130458095Y-81769360D01*
X130414689Y-81794420D01*
X130371285Y-81819479D01*
X130371282Y-81819481D01*
X130259478Y-81931286D01*
X130064840Y-82125923D01*
X130003517Y-82159408D01*
X129936898Y-82155524D01*
X129884981Y-82137702D01*
X129814393Y-82125923D01*
X129656049Y-82099500D01*
X129423951Y-82099500D01*
X129385795Y-82105867D01*
X129195014Y-82137702D01*
X129143098Y-82155524D01*
X129073300Y-82158672D01*
X129015158Y-82125923D01*
X128827590Y-81938355D01*
X128827588Y-81938352D01*
X128708717Y-81819481D01*
X128708716Y-81819480D01*
X128621904Y-81769360D01*
X128621904Y-81769359D01*
X128621900Y-81769358D01*
X128571785Y-81740423D01*
X128419057Y-81699499D01*
X128260943Y-81699499D01*
X128253347Y-81699499D01*
X128253331Y-81699500D01*
X122786669Y-81699500D01*
X122786653Y-81699499D01*
X122779057Y-81699499D01*
X122620943Y-81699499D01*
X122513587Y-81728265D01*
X122468210Y-81740424D01*
X122468209Y-81740425D01*
X122418096Y-81769359D01*
X122418095Y-81769360D01*
X122374689Y-81794420D01*
X122331285Y-81819479D01*
X122331282Y-81819481D01*
X122219478Y-81931286D01*
X121077582Y-83073181D01*
X121016259Y-83106666D01*
X120989901Y-83109500D01*
X119602129Y-83109500D01*
X119602123Y-83109501D01*
X119542516Y-83115908D01*
X119407671Y-83166202D01*
X119407664Y-83166206D01*
X119292455Y-83252452D01*
X119292452Y-83252455D01*
X119206206Y-83367664D01*
X119206202Y-83367671D01*
X119155908Y-83502517D01*
X119149501Y-83562116D01*
X119149500Y-83562135D01*
X119149500Y-85357870D01*
X119149501Y-85357876D01*
X119155908Y-85417483D01*
X119206202Y-85552328D01*
X119206206Y-85552335D01*
X119292452Y-85667544D01*
X119292455Y-85667547D01*
X119407664Y-85753793D01*
X119407671Y-85753797D01*
X119447615Y-85768695D01*
X119539598Y-85803002D01*
X119595531Y-85844873D01*
X119619949Y-85910337D01*
X119605098Y-85978610D01*
X119583947Y-86006865D01*
X119461886Y-86128926D01*
X119326400Y-86322420D01*
X119326399Y-86322422D01*
X119226570Y-86536507D01*
X119226567Y-86536513D01*
X119169364Y-86749999D01*
X119169364Y-86750000D01*
X120066988Y-86750000D01*
X120034075Y-86807007D01*
X120000000Y-86934174D01*
X120000000Y-87065826D01*
X120034075Y-87192993D01*
X120066988Y-87250000D01*
X119169364Y-87250000D01*
X119226567Y-87463486D01*
X119226570Y-87463492D01*
X119326399Y-87677578D01*
X119461894Y-87871082D01*
X119628917Y-88038105D01*
X119822421Y-88173600D01*
X120036507Y-88273429D01*
X120036516Y-88273433D01*
X120250000Y-88330634D01*
X120250000Y-87433012D01*
X120307007Y-87465925D01*
X120434174Y-87500000D01*
X120565826Y-87500000D01*
X120692993Y-87465925D01*
X120750000Y-87433012D01*
X120750000Y-88330633D01*
X120963483Y-88273433D01*
X120963492Y-88273429D01*
X121177578Y-88173600D01*
X121371082Y-88038105D01*
X121538105Y-87871082D01*
X121673600Y-87677578D01*
X121773429Y-87463492D01*
X121773432Y-87463486D01*
X121830636Y-87250000D01*
X120933012Y-87250000D01*
X120965925Y-87192993D01*
X121000000Y-87065826D01*
X121000000Y-86934174D01*
X120965925Y-86807007D01*
X120933012Y-86750000D01*
X121830636Y-86750000D01*
X121830635Y-86749999D01*
X121773432Y-86536513D01*
X121773429Y-86536507D01*
X121673600Y-86322422D01*
X121673599Y-86322420D01*
X121538113Y-86128926D01*
X121538108Y-86128920D01*
X121416053Y-86006865D01*
X121382568Y-85945542D01*
X121387552Y-85875850D01*
X121429424Y-85819917D01*
X121460400Y-85803002D01*
X121592331Y-85753796D01*
X121707546Y-85667546D01*
X121793796Y-85552331D01*
X121844091Y-85417483D01*
X121850500Y-85357873D01*
X121850499Y-84050095D01*
X121870184Y-83983057D01*
X121886813Y-83962420D01*
X122912416Y-82936819D01*
X122973739Y-82903334D01*
X123000097Y-82900500D01*
X125475500Y-82900500D01*
X125542539Y-82920185D01*
X125588294Y-82972989D01*
X125599500Y-83024500D01*
X125599500Y-84447870D01*
X125599501Y-84447876D01*
X125605908Y-84507483D01*
X125656202Y-84642328D01*
X125656206Y-84642335D01*
X125742452Y-84757544D01*
X125742455Y-84757547D01*
X125857664Y-84843793D01*
X125857671Y-84843797D01*
X125992517Y-84894091D01*
X125992516Y-84894091D01*
X125999444Y-84894835D01*
X126052127Y-84900500D01*
X126999902Y-84900499D01*
X127066941Y-84920183D01*
X127087583Y-84936818D01*
X127243181Y-85092416D01*
X127276666Y-85153739D01*
X127279500Y-85180097D01*
X127279500Y-92535500D01*
X127259815Y-92602539D01*
X127207011Y-92648294D01*
X127155501Y-92659500D01*
X127032130Y-92659500D01*
X127032123Y-92659501D01*
X126972516Y-92665908D01*
X126837671Y-92716202D01*
X126837664Y-92716206D01*
X126722455Y-92802452D01*
X126722452Y-92802455D01*
X126636206Y-92917664D01*
X126636202Y-92917671D01*
X126585908Y-93052517D01*
X126579599Y-93111202D01*
X126579501Y-93112123D01*
X126579500Y-93112135D01*
X126579500Y-94807870D01*
X126579501Y-94807876D01*
X126585908Y-94867483D01*
X126636202Y-95002328D01*
X126636206Y-95002335D01*
X126722452Y-95117544D01*
X126722455Y-95117547D01*
X126837664Y-95203793D01*
X126837671Y-95203797D01*
X126972513Y-95254090D01*
X126972514Y-95254090D01*
X126972517Y-95254091D01*
X127008353Y-95257944D01*
X127072901Y-95284679D01*
X127112751Y-95342070D01*
X127115246Y-95411896D01*
X127079595Y-95471985D01*
X127066223Y-95482805D01*
X127041182Y-95500339D01*
X126880342Y-95661179D01*
X126749865Y-95847517D01*
X126653734Y-96053673D01*
X126653730Y-96053682D01*
X126601127Y-96249999D01*
X126601128Y-96250000D01*
X127564314Y-96250000D01*
X127559920Y-96254394D01*
X127507259Y-96345606D01*
X127480000Y-96447339D01*
X127480000Y-96552661D01*
X127507259Y-96654394D01*
X127559920Y-96745606D01*
X127564314Y-96750000D01*
X126601128Y-96750000D01*
X126653730Y-96946317D01*
X126653734Y-96946326D01*
X126749865Y-97152482D01*
X126880342Y-97338820D01*
X127041179Y-97499657D01*
X127227518Y-97630134D01*
X127227520Y-97630135D01*
X127285865Y-97657342D01*
X127338305Y-97703514D01*
X127357457Y-97770707D01*
X127337242Y-97837589D01*
X127285867Y-97882105D01*
X127285275Y-97882382D01*
X127227264Y-97909433D01*
X127040858Y-98039954D01*
X126879954Y-98200858D01*
X126749432Y-98387265D01*
X126749431Y-98387267D01*
X126653261Y-98593502D01*
X126653258Y-98593511D01*
X126594366Y-98813302D01*
X126594364Y-98813313D01*
X126574532Y-99039998D01*
X126574532Y-99040001D01*
X126594364Y-99266686D01*
X126594366Y-99266697D01*
X126653258Y-99486488D01*
X126653261Y-99486497D01*
X126749431Y-99692732D01*
X126749432Y-99692734D01*
X126879954Y-99879141D01*
X127040858Y-100040045D01*
X127087693Y-100072839D01*
X127227266Y-100170568D01*
X127285865Y-100197893D01*
X127338305Y-100244065D01*
X127357457Y-100311258D01*
X127337242Y-100378139D01*
X127285867Y-100422657D01*
X127227515Y-100449867D01*
X127041179Y-100580342D01*
X126880342Y-100741179D01*
X126749865Y-100927517D01*
X126653734Y-101133673D01*
X126653730Y-101133682D01*
X126601127Y-101329999D01*
X126601128Y-101330000D01*
X127564314Y-101330000D01*
X127559920Y-101334394D01*
X127507259Y-101425606D01*
X127480000Y-101527339D01*
X127480000Y-101632661D01*
X127507259Y-101734394D01*
X127559920Y-101825606D01*
X127564314Y-101830000D01*
X126601128Y-101830000D01*
X126594671Y-101838414D01*
X126593719Y-101878414D01*
X126554556Y-101936276D01*
X126490327Y-101963779D01*
X126443515Y-101960431D01*
X126414816Y-101952741D01*
X126384057Y-101944499D01*
X126225943Y-101944499D01*
X126218347Y-101944499D01*
X126218331Y-101944500D01*
X121800097Y-101944500D01*
X121733058Y-101924815D01*
X121712416Y-101908181D01*
X121252590Y-101448355D01*
X121252588Y-101448352D01*
X121133717Y-101329481D01*
X121133716Y-101329480D01*
X121026948Y-101267838D01*
X121026947Y-101267837D01*
X120996783Y-101250422D01*
X120929105Y-101232288D01*
X120844057Y-101209499D01*
X120685943Y-101209499D01*
X120678347Y-101209499D01*
X120678331Y-101209500D01*
X120612621Y-101209500D01*
X120545582Y-101189815D01*
X120513667Y-101160227D01*
X120493614Y-101133673D01*
X120476596Y-101111137D01*
X120390979Y-100997761D01*
X120226562Y-100847876D01*
X120226560Y-100847874D01*
X120037404Y-100730754D01*
X120037398Y-100730752D01*
X120021260Y-100724500D01*
X119829940Y-100650382D01*
X119611243Y-100609500D01*
X119388757Y-100609500D01*
X119331597Y-100620185D01*
X119250783Y-100635291D01*
X119181268Y-100628259D01*
X119140318Y-100601083D01*
X119137590Y-100598355D01*
X119137588Y-100598352D01*
X119018717Y-100479481D01*
X119018716Y-100479480D01*
X118931904Y-100429360D01*
X118931904Y-100429359D01*
X118931900Y-100429358D01*
X118881785Y-100400423D01*
X118729057Y-100359499D01*
X118570943Y-100359499D01*
X118563347Y-100359499D01*
X118563331Y-100359500D01*
X110343397Y-100359500D01*
X110276358Y-100339815D01*
X110246288Y-100310279D01*
X110245422Y-100310990D01*
X110241555Y-100306278D01*
X110098718Y-100163441D01*
X109930762Y-100051217D01*
X109930752Y-100051212D01*
X109744127Y-99973909D01*
X109744119Y-99973907D01*
X109546007Y-99934500D01*
X109546003Y-99934500D01*
X108893997Y-99934500D01*
X108893992Y-99934500D01*
X108695880Y-99973907D01*
X108695872Y-99973909D01*
X108509247Y-100051212D01*
X108509237Y-100051217D01*
X108341281Y-100163441D01*
X108198441Y-100306281D01*
X108086217Y-100474237D01*
X108086212Y-100474247D01*
X108008909Y-100660872D01*
X108008907Y-100660880D01*
X107969500Y-100858992D01*
X107969500Y-101061007D01*
X108008907Y-101259119D01*
X108008909Y-101259127D01*
X108086213Y-101445755D01*
X108139904Y-101526109D01*
X108160782Y-101592787D01*
X108142297Y-101660167D01*
X108139904Y-101663891D01*
X108086213Y-101744244D01*
X108008909Y-101930872D01*
X108008907Y-101930880D01*
X107969500Y-102128992D01*
X107969500Y-102331004D01*
X108008907Y-102529119D01*
X108008909Y-102529127D01*
X108042325Y-102609800D01*
X108049794Y-102679270D01*
X108030038Y-102724660D01*
X108030454Y-102724887D01*
X108027919Y-102729528D01*
X108027037Y-102731556D01*
X108026206Y-102732665D01*
X108026202Y-102732672D01*
X107975908Y-102867517D01*
X107969501Y-102927116D01*
X107969500Y-102927135D01*
X107969500Y-104072870D01*
X107969501Y-104072876D01*
X107975908Y-104132483D01*
X108026202Y-104267328D01*
X108026206Y-104267335D01*
X108112452Y-104382544D01*
X108112455Y-104382547D01*
X108227664Y-104468793D01*
X108227671Y-104468797D01*
X108272618Y-104485561D01*
X108362517Y-104519091D01*
X108422127Y-104525500D01*
X108495500Y-104525499D01*
X108562538Y-104545183D01*
X108608294Y-104597986D01*
X108619500Y-104649499D01*
X108619500Y-110425500D01*
X108599815Y-110492539D01*
X108547011Y-110538294D01*
X108495500Y-110549500D01*
X108052129Y-110549500D01*
X108052123Y-110549501D01*
X107992516Y-110555908D01*
X107857671Y-110606202D01*
X107857664Y-110606206D01*
X107742455Y-110692452D01*
X107742452Y-110692455D01*
X107656206Y-110807664D01*
X107656202Y-110807671D01*
X107605908Y-110942517D01*
X107599501Y-111002116D01*
X107599500Y-111002135D01*
X107599500Y-112449902D01*
X107579815Y-112516941D01*
X107563181Y-112537583D01*
X107319481Y-112781282D01*
X107319479Y-112781285D01*
X107282984Y-112844498D01*
X107282983Y-112844500D01*
X107240423Y-112918214D01*
X107233644Y-112943514D01*
X107199499Y-113070943D01*
X107199499Y-113070945D01*
X107199499Y-113239046D01*
X107199500Y-113239059D01*
X107199500Y-115213330D01*
X107199499Y-115213348D01*
X107199499Y-115379054D01*
X107199498Y-115379054D01*
X103000500Y-115379054D01*
X103000500Y-97506880D01*
X114346672Y-97506880D01*
X114462821Y-97578797D01*
X114462822Y-97578798D01*
X114670195Y-97659134D01*
X114888807Y-97700000D01*
X115111193Y-97700000D01*
X115329809Y-97659133D01*
X115537168Y-97578801D01*
X115537181Y-97578795D01*
X115653326Y-97506879D01*
X115000001Y-96853553D01*
X115000000Y-96853553D01*
X114346672Y-97506879D01*
X114346672Y-97506880D01*
X103000500Y-97506880D01*
X103000500Y-96000006D01*
X107094700Y-96000006D01*
X107113864Y-96231297D01*
X107113866Y-96231308D01*
X107170842Y-96456300D01*
X107264075Y-96668848D01*
X107391016Y-96863147D01*
X107391019Y-96863151D01*
X107391021Y-96863153D01*
X107548216Y-97033913D01*
X107548219Y-97033915D01*
X107548222Y-97033918D01*
X107731365Y-97176464D01*
X107731371Y-97176468D01*
X107731374Y-97176470D01*
X107935497Y-97286936D01*
X108049487Y-97326068D01*
X108155015Y-97362297D01*
X108155017Y-97362297D01*
X108155019Y-97362298D01*
X108383951Y-97400500D01*
X108383952Y-97400500D01*
X108616048Y-97400500D01*
X108616049Y-97400500D01*
X108844981Y-97362298D01*
X109064503Y-97286936D01*
X109268626Y-97176470D01*
X109322650Y-97134422D01*
X109330129Y-97128600D01*
X109451784Y-97033913D01*
X109608979Y-96863153D01*
X109735924Y-96668849D01*
X109809988Y-96500000D01*
X113794859Y-96500000D01*
X113815378Y-96721439D01*
X113876240Y-96935350D01*
X113975369Y-97134428D01*
X113991137Y-97155308D01*
X113991138Y-97155308D01*
X114600369Y-96546078D01*
X114650000Y-96546078D01*
X114673852Y-96635095D01*
X114719930Y-96714905D01*
X114785095Y-96780070D01*
X114864905Y-96826148D01*
X114953922Y-96850000D01*
X115046078Y-96850000D01*
X115135095Y-96826148D01*
X115214905Y-96780070D01*
X115280070Y-96714905D01*
X115326148Y-96635095D01*
X115350000Y-96546078D01*
X115350000Y-96500000D01*
X115353553Y-96500000D01*
X116008861Y-97155308D01*
X116024631Y-97134425D01*
X116024633Y-97134422D01*
X116123759Y-96935350D01*
X116184621Y-96721439D01*
X116205141Y-96500000D01*
X116205141Y-96499999D01*
X116184621Y-96278560D01*
X116123759Y-96064649D01*
X116024635Y-95865580D01*
X116024630Y-95865572D01*
X116008860Y-95844690D01*
X115353553Y-96499999D01*
X115353553Y-96500000D01*
X115350000Y-96500000D01*
X115350000Y-96453922D01*
X115326148Y-96364905D01*
X115280070Y-96285095D01*
X115214905Y-96219930D01*
X115135095Y-96173852D01*
X115046078Y-96150000D01*
X114953922Y-96150000D01*
X114864905Y-96173852D01*
X114785095Y-96219930D01*
X114719930Y-96285095D01*
X114673852Y-96364905D01*
X114650000Y-96453922D01*
X114650000Y-96546078D01*
X114600369Y-96546078D01*
X114646447Y-96500000D01*
X113991138Y-95844691D01*
X113991137Y-95844691D01*
X113975368Y-95865574D01*
X113876240Y-96064649D01*
X113815378Y-96278560D01*
X113794859Y-96499999D01*
X113794859Y-96500000D01*
X109809988Y-96500000D01*
X109829157Y-96456300D01*
X109886134Y-96231305D01*
X109890392Y-96179920D01*
X109905300Y-96000006D01*
X109905300Y-95999993D01*
X109886135Y-95768702D01*
X109886133Y-95768691D01*
X109829157Y-95543699D01*
X109806970Y-95493119D01*
X114346671Y-95493119D01*
X115000000Y-96146447D01*
X115000001Y-96146447D01*
X115653327Y-95493119D01*
X115537178Y-95421202D01*
X115537177Y-95421201D01*
X115329804Y-95340865D01*
X115111193Y-95300000D01*
X114888807Y-95300000D01*
X114670195Y-95340865D01*
X114462824Y-95421200D01*
X114462823Y-95421201D01*
X114346671Y-95493119D01*
X109806970Y-95493119D01*
X109735924Y-95331151D01*
X109608983Y-95136852D01*
X109608980Y-95136849D01*
X109608979Y-95136847D01*
X109514195Y-95033884D01*
X109483275Y-94971232D01*
X109491135Y-94901806D01*
X109535283Y-94847651D01*
X109562095Y-94833722D01*
X109642326Y-94803798D01*
X109642326Y-94803797D01*
X109642331Y-94803796D01*
X109757546Y-94717546D01*
X109843796Y-94602331D01*
X109894091Y-94467483D01*
X109897046Y-94440000D01*
X118323505Y-94440000D01*
X118376239Y-94625349D01*
X118475368Y-94824425D01*
X118609391Y-95001900D01*
X118773738Y-95151721D01*
X118962820Y-95268797D01*
X118962822Y-95268798D01*
X119170195Y-95349135D01*
X119250000Y-95364052D01*
X119250000Y-94440000D01*
X118323505Y-94440000D01*
X109897046Y-94440000D01*
X109900500Y-94407873D01*
X109900500Y-94236078D01*
X119150000Y-94236078D01*
X119173852Y-94325095D01*
X119219930Y-94404905D01*
X119285095Y-94470070D01*
X119364905Y-94516148D01*
X119453922Y-94540000D01*
X119546078Y-94540000D01*
X119635095Y-94516148D01*
X119714905Y-94470070D01*
X119744975Y-94440000D01*
X119750000Y-94440000D01*
X119750000Y-95364052D01*
X119829804Y-95349135D01*
X120037177Y-95268798D01*
X120037179Y-95268797D01*
X120226261Y-95151721D01*
X120390608Y-95001900D01*
X120524631Y-94824425D01*
X120623760Y-94625349D01*
X120676495Y-94440000D01*
X119750000Y-94440000D01*
X119744975Y-94440000D01*
X119780070Y-94404905D01*
X119826148Y-94325095D01*
X119850000Y-94236078D01*
X119850000Y-94143922D01*
X119826148Y-94054905D01*
X119780070Y-93975095D01*
X119714905Y-93909930D01*
X119635095Y-93863852D01*
X119546078Y-93840000D01*
X119453922Y-93840000D01*
X119364905Y-93863852D01*
X119285095Y-93909930D01*
X119219930Y-93975095D01*
X119173852Y-94054905D01*
X119150000Y-94143922D01*
X119150000Y-94236078D01*
X109900500Y-94236078D01*
X109900500Y-93940000D01*
X118323505Y-93940000D01*
X119250000Y-93940000D01*
X119250000Y-93015946D01*
X119750000Y-93015946D01*
X119750000Y-93940000D01*
X120676495Y-93940000D01*
X120623760Y-93754650D01*
X120524631Y-93555574D01*
X120390608Y-93378099D01*
X120226261Y-93228278D01*
X120037179Y-93111202D01*
X120037177Y-93111201D01*
X119829799Y-93030864D01*
X119750000Y-93015946D01*
X119250000Y-93015946D01*
X119170200Y-93030864D01*
X118962822Y-93111201D01*
X118962820Y-93111202D01*
X118773738Y-93228278D01*
X118609391Y-93378099D01*
X118475368Y-93555574D01*
X118376239Y-93754650D01*
X118323505Y-93940000D01*
X109900500Y-93940000D01*
X109900499Y-92960095D01*
X109920184Y-92893057D01*
X109936813Y-92872420D01*
X113292416Y-89516819D01*
X113353739Y-89483334D01*
X113380097Y-89480500D01*
X113887379Y-89480500D01*
X113954418Y-89500185D01*
X113986333Y-89529773D01*
X114109020Y-89692238D01*
X114273437Y-89842123D01*
X114273439Y-89842125D01*
X114462595Y-89959245D01*
X114462596Y-89959245D01*
X114462599Y-89959247D01*
X114670060Y-90039618D01*
X114888757Y-90080500D01*
X114888759Y-90080500D01*
X115111241Y-90080500D01*
X115111243Y-90080500D01*
X115329940Y-90039618D01*
X115537401Y-89959247D01*
X115726562Y-89842124D01*
X115890981Y-89692236D01*
X116025058Y-89514689D01*
X116124229Y-89315528D01*
X116185115Y-89101536D01*
X116205643Y-88880000D01*
X116185115Y-88658464D01*
X116124229Y-88444472D01*
X116101826Y-88399480D01*
X116025061Y-88245316D01*
X116025056Y-88245308D01*
X115890979Y-88067761D01*
X115726562Y-87917876D01*
X115726560Y-87917874D01*
X115537404Y-87800754D01*
X115537398Y-87800752D01*
X115329940Y-87720382D01*
X115111243Y-87679500D01*
X114888757Y-87679500D01*
X114670060Y-87720382D01*
X114538864Y-87771207D01*
X114462601Y-87800752D01*
X114462595Y-87800754D01*
X114273439Y-87917874D01*
X114273437Y-87917876D01*
X114109020Y-88067761D01*
X113986333Y-88230227D01*
X113930224Y-88271863D01*
X113887379Y-88279500D01*
X113000943Y-88279500D01*
X112848214Y-88320423D01*
X112818052Y-88337838D01*
X112818051Y-88337838D01*
X112711287Y-88399477D01*
X112711282Y-88399481D01*
X112599478Y-88511286D01*
X109087582Y-92023181D01*
X109026259Y-92056666D01*
X108999901Y-92059500D01*
X107552129Y-92059500D01*
X107552123Y-92059501D01*
X107492516Y-92065908D01*
X107357671Y-92116202D01*
X107357664Y-92116206D01*
X107242455Y-92202452D01*
X107242452Y-92202455D01*
X107156206Y-92317664D01*
X107156202Y-92317671D01*
X107105908Y-92452517D01*
X107099501Y-92512116D01*
X107099500Y-92512135D01*
X107099500Y-94407870D01*
X107099501Y-94407876D01*
X107105908Y-94467483D01*
X107156202Y-94602328D01*
X107156206Y-94602335D01*
X107242452Y-94717544D01*
X107242455Y-94717547D01*
X107357664Y-94803793D01*
X107357673Y-94803798D01*
X107437904Y-94833722D01*
X107493838Y-94875593D01*
X107518256Y-94941057D01*
X107503405Y-95009330D01*
X107485802Y-95033886D01*
X107391019Y-95136849D01*
X107264075Y-95331151D01*
X107170842Y-95543699D01*
X107113866Y-95768691D01*
X107113864Y-95768702D01*
X107094700Y-95999993D01*
X107094700Y-96000006D01*
X103000500Y-96000006D01*
X103000500Y-79624500D01*
X103020185Y-79557461D01*
X103072989Y-79511706D01*
X103124500Y-79500500D01*
X151375500Y-79500500D01*
X151442539Y-79520185D01*
G37*
G04 #@! TD.AperFunction*
M02*
