M48
; DRILL file {KiCad 8.0.1} date 2024-05-12T16:16:41-0400
; FORMAT={-:-/ absolute / metric / decimal}
; #@! TF.CreationDate,2024-05-12T16:16:41-04:00
; #@! TF.GenerationSoftware,Kicad,Pcbnew,8.0.1
; #@! TF.FileFunction,Plated,1,2,PTH
FMAT,2
METRIC
; #@! TA.AperFunction,Plated,PTH,ViaDrill
T1C0.300
; #@! TA.AperFunction,Plated,PTH,ComponentDrill
T2C0.700
; #@! TA.AperFunction,Plated,PTH,ComponentDrill
T3C0.750
; #@! TA.AperFunction,Plated,PTH,ComponentDrill
T4C0.800
; #@! TA.AperFunction,Plated,PTH,ComponentDrill
T5C0.900
; #@! TA.AperFunction,Plated,PTH,ComponentDrill
T6C1.000
%
G90
G05
T1
X107.0Y-84.0
X107.5Y-119.5
X122.5Y-93.5
X130.5Y-112.0
X131.0Y-98.0
X132.0Y-103.0
X140.5Y-97.0
X146.5Y-81.0
X150.0Y-124.5
T2
X115.0Y-88.88
X115.0Y-96.5
X117.005Y-106.425
X117.005Y-114.045
X119.5Y-94.19
X119.5Y-101.81
X123.5Y-105.19
X123.5Y-112.81
T3
X109.22Y-100.96
X109.22Y-102.23
X109.22Y-103.5
T4
X127.88Y-93.96
X127.88Y-96.5
X127.88Y-99.04
X127.88Y-101.58
X127.88Y-104.12
X127.88Y-106.66
X127.88Y-109.2
X127.88Y-111.74
X127.88Y-114.28
X135.5Y-93.96
X135.5Y-96.5
X135.5Y-99.04
X135.5Y-101.58
X135.5Y-104.12
X135.5Y-106.66
X135.5Y-109.2
X135.5Y-111.74
X135.5Y-114.28
T5
X108.5Y-93.46
X108.5Y-96.0
X109.0Y-111.95
X109.0Y-114.49
X127.0Y-83.5
X128.51Y-122.5
X129.54Y-83.5
X131.05Y-122.5
X135.46Y-122.5
X136.46Y-83.5
X138.0Y-122.5
X139.0Y-83.5
X144.225Y-122.5
X146.46Y-114.0
X146.725Y-106.0
X146.765Y-122.5
X146.96Y-86.0
X146.96Y-93.0
X146.96Y-100.0
X149.0Y-114.0
X149.265Y-106.0
X149.5Y-86.0
X149.5Y-93.0
X149.5Y-100.0
T6
X120.5Y-84.46
X120.5Y-87.0
M30
