%TF.GenerationSoftware,KiCad,Pcbnew,8.0.1*%
%TF.CreationDate,2024-04-03T23:12:43-04:00*%
%TF.ProjectId,recyclobot,72656379-636c-46f6-926f-742e6b696361,rev?*%
%TF.SameCoordinates,Original*%
%TF.FileFunction,Soldermask,Bot*%
%TF.FilePolarity,Negative*%
%FSLAX46Y46*%
G04 Gerber Fmt 4.6, Leading zero omitted, Abs format (unit mm)*
G04 Created by KiCad (PCBNEW 8.0.1) date 2024-04-03 23:12:43*
%MOMM*%
%LPD*%
G01*
G04 APERTURE LIST*
%ADD10R,1.800000X1.800000*%
%ADD11C,1.800000*%
%ADD12R,1.500000X1.050000*%
%ADD13O,1.500000X1.050000*%
%ADD14C,1.400000*%
%ADD15O,1.400000X1.400000*%
%ADD16R,1.600000X1.600000*%
%ADD17O,1.600000X1.600000*%
G04 APERTURE END LIST*
D10*
%TO.C,D6*%
X146960000Y-100000000D03*
D11*
X149500000Y-100000000D03*
%TD*%
D10*
%TO.C,D1*%
X108500000Y-93460000D03*
D11*
X108500000Y-96000000D03*
%TD*%
D10*
%TO.C,Q1*%
X109000000Y-111950000D03*
D11*
X109000000Y-114490000D03*
%TD*%
D10*
%TO.C,D7*%
X146725000Y-106000000D03*
D11*
X149265000Y-106000000D03*
%TD*%
D10*
%TO.C,D3*%
X136460000Y-83500000D03*
D11*
X139000000Y-83500000D03*
%TD*%
D10*
%TO.C,D4*%
X146960000Y-86000000D03*
D11*
X149500000Y-86000000D03*
%TD*%
D10*
%TO.C,D2*%
X127000000Y-83500000D03*
D11*
X129540000Y-83500000D03*
%TD*%
D12*
%TO.C,Q3*%
X109220000Y-103500000D03*
D13*
X109220000Y-102230000D03*
X109220000Y-100960000D03*
%TD*%
D14*
%TO.C,R4*%
X117005000Y-114045000D03*
D15*
X117005000Y-106425000D03*
%TD*%
D10*
%TO.C,D9*%
X144225000Y-122500000D03*
D11*
X146765000Y-122500000D03*
%TD*%
D10*
%TO.C,D10*%
X135460000Y-122500000D03*
D11*
X138000000Y-122500000D03*
%TD*%
D10*
%TO.C,D11*%
X131050000Y-122500000D03*
D11*
X128510000Y-122500000D03*
%TD*%
D10*
%TO.C,D8*%
X146460000Y-114000000D03*
D11*
X149000000Y-114000000D03*
%TD*%
D16*
%TO.C,U1*%
X127880000Y-93960000D03*
D17*
X127880000Y-96500000D03*
X127880000Y-99040000D03*
X127880000Y-101580000D03*
X127880000Y-104120000D03*
X127880000Y-106660000D03*
X127880000Y-109200000D03*
X127880000Y-111740000D03*
X127880000Y-114280000D03*
X135500000Y-114280000D03*
X135500000Y-111740000D03*
X135500000Y-109200000D03*
X135500000Y-106660000D03*
X135500000Y-104120000D03*
X135500000Y-101580000D03*
X135500000Y-99040000D03*
X135500000Y-96500000D03*
X135500000Y-93960000D03*
%TD*%
D14*
%TO.C,R5*%
X119500000Y-101810000D03*
D15*
X119500000Y-94190000D03*
%TD*%
D14*
%TO.C,R3*%
X115000000Y-96500000D03*
D15*
X115000000Y-88880000D03*
%TD*%
D14*
%TO.C,R1*%
X123500000Y-112810000D03*
D15*
X123500000Y-105190000D03*
%TD*%
D10*
%TO.C,D5*%
X146960000Y-93000000D03*
D11*
X149500000Y-93000000D03*
%TD*%
M02*
